<svg version="1.1" id="Layer_1" xmlns="http://www.w3.org/2000/svg" xmlns:xlink="http://www.w3.org/1999/xlink" x="0px" y="0px"
	 viewBox="0 0 703.3 499.3" style="enable-background:new 0 0 703.3 499.3;" xml:space="preserve">
<style type="text/css">
	.st0{fill:#FCFDFF;}
	.st1{fill:#582F10;}
</style>
<g>
	<path class="st0" d="M244.9,169.9c-0.9,1.3-1.8,2.7-2.5,4.2c-0.4,0.8-0.8,1.6-1.1,2.3c-0.1,0.3-0.2,0.5-0.4,0.8
		c-0.3,0.6-0.8,1.4-1.4,2.5c-0.5,1.1-1,2-1.4,3c-0.2,0.4-0.3,0.8-0.6,1.2l-0.7,1.4c-1.3,2.6-2.2,5.3-2.7,8c-1.6,2.2-3,4.7-4.1,7.5
		c0,0-0.1,0.2-0.1,0.3c-0.3,0.7-0.6,1.5-0.8,2.2c-0.1,0.3-0.2,0.6-0.3,0.9l-0.1,0.3c-0.4,0.9-1,2.2-1.7,3.9
		c-1.7,4.2-2.3,8.2-2.4,11.7c-2.5,3.6-4.5,7.8-5.8,12.3c-0.5,1.6-0.8,3-1.1,4c-0.2,0.8-0.3,1.3-0.4,1.6c0,0.1-0.1,0.2-0.1,0.2
		c-0.2,0.6-0.6,1.6-0.9,2.9c-0.5,1.9-0.9,3.8-1.1,5.6c-0.6,1.4-1,2.9-1.4,4.5l-0.1,0.2c-0.7,2.6-1.9,8.4-1.3,15
		c-2.1,2.5-3.9,5.4-5.2,8.7c-0.3,0.7-0.5,1.2-0.7,1.8l-0.2,0.4c-0.3,0.8-0.6,1.5-0.8,2.1c-0.4,0.8-0.9,1.9-1.5,3.3
		c-0.2,0.4-0.3,0.8-0.5,1.2c-0.4,0.8-1,2-1.5,3.4c-0.6,1.6-1.1,3.2-1.5,4.9c-1.4,1.9-2.7,3.9-3.8,6.1c-0.8,1.5-1.4,2.7-1.8,3.7
		c-0.3,0.7-0.6,1.2-0.7,1.5c0,0.1-0.1,0.2-0.1,0.2c-0.3,0.5-0.9,1.4-1.5,2.6c-0.4,0.8-0.8,1.6-1.1,2.4c-0.3,0.4-0.6,0.8-0.9,1.3
		c-0.4,0.6-0.7,1.1-1,1.7l-0.2,0.4c-0.5,0.7-0.8,1.4-1.2,1.9c-0.5,0.7-1.2,1.7-2.1,3c-0.2,0.4-0.5,0.7-0.7,1.1
		c-0.5,0.7-1.3,1.7-2.2,3.1c-0.7,1-1.3,2.1-1.8,3.2c-0.2,0.2-0.4,0.4-0.6,0.7c-0.6,0.7-1.1,1.4-1.5,2c-0.5,0.5-1,1.2-1.7,2
		c-0.8,1-1.5,2-2.2,3.1c-0.9,0.9-1.7,1.8-2.5,2.8c-0.7,0.9-1.3,1.7-1.7,2.3c-0.4,0.4-0.9,1-1.5,1.7c-0.5,0.6-1,1.3-1.4,1.9
		c-0.1,0.1-0.3,0.3-0.4,0.4c-0.7,0.5-1.5,1.2-2.4,2.1c-1.2,1.2-2.3,2.4-3.3,3.6c-1.1,0.8-2.1,1.7-3.1,2.6c-0.6,0.6-1.1,1.1-1.5,1.5
		c-0.4,0.4-0.9,0.8-1.5,1.3c-1.2,1.1-2.3,2.2-3.4,3.5c-0.9,0.7-1.7,1.4-2.6,2.2c-0.5,0.5-0.9,0.9-1.3,1.3c-0.5,0.4-1.1,1-1.9,1.7
		c-1.3,1.2-2.3,2.3-3.3,3.5c-2,0.8-4,1.9-5.8,3.1c-0.6,0.4-1.1,0.8-1.6,1.1l-0.4,0.3c-0.7,0.5-1.3,0.9-1.8,1.3
		c-0.7,0.4-1.8,1.1-3.1,1.9c-0.4,0.2-0.7,0.5-1.1,0.8c-0.8,0.4-1.9,1.1-3.2,2c-0.4,0.2-0.7,0.5-1.1,0.8c-1.2,0.5-2.5,1.2-3.7,1.9
		l-0.2,0.1c-1.8,1-5.4,3.3-9.1,6.8c-2.3,0.5-4.7,1.3-7,2.3l-0.2,0.1c-0.7,0.3-1.4,0.7-2.1,1c-0.3,0.1-0.6,0.3-0.9,0.4l-0.3,0.1
		c-0.9,0.3-2.3,0.8-3.9,1.6c-2.6,1.2-4.9,2.6-6.9,4.1c-2.8,0.2-5.6,0.8-8.3,1.7c-0.8,0.3-1.5,0.5-2,0.7c-0.7,0.2-1.6,0.4-2.6,0.8
		c-1.5,0.5-3,1.1-4.4,1.9c-2.5,0.2-5,0.6-7.5,1.3c-0.5,0.1-1,0.3-1.6,0.4c-0.7,0.1-1.3,0.3-2,0.4c-0.9,0.2-1.6,0.4-2.2,0.6
		c-0.6,0.1-1.3,0.2-2,0.4c-3.1,0.7-6,1.9-8.6,3.3c-3-0.6-6.1-0.8-9.4-0.5l-0.2,0c-0.8,0.1-1.6,0.1-2.4,0.2c-0.3,0-0.6,0.1-1,0.1
		l-0.3,0c-1,0-2.4,0-4.2,0.2c-9.8,0.8-16.4,5.2-20.1,8.7c-0.8,0.8-1.6,1.6-2.3,2.4c-4.1,4.8-6.6,10.7-7.7,18
		c-0.4,2.7-0.5,4.9-0.6,6.2c0,0.2,0,0.3,0,0.5L2.1,442c-0.1,0.7-0.3,1.8-0.4,3.2c0,0.2,0,0.4,0,0.5c-0.1,1.6-0.2,2.8-0.2,3.6
		c0,0.2,0,0.5,0,0.6c0,0.2,0,0.3,0,0.5c-0.1,0.8-0.2,1.6-0.2,2.6c-0.1,1.4-0.2,2.5-0.2,3.3c0,0.2,0,0.4,0,0.5c0,0.1,0,0.1,0,0.2
		c0,0.2,0,0.4-0.1,0.6c-0.1,0.7-0.2,1.3-0.2,2.1c-0.2,1.6-0.2,2.8-0.3,3.6c0,0,0,0.1,0,0.1c-0.2,1.7-0.4,4.2-0.2,7.2
		c1.1,13.7,10.8,24.9,24.1,28c3.3,0.7,6.6,1,10.1,0.7c0.7-0.1,1.4-0.1,2.2-0.2c0.2,0,0.4,0,0.6-0.1l0.3,0c0.7,0,1.3-0.1,2.1-0.1
		c1.5-0.1,3-0.4,4.5-0.7c1.5,0.1,3,0.1,4.5-0.1c1-0.1,1.8-0.2,2.4-0.3c0.8,0,1.9,0,3.2-0.1c4.4-0.4,8.6-1.6,12.4-3.7
		c4.2,0.7,8.5,0.6,12.8-0.4c1.3-0.3,2.4-0.7,3.3-0.9c0.6-0.1,1.4-0.3,2.3-0.5c3.9-0.9,7.5-2.5,10.6-4.7c4.4,0.4,8.8-0.2,13.1-1.6
		c1.3-0.4,2.2-0.8,2.8-1.1l0.1,0l3-1c0.6-0.2,1.3-0.4,2.1-0.7c0.6-0.2,1.2-0.4,1.7-0.6c0.6-0.2,1.5-0.4,2.5-0.8
		c1.7-0.6,3.2-1.2,4.7-2c1.9-0.5,3.8-1.1,5.8-2c0.7-0.3,1.3-0.6,2-0.9c0.2-0.1,0.4-0.2,0.5-0.3l0.3-0.1c0.6-0.3,1.2-0.5,2-0.8
		c1.4-0.6,2.7-1.3,4-2.1c1.4-0.4,2.9-1,4.3-1.6c0.9-0.4,1.6-0.8,2.2-1.1c0.7-0.3,1.7-0.7,2.9-1.2c3.1-1.4,5.9-3.3,8.4-5.5
		c0.4-0.1,0.8-0.2,1.3-0.3c0.9-0.3,1.8-0.6,2.6-0.9c2.8-1.1,7.3-3.5,7.3-3.5c2.1-1.2,4-2.5,5.7-4c1.5-0.7,2.9-1.5,4.2-2.4
		c0.8-0.6,1.5-1.1,2.1-1.5l3-2.1c0.6-0.4,1-0.7,1.5-1.1l0,0c0.6-0.4,1.4-0.9,2.5-1.6l0.7-0.5c0.6-0.3,1.1-0.7,1.8-1.1
		c4.9-3.3,8.5-7.7,10.9-12.5c4.7-1.1,10-3.5,14.9-8.3c0.5-0.5,1-0.9,1.4-1.4l0.1-0.1l0.2-0.2c0.5-0.5,1-0.9,1.6-1.5
		c0.9-0.8,1.7-1.7,2.5-2.6c1-0.8,2.1-1.6,3-2.6c0.7-0.6,1.2-1.2,1.6-1.7c0.5-0.5,1.3-1.1,2.1-1.9c2.7-2.6,4.7-5.4,6.2-8
		c2.8-1.8,5.4-4.1,7.6-6.9c0.7-0.8,1.2-1.6,1.7-2.3c0.5-0.5,1-1.2,1.7-1.9c0.8-1,1.5-2,2.2-3.1c0.8-0.8,1.6-1.7,2.3-2.6
		c0.8-1,1.4-1.9,1.9-2.5c0.4-0.4,0.9-1,1.4-1.7c1.4-1.8,2.6-3.7,3.6-5.6c1.4-1.4,2.7-3,3.8-4.8c0.6-0.9,1-1.6,1.4-2.3l2-3.1
		c0.4-0.6,0.7-1,1-1.5l0,0c0.4-0.5,1-1.4,1.7-2.4l0.5-0.7c0.4-0.5,0.8-1.1,1.2-1.7c1.1-1.7,2.1-3.5,2.8-5.4c1.3-1.6,2.4-3.3,3.4-5.2
		c0.6-1.2,1.1-2.2,1.4-3c0.4-0.6,0.8-1.4,1.3-2.3c0.6-1.1,1.1-2.3,1.6-3.5c0.6-1,1.2-1.9,1.7-2.9c0.6-1.1,1-2,1.3-2.8
		c0,0,0-0.1,0-0.1c0.3-0.5,0.8-1.4,1.4-2.5l0,0c0.9-1.8,1.7-3.6,2.2-5.4c1-1.6,1.9-3.4,2.6-5.2c0.4-0.9,0.7-1.8,0.9-2.5l1.4-3.4
		c0.2-0.6,0.5-1.2,0.6-1.7l0,0c0.3-0.6,0.7-1.5,1.2-2.8l0.3-0.8c0.3-0.6,0.5-1.2,0.8-1.9c2.3-5.7,2.9-11.7,1.9-17.2
		c2-2.4,3.8-5.1,5.4-8.1c0.5-0.8,0.9-1.7,1.2-2.6c1.1-2.7,2.5-7.6,2.5-7.6c0.6-2.3,0.9-4.5,1-6.7c0.2-0.9,0.4-1.7,0.5-2.3
		c0.2-0.7,0.5-1.5,0.8-2.5c0.4-1.2,0.6-2.5,0.9-3.8c0.4-1.1,0.8-2.1,1.1-3.2c0.3-1.2,0.6-2.2,0.7-3c0,0,0-0.1,0-0.1
		c0.2-0.6,0.5-1.5,0.9-2.6l0-0.1c0,0,0,0,0,0c0.2-0.5,0.4-1,0.6-1.5c0.3-0.7,0.5-1.3,0.8-2c0.1-0.2,0.1-0.4,0.2-0.6l0.1-0.3
		c0.3-0.6,0.5-1.2,0.8-2c0.6-1.4,1-2.8,1.4-4.3c0.7-1.3,1.4-2.7,2-4.1c0.4-0.9,0.6-1.7,0.8-2.3c0.3-0.7,0.8-1.7,1.3-2.9
		c0.1-0.2,0.2-0.5,0.3-0.7c0.4-0.7,0.8-1.4,1.1-2.1c0.5-0.9,0.8-1.7,1.1-2.3c0.3-0.6,0.8-1.4,1.2-2.4c1.2-2.4,2-4.9,2.6-7.5
		c1.6-1.7,3.1-3.6,4.3-5.7c0.5-0.8,0.9-1.5,1.1-2.1c0.4-0.6,1-1.5,1.7-2.6c1.6-2.7,2.7-5.5,3.5-8.4c2-1.6,3.9-3.5,5.5-5.6
		c0.5-0.6,0.9-1.2,1.3-1.8c0.1-0.2,0.3-0.3,0.3-0.5l0.2-0.2c0.4-0.5,0.9-1,1.3-1.7c0.9-1.2,1.8-2.5,2.5-3.7c1.1-1,2.1-2.2,3-3.4
		c0.6-0.8,1.1-1.5,1.4-2c0.5-0.6,1.2-1.4,2-2.4c0.2-0.3,0.4-0.6,0.6-0.8c0.2-0.2,0.5-0.5,0.7-0.7c0.8-0.8,1.4-1.6,1.9-2.2
		c0.5-0.5,1.1-1.1,1.9-1.9c1-1.1,2-2.3,2.9-3.5c0.9-0.8,1.8-1.6,2.6-2.5c0.9-0.9,1.5-1.7,2-2.2c0.5-0.4,1.2-1.1,1.9-1.9
		c0.4-0.4,0.8-0.9,1.2-1.3c1-0.7,2-1.5,3-2.3c1.2-1.1,2.2-2.1,2.9-2.8c0.4-0.3,1-0.8,1.6-1.3c4.9-4.3,8.4-8.7,10.8-13.9
		c0,0,0-0.1,0-0.1c3-0.5,6-1.3,9.1-2.5c0.9-0.3,1.7-0.7,2.6-1.1c2.7-1.3,7-4.1,7.1-4.1c1.2-0.8,2.3-1.7,3.4-2.6
		c1.1-0.6,2.1-1.2,2.8-1.7c0.6-0.3,1.4-0.7,2.3-1.2c1.1-0.6,2.2-1.3,3.2-2.1c1-0.4,2.1-0.9,3.1-1.5c1.1-0.6,1.9-1.1,2.6-1.6
		c0,0,0.1,0,0.1,0c0.6-0.3,1.4-0.7,2.4-1.3l0.1-0.1c0,0,0.1,0,0.1-0.1c1.1-0.3,2.1-0.7,3.1-1.2c0.9-0.4,1.7-0.8,2.3-1.2l3.3-1.5
		c0.6-0.3,1.1-0.5,1.7-0.8l0,0c0.6-0.2,1.6-0.6,2.8-1.1l0.7-0.3c0.6-0.2,1.2-0.5,1.9-0.8c0.8-0.4,1.5-0.7,2.3-1.2
		c0.1,0,0.2,0,0.2-0.1c0.7-0.2,1.3-0.5,2-0.7c0.2-0.1,0.4-0.2,0.6-0.2l0.3-0.1c0.6-0.2,1.3-0.4,2-0.7c1.4-0.5,2.8-1.1,4.2-1.8
		c1.5-0.3,2.9-0.7,4.4-1.2c0.9-0.3,1.7-0.6,2.3-0.9c0.7-0.2,1.8-0.5,3-0.9c0.6-0.2,1.1-0.4,1.6-0.6c1-0.2,2-0.4,2.9-0.6
		c0.9-0.2,1.6-0.5,2.2-0.7c0.7-0.1,1.8-0.4,3-0.7c1.4-0.4,2.8-0.9,4.1-1.4c1.6-0.1,3.3-0.3,4.9-0.6c1.2-0.2,2.2-0.5,2.9-0.7
		c0.6-0.1,1.2-0.2,2-0.4c1.4-0.3,2.7-0.6,4-1.1c1.4,0,2.8-0.1,4.2-0.3l7.7-1c1.8-0.2,3.5-0.6,5.1-1c1.7,0.1,3.5,0.2,5.3,0.1
		c1.2-0.1,2.2-0.2,3-0.3c0.6,0,1.3,0,2-0.1c1.4-0.1,2.9-0.3,4.2-0.6c1.3,0.2,2.7,0.2,4.1,0.2c0.9,0,1.7,0,2.3-0.1
		c0.8,0.1,1.8,0.1,3.1,0.1c2.2,0,4.3-0.2,6.4-0.6c0.7,0.2,1.4,0.4,2.1,0.6c1.6,0.4,3.2,0.6,4.8,0.7l1.6,0.1c0.9,0.1,1.6,0.1,2.2,0.1
		c0.4,0,0.8,0.1,1.2,0.1c3.7,0.3,7.4,0,10.8-1c2.6,1.5,5.5,2.6,8.6,3.3c0,0,0.1,0,0.1,0c1.1,0.3,2.1,0.4,3,0.5l0.1,0
		c0.6,0.2,1.2,0.3,1.9,0.5c0,0,0.1,0,0.2,0c2.2,0.5,4.4,0.8,6.5,0.8c1.9,0.9,4,1.6,6.2,2.1c0,0,0.1,0,0.1,0c1,0.2,1.9,0.4,2.7,0.5
		c0.7,0.2,1.7,0.5,2.8,0.7c0,0,0.1,0,0.1,0c0.1,0,0.1,0,0.2,0c1.1,0.5,2.3,1,3.4,1.4c0.8,0.3,1.7,0.5,2.5,0.7l3.5,1.2
		c0.6,0.2,1.2,0.4,1.7,0.5l0,0c0.6,0.2,1.6,0.6,2.8,1l0.8,0.3c0.6,0.2,1.2,0.5,2,0.7c0.7,0.2,1.4,0.4,2.1,0.6c0.7,0.4,1.4,0.7,2.1,1
		c0.9,0.4,1.8,0.7,2.5,0.9l3.4,1.4c0.6,0.3,1.1,0.5,1.7,0.7l0,0c0.6,0.3,1.5,0.7,2.7,1.2l0.8,0.3c0.6,0.3,1.2,0.6,1.9,0.9
		c1.2,0.5,2.5,1,3.8,1.3c1.1,0.7,2.2,1.4,3.4,2c0.8,0.4,1.5,0.8,2.1,1c0.6,0.4,1.5,0.9,2.7,1.5c2.5,1.3,5.1,2.2,7.7,2.8
		c14,3.2,28.4-3.5,35-16.2c0.7-1.4,1.2-2.6,1.6-3.6c0.1-0.1,0.2-0.3,0.2-0.4c0.3-0.6,0.7-1.3,1-1.9c0.3-0.6,0.6-1.2,0.9-1.8
		c4.7-2.9,8.6-7.1,11.3-12.3c0.3-0.6,0.6-1.1,0.8-1.7l0-0.1c0.3-0.6,0.7-1.2,1-1.9c1.6-3,3.7-7.7,4-14.2c0.5-12.4-6-23.6-17.2-29.4
		c-1-0.5-1.8-0.9-2.4-1.1c-0.1,0-0.1-0.1-0.2-0.1c-0.8-0.5-1.7-0.9-2.6-1.4l-0.5-0.2c-1.3-0.7-2.4-1.2-3.3-1.6
		c-0.3-0.1-0.5-0.3-0.8-0.4l-0.1,0c-0.5-0.3-1.5-0.9-2.6-1.5c-1.6-0.8-3.2-1.5-4.9-2.1c-1.5-0.9-3-1.8-4.7-2.5
		c-0.7-0.3-1.2-0.5-1.8-0.7l-0.4-0.2c-0.8-0.3-1.5-0.6-2.1-0.8c-0.8-0.4-1.9-0.9-3.3-1.5c-0.4-0.2-0.8-0.3-1.2-0.5
		c-0.8-0.4-2-1-3.4-1.6c-2-0.8-3.9-1.5-5.9-1.9c-0.2-0.1-0.5-0.1-0.7-0.1c-1.7-0.9-3.5-1.7-5.4-2.4c-0.7-0.2-1.3-0.4-1.9-0.6
		l-0.4-0.1c-0.8-0.3-1.5-0.5-2.1-0.6c-0.8-0.3-2-0.8-3.4-1.3c-0.4-0.1-0.8-0.3-1.3-0.4c-0.8-0.3-2-0.8-3.5-1.3
		c-1.1-0.4-2.2-0.7-3.3-0.9c-0.8-0.2-1.6-0.3-2.3-0.4c-2.2-1.1-4.6-2-7.1-2.5c0,0-0.1,0-0.1,0c-1.1-0.2-1.9-0.4-2.6-0.5
		c-0.6-0.2-1.4-0.4-2.3-0.6c0,0-0.1,0-0.1,0c-2.5-0.6-5-0.9-7.4-0.9c-2-0.9-4.1-1.6-6.1-2.1c0,0-0.1,0-0.1,0
		c-0.7-0.2-1.3-0.3-1.9-0.4c-0.3-0.1-0.6-0.1-0.9-0.2c-0.7-0.2-1.3-0.3-2.1-0.5c-0.1,0-0.3-0.1-0.4-0.1c-4.5-1-9-1.1-13.4-0.2
		c-2.3-1.2-4.8-2.1-7.5-2.7c-1.6-0.4-3.3-0.6-5-0.8c-0.9-0.1-1.6-0.1-2.2-0.1c-0.6-0.1-1.3-0.2-2.2-0.2c-1.7-0.1-3.4-0.2-5-0.1
		c-1.3-0.3-2.7-0.5-4-0.6c-0.9-0.1-1.7-0.1-2.5-0.1l-0.2,0c-0.5-0.1-1.4-0.2-2.4-0.3c-1.9-0.2-3.8-0.2-5.7-0.1
		C538.9,0.1,537.4,0,536,0c-1.1,0-2,0-2.6,0.1c-0.1,0-0.1,0-0.2,0c-1,0-1.9-0.1-3-0.1l-0.5,0c-1.5,0-2.7,0.1-3.7,0.1
		c-0.3,0-0.6,0-0.9,0l-0.1,0c-0.6,0-1.7-0.1-3-0.1c-1.7,0-3.4,0.1-5,0.4c-1.4-0.1-2.7-0.1-4.1,0c-1.2,0.1-2.2,0.2-2.9,0.3
		c-0.1,0-0.2,0-0.3,0c-0.7,0-1.4,0.1-2.2,0.1c-1.4,0.1-2.7,0.3-4.1,0.5c-1.9-0.1-3.9,0-5.9,0.2c-0.7,0.1-1.3,0.2-1.9,0.3
		c-0.4,0.1-0.8,0.1-1.2,0.2c-0.8,0-1.9,0.1-3.3,0.3c-1.3,0.2-2.6,0.4-3.9,0.8c-1.2,0-2.4,0.1-3.5,0.3c-1,0.1-1.8,0.3-2.6,0.4
		c-0.4,0.1-0.9,0.1-1.4,0.2l-0.1,0c-0.7,0.1-1.3,0.1-2.1,0.2c-1.7,0.2-3.3,0.6-4.9,1c-1.2,0.1-2.3,0.3-3.5,0.5
		c-1.2,0.2-2.2,0.5-2.8,0.7c-0.1,0-0.2,0-0.3,0.1c-0.7,0.1-1.4,0.3-2.2,0.4c-0.9,0.2-2.6,0.5-4.7,1.2c-2,0.2-3.9,0.5-5.8,1
		c-1.1,0.3-1.9,0.6-2.5,0.8c-0.1,0-0.1,0-0.2,0c-0.9,0.2-1.9,0.4-2.9,0.7l-0.5,0.1c-1.4,0.4-2.6,0.8-3.6,1.1
		c-0.3,0.1-0.6,0.2-0.9,0.3l-0.1,0c-0.6,0.1-1.7,0.4-2.9,0.7c-2.3,0.6-4.4,1.4-6.4,2.5c-2,0.3-3.9,0.8-5.9,1.5l-0.2,0.1
		c-0.7,0.3-1.5,0.5-2.2,0.8c-0.3,0.1-0.6,0.2-0.9,0.3l-0.3,0.1c-0.9,0.3-2.3,0.6-4.1,1.2c-3,1-5.5,2.3-7.7,3.8
		c-2.7,0.4-5.4,1.2-8,2.4c-0.7,0.3-1.2,0.6-1.8,0.8l-0.4,0.2c-0.8,0.4-1.5,0.7-2,1c-0.8,0.3-2,0.8-3.4,1.4c-0.4,0.2-0.8,0.4-1.2,0.6
		c-0.8,0.3-2.1,0.7-3.5,1.4c-3.2,1.5-6.1,3.3-8.6,5.5c-3.3,0.9-6.7,2.2-10.3,4.2c-1.5,0.8-2.7,1.5-3.6,2.1c-0.7,0.4-1.1,0.7-1.4,0.8
		c-0.1,0-0.2,0.1-0.2,0.1c-0.6,0.3-1.5,0.7-2.7,1.4c-1.8,1-3.4,2.1-4.9,3.4c-2.2,0.9-4.5,2.1-6.8,3.7l-0.2,0.1
		c-2.8,1.9-9.7,7.1-13.9,15.2l0,0c-0.4,0.8-0.9,1.9-1.4,3.1c-7.8,1-15.1,4.4-21.6,10.1c-0.6,0.6-1.1,1-1.6,1.5
		c-0.3,0.3-0.6,0.6-0.9,0.9c-0.2,0.2-0.5,0.4-0.8,0.7c-0.3,0.2-0.5,0.4-0.7,0.6c-0.6,0.5-1.1,1-1.8,1.5c-1.6,1.4-3.1,3-4.4,4.7
		c-1.8,1.3-3.6,2.7-5.2,4.4c-0.5,0.5-0.9,1-1.3,1.5l-0.3,0.3c-0.5,0.4-1.2,1.1-1.9,1.9c-1,1.1-2,2.2-2.8,3.4c-1.2,0.9-2.3,1.9-3.3,3
		c-0.8,0.9-1.5,1.6-1.9,2.2c-0.6,0.5-1.2,1.1-1.8,1.8l-0.2,0.2c-1.2,1.3-2.3,2.6-3.2,4.1c-0.7,1-1.2,2-1.8,3.1
		c-2,1.6-3.9,3.6-5.6,5.7l-0.1,0.1c-0.5,0.6-1,1.3-1.4,1.9c-0.2,0.3-0.4,0.5-0.6,0.8l-0.2,0.2c-0.6,0.7-1.6,1.8-2.7,3.2
		c-3.8,4.9-5.7,9.9-6.6,14.1c-4.3,2.7-8,6.4-10.7,10.9c-0.6,0.9-1,1.7-1.3,2.3c0,0.1-0.1,0.1-0.1,0.2c-0.5,0.8-1,1.6-1.6,2.5
		l-0.3,0.5c-0.7,1.3-1.3,2.4-1.8,3.3c-0.1,0.3-0.3,0.5-0.4,0.8l-0.1,0.1c-0.3,0.5-0.9,1.4-1.6,2.5
		C246.2,167,245.5,168.4,244.9,169.9z"/>
	<path class="st1" d="M51.7,467.7c-1.1,0.1-1.9,0-3.1,0.1c-0.9,0.1-1.6,0.2-2.5,0.3c-1.7,0.1-1.6-1.1-1.7-1.6
		c-0.1-0.4-0.4-3-0.8-3.4c-0.3-0.2-0.1-0.1-0.4-0.3c-0.1,0-1.9,0.1-3,0.1c-1.8,0.1-1.6,0.6-1.7,1.6c0,0.4,0.1,3.1-0.1,3.5
		c-0.3,0.4-0.6,0.7-1.3,0.7c-0.9,0.1-1.5,0.1-2.4,0.1c-0.9,0.1-1.9,0.2-2.8,0.3c-0.8,0.1-1.8,0.1-1.9-1.2c0-0.4,0.1-1.3,0.2-2.3
		c0.1-1.2,0.1-2,0.2-3.3c0.1-1.1,0.2-1.9,0.3-2.9c0.2-1.6,0.1-2.6,0.3-4.2c0.1-1.6,0.3-2.6,0.4-4.2c0.1-1.1,0-1.9,0.1-3
		c0.1-1.3,0.3-2.2,0.5-3.5c0.2-2,0.1-3.4,0.4-5.4c0.2-1.3,0.5-2.5,0.8-2.9c0.4-0.4,1-0.6,2-0.7c1.6-0.1,2.7,0,4.3-0.2
		c1.2-0.1,2.4-0.2,3.6-0.3l0.2,0c1.2-0.1,1.6,0.1,2.1,0.8c0.1,0.1,0.2,0.5,0.3,0.5c0,0,1.2,4.3,1.2,4.3c0.4,1.5,0.5,2.5,0.9,4
		c0.5,1.8,0.8,3,1.3,4.8c0.4,1.4,0.8,2.5,1.1,3.9c0.4,1.9,0.5,3.3,1,5.1c0.7,2.8,1.8,6.3,1.9,7C53.1,465.8,53.1,467.6,51.7,467.7z
		 M40.7,447.3c-0.2-0.7-0.3-1.7-0.4-1.8c-0.1-0.3-0.4-0.5-0.5-0.5c-0.1,0-0.3,0.3-0.3,0.5c-0.1,0.2-0.2,1.8-0.3,2
		c-0.1,0.6-0.2,1-0.2,1.6c0,0.4-0.3,4.2-0.2,4.5c0.1,1.4,0.8,1.5,1.6,1.5c0.6,0,1.8-0.1,1.6-1.8C41.7,450.7,40.9,448,40.7,447.3z"/>
	<path class="st1" d="M87.4,441.9c0.2,1.3,0.8,3.9-1.3,7.8c-0.9,1.6-2.4,3.5-5.5,4.3c-0.5,0.1-0.9,0.2-1.4,0.3l-0.1,0
		c-0.6,0.2-1.9,0.4-1.5,2.2c0.1,0.6,0.3,1,0.5,1.6c0.2,0.6,0.3,1.1,0.5,1.8c0.1,0.5,0.3,0.8,0.4,1.3c0.1,0.6,0.4,1.6-1.1,1.9
		c-1.1,0.3-1.8,0.3-2.9,0.6c-1,0.2-1.6,0.6-2.6,0.8c-0.9,0.2-1.4,0-1.8-1.4c-0.1-0.5-0.2-0.9-0.2-1.4c-0.1-0.5-0.3-0.9-0.4-1.4
		c-0.1-0.8-0.1-1.4-0.3-2.1c-0.3-1.3-0.8-2.6-1.1-3.8c-0.4-1.7-0.6-3-1-4.7c-0.3-1.4-0.7-2.8-1-4.1c-0.6-2.3-0.9-4-1.5-6.4
		c-0.4-1.7-0.8-2.8-1.2-4.5c-0.4-1.8,0.6-2.5,2-2.8c0.6-0.1,1.2-0.2,1.8-0.3c0.8-0.2,1.6-0.5,2.4-0.7c0.5-0.1,1.1-0.2,1.7-0.3
		c0.8-0.1,1.5-0.4,2.3-0.6c4-1.1,6.9-0.3,8.9,1.3c1.2,1,1.5,1.8,1.8,2.2c0.8,1.2,1.6,2.2,2.3,4.8C87,439.1,87.1,439.9,87.4,441.9z
		 M78.4,441.5c-0.1-0.5-0.2-0.9-0.3-1.5c-0.5-2-1.8-2.8-3-2.5l-0.2,0c-0.3,0.1-0.5,0.2-0.7,0.5c-0.5,0.6-0.5,1.7-0.2,2.9l0.7,2.9
		c0.4,1.7,1.7,2.5,2.6,2.2c0.4-0.1,0.7-0.4,1-0.7c0.5-0.6,0.7-1.3,0.4-2.4C78.6,442.4,78.5,442.1,78.4,441.5z"/>
	<path class="st1" d="M111.8,450.8L111.8,450.8c0.2,0.6,0.9,1.9-0.8,2.5c-0.8,0.3-1.5,0.4-2.3,0.7c-0.8,0.3-1.3,0.5-2,0.7
		c-0.8,0.3-1.3,0.4-2,0.6l-3.3,1.1c-1,0.3-1.6,0.6-2.6,1c-1.6,0.5-2.1-0.6-2.3-1.2l-0.1-0.4c-0.6-1.6-0.8-2.8-1.4-4.5
		c-0.6-1.8-1.2-3-1.8-4.8c-0.5-1.4-0.6-2.5-1.1-3.8c-0.4-1.1-0.7-1.8-1.1-2.9c-0.2-0.7-0.4-1.5-0.6-2.2c-0.4-1.1-0.7-1.9-1.1-3
		c-0.3-1.1-0.5-1.9-0.9-3c-0.4-1.2-0.9-2.2-1.2-3.3l-0.1-0.2c-0.2-0.4-0.7-1.8,1-2.4c0.8-0.3,1.4-0.3,2.3-0.6
		c0.8-0.3,1.6-0.6,2.4-0.9c0.8-0.3,1.9-0.7,2.3,0.6c0.2,0.6,0.2,1,0.4,1.6c0.3,1.3,0.6,2.2,1,3.4c0.4,1.2,0.8,2,1.2,3.2
		c0.3,0.9,0.5,1.8,0.8,2.7c0.2,0.7,0.6,1.4,0.9,2.1c0.4,1.3,0.7,2.3,1.1,3.5c0.3,0.8,0.6,1.3,0.8,2.2c0.1,0.4,0.2,0.8,0.3,1.2
		c0.8,2.4,2.5,2,3.4,1.7c0.8-0.3,1.3-0.4,2-0.7c0.4-0.1,0.6-0.3,1-0.4c0.4-0.1,0.9-0.3,1.5,0c0.7,0.4,1.5,2.9,1.7,3.4
		C111.5,449.6,111.6,450.1,111.8,450.8z"/>
	<path class="st1" d="M136.9,442.2c-1,0.5-1.8,0.7-2.8,1.1c-0.9,0.4-1.4,0.7-2.3,1.1c-1.5,0.7-1.8-0.6-2.1-0.9
		c-0.2-0.4-1.4-2.7-1.9-2.9c-0.3-0.1-0.1,0-0.5-0.1c-0.1,0-1.8,0.7-2.7,1.1c-1.6,0.7-1.3,1.1-1.1,2.1c0.1,0.4,1.1,2.8,1,3.3
		c-0.1,0.5-0.3,0.8-1,1.1c-0.8,0.4-1.4,0.6-2.2,0.9c-0.9,0.4-1.7,0.8-2.5,1.2c-0.8,0.3-1.7,0.6-2.2-0.5c-0.2-0.3-0.4-1.2-0.6-2.2
		c-0.3-1.2-0.6-1.9-0.9-3.1c-0.3-1.1-0.4-1.8-0.7-2.9c-0.4-1.5-0.8-2.5-1.2-4.1c-0.4-1.5-0.6-2.6-1.1-4.1c-0.3-1-0.6-1.8-0.9-2.9
		c-0.3-1.3-0.4-2.2-0.7-3.5c-0.5-2-1-3.2-1.4-5.2c-0.3-1.3-0.4-2.5-0.2-3.1c0.3-0.5,0.7-0.9,1.7-1.3c1.5-0.7,2.6-0.9,4-1.6
		c1.1-0.5,2.2-1,3.2-1.5l0.2-0.1c1.1-0.5,1.5-0.5,2.3,0c0.1,0,0.4,0.4,0.4,0.4c0,0,2.6,3.6,2.6,3.7c0.8,1.3,1.4,2.2,2.2,3.5
		c1.1,1.5,1.8,2.6,2.9,4.1c0.9,1.2,1.6,2.1,2.3,3.3c1,1.6,1.6,2.9,2.7,4.5c1.6,2.4,3.8,5.3,4.1,5.9
		C137.6,439.9,138.2,441.6,136.9,442.2z M119.8,426.6c-0.4-0.6-0.9-1.5-1-1.6c-0.2-0.3-0.5-0.3-0.6-0.3c-0.1,0.1-0.2,0.3-0.1,0.6
		c0,0.3,0.4,1.7,0.4,2c0.1,0.6,0.1,1,0.3,1.6c0.1,0.4,1.1,4,1.3,4.3c0.6,1.3,1.3,1.2,2,0.9c0.6-0.3,1.6-0.7,0.9-2.3
		C121.8,429.5,120.1,427.2,119.8,426.6z"/>
	<path class="st1" d="M141.4,406.2c0.6,1.1,1.1,1.9,1.7,3c0.1,0.2,1,1.6-0.4,2.4c-0.5,0.3-1,0.3-1.5,0.6c-0.2,0.1-1.5,1.7-1.6,2
		c-0.7,1.8,0.1,4.4,1.8,7.3c1.4,2.5,3,3.8,4.6,4.1c0.2,0.1,2.4,0.3,3.4-0.3c0.4-0.2,0.6-0.6,1-0.8c0.1,0,0.6-0.2,1.1,0
		c0.3,0.2,0.5,0.4,0.8,0.9c0.4,0.8,0.7,1.4,1.1,2.1c0.6,1,1.1,1.7,1.6,2.7c1,1.7-0.4,2.5-0.9,2.8c-0.3,0.2-3.1,1.6-3.4,1.7
		c-0.1,0-2.5,0.9-4.3,0.7c-1.6-0.1-3.1-0.8-3.6-0.9c-0.3-0.1-1.3-0.5-1.6-0.7c-0.2-0.1-3-1.9-4.2-3.3c-0.6-0.7-1.4-2-1.9-2.7
		c-0.8-1.2-1.4-2-2.1-3.3c-1.8-3.1-2.7-6.5-2.9-7.7c-0.1-0.5-0.5-3,0.4-5.4c0.1-0.3,1.7-3.5,1.8-3.7c0.9-1.4,3-3,4.3-3.8l0.3-0.2
		c1-0.6,2.4-1.6,3.4,0.1C140.7,404.8,140.9,405.4,141.4,406.2z"/>
	<path class="st1" d="M172.7,415.8c0.4,0.7,0.8,1.1,1.3,1.8c0.3,0.5,0.9,1.6-0.5,2.5c-0.5,0.4-1,0.6-1.5,1l-0.9,0.6
		c-0.9,0.6-1.6,1-2.6,1.6c-0.5,0.4-0.9,0.7-1.4,1l-4.2,2.8c-0.4,0.3-0.6,0.5-1,0.8c-0.5,0.3-1.8,0.8-2.7-0.5c-0.7-1-1.1-1.8-1.8-2.8
		c-0.6-0.9-1.1-1.5-1.7-2.5c-0.4-0.7-0.7-1.2-1.1-1.9c-0.4-0.7-0.8-1.1-1.3-1.7c-0.9-1.3-1.4-2.2-2.3-3.5c-0.8-1.2-1.6-2.2-2.4-3.4
		c-1.1-1.6-1.8-2.8-2.8-4.4c-0.8-1.1-1.4-1.8-2.1-2.9c-1.5-2.3-1.7-3.1,0-4.3c1-0.7,1.9-1,2.9-1.7c0.5-0.3,0.9-0.7,1.4-1
		c1.2-0.8,2.2-1.3,3.5-2.2c0.5-0.4,0.9-0.7,1.4-1.1l0.8-0.5c0.4-0.3,0.7-0.5,1.2-0.9c1.2-0.8,1.9,0.1,2.1,0.5
		c0.4,0.7,0.8,1.4,1.2,2.1c0.7,1,2.4,2.6,0.5,3.9l-0.4,0.3c-0.5,0.3-0.8,0.6-1.3,0.9c-0.6,0.4-1.1,0.6-1.8,1
		c-2.1,1.5-1.8,2.2-0.9,3.5c0.9,1.3,1.8,1.7,2.7,1.1c0.4-0.3,0.7-0.6,1.1-0.9l0.1-0.1c0.6-0.4,1-0.6,1.6-1c0.5-0.3,0.8-0.6,1.2-0.9
		c1.6-1.1,2.3,0.1,2.6,0.6c0.4,0.6,0.6,1,1.1,1.7c0.4,0.6,0.7,0.9,1.1,1.5c1,1.5,0,2.4-0.5,2.7c-1.2,0.8-2.1,1.2-3.3,2
		c-2.1,1.5-1.1,2.6-0.6,3.4l0.3,0.5c0.1,0.2,0.6,0.9,0.9,1.1c1.3,0.7,1.6,0.1,3.2-0.8c0.8-0.4,1.3-0.6,2-1.1c0.6-0.4,1-0.8,1.6-1.2
		c0.4-0.3,1.6-0.8,2.5,0.4C172,414.6,172.2,415.1,172.7,415.8z"/>
	<path class="st1" d="M194.5,364.4c1,1.6,1.8,2.7,2.9,4.3c1.4,2,2.2,3.5,3.3,5.7c0.7,1.3,1.2,2.3,2,3.6c0.6,1,1.1,1.6,1.7,2.6
		c0.7,1.2,1.1,2.1,1.8,3.3c0.6,1.1,1.1,1.8,1.7,3c0.4,0.9,0.9,1.8,0.8,2.3c-0.1,0.6-0.4,0.9-0.7,1.2c-0.9,0.9-1.6,1.4-2.5,2.2
		c-0.5,0.5-0.8,0.9-1.3,1.4c-0.5,0.5-0.8,0.4-1.2,0.3c-0.1,0-0.4-0.2-0.4-0.2c-0.1,0-3.6-2.4-3.7-2.5c-0.7-0.4-1.1-0.8-1.8-1.2
		c-0.1-0.1-1.2-0.8-1.6-0.6c-0.5,0.4,0.4,1.8,0.9,2.7c0.7,1.3,1.2,2.2,1.8,3.5c0.3,0.6,0.8,1.5,0.8,1.6c0,0.3,0.1,0.2,0.1,0.6
		c0,0.3-0.2,0.6-0.5,0.9c-0.7,0.7-1.2,1.1-1.9,1.8c-0.5,0.5-0.9,1-1.4,1.4c-0.6,0.6-1,0.7-1.6,0.7c-0.8,0-2.9-1.7-4.7-3
		c-2.4-1.8-4.4-2.6-6.9-4.3c-1.5-1-2.4-1.8-3.9-2.7c-1.3-0.8-2.2-1.2-3.4-2c-0.6-0.4-7.2-5.2-7.6-5.6c-1.3-1.4-0.3-2.1,0.2-2.6
		c0.8-0.8,1.5-1.3,2.3-2c0.5-0.5,0.7-0.8,1.2-1.3c1.4-1.3,2.9,0.3,3.8,0.9c0.7,0.5,1.1,0.9,1.8,1.4c2.5,1.7,4.4,2.7,6.9,4.3
		c1.2,0.8,3.3,2.2,3.4,2.3c0.2,0,0.2,0,0.3,0c0.4-0.4-0.1-0.5-0.3-1c-0.1-0.3-0.7-1.2-0.8-1.4c-0.7-1.2-1.3-2.2-2-3.5
		c-1-0.6-2.1-1.2-3.1-2c-1-0.7-1.7-1.3-2.8-2c-0.7-0.5-1.7-1-2.3-1.7c-1.2-1.3,0.2-2.3,0.4-2.4c0.7-0.7,1.4-1.1,2.1-1.8
		c0.6-0.6,0.9-1,1.5-1.6c1.4-1.3,1.9-0.5,3.5,1c0.6,0.6,1.1,1,1.8,1.5c2.7,2.1,4.8,3.3,7.5,5.7c0.9,0.8,2.3,2.1,2.7,1.8
		c0.3-0.3-1-1.8-1.7-2.8c-0.8-1.2-1.3-2.1-2.1-3.3c-0.8-1.1-1.5-1.9-2.3-3c-0.6-0.9-1-1.6-1.6-2.5c-0.1-0.1-1.9-2.2-1.9-2.3
		c-0.1-0.1-0.4-0.4-0.3-0.9c0-0.6,0.2-0.8,0.8-1.4c0.7-0.7,1.2-1,2-1.6c0.6-0.6,0.9-1,1.5-1.5c0.6-0.6,1.7-1.8,2.7-0.7
		C192.8,361.6,193.6,363,194.5,364.4z"/>
	<path class="st1" d="M230.2,364.4c-0.5,0.6-0.9,1-1.5,1.7c-0.7,0.9-1.1,1.6-1.9,2.5c-0.9,1.2-2,0.4-2.3,0.1
		c-0.6-0.5-0.9-0.9-1.4-1.3c-0.4-0.3-0.6-0.4-1-0.7c-1.4-1.1-2.3-2-3.7-3.1c-2.2-1.8-2.9-0.9-3.8,0.3c-0.5,0.7-0.6,1-0.4,1.6
		c0.1,0.6,1.9,2.2,2.2,2.4c0.7,0.6,1.5,1.1,2.3,1.7c0.8,0.6,1.3,1.1,2.1,1.7c0.5,0.4,0.9,0.6,1.3,1c0.9,0.7,0.6,1.6,0.3,2
		c-0.6,0.8-1.2,1.2-1.8,2c-0.4,0.5-0.6,0.8-1,1.3c-0.2,0.3-0.3,0.6-0.6,0.9c-1.1,1.4-2.2,0.6-2.6,0.2c-1-0.8-1.5-1.5-2.6-2.4
		l-0.1-0.1c-1.1-0.9-1.9-1.6-3-2.4c-1.6-1.3-2.8-2.1-4.4-3.4c-1.3-1.1-2.2-2-3.5-3.1c-0.7-0.6-1.3-0.9-2.1-1.5
		c-1-0.8-1.7-1.3-2.7-2.1c-0.9-0.7-1.4-1.3-2.3-2c-0.8-0.7-1.5-1-2.4-1.7c-0.4-0.4-1.2-1.2-0.3-2.3c0.6-0.7,1.1-1.2,1.7-2
		c0.6-0.7,0.9-1.3,1.5-2.1c1-1.2,1.8-0.9,2.4-0.4c0.8,0.6,1.1,1.2,1.9,1.8c0.8,0.7,1.5,1.1,2.3,1.7c0.9,0.7,1.5,1.3,2.4,2l0.1,0.1
		c1.4,1.1,2,0.5,2.8-0.6c0.7-0.9,0.8-1.2,0.6-2c-0.1-0.3-1.9-1.9-2.1-2c-0.8-0.6-1.5-1-2.3-1.7c-0.4-0.4-0.9-0.8-1.3-1.1
		c-0.7-0.5-1.2-0.8-1.9-1.3c-1.2-1-0.6-2-0.2-2.4c0.6-0.8,1.2-1.3,1.9-2.1c0.5-0.7,0.8-1.2,1.3-1.8c1.3-1.6,2.5-0.4,2.8-0.1
		c1.4,1.1,2.3,2.1,3.7,3.2c0.4,0.3,0.7,0.5,1.1,0.8c0.7,0.6,1.1,1,1.8,1.6c1.2,0.9,2,1.5,3.2,2.5c1.4,1.1,2.4,2,3.8,3.2
		c1.7,1.4,3,2.1,4.7,3.5c0.8,0.7,1.4,1.2,2.2,1.9c0.7,0.6,1.4,0.9,2.2,1.5C230.8,362.8,230.7,363.7,230.2,364.4z"/>
	<path class="st1" d="M241.2,340.9c0.7,0.4,1.2,0.7,1.8,1.1c0.5,0.3,1.4,1.2,0.5,2.5c-0.4,0.6-0.7,0.9-1,1.5l-0.6,0.9
		c-0.6,0.9-1.1,1.6-1.7,2.5c-0.4,0.6-0.6,1-0.9,1.5l-2.7,4.2c-0.2,0.4-0.4,0.7-0.6,1.1c-0.3,0.5-1.3,1.4-2.7,0.5
		c-1-0.7-1.7-1.3-2.7-1.9c-0.9-0.6-1.6-1-2.5-1.6c-0.7-0.4-1.1-0.9-1.8-1.3c-0.7-0.4-1.2-0.7-1.9-1.1c-1.3-0.8-2.2-1.5-3.4-2.4
		c-1.2-0.8-2.4-1.4-3.6-2.2c-1.6-1-2.7-1.9-4.3-2.9c-1.1-0.7-2-1.2-3.1-1.9c-2.3-1.5-2.8-2.2-1.6-4c0.7-1,1.3-1.7,2-2.7
		c0.3-0.5,0.6-1,0.9-1.5c0.8-1.3,1.5-2.1,2.3-3.3c0.4-0.6,0.5-1,0.9-1.5l0.5-0.8c0.3-0.4,0.4-0.8,0.8-1.2c0.8-1.2,1.8-0.6,2.2-0.4
		c0.7,0.4,1.3,1,1.9,1.4c1.1,0.7,3.2,1.5,1.9,3.5l-0.3,0.4c-0.3,0.5-0.5,0.9-0.8,1.3c-0.4,0.6-0.8,1-1.2,1.7
		c-1.4,2.2-0.8,2.7,0.5,3.5c1.3,0.9,2.4,0.9,2.9,0c0.3-0.4,0.4-0.8,0.7-1.2l0.1-0.1c0.4-0.6,0.7-0.9,1.1-1.5
		c0.3-0.5,0.5-0.9,0.8-1.3c1.1-1.6,2.1-0.8,2.7-0.5c0.6,0.4,1,0.7,1.6,1.1c0.6,0.4,1,0.6,1.6,1c1.5,1,0.9,2.2,0.5,2.7
		c-0.8,1.2-1.5,1.9-2.3,3.2c-1.4,2.2,0,2.9,0.8,3.4l0.5,0.3c0.2,0.1,0.9,0.6,1.2,0.7c1.5,0.2,1.5-0.6,2.6-1.9
		c0.5-0.7,0.9-1.1,1.4-1.8c0.4-0.6,0.6-1.1,1-1.7c0.3-0.4,1.1-1.3,2.4-0.5C240.1,340.1,240.5,340.5,241.2,340.9z"/>
	<path class="st1" d="M257.1,319.3l-0.1,0.2c-0.4,0.7-0.7,1.1-1.1,1.8c-0.4,0.8-0.7,1.4-1.1,2.2c-0.2,0.5-0.3,0.8-0.6,1.3
		c-0.7,1.3-1.8,0.9-3,0.8c-1.2-0.1-2.1,0-3.3,0c-0.8-0.1-1.3-0.2-2.2-0.2c-0.8,0-1.6-0.1-1.8,0.4c-0.3,0.6,0.6,1,0.8,1.1
		c0.8,0.4,1.4,0.7,2.2,1.1c0.6,0.3,1,0.6,1.6,0.9c0.6,0.3,1,0.4,1.7,0.8c0.9,0.5,0.8,1.1,0.6,1.6c-0.5,0.9-0.9,1.4-1.4,2.4
		c-0.5,1-0.8,1.9-1.3,3c-0.5,0.9-1.3,1.1-2.2,0.6c-0.6-0.3-1-0.6-1.6-1c-1-0.6-1.7-1-2.8-1.6c-2.1-1-3.6-1.7-5.8-2.8
		c-2.1-1.1-3.6-2-5.7-3.1c-1.4-0.7-2.4-1.1-3.8-1.8c-1.5-0.8-2.5-1.4-3.9-2.1c-0.9-0.5-1.6-0.7-2.4-1.1c-0.8-0.4-2-1.4-1-3.3
		c0.5-0.9,0.8-1.4,1.3-2.3c1.1-2.1,1.7-3.6,2.8-5.8c1.3-2.4,3.4-5.5,7.6-5.7c0.3,0,0.8,0,1.1,0.1c0.4,0,0.9,0,1.8,0.2
		c1.2,0.2,4,1.6,5,2c0.6,0.3,4.4,2.1,6,5.9c0.2,0.4,0.3,0.8,0.4,1.2c0.1,0.3,0.1,0.6,0.2,0.9c0,0.1,0.2,0.3,0.4,0.4
		c0.6,0.3,4.2,0.1,4.9,0.2c0.7,0.1,1.2,0.1,2,0.1c1.2,0,2.1-0.1,3.2,0c0.2,0,0.5,0,0.9,0.2C257.7,318.2,257.1,319.2,257.1,319.3z
		 M229.7,317l-0.1,0.2c-0.1,0.3-0.2,0.6-0.1,0.9c0.1,0.7,0.6,1.1,0.7,1.1c0.1,0.1,3.4,2,3.5,2c1,0.5,2.3,0.5,3-0.8
		c0.3-0.6,0.3-1.1,0.2-1.5c-0.3-1-1.5-1.8-3.1-2.7C232.7,315.7,230.6,315.2,229.7,317z"/>
	<path class="st1" d="M262.8,295.3c0.7,0.3,1.3,0.5,2,0.8c0.5,0.2,1.6,0.9,1,2.4c-0.2,0.6-0.5,1-0.7,1.6l-0.4,1
		c-0.4,1-0.8,1.8-1.2,2.8c-0.2,0.6-0.4,1.1-0.6,1.7l-1.9,4.7c-0.1,0.5-0.2,0.8-0.4,1.2c-0.2,0.5-1,1.7-2.5,1.1
		c-1.1-0.5-1.9-0.9-3-1.4c-1-0.4-1.8-0.7-2.8-1.1c-0.7-0.3-1.3-0.7-2-0.9c-0.7-0.3-1.3-0.4-2-0.7c-1.4-0.6-2.4-1.1-3.8-1.6
		c-1.3-0.5-2.6-0.9-3.9-1.5c-1.8-0.7-3-1.3-4.8-2c-1.3-0.5-2.2-0.8-3.4-1.3c-2.5-1-3.1-1.6-2.4-3.6c0.5-1.1,1-1.9,1.4-3
		c0.2-0.5,0.4-1.1,0.6-1.6c0.6-1.4,1.1-2.3,1.6-3.7c0.2-0.6,0.3-1.1,0.6-1.7l0.3-0.9c0.2-0.5,0.3-0.8,0.5-1.4c0.5-1.4,1.6-1,2-0.8
		c0.7,0.3,1.4,0.7,2.2,1c1.2,0.5,3.5,0.8,2.6,3l-0.2,0.5c-0.2,0.5-0.3,0.9-0.5,1.5c-0.3,0.7-0.6,1.1-0.9,1.9c-1,2.4-0.3,2.8,1.2,3.4
		c1.5,0.6,2.5,0.4,2.9-0.6c0.2-0.5,0.2-0.9,0.4-1.3l0-0.1c0.3-0.7,0.5-1.1,0.8-1.7c0.2-0.5,0.3-0.9,0.5-1.4c0.7-1.8,1.9-1.2,2.5-1
		c0.7,0.3,1.1,0.5,1.8,0.8c0.7,0.3,1.1,0.4,1.8,0.7c1.7,0.7,1.3,2,1.1,2.5c-0.5,1.4-1.1,2.2-1.6,3.5c-1,2.4,0.5,2.8,1.5,3.2l0.5,0.2
		c0.2,0.1,1,0.4,1.3,0.4c1.5-0.1,1.4-0.9,2.2-2.4c0.4-0.7,0.7-1.2,1-2c0.3-0.7,0.3-1.2,0.6-1.9c0.2-0.4,0.9-1.5,2.3-1
		C261.6,294.8,262.1,295,262.8,295.3z"/>
	<path class="st1" d="M247.5,256.9c1.3,0.3,2.1,0.5,3.4,0.8c0.3,0.1,1.8,0.4,1.4,2c-0.2,0.6-0.5,0.9-0.6,1.5
		c-0.1,0.3,0.2,2.2,0.3,2.6c0.8,1.7,3.2,3,6.5,3.8c2.8,0.7,4.8,0.5,6.2-0.4c0.2-0.1,1.9-1.5,2.2-2.6c0.1-0.5,0-0.8,0.1-1.3
		c0-0.1,0.2-0.6,0.8-0.8c0.3-0.1,0.6-0.1,1.1,0.1c0.9,0.2,1.4,0.5,2.2,0.7c1.1,0.3,2,0.4,3.1,0.7c1.9,0.5,1.5,2,1.4,2.5
		c-0.1,0.3-1,3.4-1.1,3.7c-0.1,0.1-1.1,2.4-2.5,3.6c-1.2,1.1-2.7,1.7-3.2,1.9c-0.3,0.1-1.3,0.6-1.6,0.7c-0.2,0.1-3.4,0.8-5.2,0.7
		c-0.9,0-2.4-0.4-3.2-0.6c-1.4-0.3-2.4-0.4-3.8-0.8c-3.5-0.9-6.6-2.6-7.6-3.2c-0.4-0.3-2.5-1.7-3.7-4.1c-0.1-0.2-1.3-3.6-1.4-3.8
		c-0.4-1.6-0.1-4.3,0.3-5.7l0.1-0.3c0.3-1.1,0.6-2.9,2.4-2.4C246,256.4,246.6,256.7,247.5,256.9z"/>
	<path class="st1" d="M282,241.2l-0.1,0.2c-0.2,0.8-0.5,1.2-0.7,2c-0.3,0.9-0.4,1.5-0.6,2.4c-0.1,0.5-0.2,0.9-0.3,1.4
		c-0.4,1.4-1.6,1.2-2.8,1.4c-1.2,0.1-2,0.4-3.2,0.6c-0.8,0.1-1.3,0.1-2.2,0.2s-1.5,0.2-1.7,0.7c-0.2,0.7,0.7,0.8,1,0.9
		c0.9,0.3,1.5,0.4,2.4,0.7c0.7,0.2,1.1,0.4,1.8,0.6c0.6,0.2,1.1,0.2,1.8,0.4c1,0.3,1,0.9,0.9,1.4c-0.3,0.9-0.6,1.6-0.9,2.6
		c-0.3,1.1-0.4,2-0.7,3.2c-0.3,1-1.1,1.3-2,1c-0.7-0.2-1.1-0.4-1.7-0.6c-1.1-0.4-1.9-0.7-3.1-1c-2.3-0.6-3.9-0.9-6.2-1.6
		c-2.3-0.7-3.9-1.3-6.2-2c-1.5-0.4-2.5-0.6-4-1.1c-1.6-0.5-2.7-0.9-4.3-1.3c-0.9-0.3-1.7-0.3-2.6-0.7c-0.9-0.3-2.2-1-1.6-3.1
		c0.3-0.9,0.6-1.6,0.8-2.5c0.7-2.2,1-3.9,1.7-6.2c0.8-2.6,2.3-6,6.4-7.1c0.3-0.1,0.8-0.1,1.1-0.1c0.4,0,0.9-0.2,1.8-0.2
		c1.2,0,4.2,0.7,5.3,1.1c0.7,0.2,4.7,1.2,7,4.7c0.3,0.4,0.4,0.7,0.7,1.1c0.2,0.3,0.2,0.5,0.4,0.8c0,0.1,0.2,0.3,0.4,0.3
		c0.6,0.2,4.1-0.7,4.9-0.8c0.7-0.1,1.2-0.1,1.9-0.3c1.2-0.2,2-0.5,3.2-0.6c0.2,0,0.5,0,0.9,0.1C282.4,240,282,241.1,282,241.2z
		 M254.7,244.2l-0.1,0.2c0,0.3-0.1,0.7,0.1,0.9c0.3,0.6,0.8,0.9,0.9,0.9c0.2,0.1,3.7,1.3,3.9,1.3c1.1,0.3,2.4,0,2.8-1.3
		c0.2-0.6,0.1-1.1-0.1-1.5c-0.5-1-1.8-1.5-3.6-2C257.4,242.4,255.2,242.3,254.7,244.2z"/>
	<path class="st1" d="M290.8,218.7c-0.4,1-0.8,1.7-1.3,2.8c-0.3,0.9-0.5,1.5-0.8,2.4c-0.6,1.6-1.7,0.9-2.2,0.8
		c-0.4-0.1-2.9-1-3.4-0.8c-0.3,0.1-0.1,0.1-0.4,0.2c-0.1,0.1-0.8,1.7-1.2,2.7c-0.7,1.7-0.2,1.7,0.7,2.3c0.3,0.2,2.8,1.3,3.1,1.7
		c0.3,0.5,0.3,0.8,0.1,1.5c-0.3,0.8-0.6,1.4-0.9,2.2c-0.3,0.9-0.6,1.8-1,2.6c-0.3,0.8-0.7,1.6-1.9,1.2c-0.3-0.1-1.1-0.6-2-1.2
		c-1.1-0.6-1.8-1-2.8-1.6c-0.9-0.6-1.6-1-2.5-1.6c-1.3-0.8-2.3-1.3-3.7-2.1c-1.4-0.8-2.2-1.4-3.6-2.2c-1-0.5-1.7-0.9-2.7-1.5
		c-1.1-0.7-1.9-1.3-3-2c-1.7-1.1-3-1.6-4.6-2.7c-1.1-0.7-2-1.5-2.3-2.1c-0.2-0.6-0.1-1.1,0.3-2.1c0.6-1.5,1.2-2.5,1.8-3.9
		c0.4-1.1,0.8-2.2,1.3-3.3l0.1-0.2c0.4-1.1,0.8-1.4,1.7-1.6c0.1-0.1,0.5,0,0.6,0c0,0,4.4,0.8,4.4,0.8c1.5,0.3,2.5,0.6,4,1
		c1.8,0.4,3.1,0.6,4.9,0.9c1.5,0.3,2.6,0.4,4,0.8c1.9,0.4,3.2,0.9,5,1.4c2.8,0.6,6.5,1.1,7.1,1.4
		C289.7,216.6,291.4,217.4,290.8,218.7z M267.7,219.5c-0.7-0.2-1.7-0.5-1.8-0.4c-0.3,0-0.6,0.1-0.7,0.2s0.1,0.4,0.3,0.5
		c0.2,0.2,1.5,1,1.7,1.1c0.5,0.3,0.8,0.6,1.3,0.9c0.3,0.2,3.6,2.1,3.9,2.2c1.4,0.5,1.7-0.1,2-0.8c0.2-0.6,0.7-1.7-0.9-2.3
		C271.2,220.1,268.3,219.6,267.7,219.5z"/>
	<path class="st1" d="M276.2,191.2c-0.2,0.4-0.4,0.7-0.6,1.1l-0.6,1.2c-0.3,0.6-0.5,1-0.8,1.6l0,0.1c-0.5,1-0.1,1.5,0.5,1.8l0.9,0.4
		c0.5,0.2,0.7,0.4,1.2,0.6c1.4,0.7,2-0.7,2.1-1c0.2-0.5,0.4-0.9,0.6-1.3c0.2-0.3,0.3-0.5,0.5-0.9c0.1-0.4,0.2-0.7,0.4-1.1
		c0.6-1.1,1.5-0.9,2-0.7c0.5,0.2,0.7,0.5,1.2,0.7l0.8,0.4c2.4,1.2,3.8,1.6,2.8,3.6c-0.4,0.9-0.9,1.4-1.4,2.3c-0.8,1.6,0.5,2.4,1,2.6
		l2.1,1c1,0.5,1.7,0.8,2.7,1.3c0.4,0.3,0.7,0.5,1.2,0.7c0.7,0.4,1.3,0.4,1.9,0.7l0.1,0.1c0.4,0.2,1.6,0.9,0.9,2.4
		c-0.5,0.9-0.9,1.5-1.3,2.5c-0.4,0.8-0.6,1.4-1,2.2c-0.7,1.3-1.7,1-2.2,0.8c-1.3-0.6-2.2-1.2-3.5-1.9c-2.4-1.2-4.2-1.9-6.6-3.2
		c-1.8-0.9-3-1.7-4.8-2.6c-1.7-0.9-3-1.3-4.7-2.2c-1.5-0.7-2.5-1.3-4-2.1c-0.8-0.4-1.5-0.6-2.4-1.1c-1.9-0.9-1.8-2-1.3-3l0.7-1.4
		c0.7-1.5,1.2-2.7,2-4.2c0.4-0.8,0.8-1.3,1.2-2.2c0.6-1.2,1-2.1,1.6-3.4c0.2-0.3,0.6-1.2,1.7-0.7c0.3,0.2,0.5,0.3,0.9,0.5l0.8,0.4
		c0.8,0.4,1.5,0.7,2.3,1.1C276,189.2,277,189.6,276.2,191.2z"/>
	<path class="st1" d="M287.4,172.6c-0.2,0.4-0.4,0.7-0.7,1.1c-0.7,1.2-0.4,1.8,1.2,2.8c1.4,0.8,2.4,1.2,3.7,2.1
		c1.7,1,2.7,1.7,4.4,2.7c1.5,0.9,2.6,1.4,4.1,2.3c0.8,0.5,1.7,1,2.5,1.5c0.7,0.4,1.3,0.7,2,1.1c0.5,0.2,0.8,0.3,1.2,0.6
		c1.3,0.8,0.7,2,0.5,2.3c-0.3,0.5-0.5,0.8-0.8,1.2c-0.4,0.7-0.7,1.1-1.1,1.8c-0.3,0.6-0.5,1.1-0.9,1.6c-0.5,0.8-1.1,1.2-2.5,0.4
		c-1.3-0.8-2.1-1.5-3.4-2.3c-1.3-0.7-2.2-1.1-3.5-1.9c-1.5-0.9-2.4-1.7-3.8-2.5c-1.1-0.6-1.8-0.9-2.9-1.5c-2.6-1.4-4.2-3.3-5.7-2.8
		c-0.3,0-0.4,0.2-0.5,0.2c-0.3,0.2-0.6,0.7-0.8,0.9c-0.2,0.3-0.3,0.6-0.5,0.9c-0.6,1.1-1.5,0.9-2,0.7c-1-0.6-1.7-1.1-2.7-1.7
		c-0.7-0.4-1.2-0.6-1.9-1c-1-0.6-1.1-1.2-0.5-2.2c0.5-0.9,1-1.5,1.6-2.5c0.8-1.4,1.5-2.8,2.3-4.2l0.3-0.4c0.7-1.1,1.2-1.9,1.9-3.1
		c0.4-0.7,0.6-1.3,1.1-2c0.9-1.6,2.1-0.9,3.2-0.3c0.8,0.5,1.3,0.8,2.1,1.3c0.6,0.3,1,0.5,1.5,0.8C287,170.7,288.1,171.4,287.4,172.6
		z"/>
	<path class="st1" d="M329.8,156.3c-0.7,0.9-1.3,1.4-2,2.3c-0.6,0.7-0.9,1.3-1.5,2.1c-1,1.3-1.9,0.4-2.3,0.2
		c-0.4-0.2-2.5-1.8-3.1-1.7c-0.3,0-0.1,0-0.5,0.1c-0.1,0-1.2,1.4-1.9,2.3c-1.1,1.4-0.6,1.6,0.1,2.4c0.3,0.3,2.3,2,2.5,2.5
		c0.1,0.5,0.1,0.9-0.4,1.4c-0.5,0.7-1,1.2-1.5,1.9c-0.6,0.7-1.1,1.5-1.7,2.3c-0.5,0.7-1.2,1.3-2.2,0.6c-0.3-0.2-0.9-0.9-1.5-1.7
		c-0.8-0.9-1.4-1.4-2.3-2.4c-0.7-0.8-1.2-1.4-1.9-2.2c-1-1.2-1.9-1.9-2.9-3c-1.1-1.1-1.7-2-2.8-3.1c-0.8-0.8-1.4-1.3-2.1-2.1
		c-0.9-1-1.4-1.8-2.3-2.7c-1.3-1.5-2.4-2.4-3.7-3.9c-0.8-1-1.5-2-1.6-2.6c0-0.6,0.2-1.1,0.9-1.9c1-1.3,1.8-2,2.8-3.3
		c0.7-0.9,1.4-1.9,2.2-2.8l0.1-0.1c0.7-1,1.1-1.1,2-1c0.1,0,0.5,0.1,0.6,0.2c0,0,4,2,4,2c1.3,0.7,2.2,1.3,3.6,2.1
		c1.6,0.9,2.8,1.5,4.5,2.3c1.3,0.7,2.3,1.1,3.6,1.9c1.7,1,2.8,1.8,4.5,2.8c2.5,1.4,5.9,2.9,6.4,3.3
		C329.3,154,330.7,155.2,329.8,156.3z M307.4,150.6c-0.7-0.4-1.5-0.9-1.7-0.9c-0.3-0.1-0.6-0.1-0.7,0.1c-0.1,0.1,0,0.4,0.1,0.6
		c0.1,0.2,1.1,1.4,1.3,1.5c0.4,0.5,0.6,0.8,1,1.2c0.3,0.3,2.9,3,3.1,3.2c1.1,0.9,1.7,0.4,2.2-0.2c0.4-0.5,1.1-1.4-0.2-2.4
		C310.5,152.1,307.9,150.9,307.4,150.6z"/>
	<path class="st1" d="M346.2,138.4c-0.6,0.6-1,1-1.6,1.6c-0.9,0.9-1.4,1.7-2.3,2.6c-0.7,0.7-1.7,0-3-0.5c-1-0.4-1.9-0.5-2.9-1
		c-1-0.4-1.7-0.8-2.8-1.2c-0.8-0.3-1.5-0.4-2.3-0.7c-0.8-0.3-1.2-0.5-2-0.9c-0.8-0.4-2.2-1-2.2-0.8c-0.1,0.1,0,0.3,0.2,0.4
		c0.4,0.4,0.8,0.6,1.3,1c0.9,0.7,1.6,1.2,2.5,2.1c1.1,1.1,1.7,1.9,2.9,2.9c1.1,1,1.9,1.5,3,2.5c0.9,0.8,0.5,1.4-0.1,2.1
		c-0.8,0.9-1.5,1.4-2.3,2.3c-0.6,0.6-0.9,1.2-1.5,1.8c-1,1-2-0.1-2.1-0.2c-1.4-1.4-2.2-2.6-3.7-3.9c-0.4-0.4-0.7-0.6-1.2-1
		c-1-0.9-1.6-1.5-2.6-2.3c-0.8-0.8-1.4-1.3-2.2-2.1c-0.6-0.6-1-1.1-1.6-1.7c-0.6-0.6-1.2-0.9-1.8-1.5l-1.8-1.7
		c-1.3-1.2-2.1-2.1-3.3-3.3c-1.3-1.3-2.3-2-3.6-3.2c-0.2-0.2-0.9-0.8-0.2-1.7l0.2-0.2c0.3-0.3,0.5-0.4,0.8-0.7
		c0.5-0.4,0.8-0.8,1.2-1.2c0.7-0.7,1.1-1.3,1.8-2.1c0.4-0.4,0.7-0.4,1-0.4c0.8-0.1,4.1,1.3,4.6,1.5c0.7,0.2,1.1,0.4,1.8,0.6
		c0.5,0.2,0.9,0.2,1.4,0.4c0.5,0.2,0.8,0.4,1.3,0.6c0.4,0.2,0.7,0.2,1,0.3c0.6,0.2,1.1,0.4,1.7,0.7c0.8,0.4,2.2,1.1,2.4,0.9
		c0.1-0.2-0.6-0.9-1.1-1.4c-0.5-0.5-1-0.7-1.5-1.3c-0.5-0.5-0.8-0.9-1.4-1.4c-1.5-1.4-2.7-2.2-4.2-3.6c-0.3-0.3-1.3-1.3-1.5-1.7
		c0-0.3,0-0.5,0-0.6c0-0.2,0.2-0.7,0.6-1.1c0.5-0.5,0.8-0.8,1.3-1.2l1.2-1.3c0.4-0.4,0.6-0.7,1-1.1c0.6-0.6,1.2-0.6,1.8,0
		c1,1,1.6,1.8,2.7,2.8c1.5,1.4,2.6,2.3,4.1,3.7c1.6,1.5,2.6,2.7,4.2,4.2c1.6,1.5,2.8,2.4,4.4,3.9c1.4,1.4,2.3,2.5,3.8,3.8
		c0.7,0.7,1.2,1.2,2,1.8c0.3,0.3,0.6,0.4,0.9,0.7C347.3,137.2,346.6,138,346.2,138.4z"/>
	<path class="st1" d="M360.3,124.6c-0.5,1.2-1.4,2.4-3.4,4.1c-0.7,0.6-1.2,0.9-1.9,1.5c-1,0.9-1.6,1.7-2.6,2.6
		c-1.1,1-2.2,1.9-3.6,0.3c-1.1-1.3-1.7-2.3-2.8-3.6c-1.8-2.1-3.2-3.3-5-5.4c-0.7-0.8-1.1-1.4-1.8-2.2c-1.2-1.4-2.2-2.3-3.5-3.8
		c-1.1-1.3-1.8-2.2-2.9-3.5c-0.9-1-1.6-1.7-2.6-2.7c-1.4-1.6-1.3-2.5-0.2-3.5c1-0.8,1.6-1.4,2.5-2.2c1-0.8,1.6-1.4,2.4-2.3
		c0.3-0.2,0.5-0.5,0.8-0.7c3.4-2.9,5.9-3.3,8.8-2.9c0.5,0.1,1.8,0.3,3.2,0.8c4,1.7,8.2,6.6,8.5,6.9
		C358.9,111.2,363.1,118.5,360.3,124.6z M347.2,111.7c-0.8-0.8-4.3-4.4-6.2-2.4c-0.1,0.1-0.3,0.3-0.3,0.5c-0.4,0.9,0.4,1.7,0.8,2.2
		c1.2,1.3,2.1,2.2,3.3,3.5c0.8,0.9,1.3,1.6,2.1,2.5c0.6,0.7,1.2,1.1,1.8,1.9c0.4,0.5,0.7,0.9,1.1,1.4c0.6,0.7,1.8,2.1,3.1,0.9
		c1.3-1.2,0.1-3.1,0.1-3.2c-0.4-0.7-3-4.6-3.5-5.2C348.7,113.1,348,112.5,347.2,111.7z"/>
	<path class="st1" d="M374.7,78.9c0.7,1.1,1.3,1.8,2,2.9c0.2,0.2,1.1,1.5-0.2,2.4c-0.5,0.3-1,0.3-1.5,0.7c-0.2,0.2-1.4,1.8-1.5,2.1
		c-0.6,1.8,0.4,4.3,2.4,7.1c1.6,2.4,3.3,3.6,4.9,3.8c0.2,0,2.4,0.1,3.4-0.5c0.4-0.3,0.6-0.6,0.9-0.9c0.1-0.1,0.6-0.3,1.1-0.1
		c0.3,0.1,0.5,0.3,0.8,0.8c0.5,0.7,0.8,1.3,1.2,2c0.7,1,1.2,1.6,1.9,2.6c1.1,1.6-0.2,2.5-0.7,2.8c-0.3,0.2-3,1.8-3.3,2
		c-0.1,0-2.4,1.1-4.3,1.1c-1.6,0-3.2-0.5-3.7-0.7c-0.3-0.1-1.4-0.4-1.7-0.6c-0.2-0.1-3.1-1.7-4.4-2.9c-0.7-0.6-1.5-1.9-2.1-2.6
		c-0.9-1.2-1.6-1.9-2.4-3.1c-2-3-3.2-6.3-3.5-7.4c-0.1-0.5-0.8-2.9,0-5.5c0.1-0.3,1.4-3.6,1.5-3.8c0.8-1.5,2.8-3.3,4-4.1l0.3-0.2
		c0.9-0.6,2.3-1.8,3.4-0.2C373.9,77.5,374.2,78.1,374.7,78.9z"/>
	<path class="st1" d="M411.6,91.3l-0.2,0.1c-0.7,0.4-1.2,0.6-1.9,0.9c-0.8,0.5-1.4,0.8-2.1,1.2c-0.5,0.3-0.7,0.5-1.2,0.8
		c-1.3,0.7-2-0.2-2.9-0.9c-1-0.8-1.8-1.1-2.7-1.8c-0.7-0.5-1-0.9-1.7-1.4c-0.7-0.5-1.3-0.9-1.7-0.7c-0.6,0.3-0.1,1.1,0,1.3
		c0.5,0.8,0.8,1.4,1.3,2.1c0.3,0.6,0.5,1,0.9,1.7c0.3,0.6,0.6,0.9,1,1.6c0.5,0.9,0.1,1.4-0.4,1.7c-0.9,0.5-1.5,0.7-2.4,1.2
		c-1,0.6-1.7,1.2-2.7,1.7c-0.9,0.5-1.7,0.1-2.2-0.7c-0.3-0.6-0.5-1.1-0.8-1.7c-0.5-1-0.9-1.8-1.5-2.9c-1.2-2-2.1-3.4-3.3-5.5
		c-1.2-2.1-1.9-3.7-3.1-5.8c-0.8-1.4-1.4-2.2-2.1-3.6c-0.8-1.4-1.3-2.5-2.1-3.9c-0.5-0.9-0.9-1.4-1.4-2.3c-0.5-0.8-0.9-2.3,1-3.3
		c0.9-0.5,1.5-0.7,2.3-1.2c2.1-1.1,3.5-2.1,5.5-3.3c2.4-1.3,5.8-2.7,9.5-0.6c0.3,0.2,0.6,0.5,0.8,0.7c0.3,0.3,0.8,0.5,1.4,1.1
		c0.8,0.8,2.5,3.5,3,4.4c0.3,0.6,2.5,4.2,1.8,8.3c-0.1,0.5-0.2,0.8-0.3,1.2c-0.1,0.4-0.2,0.5-0.3,0.9c0,0.1,0,0.3,0.1,0.5
		c0.3,0.6,3.4,2.4,4,2.9c0.6,0.4,1,0.8,1.6,1.2c1,0.7,1.8,1.1,2.7,1.8c0.1,0.1,0.4,0.3,0.6,0.7C412.8,90.7,411.7,91.3,411.6,91.3z
		 M390.1,74.3l-0.2,0.1c-0.3,0.2-0.5,0.4-0.6,0.7c-0.2,0.6-0.1,1.2,0,1.3c0.1,0.2,1.8,3.5,1.8,3.7c0.6,1,1.7,1.7,2.9,1
		c0.6-0.3,0.9-0.8,1-1.1c0.4-1-0.2-2.3-1.1-3.9C393.3,74.9,391.8,73.3,390.1,74.3z"/>
	<path class="st1" d="M429.9,78.8c0.3,0.7,0.6,1.2,0.9,2c0.2,0.5,0.6,1.7-0.9,2.4c-0.6,0.3-1,0.4-1.6,0.7l-1,0.5
		c-1,0.5-1.8,0.7-2.8,1.2c-0.6,0.3-1,0.5-1.6,0.8l-4.6,2.1c-0.4,0.2-0.7,0.4-1.1,0.6c-0.5,0.2-1.9,0.5-2.6-1c-0.5-1.1-0.7-2-1.2-3.1
		c-0.5-1-0.8-1.7-1.3-2.7c-0.3-0.7-0.4-1.3-0.8-2.1c-0.3-0.7-0.6-1.2-1-1.9c-0.6-1.4-1-2.4-1.6-3.8c-0.6-1.3-1.2-2.5-1.8-3.8
		c-0.8-1.7-1.3-3-2-4.8c-0.6-1.2-1-2.1-1.6-3.3c-1.1-2.5-1.1-3.3,0.8-4.2c1.1-0.5,2-0.7,3.1-1.2c0.5-0.2,1.1-0.5,1.6-0.8
		c1.4-0.6,2.4-0.9,3.8-1.5c0.6-0.3,1-0.5,1.6-0.8l0.9-0.4c0.5-0.2,0.8-0.4,1.3-0.6c1.3-0.6,1.8,0.4,2,0.8c0.3,0.7,0.5,1.5,0.9,2.2
		c0.5,1.2,1.9,3-0.2,4l-0.5,0.2c-0.5,0.2-0.9,0.4-1.4,0.7c-0.7,0.3-1.2,0.4-1.9,0.7c-2.4,1.1-2.1,1.8-1.5,3.3c0.7,1.5,1.5,2,2.5,1.6
		c0.5-0.2,0.8-0.5,1.2-0.7l0.1,0c0.6-0.3,1.1-0.4,1.7-0.7c0.5-0.2,0.9-0.4,1.4-0.7c1.8-0.8,2.2,0.4,2.5,1c0.3,0.7,0.5,1.1,0.8,1.8
		c0.3,0.6,0.5,1.1,0.8,1.7c0.7,1.7-0.5,2.3-1,2.6c-1.3,0.6-2.3,0.8-3.6,1.4c-2.4,1.1-1.5,2.4-1.1,3.3l0.2,0.5c0.1,0.2,0.5,1,0.7,1.2
		c1.1,0.9,1.6,0.4,3.2-0.2c0.8-0.3,1.4-0.4,2.1-0.8c0.7-0.3,1.1-0.6,1.7-0.9c0.4-0.2,1.7-0.5,2.3,0.9
		C429.4,77.6,429.6,78.1,429.9,78.8z"/>
	<path class="st1" d="M453.6,74.5c-1.1,0.4-1.9,0.5-2.9,0.9c-0.9,0.3-1.5,0.6-2.4,0.9c-1.6,0.6-1.8-0.7-2-1.1
		c-0.2-0.4-1.1-2.8-1.7-3.1c-0.3-0.1-0.1-0.1-0.4-0.1c-0.1,0-1.8,0.5-2.8,0.9c-1.7,0.6-1.4,1-1.2,2c0.1,0.4,0.9,2.9,0.7,3.4
		c-0.2,0.5-0.4,0.8-1.1,1c-0.8,0.3-1.4,0.5-2.3,0.7c-0.9,0.3-1.8,0.7-2.6,1c-0.8,0.3-1.7,0.5-2.1-0.7c-0.1-0.4-0.2-1.3-0.4-2.2
		c-0.2-1.2-0.4-2-0.6-3.2c-0.2-1.1-0.2-1.9-0.4-2.9c-0.2-1.6-0.6-2.6-0.8-4.1c-0.3-1.5-0.4-2.6-0.7-4.1c-0.2-1.1-0.4-1.8-0.6-3
		c-0.2-1.3-0.2-2.3-0.4-3.5c-0.3-2-0.8-3.3-1-5.3c-0.2-1.3-0.2-2.5,0.1-3.1c0.3-0.5,0.8-0.8,1.8-1.2c1.5-0.5,2.6-0.7,4.1-1.2
		c1.1-0.4,2.2-0.8,3.4-1.2l0.2-0.1c1.2-0.4,1.6-0.3,2.3,0.2c0.1,0.1,0.3,0.4,0.4,0.5c0,0,2.2,3.8,2.3,3.9c0.7,1.3,1.2,2.3,1.9,3.7
		c0.9,1.6,1.6,2.7,2.5,4.3c0.7,1.3,1.4,2.2,2,3.5c0.9,1.7,1.4,3,2.3,4.7c1.4,2.5,3.4,5.6,3.6,6.3C454.4,72.3,454.9,74,453.6,74.5z
		 M437.8,57.5c-0.3-0.7-0.8-1.6-0.9-1.7c-0.2-0.3-0.5-0.4-0.6-0.3c-0.1,0-0.2,0.3-0.2,0.6c0,0.3,0.2,1.8,0.3,2
		c0.1,0.6,0.1,1,0.2,1.6c0.1,0.4,0.8,4.1,0.9,4.4c0.5,1.4,1.2,1.3,1.9,1c0.6-0.2,1.7-0.6,1.1-2.2C439.6,60.5,438.1,58.1,437.8,57.5z
		"/>
	<path class="st1" d="M463.5,46.1c-0.5,0.1-0.8,0.2-1.2,0.3c-1.3,0.4-1.6,1-1.1,2.9c0.4,1.5,0.8,2.5,1.2,4.1c0.5,1.9,0.7,3.2,1.2,5
		c0.4,1.7,0.9,2.8,1.3,4.5c0.3,1,0.5,1.9,0.7,2.9c0.2,0.8,0.4,1.4,0.7,2.2c0.2,0.5,0.4,0.8,0.5,1.3c0.4,1.5-0.9,1.9-1.3,2
		c-0.5,0.1-0.9,0.2-1.5,0.3c-0.8,0.2-1.3,0.3-2.1,0.5c-0.6,0.2-1.1,0.4-1.7,0.6c-1,0.3-1.7,0.1-2.1-1.4c-0.4-1.5-0.4-2.6-0.8-4.1
		c-0.4-1.4-0.8-2.4-1.2-3.8c-0.4-1.6-0.5-2.9-1-4.5c-0.3-1.2-0.7-2-1-3.1c-0.8-2.8-0.7-5.3-2.1-6c-0.2-0.2-0.4-0.1-0.5-0.2
		c-0.4-0.1-0.9,0-1.2,0.1c-0.4,0.1-0.6,0.2-0.9,0.3c-1.2,0.3-1.8-0.4-1.9-0.9c-0.3-1.1-0.4-2-0.7-3.1c-0.2-0.8-0.4-1.3-0.6-2.1
		c-0.3-1.1,0-1.7,1.2-2c1-0.3,1.8-0.4,2.8-0.7c1.5-0.4,3-1,4.6-1.4l0.5-0.1c1.3-0.3,2.2-0.5,3.5-0.8c0.8-0.2,1.3-0.5,2.2-0.7
		c1.8-0.5,2.1,0.8,2.4,2c0.2,0.9,0.4,1.5,0.6,2.4c0.2,0.6,0.3,1,0.5,1.6C464.6,44.5,464.9,45.8,463.5,46.1z"/>
	<path class="st1" d="M481.3,67.7c-0.7,0.1-1.2,0.2-1.9,0.3c-1.1,0.2-1.9,0.5-3,0.8c-2.3,0.5-2.4-0.6-2.6-1.7l-0.4-1.9
		c-0.2-1.1-0.2-1.9-0.5-2.9l-0.4-1.9c-0.5-2.3-0.9-3.9-1.4-6.2l-1.2-5.7c-0.4-1.8-0.5-3.1-0.9-4.9l-0.6-3.2
		c-0.2-0.8-0.4-1.3-0.6-2.1c-0.3-1.5,0.7-1.8,1.8-2c1.1-0.2,1.8-0.3,2.9-0.5c0.9-0.2,1.5-0.4,2.4-0.6c1-0.2,1.3,0.9,1.4,1.5
		c0.1,0.7,0.2,1.3,0.3,2c0.2,1.2,0.4,1.9,0.6,3.1l1.4,7.1c0.2,1.1,0.3,1.8,0.5,2.9l0.5,2.3c0.4,1.8,0.8,3,1.2,4.9
		c0.3,1.4,0.3,2.4,0.6,3.7c0.3,1.3,0.6,2.1,0.9,3.4C482.5,66.6,482.6,67.5,481.3,67.7z"/>
	<path class="st1" d="M502.4,36c-0.1,1.4,0.1,2.4,0.1,3.7c0,0.5,0,0.9-0.1,1.3c0,0.4,0.1,0.7,0.1,1.1c0,1.3-0.2,2.2-0.3,3.4
		c-0.1,1.2,0,2.1-0.1,3.4c0,1-0.1,1.8-0.1,2.9c0,1.3,0.1,2.2-0.1,3.5c-0.1,1.5-0.3,2.5-0.5,4c-0.2,2.2-0.1,4.2-0.8,5
		c-0.5,0.5-1.1,0.5-1.6,0.6l-7.7,1c-0.7,0.1-0.9,0-1.2-0.3c-0.7-0.6-3.2-8.7-3.4-9.3c-0.8-2.2-1.4-3.7-2-6c-0.2-0.6-0.2-1-0.4-1.6
		c-0.5-1.6-1.1-2.7-1.6-4.4c-0.5-1.7-0.8-3-1.3-4.7c-0.7-2.2-0.9-2.3-1.1-3.7c-0.1-0.7-0.2-1.8,1-2c0.7-0.1,1.3-0.1,2-0.2
		c1.5-0.2,2.6-0.4,4.2-0.6c1.7-0.2,1.5,1.3,1.9,3.2c0.4,1.7,0.9,2.9,1.2,4.6c0.3,1.3,0.3,2.3,0.7,3.6c0.3,1.4,0.7,2.4,1.1,3.8
		c0.3,1,0.4,1.7,0.7,2.8c0,0,0.5,2.5,1,2.4c0.5-0.2,0.1-3.2,0-5c0-1.3,0.1-2.2,0.1-3.5c-0.1-1.8-0.3-3.1-0.4-5c0-1.6,0.1-2.7,0-4.3
		c0-1-0.1-2.5-0.1-2.7c0.1-0.4,0.3-0.9,1-1c1.1-0.1,1.9-0.1,3-0.3c0.8-0.1,1.3-0.2,2.1-0.3c0.5-0.1,0.8-0.2,1.3-0.2
		c1.1-0.1,1.3,0.5,1.3,1C502.8,33.4,502.5,34.8,502.4,36z"/>
	<path class="st1" d="M516.5,63.5c-0.7,0-1.2,0-1.9,0c-1.2,0.1-2,0.3-3.1,0.3c-2.3,0.1-2.3-0.9-2.3-2l-0.1-1.9c-0.1-1.1,0-1.9,0-3
		l-0.1-1.9c-0.2-2.4-0.4-4-0.5-6.4l-0.4-5.8c-0.1-1.9-0.1-3.1-0.2-5l-0.2-3.2c-0.1-0.8-0.2-1.3-0.3-2.1c-0.1-1.5,0.9-1.7,2-1.7
		c1.1-0.1,1.9-0.1,3-0.1c0.9-0.1,1.5-0.2,2.5-0.3c1-0.1,1.2,1.1,1.2,1.7c0,0.7,0,1.3,0,2c0,1.2,0.1,2,0.2,3.1l0.5,7.3
		c0.1,1.1,0,1.8,0.1,2.9l0.1,2.3c0.1,1.9,0.4,3.1,0.5,5c0.1,1.4,0,2.4,0.1,3.8c0.1,1.3,0.3,2.2,0.4,3.5
		C517.9,62.5,517.8,63.4,516.5,63.5z"/>
	<path class="st1" d="M536.5,38.4c-0.5,0-0.8,0-1.3,0c-1.4,0-1.8,0.6-1.8,2.5c0,1.6,0.1,2.7,0.2,4.3c0,1.9-0.1,3.2-0.1,5.2
		c0,1.7,0.1,3,0.1,4.7c0,1,0,2,0,3c0,0.8,0,1.5,0.1,2.3c0,0.5,0.1,0.8,0.1,1.4c0,1.5-1.4,1.6-1.8,1.6c-0.6,0-0.9,0-1.5-0.1
		c-0.8,0-1.3,0-2.1,0c-0.7,0-1.2,0.1-1.8,0.1c-1,0-1.6-0.3-1.6-1.9c0-1.5,0.2-2.6,0.2-4.1c0-1.5-0.1-2.5-0.2-3.9
		c0-1.7,0.2-2.9,0.2-4.6c0-1.2-0.1-2.1-0.2-3.3c-0.1-2.9,0.7-5.3-0.5-6.4c-0.2-0.2-0.4-0.2-0.4-0.3c-0.3-0.2-0.9-0.2-1.2-0.2
		c-0.4,0-0.7,0-1,0c-1.3,0-1.6-0.8-1.6-1.4c0-1.2,0.1-2,0.1-3.2c0-0.8-0.1-1.4-0.1-2.2c0-1.2,0.5-1.6,1.6-1.6c1.1,0,1.8,0.1,2.9,0.1
		c1.6,0,3.2-0.1,4.8-0.2l0.5,0c1.3,0,2.3,0.1,3.6,0.1c0.8,0,1.4-0.1,2.3-0.1c1.8,0,1.8,1.4,1.8,2.6c0,0.9,0,1.5,0,2.4
		c0,0.7,0,1.1,0.1,1.7C537.9,37.1,537.9,38.3,536.5,38.4z"/>
	<path class="st1" d="M563.6,34.7c-0.1,0.3-1.8,4.4-2.9,7c-0.2,0.5-0.4,0.9-0.7,1.4c-0.8,1.8-1.3,3.1-2.2,4.9
		c-1.3,2.6-2.2,3.3-2.4,6c-0.1,0.9-0.1,1.6-0.2,2.5c-0.1,1-0.3,1.7-0.3,2.7c-0.1,1.2-0.1,2-0.2,3.2c0,0.5-0.2,1.4-0.8,1.8
		c-0.2,0.1-0.9,0.1-1,0.1c-0.5,0-0.9-0.1-1.4-0.2c-0.7-0.1-1.3,0-2-0.1l-1.6-0.1c-2.1-0.2-1.5-1.9-1.5-3l0-0.1
		c0-0.3,0.1-0.6,0.1-0.9c0-0.5,0-0.9,0-1.4c0.1-0.8,0.3-1.4,0.4-2.2c0.1-0.9,0-1.6,0.1-2.5c0.1-0.9,0.2-1.5,0.1-2.5
		c0-0.2-1.1-4.9-1.9-7.6c-0.5-1.4-0.9-2.4-1.3-3.8c-0.6-2-0.8-3.4-1.3-5.4c-0.3-0.9-0.5-1.5-0.7-2.5c-0.1-0.3-0.1-0.6-0.1-0.8
		c0.1-1.3,1.5-1.1,1.7-1c0.7,0.1,1.4,0.2,2.1,0.3c1.3,0.1,2.2,0.1,3.4,0.2c0.7,0.1,1,0.2,1.3,0.6c0.6,0.8,1,4.6,1.1,5.3
		c0.2,1.3,0.4,2.2,0.7,3.5c0.1,0.6,0.2,1.6,0.4,1.6c0.4,0,0.5-0.8,0.7-1.3c0.3-0.9,0.5-1.5,0.8-2.3c0.2-0.4,0.3-0.7,0.5-1.1
		c0.3-0.6,0.4-1.1,0.6-1.8c0.1-0.5,0.6-2.3,0.8-2.8c0.4-0.5,0.4-0.7,1-1c0.2-0.1,1-0.1,1.2,0c0.8,0.1,1.3,0.2,2.1,0.3
		c0.8,0.1,1.4,0,2.3,0.1c0.9,0.1,2,0.3,1.9,1.6C563.9,33.8,563.6,34.6,563.6,34.7z"/>
	<path class="st1" d="M607.2,46.1c-0.3,1.2-0.4,2-0.7,3.3c-0.7,2.9-1.2,5-1.9,7.9l-0.1,0.4c-0.3,1.4-0.5,2.8-0.8,4.1
		c-0.5,2.2-1,3.6-1.4,5.7c-0.3,1.2-0.3,2.1-0.6,3.3c-0.3,1.4-0.5,1.9-1.6,1.7c-1.2-0.3-2.1-0.6-3.3-0.9c-0.9-0.2-1.5-0.2-2.4-0.4
		c-1.5-0.3-1.5-1.3-1.3-2c0.2-1,0.6-1.7,0.8-2.7l0.3-1.2c0.1-0.4,0.2-0.6,0.3-1c0.1-0.6,0.1-1,0.3-1.6c0.2-0.5,0.3-0.8,0.5-1.4
		c0.2-1,0.3-1.8,0.5-2.8c0.1-0.5,0.3-0.9,0.4-1.4c0.1-0.3,0.1-0.5,0.1-0.7l0-0.2c0-0.1,0.1-0.2-0.2-0.3c-0.5-0.1-1.5,1.9-1.6,2.1
		c0,0-2.9,3.8-2.9,3.9c-0.2,0.2-0.5,0.5-1,0.3c-0.2,0-0.7-0.2-0.9-0.3c-0.5-0.5-0.8-2.2-1.4-3.8c-0.1-0.4-0.3-0.7-0.4-1.1
		c-0.2-0.5-0.2-0.9-0.3-1.4c-0.1-0.7-0.4-1.8-0.6-1.8c-0.1,0-0.3,0.3-0.4,0.5l-0.1,0.3c-0.3,1.4-0.7,2.3-1,3.8
		c-0.2,0.8-0.3,1.4-0.5,2.3c-0.3,1-0.5,1.8-0.7,2.9l-0.2,1c-0.2,1-0.3,1.7-0.5,2.6c-0.4,1.6-1.2,1.5-1.9,1.3c-0.7-0.2-1.2-0.3-2-0.5
		c-0.8-0.2-1.3-0.3-2.1-0.4c-0.4-0.1-0.7-0.1-1-0.1c-1.6-0.4-1.3-1.5-1.2-2.1c0.2-0.7,0.3-1.2,0.5-1.9c0.3-1,0.5-1.7,0.7-2.7
		c0.5-2.2,0.7-3.8,1.2-6c0.5-2.2,1-3.8,1.5-6c0.5-2.2,0.7-3.6,1.2-5.8c0.2-1,0.5-1.7,0.7-2.7c0.4-1.6,0.4-2.8,0.8-4.4
		c0.3-1.4,1.7-1,1.9-0.9c1.4,0.3,2.3,0.6,3.7,0.9c0.6,0.1,1,0.2,1.6,0.3c1.6,0.4,1.3,1.3,1.7,3.5c0.3,1.7,0.8,2.8,1.3,4.4
		c0.2,0.7,0.3,1.2,0.4,1.9c0,0.2,0.4,1.9,0.8,2c0.5,0.1,1.6-1.6,1.7-1.7c0.7-0.8,1.2-1.3,1.8-2.2c0.6-0.9,1-1.6,1.7-2.4
		c0,0,1.9-2.3,1.9-2.3c0.3-0.2,0.2-0.2,0.7-0.4c0.1,0,1,0.1,1.6,0.2c0.9,0.2,1.5,0.4,2.5,0.6c1,0.2,1.6,0.3,2.6,0.5
		c0.8,0.2,0.9,0.8,0.8,1.5C608.1,43.2,607.6,44.4,607.2,46.1z"/>
	<path class="st1" d="M622.8,75.9c-0.3,0.8-0.4,1.3-0.6,2.1c-0.2,0.5-0.8,1.7-2.3,1.2c-0.6-0.2-1.1-0.4-1.7-0.6l-1.1-0.4
		c-1.1-0.4-1.8-0.7-2.9-1.1c-0.6-0.2-1.1-0.3-1.7-0.5l-4.8-1.6c-0.5-0.1-0.8-0.2-1.2-0.3c-0.5-0.2-1.7-0.9-1.2-2.5
		c0.4-1.2,0.8-2,1.2-3.1c0.4-1.1,0.5-1.8,0.9-2.9c0.3-0.8,0.6-1.3,0.8-2c0.3-0.8,0.3-1.3,0.6-2.1c0.5-1.5,0.9-2.5,1.4-3.9
		c0.4-1.3,0.8-2.7,1.2-4c0.6-1.8,1.1-3.1,1.7-4.9c0.4-1.3,0.6-2.2,1.1-3.5c0.9-2.6,1.4-3.2,3.4-2.6c1.2,0.4,1.9,0.8,3.1,1.2
		c0.5,0.2,1.1,0.3,1.7,0.5c1.4,0.5,2.4,0.9,3.8,1.4c0.6,0.2,1.1,0.3,1.7,0.5l0.9,0.3c0.5,0.2,0.9,0.2,1.4,0.4c1.4,0.5,1.1,1.5,0.9,2
		c-0.3,0.8-0.6,1.5-0.9,2.2c-0.4,1.2-0.6,3.5-2.8,2.8l-0.5-0.2c-0.5-0.2-0.9-0.3-1.5-0.4c-0.7-0.2-1.2-0.5-1.9-0.8
		c-2.4-0.8-2.8-0.1-3.3,1.4c-0.5,1.5-0.2,2.5,0.8,2.8c0.5,0.2,0.9,0.2,1.4,0.4l0.1,0c0.7,0.2,1.1,0.5,1.7,0.7
		c0.5,0.2,0.9,0.3,1.4,0.4c1.8,0.6,1.3,1.8,1.1,2.4c-0.2,0.7-0.4,1.1-0.7,1.9c-0.2,0.7-0.3,1.1-0.5,1.8c-0.6,1.7-1.9,1.4-2.5,1.2
		c-1.4-0.5-2.3-0.9-3.6-1.4c-2.4-0.8-2.8,0.7-3.1,1.6l-0.2,0.5c-0.1,0.2-0.4,1.1-0.4,1.4c0.2,1.5,0.9,1.3,2.5,2
		c0.8,0.4,1.3,0.6,2.1,0.9c0.7,0.2,1.2,0.3,1.9,0.5c0.4,0.1,1.6,0.8,1.1,2.2C623.3,74.7,623.1,75.1,622.8,75.9z"/>
	<path class="st1" d="M642.5,84.1c-0.3,0.7-0.5,1.3-0.8,2c-0.2,0.5-0.9,1.6-2.4,1c-0.6-0.3-1-0.5-1.6-0.7l-1-0.4
		c-1-0.4-1.7-0.8-2.8-1.3c-0.6-0.3-1.1-0.4-1.7-0.7l-4.6-2c-0.5-0.1-0.8-0.2-1.2-0.4c-0.5-0.2-1.6-1.1-1-2.6c0.5-1.1,1-1.9,1.4-3
		c0.4-1,0.7-1.7,1.1-2.8c0.3-0.7,0.7-1.2,1-2c0.3-0.7,0.4-1.3,0.8-2c0.6-1.4,1.1-2.4,1.7-3.8c0.6-1.3,1-2.6,1.5-3.9
		c0.7-1.8,1.4-3,2.1-4.8c0.5-1.3,0.8-2.2,1.3-3.4c1.1-2.5,1.7-3.1,3.6-2.3c1.1,0.5,1.9,1,3,1.5c0.5,0.2,1.1,0.4,1.6,0.6
		c1.4,0.6,2.3,1.1,3.7,1.7c0.6,0.3,1.1,0.4,1.7,0.6l0.9,0.4c0.5,0.2,0.8,0.3,1.4,0.5c1.3,0.6,0.9,1.6,0.8,2.1
		c-0.3,0.7-0.8,1.4-1.1,2.1c-0.5,1.2-0.9,3.4-3.1,2.5l-0.5-0.2c-0.5-0.2-0.9-0.3-1.4-0.6c-0.7-0.3-1.1-0.6-1.8-0.9
		c-2.4-1-2.8-0.3-3.4,1.2c-0.6,1.5-0.4,2.5,0.6,2.9c0.5,0.2,0.9,0.3,1.3,0.5l0.1,0c0.6,0.3,1,0.5,1.6,0.8c0.5,0.2,0.9,0.3,1.4,0.5
		c1.8,0.8,1.2,1.9,0.9,2.5c-0.3,0.7-0.5,1.1-0.8,1.8c-0.3,0.6-0.4,1.1-0.7,1.7c-0.7,1.7-2,1.2-2.6,1c-1.3-0.6-2.2-1.1-3.5-1.7
		c-2.4-1-2.8,0.5-3.2,1.4l-0.2,0.5c-0.1,0.2-0.4,1-0.5,1.3c0.1,1.5,0.8,1.4,2.4,2.2c0.7,0.4,1.2,0.7,2,1.1c0.7,0.3,1.2,0.4,1.9,0.6
		c0.4,0.2,1.5,0.9,1,2.3C643.1,82.9,642.8,83.4,642.5,84.1z"/>
	<path class="st1" d="M668.8,74c-0.4-0.2-0.7-0.4-1.1-0.6c-1.2-0.6-1.9-0.3-2.7,1.4c-0.7,1.4-1.1,2.4-1.8,3.9
		c-0.9,1.7-1.6,2.8-2.5,4.5c-0.8,1.5-1.3,2.7-2.1,4.2c-0.5,0.9-1,1.7-1.4,2.6c-0.4,0.7-0.7,1.3-1,2.1c-0.2,0.5-0.3,0.8-0.5,1.3
		c-0.7,1.3-1.9,0.8-2.3,0.6c-0.5-0.3-0.8-0.5-1.3-0.8c-0.7-0.4-1.1-0.6-1.9-1c-0.6-0.3-1.1-0.5-1.7-0.8c-0.9-0.5-1.3-1-0.6-2.5
		c0.7-1.4,1.4-2.2,2.1-3.6c0.7-1.3,1-2.3,1.7-3.6c0.8-1.5,1.5-2.5,2.3-4c0.6-1.1,0.8-1.9,1.3-3c1.3-2.6,3.1-4.4,2.5-5.9
		c-0.1-0.3-0.2-0.4-0.2-0.4c-0.2-0.3-0.7-0.6-1-0.7c-0.3-0.2-0.6-0.3-0.9-0.4c-1.1-0.6-1-1.5-0.8-2c0.5-1,1-1.7,1.6-2.8
		c0.4-0.7,0.5-1.3,0.9-2c0.5-1,1.2-1.2,2.2-0.7c1,0.5,1.6,0.9,2.5,1.4c1.4,0.7,2.9,1.3,4.3,2.1l0.5,0.2c1.2,0.6,2,1.1,3.2,1.7
		c0.7,0.4,1.3,0.6,2,1c1.6,0.8,1,2.1,0.4,3.1c-0.4,0.8-0.8,1.4-1.2,2.1c-0.3,0.6-0.5,1-0.7,1.5C670.6,73.6,670,74.7,668.8,74z"/>
</g>
</svg>
