<svg version="1.1" id="Layer_1" xmlns="http://www.w3.org/2000/svg" xmlns:xlink="http://www.w3.org/1999/xlink" x="0px" y="0px"
	 viewBox="0 0 101.3 138.2" style="enable-background:new 0 0 101.3 138.2;" xml:space="preserve">
<style type="text/css">
	.st0{fill:#FCFDFF;}
	.st1{fill:#582F10;}
</style>
<g>
	<path class="st0" d="M99.1,56.6c0.1-0.8,0.3-1.5,0.4-2.3c0.1-0.3,0.1-0.6,0.2-0.9l0.1-0.3c0.2-0.9,0.6-2.3,0.9-4.1
		c1.8-9.7-0.8-17.2-3.2-21.8c-0.5-1-1.1-1.9-1.7-2.8c-3.6-5.2-8.6-9.2-15.4-12.1c-2.5-1.1-4.6-1.7-5.8-2.1c-0.2,0-0.3-0.1-0.5-0.1
		l-0.4-0.2C73,9.5,72,9.1,70.7,8.6c-0.2-0.1-0.3-0.1-0.5-0.2c-1.5-0.5-2.7-0.9-3.4-1.1c-0.1,0-0.5-0.2-0.6-0.2C66.1,7.1,66,7,65.8,7
		c-0.8-0.3-1.5-0.6-2.4-0.9C62.1,5.6,61,5.2,60.3,5c-0.2-0.1-0.3-0.1-0.5-0.2c-0.1,0-0.1,0-0.2-0.1c-0.2-0.1-0.4-0.1-0.5-0.2
		c-0.6-0.3-1.3-0.5-2-0.8c-1.5-0.6-2.6-0.9-3.4-1.2c0,0-0.1,0-0.1,0c-1.6-0.6-3.9-1.5-6.9-2.1c-0.9-0.2-1.7-0.3-2.6-0.4
		c-16.4-1.6-31,9.5-34,26c-0.1,0.7-0.2,1.4-0.4,2.1c0,0.2-0.1,0.4-0.1,0.6l-0.1,0.3c-0.1,0.7-0.3,1.3-0.4,2.1
		c-0.3,1.5-0.4,3-0.5,4.5c-0.5,1.4-0.8,2.9-1.1,4.4c-0.2,1-0.3,1.8-0.4,2.4c-0.2,0.8-0.4,1.8-0.7,3.1C6,47.9,5.9,50.2,6,52.4
		c-0.1,0.5-0.2,1.1-0.2,1.6c-0.1,1.1-0.2,2.1-0.3,2.9c-0.1,0.7-0.3,1.5-0.4,2.6c-0.2,1.5-0.3,3-0.3,4.5c-0.3,1.2-0.5,2.3-0.7,3.4
		c-0.2,1.3-0.2,2.3-0.3,3c-0.1,0.6-0.3,1.6-0.4,2.7c-0.1,0.8-0.2,1.6-0.2,2.3c-0.3,1.1-0.6,2.2-0.9,3.4c-0.4,1.6-0.6,3-0.7,4
		c-0.1,0.5-0.3,1.2-0.5,2c-1.4,6.4-1.5,12-0.4,17.6c0,0.1,0,0.1,0,0.2c4.2,20.2,22.1,30.9,36.1,34c1.7,0.4,4.5,0.9,7.7,1.2
		c6.1,0.6,11.6,0.3,16.7-0.9c0.1,0,0.2,0,0.3-0.1c4.4-1.1,8-2.8,10.1-4c10.7-5.9,17.5-15.1,20.2-27.4c0.2-0.8,0.3-1.5,0.4-2.1
		c0.1-0.4,0.1-0.8,0.2-1.2c0.1-0.3,0.1-0.6,0.2-1c0.1-0.3,0.1-0.6,0.2-0.9c0.2-0.7,0.3-1.4,0.5-2.3c0.5-2.2,0.7-4.4,0.8-6.6
		c0.6-1.9,1.1-3.9,1.4-6c0.1-0.7,0.2-1.3,0.2-2l0.1-0.5c0.1-0.6,0.3-1.5,0.4-2.6c0.2-1.5,0.3-3,0.3-4.5c0.4-1.4,0.7-2.9,0.9-4.4
		c0.1-1.2,0.2-2.2,0.3-2.9c0.2-0.7,0.3-1.6,0.4-2.5c0,0,0-0.3,0-0.3c0.2-1.7,0.3-3.4,0.2-5.1c0-0.2,0-0.4,0-0.5
		c0.3-1.1,0.6-2.1,0.8-3.2C99.1,56.8,99.1,56.6,99.1,56.6z"/>
	<path class="st1" d="M36,51.1c0.2-1.1,0.5-1.9,0.7-3c0.2-0.9,0.2-1.6,0.4-2.5c0.3-1.7,1.5-1.2,2-1.2c0.4,0,3,0.4,3.5,0.1
		c0.3-0.2,0.1-0.1,0.3-0.3c0.1-0.1,0.4-1.8,0.6-2.9c0.3-1.8-0.2-1.7-1.1-2.1c-0.4-0.1-3-0.7-3.3-1c-0.4-0.4-0.5-0.7-0.4-1.4
		c0.2-0.9,0.3-1.5,0.5-2.3c0.2-0.9,0.3-1.9,0.5-2.8c0.2-0.8,0.4-1.7,1.7-1.5c0.4,0.1,1.2,0.4,2.1,0.8c1.2,0.4,1.9,0.6,3.1,1
		c1,0.4,1.7,0.7,2.8,1.1c1.5,0.6,2.5,0.8,4,1.4c1.5,0.5,2.4,1,3.9,1.4c1,0.3,1.8,0.5,2.9,0.9c1.2,0.5,2.1,0.9,3.3,1.4
		c1.9,0.7,3.3,1,5.1,1.8c1.2,0.5,2.3,1.1,2.6,1.6c0.3,0.5,0.3,1.1,0.1,2.1c-0.3,1.6-0.7,2.6-1,4.2c-0.2,1.2-0.4,2.4-0.6,3.5l0,0.2
		c-0.2,1.2-0.5,1.5-1.3,1.9c-0.1,0.1-0.5,0.1-0.6,0.1c0,0-4.4,0-4.5,0c-1.5,0-2.6-0.1-4.1-0.2c-1.9,0-3.1,0-5,0
		c-1.5,0-2.6,0.1-4.1,0c-1.9-0.1-3.3-0.3-5.2-0.4c-2.9-0.1-6.6,0.1-7.2,0C37.5,52.9,35.7,52.4,36,51.1z M58.5,45.8
		c0.8,0,1.7,0.1,1.9,0.1c0.3,0,0.6-0.2,0.6-0.4c0-0.1-0.2-0.4-0.4-0.5c-0.2-0.1-1.6-0.7-1.9-0.8c-0.5-0.2-0.9-0.5-1.5-0.6
		c-0.4-0.1-4-1.3-4.3-1.4c-1.4-0.3-1.7,0.4-1.8,1.1c-0.1,0.6-0.3,1.8,1.3,2.1C55,45.9,57.9,45.8,58.5,45.8z"/>
	<path class="st1" d="M33.2,76.9c0.1-0.8,0.3-1.4,0.4-2.2c0.2-1.3,0.2-2.2,0.3-3.5c0.1-1,1.4-1,2.7-1.3c1.1-0.3,1.8-0.7,3-0.9
		c1.1-0.3,1.8-0.4,2.9-0.7c0.8-0.2,1.4-0.5,2.3-0.8c0.8-0.2,1.3-0.3,2.1-0.5c0.9-0.2,2.3-0.5,2.3-0.7c0-0.1-0.2-0.2-0.4-0.2
		c-0.6-0.1-1,0-1.7,0c-1.2,0-2-0.1-3.2-0.2c-1.5-0.2-2.5-0.5-4.1-0.7c-1.4-0.2-2.5-0.1-3.9-0.3c-1.2-0.1-1.3-0.8-1.1-1.8
		c0.1-1.2,0.3-2,0.5-3.2c0.1-0.8,0-1.5,0.2-2.3c0.2-1.4,1.7-1.1,1.8-1c2,0.2,3.3,0.8,5.3,1c0.6,0.1,1,0.1,1.5,0.1
		c1.3,0.2,2.2,0.2,3.4,0.4c1.1,0.1,1.9,0.2,3,0.4c0.9,0.2,1.5,0.3,2.4,0.4c0.9,0.1,1.5,0.1,2.3,0.2l2.4,0.3c1.7,0.2,2.9,0.4,4.6,0.7
		c1.8,0.3,3,0.2,4.9,0.5c0.2,0,1.2,0.1,1.2,1.2l0,0.2c0,0.4-0.2,0.6-0.2,1.1c-0.1,0.6-0.2,1.1-0.3,1.7c-0.1,1-0.1,1.7-0.2,2.7
		c-0.1,0.5-0.3,0.7-0.5,0.9c-0.6,0.5-4.1,1.3-4.6,1.5c-0.7,0.2-1.1,0.3-1.8,0.5c-0.5,0.2-0.9,0.4-1.3,0.5c-0.5,0.1-0.9,0.2-1.4,0.3
		c-0.4,0.1-0.6,0.2-1,0.3c-0.6,0.2-1.1,0.3-1.8,0.4c-0.9,0.2-2.5,0.4-2.4,0.6c0,0.2,1,0.4,1.7,0.5c0.7,0.1,1.2,0,2,0.1
		c0.7,0.1,1.2,0.2,1.9,0.3c2,0.3,3.5,0.2,5.5,0.5c0.4,0,1.8,0.2,2.2,0.5c0.2,0.2,0.3,0.4,0.4,0.5c0.1,0.2,0.3,0.7,0.2,1.3
		c-0.1,0.7-0.2,1.1-0.3,1.8L66,80c-0.1,0.6-0.1,0.9-0.1,1.5c-0.1,0.8-0.6,1.2-1.5,1.1c-1.4-0.2-2.4-0.5-3.8-0.7
		c-2-0.3-3.5-0.3-5.5-0.6c-2.2-0.3-3.7-0.6-5.9-0.9c-2.2-0.3-3.7-0.3-5.9-0.6c-2-0.2-3.3-0.6-5.3-0.9c-1-0.1-1.7-0.3-2.7-0.3
		c-0.4-0.1-0.8,0-1.2,0C33,78.6,33.1,77.6,33.2,76.9z"/>
	<path class="st1" d="M30.2,96.5c-0.3-1.3-0.3-2.7,0.3-5.3c0.2-0.9,0.4-1.4,0.6-2.4c0.3-1.3,0.3-2.3,0.5-3.6
		c0.3-1.4,0.7-2.8,2.7-2.4c1.7,0.4,2.8,0.8,4.4,1.2c2.7,0.6,4.6,0.8,7.2,1.3c1.1,0.2,1.7,0.4,2.8,0.7c1.8,0.4,3.2,0.6,5,1
		c1.7,0.4,2.7,0.7,4.4,1.1c1.3,0.3,2.3,0.4,3.7,0.7c2.1,0.4,2.6,1.3,2.3,2.7c-0.3,1.2-0.5,2.1-0.8,3.2c-0.3,1.2-0.4,2.1-0.6,3.3
		c-0.1,0.4-0.1,0.7-0.2,1.1c-0.9,4.4-2.8,6.1-5.3,7.5c-0.4,0.2-1.6,0.8-3,1.2c-4.3,1-10.5-0.4-10.9-0.5
		C39.3,106.4,31.6,103.2,30.2,96.5z M48.4,99.1c1.2,0.2,6,0.9,6.4-1.8c0-0.2,0-0.4-0.1-0.6c-0.2-1-1.3-1.2-1.9-1.3
		c-1.7-0.4-3-0.5-4.8-0.9c-1.2-0.3-2-0.5-3.1-0.8c-0.9-0.2-1.6-0.2-2.6-0.4c-0.6-0.1-1.1-0.3-1.7-0.4c-1-0.2-2.7-0.6-3,1.1
		c-0.3,1.8,1.7,2.6,1.8,2.6c0.7,0.4,5.1,1.9,5.9,2.1C46.4,98.8,47.2,98.9,48.4,99.1z"/>
</g>
</svg>
