<?xml version="1.0" encoding="utf-8"?>
<!-- Generator: Adobe Illustrator 27.8.1, SVG Export Plug-In . SVG Version: 6.00 Build 0)  -->
<svg version="1.1" id="Layer_1" xmlns="http://www.w3.org/2000/svg" xmlns:xlink="http://www.w3.org/1999/xlink" x="0px" y="0px"
	 viewBox="0 0 624.2 649.3" style="enable-background:new 0 0 624.2 649.3;" xml:space="preserve">
<style type="text/css">
	.st0{fill:#FCFDFF;}
	.st1{fill:#582F10;}
</style>
<g>
	<path class="st0" d="M623,272.1l0-0.3c0.3-3.2,0.5-6.9-0.1-11c0.7-2.7,1.1-5.4,1.2-8.3c0-0.7,0-1.3,0-1.9c0-0.4,0-0.8,0-1.2
		c0.1-0.8,0.1-2,0.2-3.4c0-1.3-0.1-2.6-0.2-3.9c0.1-1.2,0.2-2.4,0.2-3.6c0-1,0-1.8,0-2.6c0-0.4,0-0.9,0-1.4l0-0.1
		c0-0.7,0.1-1.4,0.1-2.1c0-2.5-0.3-4.9-0.8-7.2c0.2-2,0.2-4.1,0.1-6.3l0-0.2c-0.1-0.8-0.1-1.6-0.2-2.3c0-0.3-0.1-0.6-0.1-1l0-0.3
		c0-1,0-2.4-0.2-4.2c-0.4-5.1-1.8-9.3-3.5-12.7c0.8-3.9,0.9-8,0.2-12.2c-0.1-0.8-0.3-1.5-0.4-2.1c-0.1-0.7-0.2-1.7-0.4-2.7
		c-0.3-1.8-0.7-3.5-1.3-5.2c-0.1-1.7-0.4-3.4-0.8-5c-0.2-0.9-0.4-1.7-0.6-2.4c-0.1-0.3-0.1-0.5-0.2-0.8c-0.1-0.6-0.3-1.6-0.6-2.8
		c-0.3-1.2-0.6-2.2-0.8-3.2c-0.1-0.4-0.2-0.8-0.3-1.3l-0.4-1.5c-1.1-4.5-3.1-8.5-5.7-12c0.3-4.4-0.3-9-2-13.5
		c-0.2-0.7-0.5-1.2-0.7-1.8l-0.2-0.4c-0.3-0.8-0.6-1.5-0.8-2c-0.3-0.8-0.6-2-1.2-3.5c-0.1-0.4-0.3-0.8-0.5-1.2
		c-0.2-0.9-0.6-2.1-1.2-3.6c-1.2-3.3-2.9-6.3-5-8.9c-0.7-3.6-1.9-7.1-3.5-10.6c-0.7-1.5-1.4-2.7-1.9-3.7c-0.4-0.7-0.6-1.2-0.8-1.5
		c0-0.1-0.1-0.2-0.1-0.2c-0.2-0.6-0.6-1.6-1.2-2.8c-1.1-2.2-2.4-4.3-3.9-6.2c-0.7-1.9-1.5-3.7-2.5-5.4c-0.4-0.6-0.7-1.1-1-1.7
		l-0.2-0.4c-0.4-0.7-0.8-1.4-1.2-1.9c-0.4-0.7-1-1.9-1.8-3.2c-0.2-0.4-0.5-0.7-0.7-1.1c-0.4-0.8-1-2-1.8-3.3c-1.2-2.1-2.7-4-4.3-5.7
		c-0.9-2-2-3.9-3.3-5.7c-0.5-0.8-1.1-1.4-1.5-2c-0.4-0.6-0.9-1.3-1.5-2.2c-0.7-1-1.5-2-2.3-2.9c-0.6-1.1-1.3-2.2-2-3.2
		c-0.7-0.9-1.3-1.7-1.8-2.3c-0.3-0.5-0.8-1.1-1.3-1.9c-0.9-1.2-1.8-2.3-2.8-3.4c-1.3-2.4-3-4.8-5.2-7.2c-0.3-0.4-0.7-0.7-1-1
		c-0.5-0.7-1.2-1.5-2-2.4c-1.1-1.3-2.3-2.4-3.6-3.4c-0.8-1.1-1.6-2.1-2.5-3.2c-0.5-0.6-1-1.1-1.4-1.5c-0.3-0.4-0.8-0.9-1.3-1.5
		c-1.1-1.3-2.2-2.4-3.4-3.5c-0.7-0.9-1.4-1.8-2.1-2.6c-0.5-0.5-0.9-1-1.3-1.4c-0.4-0.5-0.9-1.2-1.6-1.9
		c-6.7-7.8-14.6-10.2-20.1-10.9c-9-1.1-18.2,1.9-25.1,8.1c-3.6,3.3-9.4,11.3-10.1,12.2c-0.1,0.2-0.2,0.3-0.3,0.5
		c-1,1.4-1.7,2.6-2.2,3.4c-0.1,0.1-0.1,0.2-0.2,0.3c-0.1,0.1-0.1,0.2-0.2,0.2c-0.6,0.7-1.4,1.8-2.4,3.2c-1.1,1.6-2,3-2.7,4.1
		c-0.3,0.5-0.7,1.1-0.8,1.3c-0.1,0.1-0.2,0.3-0.3,0.4c-0.2,0.3-0.4,0.5-0.6,0.8c-2.8,3.6-8,10.3-8.5,20.4c-0.3,6,0.9,14.9,8.4,23.2
		c0.4,0.5,0.9,1,1.4,1.5l0.1,0.1l0.2,0.2c0.4,0.5,0.9,1,1.4,1.7c0.8,0.9,1.7,1.7,2.6,2.5c0.8,1.1,1.6,2.1,2.5,3.1
		c0.6,0.7,1.2,1.2,1.6,1.7c0.4,0.5,1.1,1.3,1.9,2.2c1.1,1.2,2.2,2.3,3.4,3.2c0.7,1.4,1.5,2.7,2.5,4c0.6,0.9,1.2,1.6,1.8,2.2
		c0.4,0.6,0.8,1.3,1.4,2.1c0.7,1,1.5,2,2.4,2.9c0.6,1,1.2,2,1.9,2.9c0.7,1,1.4,1.9,1.9,2.5c0.3,0.5,0.7,1.1,1.2,1.8
		c0.3,0.5,0.7,0.9,1,1.4c0.4,0.9,0.8,1.7,1.3,2.5c0.5,0.9,1,1.6,1.4,2.2l1.9,3.1c0.3,0.6,0.7,1.1,1,1.6l0,0c0.3,0.6,0.8,1.5,1.5,2.6
		l0.4,0.7c0.3,0.6,0.6,1.2,1,1.8c0.4,0.7,0.9,1.5,1.4,2.2c0.2,0.5,0.4,0.9,0.6,1.4c0.6,1.2,1.1,2.2,1.5,2.9c0.3,0.7,0.6,1.5,1.1,2.4
		c0.6,1.2,1.2,2.3,1.9,3.3c0.4,1.1,0.8,2.1,1.3,3.1c0.5,1.1,1,2,1.5,2.7c0,0,0,0.1,0,0.1c0.2,0.6,0.6,1.5,1.1,2.6l0,0.1c0,0,0,0,0,0
		c0.3,1.1,0.6,2.1,1,3.2c0.4,1,0.7,1.8,1,2.4l1.3,3.4c0.2,0.6,0.5,1.2,0.7,1.7l0,0c0.2,0.6,0.5,1.6,1,2.8l0.3,0.8
		c0.2,0.6,0.4,1.2,0.7,2c0.9,2.4,2.1,4.6,3.5,6.7c0,2.5,0.3,5.1,0.9,7.6c0.2,1,0.5,1.8,0.7,2.4c0.1,0.6,0.3,1.5,0.6,2.6
		c0.5,2,1.2,3.9,2,5.7c0,1.7,0.1,3.5,0.4,5.2c0.2,1.3,0.4,2.3,0.6,2.9l0,0.1l0.5,3l0,0.1c0.1,0.6,0.2,1.3,0.3,2.1
		c0.1,0.7,0.2,1.2,0.3,1.8c0.1,0.6,0.2,1.5,0.4,2.6c0.1,0.8,0.3,1.7,0.5,2.5c0,0.2,0,0.4,0,0.6c0.1,0.7,0.1,1.4,0.2,2.1
		c0,0.2,0,0.4,0.1,0.6l0,0.3c0,0.7,0.1,1.3,0.1,2.1c0.1,1.5,0.3,3,0.7,4.5c-0.1,1.5-0.1,3,0,4.5c0.1,1,0.2,1.8,0.3,2.4
		c0,0.8,0,1.9,0.1,3.1c0.1,0.7,0.1,1.3,0.2,2c-0.1,1.3-0.2,2.5-0.2,3.6l-0.1,7.7c0,2.6,0.2,5.1,0.7,7.3c-1.2,3.3-2,6.9-2.4,10.7
		c-0.3,2.8-0.5,6.5,0.3,11.2c-1.4,2.8-2.6,6.2-3.4,10.2c-0.8,3.8-1.2,7.2-1.1,10.3c-0.5,1.2-0.9,2.3-1.3,3.6
		c-0.4,1.3-0.6,2.4-0.8,3.2c-0.2,0.7-0.5,1.5-0.8,2.5c-0.4,1.2-0.7,2.5-0.9,3.7c-0.4,1.1-0.8,2.1-1.1,3.2c-0.3,1.2-0.6,2.2-0.7,3
		c0,0,0,0,0,0c-0.2,0.5-0.5,1.3-0.8,2.3c-1.3,2.1-2.4,4.5-3.4,7c-1.3,3.4-3,8.5-3.5,13.7c0,0.2,0,0.3,0,0.5
		c-1.8,1.9-3.4,4.1-4.8,6.6c-0.3,0.6-0.7,1.3-1,1.9c-0.1,0.2-0.2,0.4-0.3,0.5l-0.2,0.3c-0.3,0.6-0.7,1.1-1.1,1.8
		c-0.7,1.3-1.4,2.7-1.9,4.1c-0.9,1.2-1.7,2.5-2.5,3.8c-0.5,0.9-0.8,1.6-1.1,2.1c-0.4,0.6-1,1.6-1.6,2.7c-0.2,0.3-0.3,0.6-0.5,0.9
		c-0.3,0.4-0.6,0.8-0.9,1.2c-0.8,1.1-1.3,2.1-1.8,2.8c-0.4,0.6-1,1.3-1.6,2.1c-0.7,1-1.4,2.1-1.9,3.2c-0.7,0.9-1.4,1.8-2.1,2.7
		c-0.7,1-1.2,1.9-1.6,2.7c0,0,0,0,0,0c-0.4,0.5-1,1.3-1.7,2.3l0,0c-0.8,0.8-1.6,1.6-2.3,2.5c-0.6,0.8-1.2,1.5-1.6,2.1l-2.3,2.8
		c-0.4,0.5-0.8,1-1.1,1.4l0,0c-0.5,0.5-1.1,1.3-2,2.3l-0.5,0.6c-0.4,0.5-0.9,1-1.4,1.6c-1.6,2-3,4.1-4,6.3c-2.2,1.3-4.2,2.8-6.1,4.5
		c-0.7,0.7-1.3,1.3-1.8,1.9l-2.7,2.5c-0.5,0.5-0.9,0.9-1.3,1.3l0,0c-0.5,0.4-1.3,1.1-2.2,2l-0.6,0.6c-0.5,0.4-1,0.9-1.5,1.4
		c-0.6,0.6-1.2,1.2-1.8,1.8c-0.7,0.6-1.4,1.1-2,1.7c-0.2,0.1-0.3,0.3-0.5,0.4c-0.5,0.4-1.3,0.9-2.3,1.7c-0.9,0.7-1.8,1.5-2.7,2.4
		c-1.3,0.8-2.5,1.6-3.6,2.5c-0.9,0.7-1.5,1.3-2,1.7c-0.6,0.4-1.6,1.2-2.8,2.1c-0.4,0.3-0.7,0.6-1,0.9c-0.3,0.2-0.6,0.4-0.9,0.5
		c-1.1,0.7-2,1.4-2.7,2c-0.5,0.3-1.2,0.7-2,1.2c-2.6,1.7-4.8,3.7-6.7,5.9c-2.5,0.7-5,1.6-7.4,2.9c-1.2,0.6-2.1,1.2-2.6,1.5l-0.1,0
		l-2.7,1.5c-0.6,0.3-1.2,0.6-1.9,1c-0.6,0.3-1.1,0.6-1.6,0.9c-0.6,0.3-1.4,0.7-2.4,1.2c-1,0.6-2,1.2-3,1.8c-2.8,0.7-5.5,1.6-8.2,2.8
		c-2.2,1-4.8,2.3-7.8,4.5c-1.2,0.3-2.5,0.6-3.7,1c-1.3,0.4-2.3,0.8-3.1,1.2c-0.7,0.2-1.6,0.4-2.5,0.8c-1.2,0.4-2.4,0.9-3.5,1.4
		c-1.1,0.2-2.2,0.5-3.3,0.9c-1.2,0.4-2.1,0.8-2.9,1.1c0,0,0,0,0,0c-0.6,0.2-1.6,0.4-2.6,0.8l-0.1,0c0,0,0,0,0,0
		c-1.1,0.1-2.2,0.3-3.3,0.6c-1,0.2-1.8,0.5-2.5,0.7l-3.6,0.9c-0.6,0.2-1.2,0.3-1.8,0.5l0,0c-0.7,0.1-1.7,0.3-2.9,0.6l-0.8,0.2
		c-0.6,0.1-1.3,0.3-2,0.4c-0.9,0.2-1.9,0.5-2.8,0.8c-1,0.1-1.9,0.2-2.6,0.3c-1.6,0.2-3,0.5-4,0.8c-0.6,0.1-1.3,0.1-2,0.3
		c-6.2,0.9-11.3,2.7-16,5.5c-3-1.4-6.1-2.3-9.4-2.7c-1.2-0.2-2.5-0.2-3.8-0.3c-0.7,0-1.3,0-2,0l-0.1,0l-0.3,0
		c-0.7,0-1.4-0.1-2.2-0.1c-1.2,0-2.4,0-3.6,0.1c-0.2,0-0.3,0-0.5-0.1c-1.1-0.1-2.3-0.2-3.5-0.2c-0.9,0-1.7,0-2.3,0
		c-0.7,0-1.7-0.1-2.9-0.1c-1.7,0-3.4,0.1-5,0.3c-1.6-0.5-3.4-0.8-5.1-1c-0.3,0-0.6-0.1-1-0.1c-1.2-0.1-2.2-0.2-3-0.2
		c-0.3,0-0.6-0.1-1-0.1c-0.3,0-0.7-0.1-1-0.1c-1.7-0.2-3.4-0.2-5.1-0.1c-1.6-0.5-3.2-0.8-5-1c-0.5-0.1-1-0.1-1.6-0.2
		c-0.9-0.1-1.7-0.1-2.3-0.1c-0.4-0.1-0.8-0.1-1.3-0.2c-0.6-0.1-1.2-0.1-1.8-0.2c-2.2-0.2-4.4-0.1-6.6,0.1c-1.5-0.4-3-0.7-4.6-0.9
		c-1.5-0.2-3-0.3-4.5-0.2c-1.1,0-2,0.1-2.8,0.2c-0.7,0-1.5-0.1-2.5,0c-1.3,0-2.5,0.1-3.8,0.3c-1.1-0.1-2.3-0.1-3.4-0.1
		c-1.3,0-2.4,0.1-3.1,0.2c-0.6,0-1.3,0-2.2,0c-4.9,0.1-9.5,1.2-13.6,3.3c-1.3-0.3-2.5-0.6-3.8-0.7c-3-0.4-6.1-0.3-9.2,0.1
		c-1.2,0.2-2.2,0.4-2.9,0.5c-0.6,0.1-1.2,0.1-2,0.2c-1.4,0.2-2.7,0.5-4,0.9c-2.3,0-4.6,0.3-6.9,0.8c-1.1,0.3-2.1,0.5-2.8,0.8
		c-0.7,0.1-1.5,0.3-2.6,0.5c-1.5,0.4-3,0.8-4.3,1.3c-1.2,0.1-2.4,0.3-3.5,0.6c-1.2,0.3-2.2,0.6-2.9,0.8c-0.6,0.1-1.6,0.3-2.7,0.5
		c-3,0.7-5.8,1.8-8.3,3.2c-2.3,0.3-4.6,0.8-6.9,1.5c-0.9,0.3-1.6,0.6-2.2,0.8c-0.7,0.2-1.8,0.5-3,0.9c-2.3,0.8-4.4,1.8-6.4,3
		c-2.8,0.4-5.5,1.2-8.1,2.3c-0.9,0.4-1.7,0.8-2.4,1.1l-3.4,1.5c-0.6,0.3-1.1,0.5-1.7,0.8l0,0c-0.6,0.2-1.6,0.6-2.8,1.1l-0.8,0.3
		c-0.6,0.2-1.2,0.5-1.9,0.8c-1.8,0.8-3.5,1.7-5.1,2.8c-2,0.6-3.9,1.4-5.7,2.5c-1,0.6-1.8,1.1-2.5,1.5c-0.6,0.3-1.4,0.7-2.3,1.2
		c-1.4,0.8-2.6,1.6-3.8,2.5c-1.1,0.5-2.2,1-3.2,1.6c-1.1,0.6-2,1.2-2.6,1.5c-0.6,0.3-1.4,0.7-2.4,1.3c-2.7,1.5-5,3.3-7.1,5.3
		c-2.2,0.9-4.3,2-6.2,3.4c-0.7,0.5-1.4,1-1.9,1.4c-0.7,0.4-1.6,0.9-2.6,1.7c-2.1,1.4-3.9,3.1-5.5,4.8c-2.3,1.1-4.4,2.5-6.5,4.1
		c-1,0.8-1.7,1.4-2.3,1.9c-0.5,0.3-1,0.7-1.6,1.2c-2.2,1.8-4.2,3.8-5.8,6c-3.7,1.9-7.2,4.4-10.5,7.4c-2.1,2-4.8,4.8-7.4,9.2
		c-2.7,1.7-5.2,3.8-7.4,6.3c-0.7,0.9-1.3,1.6-1.8,2.3c-0.4,0.5-1.1,1.1-1.8,2c-1,1.2-1.9,2.4-2.7,3.6c-0.9,0.8-1.7,1.7-2.5,2.6
		c-0.8,1-1.5,1.8-1.9,2.3c-0.4,0.5-1.1,1.1-1.9,2.1c-11.5,13.5-10.1,32.9,3.2,44.3c1.1,1,2.2,1.7,3.1,2.3l0,0
		c0.1,0.1,0.4,0.4,0.8,0.7c0.8,0.7,1.8,1.7,3.2,2.9c1.4,1.2,2.6,2.1,3.5,2.8c0.6,0.4,0.9,0.7,1.1,0.9c0.5,0.4,0.9,0.8,1.4,1.2
		c0.8,0.7,1.8,1.7,3.1,2.7c1,0.9,1.9,1.6,2.8,2.3c0.4,0.3,0.8,0.6,1.2,1l0,0c0.6,0.6,1.7,1.7,3.1,2.9c4.8,4.1,10.5,6.6,16.6,7.4
		c10.4,1.3,20.7-2.8,27.5-10.8c0.5-0.5,0.8-1,1.2-1.5l0.3-0.3c0.5-0.5,1.1-1.1,1.8-2c1-1.1,1.8-2.3,2.6-3.6c1.1-1,2.2-2,3.1-3.2
		c0.8-0.9,1.4-1.7,1.8-2.3c0.5-0.5,1.1-1.1,1.7-1.8c0,0,0.2-0.3,0.2-0.3c0.7-0.8,1.3-1.7,1.9-2.5c2.4-1.5,4.6-3.2,6.8-5.3l0.2-0.2
		c1.8-1.7,3.6-3.6,5.4-6c1.3-0.8,2.5-1.6,3.7-2.5c1-0.8,1.7-1.4,2.2-1.9c0.1-0.1,0.2-0.1,0.3-0.2c0.6-0.4,1.1-0.9,1.8-1.4
		c0.5-0.4,1.3-1,2.3-1.9c0.4-0.3,0.8-0.5,1.2-0.8c0.9-0.6,1.6-1.2,2.1-1.6c0.1,0,0.1-0.1,0.2-0.1c0.8-0.5,1.6-1,2.5-1.7l0.4-0.3
		c1.2-0.8,2.2-1.6,3-2.2c0.2-0.2,0.5-0.4,0.7-0.5l0.1-0.1c0.5-0.3,1.4-0.9,2.5-1.6c0.6-0.4,1.2-0.8,1.7-1.3c0,0,0,0,0,0
		c0.6-0.3,1.2-0.7,1.7-1l0.4-0.2c0.6-0.3,1.4-0.7,2.4-1.2c1.3-0.7,2.6-1.6,3.7-2.5c1.4-0.5,2.7-1.2,4.1-1.9c1-0.6,1.9-1.1,2.5-1.5
		c0.7-0.3,1.5-0.7,2.3-1.2l0.2-0.1c0.1-0.1,0.3-0.2,0.4-0.3c0.7-0.2,1.4-0.5,2-0.8c0.7-0.3,1.2-0.6,1.8-0.8l0.4-0.2
		c0.8-0.3,1.5-0.7,2-1c0.8-0.3,2-0.7,3.4-1.4c0.4-0.2,0.8-0.4,1.2-0.5c0.8-0.3,2.1-0.7,3.5-1.4c0.8-0.4,1.6-0.8,2.4-1.2
		c0.4-0.1,0.8-0.2,1.3-0.4c1-0.4,1.9-0.7,2.5-0.9c0.1,0,0.1,0,0.2-0.1c0.9-0.3,1.8-0.5,2.9-0.9l0.5-0.2c1.4-0.5,2.5-0.9,3.5-1.3
		c0.3-0.1,0.6-0.2,0.8-0.3l0.1,0c0.6-0.2,1.6-0.5,2.9-0.9c0.7-0.2,1.3-0.5,2-0.7c0.7-0.2,1.3-0.3,1.9-0.5l0.5-0.1
		c0.6-0.1,1.5-0.3,2.6-0.5c1.5-0.3,2.9-0.8,4.3-1.3c1.5-0.1,3-0.4,4.4-0.7c1.1-0.3,2.1-0.5,2.8-0.8c0.7-0.1,1.6-0.3,2.5-0.5l0.1,0
		c1,0,2.1-0.1,3.1-0.3c1.2-0.2,2.2-0.4,2.8-0.5c0.1,0,0.2,0,0.4,0c0.7-0.1,1.4-0.2,2.2-0.3c1.3-0.2,4.5-0.7,8.2-2.2
		c0.6,0.1,1.3,0.2,1.9,0.3c1.5,0.2,3,0.3,4.6,0.2c0.9,0,1.8-0.1,2.5-0.1c0.7,0,1.6,0.1,2.6,0c1.3,0,2.5-0.1,3.7-0.3
		c1.3,0.1,2.5,0.2,3.8,0.2c1.1,0,2.1-0.1,2.9-0.2c0.6,0,1.4,0,2.3,0c0,0,0,0,0.1,0c0.4,0.1,0.8,0.1,1.2,0.2c0.5,0.1,1,0.1,1.5,0.2
		c1.1,0.1,2,0.1,2.6,0.1c0.1,0,0.2,0,0.2,0c0.9,0.1,1.9,0.2,3,0.3l0.5,0c1.5,0.1,2.7,0.2,3.7,0.2c0.3,0,0.6,0,0.9,0l0.7,0.1
		c0.8,0.1,1.5,0.2,2.4,0.2c0.1,0,0.3,0,0.4,0c1.2,0.3,2.5,0.5,3.7,0.7c0.3,0,0.6,0.1,0.8,0.1c1.2,0.1,2.2,0.2,2.9,0.2
		c0,0,0.3,0,0.4,0c0.7,0.1,1.4,0.2,2.2,0.2c0.7,0.1,1.8,0.2,3.2,0.2c1.4,0.4,2.9,0.7,4.4,0.9c1.8,0.2,3.3,0.3,4.4,0.3
		c0.5,0,1,0,1.4,0c0.8,0.1,1.9,0.1,3.1,0.2c1.7,0,3.4-0.1,4.9-0.3c0.1,0,0.3,0,0.4,0c1.2,0.1,2.4,0.2,3.7,0.2c0.8,0,1.5,0,2.1,0
		c0.5,0,1.2,0.1,2,0.1c1.6,0.1,3.2,0,4.8-0.1c1.1,0.1,2.2,0.2,3.4,0.2c0.7,0,1.3,0,1.9,0c0.7,0.1,1.5,0.1,2.5,0.1
		c8.1,0.3,14.3-2.3,18.5-5c2.2,0.7,4.4,1.2,6.8,1.5c3.8,0.5,7.7,0.4,11.8-0.2c0.8-0.1,1.5-0.3,2.1-0.4c0.4-0.1,0.8-0.2,1.2-0.3
		c0.3-0.1,0.6-0.1,1-0.2c0.3-0.1,0.6-0.1,0.9-0.1c0.7-0.1,1.5-0.2,2.4-0.3c2.2-0.3,4.3-0.9,6.3-1.6c2.1-0.1,4.2-0.4,6.3-0.9
		c0.7-0.2,1.3-0.3,1.9-0.5l0.4-0.1c0.8-0.2,1.6-0.4,2.2-0.6c0.8-0.2,2.1-0.4,3.6-0.7c0.4-0.1,0.9-0.2,1.3-0.3
		c0.9-0.1,2.2-0.4,3.7-0.7c3.3-0.8,6.5-2.1,9.4-3.8c3.6-0.2,7.3-1,11.1-2.2c1.6-0.5,2.9-1,3.9-1.4c0.8-0.3,1.2-0.5,1.6-0.6
		c0.1,0,0.2-0.1,0.2-0.1c0.6-0.2,1.6-0.4,2.9-0.9c3.6-1.2,6.9-3,9.7-5.1c3.9-0.5,7.9-1.6,11.8-3.4l0.2-0.1c3.9-1.7,8.4-4.2,12.7-8.4
		c3.8-0.6,7.5-1.8,11.1-3.8c0.7-0.4,1.3-0.8,1.8-1.1c0.7-0.3,1.5-0.7,2.5-1.2c2.9-1.6,5.4-3.5,7.6-5.8c3.3-1.1,6.8-2.8,10.3-5.2
		c0.5-0.3,0.9-0.6,1.3-0.9c0.6-0.4,1.2-0.7,1.7-1.1c0.7-0.5,1.4-0.9,1.9-1.3c0.5-0.3,1.1-0.7,1.8-1.1c1.9-1.3,3.6-2.6,5-4
		c1.8-1,3.5-2.1,5.2-3.4c1.2-1,2.2-1.8,2.8-2.4c0,0,0.1-0.1,0.1-0.1c0.5-0.4,1.2-0.8,1.9-1.4c0.9-0.7,1.7-1.4,2.5-2.2
		c1.2-0.7,2.3-1.5,3.4-2.4c1-0.8,1.8-1.5,2.4-2c0.6-0.4,1.4-1,2.3-1.7l0.2-0.2c1.6-1.3,3.1-2.7,4.4-4.3c1.2-0.8,2.3-1.7,3.3-2.7
		c0.5-0.5,0.9-0.9,1.4-1.4l0.3-0.3c0.6-0.6,1.1-1.1,1.6-1.6c0.6-0.5,1.6-1.4,2.7-2.4c0.3-0.3,0.6-0.6,0.9-0.9
		c0.7-0.6,1.7-1.4,2.8-2.5c3.6-3.4,6.3-7.3,8-11.6c3.9-2,7.5-4.8,10.4-8.3c0.5-0.5,0.8-1,1.2-1.5l0.3-0.4c0.5-0.7,1-1.3,1.3-1.7
		c0.6-0.6,1.4-1.5,2.4-2.7c0.3-0.3,0.5-0.7,0.8-1c0.6-0.6,1.5-1.6,2.5-2.8c2.2-2.6,3.9-5.6,5.2-8.7c2.8-2.4,5.3-5.2,7.5-8.4
		c1-1.4,1.7-2.6,2.3-3.5c0.4-0.7,0.7-1.1,0.9-1.4c0,0,0.1-0.2,0.1-0.2c0.4-0.5,1-1.3,1.8-2.4c1.9-2.8,3.3-5.7,4.3-8.8
		c1.8-2,3.5-4.2,4.9-6.7l0.1-0.2c0.4-0.7,0.8-1.4,1.1-2.1c0.2-0.3,0.3-0.6,0.5-0.9l0.2-0.3c0.5-0.8,1.3-2,2.2-3.6
		c3.3-5.9,4.3-11.4,4.3-16c2.8-2.3,5.3-5.1,7.3-8.3c2.1-3.3,3.3-6.4,4.1-8.4l0.2-0.4c1.9-4.8,2.9-9.6,3.2-14.3
		c2.5-3.6,4.5-7.8,5.9-12.4c0.5-1.6,0.8-3,1.1-4c0.2-0.8,0.3-1.3,0.4-1.6c0-0.1,0.1-0.2,0.1-0.2c0.2-0.6,0.6-1.6,1-2.9
		c0.7-2.5,1.2-4.9,1.3-7.4c0.8-1.9,1.4-3.9,1.8-5.9c0.2-0.9,0.3-1.7,0.4-2.3c0.2-0.7,0.5-1.8,0.7-3c0.3-1.3,0.4-2.7,0.5-4
		c0.4-1.2,0.7-2.5,1-3.9c0.1-0.5,0.2-1,0.2-1.4c0.2-0.8,0.5-1.9,0.7-3.1c0.7-3.6,0.8-7.2,0.3-10.7
		C621.5,280.6,622.5,276.5,623,272.1z"/>
	<path class="st1" d="M525.3,58.4c-1.7,0.9-2.7,1.7-4.4,2.7c-2.1,1.3-3.6,2-5.8,3.1c-1.4,0.7-2.3,1.1-3.6,1.9c-1,0.5-1.6,1-2.6,1.6
		c-1.2,0.7-2.1,1.1-3.4,1.7c-1.1,0.6-1.9,1.1-3,1.6c-1,0.4-1.9,0.8-2.4,0.7c-0.6-0.1-0.9-0.4-1.2-0.8c-0.9-0.9-1.3-1.6-2.2-2.5
		c-0.5-0.5-0.9-0.8-1.4-1.4c-0.4-0.5-0.4-0.8-0.3-1.2c0-0.1,0.2-0.4,0.2-0.4c0-0.1,2.5-3.6,2.6-3.6c0.5-0.7,0.9-1.1,1.3-1.7
		c0.1-0.1,0.9-1.2,0.6-1.6c-0.3-0.5-1.8,0.3-2.7,0.8c-1.3,0.6-2.2,1.1-3.6,1.7c-0.6,0.3-1.6,0.8-1.6,0.8c-0.3,0-0.2,0.1-0.6,0.1
		c-0.3,0-0.6-0.2-0.8-0.5c-0.7-0.7-1.1-1.2-1.7-1.9c-0.4-0.5-0.9-1-1.4-1.5c-0.6-0.6-0.7-1-0.7-1.6c0-0.8,1.8-2.8,3.1-4.6
		c1.8-2.4,2.8-4.3,4.5-6.7c1-1.5,1.8-2.4,2.8-3.8c0.8-1.3,1.3-2.2,2.1-3.4c0.4-0.5,5.4-7,5.9-7.5c1.4-1.3,2.1-0.2,2.5,0.3
		c0.8,0.8,1.2,1.6,2,2.4c0.4,0.5,0.8,0.7,1.2,1.2c1.3,1.4-0.4,2.9-1,3.7c-0.6,0.6-0.9,1.1-1.4,1.8c-1.8,2.4-2.8,4.3-4.5,6.8
		c-0.8,1.2-2.3,3.2-2.4,3.3c0,0.2,0,0.2,0,0.3c0.3,0.4,0.5,0,1-0.3c0.3-0.1,1.3-0.6,1.5-0.8c1.3-0.7,2.2-1.2,3.5-1.9
		c0.6-1,1.3-2.1,2-3.1c0.7-1,1.3-1.7,2.1-2.8c0.5-0.7,1.1-1.7,1.7-2.3c1.3-1.2,2.3,0.3,2.4,0.5c0.7,0.8,1.1,1.4,1.8,2.2
		c0.6,0.6,1,0.9,1.5,1.5c1.3,1.4,0.4,1.9-1.1,3.5c-0.6,0.6-1,1.1-1.6,1.8c-2.2,2.6-3.5,4.7-5.9,7.3c-0.8,0.9-2.2,2.2-1.9,2.6
		c0.3,0.3,1.9-0.9,2.9-1.6c1.2-0.8,2.2-1.2,3.4-2c1.1-0.8,1.9-1.4,3.1-2.2c0.9-0.6,1.6-0.9,2.6-1.6c0.1-0.1,2.2-1.8,2.3-1.8
		c0.1-0.1,0.4-0.3,0.9-0.3c0.6,0,0.8,0.3,1.4,0.9c0.6,0.7,1,1.3,1.6,2c0.5,0.6,1,0.9,1.5,1.5c0.6,0.6,1.7,1.7,0.6,2.7
		C528.2,56.8,526.8,57.5,525.3,58.4z"/>
	<path class="st1" d="M517.4,95.5c-0.5-0.6-0.7-1.2-1.2-1.8c-0.7-0.9-1.3-1.5-1.9-2.5c-0.9-1.2,0.2-2,0.5-2.3c0.6-0.4,1.1-0.6,1.7-1
		c0.4-0.3,0.6-0.5,1-0.7c1.4-1,2.6-1.7,4-2.7c2.3-1.6,1.6-2.6,0.8-3.8c-0.5-0.7-0.8-0.8-1.4-0.8c-0.6-0.1-2.6,1.2-2.9,1.5
		c-0.8,0.5-1.5,1.2-2.3,1.7c-0.8,0.6-1.4,0.9-2.2,1.5c-0.5,0.4-0.9,0.7-1.3,1c-1,0.7-1.7,0.2-2-0.3c-0.6-0.8-0.9-1.5-1.4-2.3
		c-0.4-0.5-0.6-0.8-1-1.3c-0.2-0.3-0.5-0.5-0.7-0.8c-1-1.4,0-2.3,0.5-2.6c1-0.7,1.9-1.1,3-1.8l0.1-0.1c1.1-0.8,2-1.4,3.2-2.2
		c1.7-1.2,2.8-2.2,4.5-3.4c1.4-1,2.5-1.5,3.9-2.6c0.8-0.5,1.2-1,2-1.6c1-0.8,1.7-1.3,2.8-2.1c0.9-0.7,1.6-1,2.5-1.7
		c0.9-0.6,1.4-1.2,2.3-1.8c0.5-0.3,1.4-0.8,2.3,0.3c0.5,0.8,0.9,1.4,1.5,2.2c0.5,0.8,1,1.2,1.6,2c0.9,1.3,0.4,2-0.3,2.4
		c-0.8,0.6-1.5,0.8-2.3,1.3c-0.9,0.6-1.4,1.1-2.3,1.8c-1,0.7-1.6,1.1-2.6,1.8l-0.1,0.1c-1.4,1-1,1.8-0.2,2.9c0.7,0.9,1,1.1,1.7,1.1
		c0.3,0,2.3-1.3,2.5-1.5c0.8-0.6,1.4-1.2,2.2-1.8c0.5-0.3,1-0.6,1.4-1c0.7-0.5,1.1-1,1.8-1.5c1.3-0.9,2.1,0,2.4,0.4
		c0.6,0.8,0.9,1.5,1.5,2.4c0.5,0.7,0.9,1.1,1.4,1.7c1.2,1.6-0.2,2.5-0.6,2.8c-1.4,1-2.7,1.6-4.1,2.7c-0.4,0.3-0.7,0.5-1.1,0.8
		c-0.7,0.5-1.3,0.8-2,1.3c-1.2,0.9-2,1.5-3.3,2.4c-1.5,1.1-2.6,1.8-4.1,2.8c-1.8,1.3-2.9,2.3-4.6,3.6c-0.9,0.6-1.5,1-2.4,1.7
		c-0.8,0.5-1.2,1.1-2,1.7C518.7,96.6,517.9,96.3,517.4,95.5z"/>
	<path class="st1" d="M532.7,113.2c-0.7,0.4-1.1,0.7-1.8,1.1c-0.5,0.3-1.7,0.8-2.5-0.6c-0.3-0.6-0.5-1-0.9-1.6l-0.6-1
		c-0.6-1-0.9-1.7-1.5-2.7c-0.3-0.6-0.6-0.9-0.9-1.5l-2.6-4.3c-0.3-0.4-0.5-0.6-0.7-1c-0.3-0.5-0.7-1.8,0.7-2.7c1-0.6,1.9-1,2.9-1.6
		c1-0.6,1.6-1,2.6-1.6c0.7-0.4,1.3-0.6,2-1c0.7-0.4,1.1-0.8,1.8-1.2c1.3-0.8,2.3-1.3,3.6-2c1.2-0.7,2.3-1.5,3.5-2.2
		c1.6-1,2.9-1.6,4.5-2.6c1.2-0.7,1.9-1.3,3.1-1.9c2.3-1.4,3.2-1.5,4.3,0.3c0.6,1.1,0.9,1.9,1.5,3c0.3,0.5,0.6,1,0.9,1.5
		c0.8,1.3,1.2,2.3,2,3.6c0.3,0.6,0.7,0.9,1,1.5l0.5,0.8c0.3,0.4,0.5,0.7,0.8,1.2c0.7,1.3-0.2,1.9-0.6,2.1c-0.7,0.4-1.4,0.7-2.1,1.1
		c-1.1,0.6-2.8,2.2-4,0.2l-0.3-0.4c-0.3-0.5-0.5-0.8-0.8-1.3c-0.4-0.6-0.5-1.2-0.9-1.8c-1.3-2.2-2-1.9-3.4-1.1
		c-1.4,0.8-1.8,1.7-1.3,2.7c0.3,0.4,0.5,0.7,0.8,1.2l0,0.1c0.4,0.6,0.5,1.1,0.9,1.6c0.3,0.5,0.5,0.8,0.8,1.3c1,1.7-0.2,2.2-0.8,2.6
		c-0.6,0.4-1.1,0.6-1.7,1c-0.6,0.4-1,0.6-1.6,1c-1.6,0.9-2.3-0.2-2.7-0.7c-0.7-1.3-1.1-2.2-1.8-3.4c-1.3-2.2-2.6-1.3-3.4-0.8
		l-0.5,0.3c-0.2,0.1-1,0.6-1.2,0.8c-0.8,1.2-0.2,1.6,0.6,3.2c0.3,0.8,0.6,1.3,1,2c0.4,0.6,0.8,1,1.1,1.6c0.2,0.4,0.7,1.6-0.6,2.4
		C533.8,112.6,533.3,112.8,532.7,113.2z"/>
	<path class="st1" d="M540,136.8l-0.1-0.2c-0.3-0.7-0.5-1.2-0.8-1.9c-0.4-0.8-0.7-1.4-1.1-2.2c-0.2-0.5-0.5-0.8-0.7-1.2
		c-0.6-1.4,0.3-2,1.1-2.9c0.8-0.9,1.2-1.7,2-2.6c0.5-0.6,0.9-1,1.5-1.6c0.5-0.7,1-1.2,0.8-1.6c-0.3-0.6-1.1-0.1-1.3,0
		c-0.8,0.4-1.4,0.7-2.2,1.1c-0.6,0.3-1.1,0.5-1.7,0.8c-0.6,0.3-1,0.6-1.6,0.9c-0.9,0.4-1.4,0-1.6-0.5c-0.4-0.9-0.6-1.6-1-2.5
		c-0.5-1.1-1.1-1.8-1.6-2.8c-0.4-0.9,0-1.7,0.8-2.1c0.6-0.3,1.1-0.4,1.7-0.7c1.1-0.5,1.9-0.8,3-1.3c2.1-1.1,3.5-1.9,5.7-2.9
		c2.2-1,3.8-1.7,5.9-2.7c1.4-0.7,2.3-1.2,3.7-1.9c1.5-0.7,2.6-1.1,4.1-1.8c0.9-0.4,1.5-0.9,2.4-1.2c0.8-0.4,2.3-0.7,3.2,1.2
		c0.4,0.9,0.6,1.5,1.1,2.4c1,2.1,1.9,3.6,2.9,5.7c1.2,2.5,2.4,6,0,9.5c-0.2,0.2-0.5,0.6-0.7,0.8c-0.3,0.3-0.6,0.7-1.2,1.3
		c-0.9,0.8-3.6,2.3-4.6,2.7c-0.6,0.3-4.3,2.2-8.4,1.2c-0.5-0.1-0.8-0.2-1.2-0.4c-0.4-0.1-0.5-0.3-0.9-0.4c-0.1,0-0.3,0-0.5,0.1
		c-0.6,0.3-2.6,3.2-3.1,3.8c-0.5,0.5-0.8,0.9-1.3,1.5c-0.8,0.9-1.2,1.7-2,2.5c-0.1,0.1-0.3,0.4-0.7,0.6
		C540.5,138,540.1,136.9,540,136.8z M558.4,116.4l-0.1-0.2c-0.2-0.3-0.4-0.5-0.7-0.7c-0.6-0.3-1.2-0.1-1.3-0.1
		c-0.2,0-3.6,1.5-3.8,1.6c-1.1,0.5-1.8,1.6-1.2,2.9c0.3,0.6,0.7,0.9,1,1.1c1,0.4,2.4-0.1,4-0.9C557.5,119.6,559.2,118.1,558.4,116.4
		z"/>
	<path class="st1" d="M551.3,155.8c-0.7,0.3-1.3,0.5-2,0.8c-0.5,0.2-1.8,0.5-2.4-1.1c-0.2-0.6-0.4-1.1-0.6-1.7l-0.4-1.1
		c-0.4-1.1-0.6-1.8-1-2.9c-0.2-0.6-0.4-1-0.7-1.7l-1.8-4.7c-0.2-0.4-0.4-0.7-0.5-1.2c-0.2-0.5-0.4-1.9,1.2-2.5c1.1-0.4,2-0.6,3.2-1
		c1.1-0.4,1.7-0.7,2.8-1.1c0.7-0.3,1.4-0.4,2.1-0.6c0.7-0.3,1.2-0.6,2-0.8c1.5-0.5,2.5-0.8,3.9-1.4c1.3-0.5,2.6-1.1,3.9-1.6
		c1.8-0.7,3.1-1.1,4.9-1.7c1.3-0.5,2.1-0.9,3.4-1.4c2.5-1,3.4-0.9,4.2,1c0.4,1.1,0.6,2,1,3.2c0.2,0.5,0.5,1.1,0.7,1.6
		c0.5,1.4,0.8,2.5,1.3,3.9c0.2,0.6,0.5,1,0.7,1.6l0.3,0.9c0.2,0.5,0.4,0.8,0.6,1.3c0.5,1.4-0.5,1.8-1,2c-0.7,0.3-1.5,0.4-2.3,0.7
		c-1.2,0.4-3.1,1.7-3.9-0.5l-0.2-0.5c-0.2-0.5-0.4-0.9-0.6-1.4c-0.3-0.7-0.3-1.2-0.6-2c-0.9-2.4-1.7-2.2-3.2-1.7
		c-1.5,0.6-2.1,1.4-1.7,2.4c0.2,0.5,0.4,0.8,0.6,1.3l0,0.1c0.2,0.7,0.3,1.1,0.6,1.7c0.2,0.5,0.4,0.9,0.6,1.4
		c0.7,1.8-0.6,2.2-1.2,2.4c-0.7,0.3-1.2,0.4-1.9,0.6c-0.7,0.2-1.1,0.5-1.7,0.7c-1.7,0.6-2.3-0.6-2.5-1.2c-0.5-1.4-0.7-2.4-1.2-3.7
		c-0.9-2.4-2.3-1.7-3.2-1.4l-0.5,0.2c-0.2,0.1-1.1,0.4-1.3,0.6c-1,1.1-0.5,1.6,0,3.3c0.2,0.8,0.3,1.4,0.6,2.2
		c0.3,0.7,0.6,1.1,0.8,1.8c0.2,0.4,0.4,1.7-1,2.3C552.6,155.5,552.1,155.6,551.3,155.8z"/>
	<path class="st1" d="M579.9,179.5c-0.1-0.4-0.2-0.8-0.3-1.2l-0.3-1.3c-0.2-0.6-0.2-1.1-0.4-1.7l0-0.1c-0.3-1.1-0.9-1.2-1.5-1.1
		l-1,0.2c-0.5,0.1-0.8,0.2-1.3,0.3c-1.5,0.4-1,1.8-1,2.1c0.1,0.5,0.3,0.9,0.3,1.4c0.1,0.4,0.1,0.6,0.2,1c0.1,0.4,0.3,0.7,0.4,1.1
		c0.3,1.2-0.6,1.7-1.1,1.8c-0.5,0.1-0.8,0.1-1.3,0.2l-0.9,0.2c-2.6,0.6-3.9,1.3-4.5-1c-0.2-1-0.2-1.7-0.5-2.6
		c-0.4-1.8-1.9-1.5-2.4-1.4l-2.2,0.5c-1.1,0.3-1.8,0.5-2.9,0.8c-0.5,0.1-0.8,0.1-1.3,0.2c-0.8,0.2-1.2,0.5-2,0.7l-0.1,0
		c-0.5,0.1-1.8,0.3-2.2-1.3c-0.2-1-0.3-1.7-0.6-2.8c-0.2-0.9-0.4-1.4-0.7-2.3c-0.4-1.5,0.6-1.9,1.2-2c1.4-0.3,2.4-0.5,3.9-0.8
		c2.7-0.6,4.4-1.2,7.1-1.8c2-0.5,3.4-0.6,5.3-1.1c1.9-0.5,3.1-0.9,5-1.4c1.6-0.4,2.8-0.6,4.4-1c0.9-0.2,1.6-0.5,2.5-0.7
		c2.1-0.5,2.6,0.4,2.9,1.5l0.4,1.5c0.4,1.6,0.8,2.8,1.2,4.4c0.2,0.9,0.3,1.5,0.5,2.4c0.3,1.3,0.6,2.3,0.9,3.6
		c0.1,0.4,0.3,1.3-0.9,1.6c-0.4,0.1-0.6,0.1-1,0.2L585,180c-0.9,0.2-1.5,0.4-2.5,0.6C581.4,180.9,580.3,181.3,579.9,179.5z"/>
	<path class="st1" d="M561,205.3L561,205.3c-0.6,0.1-2,0.6-2.3-1.2c-0.1-0.9-0.2-1.5-0.3-2.3c-0.1-0.8-0.3-1.3-0.4-2.1
		c-0.1-0.8-0.2-1.3-0.3-2l-0.6-3.5c-0.2-1-0.4-1.7-0.5-2.7c-0.3-1.7,0.9-2,1.5-2.1l0.4-0.1c1.7-0.3,2.9-0.3,4.7-0.6
		c1.9-0.3,3.1-0.7,5-1c1.5-0.2,2.5-0.2,4-0.5c1.2-0.2,1.9-0.4,3-0.6c0.7-0.1,1.5-0.2,2.2-0.3c1.2-0.2,2-0.4,3.1-0.6
		c1.2-0.1,2-0.2,3.1-0.4c1.2-0.2,2.3-0.5,3.5-0.7l0.2,0c0.5-0.1,1.9-0.4,2.2,1.4c0.1,0.8,0.1,1.5,0.2,2.3c0.1,0.8,0.4,1.7,0.5,2.5
		c0.1,0.8,0.3,2-1,2.2c-0.6,0.1-1,0.1-1.6,0.1c-1.3,0.1-2.2,0.2-3.5,0.4c-1.2,0.2-2.1,0.5-3.4,0.7c-0.9,0.2-1.9,0.2-2.8,0.4
		c-0.7,0.1-1.5,0.4-2.2,0.5c-1.3,0.2-2.3,0.3-3.7,0.5c-0.8,0.1-1.4,0.3-2.3,0.5c-0.4,0.1-0.8,0.1-1.2,0.2c-2.5,0.4-2.3,2.2-2.2,3.1
		c0.1,0.8,0.2,1.3,0.3,2.1c0.1,0.4,0.2,0.6,0.2,1c0.1,0.4,0.1,1-0.3,1.5c-0.5,0.6-3.1,1-3.7,1.1C562.1,205.2,561.7,205.2,561,205.3z
		"/>
	<path class="st1" d="M561,229.6c-0.1-1.1,0-1.9-0.1-3.1c-0.1-0.9-0.2-1.6-0.3-2.5c-0.1-1.7,1.1-1.5,1.6-1.7c0.4-0.1,3-0.4,3.4-0.8
		c0.2-0.3,0.1-0.1,0.3-0.4c0-0.1-0.1-1.9-0.1-3c-0.1-1.8-0.6-1.6-1.6-1.7c-0.4,0-3.1,0.1-3.5-0.1c-0.4-0.3-0.7-0.6-0.7-1.3
		c-0.1-0.9-0.1-1.5-0.1-2.4c-0.1-0.9-0.2-1.9-0.3-2.8c-0.1-0.8,0-1.8,1.2-1.9c0.4,0,1.3,0.1,2.3,0.2c1.2,0.1,2,0.1,3.3,0.2
		c1.1,0.1,1.9,0.2,2.9,0.3c1.6,0.2,2.6,0.1,4.2,0.3c1.6,0.1,2.6,0.3,4.2,0.4c1.1,0.1,1.9,0,3,0.1c1.3,0.1,2.2,0.3,3.5,0.5
		c2,0.2,3.4,0.1,5.4,0.4c1.3,0.2,2.5,0.5,2.9,0.9c0.4,0.4,0.6,1,0.7,2c0.1,1.6,0,2.7,0.2,4.3c0.1,1.2,0.2,2.4,0.3,3.6l0,0.2
		c0.1,1.2-0.1,1.6-0.8,2.1c-0.1,0.1-0.5,0.2-0.5,0.3c0,0-4.3,1.2-4.3,1.2c-1.5,0.4-2.5,0.5-4,0.9c-1.8,0.5-3,0.8-4.8,1.3
		c-1.4,0.4-2.5,0.8-3.9,1.1c-1.9,0.4-3.3,0.5-5.1,1c-2.8,0.7-6.3,1.8-7,1.9C563,231,561.1,231,561,229.6z M581.5,218.7
		c0.7-0.2,1.7-0.3,1.8-0.4c0.3-0.1,0.5-0.4,0.5-0.5c0-0.1-0.3-0.3-0.5-0.3c-0.2-0.1-1.8-0.2-2-0.3c-0.6-0.1-1-0.2-1.6-0.3
		c-0.4,0-4.2-0.3-4.5-0.3c-1.5,0.1-1.5,0.8-1.5,1.6c0,0.6,0.1,1.8,1.8,1.6C578.1,219.7,580.8,218.8,581.5,218.7z"/>
	<path class="st1" d="M589.3,252.8c-1.4-0.2-2.3-0.3-3.7-0.4c-0.5-0.1-0.8-0.1-1.3-0.2c-0.4-0.1-0.7,0-1.1-0.1
		c-1.3-0.2-2.1-0.5-3.4-0.8c-1.2-0.3-2.1-0.3-3.4-0.5c-1-0.1-1.8-0.3-2.8-0.5c-1.3-0.2-2.2-0.3-3.4-0.5c-1.5-0.3-2.4-0.7-3.9-1
		c-2.2-0.5-4.2-0.6-4.9-1.4c-0.4-0.5-0.4-1.1-0.4-1.7l0.1-7.8c0-0.7,0.1-0.8,0.5-1.2c0.7-0.7,9-2,9.7-2.1c2.3-0.5,3.9-0.9,6.3-1.2
		c0.6-0.1,1-0.1,1.6-0.2c1.7-0.3,2.9-0.7,4.6-1c1.8-0.3,3.1-0.4,4.8-0.7c2.3-0.4,2.4-0.5,3.9-0.5c0.7,0,1.8,0.1,1.8,1.2
		c0,0.7-0.1,1.3-0.1,2c0,1.5,0,2.7,0,4.2c0,1.7-1.5,1.3-3.4,1.5c-1.8,0.1-3,0.4-4.7,0.6c-1.4,0.1-2.3,0-3.7,0.2
		c-1.5,0.1-2.5,0.4-3.9,0.5c-1,0.1-1.8,0.1-2.9,0.3c0,0-2.6,0.1-2.5,0.7c0.1,0.6,3.1,0.5,4.9,0.7c1.3,0.2,2.2,0.4,3.5,0.6
		c1.8,0.2,3.1,0.1,5,0.3c1.6,0.2,2.7,0.5,4.3,0.6c1,0.1,2.5,0.2,2.7,0.3c0.4,0.2,0.9,0.4,0.9,1.2c0,1.1-0.2,1.9-0.2,3
		c0,0.8,0,1.4,0,2.2c0,0.5,0,0.8,0,1.3c0,1.1-0.7,1.2-1.1,1.2C591.8,253.5,590.5,253,589.3,252.8z"/>
	<path class="st1" d="M565.9,276.5c-0.2,0-1.8-0.5-2.9-1.2c-1.2-0.8-2.5-2.1-3.1-3.5c-0.1-0.3-0.2-0.8-0.5-1.6
		c-0.4-1.6-0.4-2.6-0.2-4.1c0.3-2.8,1.3-6.9,4.7-8.8c1.1-0.6,3.7-1.2,4.7-1.3c0.9-0.1,4,0,4.8,0.1c1.3,0.1,2.1,0.3,3.4,0.4
		c1,0.1,1.7,0.1,2.6,0.2c6.6,0.7,10.1,1.4,12.5,5.2c1.2,2,1.5,3.4,1.2,6.8l0,0.3c-0.2,1.6-0.5,3.3-1.4,4.7c-0.5,0.8-2.3,2.8-3,3.3
		c-2.1,1.5-5.9,1.9-10.9,1.4C571.4,277.8,569.2,277.9,565.9,276.5z M577.6,269.8c0.8,0,1.4,0.2,2.2,0.3c0.7,0.1,3.4,0.2,4.1-0.1
		c0.6-0.3,1.2-0.6,1.3-1.7c0-0.1,0-0.2,0-0.3c0-0.3-0.1-0.6-0.2-0.9c-0.6-1-1.6-1.3-3.2-1.5c-1.3-0.1-2.2-0.1-3.5-0.3
		c-2.5-0.2-4.2-0.6-6.7-0.8c-1.2-0.1-4.3-0.6-4.6,1.8c-0.2,2.1,1.8,2.4,3,2.6c0.8,0.1,1.4,0.1,2.2,0.2c1.1,0.2,1.9,0.4,3.1,0.5
		C576.2,269.7,576.8,269.7,577.6,269.8z"/>
	<path class="st1" d="M582.7,307.5c-1.3-0.3-2.2-0.5-3.5-0.8c-1.3-0.3-2.2-0.3-3.6-0.6c-1.7-0.3-2.8-0.7-4.5-1
		c-2.2-0.4-3.7-0.6-5.8-1.1c-1-0.2-1.7-0.4-2.8-0.7c-0.7-0.2-5.1-0.6-6.8-5.4c-0.2-0.6-0.6-1.8-0.6-3.3c0-1.5,0.5-4.2,0.5-4.2
		c0.6-3,1.7-4.4,2.8-5.6c0.7-0.8,1.1-1.1,1.7-1.5c0.5-0.3,1.4-0.6,1.9-0.7c1.3-0.3,3.5,0,4.6,0.2c1.9,0.3,3.2,0.8,5.2,1.2
		c2.6,0.5,4.5,0.7,7.2,1.2c1.5,0.3,2.6,0.6,4.1,0.9c1.7,0.3,2.9,0.5,4.5,0.8c1.9,0.4,2.9,0.7,2.6,2.2c-0.2,1.1-0.5,1.8-0.8,2.9
		c-0.1,0.6-0.1,1-0.2,1.6c-0.2,1-0.4,2.3-2,2c-1.4-0.3-2.5-0.6-3.9-0.9c-0.9-0.2-1.4-0.2-2.3-0.4c-0.8-0.2-1.3-0.3-2.1-0.5l-1.5-0.3
		c-1.4-0.3-2.8-0.7-4.2-1c-1.1-0.2-1.9-0.3-3-0.5c-1.1-0.2-2.2-0.5-3.3-0.7l-0.2,0c-1.1-0.2-3-0.6-3.4,1.3c-0.1,0.5,0,1,0.1,1.2
		c0.5,1.3,1.5,1.5,3.5,1.9c2.3,0.5,3.9,0.9,6.2,1.3c1.9,0.3,3.4,0.5,5.3,0.9c1.7,0.3,2.9,0.7,4.6,1.1c0.6,0.1,1.2,0.2,1.8,0.3
		c1.1,0.2,3.2,0.3,2.8,2.3c-0.2,1.1-0.5,1.8-0.7,2.8c-0.2,0.9-0.2,1.5-0.4,2.5c-0.3,1.5-1.7,1.2-2,1.1
		C583.9,307.9,583.4,307.7,582.7,307.5z"/>
	<path class="st1" d="M547.2,325.5l0.1-0.2c0.2-0.8,0.5-1.2,0.7-2c0.3-0.9,0.4-1.5,0.7-2.4c0.1-0.5,0.2-0.9,0.3-1.4
		c0.4-1.4,1.6-1.2,2.8-1.4c1.2-0.1,2-0.4,3.2-0.6c0.8-0.1,1.3-0.1,2.2-0.2c0.8-0.1,1.5-0.2,1.7-0.7c0.2-0.7-0.7-0.9-0.9-0.9
		c-0.9-0.3-1.5-0.4-2.4-0.7c-0.7-0.2-1.1-0.4-1.8-0.6c-0.6-0.2-1.1-0.2-1.8-0.4c-1-0.3-1-0.9-0.9-1.4c0.3-0.9,0.6-1.6,0.9-2.6
		c0.3-1.1,0.4-2,0.7-3.2c0.3-1,1.1-1.3,2-1c0.7,0.2,1.1,0.4,1.7,0.7c1.1,0.4,1.9,0.7,3.1,1c2.3,0.6,3.9,1,6.2,1.6
		c2.3,0.7,3.9,1.3,6.2,2c1.5,0.4,2.5,0.7,4,1.1c1.6,0.5,2.7,0.9,4.2,1.4c0.9,0.3,1.7,0.3,2.6,0.7c0.9,0.3,2.2,1,1.6,3.1
		c-0.3,0.9-0.6,1.5-0.8,2.5c-0.7,2.2-1,3.9-1.7,6.2c-0.8,2.6-2.3,6-6.4,7c-0.3,0.1-0.8,0.1-1.1,0.1c-0.4,0-0.9,0.2-1.8,0.2
		c-1.2,0-4.2-0.8-5.3-1.1c-0.7-0.2-4.7-1.3-7-4.7c-0.3-0.4-0.4-0.7-0.7-1.1c-0.2-0.3-0.2-0.5-0.4-0.8c0-0.1-0.2-0.3-0.4-0.3
		c-0.6-0.2-4.1,0.6-4.9,0.7c-0.7,0.1-1.2,0.1-1.9,0.3c-1.2,0.2-2,0.5-3.2,0.6c-0.2,0-0.5,0-0.9-0.1
		C546.8,326.7,547.2,325.6,547.2,325.5z M574.5,322.7l0.1-0.2c0-0.3,0.1-0.7-0.1-0.9c-0.3-0.6-0.8-0.9-0.9-1
		c-0.2-0.1-3.7-1.3-3.9-1.3c-1.1-0.3-2.4,0-2.8,1.3c-0.2,0.6-0.1,1.1,0,1.5c0.4,1,1.8,1.5,3.6,2C571.7,324.4,574,324.5,574.5,322.7z
		"/>
	<path class="st1" d="M542,343.5c-0.4-1.2-0.5-2.6-0.4-3.6c0.1-1.5,1-4.1,1.5-5.4c0.4-1,2.1-4.9,3.7-5.3c0.5-0.1,0.6-0.1,1.2,0.1
		c1,0.4,1.6,0.7,2.5,1.1c0.7,0.3,1.3,0.4,2,0.7c0.4,0.2,2.2,0.8,1.4,2.6c-0.4,0.8-0.7,0.9-1.1,1.3c-0.1,0.1-0.2,0.1-0.4,0.2
		c-0.2,0.2-0.5,0.2-0.7,0.4c-0.6,0.4-1,1.4-1.3,1.9c-0.6,1.5-0.5,2.6,0.4,3.1c1.3,0.7,3.2-0.5,4.6-1.2c1-0.4,1.8-0.7,2.9-1.2
		c0.3-0.2,1.4-0.8,2.6-1.2c2.9-0.9,4.6-0.4,6.8,0.5c6.5,2.6,8,6.7,5.6,13c-1.1,2.9-2.3,6.1-4.3,5.3c-1-0.4-1.6-0.7-2.5-1.1l-0.2-0.1
		c-0.6-0.2-1-0.4-1.6-0.6c-0.4-0.2-1.8-0.8-1.2-2.4c0.3-0.7,1-1.5,1.1-1.6c0.3-0.4,0.6-0.8,1-1.7c0.1-0.3,0.8-1.9-0.8-2.5
		c-0.4-0.2-0.9-0.2-1.5-0.1s-3,1.3-5.3,2.4c-0.9,0.4-1.5,0.8-2.5,1.1c-3.2,1.2-4.9,1-7.3,0C544.5,347.5,542.9,346.3,542,343.5z"/>
	<path class="st1" d="M523.4,375.9c0.5-1,1.1-1.6,1.6-2.6c0.5-0.8,0.7-1.4,1.1-2.3c0.8-1.5,1.8-0.7,2.3-0.5c0.4,0.2,2.7,1.4,3.3,1.2
		c0.3-0.1,0.1,0,0.4-0.2c0.1-0.1,1-1.6,1.5-2.5c0.9-1.6,0.4-1.7-0.4-2.3c-0.3-0.2-2.6-1.6-2.8-2.1c-0.2-0.5-0.2-0.8,0.1-1.5
		c0.4-0.8,0.8-1.3,1.2-2.1c0.5-0.8,0.9-1.7,1.3-2.5c0.4-0.7,0.9-1.5,2.1-0.9c0.3,0.2,1,0.8,1.8,1.4c1,0.8,1.7,1.2,2.6,2
		c0.9,0.7,1.4,1.2,2.3,1.9c1.2,1,2.1,1.6,3.4,2.6c1.2,1,2,1.7,3.3,2.6c0.9,0.6,1.6,1.1,2.4,1.8c1,0.8,1.7,1.5,2.7,2.3
		c1.5,1.3,2.8,2,4.2,3.3c1,0.9,1.8,1.8,2,2.3c0.1,0.6,0,1.2-0.5,2.1c-0.8,1.4-1.5,2.3-2.3,3.7c-0.6,1-1.1,2.1-1.7,3.1l-0.1,0.2
		c-0.6,1.1-0.9,1.3-1.9,1.3c-0.1,0-0.5-0.1-0.6-0.1c0,0-4.2-1.4-4.3-1.4c-1.4-0.5-2.4-1-3.8-1.5c-1.8-0.6-3-1-4.8-1.6
		c-1.4-0.5-2.5-0.7-3.9-1.3c-1.8-0.7-3-1.3-4.8-2c-2.7-1-6.3-2-6.8-2.3C524.3,378.2,522.7,377.2,523.4,375.9z M546.5,378.1
		c0.7,0.3,1.6,0.7,1.8,0.7c0.3,0.1,0.6,0,0.7-0.2c0.1-0.1,0-0.4-0.2-0.6c-0.2-0.2-1.3-1.2-1.5-1.3c-0.4-0.4-0.7-0.7-1.2-1.1
		c-0.3-0.2-3.3-2.5-3.6-2.7c-1.3-0.7-1.7-0.2-2.1,0.5c-0.3,0.5-0.9,1.6,0.6,2.4C543.1,377.1,545.9,377.9,546.5,378.1z"/>
	<path class="st1" d="M509.8,396.5l0.1-0.2c0.5-0.7,0.8-1,1.3-1.7c0.5-0.8,0.9-1.3,1.3-2c0.3-0.4,0.4-0.8,0.7-1.2
		c0.8-1.2,1.9-0.7,3.1-0.5c1.2,0.2,2.1,0.2,3.2,0.4c0.8,0.2,1.3,0.3,2.1,0.4c0.8,0.1,1.5,0.3,1.8-0.1c0.4-0.6-0.4-1-0.6-1.2
		c-0.8-0.5-1.3-0.9-2.1-1.4c-0.6-0.4-0.9-0.7-1.5-1.1c-0.5-0.4-1-0.6-1.6-1c-0.9-0.6-0.7-1.2-0.4-1.6c0.6-0.8,1.1-1.3,1.7-2.2
		c0.7-1,1-1.8,1.7-2.8c0.6-0.9,1.5-0.9,2.2-0.4c0.6,0.4,0.9,0.7,1.4,1.1c0.9,0.7,1.6,1.2,2.6,1.9c2,1.3,3.4,2.1,5.4,3.4
		s3.3,2.4,5.3,3.8c1.3,0.9,2.2,1.4,3.5,2.3c1.4,0.9,2.3,1.7,3.6,2.6c0.8,0.6,1.5,0.8,2.3,1.4c0.8,0.5,1.8,1.6,0.6,3.4
		c-0.6,0.8-1,1.3-1.6,2.1c-1.4,1.9-2.2,3.4-3.5,5.4c-1.5,2.2-4,5-8.3,4.8c-0.3,0-0.8-0.1-1.1-0.2c-0.4-0.1-0.9-0.1-1.7-0.4
		c-1.1-0.4-3.8-2-4.7-2.6c-0.6-0.4-4.1-2.6-5.3-6.6c-0.2-0.4-0.2-0.8-0.3-1.2c-0.1-0.4,0-0.6-0.1-0.9c0-0.1-0.1-0.3-0.3-0.4
		c-0.5-0.4-4.1-0.6-4.9-0.8c-0.7-0.1-1.2-0.2-1.9-0.3c-1.2-0.2-2.1-0.2-3.2-0.4c-0.2-0.1-0.5-0.1-0.8-0.3
		C509,397.5,509.7,396.5,509.8,396.5z M536.7,402.1l0.1-0.2c0.1-0.3,0.3-0.6,0.2-0.9c-0.1-0.7-0.5-1.1-0.6-1.2
		c-0.1-0.1-3.1-2.4-3.3-2.5c-1-0.7-2.3-0.8-3.1,0.4c-0.4,0.5-0.4,1.1-0.4,1.4c0.1,1.1,1.3,2,2.8,3
		C533.5,403,535.6,403.7,536.7,402.1z"/>
	<path class="st1" d="M499,415.7c-0.6-0.5-1.1-0.8-1.7-1.3c-0.4-0.4-1.3-1.3-0.3-2.6c0.4-0.5,0.8-0.8,1.2-1.3l0.7-0.9
		c0.7-0.9,1.3-1.4,2-2.3c0.4-0.5,0.7-0.9,1.1-1.4l3.2-3.9c0.3-0.4,0.4-0.7,0.7-1c0.4-0.4,1.5-1.3,2.7-0.2c0.9,0.8,1.5,1.4,2.5,2.2
		c0.9,0.7,1.5,1.2,2.4,1.9c0.6,0.5,1,1,1.6,1.5c0.6,0.5,1.1,0.8,1.7,1.3c1.2,1,2,1.7,3.2,2.7c1.1,0.9,2.2,1.7,3.3,2.6
		c1.5,1.2,2.5,2.2,4,3.4c1.1,0.9,1.8,1.4,2.9,2.2c2.1,1.7,2.5,2.5,1.2,4.1c-0.8,0.9-1.5,1.5-2.3,2.5c-0.4,0.4-0.7,0.9-1.1,1.4
		c-1,1.2-1.7,1.9-2.7,3.1c-0.4,0.5-0.6,0.9-1.1,1.4l-0.6,0.7c-0.3,0.4-0.5,0.7-0.9,1.2c-0.9,1.1-1.8,0.4-2.2,0.1
		c-0.6-0.5-1.1-1.1-1.8-1.6c-1-0.8-3-1.8-1.6-3.6l0.3-0.4c0.4-0.4,0.6-0.8,0.9-1.2c0.5-0.6,0.9-0.9,1.4-1.5c1.6-2,1.1-2.6-0.2-3.6
		c-1.2-1-2.2-1.1-2.9-0.3c-0.3,0.4-0.5,0.7-0.8,1.1L516,422c-0.4,0.5-0.8,0.8-1.2,1.4c-0.4,0.4-0.6,0.8-0.9,1.2
		c-1.2,1.5-2.2,0.6-2.7,0.2c-0.6-0.5-0.9-0.8-1.5-1.3c-0.5-0.4-0.9-0.7-1.5-1.2c-1.4-1.2-0.6-2.3-0.2-2.7c0.9-1.1,1.7-1.8,2.6-2.9
		c1.6-2,0.3-2.8-0.4-3.5l-0.4-0.4c-0.2-0.1-0.9-0.7-1.1-0.8c-1.4-0.3-1.6,0.4-2.8,1.6c-0.6,0.6-1,1-1.6,1.6
		c-0.5,0.6-0.7,1.1-1.1,1.6c-0.3,0.4-1.3,1.2-2.5,0.3C500,416.7,499.6,416.3,499,415.7z"/>
	<path class="st1" d="M475.7,439.2c-0.5-0.6-1-1-1.5-1.5c-0.4-0.4-1.1-1.5,0.1-2.6c0.5-0.5,0.8-0.7,1.3-1.2l0.8-0.8
		c0.8-0.8,1.5-1.3,2.3-2c0.5-0.5,0.8-0.8,1.3-1.3l3.6-3.5c0.3-0.4,0.5-0.6,0.9-0.9c0.4-0.4,1.6-1.1,2.8,0.1c0.8,0.9,1.4,1.6,2.2,2.5
		c0.8,0.8,1.3,1.3,2.1,2.1c0.5,0.6,0.9,1.1,1.4,1.7c0.5,0.6,1,0.9,1.6,1.5c1.1,1.1,1.7,2,2.8,3.1c1,1,2,1.9,2.9,3
		c1.4,1.4,2.2,2.4,3.5,3.8c0.9,1,1.7,1.6,2.6,2.6c1.9,2,2.2,2.8,0.7,4.2c-0.9,0.8-1.7,1.3-2.5,2.2c-0.4,0.4-0.8,0.8-1.2,1.2
		c-1.1,1-2,1.7-3.1,2.7c-0.5,0.5-0.8,0.8-1.2,1.3l-0.7,0.6c-0.4,0.4-0.6,0.6-1,1c-1.1,1-1.9,0.2-2.2-0.1c-0.5-0.6-1-1.3-1.5-1.8
		c-0.9-0.9-2.8-2.2-1.1-3.8l0.4-0.4c0.4-0.4,0.7-0.7,1.1-1.1c0.5-0.5,1-0.8,1.6-1.3c1.9-1.8,1.4-2.4,0.3-3.6
		c-1.1-1.2-2.1-1.4-2.9-0.6c-0.4,0.4-0.6,0.7-1,1l-0.1,0.1c-0.5,0.5-0.9,0.7-1.4,1.2c-0.4,0.4-0.7,0.7-1.1,1.1
		c-1.4,1.3-2.2,0.3-2.7-0.2c-0.5-0.5-0.8-0.9-1.3-1.5c-0.5-0.5-0.8-0.8-1.3-1.3c-1.3-1.3-0.3-2.3,0.1-2.8c1.1-1,1.9-1.5,3-2.5
		c1.9-1.8,0.7-2.8,0-3.5l-0.4-0.4c-0.2-0.2-0.8-0.8-1-1c-1.4-0.5-1.6,0.2-3,1.3c-0.7,0.5-1.2,0.8-1.8,1.4c-0.5,0.5-0.8,1-1.3,1.5
		c-0.3,0.3-1.4,1-2.5,0C476.5,440.2,476.2,439.7,475.7,439.2z"/>
	<path class="st1" d="M454.6,451c1-0.8,1.8-1.3,2.8-2.1c0.8-0.6,1.3-1.1,2-1.7c0.9-0.7,1.2-0.5,2.6,0.4c0.9,0.5,1.5,0.8,2.4,1.2
		c0.3,0.2,0.5,0.3,0.8,0.4c0.2,0.1,1.1,0.7,1.4,0.4c0.1-0.2,0.1-0.5,0.1-0.5c-0.1-0.5-1-3.4-1.1-3.9c-0.4-1.2-0.9-2,0.3-3
		c0.7-0.6,1.3-0.9,1.9-1.4c1.2-1,2-1.7,3.2-2.7c0.6-0.4,1.2-0.1,1.5,0.3c0.5,0.6,0.5,1.7,0.7,2.5c0.2,1,0.4,1.8,0.7,2.7
		c0.3,1.2,0.4,1.9,0.7,3.1c0.4,1.5,0.8,2.6,1.2,4.2c0.4,1.6,0.8,3.5,1,3.9c0.4,0.4,3.2,1.6,5.3,2.8c0.7,0.4,1.2,0.8,2,1.2
		c1.1,0.6,1.9,0.9,3,1.4c1,0.4,1.6,0.9,2.6,1.3c0.5,0.3,0.9,0.4,1.4,0.7c0.1,0,0.4,0.3,0.6,0.5c0.7,0.8-0.1,1.6-0.3,1.6l-0.2,0.2
		c-0.8,0.6-1.4,0.9-2.1,1.5c-1,0.8-1.6,1.4-2.5,2.2c-1.3,1-1.8,0-2.8-0.6c-0.4-0.2-0.7-0.3-1.2-0.5c-0.6-0.3-1-0.5-1.6-0.8
		c-0.4-0.1-0.8-0.7-1.2-0.4c0,0-0.1,0.2,0,0.3c0.2,0.8,0.5,1.3,0.7,2c0.2,0.8,0.4,1.3,0.6,2c0.3,1.1,0.8,1.7-0.3,2.6
		c-0.6,0.4-1,0.7-1.5,1.1c-1.3,1-2.1,1.8-3.3,2.8c-0.7,0.6-1.1,0.6-1.5,0.1c-0.5-0.6-0.6-1.6-1-3.3c-0.5-1.8-1-2.9-1.5-4.7
		c-0.6-1.9-0.9-3.3-1.3-5.3c-0.1-0.6-0.1-1.1-0.3-1.7c-0.1-0.3-0.2-0.5-0.4-0.7c-0.4-0.4-1.3-0.7-2.5-1.4c-1.3-0.6-2.1-1.1-3.3-1.7
		c-0.9-0.4-1.5-0.7-2.3-1.2c-1.3-0.7-2.1-1.4-3.4-2.1c-2.1-1.1-3.3-1.2-4-2C453.9,452.4,453.7,451.8,454.6,451z"/>
	<path class="st1" d="M444,480.3c-0.6-1.2-2.1-3.4-1.5-7.8c0.3-1.8,1.1-4.1,3.8-5.9c0.4-0.3,0.8-0.5,1.2-0.8l0.1-0.1
		c0.5-0.4,1.6-1.1,0.6-2.5c-0.3-0.5-0.6-0.8-1-1.3c-0.4-0.5-0.6-0.9-1-1.5c-0.3-0.4-0.5-0.7-0.8-1.1c-0.3-0.5-0.9-1.3,0.4-2.2
		c0.9-0.6,1.6-1,2.5-1.5c0.9-0.6,1.3-1.1,2.2-1.7c0.8-0.5,1.4-0.5,2.2,0.7c0.3,0.4,0.5,0.8,0.7,1.2c0.3,0.5,0.6,0.7,0.8,1.2
		c0.4,0.7,0.6,1.2,1,1.9c0.7,1.1,1.6,2.2,2.3,3.3c1,1.5,1.6,2.6,2.6,4c0.8,1.2,1.6,2.4,2.4,3.5c1.3,2,2.2,3.5,3.5,5.5
		c1,1.4,1.7,2.4,2.7,3.8c1,1.5,0.3,2.5-0.9,3.3c-0.5,0.3-1.1,0.6-1.5,0.9c-0.7,0.5-1.4,1-2.1,1.5c-0.5,0.3-1,0.6-1.4,0.9
		c-0.7,0.4-1.3,0.9-1.9,1.3c-3.4,2.4-6.4,2.6-8.8,1.8c-1.4-0.5-2-1.2-2.4-1.4c-1.1-0.8-2.3-1.5-3.8-3.8
		C445.4,482.9,445,482.1,444,480.3z M452.6,477.6c0.3,0.5,0.5,0.8,0.8,1.3c1.1,1.7,2.6,2,3.6,1.4l0.2-0.1c0.2-0.2,0.4-0.4,0.5-0.7
		c0.3-0.7-0.1-1.7-0.8-2.8l-1.6-2.5c-1-1.5-2.4-1.8-3.2-1.2c-0.3,0.2-0.5,0.6-0.7,1c-0.3,0.7-0.2,1.4,0.4,2.4
		C452.1,476.9,452.3,477.1,452.6,477.6z"/>
	<path class="st1" d="M417.9,476.1L417.9,476.1c-0.3-0.5-1.3-1.7,0.4-2.6c0.8-0.4,1.4-0.6,2.1-1c0.7-0.4,1.2-0.7,1.9-1.1
		c0.7-0.4,1.2-0.6,1.8-0.9l3.1-1.7c0.9-0.5,1.5-0.9,2.4-1.4c1.5-0.8,2.1,0.2,2.4,0.8l0.2,0.3c0.8,1.5,1.3,2.7,2.1,4.2
		c0.9,1.6,1.6,2.7,2.5,4.4c0.7,1.3,1,2.3,1.7,3.6c0.6,1,1,1.7,1.6,2.7c0.4,0.7,0.6,1.4,1,2c0.6,1,1,1.7,1.6,2.8
		c0.5,1.1,0.8,1.8,1.4,2.8c0.6,1.1,1.2,2.1,1.8,3.1l0.1,0.2c0.2,0.4,1,1.7-0.6,2.5c-0.7,0.4-1.3,0.6-2.1,1c-0.7,0.4-1.4,0.9-2.2,1.3
		c-0.7,0.4-1.8,1-2.4-0.2c-0.3-0.5-0.4-1-0.6-1.5c-0.5-1.2-1-2-1.6-3.2c-0.6-1.1-1.2-1.8-1.7-3c-0.4-0.8-0.8-1.7-1.3-2.6
		c-0.4-0.7-0.9-1.3-1.2-2c-0.7-1.2-1-2.1-1.7-3.3c-0.4-0.7-0.8-1.2-1.2-2c-0.2-0.3-0.3-0.7-0.5-1.1c-1.2-2.2-2.8-1.5-3.6-1.1
		c-0.7,0.4-1.2,0.6-1.9,1c-0.3,0.2-0.6,0.4-0.9,0.5c-0.4,0.2-0.9,0.4-1.5,0.2c-0.8-0.2-1.9-2.6-2.2-3.1
		C418.4,477.2,418.2,476.7,417.9,476.1z"/>
	<path class="st1" d="M399.3,490.1c-0.1-0.2-0.4-1.8-0.4-3.1c0.1-1.5,0.6-3.2,1.5-4.4c0.2-0.3,0.6-0.6,1.1-1.2
		c1.2-1.2,2-1.6,3.5-2.3c2.5-1.1,6.6-2.3,9.9-0.3c1.1,0.6,2.9,2.7,3.5,3.5c0.5,0.7,1.9,3.4,2.3,4.2c0.5,1.2,0.8,2,1.3,3.1
		c0.4,0.9,0.7,1.5,1.1,2.4c2.7,6.1,3.8,9.5,1.7,13.4c-1.1,2-2.2,3-5.3,4.4l-0.3,0.1c-1.5,0.7-3.1,1.2-4.7,1.1
		c-0.9,0-3.6-0.6-4.4-0.9c-2.4-1.1-4.6-4.2-6.6-8.8C400.8,495.6,399.7,493.7,399.3,490.1z M410.9,496.9c0.4,0.7,0.5,1.3,0.9,2.1
		c0.3,0.6,1.5,3,2.1,3.5c0.5,0.4,1.2,0.8,2.1,0.3c0.1,0,0.2-0.1,0.2-0.2c0.3-0.1,0.5-0.4,0.7-0.6c0.5-1,0.3-2-0.3-3.5
		c-0.5-1.2-1-2-1.5-3.1c-1-2.3-1.6-4-2.6-6.2c-0.5-1.1-1.6-4.1-3.8-3.1c-1.9,0.9-1.2,2.8-0.7,3.9c0.3,0.7,0.6,1.2,0.9,2
		c0.4,1,0.6,1.8,1.1,2.9C410.3,495.7,410.6,496.2,410.9,496.9z"/>
	<path class="st1" d="M372.5,491.9l0.2-0.1c0.8-0.3,1.3-0.3,2-0.6c0.9-0.3,1.5-0.5,2.3-0.8c0.5-0.2,0.8-0.4,1.3-0.5
		c1.4-0.5,1.9,0.6,2.7,1.5c0.8,0.9,1.5,1.4,2.3,2.3c0.5,0.6,0.8,1.1,1.4,1.6c0.6,0.6,1.1,1.1,1.5,1c0.7-0.2,0.3-1.1,0.2-1.3
		c-0.3-0.9-0.6-1.5-0.8-2.3c-0.2-0.7-0.3-1.1-0.6-1.8c-0.2-0.6-0.4-1-0.7-1.7c-0.3-1,0.2-1.4,0.7-1.6c0.9-0.3,1.6-0.4,2.6-0.7
		c1.1-0.4,1.9-0.8,3-1.2c1-0.3,1.7,0.2,2,1.1c0.2,0.7,0.3,1.1,0.4,1.8c0.3,1.1,0.6,1.9,0.9,3.1c0.8,2.2,1.4,3.7,2.2,6
		c0.8,2.3,1.2,4,1.9,6.2c0.5,1.5,0.9,2.5,1.4,3.9c0.5,1.6,0.8,2.7,1.3,4.3c0.3,0.9,0.7,1.6,0.9,2.5c0.3,0.9,0.4,2.4-1.6,3.1
		c-0.9,0.3-1.6,0.4-2.5,0.7c-2.2,0.7-3.8,1.4-6.1,2.2c-2.6,0.9-6.2,1.6-9.5-1.2c-0.2-0.2-0.5-0.6-0.7-0.8c-0.3-0.3-0.7-0.7-1.1-1.3
		c-0.7-1-1.8-3.9-2.1-4.9c-0.2-0.7-1.7-4.6-0.2-8.4c0.1-0.4,0.3-0.8,0.5-1.2c0.1-0.3,0.3-0.5,0.5-0.8c0-0.1,0.1-0.3,0-0.5
		c-0.2-0.6-2.9-3-3.4-3.6c-0.5-0.5-0.8-0.9-1.3-1.4c-0.8-0.9-1.5-1.4-2.3-2.3c-0.1-0.2-0.3-0.4-0.5-0.8
		C371.3,492.3,372.4,491.9,372.5,491.9z M390.6,512.7l0.2-0.1c0.3-0.1,0.6-0.3,0.7-0.6c0.4-0.6,0.3-1.2,0.3-1.3
		c0-0.2-1.1-3.8-1.1-3.9c-0.4-1.1-1.4-2-2.7-1.5c-0.6,0.2-1,0.6-1.2,0.9c-0.5,0.9-0.2,2.3,0.4,4.1
		C387.5,511.4,388.7,513.3,390.6,512.7z"/>
	<path class="st1" d="M352.3,500.8c-0.2-0.8-0.4-1.3-0.5-2.1c-0.1-0.5-0.2-1.8,1.4-2.2c0.6-0.2,1.1-0.2,1.7-0.4l1.1-0.3
		c1.1-0.3,1.9-0.4,3-0.6c0.6-0.2,1.1-0.3,1.7-0.5l4.9-1.2c0.4-0.2,0.8-0.3,1.2-0.4c0.5-0.1,1.9-0.1,2.3,1.5c0.3,1.2,0.4,2.1,0.6,3.3
		c0.3,1.1,0.5,1.8,0.7,2.9c0.2,0.8,0.2,1.4,0.4,2.2c0.2,0.8,0.4,1.3,0.6,2.1c0.4,1.5,0.5,2.6,0.9,4.1c0.3,1.4,0.7,2.7,1.1,4
		c0.5,1.9,0.7,3.2,1.1,5.1c0.3,1.3,0.6,2.2,0.9,3.5c0.6,2.6,0.5,3.5-1.6,4c-1.2,0.3-2.1,0.3-3.3,0.6c-0.5,0.1-1.1,0.3-1.7,0.4
		c-1.5,0.3-2.5,0.5-4,0.8c-0.6,0.2-1.1,0.4-1.7,0.5l-0.9,0.2c-0.5,0.1-0.9,0.3-1.4,0.4c-1.4,0.3-1.7-0.7-1.8-1.2
		c-0.2-0.8-0.2-1.6-0.4-2.4c-0.3-1.2-1.3-3.3,1-3.8l0.5-0.1c0.5-0.1,0.9-0.3,1.5-0.4c0.7-0.2,1.3-0.2,2-0.3c2.5-0.6,2.4-1.4,2-2.9
		c-0.4-1.6-1.1-2.2-2.2-2c-0.5,0.1-0.8,0.3-1.3,0.4l-0.1,0c-0.7,0.2-1.2,0.2-1.8,0.3c-0.5,0.1-0.9,0.3-1.4,0.4
		c-1.9,0.4-2.1-0.9-2.2-1.5c-0.2-0.7-0.2-1.2-0.4-1.9c-0.2-0.7-0.3-1.1-0.5-1.8c-0.4-1.8,0.9-2.2,1.5-2.3c1.4-0.3,2.4-0.4,3.8-0.7
		c2.5-0.6,2-2.1,1.7-3l-0.1-0.5c-0.1-0.2-0.3-1.1-0.4-1.3c-0.9-1.1-1.5-0.7-3.2-0.4c-0.8,0.1-1.4,0.1-2.2,0.3
		c-0.7,0.2-1.2,0.4-1.9,0.6c-0.5,0.1-1.7,0.2-2.1-1.3C352.5,502.1,352.5,501.5,352.3,500.8z"/>
	<path class="st1" d="M334.1,500.7c1.1-0.7,2.5-1.2,5-1.6c0.9-0.1,1.5-0.1,2.4-0.3c1.3-0.2,2.2-0.6,3.6-0.8c1.4-0.2,2.9-0.4,3.2,1.7
		c0.2,1.7,0.2,2.9,0.4,4.6c0.4,2.7,0.9,4.6,1.3,7.3c0.2,1.1,0.2,1.8,0.3,2.8c0.2,1.9,0.6,3.2,0.9,5c0.2,1.7,0.3,2.8,0.6,4.5
		c0.2,1.3,0.5,2.3,0.7,3.7c0.3,2.1-0.3,2.8-1.7,3c-1.3,0.2-2.1,0.3-3.3,0.4c-1.3,0.2-2.1,0.3-3.3,0.6c-0.4,0.1-0.7,0.2-1.1,0.2
		c-4.4,0.6-6.7-0.4-8.9-2.3c-0.4-0.3-1.4-1.2-2.2-2.4c-2.5-3.6-3.4-10-3.4-10.4C328,512.7,328.4,504.3,334.1,500.7z M338.2,518.6
		c0.3,1.1,1.3,6,4,5.3c0.2,0,0.4-0.1,0.5-0.3c0.8-0.5,0.6-1.7,0.5-2.3c-0.3-1.8-0.6-3-0.8-4.8c-0.2-1.2-0.2-2-0.4-3.2
		c-0.1-0.9-0.4-1.6-0.5-2.5c-0.1-0.6-0.1-1.1-0.2-1.8c-0.1-1-0.4-2.7-2.1-2.4c-1.8,0.3-1.8,2.5-1.8,2.6c-0.1,0.8,0,5.4,0.2,6.2
		C337.7,516.7,337.9,517.5,338.2,518.6z"/>
	<path class="st1" d="M279.1,529.7c0.4-1.9,0.6-3.2,1-5.1c0.5-2.4,0.9-4,1.6-6.4c0.4-1.4,0.7-2.5,1.1-3.9c0.3-1.1,0.4-1.9,0.6-3
		c0.3-1.4,0.7-2.3,1-3.6c0.3-1.2,0.5-2.1,0.9-3.3c0.3-1,0.7-1.9,1.1-2.2c0.5-0.4,0.9-0.4,1.4-0.4c1.3,0,2.1,0.1,3.3,0.1
		c0.7,0,1.2-0.1,1.9-0.1c0.7,0,0.9,0.3,1.1,0.6c0,0,0.1,0.4,0.1,0.4c0,0,0.9,4.3,0.9,4.3c0.2,0.8,0.2,1.4,0.4,2.1
		c0,0.1,0.3,1.5,0.7,1.6c0.6,0.1,1-1.5,1.3-2.6c0.4-1.4,0.7-2.4,1.2-3.8c0.2-0.7,0.5-1.7,0.5-1.7c0.2-0.2,0.1-0.2,0.4-0.5
		c0.2-0.2,0.5-0.3,0.9-0.3c1,0,1.6,0.1,2.6,0.1c0.7,0,1.4,0,2,0c0.8,0,1.2,0.2,1.6,0.6c0.6,0.6,0.8,3.2,1.2,5.4
		c0.5,3,1.2,4.9,1.9,7.9c0.4,1.7,0.5,3,0.9,4.7c0.4,1.5,0.7,2.5,1,3.9c0.1,0.7,1.5,8.7,1.5,9.4c0,1.9-1.3,1.7-1.9,1.7
		c-1.1,0-2-0.2-3.1-0.2c-0.7,0-1.1,0.1-1.7,0.1c-1.9,0-1.9-2.3-2-3.3c-0.1-0.8-0.2-1.4-0.3-2.3c-0.5-3-1.2-5-1.9-7.9
		c-0.3-1.4-0.8-3.9-0.8-4c-0.1-0.1-0.1-0.2-0.2-0.2c-0.5,0-0.3,0.4-0.5,0.9c-0.1,0.3-0.4,1.4-0.4,1.6c-0.3,1.4-0.6,2.4-1,3.8
		c0.3,1.2,0.6,2.4,0.8,3.6c0.2,1.2,0.3,2.1,0.6,3.4c0.2,0.8,0.5,1.9,0.5,2.8c0,1.8-1.8,1.5-2,1.5c-1,0-1.8-0.2-2.8-0.2
		c-0.8,0-1.4,0.1-2.2,0.1c-1.9,0-1.7-1-1.8-3.2c0-0.8-0.1-1.5-0.2-2.3c-0.4-3.4-1.1-5.8-1.3-9.3c-0.1-1.2-0.1-3.1-0.6-3.2
		s-0.6,2-0.8,3.2c-0.3,1.4-0.6,2.4-0.8,3.8c-0.2,1.4-0.3,2.3-0.5,3.7c-0.2,1.1-0.4,1.8-0.6,2.9c0,0.1-0.2,2.9-0.2,3
		c0,0.1-0.1,0.6-0.4,0.9c-0.4,0.4-0.8,0.4-1.6,0.4c-0.9,0-1.6-0.2-2.5-0.2c-0.8,0-1.4,0.1-2.1,0.1c-0.8,0-2.4,0.1-2.4-1.4
		C278.2,532.9,278.7,531.4,279.1,529.7z"/>
	<path class="st1" d="M269.2,500.3c0.7,0.1,1.2,0.2,1.9,0.3c1.2,0.1,2,0,3.1,0.2c2.3,0.2,2.1,1.2,2,2.4l-0.2,1.9
		c-0.1,1.1-0.3,1.9-0.4,2.9l-0.2,1.9c-0.2,2.4-0.2,4-0.5,6.4l-0.6,5.8c-0.2,1.9-0.4,3.1-0.6,4.9l-0.3,3.2c-0.1,0.8,0,1.4-0.1,2.2
		c-0.1,1.5-1.2,1.5-2.3,1.4c-1.1-0.1-1.9-0.2-2.9-0.3c-0.9-0.1-1.5-0.1-2.5-0.1c-1-0.1-1-1.3-1-1.8c0.1-0.7,0.2-1.3,0.3-2
		c0.2-1.2,0.2-2,0.3-3.1l0.7-7.2c0.1-1.1,0.3-1.8,0.4-2.9l0.2-2.3c0.2-1.9,0.1-3.1,0.3-5c0.1-1.4,0.4-2.4,0.5-3.7
		c0.1-1.3,0-2.2,0.1-3.5C267.7,501,267.9,500.2,269.2,500.3z"/>
	<path class="st1" d="M246.4,523c0.5,0,0.8,0.1,1.3,0.1c1.4,0.1,1.8-0.5,2-2.3c0.1-1.6,0.1-2.7,0.2-4.3c0.1-1.9,0.3-3.2,0.5-5.1
		c0.1-1.7,0.1-3,0.3-4.7c0.1-1,0.2-2,0.3-2.9c0.1-0.8,0.1-1.5,0.1-2.3c0-0.5-0.1-0.9,0-1.4c0.1-1.5,1.5-1.5,1.9-1.5
		c0.6,0,0.9,0.1,1.5,0.2c0.8,0.1,1.3,0.1,2.1,0.2c0.7,0.1,1.2,0,1.8,0c1,0.1,1.6,0.5,1.5,2c-0.1,1.5-0.4,2.6-0.5,4.1
		c-0.1,1.5,0,2.5-0.2,3.9c-0.1,1.7-0.5,2.9-0.6,4.6c-0.1,1.2,0,2.1-0.1,3.3c-0.1,2.9-1.1,5.2,0,6.4c0.2,0.2,0.4,0.3,0.4,0.3
		c0.3,0.2,0.9,0.3,1.2,0.3c0.4,0,0.7,0,1,0c1.3,0.1,1.5,1,1.5,1.5c-0.1,1.2-0.2,2-0.3,3.2c-0.1,0.8,0,1.4-0.1,2.2
		c-0.1,1.2-0.6,1.6-1.8,1.5c-1.1-0.1-1.8-0.2-2.9-0.3c-1.6-0.1-3.2-0.1-4.8-0.2l-0.5,0c-1.3-0.1-2.2-0.3-3.6-0.4
		c-0.8-0.1-1.4,0-2.3-0.1c-1.8-0.1-1.7-1.5-1.6-2.7c0.1-0.9,0.2-1.5,0.2-2.4c0-0.7,0-1.1,0.1-1.7C244.9,524.1,245,522.9,246.4,523z"
		/>
	<path class="st1" d="M222,498.1c0.8,0,1.4,0.1,2.2,0.1c1.1,0,2-0.2,3.1-0.2c1.5,0,1.6,1.3,1.6,1.7c0,0.8-0.1,1.3-0.1,2
		c0,0.5,0.1,0.8,0.1,1.2c0,1.8-0.1,3.1-0.1,4.8c0,2.8,1.2,2.8,2.7,2.8c0.8,0,1.2-0.2,1.5-0.7c0.4-0.4,0.5-2.8,0.5-3.2
		c0-0.9-0.1-1.9-0.1-2.9c0-1,0-1.7,0-2.7c0-0.6-0.1-1.1-0.1-1.7c0-1.2,0.8-1.5,1.3-1.5c1,0,1.7,0.1,2.7,0.1c0.6,0,1-0.1,1.6-0.1
		c0.4,0,0.7-0.1,1-0.1c1.7,0,1.9,1.3,1.9,1.9c0,1.3-0.2,2.2-0.2,3.5l0,0.1c0,1.4,0,2.4,0,3.8c0,2.1,0.2,3.5,0.2,5.6
		c0,1.7-0.1,2.9-0.1,4.6c0,0.9,0.1,1.6,0.2,2.5c0.1,1.3,0.1,2.2,0.1,3.5c0,1.1-0.1,1.9,0,3.1c0,1.1,0.2,1.8,0.2,2.9
		c0,0.6-0.2,1.6-1.6,1.7c-0.9,0-1.6-0.1-2.6-0.1c-0.9,0-1.6,0.2-2.5,0.2c-1.6,0-1.8-0.8-1.9-1.6c0-1,0.2-1.6,0.2-2.6
		c0-1.1-0.1-1.8-0.1-2.9c0-1.2,0-2,0-3.1l0-0.1c0-1.7-0.9-1.8-2.3-1.8c-1.1,0-1.5,0.2-1.9,0.8c-0.1,0.3-0.2,2.6-0.2,2.9
		c0,1,0.2,1.8,0.2,2.9c0,0.6,0,1.2,0,1.7c0,0.8,0.2,1.5,0.2,2.3c0,1.5-1.1,1.7-1.7,1.7c-1,0-1.7-0.1-2.8-0.1c-0.8,0-1.4,0.2-2.2,0.2
		c-2,0-1.9-1.6-1.9-2.1c0-1.8,0.2-3.1,0.2-4.9c0-0.5-0.1-0.8-0.1-1.4c0-0.9,0.1-1.5,0.1-2.4c0-1.5-0.1-2.5-0.1-4c0-1.8,0-3.1,0-4.9
		c0-2.2-0.3-3.7-0.3-5.9c0-1.1,0-1.8,0-2.9c0-0.9-0.2-1.6-0.2-2.6C220.4,498.6,221.1,498.2,222,498.1z"/>
	<path class="st1" d="M194.4,501.3c0.7-0.1,1.2-0.1,1.9-0.2c1.2-0.2,1.9-0.4,3-0.6c2.3-0.3,2.3,0.7,2.5,1.8l0.3,1.9
		c0.2,1.1,0.1,1.9,0.3,2.9l0.3,1.9c0.3,2.4,0.7,4,1.1,6.3l0.8,5.8c0.3,1.9,0.3,3.1,0.6,4.9l0.5,3.2c0.1,0.8,0.3,1.3,0.5,2.1
		c0.2,1.5-0.8,1.7-1.9,1.9c-1.1,0.2-1.9,0.2-2.9,0.4c-0.9,0.1-1.5,0.3-2.4,0.5c-1,0.1-1.3-1-1.4-1.6c-0.1-0.7-0.1-1.3-0.2-2
		c-0.1-1.2-0.3-1.9-0.5-3.1l-1.1-7.2c-0.2-1.1-0.2-1.8-0.3-2.9l-0.3-2.3c-0.3-1.9-0.6-3.1-0.9-4.9c-0.2-1.4-0.2-2.4-0.4-3.7
		c-0.2-1.3-0.5-2.2-0.7-3.5C193.1,502.4,193,501.5,194.4,501.3z"/>
	<path class="st1" d="M167.2,507c0.8-0.2,1.4-0.2,2.2-0.4c1.3-0.3,2.1-0.6,3.4-0.9c1-0.2,1.4,0.9,2.2,2.1c0.6,0.9,1.3,1.5,1.9,2.4
		c0.6,0.9,1,1.6,1.6,2.5c0.5,0.7,1,1.2,1.5,1.9c0.5,0.7,0.7,1.1,1.2,1.8c0.5,0.8,1.2,2,1.4,1.9c0.1,0,0.1-0.3,0.1-0.5
		c-0.1-0.6-0.4-1-0.6-1.6c-0.4-1.1-0.6-1.9-0.9-3.1c-0.4-1.5-0.4-2.6-0.8-4.1c-0.3-1.4-0.8-2.3-1.1-3.7c-0.3-1.1,0.3-1.5,1.3-1.7
		c1.1-0.3,2-0.4,3.2-0.6c0.8-0.2,1.4-0.5,2.2-0.7c1.4-0.3,1.6,1.2,1.6,1.3c0.4,1.9,0.4,3.4,0.9,5.3c0.1,0.6,0.3,0.9,0.4,1.5
		c0.3,1.3,0.5,2.1,0.8,3.4c0.3,1.1,0.4,1.9,0.6,3c0.2,0.9,0.2,1.5,0.4,2.4c0.2,0.9,0.5,1.4,0.7,2.3l0.6,2.4c0.4,1.7,0.6,2.9,1,4.6
		c0.4,1.8,0.8,2.9,1.2,4.7c0.1,0.2,0.3,1.1-0.7,1.6l-0.2,0.1c-0.4,0.1-0.7,0.1-1.1,0.2c-0.6,0.1-1.1,0.2-1.7,0.3
		c-1,0.2-1.6,0.5-2.6,0.8c-0.5,0.1-0.8,0-1.1-0.2c-0.7-0.4-2.7-3.4-3-3.8c-0.4-0.6-0.7-0.9-1.1-1.5c-0.3-0.4-0.6-0.7-0.9-1.1
		c-0.3-0.4-0.5-0.8-0.8-1.2c-0.2-0.3-0.5-0.5-0.7-0.9c-0.4-0.5-0.7-1-1-1.5c-0.5-0.8-1.2-2.2-1.4-2.1c-0.2,0.1,0,1.1,0.2,1.7
		c0.2,0.7,0.4,1.2,0.6,1.9c0.2,0.7,0.2,1.2,0.4,1.9c0.5,2,1,3.3,1.5,5.3c0.1,0.4,0.4,1.8,0.3,2.2c-0.1,0.3-0.2,0.4-0.4,0.5
		c-0.2,0.2-0.6,0.5-1.1,0.6c-0.6,0.1-1.1,0.2-1.8,0.3l-1.7,0.4c-0.5,0.1-0.9,0.3-1.5,0.4c-0.8,0.2-1.3-0.2-1.5-1
		c-0.3-1.4-0.4-2.4-0.7-3.8c-0.5-2-0.9-3.4-1.3-5.4c-0.5-2.1-0.7-3.7-1.2-5.8c-0.5-2.1-1-3.6-1.5-5.7c-0.4-1.9-0.6-3.3-1-5.3
		c-0.2-1-0.3-1.7-0.7-2.6c-0.1-0.4-0.3-0.7-0.4-1.1C165.6,507.4,166.6,507.1,167.2,507z"/>
	<path class="st1" d="M153.2,537.5c0.4-0.2,0.8-0.2,1.2-0.4c1.3-0.4,1.5-1.1,0.9-2.9c-0.5-1.5-1-2.5-1.5-4c-0.6-1.8-0.9-3.1-1.6-4.9
		c-0.6-1.6-1-2.8-1.6-4.4c-0.3-0.9-0.6-1.9-0.9-2.8c-0.3-0.8-0.5-1.4-0.8-2.1c-0.2-0.5-0.4-0.8-0.6-1.2c-0.5-1.4,0.8-1.9,1.2-2.1
		c0.5-0.2,0.9-0.3,1.5-0.4c0.8-0.2,1.3-0.4,2-0.6c0.6-0.2,1.1-0.5,1.7-0.7c0.9-0.3,1.7-0.2,2.2,1.3c0.5,1.5,0.6,2.5,1.1,4
		c0.5,1.4,0.9,2.3,1.4,3.7c0.5,1.6,0.7,2.8,1.2,4.4c0.4,1.2,0.8,1.9,1.2,3.1c1,2.7,1,5.2,2.5,5.9c0.3,0.2,0.4,0.1,0.5,0.1
		c0.4,0.1,0.9-0.1,1.2-0.2c0.4-0.1,0.6-0.3,0.9-0.4c1.2-0.4,1.8,0.3,2,0.8c0.4,1.1,0.6,1.9,0.9,3.1c0.3,0.8,0.5,1.3,0.8,2
		c0.4,1.1,0.1,1.7-1,2c-1,0.3-1.8,0.5-2.8,0.8c-1.5,0.5-3,1.2-4.5,1.7l-0.5,0.2c-1.2,0.4-2.2,0.6-3.5,1.1c-0.8,0.3-1.3,0.5-2.1,0.8
		c-1.7,0.6-2.2-0.7-2.6-1.9c-0.3-0.9-0.5-1.5-0.7-2.3c-0.2-0.6-0.4-1-0.6-1.6C152.2,539.2,151.8,538,153.2,537.5z"/>
	<path class="st1" d="M124.5,526.9c-0.3-0.7-0.6-1.2-0.9-2c-0.2-0.5-0.6-1.8,0.9-2.4c0.6-0.3,1.1-0.4,1.7-0.7l1-0.5
		c1-0.5,1.8-0.7,2.8-1.1c0.6-0.3,1-0.5,1.6-0.8l4.6-2c0.4-0.2,0.7-0.4,1.1-0.6c0.5-0.2,1.9-0.5,2.6,1c0.5,1.1,0.7,2,1.2,3.1
		c0.5,1,0.8,1.7,1.2,2.7c0.3,0.7,0.4,1.3,0.8,2.1c0.3,0.7,0.6,1.2,1,1.9c0.6,1.4,1,2.4,1.6,3.9c0.6,1.3,1.2,2.5,1.8,3.8
		c0.8,1.7,1.2,3,2,4.8c0.5,1.2,1,2.1,1.5,3.3c1.1,2.5,1.1,3.4-0.8,4.2c-1.1,0.5-2,0.7-3.1,1.2c-0.5,0.2-1.1,0.5-1.6,0.7
		c-1.4,0.6-2.4,0.9-3.8,1.5c-0.6,0.3-1,0.5-1.6,0.8l-0.9,0.4c-0.5,0.2-0.8,0.4-1.3,0.6c-1.3,0.6-1.8-0.4-2-0.9
		c-0.3-0.7-0.5-1.5-0.8-2.2c-0.5-1.2-1.9-3,0.3-4l0.5-0.2c0.5-0.2,0.9-0.4,1.4-0.7c0.7-0.3,1.2-0.4,1.9-0.7c2.4-1,2.1-1.8,1.5-3.3
		c-0.6-1.5-1.5-2-2.5-1.6c-0.5,0.2-0.8,0.4-1.3,0.6l-0.1,0c-0.6,0.3-1.1,0.4-1.7,0.6c-0.5,0.2-0.9,0.4-1.4,0.6
		c-1.8,0.8-2.2-0.5-2.5-1.1c-0.3-0.7-0.4-1.1-0.7-1.8c-0.3-0.6-0.5-1.1-0.8-1.7c-0.7-1.7,0.5-2.3,1-2.6c1.3-0.6,2.3-0.8,3.6-1.4
		c2.4-1,1.6-2.4,1.2-3.3l-0.2-0.5c-0.1-0.2-0.5-1-0.6-1.3c-1.1-0.9-1.6-0.4-3.2,0.2c-0.8,0.3-1.4,0.4-2.1,0.7
		c-0.7,0.3-1.1,0.6-1.7,0.9c-0.4,0.2-1.7,0.5-2.3-0.9C124.9,528.2,124.8,527.7,124.5,526.9z"/>
	<path class="st1" d="M99.6,536.1c0.7-0.4,1.3-0.6,2-1c1.2-0.6,1.9-1.2,3-1.8c0.9-0.5,1.6,0.5,2.7,1.4c0.9,0.7,1.6,1.1,2.5,1.8
		c0.9,0.7,1.4,1.3,2.3,1.9c0.7,0.5,1.3,0.8,2,1.4c0.7,0.5,1,0.9,1.7,1.4c0.7,0.6,1.8,1.6,1.9,1.5c0.1,0,0-0.3,0-0.5
		c-0.3-0.5-0.6-0.8-1-1.3c-0.7-1-1.2-1.7-1.7-2.7c-0.8-1.4-1.1-2.3-1.9-3.7c-0.7-1.3-1.4-2-2.1-3.3c-0.6-1-0.1-1.5,0.8-2
		c1-0.6,1.8-0.9,2.9-1.5c0.7-0.4,1.2-0.8,1.9-1.2c1.2-0.7,1.9,0.7,1.9,0.8c1,1.7,1.4,3.1,2.4,4.8c0.3,0.5,0.5,0.8,0.8,1.3
		c0.6,1.1,1.1,1.9,1.7,3c0.6,1,0.9,1.7,1.5,2.7c0.4,0.8,0.6,1.4,1,2.2c0.4,0.8,0.9,1.2,1.3,2l1.2,2.1c0.9,1.5,1.4,2.6,2.2,4.1
		c0.9,1.6,1.6,2.6,2.5,4.2c0.1,0.2,0.6,1-0.3,1.7l-0.2,0.1c-0.3,0.2-0.6,0.2-1,0.4c-0.6,0.3-1,0.5-1.5,0.8c-0.9,0.5-1.4,0.9-2.3,1.5
		c-0.5,0.3-0.7,0.2-1.1,0.1c-0.8-0.2-3.5-2.5-4-2.8c-0.6-0.4-0.9-0.7-1.5-1.1c-0.4-0.3-0.8-0.5-1.2-0.8c-0.4-0.3-0.7-0.6-1.1-0.9
		c-0.3-0.3-0.6-0.4-0.9-0.6c-0.5-0.4-0.9-0.7-1.4-1.2c-0.7-0.6-1.8-1.7-2-1.6c-0.2,0.2,0.3,1.1,0.6,1.6c0.3,0.6,0.7,1,1.1,1.6
		c0.3,0.6,0.5,1.1,0.9,1.8c1,1.8,1.9,2.9,2.9,4.7c0.2,0.3,0.9,1.6,0.9,2.1c0,0.3-0.1,0.4-0.2,0.6c-0.1,0.2-0.4,0.6-0.9,0.9
		c-0.6,0.3-1,0.5-1.6,0.8l-1.6,0.9c-0.5,0.3-0.8,0.5-1.3,0.8c-0.7,0.4-1.3,0.2-1.7-0.5c-0.7-1.2-1-2.2-1.7-3.4c-1-1.8-1.8-3-2.8-4.8
		c-1.1-1.9-1.7-3.3-2.8-5.3c-1.1-1.9-2-3.1-3.1-5.1c-1-1.7-1.5-3-2.5-4.8c-0.5-0.9-0.8-1.5-1.4-2.3c-0.2-0.4-0.5-0.6-0.7-1
		C98.2,536.9,99.1,536.4,99.6,536.1z"/>
	<path class="st1" d="M94.7,569.3c0.4-0.3,0.7-0.4,1.1-0.7c1.1-0.8,1.1-1.5,0-3.1c-0.9-1.3-1.6-2.1-2.6-3.4
		c-1.1-1.6-1.8-2.7-2.9-4.3c-1-1.4-1.8-2.4-2.8-3.8c-0.6-0.8-1.1-1.6-1.6-2.5c-0.5-0.7-0.8-1.2-1.4-1.8c-0.3-0.4-0.6-0.6-0.9-1
		c-0.9-1.2,0.2-2.1,0.6-2.3c0.5-0.3,0.8-0.5,1.3-0.8c0.7-0.4,1.1-0.7,1.8-1.2c0.5-0.4,0.9-0.7,1.4-1.1c0.8-0.6,1.5-0.7,2.4,0.6
		c0.9,1.3,1.3,2.3,2.2,3.5c0.8,1.2,1.5,2,2.4,3.2c1,1.4,1.5,2.5,2.4,3.9c0.7,1,1.3,1.6,2,2.6c1.7,2.3,2.4,4.8,4,5
		c0.3,0.1,0.4,0,0.5,0c0.4,0,0.8-0.4,1.1-0.5c0.3-0.2,0.5-0.4,0.8-0.6c1-0.7,1.8-0.2,2.1,0.2c0.7,1,1.1,1.7,1.7,2.7
		c0.5,0.7,0.9,1.1,1.3,1.7c0.7,1,0.5,1.6-0.4,2.2c-0.9,0.6-1.6,1-2.4,1.6c-1.3,0.9-2.5,1.9-3.9,2.8l-0.4,0.3c-1.1,0.7-1.9,1.2-3,2
		c-0.7,0.5-1.1,0.9-1.8,1.4c-1.5,1-2.3-0.1-3-1.1c-0.5-0.8-0.8-1.3-1.4-2c-0.4-0.5-0.7-0.9-1-1.4C94.2,571.1,93.5,570.1,94.7,569.3z
		"/>
	<path class="st1" d="M70,557.2c0.5-0.4,1-0.7,1.6-1.1c0.9-0.7,1.5-1.3,2.3-2c1.8-1.5,2.4-0.6,3.1,0.3l1.2,1.5
		c0.7,0.8,1.1,1.6,1.7,2.4l1.2,1.5c1.5,1.9,2.6,3.1,4.1,4.9l3.6,4.5c1.2,1.5,1.9,2.5,3,4l2,2.5c0.5,0.6,1,1,1.5,1.6
		c1,1.2,0.2,1.9-0.7,2.6s-1.5,1.1-2.3,1.8c-0.7,0.6-1.2,1-1.9,1.6c-0.8,0.6-1.6-0.2-2-0.7c-0.5-0.6-0.7-1-1.2-1.7
		c-0.7-0.9-1.2-1.5-2-2.5l-4.5-5.7c-0.7-0.8-1.1-1.5-1.7-2.3l-1.4-1.8c-1.2-1.5-2.1-2.3-3.3-3.8c-0.9-1.1-1.4-2-2.2-3
		c-0.8-1-1.5-1.6-2.3-2.6C69.4,558.8,68.9,558.1,70,557.2z"/>
	<path class="st1" d="M53.8,581.3c-0.1-0.1-1-1.6-1.4-2.8c-0.4-1.4-0.5-3.2-0.1-4.7c0.1-0.3,0.4-0.8,0.7-1.5
		c0.8-1.5,1.4-2.2,2.5-3.3c2-1.9,5.4-4.4,9.3-3.5c1.3,0.2,3.6,1.6,4.4,2.2c0.7,0.5,3,2.6,3.6,3.2c0.9,0.9,1.4,1.6,2.3,2.5
		c0.7,0.7,1.2,1.2,1.8,1.9c4.6,4.8,6.7,7.7,6,12.1c-0.4,2.3-1,3.6-3.6,5.9l-0.2,0.2c-1.2,1.1-2.6,2.1-4.1,2.6
		c-0.8,0.3-3.6,0.7-4.4,0.6c-2.6-0.2-5.7-2.5-9.1-6.1C57.1,586,55.4,584.5,53.8,581.3z M67,583.9c0.6,0.5,0.9,1.1,1.5,1.7
		c0.5,0.5,2.4,2.4,3.2,2.6c0.6,0.2,1.4,0.3,2.1-0.4c0.1-0.1,0.1-0.1,0.2-0.2c0.2-0.2,0.3-0.5,0.5-0.8c0.2-1.1-0.4-2-1.5-3.2
		c-0.9-0.9-1.6-1.5-2.4-2.5c-1.7-1.8-2.8-3.2-4.5-5c-0.8-0.9-2.9-3.3-4.6-1.7c-1.5,1.4-0.3,3,0.6,3.9c0.5,0.6,1,1,1.5,1.6
		c0.7,0.9,1.2,1.5,2,2.4C66.1,583,66.5,583.3,67,583.9z"/>
	<path class="st1" d="M30.6,597c0.5-0.6,1-1,1.5-1.7c0.9-1,1.4-1.7,2.2-2.7c0.6-0.7,1.7-0.1,3,0.4c1.1,0.3,1.9,0.5,3,0.8
		c1.1,0.3,1.8,0.7,2.8,1c0.8,0.3,1.5,0.3,2.3,0.6c0.8,0.2,1.3,0.5,2.1,0.8c0.8,0.3,2.2,0.9,2.3,0.7c0.1-0.1-0.1-0.3-0.2-0.4
		c-0.5-0.4-0.9-0.6-1.4-0.9c-1-0.7-1.7-1.2-2.6-2c-1.2-1-1.8-1.8-3-2.8c-1.1-0.9-2-1.4-3.1-2.4c-0.9-0.8-0.6-1.4,0-2.1
		c0.8-0.9,1.4-1.5,2.2-2.4c0.5-0.6,0.8-1.2,1.4-1.8c0.9-1.1,2,0,2.1,0.1c1.5,1.3,2.4,2.4,3.9,3.7c0.5,0.4,0.8,0.6,1.2,1
		c1,0.9,1.7,1.4,2.7,2.2c0.9,0.7,1.5,1.2,2.3,2c0.6,0.6,1,1.1,1.7,1.7c0.7,0.6,1.2,0.9,1.9,1.4l1.9,1.6c1.3,1.1,2.2,2,3.5,3.1
		c1.4,1.2,2.4,1.9,3.8,3.1c0.2,0.2,0.9,0.8,0.3,1.7l-0.2,0.2c-0.2,0.3-0.5,0.4-0.8,0.8c-0.4,0.4-0.7,0.8-1.1,1.3
		c-0.6,0.7-1,1.4-1.7,2.2c-0.3,0.4-0.6,0.4-1,0.5c-0.8,0.1-4.1-1.1-4.7-1.3c-0.7-0.2-1.1-0.3-1.8-0.6c-0.5-0.1-0.9-0.2-1.4-0.3
		c-0.5-0.2-0.8-0.3-1.4-0.5c-0.4-0.1-0.7-0.1-1.1-0.3c-0.6-0.2-1.1-0.4-1.7-0.6c-0.9-0.4-2.3-1-2.4-0.8c-0.1,0.2,0.7,0.9,1.2,1.3
		c0.5,0.5,1,0.7,1.6,1.2c0.5,0.5,0.9,0.9,1.4,1.4c1.5,1.3,2.8,2.1,4.4,3.4c0.3,0.2,1.4,1.2,1.6,1.6c0.1,0.3,0,0.5,0,0.6
		c0,0.2-0.1,0.7-0.5,1.2c-0.4,0.5-0.8,0.8-1.2,1.3l-1.2,1.4c-0.4,0.4-0.6,0.7-0.9,1.2c-0.5,0.6-1.2,0.7-1.8,0.1
		c-1.1-0.9-1.7-1.7-2.8-2.6c-1.6-1.3-2.7-2.2-4.3-3.5c-1.7-1.4-2.8-2.5-4.4-4c-1.7-1.4-2.9-2.3-4.6-3.7c-1.5-1.3-2.4-2.3-4-3.6
		c-0.7-0.6-1.3-1.2-2.1-1.7c-0.3-0.3-0.7-0.4-1-0.7C29.6,598.3,30.2,597.5,30.6,597z"/>
</g>
</svg>
