<svg version="1.1" id="Layer_1" xmlns="http://www.w3.org/2000/svg" xmlns:xlink="http://www.w3.org/1999/xlink" x="0px" y="0px"
	 viewBox="0 0 601.6 1256.1" style="enable-background:new 0 0 601.6 1256.1;" xml:space="preserve">
<style type="text/css">
	.st0{fill:#FCFDFF;}
	.st1{fill:#582F10;}
</style>
<g>
	<path class="st0" d="M601.1,958.2c0.3-3.5,0.3-7.7-0.6-12.3c0.8-2.9,1.2-6,1.1-9.2c0-0.9-0.1-1.8-0.1-2.5c0-0.7,0.1-1.6,0-2.6
		c0-1.3-0.1-2.5-0.3-3.7c0.1-1.3,0.2-2.5,0.1-3.8c0-1.1-0.1-2.1-0.2-2.9c0-0.6,0-1.4,0-2.3c0-1.8-0.2-3.6-0.6-5.3
		c0.2-1.9,0.2-3.9,0-5.9c-0.1-1.1-0.2-2-0.3-2.6c0-0.1,0-0.1,0-0.2c-0.1-1-0.1-1.9-0.2-3l0-0.5c-0.1-1.4-0.3-2.7-0.5-3.7
		c0-0.3-0.1-0.6-0.1-0.9l0-0.1c0-0.6-0.1-1.7-0.2-3c-0.5-4.5-1.8-8.7-3.9-12.5c1.4-7.4-0.1-13.7-0.8-17.1l-0.1-0.4
		c-0.8-3.7-2.1-7.2-3.7-10.4c-0.1-2.6-0.5-5.2-1.3-7.9c-0.3-1.2-0.7-2.1-0.9-2.7c0-0.1-0.1-0.2-0.1-0.3c-0.2-0.7-0.4-1.4-0.6-2.1
		c-1.4-4.6-3.4-8.5-5.9-11.6c0.1-4.4-0.7-8.9-2.6-13.3c-0.3-0.7-0.5-1.2-0.8-1.8l-0.2-0.4c-0.2-0.6-0.5-1.5-1-2.5
		c-0.6-1.4-1.3-2.7-2-4c-0.4-1.4-0.9-2.8-1.5-4.2c-0.5-1.1-0.9-2-1.2-2.6c-0.2-0.7-0.5-1.5-0.9-2.4l-0.1-0.2
		c-0.7-1.6-1.5-3.2-2.5-4.6c-0.9-1.3-1.9-2.6-2.9-3.8c-0.9-3.8-2.3-7.5-4.3-11.2l-0.1-0.2c-1.6-3-3.8-6.4-6.9-9.6
		c-0.8-2.6-2-5.1-3.5-7.4c-0.7-1-1.3-1.9-1.6-2.4c-0.1-0.1-0.1-0.2-0.2-0.3c-0.4-0.6-0.7-1.2-1.2-1.9c-0.9-1.4-1.9-2.7-2.8-3.8
		c-0.9-1.7-1.9-3.5-3.1-5.1c-0.7-0.9-1.2-1.6-1.6-2.1c0-0.1-0.1-0.1-0.1-0.2c-0.5-0.8-1.1-1.6-1.7-2.5l-0.3-0.4
		c-0.9-1.2-1.6-2.1-2.3-2.9c-0.2-0.2-0.4-0.5-0.6-0.7l-0.1-0.1c-0.3-0.5-0.9-1.4-1.7-2.5c-1.4-1.9-2.9-3.6-4.6-5.1
		c-1-1.7-2.2-3.4-3.6-5l-0.1-0.2c-0.5-0.6-1-1.2-1.6-1.8c-0.2-0.2-0.4-0.5-0.6-0.7l-0.2-0.3c-0.6-0.8-1.4-1.9-2.6-3.3
		c-2-2.4-4.2-4.3-6.3-5.8c-1.4-2.4-3.1-4.6-5.2-6.6c-0.5-0.5-1-0.9-1.4-1.3l-0.3-0.3c-0.6-0.6-1.2-1.1-1.6-1.5
		c-0.6-0.6-1.4-1.6-2.5-2.6c-0.3-0.3-0.6-0.6-1-0.9c-0.6-0.7-1.5-1.7-2.6-2.7c-2.7-2.7-5.5-4.6-8.3-6c-2.1-2.9-4.7-5.6-7.6-8.1
		c-1.3-1.1-2.4-1.9-3.3-2.6c-0.7-0.5-1-0.8-1.3-1c-0.1,0-0.2-0.1-0.2-0.1c-0.5-0.4-1.2-1.1-2.3-2c-1.6-1.3-3.2-2.4-4.9-3.4
		c-1.7-1.7-3.6-3.4-6-5l-0.2-0.1c-2.7-1.9-9.9-6.3-18.8-7.4c-4.9-8.5-12.6-12.6-16.2-14.5l-0.4-0.2c-5-2.6-10-4.3-15-4.9
		c-3.4-3.1-7.5-5.7-12.2-7.7c-0.8-0.3-1.4-0.6-2-0.8c-0.4-0.1-0.8-0.3-1.2-0.4c-0.3-0.1-0.6-0.2-0.9-0.4c-0.3-0.1-0.6-0.3-0.9-0.4
		c-0.7-0.3-1.4-0.6-2.2-1c-3.3-1.4-6.7-2.2-10.2-2.5c-2.5-1.7-5.4-3.2-8.5-4.2c-0.8-0.3-1.5-0.5-2-0.6c-0.7-0.3-1.6-0.6-2.6-1
		c-1.9-0.6-3.9-1.1-5.9-1.3c-1.8-0.8-3.7-1.5-5.6-1.9c-0.7-0.2-1.3-0.3-1.9-0.4l-0.4-0.1c-0.8-0.2-1.6-0.4-2.2-0.5
		c-0.8-0.2-2-0.6-3.5-1c-0.4-0.1-0.9-0.2-1.3-0.3c-0.8-0.3-2.1-0.7-3.6-1.1c-2.2-0.5-4.3-0.8-6.5-1c-1.5-0.5-3.1-0.9-4.7-1.2
		c-1.2-0.2-2.2-0.3-2.8-0.4c-0.1,0-0.2,0-0.4-0.1c-0.7-0.1-1.4-0.3-2.2-0.4c-1.1-0.2-2.6-0.4-4.5-0.5c-1.7-0.5-3.5-0.9-5.4-1.1
		c-0.9-0.1-1.7-0.2-2.5-0.3c-0.3,0-0.6-0.1-0.9-0.1c-0.6-0.1-1.6-0.3-2.8-0.4c-1.2-0.1-2.2-0.2-3.3-0.3c-0.4,0-0.8-0.1-1.3-0.1
		l-1.5-0.2c-1-0.1-2-0.2-3-0.2c-2.6-0.1-5.1,0.2-7.4,0.6c-3.5-1.1-7.2-1.7-11.1-1.9c-0.2,0-0.5,0-0.8,0c-0.4,0-0.9,0-1.3,0
		c-0.4,0-0.9,0-1.3,0c-0.3,0-0.6,0-1,0c-0.4,0-0.7,0-1-0.1c-0.7-0.1-1.5-0.1-2.4-0.2c-0.2,0-0.6,0-0.8,0c-1.3,0-2.5,0-3.8,0.1
		c-0.1,0-0.2,0-0.3,0c-0.9-0.1-1.7-0.2-2.3-0.2c-0.7-0.1-1.8-0.3-3-0.5c-1-0.1-2.1-0.2-3.1-0.2c-0.3,0-0.6,0-0.8,0
		c-1.8-0.4-3.2-0.6-4-0.7c-0.5-0.1-1-0.1-1.4-0.1c-0.8-0.2-1.9-0.4-3.1-0.5c-1-0.1-2.1-0.2-3.1-0.2c-0.4,0-0.8,0-1.2,0
		c-2.6-1.2-5.5-2.2-8.5-3l-0.3-0.1c-3.5-0.8-6.4-1.2-9.4-1.3c-0.3,0-0.6,0-1,0c-2.2-1.4-4.7-2.6-7.3-3.5c-0.8-0.3-1.5-0.5-2-0.6
		c-0.7-0.3-1.6-0.6-2.6-1c-0.2-0.1-0.4-0.1-0.6-0.2c-1.2-0.7-2.5-1.3-3.8-1.8l-0.2-0.1c-2.1-0.9-7.4-2.9-13.7-3.5
		c-2.1-2.2-4.4-4.2-7.2-5.8c-0.7-0.4-1.4-0.8-1.9-1.1c-0.5-0.3-1.1-0.7-1.9-1.2c-1.5-0.9-3-1.7-4.5-2.3c-1.1-0.8-2.2-1.6-3.3-2.3
		c-0.8-0.5-1.5-0.8-2.1-1.2l-0.2-0.1c-0.4-0.3-1.1-0.7-1.9-1.2c-0.8-0.5-1.6-1-2.5-1.4c-1.5-1.5-3.1-2.9-4.9-4.3
		c-1.4-1-2.5-1.8-3.4-2.4c-0.7-0.5-1.1-0.7-1.4-1c-0.1,0-0.2-0.1-0.2-0.1c-0.5-0.4-1.3-1.1-2.4-1.9c-0.7-0.5-1.4-1-2.1-1.5
		c-0.4-0.4-0.8-0.8-1.2-1.2c-0.5-0.5-1-0.9-1.5-1.3l-0.3-0.3c-0.6-0.6-1.2-1.1-1.7-1.4c-0.6-0.6-1.5-1.5-2.6-2.5
		c-0.3-0.3-0.6-0.6-1-0.9c-0.6-0.6-1.5-1.6-2.7-2.6c-0.9-0.8-1.8-1.5-2.7-2.2c-0.2-0.2-0.4-0.5-0.7-0.7c-0.3-0.3-0.6-0.6-0.8-0.9
		c-0.5-0.6-1.2-1.5-2.2-2.6c-0.9-1-1.8-1.9-2.8-2.7c-0.7-0.9-1.4-1.9-2.2-2.7c-0.7-0.7-1.2-1.3-1.8-2c-0.3-0.3-0.6-0.6-0.9-1
		l-0.1-0.1c-0.3-0.4-0.7-0.8-1-1.2c-0.3-0.5-0.7-1-1.1-1.5c-0.4-0.6-0.8-1.1-1.2-1.5l-0.3-0.3c-0.5-0.7-1-1.3-1.4-1.7
		c-0.5-0.7-1.2-1.7-2.1-3c-0.3-0.3-0.5-0.7-0.8-1c-0.5-0.8-1.2-1.9-2.1-3.1c-2.3-3-4.8-5.4-7.3-7.2c-1-5.4-3.1-9.2-3.9-10.5
		c-0.4-0.7-0.8-1.3-1.1-1.8c-0.3-0.7-0.7-1.5-1.3-2.4c-0.3-0.6-0.7-1.1-1-1.7c-0.3-0.7-0.6-1.4-0.9-2.1c-0.5-1.1-1-2-1.3-2.5
		c0-0.1-0.1-0.2-0.1-0.3c-0.3-0.6-0.6-1.3-0.9-2c-0.7-1.5-1.5-2.9-2.4-4.3c-0.3-1.3-0.8-2.7-1.3-4l-0.1-0.2
		c-0.3-0.7-0.6-1.5-0.9-2.2c-0.1-0.3-0.2-0.6-0.4-0.9l-0.1-0.3c-0.3-0.9-0.7-2.3-1.4-4c-0.5-1.2-1-2.3-1.5-3.4
		c-0.2-0.7-0.3-1.4-0.5-2.1c-0.3-1.1-0.6-1.9-0.8-2.5c0-0.1,0-0.1-0.1-0.2c-0.2-0.9-0.5-1.9-0.8-2.9l-0.2-0.5
		c-0.4-1.4-0.8-2.6-1.1-3.5c-0.1-0.3-0.2-0.6-0.3-0.8l0-0.1c-0.1-0.6-0.4-1.6-0.8-2.9c-0.1-0.4-0.3-0.8-0.4-1.2
		c-0.1-0.5-0.1-0.9-0.2-1.4c-0.1-0.7-0.3-1.3-0.4-1.9l-0.1-0.4c-0.2-0.8-0.3-1.6-0.5-2.2c-0.1-0.8-0.3-2.1-0.6-3.6
		c-0.1-0.4-0.2-0.9-0.3-1.3c-0.1-0.9-0.3-2.2-0.6-3.7c-0.4-2-1-4-1.7-5.9c0.2-2.6,0.2-5.3-0.1-8c-0.1-0.8-0.2-1.5-0.3-2.1
		c-0.1-0.4-0.1-0.8-0.2-1.3c0-0.3-0.1-0.6-0.1-1c0-0.4-0.1-0.7-0.1-1c-0.1-0.7-0.1-1.5-0.2-2.4c-0.2-2.1-0.6-4.1-1.2-6
		c0.5-2.1,0.8-4.2,1-6.4c0-0.9,0.1-1.6,0.1-2.2c0.1-0.6,0.1-1.3,0.2-2.2c0-1,0.1-2.7-0.1-5c0.2-1.3,0.4-2.6,0.4-4
		c0-0.9,0.1-1.7,0.1-2.5l0-0.2c0.1-0.5,0.1-1.3,0.2-2.3c0.1-0.9,0.1-1.8,0.1-2.8c0.6-2,1.1-4.2,1.4-6.4c0.3-1.7,0.4-3.1,0.5-4.2
		c0.1-0.8,0.1-1.3,0.2-1.6c0-0.1,0-0.2,0-0.2c0.1-0.6,0.3-1.6,0.5-3c0.1-0.9,0.2-1.8,0.3-2.6c0.2-0.5,0.3-1.1,0.5-1.6
		c0.2-0.7,0.3-1.3,0.4-1.9l0.1-0.4c0.2-0.8,0.4-1.6,0.5-2.2c0.2-0.8,0.6-2,1-3.5c0.1-0.4,0.2-0.9,0.3-1.3c0.3-0.8,0.7-2.1,1.1-3.6
		c0.3-1.1,0.5-2.3,0.7-3.4c0.1-0.4,0.2-0.7,0.3-0.9c0.1-0.4,0.3-0.8,0.4-1.1c0.3-0.7,0.8-1.8,1.2-3.1c0.4-1.3,0.8-2.5,1.1-3.8
		c0.5-1.1,1-2.1,1.4-3.3c0.3-0.9,0.6-1.7,0.9-2.5c0.1-0.4,0.3-0.8,0.4-1.3l0-0.1c0.2-0.4,0.3-0.8,0.5-1.3c0.3-0.6,0.6-1.1,0.9-1.7
		c0.3-0.7,0.6-1.2,0.8-1.8l0.2-0.4c0.4-0.8,0.7-1.5,0.9-2.1c0.4-0.7,1-1.8,1.7-3.3c0.2-0.4,0.4-0.8,0.5-1.2c0.4-0.8,1.1-1.9,1.7-3.3
		c1.5-3.3,2.5-6.7,3-10c3.4-2.7,6.4-6,9-9.9l0.2-0.3c1.3-1.9,2.6-4.1,3.7-6.6c0.7-0.7,1.3-1.4,1.9-2.2c0.7-0.9,1.2-1.6,1.6-2.1
		c0-0.1,0.1-0.1,0.1-0.2c0.6-0.7,1.2-1.4,2-2.3l0.3-0.4c0.9-1.1,1.7-2.2,2.3-3c0.2-0.2,0.3-0.5,0.5-0.7l0.1-0.1
		c0.4-0.5,1.1-1.3,1.9-2.3c0.4-0.6,0.9-1.1,1.3-1.7c0,0,0,0,0,0c0.5-0.5,0.9-1,1.3-1.4l0.3-0.3c0.5-0.4,1.2-1.1,1.9-1.8
		c1-1.1,2-2.2,2.9-3.4c1.2-0.9,2.3-1.9,3.3-3c0.8-0.8,1.5-1.6,2-2.2c0.6-0.5,1.2-1.1,1.9-1.8l0,0c0.9-0.6,1.7-1.3,2.5-2
		c0.9-0.8,1.7-1.5,2.1-2c0.1-0.1,0.2-0.1,0.3-0.2c0.5-0.5,1.1-0.9,1.7-1.5c3-2.6,5.4-5.6,7.2-8.8c4.2-1.2,8.3-3.1,12.2-5.8
		c0.7-0.5,1.2-0.9,1.7-1.2c0.3-0.2,0.7-0.5,1-0.8c0.3-0.2,0.5-0.4,0.9-0.6c0.3-0.2,0.5-0.4,0.8-0.5c0.6-0.4,1.2-0.8,2-1.3
		c0.4-0.3,0.8-0.6,1.2-0.8c0.7-0.3,1.4-0.7,2.1-1c0.6-0.3,1.1-0.6,1.7-1l0.4-0.2c0.8-0.4,1.4-0.8,1.9-1.1c0.8-0.4,1.9-0.9,3.3-1.6
		c0.4-0.2,0.8-0.4,1.2-0.6c0.8-0.4,2-0.9,3.4-1.6c1.1-0.6,2.2-1.3,3.2-2c0.1,0,0.2-0.1,0.2-0.1c0.7-0.3,1.2-0.5,1.8-0.8l0.4-0.2
		c0.6-0.2,1.5-0.5,2.5-0.9c1.4-0.6,2.7-1.2,4-2c1.4-0.4,2.9-0.8,4.2-1.4c1.1-0.4,2-0.9,2.7-1.2c0.6-0.2,1.2-0.4,1.9-0.7
		c1.9-0.3,4.2-0.9,7.3-1.8l0.4-0.1c1.5-0.4,4.5-1.4,8.1-3c0.3-0.1,0.5-0.2,0.7-0.4c0.5-0.2,1.1-0.6,1.9-1c2.1,0,4.1-0.2,6.2-0.6
		c1.2-0.2,2.2-0.5,2.8-0.7c0.1,0,0.2,0,0.3-0.1c0.7-0.1,1.4-0.2,2.2-0.4c0.6-0.1,1.7-0.3,3-0.7c3,0,5.6-0.3,7.3-0.5l0.4-0.1
		c2.9-0.4,5.7-1,8.3-1.8c0.3,0,0.7,0,1,0.1c0.7,0,1.4,0,2.2,0c0.7,0,1.3-0.1,1.9-0.1l0.4,0c0.9,0,1.6-0.1,2.2-0.2c0.8,0,2.1,0,3.7,0
		c0.4,0,0.9,0,1.3-0.1c0.3,0,0.6,0,0.9,0c1,0,1.9,0,2.9,0c2.2-0.1,4.4-0.4,6.5-0.9c2.8,0.6,5.7,1,8.7,1.1c0.5,0,1,0,1.5,0
		c0.9,0,1.6,0,2.1-0.1c0.4,0,0.8,0,1.2-0.1c0.3,0,0.6,0,1,0c0.4,0,0.7,0,1,0c0.7,0,1.5,0,2.4,0c4.9,0,9.5-1.1,13.6-3
		c3.1,1,6.3,1.6,9.8,1.7c3.4,0.1,6.4-0.3,8.3-0.5l0.4-0.1c3.9-0.5,7.5-1.4,10.8-2.7c0.3,0,0.7,0,1,0c2.3,0.1,4.6-0.1,6.8-0.6
		c1.2-0.2,2.2-0.5,2.8-0.6c0.1,0,0.2,0,0.4-0.1c0.7-0.1,1.4-0.2,2.2-0.4c1.7-0.3,6.3-1.2,11.3-4.3c0.7,0.1,1.5,0.1,2.2,0.2
		c3.6,0.1,7.3-0.4,10.9-1.6c0.8-0.3,1.5-0.5,2.1-0.7c0.6-0.1,1.3-0.3,2.1-0.6c1.7-0.5,3.2-1.1,4.7-1.8c1.3-0.2,2.6-0.6,3.9-1
		c0.9-0.3,1.6-0.5,2.3-0.8l0.2-0.1c0.5-0.1,1.3-0.3,2.3-0.6c2.9-0.8,5.6-2.1,8.1-3.6c3-0.5,6.1-1.4,9.2-2.7l0.3-0.1
		c3.1-1.3,6.7-3,10.2-5.7c2.8-0.6,5.6-1.5,8.1-2.8c0.7-0.3,1.3-0.7,1.9-1c0.1-0.1,0.2-0.1,0.3-0.2c0.6-0.3,1.5-0.7,2.7-1.2
		c4.6-2.3,8.3-5.4,11.2-9.1c4.8-0.6,9.5-2.3,13.7-5c0.6-0.4,1.1-0.7,1.6-1.1l0.4-0.3c0.7-0.5,1.3-0.9,1.8-1.3
		c0.7-0.4,1.8-1.1,3.1-1.9c0.4-0.2,0.7-0.5,1.1-0.7c0.8-0.4,1.9-1.1,3.2-1.9c2.8-1.9,5.4-4.1,7.5-6.8c3.1-1.4,6.3-3.2,9.6-5.8
		c1.3-1.1,2.4-1.9,3.2-2.7c0.6-0.5,1-0.8,1.3-1.1c0,0,0.2-0.1,0.2-0.1c0.5-0.4,1.4-1,2.4-1.8c2-1.5,3.7-3.3,5.2-5.1
		c1.7-1.1,3.3-2.3,4.7-3.7c0.5-0.5,1-0.9,1.4-1.4l0.3-0.3c0.6-0.6,1.2-1.1,1.6-1.6c0.6-0.5,1.6-1.4,2.7-2.4c0.3-0.3,0.6-0.6,1-0.9
		c0.7-0.6,1.7-1.4,2.8-2.5c1.8-1.7,3.4-3.5,4.7-5.5c1.7-1.3,3.3-2.7,4.8-4.4c0.6-0.7,1.2-1.4,1.6-1.9c0.5-0.5,1.1-1.1,1.8-1.9
		c0.8-0.9,1.6-1.9,2.4-3c0.9-0.8,1.8-1.7,2.7-2.7c0.8-0.9,1.4-1.6,1.8-2.2c0.4-0.4,1-1,1.6-1.7c1-1.1,1.9-2.3,2.7-3.5
		c2.1-1.8,4.1-4,5.9-6.7c0.3-0.4,0.5-0.8,0.8-1.1c0.5-0.7,1.2-1.5,1.9-2.5c1-1.4,1.8-2.8,2.6-4.2c0.9-1,1.7-2,2.5-3.1
		c0.5-0.7,0.8-1.2,1.2-1.7c0.3-0.4,0.8-1,1.2-1.6c1-1.3,1.9-2.7,2.6-4c0.7-0.8,1.4-1.7,2.1-2.6c0.4-0.6,0.8-1.1,1-1.6
		c0.4-0.5,0.9-1.2,1.5-2c6.9-9.4,6.7-18.9,6-23.7c-1.3-8.5-6-15.9-13.2-21c-4-2.8-14-7.1-14.1-7.1c-0.2-0.1-0.3-0.1-0.5-0.2
		c-1.6-0.7-3-1.1-3.8-1.4c-0.1,0-0.2-0.1-0.3-0.1c-0.1,0-0.2-0.1-0.3-0.1c-0.8-0.4-2.1-1-3.7-1.6c-1.8-0.7-3.4-1.3-4.5-1.7
		c-0.5-0.2-1.3-0.4-1.4-0.5c-0.1-0.1-0.3-0.1-0.4-0.2c-0.3-0.1-0.6-0.3-0.9-0.4c-3.4-1.6-8.6-4.1-15.6-4.3c-2-0.1-4.1,0.1-6.1,0.4
		c-5.9,1-14.4,4.2-20.8,13.3c-0.4,0.6-0.8,1.1-1.2,1.7l-0.2,0.3c-0.4,0.5-0.8,1.1-1.3,1.8c-0.7,1-1.3,2-1.9,3c-0.9,1-1.7,2-2.5,3.1
		c-0.5,0.8-1,1.4-1.3,2c-0.4,0.5-1,1.3-1.7,2.3c-1,1.4-1.8,2.7-2.4,4c-1.2,1-2.3,2.1-3.4,3.3c-0.7,0.8-1.3,1.5-1.8,2.2
		c-0.5,0.5-1.1,1.1-1.7,1.8c-0.8,1-1.6,1.9-2.3,3c-0.8,0.8-1.7,1.6-2.4,2.4c-0.9,1-1.5,1.8-2,2.4c-0.4,0.4-0.9,1-1.5,1.6
		c-0.4,0.4-0.7,0.8-1.1,1.2c-0.8,0.6-1.5,1.2-2.2,1.9c-0.7,0.7-1.3,1.3-1.8,1.8l-2.7,2.5c-0.5,0.5-0.9,0.9-1.3,1.3l0,0
		c-0.5,0.4-1.3,1.1-2.2,2l-0.6,0.6c-0.5,0.4-1,0.9-1.5,1.4c-0.6,0.6-1.2,1.2-1.8,1.8c-0.4,0.3-0.8,0.6-1.2,0.9
		c-1,0.8-1.9,1.6-2.5,2.2c-0.6,0.4-1.3,0.9-2.1,1.6c-1,0.8-2,1.6-2.8,2.5c-0.9,0.6-1.9,1.2-2.8,1.9c-1,0.8-1.7,1.5-2.4,2
		c0,0,0,0,0,0c-0.5,0.4-1.3,0.9-2.2,1.6l-0.1,0.1c0,0-0.1,0.1-0.1,0.1c-1,0.5-2,1.1-2.9,1.7c-0.8,0.5-1.5,1.1-2.1,1.5l-3.1,2
		c-0.6,0.4-1,0.7-1.5,1l0,0c-0.6,0.3-1.5,0.9-2.5,1.6l-0.7,0.5c-0.6,0.3-1.1,0.7-1.8,1.1c-1.9,1.3-3.7,2.7-5.3,4.3
		c-2.4,0.6-4.8,1.4-7,2.5c-0.6,0.3-1.2,0.6-1.7,0.9c-0.2,0.1-0.4,0.2-0.6,0.3c-2.3,1.1-5.3,2.9-8.1,5.2c-3.6,0.5-7.1,1.5-10.7,3
		c-2.4,1-5.4,2.4-8.8,4.9c-2.2,0.2-4.4,0.6-6.6,1.3l-1.6,0.5c-0.8,0.3-1.5,0.5-2.1,0.7c-0.3,0.1-0.7,0.2-1.1,0.3
		c-3.6,1.1-6.9,2.8-9.7,5c-1.1-0.2-2.3-0.3-3.5-0.3c-2.5-0.1-5,0.1-7.6,0.6c-1.2,0.2-2.2,0.5-2.9,0.7c-0.6,0.1-1.2,0.2-2,0.3
		c-0.8,0.1-1.5,0.3-2.2,0.5c-3.3,0-6.1,0.3-7.1,0.4c-2.9,0.4-8.6,1.3-13.7,3.5c-0.4,0.2-0.7,0.3-1.1,0.5c0,0-0.1,0-0.1,0
		c-2.8-0.8-5.7-1.3-8.8-1.4c-0.5,0-1,0-1.5,0c-1.7,0-3.1,0.1-4,0.2c-0.2,0-0.5,0-0.7,0c-0.4,0-0.9,0-1.3,0c-3.4,0-6.5,0.3-9.5,0.9
		c-2.7-0.8-5.6-1.3-8.6-1.4c-0.7,0-1.4,0-2.1,0c-1,0-1.9,0.1-2.6,0.2l-3.7,0.1c-0.7,0-1.2,0.1-1.8,0.1l0,0c-0.7,0-1.7,0-3,0l-0.8,0
		c-0.7,0-1.3,0-2.1,0c-2.1,0.1-4.2,0.4-6.2,0.8c-0.6,0-1.3-0.1-1.9-0.1c-3.6-0.1-6.6,0.2-7.8,0.4c-3.4,0.4-8.3,1.3-12.8,3.2
		c-0.2,0-0.3,0-0.5,0c-2.6-0.1-5.2,0.2-7.8,0.7c-1.2,0.2-2.2,0.5-2.9,0.7c-0.6,0.1-1.2,0.2-2,0.3c-3.4,0.7-6.6,1.9-9.5,3.5
		c-6.7-0.2-11.3,1.2-14.4,2.1l-0.5,0.2c-3.8,1.1-7.2,2.5-10.2,4.1c-2.3,0.4-4.7,1-6.9,2c-1,0.4-1.9,0.9-2.6,1.2
		c-0.6,0.2-1.5,0.5-2.5,0.9c-1.4,0.6-2.8,1.3-4,2c-1.1,0.3-2.3,0.7-3.4,1.2c-1.2,0.5-2.1,0.9-2.7,1.2c-0.6,0.2-1.5,0.5-2.5,1
		c-2.1,0.9-4,1.9-5.8,3.1c-2.1,0.6-4.1,1.4-6,2.5c-0.9,0.5-1.6,0.9-2.3,1.3l-3.2,1.7c-0.6,0.3-1.1,0.6-1.6,0.9l0,0
		c-0.6,0.3-1.5,0.7-2.7,1.3l-0.7,0.4c-0.6,0.3-1.2,0.6-1.9,0.9c-1.9,1-3.7,2.3-5.4,3.6c-3.1,1.3-5.3,2.7-6.4,3.5
		c-1.4,0.9-2.5,1.8-3.2,2.4c-0.5,0.3-1.1,0.7-1.7,1.1c-5.4,3.7-9.4,7.6-12.5,12.5c0,0-0.1,0.1-0.1,0.1c-0.4,0.6-0.8,1.3-1.1,2
		c-4.8,0.9-10.4,3-15.9,7.8c-0.9,0.8-1.7,1.5-2.2,2c-0.4,0.3-1,0.8-1.6,1.3c-1,0.9-2,1.9-2.9,2.9c-1.9,1.2-3.6,2.7-5.2,4.3
		c-0.8,0.8-1.4,1.6-1.9,2.2c-0.5,0.5-1.1,1.1-1.9,1.9c-1.1,1.1-2,2.2-2.9,3.4c-0.9,0.8-1.8,1.6-2.6,2.4c-0.9,0.9-1.6,1.7-2,2.2
		c-0.5,0.4-1.2,1.1-2,1.9c-2.1,2.2-3.9,4.6-5.3,7.2c-1.8,1.5-3.5,3.1-5,5c-0.6,0.7-1.1,1.4-1.4,1.9c-0.5,0.6-1.2,1.3-2,2.3
		c-2.1,2.6-3.7,5.5-4.9,8.5c-3.6,2.8-6.8,6.3-9.5,10.4c-1.9,2.9-4.3,6.9-5.8,13c-0.1,0.4-0.2,0.8-0.3,1.2l0,0.1
		c-0.2,1-0.4,1.7-0.4,2.2c-0.1,0.7-0.2,1.4-0.3,2.1c-4.6,3.2-8.3,7.5-10.8,12.8c-0.4,0.9-0.8,1.7-1,2.4l-1.6,3.3
		c-0.3,0.6-0.5,1.1-0.7,1.6l0,0c-0.3,0.6-0.8,1.5-1.3,2.7l-0.4,0.8c-0.3,0.6-0.6,1.2-0.9,1.9c-1.2,2.7-2.1,5.4-2.6,8.1
		c-1.5,2.3-2.5,4.5-3.2,6.5l-2.6,7.2c-1.1,2.9-1.6,5.6-1.9,8.2c-1.5,2.5-2.6,5.3-3.4,8.3c-0.3,1-0.4,1.9-0.6,2.6l-0.9,3.5
		c-0.2,0.7-0.3,1.2-0.4,1.8l0,0c-0.2,0.6-0.5,1.6-0.8,2.9l-0.2,0.8c-0.2,0.6-0.4,1.3-0.6,2c-0.5,2-0.8,4.1-0.9,6.1
		c-0.7,1.9-1.2,3.9-1.5,6c-0.2,1.3-0.3,2.4-0.4,3.3c-0.1,0.7-0.3,1.6-0.5,2.6c-0.2,1.3-0.3,2.5-0.3,3.8c-0.3,1.1-0.5,2.2-0.7,3.3
		c-0.2,1.2-0.3,2.3-0.3,3.1c0,0,0,0,0,0.1c-0.1,0.6-0.3,1.6-0.5,2.8l0,0.1c-0.4,2.9-0.5,5.7-0.2,8.5c-0.7,2.3-1.1,4.8-1.2,7.3
		l-0.1,1.7c0,0.8-0.1,1.6,0,2.2c0,0.3-0.1,0.7-0.1,1.1c-0.3,5.7,0.8,11.2,3.3,16.1c-0.3,0.7-0.7,1.4-0.9,2.2
		c-2.8,7.3-2.2,13.7-2,15.8c0.2,1.7,0.4,3,0.6,4c0,0.6,0.1,1.3,0.2,2.1c0.4,4.3,1.3,8.2,2.7,11.7c-0.6,3.8-0.6,7.6,0.2,11.4
		c0.2,1,0.4,1.8,0.6,2.5l0.7,3.6c0.1,0.7,0.3,1.2,0.4,1.8l0,0c0.1,0.7,0.2,1.7,0.5,3l0.2,0.8c0.1,0.6,0.2,1.3,0.4,2
		c0.6,2.9,1.5,5.6,2.8,8.1c0.2,2.2,0.6,4.4,1.2,6.5c0.3,0.9,0.5,1.6,0.7,2.2c0.2,0.7,0.4,1.8,0.7,3c0.4,1.5,1,3,1.6,4.4
		c0.4,2.4,1,4.7,1.9,7c0.3,0.7,0.5,1.3,0.8,2c0.1,0.2,0.2,0.4,0.2,0.6l0.1,0.3c0.2,0.6,0.4,1.3,0.7,2c0.6,1.4,1.2,2.8,1.9,4.1
		c0.3,1.5,0.8,2.9,1.3,4.4c0.4,0.9,0.7,1.7,0.9,2.2c0.2,0.7,0.6,1.8,1,3c0.8,2.1,1.8,4,3,5.9c0.4,1.3,0.9,2.6,1.5,3.8
		c0.5,1.1,1,2,1.4,2.7c0.2,0.5,0.5,1.1,0.8,1.8c0.7,1.4,1.4,2.7,2.3,4c0.7,1.9,1.5,3.8,2.5,5.6c0.7,1.2,1.2,2,1.6,2.6l1.6,2.8
		c0.3,0.6,0.6,1.2,1,1.9c0.3,0.6,0.6,1.1,0.9,1.6c0.3,0.6,0.7,1.4,1.2,2.3c0.9,1.7,2,3.2,3.2,4.7c1.1,2.2,2.1,3.8,2.8,4.7l1.4,2.1
		c0.8,1.3,1.8,2.5,2.8,3.6c0.9,1.9,2,3.7,3.3,5.4c0.6,0.8,1.2,1.5,1.7,2.1l2.2,2.9c0.4,0.5,0.8,1,1.1,1.4l0,0c0.4,0.6,1,1.4,1.7,2.4
		l0.5,0.7c0.4,0.5,0.8,1.1,1.2,1.7c1.7,2.3,3.7,4.3,5.9,6.1c1.3,2.4,2.9,4.3,4.3,5.9l5.2,5.7c2.1,2.3,4.2,4.1,6.4,5.6
		c1.6,2.5,3.4,4.8,5.6,6.8c0.7,0.7,1.4,1.2,2,1.7l2.7,2.5c0.5,0.4,0.9,0.8,1.4,1.2l0,0c0.5,0.5,1.2,1.2,2.1,2.1l0.6,0.6
		c0.5,0.5,0.9,0.9,1.5,1.4c1.5,1.4,3.1,2.6,4.8,3.6c1.4,1.5,2.9,3,4.6,4.2c1.1,0.8,2,1.4,2.7,1.9c0.5,0.5,1.2,1,2.1,1.6
		c1,0.8,2.1,1.5,3.2,2.1c0.8,0.8,1.7,1.5,2.6,2.2c1,0.7,1.9,1.3,2.6,1.7c0,0,0,0,0,0c0.5,0.4,1.2,1,2.2,1.7c0,0,0.1,0.1,0.1,0.1
		c2.3,1.7,4.7,3.1,7.3,4.1c1.8,1.7,3.7,3.3,5.9,4.6l1.4,0.8c0.7,0.4,1.4,0.8,1.9,1.1c0.3,0.2,0.6,0.4,1,0.6c3.4,2,8.8,4.5,15.6,4.7
		c1.3,0,2.5,0,3.8-0.1c2.5,3.6,5.7,6.9,9.9,9.9c0.8,0.6,1.5,1.1,2.4,1.6c2.5,1.5,7.2,3.6,7.2,3.6c2.2,0.9,4.5,1.6,6.7,2.1
		c1.3,0.6,2.7,1.2,4.1,1.7c1.3,0.4,2.3,0.7,2.9,0.9l0.1,0l3,1c0.6,0.2,1.3,0.5,2,0.7c0.6,0.2,1.2,0.4,1.8,0.6
		c0.6,0.2,1.4,0.6,2.5,0.9c2.7,0.9,5.4,1.4,8.2,1.6c3.3,1.7,6.9,3.1,10.7,4c2.1,0.5,5,1.1,8.6,1.2c1.8,0.1,3.6,0,5.6-0.2
		c0.4,0,0.8-0.1,1.2-0.2c0.1,0,0.2,0,0.3,0c3.6,2,8.4,3.9,14.5,4.7c1.5,0.2,3.8,0.5,6.2,0.5c1.6,0,3.1,0,4.5-0.1
		c1.1-0.1,2.3-0.2,3.4-0.4c4,1.2,7.4,1.4,8.8,1.5c0.3,0,0.6,0,0.9,0c0,0,0,0,0,0c1.2,0,2.3,0,3.1,0c0.6,0.1,1.3,0.1,2.1,0.2
		c0.5,0,0.9,0,1.3,0.1c2.8,0.1,5.4-0.1,8-0.5c2,0.7,4.2,1.1,6.4,1.4c1,0.1,1.9,0.2,2.5,0.2c0.6,0.1,1.5,0.3,2.7,0.4
		c1,0.1,1.9,0.2,2.9,0.2c1.1,0,2.2,0,3.3-0.1c1.9,0.7,3.9,1.2,5.9,1.6c1.2,0.2,2.2,0.3,3,0.4c0.6,0.1,1.2,0.3,2,0.4
		c0.8,0.1,1.6,0.3,2.4,0.3c0.8,0.3,1.6,0.5,2.5,0.7c1,0.2,1.9,0.4,2.6,0.5l3.6,0.9c0.6,0.2,1.2,0.3,1.8,0.4l0,0
		c0.6,0.2,1.6,0.5,2.9,0.8l0.8,0.2c0.6,0.2,1.3,0.4,2,0.5c0.7,0.2,1.5,0.3,2.2,0.5c0.7,0.3,1.5,0.6,2.2,0.8c1.3,0.4,2.3,0.7,2.9,0.9
		l2.9,1l0.1,0c0.6,0.2,1.3,0.5,2,0.7c0.6,0.2,1.2,0.4,1.8,0.5c0.6,0.2,1.4,0.6,2.5,0.9c0.8,0.3,1.6,0.5,2.5,0.7
		c0.7,0.4,1.5,0.7,2.2,1c1.5,0.6,2.8,1.1,3.8,1.4c0.5,0.2,1.1,0.5,1.9,0.9c2.8,1.2,5.5,2.1,8.2,2.7c2.5,2.2,5.4,4.1,8.7,5.9
		c3.2,1.7,8.1,4,13.2,5c0.4,0.1,0.8,0.2,1.2,0.2c1,0.2,2,0.3,3,0.4c1.3,2,2.8,3.9,4.6,5.9c0.6,0.7,1.3,1.4,2,2c2.2,2,6.3,5,6.4,5
		c1.2,0.9,2.5,1.6,3.7,2.2c1,0.8,1.9,1.5,2.5,1.9c0.5,0.5,1.2,1.1,2,1.7c1,0.8,2,1.6,3.1,2.2c0.8,0.8,1.6,1.6,2.5,2.3
		c1,0.8,1.8,1.4,2.5,1.9c0,0,0,0,0,0c0.5,0.4,1.2,1.1,2.1,1.9l0.1,0.1c0,0,0,0,0,0c0.7,0.9,1.4,1.7,2.2,2.5c0.7,0.7,1.4,1.3,1.9,1.8
		l2.6,2.6c0.5,0.5,0.9,0.9,1.3,1.2l0,0c0.5,0.5,1.2,1.2,2.1,2.2l0.6,0.6c0.5,0.5,0.9,1,1.4,1.5c0.6,0.6,1.3,1.2,1.9,1.7
		c0.1,0.1,0.1,0.1,0.2,0.2c0.5,0.5,0.9,1.1,1.4,1.6c0.1,0.2,0.3,0.3,0.4,0.4l0.2,0.2c0.4,0.5,0.8,1,1.4,1.7c1,1.2,2.1,2.2,3.2,3.2
		c0.8,1.2,1.7,2.5,2.7,3.6c0.6,0.7,1.2,1.4,1.6,1.8c0.5,0.6,1.1,1.5,2,2.5c0.4,0.4,0.8,0.9,1.2,1.3c0.5,0.9,1.1,1.7,1.7,2.5
		c0.5,0.7,1,1.4,1.4,1.8c0.4,0.7,1,1.5,1.7,2.6c0.9,1.2,1.8,2.3,2.8,3.3c0.7,1.5,1.5,2.9,2.4,4.4c0.7,1,1.3,1.8,1.7,2.5
		c0.3,0.5,0.6,1.1,1.1,1.7c0.9,1.4,1.9,2.7,3,3.9c0.9,2.9,2.1,5.8,3.7,8.7c1.1,2.1,2.7,4.6,5.1,7.4c0.3,1.1,0.7,2.1,1.2,3.2
		c0.4,1,0.9,1.9,1.2,2.6c0.2,0.6,0.6,1.5,1,2.4c0.6,1.4,1.3,2.8,2.1,4.1c0.3,1.2,0.7,2.3,1.2,3.3c0.5,1.2,1,2.1,1.3,2.7
		c0.2,0.6,0.5,1.5,1,2.6c0.9,2.2,2.1,4.3,3.4,6.2c0.1,2.9,0.5,5.9,1.4,8.8c0.3,1.2,0.7,2.2,0.9,2.9c0.1,0.6,0.3,1.2,0.5,2
		c0.2,0.7,0.4,1.4,0.7,2.1c0.2,2.3,0.5,4.7,1.1,7.2c0.8,3.5,2.3,8.7,4.8,13.3c0.2,0.3,0.4,0.7,0.6,1c0.2,0.4,0.5,0.8,0.8,1.2
		c-0.9,3.6-1.3,7.4-0.9,11.4c0.1,0.9,0.2,1.7,0.3,2.3c0,0.8,0.1,1.8,0.2,3.1c0.1,1.4,0.4,2.7,0.6,4c-0.1,1.3-0.2,2.6-0.2,4
		c0,1,0.1,2,0.2,2.8c0,0.7,0,1.5,0,2.5c0,1.3,0.1,2.5,0.3,3.8c-0.1,1.1-0.1,2.3-0.1,3.4c0,1.3,0.1,2.4,0.2,3.1c0,0.6,0,1.3,0,2.2
		c0,1.4,0.1,2.8,0.3,4.1c-0.8,2.8-1.3,5.8-1.6,8.9c-0.2,2.8-0.3,6.5,0.6,11.2c-1.3,2.8-2.5,6.2-3.2,10.2c-0.7,3.9-1,7.4-0.9,10.6
		c0,1,0.1,1.9,0.2,2.9c-2.9,4.7-4.1,8.6-5.2,12.3l-0.2,0.5c-0.7,2.3-1.1,4.6-1.5,6.8c-0.4,0.8-0.7,1.6-1,2.4c-0.4,1-0.7,1.9-0.9,2.7
		c-0.3,0.6-0.6,1.4-1,2.3c-0.5,1.2-0.8,2.4-1.2,3.6c-0.5,1-1,2.1-1.4,3.1c-0.5,1.2-0.8,2.2-1,3c-0.2,0.5-0.5,1.2-0.8,2
		c-0.4,1.1-0.8,2.2-1.1,3.3c-0.8,1.2-1.5,2.5-2.2,3.8c-0.4,0.8-0.7,1.5-1,2.1c-0.4,0.7-0.9,1.6-1.5,2.7c-0.6,1.3-1.2,2.7-1.6,4
		c-0.8,1.1-1.5,2.2-2.2,3.3c-0.5,0.9-0.9,1.7-1.2,2.2c-0.3,0.5-0.8,1.3-1.4,2.3c-1.4,2.4-2.5,5-3.2,7.5c-2.4,2-4.9,4.6-7.2,7.9
		c-2.2,3.1-3.9,6-5.1,8.8c-1.1,1-2.2,2.1-3.1,3.3c-0.8,1-1.5,1.9-1.8,2.4l0,0l-2,2.4c-0.4,0.5-0.9,1-1.4,1.6c-0.4,0.5-0.8,1-1.2,1.5
		c-0.4,0.5-1,1.1-1.8,2c-0.4,0.5-0.8,1-1.2,1.5c-0.5,0.5-1.1,1-1.6,1.5c-0.9,1-1.6,1.8-2,2.2l0,0l-2.1,2.2l-0.1,0.1
		c-0.5,0.5-0.9,0.9-1.5,1.5c-0.5,0.5-0.9,0.9-1.3,1.4c-0.5,0.4-1.1,1.1-1.9,1.9c-0.4,0.4-0.7,0.8-1.1,1.2c-0.9,0.7-1.8,1.4-2.6,2.1
		l-1.2,1.1c-0.6,0.6-1.2,1.1-1.6,1.5c-0.3,0.2-0.6,0.5-0.9,0.8c-3.6,3.3-6.3,7.2-8.1,11.5c-2.6,0.6-5.2,1.4-7.8,2.5
		c-0.9,0.4-1.7,0.7-2.5,1.2c-2.6,1.4-6.8,4.3-6.9,4.3c-1.2,0.8-2.3,1.8-3.3,2.7c-1.1,0.7-2,1.3-2.7,1.7c-0.6,0.3-1.4,0.8-2.3,1.3
		c-1.1,0.6-2.1,1.4-3.1,2.1c-1,0.5-2,1-3,1.6c-1.1,0.6-1.9,1.2-2.6,1.7c0,0,0,0,0,0c-0.6,0.3-1.4,0.7-2.4,1.4l-0.1,0c0,0,0,0-0.1,0
		c-0.5,0.2-0.9,0.4-1.4,0.6c-0.6,0.3-1.3,0.6-1.9,1c-0.2,0.1-0.4,0.2-0.5,0.3l-0.3,0.1c-0.6,0.3-1.2,0.5-1.9,0.9
		c-1.4,0.7-2.7,1.4-3.9,2.2c-1.4,0.5-2.8,1-4.2,1.7c-0.9,0.4-1.6,0.8-2.2,1.1c-0.7,0.3-1.7,0.7-2.9,1.3c-0.2,0.1-0.5,0.2-0.7,0.4
		c-0.8,0.2-1.5,0.5-2.3,0.8c-1,0.4-1.8,0.7-2.3,1c-0.6,0.2-1.5,0.5-2.5,0.9c-2.5,1-4.8,2.2-7,3.7c-2.4,0.2-4.8,0.6-7.1,1.3
		c-0.9,0.3-1.6,0.5-2.2,0.7c-0.7,0.2-1.8,0.4-3,0.8c-1.4,0.4-2.7,0.9-3.9,1.5c-1.4,0.1-2.7,0.3-4,0.6c-1,0.2-1.8,0.4-2.5,0.6
		l-3.6,0.8c-0.6,0.1-1.2,0.3-1.8,0.4l0,0c-0.7,0.1-1.7,0.3-2.9,0.5l-0.8,0.2c-0.6,0.1-1.3,0.2-2,0.4c-0.9,0.2-1.8,0.4-2.7,0.7
		c-1,0.1-1.9,0.2-2.7,0.3c-1.6,0.2-3,0.5-4,0.7c-0.6,0-1.3,0.1-2.1,0.2c-6.5,0.8-11.8,2.6-16.7,5.5c0,0-0.1,0.1-0.1,0.1
		c-17.6,10.7-21.8,31.1-20.1,45.3c0.8,6.3,2.7,15.3,7.8,23.1c0.1,0.1,0.1,0.2,0.2,0.2c2.5,3.8,5.3,6.6,7.1,8.2
		c7.3,6.6,16,10,25.6,10.3c2.3,0.1,4.6-0.1,7-0.3c0.8-0.1,1.5-0.2,2.1-0.3c0.4-0.1,0.8-0.1,1.3-0.2c0.3-0.1,0.6-0.1,1-0.1
		c0.4,0,0.6-0.1,1-0.1c0.7-0.1,1.5-0.2,2.4-0.3c2.2-0.3,4.3-0.8,6.3-1.4c2.1,0,4.2-0.3,6.3-0.7c0.7-0.1,1.3-0.3,1.9-0.5l0.4-0.1
		c0.8-0.2,1.6-0.4,2.2-0.5c0.8-0.1,2.1-0.3,3.6-0.7c0.4-0.1,0.9-0.2,1.3-0.3c0.9-0.1,2.2-0.3,3.7-0.6c2.1-0.4,4.1-1.1,6-1.9
		c1.9-0.2,3.7-0.6,5.6-1.1c1.1-0.3,1.9-0.6,2.5-0.8c0.1,0,0.1,0,0.2-0.1c0.9-0.2,1.8-0.5,2.9-0.8l0.5-0.1c1.4-0.4,2.6-0.8,3.5-1.2
		c0.3-0.1,0.6-0.2,0.9-0.3l0.1,0c0.6-0.1,1.6-0.4,2.9-0.8c1.6-0.5,3.1-1,4.5-1.7c1.6-0.3,3.2-0.8,4.7-1.4c0.9-0.3,1.6-0.6,2.3-0.9
		c0.3-0.1,0.5-0.2,0.8-0.3c0.6-0.2,1.6-0.5,2.7-0.9c1.1-0.4,2.1-0.8,3-1.2c0.4-0.2,0.8-0.3,1.2-0.5l1.5-0.6c2.7-1,5.2-2.4,7.4-4
		c2.7-0.5,5.5-1.4,8.1-2.7l0.2-0.1c0.7-0.3,1.4-0.7,2.1-1.1c0.3-0.1,0.6-0.3,0.8-0.4l0.3-0.1c0.9-0.4,2.2-0.9,3.9-1.7
		c4.1-2,7.3-4.4,9.8-6.9c4.3-1,8.5-2.7,12.6-5.1c1.5-0.9,2.6-1.6,3.5-2.2c0.7-0.4,1.1-0.7,1.4-0.9c0.1,0,0.2-0.1,0.2-0.1
		c0.6-0.3,1.5-0.8,2.6-1.5c1.7-1,3.3-2.2,4.8-3.5c2.3-1,4.5-2.3,6.7-3.9l0.2-0.1c2.5-1.8,8.6-6.7,12.6-14c4.6-1,10.1-3.2,15.3-8
		c0.6-0.6,1.2-1.1,1.6-1.5c0.5-0.4,1-0.8,1.6-1.4c1.3-1.2,2.5-2.4,3.5-3.7c1.1-0.8,2.1-1.6,3.1-2.6c0.7-0.6,1.2-1.2,1.8-1.7l0.1-0.1
		c0.4-0.3,1.1-0.9,1.8-1.5c1.9-1.6,3.5-3.4,4.9-5.4c1.2-0.9,2.4-2,3.5-3.2c0.6-0.6,1-1.1,1.4-1.6c0.5-0.5,1.2-1.1,2-1.9
		c2.3-2.4,4.2-5.2,5.7-8.1c2.3-1.6,4.5-3.6,6.7-6.2c0.5-0.6,1-1.2,1.3-1.7c0.5-0.5,1.1-1.2,1.8-2.1c1.4-1.7,2.6-3.4,3.6-5.3
		c1.4-1.4,2.7-2.9,3.8-4.6c0.5-0.8,1-1.4,1.3-2c0.5-0.6,1.1-1.4,1.8-2.4c0.8-1.1,1.5-2.3,2.1-3.5c0.8-1,1.7-2,2.4-3.1
		c0.3-0.4,0.6-0.8,0.8-1.2c0.5-0.7,1.2-1.5,1.9-2.5c1.1-1.6,2-3.2,2.8-4.9c1.1-1.4,2.2-2.8,3.1-4.4c0.5-0.8,0.9-1.5,1.2-2.2
		c0.1-0.2,0.3-0.5,0.4-0.8c0.3-0.5,0.9-1.4,1.5-2.4c0.6-1,1.1-2,1.6-2.9c0.2-0.4,0.4-0.7,0.6-1.2l0.8-1.4c0.9-1.5,1.6-3.1,2.2-4.6
		c1.2-1.7,2.3-3.4,3.3-5.4c0.5-1,0.8-1.8,1.1-2.4c0-0.1,0.1-0.1,0.1-0.2c0.5-0.8,0.9-1.7,1.4-2.7l0.2-0.5c0.6-1.3,1.1-2.5,1.5-3.4
		c0.1-0.3,0.2-0.6,0.4-0.8l0-0.1c0.3-0.6,0.8-1.5,1.4-2.7c0.9-1.8,1.5-3.5,2-5.3c1-1.6,1.9-3.4,2.6-5.2c0.3-0.9,0.6-1.7,0.8-2.3
		c0.3-0.6,0.6-1.5,1-2.4c0.5-1.2,0.8-2.4,1.1-3.6c0.6-1.1,1.1-2.3,1.6-3.5c0.4-1.1,0.7-2,0.9-2.7c0.2-0.6,0.5-1.3,0.9-2.1
		c0.6-1.7,1.1-3.3,1.5-5c1.7-2.9,2.9-6.2,4.3-11l0.1-0.4c0.4-1.5,1.2-4.6,1.7-8.4c0-0.3,0.1-0.6,0.1-0.8c0.1-1.2,0.3-3.4,0.3-6
		c1.9-3.2,3.3-6.8,3.9-10.7c0.2-0.9,0.3-1.7,0.3-2.3c0.2-0.7,0.4-1.8,0.6-3c0.2-1.3,0.4-2.7,0.5-4c0.4-1.2,0.6-2.5,0.9-3.9
		c0.1-0.5,0.2-1,0.2-1.4c0.2-0.8,0.5-1.9,0.7-3.1c0.6-3.6,0.6-7.3,0-10.8c1.5-3.8,2.5-8,2.8-12.4L601.1,958.2z"/>
	<path class="st1" d="M532.9,68.2c-1.3-1.4-2.3-2.3-3.6-3.7c-1.7-1.7-2.8-3.1-4.3-4.9c-0.9-1.2-1.6-2-2.6-3.1
		c-0.8-0.9-1.4-1.4-2.2-2.2c-0.9-1.1-1.5-1.9-2.4-2.9c-0.8-0.9-1.5-1.6-2.2-2.6c-0.6-0.8-1.2-1.6-1.2-2.1c0-0.6,0.2-0.9,0.5-1.3
		c0.7-1,1.3-1.7,2-2.7c0.4-0.6,0.6-1.1,1-1.6c0.4-0.5,0.7-0.6,1.1-0.6c0.1,0,0.4,0.1,0.4,0.1c0.1,0,4,1.7,4.1,1.7
		c0.8,0.3,1.2,0.6,2,0.9c0.1,0,1.4,0.6,1.7,0.3c0.4-0.4-0.7-1.7-1.4-2.5c-0.9-1.2-1.6-2-2.5-3.1c-0.4-0.5-1.1-1.4-1.1-1.4
		c-0.1-0.3-0.1-0.2-0.2-0.6c0-0.3,0.1-0.6,0.3-0.9c0.6-0.8,1-1.3,1.5-2.1c0.4-0.5,0.7-1.1,1.1-1.7c0.5-0.7,0.8-0.9,1.4-1
		c0.8-0.1,3.1,1.1,5.2,2c2.7,1.3,4.8,1.8,7.5,2.9c1.7,0.7,2.7,1.3,4.3,1.9c1.4,0.5,2.4,0.8,3.8,1.3c0.6,0.3,8,3.7,8.6,4.1
		c1.6,1.1,0.7,2,0.3,2.5c-0.6,0.9-1.2,1.5-1.9,2.5c-0.4,0.5-0.5,0.9-0.9,1.5c-1.1,1.5-2.9,0.3-3.9-0.2c-0.7-0.4-1.3-0.6-2.1-1
		c-2.7-1.2-4.8-1.8-7.6-2.9c-1.3-0.5-3.7-1.6-3.7-1.6c-0.2,0-0.2,0-0.3,0.1c-0.3,0.4,0.2,0.5,0.5,0.9c0.2,0.2,0.9,1.1,1.1,1.3
		c1,1.1,1.6,1.9,2.6,3c1.1,0.4,2.3,0.8,3.4,1.3c1.1,0.5,1.9,0.9,3.1,1.4c0.8,0.3,1.9,0.7,2.6,1.2c1.5,1,0.2,2.3,0.1,2.5
		c-0.6,0.8-1.1,1.4-1.7,2.2c-0.5,0.7-0.7,1.2-1.2,1.8c-1.1,1.5-1.8,0.8-3.7-0.3c-0.7-0.4-1.3-0.7-2.1-1.1c-3.1-1.6-5.4-2.4-8.4-4.1
		c-1.1-0.6-2.7-1.7-2.9-1.3c-0.3,0.4,1.3,1.6,2.2,2.5c1,1,1.6,1.8,2.6,2.8c1,0.9,1.8,1.5,2.8,2.5c0.8,0.8,1.3,1.4,2.1,2.2
		c0.1,0.1,2.3,1.8,2.3,1.9c0.1,0.1,0.4,0.4,0.5,0.8c0.1,0.6-0.1,0.9-0.5,1.5c-0.5,0.8-1,1.2-1.6,2c-0.5,0.7-0.7,1.2-1.1,1.8
		c-0.5,0.7-1.3,2.1-2.5,1.2C535.1,70.7,534.1,69.5,532.9,68.2z"/>
	<path class="st1" d="M494.9,68.7c0.5-0.6,1-1,1.5-1.6c0.7-0.8,1.2-1.6,2-2.4c1-1.1,2-0.3,2.3,0c0.6,0.5,0.9,0.9,1.4,1.4
		c0.3,0.3,0.6,0.5,0.9,0.8c1.3,1.2,2.2,2.1,3.5,3.3c2.1,1.9,2.9,1,3.8-0.1c0.6-0.6,0.6-1,0.5-1.6c-0.1-0.6-1.8-2.3-2.1-2.5
		c-0.7-0.6-1.5-1.2-2.2-1.8c-0.7-0.7-1.2-1.2-2-1.8c-0.5-0.4-0.8-0.7-1.3-1.1c-0.9-0.8-0.5-1.6-0.2-2c0.7-0.7,1.2-1.2,1.9-1.9
		c0.4-0.5,0.7-0.8,1-1.3c0.2-0.3,0.4-0.6,0.6-0.8c1.2-1.3,2.2-0.5,2.7-0.1c0.9,0.8,1.5,1.6,2.4,2.5l0.1,0.1c1.1,0.9,1.8,1.7,2.8,2.6
		c1.5,1.4,2.7,2.2,4.3,3.6c1.3,1.1,2,2.1,3.3,3.2c0.7,0.6,1.3,1,2,1.6c1,0.8,1.6,1.4,2.6,2.3c0.8,0.7,1.4,1.3,2.2,2.1
		c0.8,0.7,1.5,1.1,2.3,1.8c0.4,0.4,1.1,1.2,0.2,2.3c-0.6,0.7-1.2,1.2-1.8,1.9c-0.6,0.7-1,1.3-1.6,2c-1.1,1.2-1.8,0.8-2.4,0.3
		c-0.7-0.7-1.1-1.3-1.8-1.9c-0.8-0.7-1.4-1.1-2.2-1.9c-0.9-0.8-1.4-1.3-2.3-2.1l-0.1-0.1c-1.3-1.2-2-0.6-2.9,0.5
		c-0.7,0.8-0.9,1.2-0.7,1.9c0.1,0.3,1.8,2,2,2.1c0.8,0.7,1.4,1.1,2.2,1.8c0.4,0.4,0.8,0.8,1.3,1.2c0.6,0.6,1.2,0.9,1.8,1.4
		c1.2,1,0.5,2,0.1,2.4c-0.7,0.8-1.3,1.2-2,2c-0.6,0.6-0.8,1.1-1.4,1.8c-1.3,1.5-2.5,0.3-2.8,0c-1.3-1.2-2.2-2.2-3.5-3.4
		c-0.4-0.3-0.7-0.5-1-0.9c-0.7-0.6-1.1-1.1-1.7-1.7c-1.1-1-1.9-1.7-3-2.7c-1.4-1.2-2.3-2.2-3.6-3.3c-1.6-1.5-2.9-2.3-4.5-3.7
		c-0.8-0.7-1.3-1.3-2.1-2c-0.7-0.6-1.4-1-2.1-1.6C494.2,70.2,494.3,69.4,494.9,68.7z"/>
	<path class="st1" d="M481.1,87.5c-0.5-0.6-1-1-1.5-1.5c-0.4-0.4-1.1-1.5,0.1-2.6c0.5-0.5,0.9-0.7,1.3-1.2l0.8-0.8
		c0.8-0.8,1.5-1.3,2.3-2c0.5-0.5,0.8-0.8,1.3-1.3l3.7-3.4c0.3-0.4,0.5-0.6,0.9-0.9c0.4-0.4,1.6-1.1,2.8,0.1c0.8,0.9,1.3,1.6,2.2,2.5
		c0.8,0.8,1.3,1.3,2.1,2.2c0.5,0.6,0.9,1.1,1.4,1.7c0.5,0.6,1,0.9,1.5,1.5c1.1,1.1,1.7,2,2.8,3.1c1,1,2,2,2.9,3
		c1.4,1.4,2.2,2.5,3.5,3.9c0.9,1,1.6,1.6,2.5,2.6c1.9,2,2.2,2.8,0.6,4.2c-0.9,0.8-1.7,1.3-2.6,2.1c-0.4,0.4-0.8,0.8-1.2,1.2
		c-1.1,1-2,1.7-3.1,2.7c-0.5,0.5-0.8,0.8-1.2,1.3l-0.7,0.6c-0.4,0.4-0.6,0.6-1,1c-1.1,1-1.9,0.2-2.2-0.1c-0.5-0.6-1-1.3-1.5-1.8
		c-0.9-0.9-2.8-2.2-1.1-3.8l0.4-0.4c0.4-0.4,0.7-0.7,1.1-1.1c0.5-0.5,1-0.8,1.6-1.3c1.9-1.8,1.4-2.4,0.3-3.6
		c-1.1-1.2-2.1-1.4-2.9-0.7c-0.4,0.4-0.6,0.7-1,1l-0.1,0.1c-0.5,0.5-0.9,0.7-1.4,1.2c-0.4,0.4-0.7,0.7-1.1,1.1
		c-1.4,1.3-2.2,0.3-2.7-0.2c-0.5-0.5-0.8-0.9-1.3-1.5c-0.5-0.5-0.8-0.8-1.3-1.3c-1.3-1.3-0.3-2.3,0.1-2.8c1.1-1,1.9-1.5,3-2.5
		c1.9-1.8,0.7-2.8,0-3.5l-0.4-0.4c-0.2-0.2-0.8-0.8-1-1c-1.4-0.5-1.6,0.2-3,1.3c-0.7,0.5-1.2,0.8-1.8,1.4c-0.5,0.5-0.8,1-1.3,1.5
		c-0.3,0.3-1.4,1-2.5,0C481.9,88.5,481.6,88,481.1,87.5z"/>
	<path class="st1" d="M459.6,99.8l0.1-0.1c0.6-0.5,1.1-0.7,1.7-1.2c0.7-0.6,1.2-1,1.9-1.5c0.4-0.3,0.6-0.6,1-0.9
		c1.2-0.9,2-0.1,3.1,0.5c1.1,0.6,1.9,0.8,2.9,1.4c0.7,0.4,1.2,0.7,1.9,1.1c0.8,0.4,1.4,0.7,1.8,0.4c0.6-0.4-0.1-1.1-0.2-1.3
		c-0.6-0.7-1-1.2-1.6-1.9c-0.4-0.6-0.7-0.9-1.1-1.5c-0.4-0.5-0.8-0.8-1.2-1.4c-0.6-0.8-0.3-1.4,0.1-1.7c0.8-0.6,1.4-0.9,2.2-1.6
		c0.9-0.7,1.5-1.4,2.4-2.2c0.8-0.6,1.7-0.4,2.2,0.3c0.4,0.6,0.7,1,1,1.5c0.7,0.9,1.2,1.6,1.9,2.6c1.5,1.8,2.6,3,4.1,4.9
		c1.5,1.9,2.4,3.3,3.9,5.2c1,1.2,1.7,2,2.7,3.2c1,1.3,1.7,2.3,2.7,3.6c0.6,0.8,1.2,1.2,1.7,2c0.6,0.7,1.2,2.1-0.5,3.4
		c-0.8,0.6-1.3,0.9-2.1,1.6c-1.9,1.4-3.1,2.6-5,4.1c-2.1,1.7-5.3,3.6-9.3,2.1c-0.3-0.1-0.7-0.3-0.9-0.5c-0.3-0.2-0.9-0.4-1.5-0.9
		c-1-0.7-3-3.1-3.7-3.9c-0.4-0.6-3.1-3.7-3-7.9c0-0.5,0.1-0.8,0.1-1.3c0-0.4,0.2-0.5,0.2-0.9c0-0.1,0-0.3-0.2-0.5
		c-0.4-0.5-3.7-1.8-4.4-2.2c-0.6-0.3-1.1-0.6-1.7-0.9c-1.1-0.5-1.9-0.8-2.9-1.3c-0.2-0.1-0.4-0.3-0.7-0.6
		C458.6,100.6,459.5,99.9,459.6,99.8z M483.6,113.3l0.1-0.1c0.2-0.2,0.4-0.5,0.5-0.8c0.1-0.7-0.1-1.2-0.2-1.3
		c-0.1-0.2-2.3-3.2-2.4-3.3c-0.7-0.9-1.9-1.4-3-0.5c-0.5,0.4-0.7,0.9-0.8,1.2c-0.2,1,0.6,2.3,1.7,3.7
		C480.3,113.1,482.1,114.4,483.6,113.3z"/>
	<path class="st1" d="M443.6,115c-0.4-0.7-0.8-1.1-1.2-1.8c-0.3-0.5-0.8-1.6,0.5-2.5c0.5-0.4,1-0.6,1.5-0.9l0.9-0.6
		c0.9-0.6,1.7-1,2.6-1.6c0.5-0.4,0.9-0.7,1.5-1l4.2-2.8c0.4-0.3,0.6-0.5,1-0.8c0.5-0.3,1.8-0.8,2.7,0.6c0.7,1,1,1.8,1.7,2.9
		c0.6,0.9,1.1,1.5,1.7,2.5c0.4,0.7,0.7,1.3,1.1,1.9c0.4,0.7,0.8,1.1,1.3,1.8c0.9,1.3,1.4,2.2,2.2,3.5c0.8,1.2,1.6,2.3,2.4,3.4
		c1.1,1.6,1.7,2.8,2.8,4.4c0.7,1.1,1.3,1.9,2.1,3c1.5,2.3,1.7,3.1-0.1,4.3c-1,0.7-1.9,1-2.9,1.7c-0.5,0.3-1,0.7-1.4,1
		c-1.3,0.8-2.2,1.3-3.5,2.1c-0.5,0.4-0.9,0.7-1.4,1.1l-0.8,0.5c-0.4,0.3-0.7,0.5-1.2,0.8c-1.2,0.8-1.9-0.1-2.1-0.5
		c-0.4-0.7-0.8-1.4-1.2-2.1c-0.7-1.1-2.4-2.7-0.4-3.9l0.4-0.3c0.5-0.3,0.8-0.6,1.3-0.9c0.6-0.4,1.1-0.6,1.8-1
		c2.2-1.4,1.8-2.1,0.9-3.5c-0.9-1.3-1.8-1.7-2.7-1.1c-0.4,0.3-0.7,0.6-1.1,0.9l-0.1,0.1c-0.6,0.4-1,0.6-1.6,0.9
		c-0.5,0.3-0.8,0.6-1.2,0.9c-1.6,1.1-2.3-0.1-2.6-0.6c-0.4-0.6-0.6-1-1-1.7c-0.4-0.6-0.7-1-1.1-1.5c-1-1.5,0.1-2.4,0.6-2.7
		c1.2-0.8,2.1-1.2,3.4-2c2.2-1.4,1.2-2.6,0.6-3.4l-0.3-0.5c-0.1-0.2-0.6-0.9-0.9-1.1c-1.3-0.7-1.6-0.1-3.2,0.7
		c-0.8,0.4-1.3,0.6-2,1.1c-0.6,0.4-1,0.8-1.6,1.2c-0.4,0.3-1.6,0.8-2.4-0.5C444.2,116.2,444,115.7,443.6,115z"/>
	<path class="st1" d="M431.1,149.7c-0.5-1-1-1.7-1.5-2.7c-0.4-0.8-0.6-1.3-1-2.1c-0.4-0.8-0.7-1.3-1.1-2.1c-0.5-0.9-0.7-1.7-1.1-2.6
		c-0.3-0.6-0.7-1.2-1-1.9l-0.1-0.1c-0.7-1.3-1.2-2.2-1.9-3.5c-0.7-1.4-1.1-2.4-1.8-3.8c-0.3-0.5-0.5-0.9-0.7-1.4
		c-1.6-3.2,0.8-6.4,1.7-7.2c0.5-0.4,2.2-1.4,2.8-1.7c0.3-0.2,0.7-0.3,1.1-0.5c0.5-0.2,0.8-0.5,1.3-0.7c1.1-0.6,2,0,2.5,1
		c0.4,0.8,0.6,1.5,1.1,2.3c0.4,0.8,0.8,1.4,1.3,2.3c0.5,0.9,0.2,1.5-0.4,1.8c-0.3,0.1-0.5,0.2-0.8,0.3c-2,1-0.7,3.1-0.6,3.2
		c0.6,1.4,1.2,2.3,1.9,3.6c0.8,1.6,1.4,2.7,2.2,4.3c1,1.9,1.5,3.4,2.5,5.3c0.9,1.8,1.8,3,2.7,4.8c0.7,1.3,0.7,1.9-0.7,2.6
		c-0.8,0.4-1.5,0.6-2.3,1.1l-0.3,0.1c-0.9,0.4-1.5,0.8-2.3,1.2c-0.8,0.4-1.5,0.2-1.9-0.6C431.9,151.6,431.7,150.8,431.1,149.7z"/>
	<path class="st1" d="M398.5,140.4c-0.1-0.2-0.4-1.8-0.3-3.1c0.1-1.5,0.7-3.2,1.6-4.4c0.3-0.3,0.6-0.6,1.2-1.1
		c1.3-1.1,2.1-1.6,3.5-2.2c2.6-1.1,6.6-2.1,9.9,0c1.1,0.7,2.8,2.8,3.4,3.6c0.5,0.8,1.8,3.5,2.2,4.3c0.5,1.2,0.7,2,1.3,3.2
		c0.4,0.9,0.7,1.5,1,2.4c2.5,6.2,3.5,9.6,1.3,13.5c-1.2,2-2.2,2.9-5.4,4.3l-0.3,0.1c-1.5,0.6-3.2,1.1-4.8,1c-0.9,0-3.6-0.7-4.3-1.1
		c-2.4-1.2-4.5-4.4-6.4-9C399.9,145.9,398.8,144,398.5,140.4z M409.9,147.6c0.3,0.7,0.5,1.3,0.8,2.1c0.3,0.7,1.4,3.1,2,3.6
		c0.5,0.4,1.1,0.8,2.1,0.4c0.1,0,0.2-0.1,0.2-0.2c0.3-0.1,0.5-0.4,0.7-0.6c0.6-0.9,0.4-2-0.2-3.5c-0.5-1.2-0.9-2-1.4-3.2
		c-0.9-2.3-1.5-4-2.4-6.3c-0.4-1.1-1.5-4.1-3.7-3.2c-2,0.8-1.3,2.7-0.8,3.9c0.3,0.7,0.6,1.2,0.8,2c0.4,1.1,0.6,1.9,1,2.9
		C409.3,146.3,409.6,146.8,409.9,147.6z"/>
	<path class="st1" d="M382.9,169.7c0-0.3,0-4.8,0.1-7.6c0-0.5,0.1-1,0.1-1.5c0.1-2,0.1-3.4,0.2-5.4c0.2-2.9,0.8-3.9,0-6.5
		c-0.3-0.9-0.5-1.5-0.7-2.4c-0.3-1-0.4-1.7-0.7-2.6c-0.4-1.1-0.7-1.9-1-3c-0.2-0.5-0.4-1.3,0.1-2c0.1-0.2,0.7-0.4,0.9-0.5
		c0.5-0.2,0.9-0.2,1.4-0.4c0.7-0.2,1.2-0.5,1.9-0.7l1.6-0.5c2-0.6,2.1,1.2,2.5,2.3l0,0.1c0.1,0.3,0.1,0.6,0.2,0.9
		c0.2,0.5,0.4,0.8,0.5,1.3c0.3,0.8,0.2,1.4,0.5,2.2c0.3,0.9,0.6,1.4,0.9,2.3c0.3,0.9,0.4,1.5,0.9,2.3c0.1,0.2,2.8,4.1,4.6,6.3
		c1,1.2,1.7,1.9,2.6,3.1c1.2,1.6,2,2.9,3.2,4.5c0.6,0.8,1.1,1.2,1.6,2c0.2,0.3,0.3,0.5,0.4,0.7c0.4,1.3-1,1.6-1.2,1.6
		c-0.7,0.2-1.4,0.3-2,0.5c-1.2,0.3-2,0.7-3.3,1.1c-0.7,0.2-1,0.2-1.4-0.1c-0.9-0.5-2.6-3.9-3-4.5c-0.7-1.2-1.2-1.9-1.9-3
		c-0.3-0.5-0.8-1.4-1-1.4c-0.4,0.1-0.2,0.9-0.1,1.5c0,0.9,0.1,1.6,0.1,2.5c0,0.4-0.1,0.8,0,1.2c0,0.7,0.1,1.2,0.1,1.9
		c0.1,0.5,0.3,2.4,0.3,2.9c-0.1,0.6-0.1,0.8-0.6,1.3c-0.2,0.2-0.9,0.4-1.1,0.5c-0.8,0.2-1.3,0.3-2,0.5c-0.8,0.3-1.3,0.5-2.1,0.8
		c-0.9,0.3-1.9,0.5-2.3-0.8C382.9,170.6,382.9,169.8,382.9,169.7z"/>
	<path class="st1" d="M352.9,145.4c0.7-0.1,1.2-0.1,1.9-0.3c1.2-0.2,1.9-0.5,3-0.7c2.3-0.4,2.4,0.6,2.6,1.7l0.4,1.9
		c0.2,1.1,0.2,1.9,0.4,2.9l0.4,1.9c0.5,2.3,0.9,3.9,1.4,6.2l1.1,5.7c0.4,1.8,0.5,3.1,0.8,4.9l0.6,3.2c0.2,0.8,0.4,1.3,0.5,2.1
		c0.3,1.5-0.7,1.8-1.8,2c-1.1,0.2-1.9,0.3-2.9,0.5c-0.9,0.2-1.5,0.4-2.4,0.6c-1,0.2-1.3-0.9-1.4-1.5c-0.1-0.7-0.1-1.3-0.2-2
		c-0.2-1.2-0.4-1.9-0.6-3.1l-1.4-7.1c-0.2-1.1-0.3-1.8-0.5-2.9l-0.4-2.3c-0.4-1.8-0.8-3.1-1.1-4.9c-0.3-1.4-0.3-2.4-0.6-3.7
		c-0.3-1.3-0.6-2.1-0.9-3.4C351.6,146.5,351.6,145.6,352.9,145.4z"/>
	<path class="st1" d="M333.1,150c0.9-0.9,2.1-1.7,3-2.1c1.4-0.6,4.1-1.1,5.5-1.3c1.1-0.1,5.3-0.5,6.4,0.6c0.3,0.3,0.4,0.5,0.5,1.1
		c0.1,1,0.1,1.7,0.3,2.8c0.1,0.8,0.3,1.3,0.4,2.1c0.1,0.5,0.4,2.3-1.6,2.5c-0.9,0.1-1.1-0.1-1.7-0.4c-0.2-0.1-0.2-0.2-0.3-0.2
		c-0.2-0.1-0.4-0.3-0.7-0.4c-0.7-0.3-1.7-0.3-2.3-0.2c-1.6,0.2-2.5,0.8-2.5,1.9c0.1,1.5,1.9,2.5,3.2,3.5c0.9,0.7,1.5,1.2,2.5,2
		c0.3,0.2,1.3,0.9,2.3,1.7c2.2,2.1,2.6,3.8,2.9,6.2c0.9,7-2,10.3-8.7,11.1c-3.1,0.4-6.5,1-6.7-1.2c-0.1-1-0.1-1.7-0.3-2.8l0-0.2
		c-0.1-0.7-0.2-1.1-0.3-1.7c-0.1-0.5-0.2-2,1.5-2.2c0.7-0.1,1.8,0.2,2,0.2c0.5,0.1,1,0.2,1.9,0c0.3,0,2.1-0.2,1.8-1.9
		c-0.1-0.5-0.2-0.9-0.6-1.3c-0.4-0.5-2.6-2-4.6-3.5c-0.8-0.6-1.4-1-2.1-1.6c-2.6-2.2-3.2-3.8-3.6-6.4
		C330.7,154.2,331,152.2,333.1,150z"/>
	<path class="st1" d="M301.5,150.5c1.2-0.5,2.6-0.9,5.2-0.9c0.9,0,1.5,0.1,2.4,0.1c1.4,0,2.3-0.2,3.7-0.2c1.5,0,2.9,0,2.9,2.1
		c0,1.7-0.2,2.9-0.2,4.6c0,2.7,0.2,4.6,0.3,7.4c0,1.1,0,1.8-0.1,2.9c0,1.9,0.2,3.2,0.2,5.1c0,1.7-0.1,2.8-0.1,4.5
		c0,1.4,0.1,2.3,0.2,3.8c0,2.1-0.7,2.8-2.1,2.8c-1.3,0-2.1,0-3.3,0c-1.3,0-2.1,0-3.3,0.1c-0.4,0-0.8,0-1.1,0.1
		c-4.5,0-6.6-1.4-8.5-3.6c-0.3-0.4-1.2-1.4-1.8-2.7c-1.9-3.9-1.9-10.4-1.9-10.7C293.8,161.5,295.3,153.3,301.5,150.5z M302.9,168.8
		c0.1,1.2,0.4,6.1,3.2,5.9c0.2,0,0.4,0,0.6-0.2c0.9-0.4,0.8-1.6,0.8-2.2c0-1.8-0.1-3-0.2-4.8c0-1.2,0.1-2,0.1-3.2
		c0-0.9-0.1-1.6-0.1-2.6c0-0.7,0-1.1,0-1.8c0-1,0-2.7-1.7-2.7c-1.8,0.1-2.2,2.3-2.2,2.4c-0.2,0.8-0.7,5.4-0.7,6.2
		C302.7,166.8,302.8,167.7,302.9,168.8z"/>
	<path class="st1" d="M271.9,153.8c0-0.8-0.1-1.4-0.1-2.2c0-0.6,0.1-1.8,1.8-1.9c0.7,0,1.1,0,1.8,0l1.1,0c1.1,0,1.9,0,3.1,0
		c0.7,0,1.1-0.1,1.8-0.1l5-0.2c0.5-0.1,0.8-0.1,1.3-0.1c0.6,0,1.9,0.3,2,1.9c0,1.2-0.1,2.1,0,3.3c0,1.1,0.1,1.9,0.2,3
		c0,0.8-0.1,1.4-0.1,2.2c0,0.8,0.1,1.4,0.2,2.2c0.1,1.5,0,2.6,0.1,4.2c0.1,1.4,0.2,2.8,0.3,4.2c0.1,1.9,0,3.3,0.1,5.2
		c0.1,1.4,0.2,2.3,0.2,3.6c0.1,2.7-0.2,3.5-2.3,3.6c-1.2,0-2.1-0.1-3.3-0.1c-0.6,0-1.2,0.1-1.7,0.1c-1.5,0.1-2.6,0-4.1,0
		c-0.7,0-1.1,0.1-1.8,0.2l-0.9,0c-0.5,0-0.9,0.1-1.5,0.1c-1.5,0.1-1.5-1.1-1.6-1.5c0-0.8,0.1-1.6,0-2.4c0-1.3-0.7-3.5,1.7-3.6l0.5,0
		c0.6,0,1-0.1,1.5-0.1c0.8,0,1.3,0.1,2.1,0.1c2.6-0.1,2.6-0.9,2.6-2.5c-0.1-1.6-0.7-2.4-1.7-2.4c-0.5,0-0.9,0.1-1.4,0.1l-0.1,0
		c-0.7,0-1.2,0-1.8,0c-0.6,0-1,0.1-1.5,0.1c-1.9,0.1-1.9-1.2-1.9-1.9c0-0.8,0-1.2,0-2c0-0.7-0.1-1.2-0.1-1.9c-0.1-1.8,1.3-2,1.9-2
		c1.5-0.1,2.4,0.1,3.9,0c2.6-0.1,2.3-1.6,2.3-2.6l0-0.6c0-0.2,0-1.1-0.1-1.4c-0.7-1.3-1.4-0.9-3.1-1c-0.8-0.1-1.4-0.1-2.3-0.1
		c-0.8,0-1.3,0.2-2,0.2c-0.5,0-1.7-0.2-1.8-1.7C271.9,155.1,272,154.6,271.9,153.8z"/>
	<path class="st1" d="M251.8,154c0.9-0.9,2.1-1.7,3-2.1c1.4-0.6,4.1-1.1,5.5-1.3c1.1-0.1,5.3-0.5,6.4,0.6c0.3,0.3,0.4,0.5,0.5,1.1
		c0.1,1,0.1,1.7,0.3,2.8c0.1,0.8,0.3,1.3,0.4,2.1c0.1,0.5,0.4,2.3-1.6,2.5c-0.9,0.1-1.1-0.1-1.7-0.4c-0.2-0.1-0.2-0.2-0.3-0.2
		c-0.3-0.1-0.4-0.3-0.7-0.4c-0.7-0.3-1.7-0.3-2.3-0.2c-1.6,0.2-2.5,0.8-2.5,1.9c0,1.5,1.9,2.5,3.2,3.5c0.9,0.7,1.5,1.2,2.5,2
		c0.3,0.2,1.3,0.9,2.2,1.7c2.2,2.1,2.6,3.8,2.9,6.2c0.9,7-2,10.3-8.7,11.1c-3.1,0.4-6.5,1-6.7-1.2c-0.1-1-0.1-1.7-0.3-2.8l0-0.2
		c-0.1-0.7-0.2-1.1-0.3-1.7c-0.1-0.5-0.2-2,1.5-2.2c0.7-0.1,1.8,0.2,2,0.2c0.5,0.1,1,0.2,1.9,0c0.3,0,2.1-0.2,1.8-1.9
		c-0.1-0.5-0.2-0.9-0.6-1.3c-0.4-0.5-2.6-2-4.6-3.5c-0.8-0.6-1.4-1-2.1-1.6c-2.6-2.2-3.2-3.8-3.6-6.4
		C249.4,158.2,249.7,156.2,251.8,154z"/>
	<path class="st1" d="M236.4,155.1c0.7-0.1,1.2-0.1,1.9-0.3c1.1-0.2,1.9-0.5,3-0.7c2.3-0.5,2.4,0.6,2.6,1.7l0.4,1.9
		c0.2,1.1,0.2,1.9,0.4,2.9l0.4,1.9c0.5,2.3,0.9,3.9,1.4,6.2l1.1,5.7c0.4,1.8,0.5,3.1,0.8,4.9l0.6,3.2c0.2,0.8,0.4,1.3,0.6,2.1
		c0.3,1.5-0.7,1.8-1.8,2c-1.1,0.2-1.8,0.3-2.9,0.5c-0.9,0.2-1.5,0.4-2.4,0.6c-1,0.2-1.3-0.9-1.4-1.5c-0.1-0.7-0.2-1.3-0.3-2
		c-0.2-1.2-0.4-1.9-0.6-3.1l-1.4-7.1c-0.2-1.1-0.3-1.8-0.5-2.9l-0.5-2.3c-0.4-1.8-0.8-3-1.2-4.9c-0.3-1.4-0.3-2.4-0.6-3.7
		c-0.3-1.3-0.6-2.1-0.9-3.4C235.2,156.3,235.1,155.4,236.4,155.1z"/>
	<path class="st1" d="M212,178.4c-0.3-0.9-0.5-1.6-0.8-2.6c-0.3-0.9-0.4-1.6-0.6-2.5c-0.4-1.2-0.7-2-1.1-3.3c-0.4-1.3-0.6-2.2-1-3.5
		l-0.4-1.3c0,0-0.3-0.9-0.1-1.4c0.6-1.6,3.3-2.7,6.4-3.6c2.9-0.9,3.9-1.2,7.2-1c0.8,0.1,2,0.2,2.9,0.6c1.2,0.5,1.9,1.1,2.8,1.9
		c2.3,1.9,3.3,2.7,5,6.9c0.3,0.6,0.8,1.9,1.4,3.7c0.7,2.3,1.1,6.9,1.1,6.9c0,1.2-0.1,2-0.3,3.2c-0.2,1-0.4,1.9-0.5,2.3
		c-0.3,0.9-1.6,3.3-3.4,4.8c-1.1,1-2.4,1.7-3.6,2.3c-1.7,0.8-3.3,1.3-3.9,1.5l-0.5,0.1c-0.2,0.1-3.9,1-4.1,1c-0.5-0.2-1-0.3-1.3-1.1
		c-0.1-0.5-0.2-0.8-0.3-1.2l-0.5-1.6c-0.4-1.4-0.9-2.9-0.8-3.4c0.2-0.4,0.5-0.8,0.5-0.9c0.1-0.1,0.4-0.4,0.8-0.5
		c0.6-0.2,1.2,0.1,1.8,0.1c0.4,0,2.4-0.5,2.8-0.6c2.5-0.7,3.5-1.9,4-3.6c0.1-0.4,0.2-1.1,0.2-1.4c0-0.2-0.1-0.8-0.2-1.5
		c-0.1-1.3,0-1.8-0.6-3.9c-0.2-0.6-0.4-1.1-0.6-1.8l-0.1-0.5c-0.2-0.6-0.3-0.8-0.5-1.1c-0.1-0.2-2.2-2.8-2.4-3
		c-0.2-0.1-0.4-0.5-1-0.7c-0.5-0.2-1.3-0.3-2.2-0.1c-1.1,0.3-1.6,0.8-1.4,1.6c0.1,0.5,0.3,0.8,0.5,1.2c0.2,0.6,0.2,1.1,0.4,1.7
		c0.4,1.2,1.6,1.2,1.9,1.1c0.3-0.1,0.5-0.3,0.8-0.4c0.4-0.1,1.2,0.1,1.5,1c0.3,1.1,0.5,2,0.8,3.1c0.2,0.6,0.4,1.5,0.4,1.5
		c0,0,0.1,0.5,0,0.8c-0.2,0.6-0.6,1.2-1.5,1.4c-0.9,0.3-1.5,0.3-2.4,0.6c-1.1,0.3-1.8,0.5-2.9,0.9c-0.4,0.2-0.6,0.3-1.1,0.4
		c-2.3,0.7-2.6-1.1-2.8-1.8C212.4,179.9,212.3,179.4,212,178.4z"/>
	<path class="st1" d="M182.7,172.8c0.8-0.3,1.3-0.5,2.1-0.8c1.2-0.5,2-0.9,3.2-1.4c0.9-0.4,1.5,0.7,2.5,1.7c0.8,0.8,1.5,1.3,2.3,2.1
		c0.8,0.8,1.2,1.4,2,2.2c0.6,0.6,1.2,1,1.8,1.6c0.6,0.6,0.9,1,1.5,1.6c0.6,0.7,1.6,1.8,1.7,1.7c0.1,0,0.1-0.3,0-0.5
		c-0.2-0.6-0.5-0.9-0.8-1.4c-0.6-1-0.9-1.8-1.4-2.9c-0.6-1.4-0.8-2.5-1.4-3.9c-0.6-1.3-1.1-2.2-1.7-3.5c-0.4-1.1,0.1-1.5,1-1.9
		c1.1-0.4,1.9-0.7,3-1.2c0.8-0.3,1.3-0.7,2.1-1c1.3-0.5,1.8,0.9,1.8,1c0.8,1.8,1,3.2,1.8,5.1c0.2,0.6,0.4,0.9,0.6,1.4
		c0.5,1.2,0.9,2,1.4,3.2c0.4,1,0.7,1.8,1.1,2.8c0.3,0.8,0.4,1.4,0.8,2.3c0.3,0.8,0.7,1.3,1,2.1l0.9,2.3c0.7,1.6,1.1,2.7,1.7,4.4
		c0.7,1.7,1.3,2.8,2,4.5c0.1,0.2,0.4,1.1-0.5,1.7L213,196c-0.3,0.1-0.6,0.2-1,0.3c-0.6,0.2-1,0.4-1.6,0.6c-0.9,0.4-1.5,0.8-2.5,1.2
		c-0.5,0.2-0.8,0.1-1.1,0c-0.8-0.2-3.2-2.9-3.6-3.3c-0.5-0.5-0.8-0.8-1.4-1.3c-0.4-0.3-0.7-0.6-1.1-0.9c-0.4-0.4-0.6-0.7-1-1.1
		c-0.3-0.3-0.5-0.4-0.8-0.7c-0.5-0.5-0.8-0.8-1.3-1.4c-0.6-0.7-1.6-1.9-1.8-1.8c-0.2,0.1,0.2,1.1,0.4,1.7c0.3,0.7,0.6,1.1,0.9,1.8
		c0.3,0.7,0.4,1.2,0.7,1.9c0.8,1.9,1.5,3.1,2.3,5c0.1,0.3,0.7,1.7,0.6,2.2c-0.1,0.3-0.2,0.4-0.3,0.6c-0.1,0.2-0.5,0.6-1,0.8
		c-0.6,0.3-1.1,0.3-1.7,0.6l-1.6,0.7c-0.5,0.2-0.8,0.4-1.4,0.6c-0.8,0.3-1.3,0.1-1.7-0.7c-0.5-1.3-0.7-2.3-1.3-3.6
		c-0.8-1.9-1.4-3.2-2.2-5.1c-0.8-2-1.3-3.5-2.1-5.6c-0.8-2-1.6-3.4-2.4-5.4c-0.8-1.8-1.1-3.2-1.9-5.1c-0.4-0.9-0.6-1.6-1.1-2.5
		c-0.2-0.4-0.4-0.6-0.6-1C181.2,173.5,182.2,173,182.7,172.8z"/>
	<path class="st1" d="M161.6,188c-0.4-0.7-0.7-1.2-1.1-1.9c-0.3-0.5-0.7-1.7,0.7-2.5c0.6-0.3,1-0.5,1.6-0.8l1-0.5
		c1-0.5,1.7-0.8,2.7-1.4c0.6-0.3,1-0.6,1.5-0.9l4.4-2.4c0.4-0.3,0.7-0.5,1.1-0.7c0.5-0.3,1.8-0.6,2.6,0.8c0.6,1.1,0.9,1.9,1.5,3
		c0.5,1,0.9,1.6,1.5,2.6c0.4,0.7,0.5,1.3,0.9,2c0.4,0.7,0.7,1.2,1.1,1.9c0.7,1.4,1.2,2.4,1.9,3.7c0.7,1.2,1.4,2.4,2.1,3.6
		c1,1.7,1.5,2.9,2.4,4.6c0.6,1.2,1.2,2,1.8,3.1c1.3,2.4,1.4,3.3-0.5,4.3c-1.1,0.6-1.9,0.8-3,1.4c-0.5,0.3-1,0.6-1.5,0.9
		c-1.3,0.7-2.3,1.1-3.7,1.8c-0.6,0.3-0.9,0.6-1.5,0.9l-0.8,0.4c-0.5,0.2-0.8,0.5-1.3,0.7c-1.3,0.7-1.9-0.3-2.1-0.7
		c-0.4-0.7-0.6-1.5-1-2.2c-0.6-1.1-2.1-2.9-0.1-4l0.5-0.2c0.5-0.3,0.8-0.5,1.3-0.8c0.7-0.4,1.2-0.5,1.9-0.9c2.3-1.2,2-2,1.2-3.4
		c-0.8-1.4-1.7-1.9-2.6-1.4c-0.5,0.2-0.7,0.5-1.2,0.7l-0.1,0c-0.6,0.3-1.1,0.5-1.7,0.8c-0.5,0.3-0.8,0.5-1.3,0.8
		c-1.7,0.9-2.2-0.3-2.5-0.9c-0.4-0.7-0.5-1.1-0.9-1.8c-0.3-0.6-0.6-1-0.9-1.6c-0.9-1.6,0.3-2.3,0.8-2.6c1.3-0.7,2.2-1,3.5-1.7
		c2.3-1.2,1.4-2.5,0.9-3.4l-0.3-0.5c-0.1-0.2-0.5-1-0.7-1.2c-1.2-0.8-1.6-0.2-3.2,0.5c-0.8,0.3-1.3,0.5-2.1,0.9
		c-0.7,0.4-1,0.7-1.7,1.1c-0.4,0.2-1.6,0.6-2.4-0.7C162.1,189.2,162,188.7,161.6,188z"/>
	<path class="st1" d="M143.2,196.4c0.7-1.1,1.7-2.2,3.9-3.6c0.7-0.5,1.3-0.8,2.1-1.3c1.1-0.8,1.8-1.5,2.9-2.2
		c1.2-0.8,2.4-1.6,3.6,0.2c0.9,1.4,1.4,2.5,2.4,4c1.5,2.3,2.8,3.7,4.3,6c0.6,0.9,1,1.5,1.5,2.4c1,1.6,1.9,2.6,3,4.2
		c0.9,1.4,1.5,2.4,2.4,3.8c0.8,1.1,1.4,1.9,2.2,3c1.2,1.8,1,2.7-0.2,3.5c-1.1,0.7-1.8,1.1-2.8,1.8c-1.1,0.7-1.8,1.2-2.7,1.9
		c-0.3,0.2-0.6,0.5-0.9,0.6c-3.7,2.5-6.2,2.5-9.1,1.7c-0.5-0.1-1.8-0.5-3-1.2c-3.8-2.2-7.3-7.6-7.5-7.9
		C142.9,209.8,139.6,202.2,143.2,196.4z M154.5,210.8c0.7,0.9,3.7,4.9,5.9,3.1c0.2-0.1,0.3-0.3,0.4-0.5c0.5-0.8-0.2-1.8-0.5-2.3
		c-1-1.5-1.8-2.5-2.8-3.9c-0.7-1-1-1.7-1.7-2.7c-0.5-0.8-1-1.3-1.6-2.1c-0.4-0.5-0.6-1-1-1.5c-0.5-0.8-1.5-2.3-2.9-1.3
		c-1.5,1-0.5,3.1-0.5,3.2c0.3,0.8,2.4,4.9,2.8,5.6C153.3,209.3,153.8,209.9,154.5,210.8z"/>
	<path class="st1" d="M116.8,216.1c0.5-0.5,1-0.7,1.5-1.2c0.9-0.8,1.4-1.4,2.2-2.1c1.8-1.5,2.3-0.7,3.1,0.2l1.3,1.4
		c0.7,0.8,1.1,1.5,1.8,2.3l1.3,1.4c1.6,1.8,2.8,2.9,4.3,4.7l3.8,4.4c1.2,1.4,2,2.5,3.2,3.8l2.1,2.4c0.5,0.6,1,0.9,1.5,1.5
		c1,1.2,0.3,1.9-0.5,2.6c-0.8,0.7-1.4,1.2-2.3,1.9c-0.7,0.6-1.1,1.1-1.8,1.7c-0.7,0.6-1.6-0.1-2-0.6c-0.5-0.6-0.8-1-1.2-1.6
		c-0.7-0.9-1.3-1.5-2.1-2.4l-4.8-5.5c-0.7-0.8-1.1-1.4-1.8-2.2l-1.5-1.7c-1.2-1.4-2.2-2.2-3.4-3.7c-0.9-1.1-1.5-1.9-2.4-2.9
		c-0.9-1-1.6-1.5-2.5-2.5C116.3,217.8,115.8,217,116.8,216.1z"/>
	<path class="st1" d="M97,235.7c0.6-0.6,1-0.9,1.6-1.6c0.9-0.9,1.5-1.6,2.3-2.6c0.7-0.7,1.7,0,3,0.6c1,0.4,1.9,0.6,2.9,1
		c1,0.4,1.7,0.8,2.7,1.2c0.8,0.3,1.5,0.4,2.3,0.8c0.8,0.3,1.2,0.5,2,0.9c0.8,0.4,2.1,1,2.2,0.9c0.1-0.1,0-0.3-0.2-0.4
		c-0.4-0.4-0.8-0.6-1.3-1c-0.9-0.7-1.6-1.3-2.5-2.1c-1.1-1.1-1.7-1.9-2.9-3c-1-1-1.9-1.5-3-2.5c-0.8-0.8-0.5-1.4,0.2-2.1
		c0.8-0.8,1.5-1.4,2.3-2.3c0.6-0.6,0.9-1.1,1.5-1.7c1-1,2,0.2,2.1,0.2c1.4,1.4,2.2,2.6,3.6,3.9c0.4,0.4,0.7,0.7,1.1,1
		c0.9,0.9,1.6,1.5,2.5,2.4c0.8,0.8,1.4,1.3,2.2,2.2c0.6,0.7,1,1.1,1.6,1.8c0.6,0.6,1.2,0.9,1.8,1.5l1.8,1.7c1.2,1.2,2.1,2.1,3.3,3.3
		c1.3,1.3,2.3,2,3.6,3.3c0.2,0.2,0.8,0.8,0.2,1.7L134,245c-0.3,0.3-0.5,0.4-0.8,0.7c-0.5,0.4-0.8,0.7-1.2,1.2
		c-0.7,0.7-1.1,1.3-1.8,2.1c-0.4,0.4-0.7,0.4-1,0.4c-0.8,0.1-4.1-1.4-4.6-1.6c-0.7-0.3-1.1-0.4-1.8-0.7c-0.5-0.2-0.9-0.2-1.4-0.4
		c-0.5-0.2-0.8-0.4-1.3-0.6c-0.4-0.2-0.7-0.2-1-0.3c-0.6-0.2-1.1-0.4-1.7-0.7c-0.8-0.4-2.2-1.2-2.3-1s0.6,0.9,1.1,1.4
		c0.5,0.5,1,0.7,1.5,1.3c0.5,0.5,0.8,0.9,1.3,1.4c1.4,1.4,2.7,2.2,4.1,3.7c0.3,0.3,1.3,1.3,1.5,1.7c0,0.3,0,0.5,0,0.6
		c0,0.2-0.2,0.7-0.6,1.1c-0.5,0.5-0.9,0.7-1.3,1.2l-1.2,1.3c-0.4,0.4-0.6,0.7-1,1.1c-0.6,0.6-1.2,0.6-1.8,0c-1-1-1.6-1.8-2.6-2.8
		c-1.5-1.4-2.6-2.3-4-3.8c-1.6-1.5-2.6-2.7-4.2-4.2c-1.6-1.5-2.8-2.4-4.4-4c-1.4-1.4-2.3-2.5-3.7-3.9c-0.7-0.7-1.2-1.2-2-1.8
		c-0.3-0.3-0.6-0.4-0.9-0.7C95.9,236.9,96.6,236.1,97,235.7z"/>
	<path class="st1" d="M101.7,268.9c0.3-0.4,0.5-0.6,0.8-1c0.8-1.1,0.6-1.8-0.8-2.9c-1.2-1-2.2-1.6-3.4-2.6c-1.5-1.2-2.5-2.1-4-3.3
		c-1.4-1.1-2.4-1.8-3.7-2.9c-0.8-0.6-1.5-1.3-2.3-1.9c-0.7-0.5-1.1-0.9-1.9-1.4c-0.4-0.3-0.7-0.4-1.2-0.7c-1.2-0.9-0.4-2.1-0.1-2.4
		c0.4-0.4,0.6-0.7,1-1.1c0.5-0.6,0.9-1,1.4-1.6c0.4-0.5,0.7-1,1.1-1.5c0.6-0.8,1.3-1.1,2.5-0.1c1.2,1,1.9,1.8,3.1,2.8
		c1.1,0.9,2,1.4,3.2,2.4c1.3,1.1,2.1,2,3.4,3.1c1,0.8,1.7,1.2,2.7,1.9c2.3,1.7,3.7,3.9,5.3,3.6c0.3,0,0.4-0.1,0.5-0.2
		c0.4-0.1,0.7-0.6,0.9-0.8c0.2-0.3,0.4-0.5,0.6-0.8c0.8-1,1.7-0.7,2.1-0.4c0.9,0.7,1.5,1.3,2.4,2.1c0.6,0.5,1.1,0.8,1.7,1.3
		c0.9,0.7,1,1.4,0.2,2.3c-0.7,0.8-1.2,1.4-1.9,2.2c-1,1.2-1.9,2.6-2.9,3.8l-0.3,0.4c-0.8,1-1.5,1.7-2.3,2.8
		c-0.5,0.7-0.8,1.2-1.3,1.8c-1.1,1.4-2.2,0.6-3.2-0.2c-0.7-0.6-1.2-1-1.9-1.6c-0.5-0.4-0.9-0.6-1.3-1
		C101.8,270.8,100.9,270,101.7,268.9z"/>
	<path class="st1" d="M73.5,278.9c-0.2-0.1-1.3-1.3-2-2.4c-0.7-1.3-1.2-3-1.2-4.5c0.1-0.4,0.2-0.8,0.3-1.6c0.4-1.6,0.8-2.5,1.7-3.8
		c1.5-2.3,4.3-5.5,8.2-5.6c1.3-0.1,3.9,0.7,4.8,1.1c0.8,0.3,3.5,1.9,4.2,2.3c1.1,0.7,1.7,1.3,2.8,1.9c0.8,0.5,1.4,0.9,2.2,1.4
		c5.6,3.7,8.3,6,8.7,10.4c0.1,2.3-0.2,3.7-2.1,6.6l-0.2,0.2c-0.9,1.4-2,2.7-3.4,3.5c-0.8,0.5-3.3,1.5-4.2,1.6
		c-2.6,0.4-6.1-1.1-10.3-3.8C77.8,282.7,75.8,281.7,73.5,278.9z M87,278.4c0.7,0.4,1.1,0.8,1.9,1.3c0.6,0.4,2.9,1.7,3.7,1.8
		c0.7,0,1.4,0,2-0.8c0.1-0.1,0.1-0.2,0.1-0.3c0.2-0.3,0.2-0.6,0.3-0.9c-0.1-1.1-0.8-1.9-2.2-2.8c-1.1-0.7-1.9-1.1-2.9-1.8
		c-2.1-1.4-3.5-2.5-5.6-3.8c-1-0.6-3.5-2.6-4.9-0.6c-1.2,1.8,0.4,3,1.5,3.7c0.7,0.4,1.2,0.7,1.8,1.2c0.9,0.7,1.5,1.2,2.5,1.9
		C85.8,277.7,86.3,278,87,278.4z"/>
	<path class="st1" d="M53.9,310.2c-0.7-0.3-1.3-0.5-2-0.9c-0.5-0.2-1.6-0.9-0.9-2.4c0.3-0.6,0.5-1,0.8-1.6l0.5-1
		c0.5-1,0.9-1.7,1.4-2.7c0.3-0.6,0.4-1,0.7-1.6l2.1-4.6c0.2-0.4,0.3-0.8,0.5-1.2c0.2-0.5,1.1-1.6,2.6-0.9c1.1,0.5,1.9,1,3,1.5
		c1,0.5,1.7,0.8,2.7,1.2c0.7,0.3,1.2,0.7,1.9,1.1c0.7,0.3,1.3,0.5,2,0.8c1.4,0.7,2.3,1.2,3.7,1.9c1.3,0.6,2.5,1.1,3.8,1.7
		c1.8,0.8,2.9,1.5,4.7,2.3c1.2,0.6,2.1,0.9,3.3,1.4c2.5,1.2,3.1,1.8,2.2,3.7c-0.5,1.1-1.1,1.8-1.6,2.9c-0.2,0.5-0.5,1.1-0.7,1.6
		c-0.6,1.4-1.2,2.3-1.9,3.6c-0.3,0.6-0.4,1.1-0.7,1.7l-0.4,0.9c-0.2,0.5-0.3,0.8-0.6,1.3c-0.6,1.3-1.7,0.9-2.1,0.7
		c-0.7-0.3-1.4-0.8-2.1-1.1c-1.1-0.5-3.4-1-2.4-3.1l0.2-0.5c0.2-0.5,0.4-0.9,0.6-1.4c0.3-0.7,0.7-1.1,1-1.8c1.1-2.3,0.4-2.8-1-3.4
		c-1.4-0.7-2.4-0.5-2.9,0.5c-0.2,0.5-0.3,0.8-0.5,1.3l0,0.1c-0.3,0.6-0.6,1-0.9,1.6c-0.2,0.5-0.4,0.9-0.6,1.4
		c-0.8,1.7-2,1.1-2.6,0.8c-0.7-0.3-1.1-0.6-1.8-0.9c-0.6-0.3-1.1-0.5-1.7-0.8c-1.7-0.8-1.2-2-0.9-2.6c0.6-1.3,1.2-2.1,1.8-3.5
		c1.1-2.3-0.4-2.8-1.3-3.2l-0.5-0.2c-0.2-0.1-1-0.5-1.3-0.5c-1.5,0-1.4,0.8-2.3,2.3c-0.4,0.7-0.8,1.2-1.1,2
		c-0.3,0.7-0.4,1.2-0.7,1.8c-0.2,0.4-0.9,1.5-2.3,0.9C55.1,310.9,54.6,310.6,53.9,310.2z"/>
	<path class="st1" d="M68.1,342.5c-1.2-0.7-2.1-1-3.4-1.6c-0.5-0.2-0.7-0.4-1.2-0.7c-0.4-0.2-0.7-0.2-1-0.4
		c-1.1-0.6-1.8-1.2-2.9-1.8c-1.1-0.7-1.9-1-3-1.6c-0.9-0.5-1.6-0.9-2.5-1.4c-1.1-0.6-2-0.9-3.1-1.6c-1.3-0.8-2.1-1.4-3.4-2.3
		c-1.9-1.2-3.7-2-4.1-3c-0.2-0.6,0-1.2,0.2-1.7l2.6-7.3c0.2-0.7,0.4-0.7,0.8-0.9c0.9-0.4,9.2,1.1,9.9,1.2c2.3,0.3,4,0.5,6.3,0.9
		c0.6,0.1,1,0.2,1.6,0.4c1.7,0.3,2.9,0.3,4.6,0.6c1.8,0.3,3,0.7,4.8,1c2.3,0.4,2.5,0.3,3.8,0.8c0.6,0.2,1.7,0.7,1.3,1.8
		c-0.2,0.7-0.5,1.2-0.7,1.8c-0.5,1.5-0.9,2.5-1.4,4c-0.6,1.6-1.8,0.7-3.7,0.3c-1.7-0.5-2.9-0.5-4.7-1c-1.3-0.4-2.2-0.7-3.5-1.1
		c-1.4-0.4-2.5-0.5-3.9-0.8c-1-0.2-1.7-0.5-2.8-0.7c0,0-2.5-0.7-2.6-0.2c-0.1,0.6,2.8,1.5,4.4,2.3c1.2,0.6,1.9,1.1,3.1,1.7
		c1.7,0.8,2.9,1.1,4.6,1.9c1.4,0.7,2.4,1.3,3.8,2c0.9,0.4,2.3,1,2.4,1.2c0.3,0.3,0.7,0.7,0.4,1.4c-0.4,1.1-0.8,1.8-1.2,2.8
		c-0.3,0.8-0.4,1.3-0.7,2c-0.2,0.5-0.2,0.8-0.4,1.3c-0.4,1-1.1,0.9-1.5,0.7C70.2,344,69.1,343.1,68.1,342.5z"/>
	<path class="st1" d="M39.3,356.3c-0.8-0.2-1.3-0.3-2.1-0.5c-0.5-0.1-1.7-0.6-1.3-2.2c0.2-0.6,0.3-1.1,0.5-1.7l0.3-1.1
		c0.3-1.1,0.6-1.8,0.8-2.9c0.2-0.6,0.2-1.1,0.4-1.7l1.2-4.9c0.1-0.5,0.1-0.8,0.2-1.3c0.1-0.5,0.8-1.8,2.4-1.4c1.2,0.3,2,0.7,3.2,1
		c1.1,0.3,1.8,0.4,2.9,0.7c0.8,0.2,1.3,0.5,2.1,0.7c0.8,0.2,1.3,0.2,2.1,0.4c1.5,0.4,2.5,0.7,4,1.1c1.4,0.3,2.7,0.6,4.1,0.9
		c1.9,0.4,3.2,0.9,5,1.4c1.3,0.3,2.3,0.5,3.5,0.8c2.6,0.7,3.3,1.2,2.8,3.2c-0.3,1.2-0.7,2-1,3.2c-0.1,0.5-0.2,1.1-0.4,1.7
		c-0.4,1.5-0.8,2.5-1.1,3.9c-0.2,0.6-0.2,1.1-0.3,1.8l-0.2,0.9c-0.1,0.5-0.2,0.9-0.3,1.4c-0.4,1.4-1.5,1.2-1.9,1.1
		c-0.8-0.2-1.5-0.5-2.3-0.7c-1.2-0.3-3.5-0.4-3-2.6l0.1-0.5c0.1-0.5,0.2-1,0.3-1.5c0.2-0.7,0.4-1.2,0.6-2c0.6-2.5-0.1-2.8-1.7-3.2
		c-1.5-0.4-2.5-0.1-2.8,1c-0.1,0.5-0.1,0.9-0.3,1.4l0,0.1c-0.2,0.7-0.4,1.1-0.5,1.8c-0.1,0.5-0.2,1-0.3,1.5
		c-0.5,1.9-1.7,1.5-2.4,1.3c-0.7-0.2-1.2-0.3-1.9-0.5c-0.7-0.2-1.1-0.2-1.8-0.4c-1.8-0.4-1.5-1.8-1.4-2.4c0.4-1.4,0.8-2.3,1.1-3.7
		c0.6-2.5-0.9-2.7-1.9-2.9l-0.5-0.1c-0.2-0.1-1.1-0.3-1.4-0.3c-1.4,0.3-1.3,1-1.8,2.7c-0.3,0.8-0.5,1.3-0.7,2.1
		c-0.2,0.7-0.2,1.3-0.3,1.9c-0.1,0.5-0.7,1.6-2.1,1.3C40.6,356.7,40.1,356.5,39.3,356.3z"/>
	<path class="st1" d="M31.3,381.9l0-0.2c0.1-0.8,0.3-1.3,0.4-2.1c0.1-0.9,0.2-1.5,0.3-2.4c0.1-0.5,0-0.9,0.1-1.4
		c0.2-1.5,1.4-1.5,2.5-1.8c1.2-0.3,2-0.7,3.1-1c0.8-0.2,1.3-0.3,2.1-0.5c0.8-0.3,1.5-0.4,1.6-0.9c0.1-0.7-0.8-0.7-1.1-0.8
		c-0.9-0.1-1.6-0.2-2.5-0.3c-0.7-0.1-1.2-0.2-1.8-0.3c-0.6-0.1-1.1-0.1-1.8-0.2c-1-0.2-1.2-0.8-1.1-1.3c0.1-1,0.4-1.7,0.5-2.7
		c0.2-1.2,0.1-2.1,0.3-3.2c0.2-1,0.9-1.4,1.9-1.3c0.7,0.1,1.1,0.3,1.8,0.4c1.2,0.2,2,0.4,3.2,0.6c2.3,0.3,4,0.4,6.3,0.8
		c2.4,0.4,4.1,0.8,6.4,1.1c1.5,0.2,2.6,0.3,4.1,0.5c1.6,0.2,2.8,0.5,4.4,0.8c1,0.1,1.7,0.1,2.7,0.3c0.9,0.1,2.3,0.7,2,2.8
		c-0.1,1-0.3,1.6-0.5,2.6c-0.4,2.3-0.5,4-0.8,6.4c-0.4,2.7-1.4,6.3-5.4,7.9c-0.3,0.1-0.7,0.2-1,0.3c-0.4,0.1-0.9,0.3-1.7,0.4
		c-1.2,0.2-4.3-0.2-5.4-0.3c-0.7-0.1-4.8-0.6-7.6-3.7c-0.3-0.3-0.5-0.6-0.8-1c-0.2-0.3-0.3-0.5-0.5-0.8c0-0.1-0.3-0.2-0.5-0.3
		c-0.6-0.1-4,1.2-4.7,1.4c-0.7,0.2-1.2,0.3-1.9,0.5c-1.1,0.4-1.9,0.8-3,1c-0.2,0-0.5,0.1-0.9,0.1C31.1,383.2,31.3,382,31.3,381.9z
		 M58,375.3l0-0.2c0-0.3,0-0.7-0.2-0.9c-0.3-0.6-0.9-0.8-1-0.8c-0.2-0.1-3.9-0.8-4-0.8c-1.2-0.2-2.4,0.3-2.6,1.7
		c-0.1,0.6,0.1,1.1,0.3,1.5c0.6,0.9,2,1.2,3.8,1.5C55.5,377.4,57.7,377.2,58,375.3z"/>
	<path class="st1" d="M59.8,409.7c-0.3-0.1-4.5-1.6-7.1-2.8c-0.5-0.2-0.9-0.4-1.4-0.6c-1.8-0.8-3.1-1.2-5-2.1
		c-2.6-1.2-3.4-2.1-6-2.3c-0.9,0-1.6,0-2.5-0.1c-1-0.1-1.7-0.2-2.7-0.3c-1.2-0.1-2,0-3.2-0.1c-0.5,0-1.4-0.1-1.8-0.8
		c-0.1-0.1-0.1-0.9-0.1-1c0-0.5,0.1-0.9,0.1-1.4c0-0.7,0-1.3,0-2l0.1-1.6c0.1-2.1,1.9-1.6,3-1.5l0.1,0c0.3,0,0.6,0.1,0.9,0.1
		c0.5,0,0.9,0,1.4,0c0.8,0,1.4,0.3,2.2,0.3c0.9,0,1.6-0.1,2.5,0c0.9,0,1.5,0.1,2.5,0c0.2,0,4.9-1.2,7.5-2.2c1.4-0.5,2.3-1,3.8-1.4
		c2-0.6,3.4-0.9,5.3-1.5c0.9-0.3,1.5-0.6,2.4-0.8c0.3-0.1,0.6-0.1,0.8-0.1c1.3,0.1,1.1,1.5,1.1,1.7c0,0.7-0.2,1.4-0.2,2.1
		c-0.1,1.3-0.1,2.2-0.1,3.4c0,0.7-0.2,1-0.6,1.3c-0.7,0.7-4.6,1.1-5.2,1.2c-1.3,0.3-2.2,0.5-3.5,0.8c-0.6,0.1-1.6,0.2-1.6,0.5
		c0,0.4,0.8,0.5,1.3,0.6c0.9,0.3,1.5,0.5,2.4,0.7c0.4,0.2,0.7,0.3,1.1,0.4c0.6,0.3,1.2,0.3,1.9,0.6c0.5,0.1,2.3,0.5,2.8,0.8
		c0.5,0.4,0.7,0.4,1,1c0.1,0.2,0.1,1,0.1,1.2c0,0.8-0.2,1.4-0.2,2.1c0,0.8,0,1.4,0,2.3c0,0.9-0.2,2-1.5,1.9
		C60.7,410.1,59.9,409.8,59.8,409.7z"/>
	<path class="st1" d="M32.4,440.4c-0.6-1.1-1.1-2.5-1.4-5.1c-0.1-0.9-0.1-1.5-0.1-2.4c-0.1-1.4-0.5-2.3-0.6-3.6
		c-0.1-1.4-0.2-2.9,1.9-3.1c1.7-0.2,2.9-0.1,4.6-0.2c2.7-0.3,4.6-0.7,7.3-1c1.1-0.1,1.8-0.1,2.9-0.2c1.9-0.1,3.2-0.5,5.1-0.6
		c1.7-0.2,2.8-0.2,4.5-0.3c1.4-0.1,2.3-0.4,3.7-0.5c2.1-0.2,2.8,0.4,3,1.8c0.1,1.3,0.2,2.1,0.3,3.3c0.1,1.3,0.2,2.1,0.4,3.3
		c0,0.4,0.1,0.7,0.2,1.1c0.4,4.4-0.8,6.7-2.8,8.8c-0.3,0.4-1.3,1.3-2.5,2.1c-3.7,2.3-10.1,2.9-10.5,2.9
		C44,447.1,35.7,446.3,32.4,440.4z M50.4,437.2c1.2-0.2,6-1,5.5-3.7c0-0.2-0.1-0.4-0.2-0.5c-0.5-0.8-1.6-0.7-2.2-0.6
		c-1.8,0.2-3,0.4-4.8,0.6c-1.2,0.1-2,0.1-3.2,0.2c-0.9,0.1-1.6,0.3-2.6,0.4c-0.7,0.1-1.1,0.1-1.8,0.1c-1,0.1-2.7,0.3-2.5,1.9
		c0.2,1.8,2.5,1.9,2.5,1.9c0.8,0.1,5.4,0.2,6.2,0.1C48.5,437.6,49.3,437.4,50.4,437.2z"/>
	<path class="st1" d="M40.4,470.3c-0.8,0.2-1.3,0.3-2.1,0.5c-0.6,0.1-1.8,0.2-2.2-1.4c-0.1-0.6-0.2-1.1-0.3-1.8l-0.2-1.1
		c-0.2-1.1-0.3-1.9-0.5-3c-0.1-0.6-0.3-1.1-0.4-1.7l-1-4.9c-0.1-0.5-0.2-0.8-0.3-1.2c-0.1-0.6-0.1-2,1.6-2.3
		c1.2-0.2,2.1-0.3,3.3-0.5c1.1-0.2,1.8-0.4,2.9-0.6c0.8-0.2,1.4-0.1,2.2-0.3c0.8-0.2,1.3-0.4,2.1-0.5c1.5-0.3,2.6-0.4,4.1-0.7
		c1.4-0.3,2.7-0.6,4.1-0.9c1.9-0.4,3.2-0.6,5.1-0.9c1.3-0.3,2.2-0.5,3.5-0.8c2.7-0.5,3.5-0.4,3.9,1.7c0.2,1.2,0.2,2.1,0.5,3.3
		c0.1,0.6,0.3,1.1,0.4,1.7c0.3,1.5,0.4,2.6,0.7,4c0.1,0.6,0.3,1.1,0.4,1.7l0.2,0.9c0.1,0.5,0.2,0.9,0.3,1.4c0.3,1.4-0.8,1.7-1.3,1.8
		c-0.8,0.2-1.6,0.2-2.4,0.3c-1.2,0.2-3.4,1.2-3.8-1.1l-0.1-0.5c-0.1-0.6-0.2-1-0.3-1.5c-0.1-0.7-0.1-1.3-0.3-2.1
		c-0.5-2.5-1.3-2.5-2.9-2.2c-1.6,0.3-2.3,1-2.1,2.1c0.1,0.5,0.3,0.9,0.4,1.4l0,0.1c0.1,0.7,0.1,1.2,0.3,1.8c0.1,0.6,0.2,1,0.3,1.5
		c0.4,1.9-0.9,2.1-1.6,2.2c-0.7,0.1-1.2,0.2-1.9,0.3c-0.7,0.1-1.1,0.3-1.8,0.4c-1.8,0.4-2.2-1-2.3-1.6c-0.3-1.4-0.3-2.4-0.6-3.9
		c-0.5-2.5-2-2-3-1.9l-0.6,0.1c-0.2,0-1.1,0.2-1.4,0.4c-1.2,0.9-0.7,1.5-0.5,3.2c0.1,0.8,0.1,1.4,0.3,2.2c0.1,0.7,0.4,1.2,0.5,1.9
		c0.1,0.5,0.1,1.7-1.4,2.1C41.7,470.1,41.2,470.1,40.4,470.3z"/>
	<path class="st1" d="M66,484c-0.1-0.5-0.2-0.8-0.3-1.2c-0.4-1.3-1.1-1.5-2.9-1c-1.5,0.4-2.5,0.9-4.1,1.3c-1.8,0.5-3.1,0.8-5,1.4
		c-1.7,0.5-2.8,0.9-4.5,1.4c-0.9,0.3-1.9,0.5-2.9,0.8c-0.8,0.2-1.4,0.4-2.2,0.7c-0.5,0.2-0.8,0.4-1.3,0.5c-1.4,0.4-1.9-0.9-2-1.3
		c-0.2-0.5-0.2-0.9-0.3-1.5c-0.2-0.8-0.3-1.3-0.5-2c-0.2-0.6-0.4-1.1-0.6-1.7c-0.3-0.9-0.1-1.7,1.4-2.1c1.5-0.4,2.5-0.5,4-0.9
		c1.4-0.4,2.3-0.8,3.7-1.2c1.6-0.5,2.9-0.6,4.5-1.1c1.2-0.3,1.9-0.7,3.1-1.1c2.8-0.9,5.3-0.8,6-2.2c0.2-0.2,0.1-0.4,0.2-0.5
		c0.1-0.4-0.1-0.9-0.1-1.2c-0.1-0.4-0.2-0.6-0.3-0.9c-0.4-1.2,0.4-1.8,0.9-1.9c1.1-0.3,2-0.5,3.1-0.8c0.8-0.2,1.3-0.5,2-0.7
		c1.1-0.3,1.7,0,2,1.1c0.3,1,0.4,1.8,0.7,2.8c0.4,1.5,1,3,1.5,4.6l0.1,0.5c0.4,1.3,0.5,2.2,0.9,3.5c0.2,0.8,0.5,1.3,0.7,2.1
		c0.5,1.8-0.8,2.1-2,2.5c-0.9,0.3-1.5,0.4-2.4,0.6c-0.6,0.2-1,0.3-1.6,0.5C67.7,485.1,66.4,485.4,66,484z"/>
	<path class="st1" d="M50.7,514.1c-0.4-1.1-0.6-1.8-1-2.9c-0.3-0.9-0.7-1.5-1-2.3c-0.6-1.6,0.7-1.8,1.1-2.1c0.4-0.2,2.8-1.2,3-1.8
		c0.1-0.3,0.1-0.1,0.1-0.5c0-0.1-0.6-1.8-1-2.8c-0.6-1.7-1-1.4-2.1-1.2c-0.4,0.1-2.9,1-3.4,0.9c-0.5-0.2-0.8-0.3-1.1-1.1
		c-0.3-0.8-0.5-1.4-0.8-2.2c-0.3-0.9-0.7-1.7-1.1-2.6c-0.3-0.8-0.6-1.7,0.6-2.2c0.4-0.1,1.2-0.3,2.2-0.5c1.2-0.3,2-0.5,3.2-0.7
		c1.1-0.2,1.8-0.3,2.9-0.5c1.5-0.3,2.6-0.6,4.1-0.9c1.5-0.3,2.6-0.4,4.1-0.8c1.1-0.3,1.8-0.5,2.9-0.7c1.3-0.2,2.2-0.3,3.5-0.5
		c2-0.4,3.3-0.9,5.3-1.1c1.3-0.2,2.5-0.3,3.1,0c0.5,0.3,0.9,0.8,1.2,1.7c0.6,1.5,0.8,2.6,1.4,4.1c0.4,1.1,0.9,2.2,1.3,3.3l0.1,0.2
		c0.4,1.1,0.4,1.6-0.2,2.3c-0.1,0.1-0.4,0.3-0.4,0.4c0,0-3.8,2.4-3.8,2.4c-1.3,0.8-2.3,1.2-3.6,2c-1.6,1-2.7,1.6-4.3,2.6
		c-1.3,0.8-2.2,1.4-3.5,2.1c-1.7,1-3,1.4-4.7,2.4c-2.5,1.5-5.5,3.5-6.1,3.8C53,514.9,51.3,515.5,50.7,514.1z M67.3,497.9
		c0.7-0.4,1.6-0.8,1.7-0.9c0.3-0.2,0.4-0.5,0.3-0.6c-0.1-0.1-0.3-0.2-0.6-0.2c-0.3,0-1.8,0.3-2,0.3c-0.6,0.1-1,0.1-1.6,0.2
		c-0.4,0.1-4.1,0.9-4.4,1c-1.4,0.5-1.2,1.2-1,1.9c0.2,0.6,0.6,1.7,2.2,1.1C64.3,499.8,66.7,498.2,67.3,497.9z"/>
	<path class="st1" d="M56.6,526.2c-0.3-0.6-0.4-1.1-0.7-1.8c-0.5-1.1-1-1.7-1.5-2.7c-1-2.1,0-2.4,1-2.9l1.7-0.8
		c1-0.5,1.8-0.7,2.7-1.1l1.7-0.8c2.2-1,3.6-1.9,5.7-2.9l5.2-2.5c1.7-0.8,2.9-1.2,4.5-2l2.9-1.4c0.7-0.3,1.2-0.7,1.9-1.1
		c1.4-0.7,1.9,0.2,2.4,1.2c0.5,1,0.8,1.7,1.2,2.7c0.4,0.8,0.8,1.4,1.2,2.2c0.4,0.9-0.6,1.5-1.1,1.8c-0.7,0.3-1.2,0.5-1.9,0.7
		c-1.1,0.5-1.8,0.9-2.8,1.4l-6.6,3.1c-1,0.5-1.7,0.7-2.7,1.2l-2.1,1c-1.7,0.8-2.8,1.5-4.4,2.3c-1.3,0.6-2.2,0.9-3.4,1.5
		c-1.2,0.6-1.9,1.1-3.1,1.7C58,527.1,57.2,527.4,56.6,526.2z"/>
	<path class="st1" d="M69.4,545.5L69.4,545.5c-0.5,0.3-1.7,1.3-2.6-0.3c-0.4-0.8-0.7-1.4-1.1-2.1c-0.4-0.7-0.7-1.2-1.1-1.9
		c-0.4-0.7-0.6-1.2-1-1.8l-1.7-3.1c-0.5-0.9-0.9-1.5-1.4-2.4c-0.8-1.5,0.2-2.2,0.7-2.5l0.3-0.2c1.5-0.9,2.6-1.3,4.2-2.2
		c1.6-0.9,2.7-1.7,4.3-2.6c1.3-0.7,2.3-1.1,3.6-1.8c1-0.6,1.7-1.1,2.6-1.6c0.7-0.4,1.4-0.7,2-1c1-0.6,1.7-1.1,2.7-1.7
		c1-0.5,1.8-0.8,2.8-1.4c1.1-0.6,2-1.3,3.1-1.8l0.2-0.1c0.4-0.2,1.7-1,2.5,0.6c0.4,0.7,0.6,1.3,1,2.1c0.4,0.7,0.9,1.4,1.3,2.2
		c0.4,0.7,1,1.8-0.2,2.4c-0.5,0.3-0.9,0.4-1.5,0.7c-1.2,0.6-2,1-3.1,1.6c-1.1,0.6-1.8,1.2-2.9,1.8c-0.8,0.5-1.7,0.8-2.5,1.3
		c-0.7,0.4-1.3,0.9-1.9,1.3c-1.2,0.7-2.1,1.1-3.3,1.7c-0.7,0.4-1.2,0.8-2,1.2c-0.3,0.2-0.7,0.4-1.1,0.6c-2.2,1.2-1.5,2.9-1,3.6
		c0.4,0.7,0.6,1.2,1,1.8c0.2,0.3,0.4,0.5,0.5,0.9c0.2,0.4,0.4,0.9,0.2,1.5c-0.2,0.8-2.5,2-3.1,2.3C70.4,545,70,545.2,69.4,545.5z"/>
	<path class="st1" d="M73.2,555.1l-1.2-1.8c-1.3-1.9-2.4-3.2-0.8-4.3c0.4-0.3,0.7-0.4,1.1-0.7c0.6-0.4,1-0.7,1.6-1.1
		c0.4-0.3,0.7-0.5,1.2-0.7c0.7-0.4,1.8-1.1,2.8,0.5c0.3,0.5,0.5,0.9,0.9,1.4c0.5,0.8,0.9,1.3,1.4,2.1c1,1.6-0.4,2.3-1.3,2.9
		c-0.7,0.4-1.2,0.7-1.8,1.1c-0.4,0.3-0.7,0.6-1.2,0.9C74.5,556.5,73.6,555.8,73.2,555.1z"/>
	<path class="st1" d="M90.7,572.7c-0.6,0.5-1.1,0.9-1.7,1.3c-0.4,0.3-1.6,1-2.6-0.4c-0.4-0.5-0.6-0.9-1-1.5l-0.7-0.9
		c-0.7-0.9-1.1-1.6-1.8-2.5c-0.4-0.5-0.7-0.9-1.1-1.4l-3-4c-0.3-0.3-0.6-0.6-0.8-1c-0.3-0.4-0.9-1.7,0.4-2.7c1-0.7,1.8-1.2,2.7-1.9
		c0.9-0.7,1.5-1.2,2.4-1.8c0.6-0.5,1.2-0.7,1.8-1.2c0.6-0.5,1-0.9,1.7-1.4c1.2-0.9,2.2-1.5,3.4-2.4c1.1-0.8,2.2-1.7,3.3-2.6
		c1.5-1.2,2.7-1.9,4.2-3.1c1.1-0.8,1.8-1.5,2.8-2.2c2.2-1.6,3-1.9,4.3-0.2c0.7,1,1.1,1.8,1.9,2.8c0.3,0.5,0.7,0.9,1.1,1.4
		c0.9,1.2,1.4,2.1,2.3,3.3c0.4,0.5,0.8,0.8,1.1,1.4l0.6,0.7c0.3,0.4,0.6,0.7,0.9,1.1c0.9,1.2,0,1.9-0.4,2.2c-0.6,0.5-1.4,0.8-2,1.3
		c-1,0.8-2.5,2.5-3.9,0.7l-0.3-0.4c-0.3-0.4-0.6-0.8-1-1.2c-0.5-0.6-0.6-1.1-1.1-1.7c-1.6-2.1-2.2-1.7-3.5-0.7c-1.3,1-1.6,1.9-1,2.8
		c0.3,0.4,0.6,0.7,0.9,1.1l0.1,0.1c0.4,0.6,0.6,1,1,1.5c0.3,0.5,0.6,0.8,0.9,1.2c1.2,1.5,0,2.3-0.5,2.6c-0.6,0.5-1,0.7-1.6,1.1
		c-0.6,0.4-0.9,0.7-1.5,1.2c-1.5,1.1-2.4,0.1-2.7-0.4c-0.9-1.2-1.3-2.1-2.2-3.2c-1.6-2.1-2.7-1-3.5-0.4l-0.4,0.3
		c-0.2,0.1-0.9,0.7-1.1,0.9c-0.7,1.3,0,1.6,0.9,3.1c0.4,0.7,0.7,1.2,1.2,1.9c0.5,0.6,0.9,0.9,1.3,1.5c0.3,0.4,0.9,1.5-0.3,2.5
		C91.9,572,91.4,572.3,90.7,572.7z"/>
	<path class="st1" d="M125.9,575.4c-1.2,0.7-1.9,1.4-3,2.2c-0.4,0.3-0.7,0.5-1.1,0.7c-0.3,0.2-0.5,0.5-0.9,0.7
		c-1.1,0.7-1.9,1.1-3,1.7c-1.1,0.6-1.8,1.2-2.8,1.9c-0.9,0.6-1.5,1-2.4,1.5c-1.1,0.7-1.8,1.3-2.9,1.9c-1.3,0.7-2.2,1.2-3.6,1.9
		c-1.9,1.1-3.5,2.4-4.6,2.2c-0.7-0.1-1-0.6-1.4-1l-5.2-5.8c-0.5-0.5-0.5-0.7-0.4-1.2c0.1-1,5.3-7.6,5.7-8.1c1.4-1.9,2.3-3.3,3.8-5.1
		c0.4-0.5,0.7-0.7,1.1-1.2c1-1.4,1.6-2.4,2.7-3.8c1.1-1.4,2-2.3,3.1-3.8c1.4-1.8,1.4-2.1,2.5-3c0.5-0.4,1.4-1.2,2.2-0.3
		c0.5,0.5,0.8,1,1.3,1.5c1,1.1,1.8,1.9,2.9,3.1c1.1,1.2-0.2,2-1.5,3.4c-1.2,1.3-1.9,2.3-3.1,3.6c-0.9,1-1.7,1.6-2.6,2.6
		c-1,1.1-1.6,2-2.5,3.1c-0.7,0.8-1.2,1.3-1.9,2.1c0,0-1.8,1.8-1.4,2.2c0.4,0.4,2.6-1.8,4.1-2.8c1.1-0.8,1.9-1.1,2.9-1.9
		c1.5-1.1,2.4-2,3.9-3.1c1.3-0.9,2.3-1.5,3.6-2.4c0.8-0.6,2-1.5,2.2-1.6c0.4-0.1,0.9-0.3,1.4,0.3c0.8,0.8,1.2,1.5,1.9,2.4
		c0.5,0.6,1,1,1.5,1.6c0.3,0.4,0.6,0.6,0.9,0.9c0.7,0.8,0.3,1.3,0,1.6C128.2,574.3,126.9,574.8,125.9,575.4z"/>
	<path class="st1" d="M124.5,607.3c-0.5,0.6-0.9,1-1.4,1.6c-0.4,0.4-1.4,1.2-2.6,0.1c-0.5-0.4-0.8-0.8-1.3-1.2l-0.8-0.8
		c-0.8-0.8-1.4-1.4-2.2-2.1c-0.5-0.4-0.9-0.7-1.3-1.2l-3.7-3.4c-0.4-0.3-0.7-0.5-1-0.8c-0.4-0.4-1.2-1.5-0.1-2.8
		c0.8-0.9,1.5-1.5,2.3-2.4c0.8-0.8,1.2-1.4,2-2.3c0.5-0.6,1.1-0.9,1.6-1.5c0.5-0.6,0.8-1.1,1.4-1.7c1-1.1,1.8-1.9,2.9-3
		c0.9-1,1.8-2.1,2.7-3.1c1.3-1.5,2.3-2.4,3.6-3.8c0.9-1,1.5-1.8,2.4-2.7c1.8-2,2.6-2.4,4.2-1c0.9,0.8,1.4,1.6,2.3,2.4
		c0.4,0.4,0.9,0.8,1.3,1.1c1.1,1,1.8,1.8,2.9,2.9c0.5,0.4,0.9,0.7,1.4,1.1l0.7,0.6c0.4,0.3,0.7,0.6,1.1,0.9c1.1,1,0.4,1.8,0,2.2
		c-0.5,0.6-1.2,1.1-1.7,1.7c-0.9,0.9-2,2.9-3.7,1.4l-0.4-0.3c-0.4-0.4-0.8-0.6-1.2-1c-0.6-0.5-0.8-1-1.4-1.5c-1.9-1.7-2.5-1.2-3.6,0
		c-1.1,1.2-1.2,2.2-0.4,2.9c0.4,0.3,0.7,0.5,1.1,0.9l0.1,0.1c0.5,0.5,0.8,0.9,1.3,1.3c0.4,0.4,0.8,0.6,1.1,1c1.4,1.3,0.5,2.2,0,2.7
		c-0.5,0.6-0.9,0.9-1.4,1.4c-0.5,0.5-0.8,0.9-1.2,1.4c-1.2,1.4-2.3,0.5-2.8,0.1c-1.1-1-1.7-1.8-2.8-2.8c-1.9-1.7-2.8-0.5-3.5,0.3
		l-0.4,0.4c-0.2,0.2-0.8,0.8-0.9,1.1c-0.4,1.4,0.3,1.6,1.5,2.9c0.6,0.6,0.9,1.1,1.5,1.7c0.6,0.5,1,0.7,1.6,1.2
		c0.3,0.3,1.1,1.3,0.1,2.5C125.5,606.4,125,606.7,124.5,607.3z"/>
	<path class="st1" d="M143.2,626.5l-0.2-0.1c-0.6-0.5-1-0.9-1.6-1.3c-0.8-0.6-1.2-0.9-2-1.4c-0.4-0.3-0.8-0.5-1.2-0.8
		c-1.2-0.9-0.6-1.9-0.3-3.1c0.3-1.2,0.3-2.1,0.6-3.2c0.2-0.8,0.4-1.3,0.5-2.1c0.1-0.8,0.3-1.5-0.1-1.8c-0.6-0.4-1.1,0.4-1.2,0.6
		c-0.6,0.8-0.9,1.3-1.5,2c-0.4,0.6-0.7,0.9-1.2,1.5c-0.4,0.5-0.6,1-1,1.5c-0.6,0.8-1.2,0.6-1.7,0.3c-0.8-0.6-1.3-1.1-2.1-1.7
		c-0.9-0.7-1.8-1.1-2.7-1.8c-0.8-0.6-0.8-1.5-0.3-2.2c0.4-0.6,0.8-0.9,1.2-1.4c0.7-0.9,1.3-1.6,2-2.5c1.4-1.9,2.2-3.3,3.7-5.2
		s2.6-3.2,4-5.1c0.9-1.2,1.5-2.2,2.4-3.4c1-1.3,1.8-2.2,2.7-3.5c0.6-0.8,0.9-1.4,1.5-2.2c0.6-0.8,1.7-1.7,3.4-0.4
		c0.8,0.6,1.3,1.1,2,1.6c1.9,1.4,3.3,2.3,5.2,3.7c2.2,1.6,4.9,4.2,4.4,8.4c-0.1,0.3-0.2,0.8-0.3,1c-0.1,0.4-0.2,0.9-0.5,1.7
		c-0.4,1.1-2.2,3.7-2.8,4.6c-0.4,0.6-2.8,4-6.8,5c-0.5,0.1-0.8,0.2-1.2,0.2c-0.4,0.1-0.6,0-0.9,0.1c-0.1,0-0.3,0.1-0.5,0.3
		c-0.4,0.5-0.8,4.1-1,4.8c-0.2,0.7-0.3,1.2-0.4,1.9c-0.2,1.2-0.2,2-0.5,3.2c-0.1,0.2-0.1,0.5-0.4,0.8
		C144.2,627.3,143.3,626.5,143.2,626.5z M150,599.9l-0.2-0.1c-0.3-0.2-0.6-0.3-0.9-0.3c-0.7,0-1.1,0.4-1.2,0.5
		c-0.1,0.1-2.5,3-2.6,3.2c-0.7,0.9-0.9,2.2,0.3,3.1c0.5,0.4,1,0.5,1.4,0.5c1.1-0.1,2-1.2,3.1-2.6C150.7,603.1,151.5,601,150,599.9z"
		/>
	<path class="st1" d="M181.2,614.5c-0.2,0.2-3.6,3.2-5.8,4.9c-0.4,0.3-0.8,0.6-1.2,0.9c-1.5,1.3-2.6,2.2-4.2,3.4
		c-2.3,1.7-3.5,2-4.9,4.2c-0.5,0.8-0.8,1.4-1.3,2.1c-0.6,0.8-1,1.4-1.5,2.2c-0.6,1-1,1.8-1.6,2.8c-0.3,0.4-0.7,1.1-1.5,1.3
		c-0.2,0-0.8-0.3-1-0.4c-0.4-0.3-0.7-0.5-1.2-0.8c-0.6-0.4-1.1-0.6-1.7-0.9l-1.4-0.8c-1.8-1.1-0.5-2.4,0.1-3.4l0.1-0.1
		c0.2-0.3,0.4-0.5,0.5-0.7c0.3-0.4,0.4-0.8,0.6-1.2c0.4-0.7,0.9-1.1,1.3-1.8c0.5-0.8,0.7-1.4,1.2-2.2c0.5-0.8,0.8-1.3,1.2-2.2
		c0.1-0.2,1.2-4.8,1.7-7.7c0.2-1.5,0.3-2.5,0.6-4c0.4-2,0.8-3.4,1.2-5.4c0.2-0.9,0.2-1.6,0.4-2.5c0.1-0.3,0.2-0.6,0.3-0.7
		c0.7-1.1,1.9-0.3,2-0.2c0.6,0.4,1.2,0.8,1.8,1.2c1.1,0.7,1.9,1.1,3,1.7c0.6,0.4,0.8,0.6,0.9,1.1c0.2,1-1.2,4.5-1.4,5.2
		c-0.4,1.3-0.6,2.2-1,3.4c-0.2,0.6-0.5,1.5-0.3,1.7c0.3,0.2,0.8-0.5,1.2-0.9c0.7-0.6,1.1-1.1,1.8-1.7c0.3-0.3,0.6-0.5,0.9-0.8
		c0.5-0.4,0.8-0.9,1.4-1.4c0.3-0.4,1.6-1.8,2-2.1c0.6-0.3,0.7-0.5,1.4-0.4c0.3,0,1,0.4,1.1,0.5c0.7,0.4,1.1,0.8,1.8,1.2
		c0.7,0.4,1.3,0.6,2,1.1c0.8,0.5,1.6,1.1,1,2.2C181.9,613.9,181.3,614.5,181.2,614.5z"/>
	<path class="st1" d="M207.1,627.5c-0.5,1.2-0.8,2-1.3,3.2c-0.1,0.3-0.7,1.7-2.2,1.1c-0.6-0.2-0.8-0.7-1.4-0.9
		c-0.3-0.1-2.2-0.2-2.6-0.1c-1.8,0.5-3.4,2.7-4.7,5.8c-1.1,2.6-1.2,4.7-0.5,6.2c0.1,0.2,1.2,2.1,2.3,2.6c0.4,0.2,0.8,0.1,1.2,0.3
		c0.1,0,0.5,0.3,0.7,0.9c0.1,0.3,0,0.6-0.2,1.1c-0.4,0.8-0.7,1.3-1,2.1c-0.5,1.1-0.7,1.9-1.2,3c-0.8,1.8-2.2,1.2-2.7,1
		c-0.3-0.1-3.2-1.5-3.5-1.7c-0.1-0.1-2.2-1.5-3.2-3c-0.9-1.4-1.3-3-1.4-3.4c-0.1-0.3-0.4-1.4-0.4-1.7c0-0.2-0.3-3.5,0.1-5.3
		c0.2-0.9,0.7-2.3,1-3.1c0.5-1.4,0.7-2.3,1.3-3.7c1.4-3.3,3.5-6.1,4.3-7c0.4-0.4,2-2.2,4.6-3c0.2-0.1,3.8-0.8,4-0.8
		c1.7-0.2,4.3,0.6,5.6,1.1l0.3,0.1c1,0.4,2.7,1,2,2.7C207.8,626,207.4,626.6,207.1,627.5z"/>
	<path class="st1" d="M216.4,659.4L216.4,659.4c-0.2,0.6-0.4,2.1-2.1,1.5c-0.8-0.3-1.4-0.6-2.2-0.8c-0.8-0.3-1.3-0.4-2.1-0.6
		c-0.8-0.3-1.2-0.5-1.9-0.7l-3.3-1.1c-1-0.3-1.7-0.5-2.7-0.8c-1.6-0.5-1.3-1.7-1.1-2.3l0.1-0.4c0.6-1.6,1.1-2.8,1.6-4.4
		c0.6-1.8,0.9-3.1,1.5-4.8c0.5-1.4,1-2.3,1.5-3.7c0.4-1.1,0.5-1.9,0.9-3c0.2-0.7,0.6-1.4,0.8-2.1c0.4-1.1,0.6-1.9,0.9-3.1
		c0.4-1.1,0.8-1.8,1.1-2.9c0.4-1.2,0.7-2.3,1.1-3.4l0.1-0.2c0.2-0.4,0.6-1.8,2.3-1.3c0.8,0.3,1.3,0.6,2.2,0.9
		c0.8,0.3,1.6,0.5,2.4,0.7c0.8,0.3,1.9,0.6,1.5,1.9c-0.2,0.6-0.4,0.9-0.6,1.5c-0.5,1.2-0.9,2.1-1.3,3.3c-0.4,1.2-0.6,2.1-1,3.3
		c-0.3,0.9-0.7,1.7-1,2.7c-0.2,0.7-0.4,1.5-0.6,2.2c-0.4,1.3-0.8,2.2-1.3,3.5c-0.3,0.8-0.4,1.4-0.7,2.3c-0.1,0.4-0.3,0.7-0.4,1.1
		c-0.8,2.4,0.8,3.1,1.7,3.4c0.8,0.3,1.2,0.5,2,0.7c0.4,0.1,0.6,0.2,1,0.3c0.4,0.1,0.9,0.4,1.2,0.9c0.4,0.7-0.6,3.2-0.8,3.8
		C216.8,658.3,216.6,658.7,216.4,659.4z"/>
	<path class="st1" d="M241.6,660.5c0,0.2-0.7,1.7-1.6,2.7c-0.9,1.1-2.4,2.2-3.9,2.6c-0.4,0.1-0.9,0.1-1.6,0.2
		c-1.7,0.2-2.6,0.1-4.1-0.3c-2.7-0.6-6.6-2.2-8.1-5.8c-0.5-1.2-0.7-3.9-0.6-4.9c0-0.9,0.5-3.9,0.7-4.7c0.3-1.2,0.6-2.1,0.8-3.3
		c0.2-1,0.3-1.7,0.6-2.6c1.5-6.5,2.7-9.9,6.8-11.7c2.2-0.9,3.5-1.1,6.9-0.3l0.3,0.1c1.6,0.4,3.2,1,4.4,2c0.7,0.5,2.5,2.6,2.9,3.4
		c1.2,2.3,1.1,6.1-0.1,11C243.7,655.2,243.4,657.4,241.6,660.5z M236.6,648c0.1-0.8,0.4-1.4,0.6-2.2c0.2-0.7,0.6-3.3,0.4-4.1
		c-0.2-0.6-0.5-1.3-1.5-1.6c-0.1,0-0.2,0-0.3,0c-0.3-0.1-0.6,0-0.9,0.1c-1,0.4-1.5,1.4-1.9,3c-0.3,1.2-0.4,2.2-0.7,3.4
		c-0.6,2.4-1.1,4.1-1.7,6.5c-0.3,1.1-1.2,4.2,1.1,4.8c2.1,0.5,2.7-1.4,3-2.7c0.2-0.8,0.3-1.3,0.5-2.1c0.3-1.1,0.6-1.8,0.9-3
		C236.3,649.4,236.4,648.8,236.6,648z"/>
	<path class="st1" d="M272.8,642.5c-0.3,1.3-0.4,2.2-0.5,3.5c-0.2,1.3-0.1,2.3-0.3,3.6c-0.2,1.7-0.5,2.9-0.7,4.6
		c-0.3,2.2-0.4,3.7-0.6,5.9c-0.1,1-0.3,1.8-0.5,2.8c-0.1,0.7-0.2,5.1-4.9,7.2c-0.6,0.3-1.8,0.7-3.2,0.8c-1.5,0.1-4.2-0.2-4.2-0.2
		c-3-0.4-4.5-1.4-5.8-2.4c-0.9-0.7-1.2-1-1.6-1.6c-0.4-0.5-0.7-1.4-0.9-1.8c-0.4-1.2-0.3-3.4-0.1-4.6c0.2-2,0.6-3.3,0.8-5.2
		c0.3-2.7,0.4-4.6,0.7-7.2c0.2-1.5,0.4-2.6,0.6-4.2c0.2-1.7,0.3-2.9,0.5-4.6c0.2-1.9,0.5-3,2-2.8c1.1,0.1,1.8,0.4,3,0.6
		c0.6,0.1,1,0,1.6,0.1c1,0.1,2.3,0.2,2.1,1.9c-0.2,1.4-0.5,2.5-0.6,3.9c-0.1,0.9-0.1,1.4-0.2,2.3c-0.1,0.8-0.2,1.3-0.3,2.1l-0.2,1.5
		c-0.2,1.4-0.5,2.9-0.7,4.3c-0.1,1.1-0.2,1.9-0.3,3c-0.1,1.1-0.3,2.2-0.5,3.3l0,0.2c-0.1,1.1-0.4,3.1,1.5,3.3c0.5,0.1,1-0.1,1.2-0.1
		c1.3-0.6,1.4-1.6,1.7-3.6c0.3-2.3,0.6-3.9,0.8-6.3c0.2-2,0.2-3.4,0.5-5.4c0.2-1.8,0.5-2.9,0.7-4.7c0.1-0.6,0.1-1.2,0.2-1.8
		c0.1-1.1,0.1-3.3,2.1-3c1.1,0.1,1.8,0.4,2.9,0.5c0.9,0.1,1.5,0.1,2.5,0.2c1.5,0.2,1.3,1.6,1.3,2
		C273.1,641.2,272.9,641.7,272.8,642.5z"/>
	<path class="st1" d="M289.5,671.5c-1.2,0.5-2.7,0.7-5.2,0.6c-0.9,0-1.5-0.2-2.4-0.2c-1.4-0.1-2.3,0.1-3.7,0.1
		c-1.5-0.1-2.9-0.2-2.8-2.3c0.1-1.7,0.4-2.9,0.5-4.6c0.1-2.7,0-4.7,0.1-7.4c0.1-1.1,0.1-1.8,0.2-2.9c0.1-1.9,0-3.2,0.1-5.1
		c0.1-1.7,0.2-2.8,0.3-4.5c0.1-1.4,0-2.4,0-3.8c0.1-2.1,0.8-2.7,2.2-2.7c1.3,0.1,2.1,0.2,3.3,0.2c1.3,0.1,2.1,0.1,3.3,0.1
		c0.4,0,0.8,0,1.1,0c4.5,0.2,6.5,1.7,8.3,4c0.3,0.4,1.1,1.5,1.7,2.8c1.7,4,1.4,10.5,1.3,10.8C297.8,660.9,295.8,669,289.5,671.5z
		 M289,653.1c0-1.2-0.1-6.1-2.8-6c-0.2,0-0.4,0-0.6,0.2c-0.9,0.4-0.9,1.5-1,2.1c-0.1,1.8,0,3.1-0.1,4.8c-0.1,1.2-0.2,2-0.3,3.2
		c0,0.9,0.1,1.6,0,2.6c0,0.7-0.1,1.1-0.1,1.8c0,1-0.1,2.7,1.6,2.8c1.8,0,2.3-2.1,2.3-2.2c0.2-0.8,1-5.4,1.1-6.1
		C289.1,655.1,289.1,654.2,289,653.1z"/>
	<path class="st1" d="M317.3,649.6c-0.4,0-0.8-0.1-1.3-0.2l-1.3-0.2c-0.7-0.1-1.1-0.2-1.8-0.3l-0.1,0c-1.1-0.1-1.5,0.4-1.5,1l-0.1,1
		c-0.1,0.5-0.1,0.8-0.2,1.3c-0.2,1.5,1.4,1.6,1.6,1.7c0.5,0.1,0.9,0.1,1.4,0.2c0.4,0,0.6,0.1,1,0.2c0.4,0,0.8,0,1.1,0
		c1.3,0.2,1.4,1.2,1.3,1.6c-0.1,0.5-0.2,0.8-0.2,1.3l-0.1,0.9c-0.3,2.6-0.2,4.1-2.5,3.9c-1-0.1-1.7-0.4-2.6-0.5
		c-1.8-0.2-2.1,1.2-2.1,1.8l-0.3,2.3c-0.1,1.1-0.2,1.9-0.3,3c-0.1,0.5-0.2,0.8-0.3,1.3c-0.1,0.8,0,1.3-0.1,2.1l0,0.1
		c-0.1,0.5-0.3,1.8-1.9,1.6c-1-0.1-1.7-0.3-2.8-0.4c-0.9-0.1-1.5-0.1-2.4-0.2c-1.5-0.2-1.6-1.3-1.5-1.8c0.2-1.4,0.4-2.5,0.6-3.9
		c0.4-2.7,0.4-4.6,0.8-7.3c0.2-2,0.6-3.4,0.8-5.3c0.2-1.9,0.2-3.2,0.5-5.1c0.2-1.6,0.4-2.8,0.6-4.5c0.1-0.9,0.1-1.6,0.2-2.6
		c0.2-2.1,1.3-2.4,2.4-2.2l1.5,0.2c1.7,0.2,2.9,0.2,4.6,0.4c0.9,0.1,1.5,0.3,2.5,0.4c1.4,0.2,2.3,0.2,3.7,0.4c0.4,0,1.4,0.2,1.2,1.4
		c0,0.4-0.1,0.6-0.2,1l-0.1,0.8c-0.1,0.9-0.1,1.6-0.2,2.5C319.2,648.7,319.1,649.8,317.3,649.6z"/>
	<path class="st1" d="M326,676.6c-0.7-0.1-1.2-0.3-1.9-0.4c-1.2-0.2-2-0.2-3.1-0.4c-2.3-0.4-2-1.4-1.8-2.5l0.3-1.9
		c0.2-1.1,0.5-1.8,0.7-2.9l0.3-1.9c0.4-2.4,0.6-4,1-6.3l1-5.7c0.3-1.8,0.7-3.1,1-4.9l0.6-3.2c0.1-0.8,0.1-1.4,0.2-2.1
		c0.3-1.5,1.3-1.4,2.4-1.2c1.1,0.2,1.8,0.4,2.9,0.6c0.9,0.2,1.5,0.2,2.5,0.3c1,0.2,0.9,1.4,0.8,1.9c-0.1,0.7-0.3,1.2-0.5,2
		c-0.3,1.1-0.3,1.9-0.6,3.1l-1.3,7.2c-0.2,1.1-0.4,1.8-0.6,2.8l-0.4,2.3c-0.3,1.8-0.4,3.1-0.7,5c-0.2,1.4-0.6,2.3-0.8,3.7
		c-0.2,1.3-0.2,2.2-0.4,3.5C327.6,676,327.3,676.8,326,676.6z"/>
	<path class="st1" d="M349.1,678c-0.2,0.8-0.3,1.3-0.5,2.1c-0.1,0.5-0.6,1.7-2.2,1.3c-0.6-0.2-1.1-0.3-1.7-0.5l-1.1-0.3
		c-1.1-0.3-1.8-0.5-2.9-0.8c-0.6-0.2-1.1-0.2-1.7-0.4l-4.9-1.2c-0.5-0.1-0.8-0.1-1.3-0.2c-0.5-0.1-1.8-0.8-1.4-2.4
		c0.3-1.2,0.6-2,0.9-3.2c0.3-1.1,0.4-1.8,0.7-2.9c0.2-0.8,0.5-1.3,0.7-2.1c0.2-0.8,0.2-1.3,0.4-2.1c0.4-1.5,0.7-2.5,1.1-4
		c0.3-1.4,0.6-2.7,0.9-4.1c0.4-1.9,0.9-3.2,1.3-5c0.3-1.3,0.5-2.3,0.8-3.5c0.6-2.6,1.2-3.3,3.2-2.8c1.2,0.3,2,0.7,3.2,1
		c0.5,0.1,1.2,0.2,1.7,0.4c1.5,0.4,2.5,0.8,3.9,1.1c0.6,0.2,1.1,0.2,1.8,0.3l0.9,0.2c0.5,0.1,0.9,0.2,1.4,0.3
		c1.4,0.3,1.2,1.5,1.1,1.9c-0.2,0.8-0.5,1.5-0.7,2.3c-0.3,1.2-0.3,3.5-2.6,3l-0.5-0.1c-0.5-0.1-1-0.2-1.5-0.3
		c-0.7-0.2-1.2-0.4-2-0.6c-2.5-0.6-2.8,0.1-3.2,1.7c-0.4,1.5,0,2.5,1,2.8c0.5,0.1,0.9,0.1,1.4,0.2l0.1,0c0.7,0.2,1.1,0.4,1.8,0.5
		c0.5,0.1,1,0.2,1.5,0.3c1.9,0.5,1.5,1.7,1.3,2.3c-0.2,0.7-0.3,1.2-0.5,1.9c-0.2,0.7-0.2,1.2-0.4,1.8c-0.4,1.8-1.8,1.5-2.4,1.4
		c-1.4-0.3-2.3-0.8-3.7-1.1c-2.5-0.6-2.7,0.9-2.9,1.9l-0.1,0.5c-0.1,0.2-0.3,1.1-0.2,1.4c0.3,1.4,1,1.3,2.7,1.8
		c0.8,0.3,1.3,0.5,2.1,0.7c0.7,0.2,1.3,0.2,1.9,0.3c0.5,0.1,1.6,0.6,1.3,2.1C349.5,676.7,349.3,677.2,349.1,678z"/>
	<path class="st1" d="M367.4,685.8L367.4,685.8c-0.2,0.6-0.4,2.1-2.1,1.5c-0.8-0.3-1.4-0.6-2.2-0.8c-0.8-0.2-1.3-0.4-2.1-0.6
		c-0.8-0.2-1.2-0.5-1.9-0.7l-3.3-1.1c-1-0.3-1.7-0.5-2.7-0.8c-1.6-0.5-1.3-1.7-1.1-2.3l0.1-0.4c0.5-1.6,1.1-2.8,1.6-4.4
		c0.6-1.8,0.9-3.1,1.4-4.9c0.5-1.4,1-2.3,1.4-3.7c0.4-1.1,0.5-1.9,0.9-3c0.2-0.7,0.6-1.4,0.8-2.1c0.4-1.1,0.5-1.9,0.9-3.1
		c0.4-1.1,0.7-1.8,1.1-2.9c0.4-1.2,0.7-2.3,1-3.4l0.1-0.2c0.1-0.4,0.6-1.8,2.3-1.3c0.8,0.3,1.3,0.6,2.2,0.9c0.8,0.3,1.6,0.4,2.4,0.7
		c0.8,0.3,1.9,0.6,1.5,1.9c-0.2,0.6-0.4,1-0.6,1.5c-0.5,1.2-0.8,2.1-1.2,3.3s-0.5,2.1-1,3.3c-0.3,0.9-0.7,1.8-1,2.7
		c-0.2,0.7-0.4,1.5-0.6,2.2c-0.4,1.3-0.8,2.2-1.2,3.5c-0.3,0.8-0.4,1.4-0.6,2.3c-0.1,0.4-0.3,0.7-0.4,1.1c-0.8,2.4,0.9,3.1,1.7,3.4
		c0.8,0.2,1.2,0.5,2,0.7c0.4,0.1,0.6,0.2,1,0.3c0.4,0.1,0.9,0.4,1.2,0.9c0.4,0.7-0.6,3.2-0.7,3.8
		C367.8,684.7,367.6,685.1,367.4,685.8z"/>
	<path class="st1" d="M383.1,693.5c-1.3,0-2.7-0.3-5.1-1.3c-0.8-0.3-1.3-0.7-2.2-1c-1.3-0.5-2.2-0.7-3.5-1.2
		c-1.3-0.6-2.7-1.2-1.8-3.1c0.7-1.6,1.4-2.6,2-4.1c1.1-2.5,1.6-4.4,2.7-6.9c0.4-1,0.7-1.6,1.2-2.6c0.8-1.7,1.1-3,1.9-4.8
		c0.7-1.6,1.2-2.6,1.9-4.1c0.5-1.3,0.8-2.2,1.3-3.5c0.8-1.9,1.7-2.3,3-1.7c1.2,0.5,1.9,0.9,3,1.3c1.2,0.5,1.9,0.8,3.1,1.2
		c0.3,0.1,0.7,0.3,1,0.4c4.1,1.7,5.5,3.9,6.4,6.7c0.2,0.5,0.5,1.8,0.6,3.2c0.2,4.4-2.3,10.3-2.5,10.6
		C394.5,686.4,389.9,693.4,383.1,693.5z M389,676.1c0.4-1.1,2-5.8-0.6-6.6c-0.2-0.1-0.4-0.1-0.6,0c-1,0-1.4,1.1-1.6,1.7
		c-0.7,1.6-1.1,2.9-1.8,4.5c-0.5,1.1-0.9,1.8-1.4,2.9c-0.4,0.9-0.5,1.6-0.9,2.4c-0.3,0.6-0.5,1-0.7,1.6c-0.4,0.9-1.1,2.5,0.5,3.2
		c1.7,0.7,2.9-1.2,2.9-1.3c0.5-0.7,2.8-4.7,3.1-5.4C388.4,678,388.6,677.2,389,676.1z"/>
	<path class="st1" d="M406.1,704c-1.2,0.2-2.6,0.2-3.7,0c-1.5-0.3-4-1.5-5.2-2.1c-1-0.5-4.6-2.7-4.9-4.2c-0.1-0.5,0-0.7,0.3-1.2
		c0.5-0.9,0.9-1.5,1.4-2.4c0.4-0.7,0.5-1.2,0.9-1.9c0.2-0.4,1-2.1,2.8-1.1c0.8,0.5,0.8,0.8,1.1,1.2c0.1,0.1,0,0.2,0.1,0.4
		c0.1,0.2,0.2,0.5,0.3,0.7c0.4,0.6,1.2,1.2,1.8,1.5c1.4,0.8,2.5,0.8,3.1-0.1c0.8-1.3-0.1-3.2-0.6-4.7c-0.3-1.1-0.5-1.9-0.9-3
		c-0.1-0.3-0.6-1.5-0.9-2.7c-0.6-3,0.1-4.6,1.2-6.7c3.3-6.2,7.6-7.2,13.5-4.1c2.7,1.5,5.8,2.9,4.8,4.9c-0.5,0.9-0.9,1.5-1.4,2.4
		l-0.1,0.2c-0.3,0.6-0.5,1-0.8,1.6c-0.2,0.4-1,1.7-2.5,0.9c-0.7-0.4-1.4-1.1-1.5-1.3c-0.3-0.3-0.7-0.7-1.6-1.2
		c-0.2-0.1-1.8-1.1-2.6,0.5c-0.2,0.4-0.3,0.8-0.3,1.4c0,0.6,0.9,3.1,1.7,5.5c0.3,0.9,0.6,1.6,0.8,2.6c0.8,3.3,0.4,5-0.8,7.2
		C410.4,702,409,703.5,406.1,704z"/>
	<path class="st1" d="M449.1,699.2c-0.7,1.1-1.2,1.8-1.9,2.9c-0.2,0.2-1,1.6-2.3,0.7c-0.5-0.3-0.7-0.8-1.2-1.1
		c-0.2-0.2-2.1-0.6-2.5-0.6c-1.9,0.1-3.9,2-5.8,4.8c-1.6,2.4-2.2,4.3-1.7,5.9c0,0.2,0.8,2.3,1.7,3c0.4,0.3,0.8,0.3,1.1,0.6
		c0.1,0.1,0.4,0.4,0.5,1c0,0.3-0.1,0.6-0.4,1.1c-0.5,0.7-0.9,1.2-1.4,1.9c-0.7,1-1.1,1.7-1.7,2.7c-1.1,1.6-2.4,0.7-2.9,0.4
		c-0.3-0.2-2.8-2.1-3.1-2.3c-0.1-0.1-1.9-1.9-2.5-3.6c-0.6-1.5-0.7-3.1-0.7-3.6c0-0.3-0.1-1.4-0.1-1.8c0-0.2,0.4-3.5,1.1-5.2
		c0.4-0.8,1.2-2.1,1.6-2.9c0.8-1.2,1.2-2.1,2-3.3c2-2.9,4.7-5.3,5.6-6c0.4-0.3,2.4-1.8,5.1-2c0.3,0,3.9,0,4.1,0
		c1.7,0.2,4.1,1.4,5.3,2.2l0.3,0.2c0.9,0.6,2.5,1.5,1.4,3.1C450,697.9,449.6,698.4,449.1,699.2z"/>
	<path class="st1" d="M451,738.1l-0.1-0.1c-0.6-0.5-1-0.9-1.6-1.4c-0.7-0.6-1.2-1-1.9-1.5c-0.4-0.3-0.7-0.5-1.1-0.8
		c-1.2-1-0.5-1.9-0.2-3.1c0.4-1.2,0.4-2,0.7-3.2c0.2-0.8,0.4-1.3,0.6-2.1c0.2-0.8,0.4-1.5,0-1.8c-0.5-0.4-1.1,0.3-1.2,0.5
		c-0.6,0.7-1,1.3-1.5,1.9c-0.4,0.5-0.8,0.9-1.2,1.4c-0.4,0.5-0.6,0.9-1.1,1.5c-0.7,0.8-1.3,0.6-1.7,0.3c-0.8-0.6-1.2-1.2-2-1.8
		c-0.9-0.7-1.7-1.2-2.6-1.9c-0.8-0.7-0.7-1.5-0.2-2.3c0.4-0.5,0.8-0.8,1.3-1.3c0.8-0.9,1.4-1.5,2.1-2.4c1.5-1.8,2.4-3.2,3.9-5
		c1.5-1.8,2.7-3.1,4.3-4.9c1-1.2,1.6-2.1,2.6-3.3c1-1.3,1.9-2.1,2.9-3.4c0.6-0.8,1-1.4,1.6-2.1c0.6-0.7,1.8-1.6,3.4-0.3
		c0.8,0.6,1.2,1.1,2,1.7c1.8,1.5,3.2,2.5,5.1,4c2.1,1.7,4.7,4.4,4,8.6c-0.1,0.3-0.2,0.8-0.3,1c-0.1,0.4-0.2,0.9-0.5,1.7
		c-0.5,1.1-2.4,3.6-3,4.4c-0.4,0.5-3,3.9-7.1,4.6c-0.5,0.1-0.8,0.1-1.2,0.2c-0.4,0.1-0.6,0-0.9,0c-0.1,0-0.3,0.1-0.5,0.3
		c-0.4,0.5-1,4-1.2,4.8c-0.2,0.7-0.4,1.2-0.5,1.9c-0.3,1.2-0.3,2-0.7,3.1c-0.1,0.2-0.2,0.5-0.4,0.8C451.9,738.9,451,738.1,451,738.1
		z M459,711.8l-0.1-0.1c-0.3-0.2-0.6-0.3-0.9-0.3c-0.7,0-1.2,0.4-1.2,0.5c-0.2,0.1-2.7,2.9-2.7,3c-0.7,0.9-1,2.2,0.1,3.1
		c0.5,0.4,1,0.5,1.4,0.5c1.1,0,2.1-1.1,3.3-2.5C459.5,715,460.5,713,459,711.8z"/>
	<path class="st1" d="M469.2,750.5c-0.6,0.6-0.9,1-1.5,1.6c-0.4,0.4-1.4,1.2-2.6,0c-0.5-0.5-0.8-0.8-1.2-1.3l-0.8-0.8
		c-0.8-0.8-1.3-1.4-2.1-2.2c-0.5-0.5-0.8-0.8-1.3-1.2l-3.6-3.5c-0.4-0.3-0.6-0.5-1-0.8c-0.4-0.4-1.1-1.6,0-2.8
		c0.9-0.9,1.6-1.4,2.4-2.3c0.8-0.8,1.3-1.4,2.1-2.2c0.6-0.6,1.1-0.9,1.6-1.5s0.9-1,1.4-1.6c1.1-1.1,1.9-1.8,3-2.9c1-1,1.9-2,2.9-3
		c1.3-1.4,2.4-2.3,3.7-3.7c1-1,1.5-1.7,2.5-2.6c1.9-1.9,2.7-2.3,4.2-0.8c0.9,0.9,1.4,1.6,2.2,2.5c0.4,0.4,0.9,0.8,1.3,1.2
		c1.1,1.1,1.7,1.9,2.8,3c0.5,0.5,0.9,0.7,1.3,1.2l0.7,0.7c0.4,0.4,0.7,0.6,1.1,1c1,1,0.3,1.9,0,2.2c-0.6,0.6-1.2,1-1.8,1.6
		c-0.9,0.9-2.1,2.9-3.8,1.2l-0.4-0.4c-0.4-0.4-0.7-0.7-1.1-1.1c-0.5-0.5-0.8-1-1.4-1.5c-1.8-1.8-2.5-1.3-3.6-0.2
		c-1.1,1.1-1.3,2.1-0.5,2.9c0.4,0.4,0.7,0.6,1.1,0.9l0.1,0.1c0.5,0.5,0.8,0.9,1.2,1.3c0.4,0.4,0.7,0.7,1.1,1
		c1.4,1.3,0.4,2.2-0.1,2.7c-0.5,0.5-0.9,0.8-1.4,1.4c-0.5,0.5-0.8,0.9-1.3,1.4c-1.3,1.3-2.3,0.4-2.8,0c-1-1-1.6-1.8-2.6-2.9
		c-1.8-1.8-2.8-0.6-3.5,0.1l-0.4,0.4c-0.2,0.2-0.8,0.8-0.9,1.1c-0.5,1.4,0.2,1.6,1.4,2.9c0.5,0.7,0.9,1.1,1.5,1.7
		c0.5,0.5,1,0.8,1.5,1.3c0.3,0.3,1.1,1.4,0.1,2.5C470.2,749.6,469.8,750,469.2,750.5z"/>
	<path class="st1" d="M481.9,771c-0.7-0.9-1.1-1.6-1.9-2.4c-0.6-0.7-1.1-1.1-1.7-1.9c-1.1-1.3,0-1.9,0.3-2.3
		c0.3-0.3,2.2-2.1,2.3-2.7c0-0.3,0-0.1,0-0.5c0-0.1-1.2-1.5-1.9-2.3c-1.2-1.4-1.4-0.9-2.3-0.4c-0.3,0.2-2.4,1.9-2.9,1.9
		c-0.5,0-0.9-0.1-1.3-0.6c-0.6-0.7-0.9-1.2-1.5-1.8c-0.6-0.7-1.3-1.4-1.9-2.1c-0.5-0.6-1.1-1.4-0.1-2.2c0.3-0.2,1.1-0.7,2-1.2
		c1-0.7,1.7-1.1,2.8-1.8c0.9-0.6,1.6-0.9,2.6-1.5c1.4-0.8,2.2-1.5,3.6-2.3c1.3-0.8,2.3-1.3,3.6-2.2c0.9-0.6,1.5-1.1,2.5-1.7
		c1.1-0.6,2-1,3.1-1.7c1.7-1,2.8-1.9,4.6-2.8c1.1-0.6,2.3-1.1,2.9-1c0.6,0.1,1.1,0.4,1.7,1.2c1,1.2,1.6,2.2,2.7,3.4
		c0.8,0.9,1.6,1.8,2.4,2.7l0.1,0.1c0.8,0.9,0.9,1.3,0.6,2.2c0,0.1-0.2,0.4-0.3,0.5c0,0-2.8,3.5-2.8,3.5c-1,1.2-1.7,1.9-2.7,3.1
		c-1.2,1.4-2,2.4-3.1,3.9c-0.9,1.2-1.6,2.1-2.5,3.2c-1.3,1.5-2.3,2.4-3.6,3.8c-1.9,2.2-4,5.2-4.5,5.6
		C484.3,771,482.8,772.1,481.9,771z M492,750.1c0.5-0.6,1.2-1.3,1.2-1.4c0.2-0.3,0.2-0.6,0.1-0.7c-0.1-0.1-0.4-0.1-0.6,0
		c-0.2,0.1-1.6,0.8-1.8,1c-0.5,0.3-0.9,0.4-1.4,0.7c-0.3,0.2-3.5,2.2-3.8,2.4c-1.1,0.9-0.8,1.6-0.3,2.1c0.4,0.5,1.2,1.4,2.4,0.3
		C489.8,752.9,491.5,750.6,492,750.1z"/>
	<path class="st1" d="M511.9,769.9c-0.3-0.4-0.4-0.7-0.7-1c-0.8-1.1-1.5-1.1-3.1,0c-1.3,0.9-2.1,1.7-3.4,2.6c-1.5,1.1-2.7,1.8-4.2,3
		c-1.4,1-2.3,1.8-3.7,2.9c-0.8,0.6-1.6,1.1-2.4,1.7c-0.7,0.5-1.2,0.9-1.8,1.4c-0.4,0.3-0.6,0.6-1,0.9c-1.2,0.9-2.1-0.2-2.3-0.5
		c-0.3-0.5-0.5-0.8-0.8-1.3c-0.4-0.7-0.7-1.1-1.2-1.7c-0.4-0.5-0.8-0.9-1.2-1.4c-0.6-0.8-0.7-1.5,0.6-2.5c1.2-0.9,2.2-1.3,3.5-2.3
		c1.2-0.9,1.9-1.6,3.1-2.4c1.4-1,2.5-1.5,3.8-2.5c1-0.7,1.6-1.3,2.5-2.1c2.3-1.8,4.7-2.6,4.9-4.2c0.1-0.3,0-0.4,0-0.5
		c0-0.4-0.4-0.8-0.5-1.1c-0.2-0.3-0.4-0.5-0.6-0.8c-0.8-1-0.3-1.8,0.2-2.1c0.9-0.7,1.7-1.1,2.6-1.8c0.6-0.5,1-0.9,1.7-1.4
		c0.9-0.7,1.6-0.6,2.3,0.4c0.6,0.9,1,1.5,1.6,2.4c0.9,1.3,2,2.5,2.9,3.8l0.3,0.4c0.8,1.1,1.3,1.9,2.1,3c0.5,0.7,0.9,1.1,1.4,1.8
		c1.1,1.5,0,2.3-1,3c-0.8,0.6-1.3,0.9-2,1.4c-0.5,0.4-0.8,0.7-1.3,1C513.8,770.3,512.8,771.1,511.9,769.9z"/>
	<path class="st1" d="M498.3,794.3c-0.4-0.6-0.6-1.1-1-1.7c-0.6-1-1.2-1.6-1.8-2.5c-1.3-2-0.3-2.4,0.6-3l1.6-1
		c0.9-0.6,1.7-0.9,2.6-1.5l1.6-1c2-1.3,3.3-2.3,5.3-3.6l4.9-3.2c1.6-1,2.7-1.6,4.3-2.6l2.7-1.8c0.7-0.4,1.1-0.9,1.7-1.3
		c1.3-0.8,1.9,0,2.5,0.9c0.6,0.9,1,1.6,1.6,2.5c0.5,0.7,0.9,1.2,1.4,2c0.5,0.8-0.4,1.6-0.8,1.9c-0.6,0.4-1.1,0.6-1.8,1
		c-1,0.6-1.7,1.1-2.6,1.7l-6.1,3.9c-0.9,0.6-1.6,0.9-2.5,1.5l-1.9,1.2c-1.6,1-2.5,1.9-4.1,2.9c-1.2,0.8-2.1,1.2-3.2,1.9
		c-1.1,0.7-1.7,1.4-2.9,2.1C499.8,795.1,499,795.5,498.3,794.3z"/>
	<path class="st1" d="M517.4,813.5c-0.2,0.1-1.8,0.6-3,0.6c-1.5,0.1-3.2-0.3-4.6-1.1c-0.3-0.2-0.7-0.5-1.3-1
		c-1.3-1.1-1.8-1.9-2.5-3.3c-1.3-2.4-2.8-6.4-1.1-9.9c0.5-1.2,2.4-3.1,3.2-3.7c0.7-0.6,3.3-2.2,4-2.6c1.1-0.6,1.9-1,3-1.6
		c0.9-0.5,1.5-0.9,2.3-1.3c5.8-3.2,9.2-4.6,13.2-2.8c2.1,1,3.2,1.9,4.8,4.9l0.1,0.2c0.8,1.4,1.4,3,1.5,4.6c0.1,0.9-0.3,3.6-0.6,4.4
		c-0.9,2.5-3.8,4.9-8.2,7.3C522.8,811.5,520.9,812.8,517.4,813.5z M523.3,801.4c0.7-0.4,1.3-0.6,2-1c0.6-0.3,2.9-1.7,3.3-2.4
		c0.3-0.6,0.7-1.2,0.2-2.1c0-0.1-0.1-0.2-0.2-0.2c-0.2-0.3-0.4-0.5-0.7-0.6c-1-0.5-2.1-0.2-3.5,0.6c-1.1,0.6-1.9,1.1-3,1.7
		c-2.2,1.2-3.8,1.9-6,3.1c-1,0.6-3.9,1.9-2.8,4c1,1.9,2.9,1,4,0.4c0.7-0.4,1.2-0.7,1.9-1.1c1-0.5,1.8-0.8,2.8-1.3
		C522.1,802.1,522.6,801.8,523.3,801.4z"/>
	<path class="st1" d="M521.3,839.7c-0.3-0.8-0.5-1.3-0.8-2.1c-0.5-1.2-1-2-1.4-3.2c-0.4-0.9,0.7-1.5,1.7-2.5
		c0.8-0.8,1.2-1.5,2.1-2.3c0.8-0.8,1.4-1.3,2.2-2.1c0.6-0.6,1-1.2,1.6-1.8c0.6-0.6,1-0.9,1.6-1.5c0.7-0.6,1.8-1.6,1.7-1.7
		c0-0.1-0.3-0.1-0.5,0c-0.6,0.2-0.9,0.5-1.4,0.8c-1,0.6-1.8,1-2.9,1.4c-1.4,0.6-2.4,0.8-3.9,1.5c-1.3,0.6-2.2,1.2-3.5,1.7
		c-1.1,0.5-1.5-0.1-1.9-1c-0.5-1.1-0.7-1.9-1.2-3c-0.3-0.8-0.7-1.3-1-2.1c-0.6-1.3,0.9-1.8,1-1.8c1.8-0.8,3.2-1,5-1.8
		c0.6-0.2,0.9-0.4,1.4-0.7c1.2-0.5,2-0.9,3.2-1.4c1-0.4,1.8-0.8,2.8-1.2c0.8-0.3,1.4-0.5,2.3-0.8c0.8-0.4,1.3-0.7,2.1-1.1l2.2-1
		c1.6-0.7,2.7-1.1,4.4-1.8c1.7-0.7,2.7-1.3,4.4-2c0.2-0.1,1.1-0.5,1.7,0.5l0.1,0.2c0.1,0.3,0.2,0.6,0.3,1c0.2,0.6,0.4,1,0.6,1.6
		c0.4,0.9,0.8,1.5,1.2,2.4c0.2,0.5,0.1,0.8,0,1.1c-0.2,0.8-2.9,3.2-3.2,3.6c-0.5,0.5-0.8,0.9-1.3,1.4c-0.3,0.4-0.5,0.7-0.9,1.1
		c-0.4,0.4-0.7,0.6-1,1c-0.3,0.3-0.4,0.5-0.7,0.8c-0.5,0.5-0.8,0.8-1.3,1.3c-0.7,0.6-1.9,1.6-1.8,1.8c0.1,0.2,1.1-0.2,1.7-0.5
		c0.6-0.3,1.1-0.6,1.8-0.9c0.6-0.3,1.2-0.4,1.8-0.7c1.9-0.8,3.1-1.6,5-2.4c0.3-0.1,1.7-0.7,2.2-0.7c0.3,0.1,0.4,0.2,0.6,0.3
		c0.2,0.1,0.6,0.5,0.8,1c0.3,0.6,0.4,1.1,0.6,1.7l0.7,1.6c0.2,0.5,0.4,0.8,0.6,1.4c0.3,0.8,0.1,1.3-0.7,1.7
		c-1.3,0.6-2.3,0.8-3.6,1.3c-1.9,0.8-3.2,1.4-5.1,2.3c-2,0.9-3.5,1.3-5.5,2.2c-2,0.9-3.3,1.6-5.4,2.5c-1.8,0.8-3.2,1.2-5,1.9
		c-0.9,0.4-1.6,0.6-2.5,1.2c-0.4,0.2-0.6,0.4-1,0.6C522,841.2,521.5,840.3,521.3,839.7z"/>
	<path class="st1" d="M528.8,862.9c-0.2-0.7-0.3-1.2-0.5-1.9c-0.3-1.1-0.7-1.9-1-2.9c-0.7-2.3,0.4-2.4,1.5-2.7l1.8-0.5
		c1-0.3,1.8-0.4,2.9-0.7l1.8-0.5c2.3-0.7,3.8-1.3,6.1-1.9l5.6-1.6c1.8-0.5,3.1-0.7,4.8-1.3l3.1-0.9c0.8-0.2,1.3-0.5,2-0.7
		c1.5-0.4,1.8,0.5,2.1,1.6c0.3,1,0.5,1.8,0.8,2.8c0.3,0.9,0.5,1.5,0.8,2.4c0.3,0.9-0.8,1.4-1.3,1.6c-0.7,0.2-1.2,0.3-2,0.4
		c-1.1,0.3-1.9,0.6-3,0.9l-7,2c-1,0.3-1.8,0.4-2.8,0.7l-2.2,0.6c-1.8,0.5-3,1.1-4.8,1.6c-1.4,0.4-2.3,0.5-3.6,0.9
		c-1.3,0.4-2.1,0.8-3.3,1.2C530,864,529.1,864.2,528.8,862.9z"/>
	<path class="st1" d="M535.2,882.1c-1-0.8-1.9-1.9-2.4-2.8c-0.7-1.3-1.5-4-1.8-5.4c-0.2-1.1-1-5.2,0-6.5c0.3-0.4,0.5-0.4,1.1-0.6
		c1-0.2,1.7-0.3,2.7-0.5c0.8-0.2,1.3-0.4,2-0.6c0.5-0.1,2.2-0.6,2.6,1.4c0.1,0.9,0,1.1-0.2,1.7c-0.1,0.2-0.2,0.2-0.2,0.3
		c-0.1,0.3-0.3,0.4-0.3,0.7c-0.2,0.7-0.1,1.7,0,2.3c0.4,1.6,1,2.5,2.1,2.3c1.5-0.2,2.4-2.2,3.1-3.5c0.6-1,1.1-1.6,1.7-2.6
		c0.2-0.3,0.7-1.4,1.5-2.4c1.9-2.4,3.6-2.9,5.9-3.4c6.9-1.5,10.4,1,11.9,7.6c0.7,3,1.6,6.3-0.6,6.8c-1,0.2-1.7,0.3-2.7,0.5l-0.2,0
		c-0.6,0.1-1,0.3-1.7,0.4c-0.5,0.1-1.9,0.4-2.3-1.3c-0.2-0.7,0-1.8,0-2c0-0.5,0.1-1-0.1-1.9c-0.1-0.3-0.4-2-2.1-1.6
		c-0.5,0.1-0.8,0.3-1.3,0.7c-0.4,0.4-1.7,2.7-3,4.9c-0.5,0.8-0.8,1.5-1.4,2.3c-2,2.8-3.5,3.6-6,4.1
		C539.6,884.1,537.5,884,535.2,882.1z"/>
	<path class="st1" d="M562.5,911.8c0-0.5,0-0.8-0.1-1.3c-0.1-1.4-0.8-1.7-2.7-1.5c-1.6,0.2-2.6,0.4-4.2,0.6
		c-1.9,0.2-3.2,0.2-5.1,0.4c-1.7,0.2-2.9,0.4-4.7,0.6c-1,0.1-2,0.2-2.9,0.3c-0.8,0.1-1.4,0.1-2.3,0.3c-0.5,0.1-0.8,0.2-1.3,0.3
		c-1.5,0.2-1.7-1.2-1.8-1.6c-0.1-0.6,0-0.9-0.1-1.5c0-0.8-0.1-1.3-0.2-2.1c-0.1-0.7-0.2-1.2-0.3-1.8c-0.1-1,0.2-1.7,1.7-1.8
		c1.5-0.2,2.6,0,4.1-0.2c1.4-0.1,2.5-0.4,3.9-0.5c1.7-0.2,2.9-0.1,4.6-0.2c1.2-0.1,2-0.3,3.2-0.5c2.9-0.4,5.3,0.2,6.3-1.1
		c0.2-0.2,0.2-0.4,0.2-0.4c0.2-0.3,0.1-0.9,0.1-1.2c0-0.4-0.1-0.6-0.1-1c-0.1-1.3,0.7-1.7,1.2-1.7c1.2-0.1,2-0.1,3.2-0.2
		c0.8-0.1,1.3-0.2,2.1-0.3c1.2-0.1,1.6,0.3,1.8,1.5c0.1,1.1,0.1,1.8,0.2,2.9c0.2,1.6,0.5,3.2,0.6,4.7l0.1,0.5
		c0.1,1.3,0.1,2.3,0.3,3.6c0.1,0.8,0.2,1.4,0.3,2.2c0.2,1.8-1.2,2-2.4,2.1c-0.9,0.1-1.5,0.1-2.4,0.2c-0.7,0.1-1.1,0.2-1.7,0.2
		C563.9,913.2,562.6,913.2,562.5,911.8z"/>
	<path class="st1" d="M538.4,938.1c0-0.8,0.1-1.4,0.1-2.2c0-1.1-0.2-2-0.2-3.1c0-1.5,1.3-1.6,1.7-1.6c0.8,0,1.3,0.1,2,0.1
		c0.5,0,0.8-0.1,1.2-0.1c1.8,0,3.1,0.1,4.8,0.1c2.8,0,2.8-1.2,2.8-2.7c0-0.8-0.2-1.2-0.7-1.5c-0.4-0.4-2.8-0.5-3.2-0.5
		c-0.9,0-1.9,0.1-2.9,0.1c-1,0-1.7,0-2.7,0c-0.6,0-1.1,0.1-1.7,0.1c-1.2,0-1.5-0.8-1.5-1.3c0-1,0.1-1.7,0.1-2.7c0-0.6-0.1-1-0.1-1.6
		c0-0.4-0.1-0.7-0.1-1c0-1.7,1.3-1.9,1.9-1.9c1.3,0,2.2,0.2,3.5,0.2l0.1,0c1.4,0,2.4,0,3.8,0c2.1,0,3.5-0.2,5.6-0.2
		c1.7,0,2.9,0.1,4.6,0.1c0.9,0,1.6-0.1,2.5-0.2c1.3-0.1,2.2-0.1,3.5-0.1c1.1,0,1.9,0.1,3.1,0c1.1,0,1.8-0.2,2.9-0.2
		c0.6,0,1.6,0.2,1.7,1.6c0,0.9-0.1,1.6,0,2.6c0,0.9,0.2,1.6,0.2,2.5c0,1.6-0.8,1.8-1.6,1.9c-1,0-1.6-0.2-2.6-0.2
		c-1.1,0-1.8,0.1-2.9,0.1c-1.2,0-2,0-3.1,0l-0.1,0c-1.7,0-1.8,0.9-1.8,2.3c0,1.1,0.2,1.5,0.8,1.9c0.3,0.1,2.6,0.2,2.9,0.2
		c1,0,1.8-0.2,2.9-0.2c0.6,0,1.2,0,1.7,0c0.8,0,1.5-0.2,2.3-0.2c1.5,0,1.7,1.1,1.7,1.7c0,1-0.1,1.7-0.1,2.8c0,0.8,0.2,1.4,0.2,2.2
		c0,2-1.6,1.9-2.1,1.9c-1.8,0-3.1-0.2-4.9-0.1c-0.5,0-0.8,0.1-1.4,0.1c-0.9,0-1.5-0.1-2.4-0.1c-1.5,0-2.5,0.1-4,0.1
		c-1.8,0-3.1,0-4.9,0c-2.2,0-3.7,0.3-5.9,0.3c-1.1,0-1.8,0-2.9,0c-0.9,0-1.6,0.2-2.6,0.2C538.9,939.7,538.5,939,538.4,938.1z"/>
	<path class="st1" d="M544.1,964.2c-0.2,0-1.8-0.5-2.9-1.1c-1.3-0.8-2.5-2-3.2-3.4c-0.1-0.3-0.3-0.8-0.5-1.5
		c-0.4-1.6-0.5-2.6-0.3-4.1c0.2-2.8,1.1-6.9,4.5-8.9c1.1-0.7,3.7-1.3,4.7-1.4c0.9-0.1,4-0.1,4.8,0c1.3,0.1,2.1,0.3,3.4,0.3
		c1,0.1,1.7,0.1,2.6,0.2c6.6,0.5,10.2,1.2,12.6,4.9c1.3,2,1.6,3.3,1.4,6.8l0,0.3c-0.1,1.6-0.4,3.3-1.3,4.7c-0.4,0.8-2.2,2.9-2.9,3.4
		c-2.1,1.6-5.9,2-10.9,1.7C549.6,965.4,547.4,965.5,544.1,964.2z M555.6,957.2c0.8,0,1.4,0.2,2.2,0.2c0.7,0.1,3.4,0.1,4.1-0.2
		c0.6-0.3,1.2-0.7,1.3-1.7c0-0.1,0-0.2,0-0.3c0-0.3-0.1-0.6-0.2-0.9c-0.6-0.9-1.6-1.3-3.2-1.4c-1.3-0.1-2.2-0.1-3.5-0.2
		c-2.5-0.2-4.2-0.5-6.7-0.7c-1.2-0.1-4.3-0.5-4.5,1.9c-0.2,2.1,1.8,2.4,3.1,2.5c0.8,0.1,1.4,0.1,2.2,0.2c1.1,0.1,1.9,0.3,3.1,0.4
		C554.2,957.1,554.8,957.1,555.6,957.2z"/>
	<path class="st1" d="M561.5,994.9c-1.3-0.3-2.2-0.5-3.5-0.7c-1.3-0.2-2.2-0.3-3.6-0.5c-1.7-0.3-2.8-0.6-4.6-0.9
		c-2.2-0.4-3.7-0.6-5.8-0.9c-1-0.2-1.7-0.4-2.8-0.6c-0.7-0.2-5.1-0.5-6.9-5.2c-0.2-0.6-0.6-1.8-0.7-3.3c-0.1-1.5,0.4-4.2,0.5-4.2
		c0.5-3,1.6-4.4,2.7-5.7c0.7-0.8,1.1-1.1,1.6-1.5c0.5-0.3,1.4-0.7,1.9-0.8c1.2-0.3,3.4-0.1,4.6,0.1c1.9,0.3,3.3,0.7,5.2,1.1
		c2.6,0.5,4.6,0.6,7.2,1.1c1.5,0.3,2.6,0.6,4.1,0.8c1.7,0.3,2.9,0.5,4.5,0.8c1.9,0.3,2.9,0.6,2.7,2.1c-0.2,1.1-0.5,1.8-0.7,2.9
		c-0.1,0.6-0.1,1-0.2,1.6c-0.2,1-0.4,2.3-2,2c-1.4-0.3-2.5-0.6-3.9-0.8c-0.9-0.2-1.4-0.2-2.3-0.4c-0.8-0.1-1.3-0.3-2.1-0.4l-1.5-0.3
		c-1.4-0.3-2.8-0.6-4.2-0.9c-1.1-0.2-1.9-0.3-3-0.5c-1.1-0.2-2.2-0.4-3.3-0.6l-0.2,0c-1.1-0.2-3-0.5-3.4,1.4c-0.1,0.5,0,1,0.1,1.2
		c0.5,1.3,1.5,1.5,3.5,1.9c2.3,0.4,3.9,0.8,6.2,1.1c1.9,0.3,3.4,0.4,5.3,0.8c1.8,0.3,2.9,0.7,4.6,1c0.6,0.1,1.2,0.2,1.8,0.3
		c1.1,0.2,3.2,0.2,2.9,2.3c-0.2,1.1-0.5,1.8-0.6,2.8c-0.2,0.9-0.2,1.5-0.3,2.5c-0.3,1.5-1.7,1.2-2,1.2
		C562.7,995.2,562.2,995,561.5,994.9z"/>
	<path class="st1" d="M541.6,1019.1c-1-0.3-1.6-0.4-2.6-0.7c-0.9-0.3-1.5-0.5-2.4-0.8c-1.2-0.3-2.1-0.5-3.4-0.8
		c-1.3-0.4-2.2-0.7-3.5-1l-1.3-0.4c0,0-0.9-0.3-1.3-0.7c-1.1-1.3-0.5-4.2,0.3-7.3c0.8-2.9,1-4,3-6.6c0.5-0.6,1.2-1.6,2-2.1
		c1.1-0.8,1.9-1,3.1-1.4c2.8-1,4.1-1.4,8.5-0.6c0.7,0.1,2.1,0.3,3.8,0.8c2.3,0.6,6.4,2.7,6.4,2.7c1,0.6,1.7,1.1,2.6,1.9
		c0.8,0.7,1.4,1.3,1.7,1.7c0.6,0.7,2,3.1,2.3,5.4c0.3,1.4,0.2,2.9,0,4.2c-0.2,1.9-0.6,3.5-0.8,4.1l-0.1,0.5c0,0.2-1.2,3.8-1.3,4
		c-0.4,0.3-0.8,0.7-1.6,0.5c-0.5-0.1-0.8-0.3-1.2-0.4l-1.6-0.4c-1.4-0.4-3-0.8-3.3-1.1c-0.3-0.4-0.4-0.8-0.5-0.9
		c-0.1-0.1-0.1-0.6,0-0.9c0.2-0.6,0.7-0.9,1.1-1.5c0.2-0.3,0.8-2.3,0.9-2.7c0.7-2.5,0.3-4-0.9-5.3c-0.3-0.3-0.8-0.8-1.1-0.9
		c-0.2-0.1-0.8-0.3-1.4-0.6c-1.2-0.6-1.5-1-3.7-1.6c-0.6-0.2-1.1-0.3-1.8-0.5l-0.5-0.1c-0.6-0.2-0.8-0.1-1.2-0.2
		c-0.2,0-3.6,0.4-3.8,0.5c-0.2,0.1-0.6,0.1-1.1,0.5c-0.4,0.3-1,0.9-1.2,1.8c-0.3,1.1-0.1,1.8,0.6,2c0.5,0.1,0.8,0.1,1.3,0.3
		c0.6,0.2,1.1,0.4,1.7,0.6c1.2,0.3,1.9-0.7,2-1.1c0.1-0.3,0-0.5,0.1-0.9c0.1-0.4,0.8-1,1.6-0.7c1.1,0.3,1.9,0.6,3,0.9
		c0.6,0.2,1.5,0.4,1.5,0.5c0,0,0.5,0.1,0.7,0.4c0.5,0.5,0.7,1.1,0.4,2.1c-0.3,0.9-0.5,1.5-0.7,2.3c-0.3,1.1-0.5,1.8-0.8,2.9
		c-0.1,0.4-0.1,0.7-0.2,1.1c-0.6,2.3-2.4,1.6-3,1.5C543.1,1019.6,542.5,1019.4,541.6,1019.1z"/>
	<path class="st1" d="M517.8,1036.1c0.3-0.7,0.6-1.2,0.9-2c0.4-1.1,0.6-1.9,1-3c0.5-1.4,1.8-1,2.2-0.8c0.7,0.3,1.1,0.6,1.8,0.8
		c0.4,0.2,0.7,0.2,1.2,0.4c1.7,0.6,2.8,1.2,4.5,1.9c2.6,1,3,0,3.6-1.4c0.3-0.8,0.2-1.2-0.1-1.6c-0.3-0.5-2.4-1.5-2.8-1.6
		c-0.9-0.3-1.8-0.6-2.7-0.9c-0.9-0.4-1.6-0.7-2.5-1c-0.6-0.2-1-0.3-1.6-0.6c-1.1-0.4-1.1-1.3-0.9-1.8c0.4-0.9,0.7-1.5,1.1-2.4
		c0.2-0.6,0.3-1,0.5-1.6c0.1-0.4,0.1-0.6,0.3-1c0.6-1.6,1.9-1.2,2.5-1c1.2,0.5,1.9,1,3.2,1.5l0.1,0.1c1.3,0.5,2.3,0.9,3.6,1.4
		c1.9,0.7,3.3,1.1,5.3,1.9c1.6,0.6,2.6,1.2,4.3,1.8c0.9,0.3,1.5,0.5,2.4,0.8c1.2,0.4,2,0.7,3.3,1.2c1.1,0.4,1.8,0.8,2.8,1.2
		c1,0.4,1.8,0.5,2.8,0.9c0.5,0.2,1.5,0.8,1,2.1c-0.3,0.9-0.7,1.5-1,2.4c-0.3,0.9-0.4,1.5-0.8,2.4c-0.6,1.5-1.4,1.4-2.2,1.1
		c-0.9-0.4-1.4-0.8-2.4-1.2c-1-0.4-1.7-0.6-2.7-1c-1.1-0.4-1.8-0.8-2.9-1.2l-0.1-0.1c-1.6-0.6-2,0.2-2.5,1.4c-0.4,1.1-0.4,1.4,0.1,2
		c0.2,0.2,2.4,1.2,2.6,1.3c1,0.4,1.7,0.5,2.7,0.9c0.5,0.2,1.1,0.5,1.6,0.7c0.8,0.3,1.4,0.4,2.2,0.7c1.4,0.6,1.2,1.7,1,2.2
		c-0.4,1-0.8,1.6-1.1,2.6c-0.3,0.8-0.4,1.4-0.7,2.2c-0.7,1.9-2.2,1.2-2.6,1c-1.7-0.6-2.8-1.3-4.5-2c-0.5-0.2-0.8-0.3-1.3-0.4
		c-0.8-0.3-1.4-0.6-2.2-0.9c-1.4-0.5-2.4-0.9-3.8-1.4c-1.7-0.7-2.9-1.2-4.6-1.9c-2.1-0.8-3.5-1.1-5.6-1.9c-1-0.4-1.7-0.7-2.7-1.1
		c-0.9-0.3-1.6-0.4-2.5-0.8C517.6,1037.8,517.4,1037,517.8,1036.1z"/>
	<path class="st1" d="M531.4,1065.3c0.2-0.4,0.4-0.7,0.6-1.1c0.6-1.2,0.2-1.9-1.5-2.7c-1.4-0.7-2.5-1-3.9-1.7
		c-1.7-0.8-2.9-1.5-4.6-2.3c-1.6-0.8-2.7-1.2-4.3-2c-0.9-0.4-1.8-0.9-2.6-1.3c-0.8-0.4-1.3-0.6-2.1-0.9c-0.5-0.2-0.8-0.2-1.3-0.5
		c-1.4-0.7-0.8-1.9-0.7-2.3c0.2-0.5,0.5-0.8,0.7-1.3c0.4-0.7,0.6-1.2,1-1.9c0.3-0.6,0.4-1.1,0.7-1.7c0.4-0.9,1-1.3,2.4-0.6
		c1.4,0.7,2.2,1.3,3.6,2c1.3,0.6,2.3,1,3.6,1.6c1.5,0.7,2.5,1.5,4,2.2c1.1,0.5,1.9,0.8,3,1.3c2.7,1.2,4.5,3,5.9,2.4
		c0.3-0.1,0.4-0.2,0.4-0.3c0.3-0.2,0.6-0.7,0.7-1c0.2-0.3,0.2-0.6,0.4-0.9c0.6-1.1,1.5-1.1,2-0.8c1.1,0.5,1.8,1,2.8,1.5
		c0.7,0.3,1.3,0.5,2,0.9c1.1,0.5,1.2,1.1,0.7,2.2c-0.5,1-0.9,1.6-1.4,2.6c-0.7,1.4-1.3,2.9-2,4.4l-0.2,0.5c-0.6,1.2-1.1,2-1.7,3.2
		c-0.4,0.8-0.5,1.3-0.9,2.1c-0.8,1.6-2,1.1-3.1,0.5c-0.8-0.4-1.4-0.7-2.2-1.1c-0.6-0.3-1-0.4-1.5-0.7
		C531.9,1067.2,530.8,1066.6,531.4,1065.3z"/>
	<path class="st1" d="M521.8,1083.2c0.2-0.4,0.5-0.7,0.7-1.1l0.7-1.1c0.3-0.6,0.6-1,0.9-1.5l0-0.1c0.6-1,0.2-1.5-0.4-1.8l-0.9-0.5
		c-0.4-0.3-0.7-0.5-1.2-0.7c-1.3-0.8-2,0.6-2.2,0.8c-0.3,0.4-0.4,0.8-0.7,1.3c-0.2,0.3-0.3,0.5-0.5,0.8c-0.1,0.3-0.3,0.7-0.5,1
		c-0.7,1.1-1.6,0.8-2,0.6c-0.4-0.3-0.7-0.5-1.1-0.8l-0.8-0.4c-2.3-1.3-3.7-1.8-2.6-3.8c0.5-0.9,1-1.4,1.5-2.2
		c0.9-1.6-0.3-2.4-0.8-2.7l-2-1.2c-1-0.6-1.6-0.9-2.6-1.5c-0.4-0.3-0.7-0.5-1.1-0.8c-0.7-0.4-1.2-0.5-1.9-0.9l-0.1-0.1
		c-0.4-0.2-1.5-1-0.7-2.4c0.5-0.9,1-1.5,1.5-2.4c0.4-0.8,0.7-1.3,1.1-2.1c0.8-1.3,1.8-0.9,2.3-0.6c1.3,0.7,2.1,1.4,3.4,2.1
		c2.3,1.4,4.1,2.2,6.4,3.6c1.7,1,2.9,1.9,4.6,2.9c1.7,1,2.9,1.5,4.5,2.5c1.4,0.8,2.4,1.5,3.9,2.3c0.8,0.5,1.5,0.7,2.3,1.2
		c1.8,1.1,1.7,2.1,1.1,3.1l-0.8,1.3c-0.8,1.5-1.4,2.6-2.2,4c-0.4,0.8-0.9,1.3-1.3,2.1c-0.7,1.2-1.1,2.1-1.8,3.3
		c-0.2,0.3-0.7,1.2-1.7,0.6c-0.3-0.2-0.5-0.3-0.8-0.5l-0.7-0.4c-0.8-0.5-1.4-0.8-2.2-1.2C521.9,1085.2,520.9,1084.8,521.8,1083.2z"
		/>
	<path class="st1" d="M509.7,1108.3c-1-0.8-1.8-1.4-2.9-2.1c-1.1-0.8-1.9-1.2-3-1.9c-1.5-1-2.3-1.8-3.7-2.8c-1.8-1.3-3.1-2-4.9-3.3
		c-0.8-0.6-1.4-1.1-2.3-1.8c-0.6-0.4-4.4-2.6-4.1-7.6c0.1-0.6,0.2-1.9,0.8-3.2c0.6-1.4,2.2-3.6,2.2-3.6c1.7-2.5,3.3-3.3,4.8-4
		c1-0.4,1.4-0.6,2.1-0.7c0.6-0.1,1.5,0,2,0.1c1.3,0.2,3.2,1.4,4.1,2c1.6,1.1,2.7,2,4.3,3.1c2.2,1.5,3.9,2.5,6.1,4
		c1.3,0.9,2.1,1.6,3.4,2.5c1.4,1,2.4,1.6,3.8,2.6c1.6,1.1,2.4,1.8,1.5,3.1c-0.6,0.9-1.2,1.4-1.9,2.4c-0.3,0.5-0.5,0.9-0.8,1.4
		c-0.6,0.8-1.3,2-2.7,1c-1.2-0.8-2-1.6-3.2-2.4c-0.7-0.5-1.2-0.8-2-1.3c-0.7-0.5-1.1-0.8-1.7-1.3l-1.2-0.9c-1.2-0.8-2.3-1.8-3.5-2.6
		c-0.9-0.6-1.6-1-2.5-1.7c-0.9-0.6-1.8-1.3-2.7-2l-0.2-0.1c-0.9-0.6-2.5-1.8-3.6-0.2c-0.3,0.4-0.4,0.9-0.4,1.1
		c-0.1,1.4,0.8,2,2.4,3.2c1.9,1.3,3.2,2.4,5.2,3.7c1.6,1.1,2.9,1.8,4.5,2.9c1.5,1,2.3,1.8,3.8,2.8c0.5,0.3,1,0.7,1.5,1
		c0.9,0.6,2.8,1.6,1.7,3.3c-0.6,0.9-1.2,1.4-1.8,2.3c-0.5,0.7-0.8,1.3-1.3,2.1c-0.9,1.2-2.1,0.4-2.3,0.2
		C510.7,1109.2,510.3,1108.8,509.7,1108.3z"/>
	<path class="st1" d="M474.6,1108.3L474.6,1108.3c-0.5-0.4-1.8-1.1-0.6-2.5c0.6-0.7,1-1.1,1.6-1.7c0.5-0.6,0.8-1.1,1.3-1.7
		c0.5-0.6,0.9-1,1.4-1.6l2.2-2.7c0.7-0.8,1-1.4,1.7-2.2c1.1-1.3,2.1-0.6,2.5-0.2l0.3,0.2c1.3,1.1,2.2,2,3.5,3.1
		c1.4,1.2,2.5,1.9,4,3.1c1.2,1,1.8,1.8,3,2.7c0.9,0.7,1.6,1.2,2.4,1.9c0.6,0.5,1.1,1,1.7,1.5c0.9,0.7,1.6,1.2,2.5,2
		c0.9,0.8,1.4,1.4,2.3,2.1c0.9,0.8,1.9,1.5,2.8,2.2l0.1,0.1c0.4,0.3,1.5,1.2,0.4,2.6c-0.5,0.6-1,1-1.6,1.7c-0.5,0.7-1,1.4-1.5,2
		c-0.5,0.7-1.3,1.6-2.3,0.7c-0.5-0.4-0.7-0.7-1.1-1.1c-1-0.9-1.6-1.5-2.6-2.4c-1-0.8-1.8-1.3-2.7-2.1c-0.7-0.6-1.4-1.3-2.1-1.9
		c-0.6-0.5-1.3-0.9-1.9-1.4c-1-0.9-1.7-1.6-2.8-2.4c-0.7-0.5-1.2-0.9-1.9-1.4c-0.3-0.2-0.6-0.5-0.9-0.8c-1.9-1.6-3.2-0.3-3.8,0.4
		c-0.5,0.6-0.9,1-1.3,1.6c-0.2,0.3-0.4,0.5-0.6,0.8c-0.3,0.3-0.7,0.7-1.3,0.8c-0.8,0.1-2.8-1.7-3.2-2.1
		C475.4,1109.1,475.1,1108.7,474.6,1108.3z"/>
	<path class="st1" d="M461.2,1122.3L461.2,1122.3c-0.4-0.4-1.7-1.3-0.5-2.6c0.6-0.6,1.1-1,1.7-1.6c0.6-0.6,0.9-1,1.5-1.6
		c0.6-0.6,0.9-0.9,1.5-1.5l2.4-2.5c0.7-0.7,1.1-1.3,1.9-2.1c1.2-1.2,2.1-0.4,2.6,0l0.3,0.3c1.3,1.2,2,2.1,3.3,3.4
		c1.4,1.3,2.4,2.1,3.8,3.4c1.1,1,1.7,1.9,2.7,2.9c0.8,0.8,1.5,1.3,2.3,2.1c0.5,0.5,1,1.1,1.6,1.6c0.8,0.8,1.5,1.3,2.4,2.1
		c0.8,0.8,1.3,1.5,2.1,2.2c0.9,0.8,1.8,1.6,2.6,2.4l0.1,0.1c0.3,0.3,1.4,1.3,0.2,2.6c-0.6,0.6-1.1,1-1.7,1.6
		c-0.6,0.6-1.1,1.3-1.7,1.9c-0.6,0.6-1.4,1.5-2.4,0.5c-0.4-0.4-0.7-0.8-1.1-1.2c-0.9-1-1.5-1.7-2.4-2.5c-0.9-0.9-1.7-1.4-2.5-2.3
		c-0.7-0.7-1.3-1.4-2-2.1c-0.5-0.5-1.2-1-1.8-1.5c-1-0.9-1.6-1.7-2.6-2.6c-0.6-0.6-1.1-0.9-1.8-1.6c-0.3-0.3-0.5-0.6-0.8-0.9
		c-1.8-1.7-3.2-0.6-3.8,0.1c-0.6,0.6-0.9,0.9-1.5,1.5c-0.3,0.3-0.4,0.5-0.7,0.8c-0.3,0.3-0.7,0.7-1.3,0.7c-0.8,0-2.6-1.9-3.1-2.3
		C462,1123.2,461.7,1122.8,461.2,1122.3z"/>
	<path class="st1" d="M466.3,1155.8c-0.2-0.2-2-4.3-3.1-6.9c-0.2-0.5-0.3-0.9-0.5-1.4c-0.8-1.8-1.4-3.1-2.1-5
		c-1-2.7-0.9-3.9-2.7-5.9c-0.6-0.7-1.1-1.1-1.7-1.8c-0.6-0.8-1-1.3-1.7-2.1c-0.8-0.9-1.4-1.4-2.2-2.3c-0.4-0.4-0.9-1-0.8-1.8
		c0-0.2,0.5-0.7,0.6-0.8c0.4-0.3,0.7-0.6,1.1-0.9c0.5-0.5,0.9-0.9,1.4-1.4l1.2-1.1c1.5-1.4,2.5,0.2,3.2,1l0.1,0.1
		c0.2,0.2,0.4,0.5,0.6,0.7c0.3,0.4,0.7,0.6,1,0.9c0.6,0.6,0.8,1.2,1.4,1.8c0.6,0.7,1.2,1,1.8,1.7c0.6,0.7,1,1.2,1.8,1.7
		c0.2,0.1,4.3,2.5,6.9,3.7c1.4,0.7,2.4,1,3.7,1.6c1.8,0.9,3,1.8,4.8,2.7c0.8,0.4,1.5,0.7,2.3,1.1c0.3,0.2,0.5,0.4,0.6,0.5
		c0.9,1-0.3,1.8-0.4,1.9c-0.5,0.5-1.1,0.9-1.6,1.4c-1,0.8-1.6,1.5-2.5,2.4c-0.5,0.5-0.8,0.6-1.3,0.5c-1,0-4-2.4-4.6-2.8
		c-1.1-0.7-1.9-1.2-3-1.9c-0.5-0.4-1.3-1-1.5-0.8c-0.3,0.3,0.2,0.9,0.5,1.4c0.4,0.8,0.8,1.4,1.2,2.2c0.2,0.4,0.3,0.7,0.5,1.1
		c0.3,0.6,0.6,1.1,0.9,1.7c0.2,0.4,1.3,2,1.5,2.5c0.1,0.6,0.3,0.8,0,1.4c-0.1,0.3-0.7,0.8-0.8,0.9c-0.6,0.5-1.1,0.9-1.6,1.4
		c-0.6,0.6-1,1-1.6,1.6c-0.7,0.6-1.5,1.2-2.4,0.3C466.7,1156.7,466.3,1155.9,466.3,1155.8z"/>
	<path class="st1" d="M439.5,1174.9c-0.8-1.1-1.3-1.8-2.1-2.8c-0.2-0.2-1.1-1.5,0.2-2.4c0.5-0.4,1-0.4,1.5-0.8
		c0.2-0.2,1.3-1.8,1.4-2.2c0.5-1.8-0.6-4.3-2.6-7c-1.7-2.3-3.4-3.5-5-3.6c-0.2,0-2.4-0.1-3.4,0.6c-0.4,0.3-0.5,0.6-0.9,0.9
		c-0.1,0.1-0.5,0.3-1.1,0.1c-0.3-0.1-0.5-0.3-0.8-0.8c-0.5-0.7-0.8-1.3-1.3-2c-0.7-1-1.3-1.6-1.9-2.5c-1.1-1.6,0.1-2.5,0.6-2.8
		c0.3-0.2,2.9-1.9,3.2-2.1c0.1,0,2.4-1.1,4.2-1.2c1.6-0.1,3.2,0.4,3.7,0.5c0.3,0.1,1.4,0.4,1.7,0.5c0.2,0.1,3.1,1.6,4.5,2.8
		c0.7,0.6,1.6,1.8,2.1,2.5c0.9,1.1,1.6,1.8,2.5,3c2.1,2.9,3.4,6.2,3.7,7.3c0.1,0.5,0.9,2.9,0.2,5.4c0,0.3-1.3,3.6-1.4,3.8
		c-0.7,1.5-2.7,3.4-3.9,4.2l-0.3,0.2c-0.9,0.7-2.3,1.8-3.4,0.3C440.3,1176.2,440,1175.7,439.5,1174.9z"/>
	<path class="st1" d="M402.2,1163.6l0.2-0.1c0.7-0.4,1.2-0.6,1.9-1c0.8-0.5,1.3-0.8,2.1-1.3c0.4-0.3,0.7-0.5,1.2-0.8
		c1.3-0.8,2,0.2,3,0.8c1,0.7,1.8,1.1,2.7,1.8c0.7,0.5,1.1,0.8,1.8,1.3c0.7,0.5,1.3,0.9,1.7,0.6c0.6-0.4,0-1.1-0.1-1.3
		c-0.5-0.8-0.9-1.3-1.3-2.1c-0.4-0.6-0.6-1-0.9-1.6c-0.3-0.6-0.7-0.9-1-1.5c-0.5-0.9-0.1-1.4,0.3-1.7c0.8-0.5,1.5-0.7,2.4-1.3
		c1-0.6,1.7-1.2,2.7-1.8c0.9-0.5,1.7-0.2,2.2,0.6c0.4,0.6,0.5,1.1,0.8,1.6c0.6,1,1,1.8,1.6,2.8c1.2,2,2.2,3.3,3.4,5.4s2,3.6,3.2,5.7
		c0.8,1.3,1.4,2.2,2.2,3.5c0.8,1.4,1.4,2.5,2.2,3.9c0.5,0.8,1,1.4,1.5,2.2c0.5,0.8,0.9,2.2-0.9,3.3c-0.8,0.5-1.5,0.8-2.3,1.3
		c-2,1.2-3.4,2.2-5.4,3.4c-2.3,1.4-5.8,2.9-9.5,0.9c-0.3-0.2-0.6-0.4-0.9-0.6c-0.3-0.2-0.8-0.5-1.4-1.1c-0.9-0.8-2.6-3.4-3.1-4.4
		c-0.4-0.6-2.6-4.1-2-8.2c0-0.5,0.2-0.8,0.2-1.2c0.1-0.4,0.2-0.5,0.3-0.9c0-0.1,0-0.3-0.1-0.5c-0.3-0.6-3.5-2.3-4.1-2.7
		c-0.6-0.4-1-0.7-1.6-1.1c-1-0.7-1.8-1-2.7-1.7c-0.1-0.1-0.4-0.3-0.6-0.7C401.1,1164.2,402.1,1163.7,402.2,1163.6z M424.2,1180
		l0.2-0.1c0.3-0.2,0.5-0.5,0.6-0.7c0.2-0.6,0-1.2,0-1.3c-0.1-0.2-1.9-3.5-1.9-3.6c-0.6-1-1.7-1.6-3-0.9c-0.6,0.3-0.8,0.8-1,1.1
		c-0.3,1,0.3,2.3,1.2,3.9C421,1179.4,422.6,1181,424.2,1180z"/>
	<path class="st1" d="M380.4,1174.1c1-0.5,1.8-0.7,2.8-1.2c0.8-0.4,1.4-0.8,2.2-1.2c1.5-0.7,1.9,0.5,2.1,0.9c0.2,0.4,1.4,2.7,2,2.9
		c0.3,0.1,0.1,0,0.5,0.1c0.1,0,1.7-0.7,2.7-1.2c1.6-0.8,1.3-1.1,1-2.1c-0.1-0.4-1.2-2.8-1.1-3.3c0.1-0.5,0.3-0.8,1-1.1
		c0.8-0.4,1.4-0.6,2.2-1c0.8-0.4,1.7-0.9,2.5-1.3c0.8-0.4,1.6-0.7,2.2,0.5c0.2,0.3,0.4,1.2,0.6,2.2c0.4,1.2,0.7,1.9,1,3.1
		c0.3,1.1,0.4,1.8,0.7,2.9c0.4,1.5,0.8,2.5,1.2,4c0.5,1.5,0.6,2.6,1.1,4c0.3,1,0.6,1.8,1,2.9c0.3,1.2,0.5,2.2,0.8,3.5
		c0.5,1.9,1.1,3.2,1.5,5.1c0.3,1.3,0.5,2.5,0.3,3c-0.3,0.5-0.7,0.9-1.6,1.4c-1.4,0.7-2.5,1-4,1.7c-1.1,0.5-2.1,1.1-3.2,1.6l-0.2,0.1
		c-1.1,0.5-1.5,0.5-2.3,0c-0.1,0-0.4-0.3-0.5-0.4c0,0-2.6-3.6-2.7-3.6c-0.9-1.3-1.4-2.2-2.3-3.4c-1.1-1.5-1.8-2.6-3-4
		c-0.9-1.2-1.6-2-2.4-3.3c-1.1-1.6-1.7-2.8-2.8-4.5c-1.7-2.4-4-5.2-4.2-5.8C379.8,1176.4,379.1,1174.7,380.4,1174.1z M397.9,1189.2
		c0.4,0.6,0.9,1.5,1.1,1.6c0.2,0.3,0.5,0.3,0.6,0.3c0.1-0.1,0.2-0.4,0.1-0.6c0-0.3-0.4-1.7-0.5-2c-0.1-0.6-0.2-1-0.3-1.6
		c-0.1-0.4-1.2-4-1.4-4.3c-0.6-1.3-1.3-1.1-2-0.8c-0.5,0.3-1.6,0.8-0.9,2.3C395.8,1186.4,397.5,1188.7,397.9,1189.2z"/>
	<path class="st1" d="M372.5,1204.2c0.4-0.2,0.8-0.3,1.2-0.4l1.2-0.5c0.6-0.2,1.1-0.4,1.7-0.6l0.1,0c1.1-0.4,1.1-1.1,0.9-1.6
		l-0.4-0.9c-0.2-0.5-0.3-0.8-0.4-1.3c-0.6-1.4-2-0.8-2.2-0.7c-0.5,0.2-0.9,0.4-1.4,0.5c-0.4,0.1-0.6,0.2-0.9,0.3
		c-0.3,0.2-0.7,0.4-1,0.5c-1.2,0.4-1.8-0.4-1.9-0.8c-0.2-0.5-0.2-0.8-0.4-1.3l-0.3-0.8c-0.9-2.5-1.7-3.8,0.4-4.6
		c0.9-0.4,1.6-0.4,2.6-0.8c1.7-0.7,1.3-2,1.1-2.6l-0.8-2.1c-0.4-1.1-0.7-1.7-1.1-2.8c-0.1-0.5-0.2-0.8-0.4-1.3
		c-0.3-0.7-0.6-1.2-0.9-1.9l-0.1-0.1c-0.2-0.4-0.6-1.7,1-2.3c1-0.4,1.7-0.5,2.7-0.9c0.8-0.3,1.4-0.6,2.2-0.9c1.4-0.5,2,0.4,2.2,0.9
		c0.5,1.4,0.8,2.4,1.3,3.8c0.9,2.6,1.8,4.2,2.7,6.8c0.7,1.9,1,3.3,1.8,5.1c0.7,1.8,1.3,3,2,4.8c0.6,1.5,0.9,2.7,1.5,4.2
		c0.3,0.9,0.7,1.5,1,2.4c0.8,2,0,2.7-1.1,3.1l-1.4,0.6c-1.6,0.6-2.7,1.1-4.3,1.7c-0.8,0.3-1.5,0.5-2.4,0.8c-1.3,0.5-2.2,0.9-3.5,1.4
		c-0.4,0.1-1.3,0.5-1.7-0.7c-0.1-0.4-0.2-0.6-0.3-0.9l-0.3-0.8c-0.3-0.9-0.6-1.5-0.9-2.4C371.2,1205.8,370.8,1204.8,372.5,1204.2z"
		/>
	<path class="st1" d="M351.6,1210.2c0.5-0.1,0.8-0.2,1.2-0.3c1.3-0.4,1.5-1.1,1-2.9c-0.5-1.5-0.9-2.5-1.4-4.1
		c-0.5-1.8-0.8-3.1-1.4-5c-0.5-1.7-0.9-2.8-1.4-4.5c-0.3-0.9-0.5-1.9-0.8-2.8c-0.2-0.8-0.4-1.4-0.7-2.2c-0.2-0.5-0.4-0.8-0.5-1.3
		c-0.4-1.4,0.8-1.9,1.3-2c0.5-0.2,0.9-0.2,1.5-0.3c0.8-0.2,1.3-0.3,2-0.6c0.6-0.2,1.1-0.4,1.7-0.6c0.9-0.3,1.7-0.2,2.1,1.4
		c0.4,1.5,0.5,2.5,1,4c0.4,1.4,0.8,2.3,1.3,3.7c0.5,1.6,0.6,2.9,1.1,4.5c0.3,1.2,0.7,1.9,1.1,3.1c0.9,2.8,0.8,5.3,2.3,6
		c0.2,0.2,0.4,0.1,0.5,0.1c0.4,0.1,0.9-0.1,1.2-0.2c0.4-0.1,0.6-0.2,0.9-0.3c1.2-0.4,1.8,0.4,1.9,0.9c0.3,1.1,0.5,2,0.8,3.1
		c0.2,0.8,0.5,1.3,0.7,2c0.3,1.1,0,1.7-1.1,2c-1,0.3-1.8,0.4-2.8,0.7c-1.5,0.5-3,1-4.5,1.5l-0.5,0.1c-1.3,0.4-2.2,0.6-3.5,0.9
		c-0.8,0.2-1.3,0.5-2.1,0.7c-1.8,0.5-2.1-0.8-2.5-2c-0.3-0.9-0.4-1.5-0.7-2.4c-0.2-0.6-0.4-1-0.5-1.6
		C350.6,1211.9,350.3,1210.6,351.6,1210.2z"/>
	<path class="st1" d="M324,1195.1c-0.2-0.8-0.3-1.3-0.5-2.1c-0.1-0.6-0.2-1.8,1.4-2.2c0.6-0.1,1.1-0.2,1.8-0.3l1.1-0.2
		c1.1-0.2,1.9-0.3,3-0.5c0.6-0.1,1.1-0.3,1.7-0.4l4.9-1.1c0.4-0.1,0.8-0.3,1.2-0.4c0.6-0.1,2-0.1,2.3,1.5c0.3,1.2,0.3,2.1,0.6,3.3
		c0.2,1.1,0.4,1.8,0.7,2.9c0.2,0.8,0.2,1.4,0.3,2.2c0.2,0.8,0.4,1.3,0.5,2.1c0.3,1.5,0.5,2.6,0.8,4.1c0.3,1.4,0.7,2.7,1,4.1
		c0.5,1.9,0.6,3.2,1,5.1c0.3,1.3,0.6,2.2,0.9,3.5c0.6,2.7,0.4,3.5-1.6,4c-1.2,0.3-2.1,0.3-3.3,0.5c-0.6,0.1-1.1,0.3-1.7,0.4
		c-1.5,0.3-2.6,0.4-4,0.7c-0.6,0.1-1.1,0.3-1.7,0.5l-0.9,0.2c-0.5,0.1-0.9,0.2-1.4,0.4c-1.4,0.3-1.7-0.8-1.8-1.2
		c-0.2-0.8-0.2-1.6-0.4-2.4c-0.3-1.2-1.2-3.3,1-3.8l0.5-0.1c0.6-0.1,1-0.3,1.5-0.4c0.7-0.2,1.3-0.1,2-0.3c2.5-0.5,2.4-1.3,2.1-2.9
		c-0.3-1.6-1.1-2.3-2.1-2c-0.5,0.1-0.9,0.3-1.4,0.4l-0.1,0c-0.7,0.1-1.2,0.2-1.8,0.3c-0.6,0.1-1,0.3-1.5,0.4
		c-1.9,0.4-2.1-0.9-2.2-1.5c-0.2-0.7-0.2-1.2-0.4-1.9c-0.1-0.7-0.3-1.1-0.4-1.8c-0.4-1.8,0.9-2.2,1.5-2.3c1.4-0.3,2.4-0.3,3.8-0.6
		c2.5-0.5,2-2,1.8-3l-0.1-0.6c0-0.2-0.2-1.1-0.4-1.4c-0.9-1.1-1.5-0.7-3.2-0.5c-0.8,0.1-1.4,0.1-2.2,0.3c-0.7,0.2-1.2,0.4-1.9,0.6
		c-0.5,0.1-1.7,0.1-2.1-1.3C324.2,1196.4,324.2,1195.8,324,1195.1z"/>
	<path class="st1" d="M305.8,1194.6c1.1-0.7,2.5-1.2,5.1-1.5c0.9-0.1,1.5-0.1,2.4-0.2c1.4-0.2,2.3-0.5,3.6-0.7
		c1.4-0.2,2.9-0.3,3.2,1.8c0.2,1.7,0.1,2.9,0.3,4.6c0.3,2.7,0.8,4.6,1.1,7.3c0.1,1.1,0.2,1.8,0.3,2.9c0.2,1.9,0.5,3.2,0.8,5.1
		c0.2,1.7,0.3,2.8,0.5,4.5c0.2,1.4,0.4,2.3,0.6,3.7c0.3,2.1-0.4,2.8-1.8,3c-1.3,0.2-2.1,0.2-3.3,0.4c-1.3,0.2-2.1,0.3-3.3,0.5
		c-0.4,0-0.7,0.1-1.1,0.2c-4.4,0.5-6.7-0.6-8.9-2.5c-0.4-0.3-1.3-1.3-2.2-2.5c-2.4-3.7-3.1-10.1-3.2-10.4
		C299.5,1206.4,300,1198.1,305.8,1194.6z M309.5,1212.6c0.2,1.2,1.1,6,3.8,5.4c0.2,0,0.4-0.1,0.5-0.3c0.8-0.5,0.6-1.6,0.6-2.2
		c-0.2-1.8-0.5-3-0.7-4.8c-0.2-1.2-0.2-2-0.3-3.2c-0.1-0.9-0.3-1.6-0.5-2.5c-0.1-0.7-0.1-1.1-0.2-1.8c-0.1-1-0.3-2.7-2-2.5
		c-1.8,0.3-1.9,2.5-1.9,2.6c-0.1,0.8-0.1,5.4,0,6.2C309.1,1210.6,309.3,1211.5,309.5,1212.6z"/>
</g>
</svg>
