<?xml version="1.0" encoding="utf-8"?>
<!-- Generator: Adobe Illustrator 27.8.1, SVG Export Plug-In . SVG Version: 6.00 Build 0)  -->
<svg version="1.1" id="Layer_1" xmlns="http://www.w3.org/2000/svg" xmlns:xlink="http://www.w3.org/1999/xlink" x="0px" y="0px"
	 viewBox="0 0 392 371.8" style="enable-background:new 0 0 392 371.8;" xml:space="preserve">
<style type="text/css">
	.st0{clip-path:url(#SVGID_00000012466292093298971110000001470672312114015376_);}
	.st1{fill:#FCFDFF;}
	.st2{fill:#004A2C;}
</style>
<g>
	<defs>
		<rect id="SVGID_1_" width="392" height="371.8"/>
	</defs>
	<clipPath id="SVGID_00000053509912330232990410000014700201447004621709_">
		<use xlink:href="#SVGID_1_"  style="overflow:visible;"/>
	</clipPath>
	<g style="clip-path:url(#SVGID_00000053509912330232990410000014700201447004621709_);">
		<path class="st1" d="M353.8,63.7c0.3-3.5,0.3-7.7-0.6-12.3c0.8-2.9,1.2-6,1.1-9.2c0-0.9-0.1-1.8-0.1-2.5c0-0.7,0.1-1.6,0-2.6
			c0-1.3-0.1-2.5-0.3-3.7c0.1-1.3,0.2-2.5,0.1-3.8c0-1.1-0.1-2.1-0.2-2.9c0-0.6,0-1.4,0-2.3c0-1.8-0.2-3.6-0.6-5.3
			c0.2-1.9,0.2-3.9,0-5.9c-0.1-1.1-0.2-2-0.3-2.6c0-0.1,0-0.1,0-0.2c-0.1-1-0.1-1.9-0.2-3l0-0.5c-0.1-1.4-0.3-2.7-0.5-3.7
			c0-0.3-0.1-0.6-0.1-0.9l0-0.1c0-0.6-0.1-1.7-0.2-3c-0.5-4.5-1.8-8.7-3.9-12.5c1.4-7.4-0.1-13.7-0.8-17.1l-0.1-0.4
			c-0.8-3.7-2.1-7.2-3.7-10.4c-0.1-2.6-0.5-5.2-1.3-7.9c-0.3-1.2-0.7-2.1-0.9-2.7c0-0.1-0.1-0.2-0.1-0.3c-0.2-0.7-0.4-1.4-0.6-2.1
			c-1.4-4.6-3.4-8.5-5.9-11.6c0.1-4.4-0.7-8.9-2.6-13.3c-0.3-0.7-0.5-1.2-0.8-1.8l-0.2-0.4c-0.2-0.6-0.5-1.5-1-2.5
			c-0.6-1.4-1.3-2.7-2-4c-0.4-1.4-0.9-2.8-1.5-4.2c-0.5-1.1-0.9-2-1.2-2.6c-0.2-0.7-0.5-1.5-0.9-2.4l-0.1-0.2
			c-0.7-1.6-1.5-3.2-2.5-4.6c-0.9-1.3-1.9-2.6-2.9-3.8c-0.9-3.8-2.3-7.5-4.3-11.2l-0.1-0.2c-1.6-3-3.8-6.4-6.9-9.6
			c-0.8-2.6-2-5.1-3.5-7.4c-0.7-1-1.3-1.9-1.6-2.4c-0.1-0.1-0.1-0.2-0.2-0.3c-0.4-0.6-0.7-1.2-1.2-1.9c-0.9-1.4-1.9-2.7-2.8-3.8
			c-0.9-1.7-1.9-3.5-3.1-5.1c-0.7-0.9-1.2-1.6-1.6-2.1c0-0.1-0.1-0.1-0.1-0.2c-0.5-0.8-1.1-1.6-1.7-2.5l-0.3-0.4
			c-0.9-1.2-1.6-2.1-2.3-2.9c-0.2-0.2-0.4-0.5-0.6-0.7l-0.1-0.1c-0.3-0.5-0.9-1.4-1.7-2.5c-1.4-1.9-2.9-3.6-4.6-5.1
			c-1-1.7-2.2-3.4-3.6-5l-0.1-0.2c-0.5-0.6-1-1.2-1.6-1.8c-0.2-0.2-0.4-0.5-0.6-0.7l-0.2-0.3c-0.6-0.8-1.4-1.9-2.6-3.3
			c-2-2.4-4.2-4.3-6.3-5.8c-1.4-2.4-3.1-4.6-5.2-6.6c-0.5-0.5-1-0.9-1.4-1.3l-0.3-0.3c-0.6-0.6-1.2-1.1-1.6-1.5
			c-0.6-0.6-1.4-1.6-2.5-2.6c-0.3-0.3-0.6-0.6-1-0.9c-0.6-0.7-1.5-1.7-2.6-2.7c-2.7-2.7-5.5-4.6-8.3-6c-2.1-2.9-4.7-5.6-7.6-8.1
			c-1.3-1.1-2.4-1.9-3.3-2.6c-0.7-0.5-1-0.8-1.3-1c-0.1,0-0.2-0.1-0.2-0.1c-0.5-0.4-1.2-1.1-2.3-2c-1.6-1.3-3.2-2.4-4.9-3.4
			c-1.7-1.7-3.6-3.4-6-5l-0.2-0.1c-2.7-1.9-9.9-6.3-18.8-7.4c-4.9-8.5-12.6-12.6-16.2-14.5l-0.4-0.2c-5-2.6-10-4.3-15-4.9
			c-3.4-3.1-7.5-5.7-12.2-7.7c-0.8-0.3-1.4-0.6-2-0.8c-0.4-0.1-0.8-0.3-1.2-0.4c-0.3-0.1-0.6-0.2-0.9-0.4c-0.3-0.1-0.6-0.3-0.9-0.4
			c-0.7-0.3-1.4-0.6-2.2-1c-3.3-1.4-6.7-2.2-10.2-2.5c-2.5-1.7-5.4-3.2-8.5-4.2c-0.8-0.3-1.5-0.5-2-0.6c-0.7-0.3-1.6-0.6-2.6-1
			c-1.9-0.6-3.9-1.1-5.9-1.3c-1.8-0.8-3.7-1.5-5.6-1.9c-0.7-0.2-1.3-0.3-1.9-0.4l-0.4-0.1c-0.8-0.2-1.6-0.4-2.2-0.5
			c-0.8-0.2-2-0.6-3.5-1c-0.4-0.1-0.9-0.2-1.3-0.3c-0.8-0.3-2.1-0.7-3.6-1.1c-2.2-0.5-4.3-0.8-6.5-1c-1.5-0.5-3.1-0.9-4.7-1.2
			c-1.2-0.2-2.2-0.3-2.8-0.4c-0.1,0-0.2,0-0.4-0.1c-0.7-0.1-1.4-0.3-2.2-0.4c-1.1-0.2-2.6-0.4-4.5-0.5c-1.7-0.5-3.5-0.9-5.4-1.1
			c-0.9-0.1-1.7-0.2-2.5-0.3c-0.3,0-0.6-0.1-0.9-0.1c-0.6-0.1-1.6-0.3-2.8-0.4c-1.2-0.1-2.2-0.2-3.3-0.3c-0.4,0-0.8-0.1-1.3-0.1
			l-1.5-0.2c-1-0.1-2-0.2-3-0.2c-2.6-0.1-5.1,0.2-7.4,0.6c-3.5-1.1-7.2-1.7-11.1-1.9c-0.2,0-0.5,0-0.8,0c-0.4,0-0.9,0-1.3,0
			c-0.4,0-0.9,0-1.3,0c-0.3,0-0.6,0-1,0c-0.4,0-0.7,0-1-0.1c-0.7-0.1-1.5-0.1-2.4-0.2c-0.2,0-0.6,0-0.8,0c-1.3,0-2.5,0-3.8,0.1
			c-0.1,0-0.2,0-0.3,0c-0.9-0.1-1.7-0.2-2.3-0.2c-0.7-0.1-1.8-0.3-3-0.5c-1-0.1-2.1-0.2-3.1-0.2c-0.3,0-0.6,0-0.8,0
			c-1.8-0.4-3.2-0.6-4-0.7c-0.5-0.1-1-0.1-1.4-0.1c-0.8-0.2-1.9-0.4-3.1-0.5c-1-0.1-2.1-0.2-3.1-0.2c-0.4,0-0.8,0-1.2,0
			c-2.6-1.2-5.5-2.2-8.5-3l-0.3-0.1c-3.5-0.8-6.4-1.2-9.4-1.3c-0.3,0-0.6,0-1,0c-2.2-1.4-4.7-2.6-7.3-3.5c-0.8-0.3-1.5-0.5-2-0.6
			c-0.7-0.3-1.6-0.6-2.6-1c-0.2-0.1-0.4-0.1-0.6-0.2c-1.2-0.7-2.5-1.3-3.8-1.8l-0.2-0.1c-2.1-0.9-7.4-2.9-13.7-3.5
			c-2.1-2.2-4.4-4.2-7.2-5.8c-0.7-0.4-1.4-0.8-1.9-1.1c-0.5-0.3-1.1-0.7-1.9-1.2c-1.5-0.9-3-1.7-4.5-2.3c-1.1-0.8-2.2-1.6-3.3-2.3
			c-0.8-0.5-1.5-0.8-2.1-1.2l-0.2-0.1c-0.4-0.3-1.1-0.7-1.9-1.2c-0.8-0.5-1.6-1-2.5-1.4c-1.5-1.5-3.1-2.9-4.9-4.3
			c-1.4-1-2.5-1.8-3.4-2.4c-0.7-0.5-1.1-0.7-1.4-1c-0.1,0-0.2-0.1-0.2-0.1c-0.5-0.4-1.3-1.1-2.4-1.9c-0.7-0.5-1.4-1-2.1-1.5
			c-0.4-0.4-0.8-0.8-1.2-1.2c-0.5-0.5-1-0.9-1.5-1.3l-0.3-0.3c-0.6-0.6-1.2-1.1-1.7-1.4c-0.6-0.6-1.5-1.5-2.6-2.5
			c-0.3-0.3-0.6-0.6-1-0.9c-0.6-0.6-1.5-1.6-2.7-2.6c-0.9-0.8-1.8-1.5-2.7-2.2c-0.2-0.2-0.4-0.5-0.7-0.7c-0.3-0.3-0.6-0.6-0.8-0.9
			c-0.5-0.6-1.2-1.5-2.2-2.6c-0.9-1-1.8-1.9-2.8-2.7c-0.7-0.9-1.4-1.9-2.2-2.7c-0.7-0.7-1.2-1.3-1.8-2c-0.3-0.3-0.6-0.6-0.9-1
			l-0.1-0.1c-0.3-0.4-0.7-0.8-1-1.2c-0.3-0.5-0.7-1-1.1-1.5c-0.4-0.6-0.8-1.1-1.2-1.5l-0.3-0.3c-0.5-0.7-1-1.3-1.4-1.7
			c-0.5-0.7-1.2-1.7-2.1-3c-0.3-0.3-0.5-0.7-0.8-1c-0.5-0.8-1.2-1.9-2.1-3.1c-2.3-3-4.8-5.4-7.3-7.2c-1-5.4-3.1-9.2-3.9-10.5
			c-0.4-0.7-0.8-1.3-1.1-1.8c-0.3-0.7-0.7-1.5-1.3-2.4c-0.3-0.6-0.7-1.1-1-1.7c-0.3-0.7-0.6-1.4-0.9-2.1c-0.5-1.1-1-2-1.3-2.5
			c0-0.1-0.1-0.2-0.1-0.3c-0.3-0.6-0.6-1.3-0.9-2c-0.7-1.5-1.5-2.9-2.4-4.3c-0.3-1.3-0.8-2.7-1.3-4l-0.1-0.2
			c-0.3-0.7-0.6-1.5-0.9-2.2c-0.1-0.3-0.2-0.6-0.4-0.9l-0.1-0.3c-0.3-0.9-0.7-2.3-1.4-4c-0.5-1.2-1-2.3-1.5-3.4
			c-0.2-0.7-0.3-1.4-0.5-2.1c-0.3-1.1-0.6-1.9-0.8-2.5c0-0.1,0-0.1-0.1-0.2c-0.2-0.9-0.5-1.9-0.8-2.9l-0.2-0.5
			c-0.4-1.4-0.8-2.6-1.1-3.5c-0.1-0.3-0.2-0.6-0.3-0.8l0-0.1c-0.1-0.6-0.4-1.6-0.8-2.9c-0.1-0.4-0.3-0.8-0.4-1.2
			c-0.1-0.5-0.1-0.9-0.2-1.4c-0.1-0.7-0.3-1.3-0.4-1.9l-0.1-0.4c-0.2-0.8-0.3-1.6-0.5-2.2c-0.1-0.8-0.3-2.1-0.6-3.6
			c-0.1-0.4-0.2-0.9-0.3-1.3c-0.1-0.9-0.3-2.2-0.6-3.7c-0.4-2-1-4-1.7-5.9c0.2-2.6,0.2-5.3-0.1-8c-0.1-0.8-0.2-1.5-0.3-2.1
			c-0.1-0.4-0.1-0.8-0.2-1.3c0-0.3-0.1-0.6-0.1-1c0-0.4-0.1-0.7-0.1-1c-0.1-0.7-0.1-1.5-0.2-2.4c-0.2-2.1-0.6-4.1-1.2-6
			c0.5-2.1,0.8-4.2,1-6.4c0-0.9,0.1-1.6,0.1-2.2c0.1-0.6,0.1-1.3,0.2-2.2c0-1,0.1-2.7-0.1-5c0.2-1.3,0.4-2.6,0.4-4
			c0-0.9,0.1-1.7,0.1-2.5l0-0.2c0.1-0.5,0.1-1.3,0.2-2.3c0.1-0.9,0.1-1.8,0.1-2.8c0.6-2,1.1-4.2,1.4-6.4c0.3-1.7,0.4-3.1,0.5-4.2
			c0.1-0.8,0.1-1.3,0.2-1.6c0-0.1,0-0.2,0-0.2c0.1-0.6,0.3-1.6,0.5-3c0.1-0.9,0.2-1.8,0.3-2.6c0.2-0.5,0.3-1.1,0.5-1.6
			c0.2-0.7,0.3-1.3,0.4-1.9l0.1-0.4c0.2-0.8,0.4-1.6,0.5-2.2c0.2-0.8,0.6-2,1-3.5c0.1-0.4,0.2-0.9,0.3-1.3c0.3-0.8,0.7-2.1,1.1-3.6
			c0.3-1.1,0.5-2.3,0.7-3.4c0.1-0.4,0.2-0.7,0.3-0.9c0.1-0.4,0.3-0.8,0.4-1.1c0.3-0.7,0.8-1.8,1.2-3.1c0.4-1.3,0.8-2.5,1.1-3.8
			c0.5-1.1,1-2.1,1.4-3.3c0.3-0.9,0.6-1.7,0.9-2.5c0.1-0.4,0.3-0.8,0.4-1.3l0-0.1c0.2-0.4,0.3-0.8,0.5-1.3c0.3-0.6,0.6-1.1,0.9-1.7
			c0.3-0.7,0.6-1.2,0.8-1.8l0.2-0.4c0.4-0.8,0.7-1.5,0.9-2.1c0.4-0.7,1-1.8,1.7-3.3c0.2-0.4,0.4-0.8,0.5-1.2
			c0.4-0.8,1.1-1.9,1.7-3.3c1.5-3.3,2.5-6.7,3-10c3.4-2.7,6.4-6,9-9.9l0.2-0.3c1.3-1.9,2.6-4.1,3.7-6.6c0.7-0.7,1.3-1.4,1.9-2.2
			c0.7-0.9,1.2-1.6,1.6-2.1c0-0.1,0.1-0.1,0.1-0.2c0.6-0.7,1.2-1.4,2-2.3l0.3-0.4c0.9-1.1,1.7-2.2,2.3-3c0.2-0.2,0.3-0.5,0.5-0.7
			l0.1-0.1c0.4-0.5,1.1-1.3,1.9-2.3c0.4-0.6,0.9-1.1,1.3-1.7c0,0,0,0,0,0c0.5-0.5,0.9-1,1.3-1.4l0.3-0.3c0.5-0.4,1.2-1.1,1.9-1.8
			c1-1.1,2-2.2,2.9-3.4c1.2-0.9,2.3-1.9,3.3-3c0.8-0.8,1.5-1.6,2-2.2c0.6-0.5,1.2-1.1,1.9-1.8l0,0c0.9-0.6,1.7-1.3,2.5-2
			c0.9-0.8,1.7-1.5,2.1-2c0.1-0.1,0.2-0.1,0.3-0.2c0.5-0.5,1.1-0.9,1.7-1.5c3-2.6,5.4-5.6,7.2-8.8c4.2-1.2,8.3-3.1,12.2-5.8
			c0.7-0.5,1.2-0.9,1.7-1.2c0.3-0.2,0.7-0.5,1-0.8c0.3-0.2,0.5-0.4,0.9-0.6c0.3-0.2,0.5-0.4,0.8-0.5c0.6-0.4,1.2-0.8,2-1.3
			c0.4-0.3,0.8-0.6,1.2-0.8c0.7-0.3,1.4-0.7,2.1-1c0.6-0.3,1.1-0.6,1.7-1l0.4-0.2c0.8-0.4,1.4-0.8,1.9-1.1c0.8-0.4,1.9-0.9,3.3-1.6
			c0.4-0.2,0.8-0.4,1.2-0.6c0.8-0.4,2-0.9,3.4-1.6c1.1-0.6,2.2-1.3,3.2-2c0.1,0,0.2-0.1,0.2-0.1c0.7-0.3,1.2-0.5,1.8-0.8l0.4-0.2
			c0.6-0.2,1.5-0.5,2.5-0.9c1.4-0.6,2.7-1.2,4-2c1.4-0.4,2.9-0.8,4.2-1.4c1.1-0.4,2-0.9,2.7-1.2c0.6-0.2,1.2-0.4,1.9-0.7
			c1.9-0.3,4.2-0.9,7.3-1.8l0.4-0.1c1.5-0.4,4.5-1.4,8.1-3c0.3-0.1,0.5-0.2,0.7-0.4c0.5-0.2,1.1-0.6,1.9-1c2.1,0,4.1-0.2,6.2-0.6
			c1.2-0.2,2.2-0.5,2.8-0.7c0.1,0,0.2,0,0.3-0.1c0.7-0.1,1.4-0.2,2.2-0.4c0.6-0.1,1.7-0.3,3-0.7c3,0,5.6-0.3,7.3-0.5l0.4-0.1
			c2.9-0.4,5.7-1,8.3-1.8c0.3,0,0.7,0,1,0.1c0.7,0,1.4,0,2.2,0c0.7,0,1.3-0.1,1.9-0.1l0.4,0c0.9,0,1.6-0.1,2.2-0.2
			c0.8,0,2.1,0,3.7,0c0.4,0,0.9,0,1.3-0.1c0.3,0,0.6,0,0.9,0c1,0,1.9,0,2.9,0c2.2-0.1,4.4-0.4,6.5-0.9c2.8,0.6,5.7,1,8.7,1.1
			c0.5,0,1,0,1.5,0c0.9,0,1.6,0,2.1-0.1c0.4,0,0.8,0,1.2-0.1c0.3,0,0.6,0,1,0c0.4,0,0.7,0,1,0c0.7,0,1.5,0,2.4,0
			c4.9,0,9.5-1.1,13.6-3c3.1,1,6.3,1.6,9.8,1.7c3.4,0.1,6.4-0.3,8.3-0.5l0.4-0.1c3.9-0.5,7.5-1.4,10.8-2.7c0.3,0,0.7,0,1,0
			c2.3,0.1,4.6-0.1,6.8-0.6c1.2-0.2,2.2-0.5,2.8-0.6c0.1,0,0.2,0,0.4-0.1c0.7-0.1,1.4-0.2,2.2-0.4c1.7-0.3,6.3-1.2,11.3-4.3
			c0.7,0.1,1.5,0.1,2.2,0.2c3.6,0.1,7.3-0.4,10.9-1.6c0.8-0.3,1.5-0.5,2.1-0.7c0.6-0.1,1.3-0.3,2.1-0.6c1.7-0.5,3.2-1.1,4.7-1.8
			c1.3-0.2,2.6-0.6,3.9-1c0.9-0.3,1.6-0.5,2.3-0.8l0.2-0.1c0.5-0.1,1.3-0.3,2.3-0.6c2.9-0.8,5.6-2.1,8.1-3.6c3-0.5,6.1-1.4,9.2-2.7
			l0.3-0.1c3.1-1.3,6.7-3,10.2-5.7c2.8-0.6,5.6-1.5,8.1-2.8c0.7-0.3,1.3-0.7,1.9-1c0.1-0.1,0.2-0.1,0.3-0.2c0.6-0.3,1.5-0.7,2.7-1.2
			c4.6-2.3,8.3-5.4,11.2-9.1c4.8-0.6,9.5-2.3,13.7-5c0.6-0.4,1.1-0.7,1.6-1.1l0.4-0.3c0.7-0.5,1.3-0.9,1.8-1.3
			c0.7-0.4,1.8-1.1,3.1-1.9c0.4-0.2,0.7-0.5,1.1-0.7c0.8-0.4,1.9-1.1,3.2-1.9c2.8-1.9,5.4-4.1,7.5-6.8c3.1-1.4,6.3-3.2,9.6-5.8
			c1.3-1.1,2.4-1.9,3.2-2.7c0.6-0.5,1-0.8,1.3-1.1c0,0,0.2-0.1,0.2-0.1c0.5-0.4,1.4-1,2.4-1.8c2-1.5,3.7-3.3,5.2-5.1
			c1.7-1.1,3.3-2.3,4.7-3.7c0.5-0.5,1-0.9,1.4-1.4l0.3-0.3c0.6-0.6,1.2-1.1,1.6-1.6c0.6-0.5,1.6-1.4,2.7-2.4c0.3-0.3,0.6-0.6,1-0.9
			c0.7-0.6,1.7-1.4,2.8-2.5c1.8-1.7,3.4-3.5,4.7-5.5c1.7-1.3,3.3-2.7,4.8-4.4c0.6-0.7,1.2-1.4,1.6-1.9c0.5-0.5,1.1-1.1,1.8-1.9
			c0.8-0.9,1.6-1.9,2.4-3c0.9-0.8,1.8-1.7,2.7-2.7c0.8-0.9,1.4-1.6,1.8-2.2c0.4-0.4,1-1,1.6-1.7c1-1.1,1.9-2.3,2.7-3.5
			c2.1-1.8,4.1-4,5.9-6.7c0.3-0.4,0.5-0.8,0.8-1.1c0.5-0.7,1.2-1.5,1.9-2.5c1-1.4,1.8-2.8,2.6-4.2c0.9-1,1.7-2,2.5-3.1
			c0.5-0.7,0.8-1.2,1.2-1.7c0.3-0.4,0.8-1,1.2-1.6c1-1.3,1.9-2.7,2.6-4c0.7-0.8,1.4-1.7,2.1-2.6c0.4-0.6,0.8-1.1,1-1.6
			c0.4-0.5,0.9-1.2,1.5-2c6.9-9.4,6.7-18.9,6-23.7c-1.3-8.5-6-15.9-13.2-21c-4-2.8-14-7.1-14.1-7.1c-0.2-0.1-0.3-0.1-0.5-0.2
			c-1.6-0.7-3-1.1-3.8-1.4c-0.1,0-0.2-0.1-0.3-0.1c-0.1,0-0.2-0.1-0.3-0.1c-0.8-0.4-2.1-1-3.7-1.6c-1.8-0.7-3.4-1.3-4.5-1.7
			c-0.5-0.2-1.3-0.4-1.4-0.5c-0.1-0.1-0.3-0.1-0.4-0.2c-0.3-0.1-0.6-0.3-0.9-0.4c-3.4-1.6-8.6-4.1-15.6-4.3c-2-0.1-4.1,0.1-6.1,0.4
			c-5.9,1-14.4,4.2-20.8,13.3c-0.4,0.6-0.8,1.1-1.2,1.7l-0.2,0.3c-0.4,0.5-0.8,1.1-1.3,1.8c-0.7,1-1.3,2-1.9,3c-0.9,1-1.7,2-2.5,3.1
			c-0.5,0.8-1,1.4-1.3,2c-0.4,0.5-1,1.3-1.7,2.3c-1,1.4-1.8,2.7-2.4,4c-1.2,1-2.3,2.1-3.4,3.3c-0.7,0.8-1.3,1.5-1.8,2.2
			c-0.5,0.5-1.1,1.1-1.7,1.8c-0.8,1-1.6,1.9-2.3,3c-0.8,0.8-1.7,1.6-2.4,2.4c-0.9,1-1.5,1.8-2,2.4c-0.4,0.4-0.9,1-1.5,1.6
			c-0.4,0.4-0.7,0.8-1.1,1.2c-0.8,0.6-1.5,1.2-2.2,1.9c-0.7,0.7-1.3,1.3-1.8,1.8l-2.7,2.5c-0.5,0.5-0.9,0.9-1.3,1.3l0,0
			c-0.5,0.4-1.3,1.1-2.2,2l-0.6,0.6c-0.5,0.4-1,0.9-1.5,1.4c-0.6,0.6-1.2,1.2-1.8,1.8c-0.4,0.3-0.8,0.6-1.2,0.9
			c-1,0.8-1.9,1.6-2.5,2.2c-0.6,0.4-1.3,0.9-2.1,1.6c-1,0.8-2,1.6-2.8,2.5c-0.9,0.6-1.9,1.2-2.8,1.9c-1,0.8-1.7,1.5-2.4,2
			c0,0,0,0,0,0c-0.5,0.4-1.3,0.9-2.2,1.6l-0.1,0.1c0,0-0.1,0.1-0.1,0.1c-1,0.5-2,1.1-2.9,1.7c-0.8,0.5-1.5,1.1-2.1,1.5l-3.1,2
			c-0.6,0.4-1,0.7-1.5,1l0,0c-0.6,0.3-1.5,0.9-2.5,1.6l-0.7,0.5c-0.6,0.3-1.1,0.7-1.8,1.1c-1.9,1.3-3.7,2.7-5.3,4.3
			c-2.4,0.6-4.8,1.4-7,2.5c-0.6,0.3-1.2,0.6-1.7,0.9c-0.2,0.1-0.4,0.2-0.6,0.3c-2.3,1.1-5.3,2.9-8.1,5.2c-3.6,0.5-7.1,1.5-10.7,3
			c-2.4,1-5.4,2.4-8.8,4.9c-2.2,0.2-4.4,0.6-6.6,1.3l-1.6,0.5c-0.8,0.3-1.5,0.5-2.1,0.7c-0.3,0.1-0.7,0.2-1.1,0.3
			c-3.6,1.1-6.9,2.8-9.7,5c-1.1-0.2-2.3-0.3-3.5-0.3c-2.5-0.1-5,0.1-7.6,0.6c-1.2,0.2-2.2,0.5-2.9,0.7c-0.6,0.1-1.2,0.2-2,0.3
			c-0.8,0.1-1.5,0.3-2.2,0.5c-3.3,0-6.1,0.3-7.1,0.4c-2.9,0.4-8.6,1.3-13.7,3.5c-0.4,0.2-0.7,0.3-1.1,0.5c0,0-0.1,0-0.1,0
			c-2.8-0.8-5.7-1.3-8.8-1.4c-0.5,0-1,0-1.5,0c-1.7,0-3.1,0.1-4,0.2c-0.2,0-0.5,0-0.7,0c-0.4,0-0.9,0-1.3,0c-3.4,0-6.5,0.3-9.5,0.9
			c-2.7-0.8-5.6-1.3-8.6-1.4c-0.7,0-1.4,0-2.1,0c-1,0-1.9,0.1-2.6,0.2l-3.7,0.1c-0.7,0-1.2,0.1-1.8,0.1l0,0c-0.7,0-1.7,0-3,0l-0.8,0
			c-0.7,0-1.3,0-2.1,0c-2.1,0.1-4.2,0.4-6.2,0.8c-0.6,0-1.3-0.1-1.9-0.1c-3.6-0.1-6.6,0.2-7.8,0.4c-3.4,0.4-8.3,1.3-12.8,3.2
			c-0.2,0-0.3,0-0.5,0c-2.6-0.1-5.2,0.2-7.8,0.7c-1.2,0.2-2.2,0.5-2.9,0.7c-0.6,0.1-1.2,0.2-2,0.3c-3.4,0.7-6.6,1.9-9.5,3.5
			c-6.7-0.2-11.3,1.2-14.4,2.1l-0.5,0.2c-3.8,1.1-7.2,2.5-10.2,4.1c-2.3,0.4-4.7,1-6.9,2c-1,0.4-1.9,0.9-2.6,1.2
			c-0.6,0.2-1.5,0.5-2.5,0.9c-1.4,0.6-2.8,1.3-4,2c-1.1,0.3-2.3,0.7-3.4,1.2c-1.2,0.5-2.1,0.9-2.7,1.2c-0.6,0.2-1.5,0.5-2.5,1
			c-2.1,0.9-4,1.9-5.8,3.1c-2.1,0.6-4.1,1.4-6,2.5c-0.9,0.5-1.6,0.9-2.3,1.3l-3.2,1.7c-0.6,0.3-1.1,0.6-1.6,0.9l0,0
			c-0.6,0.3-1.5,0.7-2.7,1.3l-0.7,0.4c-0.6,0.3-1.2,0.6-1.9,0.9c-1.9,1-3.7,2.3-5.4,3.6c-3.1,1.3-5.3,2.7-6.4,3.5
			c-1.4,0.9-2.5,1.8-3.2,2.4c-0.5,0.3-1.1,0.7-1.7,1.1c-5.4,3.7-9.4,7.6-12.5,12.5c0,0-0.1,0.1-0.1,0.1c-0.4,0.6-0.8,1.3-1.1,2
			c-4.8,0.9-10.4,3-15.9,7.8c-0.9,0.8-1.7,1.5-2.2,2c-0.4,0.3-1,0.8-1.6,1.3c-1,0.9-2,1.9-2.9,2.9c-1.9,1.2-3.6,2.7-5.2,4.3
			c-0.8,0.8-1.4,1.6-1.9,2.2c-0.5,0.5-1.1,1.1-1.9,1.9c-1.1,1.1-2,2.2-2.9,3.4c-0.9,0.8-1.8,1.6-2.6,2.4c-0.9,0.9-1.6,1.7-2,2.2
			c-0.5,0.4-1.2,1.1-2,1.9c-2.1,2.2-3.9,4.6-5.3,7.2c-1.8,1.5-3.5,3.1-5,5c-0.6,0.7-1.1,1.4-1.4,1.9c-0.5,0.6-1.2,1.3-2,2.3
			c-2.1,2.6-3.7,5.5-4.9,8.5c-3.6,2.8-6.8,6.3-9.5,10.4c-1.9,2.9-4.3,6.9-5.8,13c-0.1,0.4-0.2,0.8-0.3,1.2l0,0.1
			c-0.2,1-0.4,1.7-0.4,2.2c-0.1,0.7-0.2,1.4-0.3,2.1c-4.6,3.2-8.3,7.5-10.8,12.8c-0.4,0.9-0.8,1.7-1,2.4l-1.6,3.3
			c-0.3,0.6-0.5,1.1-0.7,1.6l0,0c-0.3,0.6-0.8,1.5-1.3,2.7l-0.4,0.8c-0.3,0.6-0.6,1.2-0.9,1.9c-1.2,2.7-2.1,5.4-2.6,8.1
			c-1.5,2.3-2.5,4.5-3.2,6.5l-2.6,7.2c-1.1,2.9-1.6,5.6-1.9,8.2c-1.5,2.5-2.6,5.3-3.4,8.3c-0.3,1-0.4,1.9-0.6,2.6l-0.9,3.5
			c-0.2,0.7-0.3,1.2-0.4,1.8l0,0c-0.2,0.6-0.5,1.6-0.8,2.9l-0.2,0.8c-0.2,0.6-0.4,1.3-0.6,2c-0.5,2-0.8,4.1-0.9,6.1
			c-0.7,1.9-1.2,3.9-1.5,6c-0.2,1.3-0.3,2.4-0.4,3.3c-0.1,0.7-0.3,1.6-0.5,2.6c-0.2,1.3-0.3,2.5-0.3,3.8c-0.3,1.1-0.5,2.2-0.7,3.3
			c-0.2,1.2-0.3,2.3-0.3,3.1c0,0,0,0,0,0.1c-0.1,0.6-0.3,1.6-0.5,2.8l0,0.1c-0.4,2.9-0.5,5.7-0.2,8.5c-0.7,2.3-1.1,4.8-1.2,7.3
			l-0.1,1.7c0,0.8-0.1,1.6,0,2.2c0,0.3-0.1,0.7-0.1,1.1c-0.3,5.7,0.8,11.2,3.3,16.1c-0.3,0.7-0.7,1.4-0.9,2.2
			c-2.8,7.3-2.2,13.7-2,15.8c0.2,1.7,0.4,3,0.6,4c0,0.6,0.1,1.3,0.2,2.1c0.4,4.3,1.3,8.2,2.7,11.7c-0.6,3.8-0.6,7.6,0.2,11.4
			c0.2,1,0.4,1.8,0.6,2.5l0.7,3.6c0.1,0.7,0.3,1.2,0.4,1.8l0,0c0.1,0.7,0.2,1.7,0.5,3l0.2,0.8c0.1,0.6,0.2,1.3,0.4,2
			c0.6,2.9,1.5,5.6,2.8,8.1c0.2,2.2,0.6,4.4,1.2,6.5c0.3,0.9,0.5,1.6,0.7,2.2c0.2,0.7,0.4,1.8,0.7,3c0.4,1.5,1,3,1.6,4.4
			c0.4,2.4,1,4.7,1.9,7c0.3,0.7,0.5,1.3,0.8,2c0.1,0.2,0.2,0.4,0.2,0.6l0.1,0.3c0.2,0.6,0.4,1.3,0.7,2c0.6,1.4,1.2,2.8,1.9,4.1
			c0.3,1.5,0.8,2.9,1.3,4.4c0.4,0.9,0.7,1.7,0.9,2.2c0.2,0.7,0.6,1.8,1,3c0.8,2.1,1.8,4,3,5.9c0.4,1.3,0.9,2.6,1.5,3.8
			c0.5,1.1,1,2,1.4,2.7c0.2,0.5,0.5,1.1,0.8,1.8c0.7,1.4,1.4,2.7,2.3,4c0.7,1.9,1.5,3.8,2.5,5.6c0.7,1.2,1.2,2,1.6,2.6l1.6,2.8
			c0.3,0.6,0.6,1.2,1,1.9c0.3,0.6,0.6,1.1,0.9,1.6c0.3,0.6,0.7,1.4,1.2,2.3c0.9,1.7,2,3.2,3.2,4.7c1.1,2.2,2.1,3.8,2.8,4.7l1.4,2.1
			c0.8,1.3,1.8,2.5,2.8,3.6c0.9,1.9,2,3.7,3.3,5.4c0.6,0.8,1.2,1.5,1.7,2.1l2.2,2.9c0.4,0.5,0.8,1,1.1,1.4l0,0
			c0.4,0.6,1,1.4,1.7,2.4l0.5,0.7c0.4,0.5,0.8,1.1,1.2,1.7c1.7,2.3,3.7,4.3,5.9,6.1c1.3,2.4,2.9,4.3,4.3,5.9l5.2,5.7
			c2.1,2.3,4.2,4.1,6.4,5.6c1.6,2.5,3.4,4.8,5.6,6.8c0.7,0.7,1.4,1.2,2,1.7l2.7,2.5c0.5,0.4,0.9,0.8,1.4,1.2l0,0
			c0.5,0.5,1.2,1.2,2.1,2.1l0.6,0.6c0.5,0.5,0.9,0.9,1.5,1.4c1.5,1.4,3.1,2.6,4.8,3.6c1.4,1.5,2.9,3,4.6,4.2c1.1,0.8,2,1.4,2.7,1.9
			c0.5,0.5,1.2,1,2.1,1.6c1,0.8,2.1,1.5,3.2,2.1c0.8,0.8,1.7,1.5,2.6,2.2c1,0.7,1.9,1.3,2.6,1.7c0,0,0,0,0,0c0.5,0.4,1.2,1,2.2,1.7
			c0,0,0.1,0.1,0.1,0.1c2.3,1.7,4.7,3.1,7.3,4.1c1.8,1.7,3.7,3.3,5.9,4.6l1.4,0.8c0.7,0.4,1.4,0.8,1.9,1.1c0.3,0.2,0.6,0.4,1,0.6
			c3.4,2,8.8,4.5,15.6,4.7c1.3,0,2.5,0,3.8-0.1c2.5,3.6,5.7,6.9,9.9,9.9c0.8,0.6,1.5,1.1,2.4,1.6c2.5,1.5,7.2,3.6,7.2,3.6
			c2.2,0.9,4.5,1.6,6.7,2.1c1.3,0.6,2.7,1.2,4.1,1.7c1.3,0.4,2.3,0.7,2.9,0.9l0.1,0l3,1c0.6,0.2,1.3,0.5,2,0.7
			c0.6,0.2,1.2,0.4,1.8,0.6c0.6,0.2,1.4,0.6,2.5,0.9c2.7,0.9,5.4,1.4,8.2,1.6c3.3,1.7,6.9,3.1,10.7,4c2.1,0.5,5,1.1,8.6,1.2
			c1.8,0.1,3.6,0,5.6-0.2c0.4,0,0.8-0.1,1.2-0.2c0.1,0,0.2,0,0.3,0c3.6,2,8.4,3.9,14.5,4.7c1.5,0.2,3.8,0.5,6.2,0.5
			c1.6,0,3.1,0,4.5-0.1c1.1-0.1,2.3-0.2,3.4-0.4c4,1.2,7.4,1.4,8.8,1.5c0.3,0,0.6,0,0.9,0c0,0,0,0,0,0c1.2,0,2.3,0,3.1,0
			c0.6,0.1,1.3,0.1,2.1,0.2c0.5,0,0.9,0,1.3,0.1c2.8,0.1,5.4-0.1,8-0.5c2,0.7,4.2,1.1,6.4,1.4c1,0.1,1.9,0.2,2.5,0.2
			c0.6,0.1,1.5,0.3,2.7,0.4c1,0.1,1.9,0.2,2.9,0.2c1.1,0,2.2,0,3.3-0.1c1.9,0.7,3.9,1.2,5.9,1.6c1.2,0.2,2.2,0.3,3,0.4
			c0.6,0.1,1.2,0.3,2,0.4c0.8,0.1,1.6,0.3,2.4,0.3c0.8,0.3,1.6,0.5,2.5,0.7c1,0.2,1.9,0.4,2.6,0.5l3.6,0.9c0.6,0.2,1.2,0.3,1.8,0.4
			l0,0c0.6,0.2,1.6,0.5,2.9,0.8l0.8,0.2c0.6,0.2,1.3,0.4,2,0.5c0.7,0.2,1.5,0.3,2.2,0.5c0.7,0.3,1.5,0.6,2.2,0.8
			c1.3,0.4,2.3,0.7,2.9,0.9l2.9,1l0.1,0c0.6,0.2,1.3,0.5,2,0.7c0.6,0.2,1.2,0.4,1.8,0.5c0.6,0.2,1.4,0.6,2.5,0.9
			c0.8,0.3,1.6,0.5,2.5,0.7c0.7,0.4,1.5,0.7,2.2,1c1.5,0.6,2.8,1.1,3.8,1.4c0.5,0.2,1.1,0.5,1.9,0.9c2.8,1.2,5.5,2.1,8.2,2.7
			c2.5,2.2,5.4,4.1,8.7,5.9c3.2,1.7,8.1,4,13.2,5c0.4,0.1,0.8,0.2,1.2,0.2c1,0.2,2,0.3,3,0.4c1.3,2,2.8,3.9,4.6,5.9
			c0.6,0.7,1.3,1.4,2,2c2.2,2,6.3,5,6.4,5c1.2,0.9,2.5,1.6,3.7,2.2c1,0.8,1.9,1.5,2.5,1.9c0.5,0.5,1.2,1.1,2,1.7
			c1,0.8,2,1.6,3.1,2.2c0.8,0.8,1.6,1.6,2.5,2.3c1,0.8,1.8,1.4,2.5,1.9c0,0,0,0,0,0c0.5,0.4,1.2,1.1,2.1,1.9l0.1,0.1c0,0,0,0,0,0
			c0.7,0.9,1.4,1.7,2.2,2.5c0.7,0.7,1.4,1.3,1.9,1.8l2.6,2.6c0.5,0.5,0.9,0.9,1.3,1.2l0,0c0.5,0.5,1.2,1.2,2.1,2.2l0.6,0.6
			c0.5,0.5,0.9,1,1.4,1.5c0.6,0.6,1.3,1.2,1.9,1.7c0.1,0.1,0.1,0.1,0.2,0.2c0.5,0.5,0.9,1.1,1.4,1.6c0.1,0.2,0.3,0.3,0.4,0.4
			l0.2,0.2c0.4,0.5,0.8,1,1.4,1.7c1,1.2,2.1,2.2,3.2,3.2c0.8,1.2,1.7,2.5,2.7,3.6c0.6,0.7,1.2,1.4,1.6,1.8c0.5,0.6,1.1,1.5,2,2.5
			c0.4,0.4,0.8,0.9,1.2,1.3c0.5,0.9,1.1,1.7,1.7,2.5c0.5,0.7,1,1.4,1.4,1.8c0.4,0.7,1,1.5,1.7,2.6c0.9,1.2,1.8,2.3,2.8,3.3
			c0.7,1.5,1.5,2.9,2.4,4.4c0.7,1,1.3,1.8,1.7,2.5c0.3,0.5,0.6,1.1,1.1,1.7c0.9,1.4,1.9,2.7,3,3.9c0.9,2.9,2.1,5.8,3.7,8.7
			c1.1,2.1,2.7,4.6,5.1,7.4c0.3,1.1,0.7,2.1,1.2,3.2c0.4,1,0.9,1.9,1.2,2.6c0.2,0.6,0.6,1.5,1,2.4c0.6,1.4,1.3,2.8,2.1,4.1
			c0.3,1.2,0.7,2.3,1.2,3.3c0.5,1.2,1,2.1,1.3,2.7c0.2,0.6,0.5,1.5,1,2.6c0.9,2.2,2.1,4.3,3.4,6.2c0.1,2.9,0.5,5.9,1.4,8.8
			c0.3,1.2,0.7,2.2,0.9,2.9c0.1,0.6,0.3,1.2,0.5,2c0.2,0.7,0.4,1.4,0.7,2.1c0.2,2.3,0.5,4.7,1.1,7.2c0.8,3.5,2.3,8.7,4.8,13.3
			c0.2,0.3,0.4,0.7,0.6,1c0.2,0.4,0.5,0.8,0.8,1.2c-0.9,3.6-1.3,7.4-0.9,11.4c0.1,0.9,0.2,1.7,0.3,2.3c0,0.8,0.1,1.8,0.2,3.1
			c0.1,1.4,0.4,2.7,0.6,4c-0.1,1.3-0.2,2.6-0.2,4c0,1,0.1,2,0.2,2.8c0,0.7,0,1.5,0,2.5c0,1.3,0.1,2.5,0.3,3.8
			c-0.1,1.1-0.1,2.3-0.1,3.4c0,1.3,0.1,2.4,0.2,3.1c0,0.6,0,1.3,0,2.2c0,1.4,0.1,2.8,0.3,4.1c-0.8,2.8-1.3,5.8-1.6,8.9
			c-0.2,2.8-0.3,6.5,0.6,11.2c-1.3,2.8-2.5,6.2-3.2,10.2c-0.7,3.9-1,7.4-0.9,10.6c0,1,0.1,1.9,0.2,2.9c-2.9,4.7-4.1,8.6-5.2,12.3
			l-0.2,0.5c-0.7,2.3-1.1,4.6-1.5,6.8c-0.4,0.8-0.7,1.6-1,2.4c-0.4,1-0.7,1.9-0.9,2.7c-0.3,0.6-0.6,1.4-1,2.3
			c-0.5,1.2-0.8,2.4-1.2,3.6c-0.5,1-1,2.1-1.4,3.1c-0.5,1.2-0.8,2.2-1,3c-0.2,0.5-0.5,1.2-0.8,2c-0.4,1.1-0.8,2.2-1.1,3.3
			c-0.8,1.2-1.5,2.5-2.2,3.8c-0.4,0.8-0.7,1.5-1,2.1c-0.4,0.7-0.9,1.6-1.5,2.7c-0.6,1.3-1.2,2.7-1.6,4c-0.8,1.1-1.5,2.2-2.2,3.3
			c-0.5,0.9-0.9,1.7-1.2,2.2c-0.3,0.5-0.8,1.3-1.4,2.3c-1.4,2.4-2.5,5-3.2,7.5c-2.4,2-4.9,4.6-7.2,7.9c-2.2,3.1-3.9,6-5.1,8.8
			c-1.1,1-2.2,2.1-3.1,3.3c-0.8,1-1.5,1.9-1.8,2.4l0,0l-2,2.4c-0.4,0.5-0.9,1-1.4,1.6c-0.4,0.5-0.8,1-1.2,1.5c-0.4,0.5-1,1.1-1.8,2
			c-0.4,0.5-0.8,1-1.2,1.5c-0.5,0.5-1.1,1-1.6,1.5c-0.9,1-1.6,1.7-2,2.2l0,0l-2.1,2.2l-0.1,0.1c-0.5,0.5-0.9,0.9-1.5,1.5
			c-0.5,0.5-0.9,0.9-1.3,1.4c-0.5,0.4-1.1,1.1-1.9,1.9c-0.4,0.4-0.7,0.8-1.1,1.2c-0.9,0.7-1.8,1.4-2.6,2.1L187,209
			c-0.6,0.6-1.2,1.1-1.6,1.5c-0.3,0.2-0.6,0.5-0.9,0.8c-3.6,3.3-6.3,7.2-8.1,11.5c-2.6,0.6-5.2,1.4-7.8,2.5
			c-0.9,0.4-1.7,0.7-2.5,1.2c-2.6,1.4-6.8,4.3-6.9,4.3c-1.2,0.8-2.3,1.8-3.3,2.7c-1.1,0.7-2,1.3-2.7,1.7c-0.6,0.3-1.4,0.8-2.3,1.3
			c-1.1,0.6-2.1,1.4-3.1,2.1c-1,0.5-2,1-3,1.6c-1.1,0.6-1.9,1.2-2.6,1.7c0,0,0,0,0,0c-0.6,0.3-1.4,0.7-2.4,1.4l-0.1,0c0,0,0,0-0.1,0
			c-0.5,0.2-0.9,0.4-1.4,0.6c-0.6,0.3-1.3,0.6-1.9,1c-0.2,0.1-0.4,0.2-0.5,0.3l-0.3,0.1c-0.6,0.3-1.2,0.5-1.9,0.9
			c-1.4,0.7-2.7,1.4-3.9,2.2c-1.4,0.5-2.8,1-4.2,1.7c-0.9,0.4-1.6,0.8-2.2,1.1c-0.7,0.3-1.7,0.7-2.9,1.3c-0.2,0.1-0.5,0.2-0.7,0.4
			c-0.8,0.2-1.5,0.5-2.3,0.8c-1,0.4-1.8,0.7-2.3,1c-0.6,0.2-1.5,0.5-2.5,0.9c-2.5,1-4.8,2.2-7,3.7c-2.4,0.2-4.8,0.6-7.1,1.3
			c-0.9,0.3-1.6,0.5-2.2,0.7c-0.7,0.2-1.8,0.4-3,0.8c-1.4,0.4-2.7,0.9-3.9,1.5c-1.4,0.1-2.7,0.3-4,0.6c-1,0.2-1.8,0.4-2.5,0.6
			l-3.6,0.8c-0.6,0.1-1.2,0.3-1.8,0.4l0,0c-0.7,0.1-1.7,0.3-2.9,0.5l-0.8,0.2c-0.6,0.1-1.3,0.2-2,0.4c-0.9,0.2-1.8,0.4-2.7,0.7
			c-1,0.1-1.9,0.2-2.7,0.3c-1.6,0.2-3,0.5-4,0.7c-0.6,0-1.3,0.1-2.1,0.2c-6.5,0.8-11.8,2.6-16.7,5.5c0,0-0.1,0.1-0.1,0.1
			c-17.6,10.7-21.8,31.1-20.1,45.3c0.8,6.3,2.7,15.3,7.8,23.1c0.1,0.1,0.1,0.2,0.2,0.2c2.5,3.8,5.3,6.6,7.1,8.2
			c7.3,6.6,16,10,25.6,10.3c2.3,0.1,4.6-0.1,7-0.4c0.8-0.1,1.5-0.2,2.1-0.3c0.4-0.1,0.8-0.1,1.3-0.2c0.3-0.1,0.6-0.1,1-0.1
			c0.4,0,0.6-0.1,1-0.1c0.7-0.1,1.5-0.2,2.4-0.3c2.2-0.3,4.3-0.8,6.3-1.4c2.1,0,4.2-0.3,6.3-0.7c0.7-0.1,1.3-0.3,1.9-0.5l0.4-0.1
			c0.8-0.2,1.6-0.4,2.2-0.5c0.8-0.1,2.1-0.3,3.6-0.7c0.4-0.1,0.9-0.2,1.3-0.3c0.9-0.1,2.2-0.3,3.7-0.6c2.1-0.4,4.1-1.1,6-1.9
			c1.9-0.2,3.7-0.6,5.6-1.1c1.1-0.3,1.9-0.6,2.5-0.8c0.1,0,0.1,0,0.2-0.1c0.9-0.2,1.8-0.5,2.9-0.8l0.5-0.1c1.4-0.4,2.6-0.8,3.5-1.2
			c0.3-0.1,0.6-0.2,0.9-0.3l0.1,0c0.6-0.1,1.6-0.4,2.9-0.8c1.6-0.5,3.1-1,4.5-1.7c1.6-0.3,3.2-0.8,4.7-1.4c0.9-0.3,1.6-0.6,2.3-0.9
			c0.3-0.1,0.5-0.2,0.8-0.3c0.6-0.2,1.6-0.5,2.7-0.9c1.1-0.4,2.1-0.8,3-1.2c0.4-0.2,0.8-0.3,1.2-0.5l1.5-0.6c2.7-1,5.2-2.4,7.4-4
			c2.7-0.5,5.5-1.4,8.1-2.7l0.2-0.1c0.7-0.3,1.4-0.7,2.1-1.1c0.3-0.1,0.6-0.3,0.8-0.4l0.3-0.1c0.9-0.4,2.2-0.9,3.9-1.7
			c4.1-2,7.3-4.4,9.8-6.9c4.3-1,8.5-2.7,12.6-5.1c1.5-0.9,2.6-1.6,3.5-2.2c0.7-0.4,1.1-0.7,1.4-0.9c0.1,0,0.2-0.1,0.2-0.1
			c0.6-0.3,1.5-0.8,2.6-1.5c1.7-1,3.3-2.2,4.8-3.5c2.3-1,4.5-2.3,6.7-3.9l0.2-0.1c2.5-1.8,8.6-6.7,12.6-14c4.6-1,10.1-3.2,15.3-8
			c0.6-0.6,1.2-1.1,1.6-1.5c0.5-0.4,1-0.8,1.6-1.4c1.3-1.2,2.5-2.4,3.5-3.7c1.1-0.8,2.1-1.6,3.1-2.6c0.7-0.6,1.2-1.2,1.8-1.7
			l0.1-0.1c0.4-0.3,1.1-0.9,1.8-1.5c1.9-1.6,3.5-3.4,4.9-5.4c1.2-0.9,2.4-2,3.5-3.2c0.6-0.6,1-1.1,1.4-1.6c0.5-0.5,1.2-1.1,2-1.9
			c2.3-2.4,4.2-5.2,5.7-8.1c2.3-1.6,4.5-3.6,6.7-6.2c0.5-0.6,1-1.2,1.3-1.7c0.5-0.5,1.1-1.2,1.8-2.1c1.4-1.7,2.6-3.4,3.6-5.3
			c1.4-1.4,2.7-2.9,3.8-4.6c0.5-0.8,1-1.4,1.3-2c0.5-0.6,1.1-1.4,1.8-2.4c0.8-1.1,1.5-2.3,2.1-3.5c0.8-1,1.7-2,2.4-3.1
			c0.3-0.4,0.6-0.8,0.8-1.2c0.5-0.7,1.2-1.5,1.9-2.5c1.1-1.6,2-3.2,2.8-4.9c1.1-1.4,2.2-2.8,3.1-4.4c0.5-0.8,0.9-1.5,1.2-2.2
			c0.1-0.2,0.3-0.5,0.4-0.8c0.3-0.5,0.9-1.4,1.5-2.4c0.6-1,1.1-2,1.6-2.9c0.2-0.4,0.4-0.7,0.6-1.2l0.8-1.4c0.9-1.5,1.6-3.1,2.2-4.6
			c1.2-1.7,2.3-3.4,3.3-5.4c0.5-1,0.8-1.8,1.1-2.4c0-0.1,0.1-0.1,0.1-0.2c0.5-0.8,0.9-1.7,1.4-2.7l0.2-0.5c0.6-1.3,1.1-2.5,1.5-3.4
			c0.1-0.3,0.2-0.6,0.4-0.8l0-0.1c0.3-0.6,0.8-1.5,1.4-2.7c0.9-1.8,1.5-3.5,2-5.3c1-1.6,1.9-3.4,2.6-5.2c0.3-0.9,0.6-1.7,0.8-2.3
			c0.3-0.6,0.6-1.5,1-2.4c0.5-1.2,0.8-2.4,1.1-3.6c0.6-1.1,1.1-2.3,1.6-3.5c0.4-1.1,0.7-2,0.9-2.7c0.2-0.6,0.5-1.3,0.9-2.1
			c0.6-1.7,1.1-3.3,1.5-5c1.7-2.9,2.9-6.2,4.3-11l0.1-0.4c0.4-1.5,1.2-4.6,1.7-8.4c0-0.3,0.1-0.6,0.1-0.8c0.1-1.2,0.3-3.4,0.3-6
			c1.9-3.2,3.3-6.8,3.9-10.7c0.2-0.9,0.3-1.7,0.3-2.3c0.2-0.7,0.4-1.8,0.6-3c0.2-1.3,0.4-2.7,0.5-4c0.4-1.2,0.6-2.5,0.9-3.9
			c0.1-0.5,0.2-1,0.2-1.4c0.2-0.8,0.5-1.9,0.7-3.1c0.6-3.6,0.6-7.3,0-10.8c1.5-3.8,2.5-8,2.8-12.4L353.8,63.7z"/>
		<path class="st2" d="M285.6-826.2c-1.3-1.4-2.3-2.3-3.6-3.7c-1.7-1.7-2.8-3.1-4.3-4.9c-0.9-1.2-1.6-2-2.6-3.1
			c-0.8-0.9-1.4-1.4-2.2-2.2c-0.9-1.1-1.5-1.9-2.4-2.9c-0.8-0.9-1.5-1.6-2.2-2.6c-0.6-0.8-1.2-1.6-1.2-2.1c0-0.6,0.2-0.9,0.5-1.3
			c0.7-1,1.3-1.7,2-2.7c0.4-0.6,0.6-1.1,1-1.6c0.4-0.5,0.7-0.6,1.1-0.6c0.1,0,0.4,0.1,0.4,0.1c0.1,0,4,1.7,4.1,1.7
			c0.8,0.3,1.2,0.6,2,0.9c0.1,0,1.4,0.6,1.7,0.3c0.4-0.4-0.7-1.7-1.4-2.5c-0.9-1.2-1.6-2-2.5-3.1c-0.4-0.5-1.1-1.4-1.1-1.4
			c-0.1-0.3-0.1-0.2-0.2-0.6c0-0.3,0.1-0.6,0.3-0.9c0.6-0.8,1-1.3,1.5-2.1c0.4-0.5,0.7-1.1,1.1-1.7c0.5-0.7,0.8-0.9,1.4-1
			c0.8-0.1,3.1,1.1,5.2,2c2.7,1.3,4.8,1.8,7.5,2.9c1.7,0.7,2.7,1.3,4.3,1.9c1.4,0.5,2.4,0.8,3.8,1.3c0.6,0.3,8,3.7,8.6,4.1
			c1.6,1.1,0.7,2,0.3,2.5c-0.6,0.9-1.2,1.5-1.9,2.5c-0.4,0.5-0.5,0.9-0.9,1.5c-1.1,1.5-2.9,0.3-3.9-0.2c-0.7-0.4-1.3-0.6-2.1-1
			c-2.7-1.2-4.8-1.8-7.6-2.9c-1.3-0.5-3.7-1.6-3.7-1.6c-0.2,0-0.2,0-0.3,0.1c-0.3,0.4,0.2,0.5,0.5,0.9c0.2,0.2,0.9,1.1,1.1,1.3
			c1,1.1,1.6,1.9,2.6,3c1.1,0.4,2.3,0.8,3.4,1.3c1.1,0.5,1.9,0.9,3.1,1.4c0.8,0.3,1.9,0.7,2.6,1.2c1.5,1,0.2,2.3,0.1,2.5
			c-0.6,0.8-1.1,1.4-1.7,2.2c-0.5,0.7-0.7,1.2-1.2,1.8c-1.1,1.5-1.8,0.8-3.7-0.3c-0.7-0.4-1.3-0.7-2.1-1.1c-3.1-1.6-5.4-2.4-8.4-4.1
			c-1.1-0.6-2.7-1.7-2.9-1.3c-0.3,0.4,1.3,1.6,2.2,2.5c1,1,1.6,1.8,2.6,2.8c1,0.9,1.8,1.5,2.8,2.5c0.8,0.8,1.3,1.4,2.1,2.2
			c0.1,0.1,2.3,1.8,2.3,1.9c0.1,0.1,0.4,0.4,0.5,0.8c0.1,0.6-0.1,0.9-0.5,1.5c-0.5,0.8-1,1.2-1.6,2c-0.5,0.7-0.7,1.2-1.1,1.8
			c-0.5,0.7-1.3,2.1-2.5,1.2C287.8-823.7,286.8-825,285.6-826.2z"/>
		<path class="st2" d="M247.7-825.7c0.5-0.6,1-1,1.5-1.6c0.7-0.8,1.2-1.6,2-2.4c1-1.1,2-0.3,2.3,0c0.6,0.5,0.9,0.9,1.4,1.4
			c0.3,0.3,0.6,0.5,0.9,0.8c1.3,1.2,2.2,2.1,3.5,3.3c2.1,1.9,2.9,1,3.8-0.1c0.6-0.6,0.6-1,0.5-1.6c-0.1-0.6-1.8-2.3-2.1-2.5
			c-0.7-0.6-1.5-1.2-2.2-1.8s-1.2-1.2-2-1.8c-0.5-0.4-0.8-0.7-1.3-1.1c-0.9-0.8-0.5-1.6-0.2-2c0.7-0.7,1.2-1.2,1.9-1.9
			c0.4-0.5,0.7-0.8,1-1.3c0.2-0.3,0.4-0.6,0.6-0.8c1.2-1.3,2.2-0.5,2.7-0.1c0.9,0.8,1.5,1.6,2.4,2.5l0.1,0.1
			c1.1,0.9,1.8,1.7,2.8,2.6c1.5,1.4,2.7,2.2,4.3,3.6c1.3,1.1,2,2.1,3.3,3.2c0.7,0.6,1.3,1,2,1.6c1,0.8,1.6,1.4,2.6,2.3
			c0.8,0.7,1.4,1.3,2.2,2.1c0.8,0.7,1.5,1.1,2.3,1.8c0.4,0.4,1.1,1.2,0.2,2.3c-0.6,0.7-1.2,1.2-1.8,1.9c-0.6,0.7-1,1.3-1.6,2
			c-1.1,1.2-1.8,0.8-2.4,0.3c-0.7-0.7-1.1-1.3-1.8-1.9c-0.8-0.7-1.4-1.1-2.2-1.9c-0.9-0.8-1.4-1.3-2.3-2.1l-0.1-0.1
			c-1.3-1.2-2-0.6-2.9,0.5c-0.7,0.8-0.9,1.2-0.7,1.9c0.1,0.3,1.8,2,2,2.1c0.8,0.7,1.4,1.1,2.2,1.8c0.4,0.4,0.8,0.8,1.3,1.2
			c0.6,0.6,1.2,0.9,1.8,1.4c1.2,1,0.5,2,0.1,2.4c-0.7,0.8-1.3,1.2-2,2c-0.6,0.6-0.8,1.1-1.4,1.8c-1.3,1.5-2.5,0.3-2.8,0
			c-1.3-1.2-2.2-2.2-3.5-3.4c-0.4-0.3-0.7-0.5-1-0.9c-0.7-0.6-1.1-1.1-1.7-1.7c-1.1-1-1.9-1.7-3-2.7c-1.4-1.2-2.3-2.2-3.6-3.3
			c-1.6-1.5-2.9-2.3-4.5-3.7c-0.8-0.7-1.3-1.3-2.1-2c-0.7-0.6-1.4-1-2.1-1.6C246.9-824.2,247.1-825.1,247.7-825.7z"/>
		<path class="st2" d="M233.8-807c-0.5-0.6-1-1-1.5-1.5c-0.4-0.4-1.1-1.5,0.1-2.6c0.5-0.5,0.9-0.7,1.3-1.2l0.8-0.8
			c0.8-0.8,1.5-1.3,2.3-2c0.5-0.5,0.8-0.8,1.3-1.3l3.7-3.4c0.3-0.4,0.5-0.6,0.9-0.9c0.4-0.4,1.6-1.1,2.8,0.1
			c0.8,0.9,1.3,1.6,2.2,2.5c0.8,0.8,1.3,1.3,2.1,2.2c0.5,0.6,0.9,1.1,1.4,1.7c0.5,0.6,1,0.9,1.5,1.5c1.1,1.1,1.7,2,2.8,3.1
			c1,1,2,2,2.9,3c1.4,1.4,2.2,2.5,3.5,3.9c0.9,1,1.6,1.6,2.5,2.6c1.9,2,2.2,2.8,0.6,4.2c-0.9,0.8-1.7,1.3-2.6,2.1
			c-0.4,0.4-0.8,0.8-1.2,1.2c-1.1,1-2,1.7-3.1,2.7c-0.5,0.5-0.8,0.8-1.2,1.3l-0.7,0.6c-0.4,0.4-0.6,0.6-1,1c-1.1,1-1.9,0.2-2.2-0.1
			c-0.5-0.6-1-1.3-1.5-1.8c-0.9-0.9-2.8-2.2-1.1-3.8l0.4-0.4c0.4-0.4,0.7-0.7,1.1-1.1c0.5-0.5,1-0.8,1.6-1.3
			c1.9-1.8,1.4-2.4,0.3-3.6c-1.1-1.2-2.1-1.4-2.9-0.7c-0.4,0.4-0.6,0.7-1,1l-0.1,0.1c-0.5,0.5-0.9,0.7-1.4,1.2
			c-0.4,0.4-0.7,0.7-1.1,1.1c-1.4,1.3-2.2,0.3-2.7-0.2c-0.5-0.5-0.8-0.9-1.3-1.5c-0.5-0.5-0.8-0.8-1.3-1.3c-1.3-1.3-0.3-2.3,0.1-2.8
			c1.1-1,1.9-1.5,3-2.5c1.9-1.8,0.7-2.8,0-3.5l-0.4-0.4c-0.2-0.2-0.8-0.8-1-1c-1.4-0.5-1.6,0.2-3,1.3c-0.7,0.5-1.2,0.8-1.8,1.4
			c-0.5,0.5-0.8,1-1.3,1.5c-0.3,0.3-1.4,1-2.5,0C234.6-806,234.3-806.4,233.8-807z"/>
		<path class="st2" d="M212.3-794.6l0.1-0.1c0.6-0.5,1.1-0.7,1.7-1.2c0.7-0.6,1.2-1,1.9-1.5c0.4-0.3,0.6-0.6,1-0.9
			c1.2-0.9,2-0.1,3.1,0.5c1.1,0.6,1.9,0.8,2.9,1.4c0.7,0.4,1.2,0.7,1.9,1.1c0.8,0.4,1.4,0.7,1.8,0.4c0.6-0.4-0.1-1.1-0.2-1.3
			c-0.6-0.7-1-1.2-1.6-1.9c-0.4-0.6-0.7-0.9-1.1-1.5c-0.4-0.5-0.8-0.8-1.2-1.4c-0.6-0.8-0.3-1.4,0.1-1.7c0.8-0.6,1.4-0.9,2.2-1.6
			c0.9-0.7,1.5-1.4,2.4-2.2c0.8-0.6,1.7-0.4,2.2,0.3c0.4,0.6,0.7,1,1,1.5c0.7,0.9,1.2,1.6,1.9,2.6c1.5,1.8,2.6,3,4.1,4.9
			c1.5,1.9,2.4,3.3,3.9,5.2c1,1.2,1.7,2,2.7,3.2c1,1.3,1.7,2.3,2.7,3.6c0.6,0.8,1.2,1.2,1.7,2c0.6,0.7,1.2,2.1-0.5,3.4
			c-0.8,0.6-1.3,0.9-2.1,1.6c-1.9,1.4-3.1,2.6-5,4.1c-2.1,1.7-5.3,3.6-9.3,2.1c-0.3-0.1-0.7-0.3-0.9-0.5c-0.3-0.2-0.9-0.4-1.5-0.9
			c-1-0.7-3-3.1-3.7-3.9c-0.4-0.6-3.1-3.7-3-7.9c0-0.5,0.1-0.8,0.1-1.3c0-0.4,0.2-0.5,0.2-0.9c0-0.1,0-0.3-0.2-0.5
			c-0.4-0.5-3.7-1.8-4.4-2.2c-0.6-0.3-1.1-0.6-1.7-0.9c-1.1-0.5-1.9-0.8-2.9-1.3c-0.2-0.1-0.4-0.3-0.7-0.6
			C211.3-793.9,212.3-794.5,212.3-794.6z M236.3-781.2l0.1-0.1c0.2-0.2,0.4-0.5,0.5-0.8c0.1-0.7-0.1-1.2-0.2-1.3
			c-0.1-0.2-2.3-3.2-2.4-3.3c-0.7-0.9-1.9-1.4-3-0.5c-0.5,0.4-0.7,0.9-0.8,1.2c-0.2,1,0.6,2.3,1.7,3.7
			C233-781.3,234.8-780,236.3-781.2z"/>
		<path class="st2" d="M196.3-779.4c-0.4-0.7-0.8-1.1-1.2-1.8c-0.3-0.5-0.8-1.6,0.5-2.5c0.5-0.4,1-0.6,1.5-0.9l0.9-0.6
			c0.9-0.6,1.7-1,2.6-1.6c0.5-0.4,0.9-0.7,1.5-1l4.2-2.8c0.4-0.3,0.6-0.5,1-0.8c0.5-0.3,1.8-0.8,2.7,0.6c0.7,1,1,1.8,1.7,2.9
			c0.6,0.9,1.1,1.5,1.7,2.5c0.4,0.7,0.7,1.3,1.1,1.9c0.4,0.7,0.8,1.1,1.3,1.8c0.9,1.3,1.4,2.2,2.2,3.5c0.8,1.2,1.6,2.3,2.4,3.4
			c1.1,1.6,1.7,2.8,2.8,4.4c0.7,1.1,1.3,1.9,2.1,3c1.5,2.3,1.7,3.1-0.1,4.3c-1,0.7-1.9,1-2.9,1.7c-0.5,0.3-1,0.7-1.4,1
			c-1.3,0.8-2.2,1.3-3.5,2.1c-0.5,0.4-0.9,0.7-1.4,1.1l-0.8,0.5c-0.4,0.3-0.7,0.5-1.2,0.8c-1.2,0.8-1.9-0.1-2.1-0.5
			c-0.4-0.7-0.8-1.4-1.2-2.1c-0.7-1.1-2.4-2.7-0.4-3.9l0.4-0.3c0.5-0.3,0.8-0.6,1.3-0.9c0.6-0.4,1.1-0.6,1.8-1
			c2.2-1.4,1.8-2.1,0.9-3.5c-0.9-1.3-1.8-1.7-2.7-1.1c-0.4,0.3-0.7,0.6-1.1,0.9l-0.1,0.1c-0.6,0.4-1,0.6-1.6,0.9
			c-0.5,0.3-0.8,0.6-1.2,0.9c-1.6,1.1-2.3-0.1-2.6-0.6c-0.4-0.6-0.6-1-1-1.7c-0.4-0.6-0.7-1-1.1-1.5c-1-1.5,0.1-2.4,0.6-2.7
			c1.2-0.8,2.1-1.2,3.4-2c2.2-1.4,1.2-2.6,0.6-3.4l-0.3-0.5c-0.1-0.2-0.6-0.9-0.9-1.1c-1.3-0.7-1.6-0.1-3.2,0.7
			c-0.8,0.4-1.3,0.6-2,1.1c-0.6,0.4-1,0.8-1.6,1.2c-0.4,0.3-1.6,0.8-2.4-0.5C197-778.3,196.7-778.7,196.3-779.4z"/>
		<path class="st2" d="M183.9-744.7c-0.5-1-1-1.7-1.5-2.7c-0.4-0.8-0.6-1.3-1-2.1c-0.4-0.8-0.7-1.3-1.1-2.1
			c-0.5-0.9-0.7-1.7-1.1-2.6c-0.3-0.6-0.7-1.2-1-1.9l-0.1-0.1c-0.7-1.3-1.2-2.2-1.9-3.5c-0.7-1.4-1.1-2.4-1.8-3.8
			c-0.3-0.5-0.5-0.9-0.7-1.4c-1.6-3.2,0.8-6.4,1.7-7.2c0.5-0.4,2.2-1.4,2.8-1.7c0.3-0.2,0.7-0.3,1.1-0.5c0.5-0.2,0.8-0.5,1.3-0.7
			c1.1-0.6,2,0,2.5,1c0.4,0.8,0.6,1.5,1.1,2.3c0.4,0.8,0.8,1.4,1.3,2.3c0.5,0.9,0.2,1.5-0.4,1.8c-0.3,0.1-0.5,0.2-0.8,0.3
			c-2,1-0.7,3.1-0.6,3.2c0.6,1.4,1.2,2.3,1.9,3.6c0.8,1.6,1.4,2.7,2.2,4.3c1,1.9,1.5,3.4,2.5,5.3c0.9,1.8,1.8,3,2.7,4.8
			c0.7,1.3,0.7,1.9-0.7,2.6c-0.8,0.4-1.5,0.6-2.3,1.1l-0.3,0.1c-0.9,0.4-1.5,0.8-2.3,1.2s-1.5,0.2-1.9-0.6
			C184.6-742.8,184.4-743.6,183.9-744.7z"/>
		<path class="st2" d="M151.2-754c-0.1-0.2-0.4-1.8-0.3-3.1c0.1-1.5,0.7-3.2,1.6-4.4c0.3-0.3,0.6-0.6,1.2-1.1
			c1.3-1.1,2.1-1.6,3.5-2.2c2.6-1.1,6.6-2.1,9.9,0c1.1,0.7,2.8,2.8,3.4,3.6c0.5,0.8,1.8,3.5,2.2,4.3c0.5,1.2,0.7,2,1.3,3.2
			c0.4,0.9,0.7,1.5,1,2.4c2.5,6.2,3.5,9.6,1.3,13.5c-1.2,2-2.2,2.9-5.4,4.3l-0.3,0.1c-1.5,0.6-3.2,1.1-4.8,1c-0.9,0-3.6-0.7-4.3-1.1
			c-2.4-1.2-4.5-4.4-6.4-9C152.6-748.5,151.6-750.5,151.2-754z M162.6-746.9c0.3,0.7,0.5,1.3,0.8,2.1c0.3,0.7,1.4,3.1,2,3.6
			c0.5,0.4,1.1,0.8,2.1,0.4c0.1,0,0.2-0.1,0.2-0.2c0.3-0.1,0.5-0.4,0.7-0.6c0.6-0.9,0.4-2-0.2-3.5c-0.5-1.2-0.9-2-1.4-3.2
			c-0.9-2.3-1.5-4-2.4-6.3c-0.4-1.1-1.5-4.1-3.7-3.2c-2,0.8-1.3,2.7-0.8,3.9c0.3,0.7,0.6,1.2,0.8,2c0.4,1.1,0.6,1.9,1,2.9
			C162-748.1,162.3-747.6,162.6-746.9z"/>
		<path class="st2" d="M135.6-724.8c0-0.3,0-4.8,0.1-7.6c0-0.5,0.1-1,0.1-1.5c0.1-2,0.1-3.4,0.2-5.4c0.2-2.9,0.8-3.9,0-6.5
			c-0.3-0.9-0.5-1.5-0.7-2.4c-0.3-1-0.4-1.7-0.7-2.6c-0.4-1.1-0.7-1.9-1-3c-0.2-0.5-0.4-1.3,0.1-2c0.1-0.2,0.7-0.4,0.9-0.5
			c0.5-0.2,0.9-0.2,1.4-0.4c0.7-0.2,1.2-0.5,1.9-0.7l1.6-0.5c2-0.6,2.1,1.2,2.5,2.3l0,0.1c0.1,0.3,0.1,0.6,0.2,0.9
			c0.2,0.5,0.4,0.8,0.5,1.3c0.3,0.8,0.2,1.4,0.5,2.2c0.3,0.9,0.6,1.4,0.9,2.3c0.3,0.9,0.4,1.5,0.9,2.3c0.1,0.2,2.8,4.1,4.6,6.3
			c1,1.2,1.7,1.9,2.6,3.1c1.2,1.6,2,2.9,3.2,4.5c0.6,0.8,1.1,1.2,1.6,2c0.2,0.3,0.3,0.5,0.4,0.7c0.4,1.3-1,1.6-1.2,1.6
			c-0.7,0.2-1.4,0.3-2,0.5c-1.2,0.3-2,0.7-3.3,1.1c-0.7,0.2-1,0.2-1.4-0.1c-0.9-0.5-2.6-3.9-3-4.5c-0.7-1.2-1.2-1.9-1.9-3
			c-0.3-0.5-0.8-1.4-1-1.4c-0.4,0.1-0.2,0.9-0.1,1.5c0,0.9,0.1,1.6,0.1,2.5c0,0.4-0.1,0.8,0,1.2c0,0.7,0.1,1.2,0.1,1.9
			c0.1,0.5,0.3,2.4,0.3,2.9c-0.1,0.6-0.1,0.8-0.6,1.3c-0.2,0.2-0.9,0.4-1.1,0.5c-0.8,0.2-1.3,0.3-2,0.5c-0.8,0.3-1.3,0.5-2.1,0.8
			c-0.9,0.3-1.9,0.5-2.3-0.8C135.6-723.8,135.6-724.7,135.6-724.8z"/>
		<path class="st2" d="M105.6-749.1c0.7-0.1,1.2-0.1,1.9-0.3c1.2-0.2,1.9-0.5,3-0.7c2.3-0.4,2.4,0.6,2.6,1.7l0.4,1.9
			c0.2,1.1,0.2,1.9,0.4,2.9l0.4,1.9c0.5,2.3,0.9,3.9,1.4,6.2l1.1,5.7c0.4,1.8,0.5,3.1,0.8,4.9l0.6,3.2c0.2,0.8,0.4,1.3,0.5,2.1
			c0.3,1.5-0.7,1.8-1.8,2c-1.1,0.2-1.9,0.3-2.9,0.5c-0.9,0.2-1.5,0.4-2.4,0.6c-1,0.2-1.3-0.9-1.4-1.5c-0.1-0.7-0.1-1.3-0.2-2
			c-0.2-1.2-0.4-1.9-0.6-3.1l-1.4-7.1c-0.2-1.1-0.3-1.8-0.5-2.9l-0.4-2.3c-0.4-1.8-0.8-3.1-1.1-4.9c-0.3-1.4-0.3-2.4-0.6-3.7
			c-0.3-1.3-0.6-2.1-0.9-3.4C104.4-747.9,104.3-748.8,105.6-749.1z"/>
		<path class="st2" d="M85.8-744.4c0.9-0.9,2.1-1.7,3-2.1c1.4-0.6,4.1-1.1,5.5-1.3c1.1-0.1,5.3-0.5,6.4,0.6c0.3,0.3,0.4,0.5,0.5,1.1
			c0.1,1,0.1,1.7,0.3,2.8c0.1,0.8,0.3,1.3,0.4,2.1c0.1,0.5,0.4,2.3-1.6,2.5c-0.9,0.1-1.1-0.1-1.7-0.4c-0.2-0.1-0.2-0.2-0.3-0.2
			c-0.2-0.1-0.4-0.3-0.7-0.4c-0.7-0.3-1.7-0.3-2.3-0.2c-1.6,0.2-2.5,0.8-2.5,1.9c0.1,1.5,1.9,2.5,3.2,3.5c0.9,0.7,1.5,1.2,2.5,2
			c0.3,0.2,1.3,0.9,2.3,1.7c2.2,2.1,2.6,3.8,2.9,6.2c0.9,7-2,10.3-8.7,11.1c-3.1,0.4-6.5,1-6.7-1.2c-0.1-1-0.1-1.7-0.3-2.8l0-0.2
			c-0.1-0.7-0.2-1.1-0.3-1.7c-0.1-0.5-0.2-2,1.5-2.2c0.7-0.1,1.8,0.2,2,0.2c0.5,0.1,1,0.2,1.9,0c0.3,0,2.1-0.2,1.8-1.9
			c-0.1-0.5-0.2-0.9-0.6-1.3c-0.4-0.5-2.6-2-4.6-3.5c-0.8-0.6-1.4-1-2.1-1.6c-2.6-2.2-3.2-3.8-3.6-6.4
			C83.5-740.3,83.8-742.3,85.8-744.4z"/>
		<path class="st2" d="M54.2-743.9c1.2-0.5,2.6-0.9,5.2-0.9c0.9,0,1.5,0.1,2.4,0.1c1.4,0,2.3-0.2,3.7-0.2c1.5,0,2.9,0,2.9,2.1
			c0,1.7-0.2,2.9-0.2,4.6c0,2.7,0.2,4.6,0.3,7.4c0,1.1,0,1.8-0.1,2.9c0,1.9,0.2,3.2,0.2,5.1c0,1.7-0.1,2.8-0.1,4.5
			c0,1.4,0.1,2.3,0.2,3.8c0,2.1-0.7,2.8-2.1,2.8c-1.3,0-2.1,0-3.3,0c-1.3,0-2.1,0-3.3,0.1c-0.4,0-0.8,0-1.1,0.1
			c-4.5,0-6.6-1.4-8.5-3.6c-0.3-0.4-1.2-1.4-1.8-2.7c-1.9-3.9-1.9-10.4-1.9-10.7C46.5-732.9,48-741.2,54.2-743.9z M55.6-725.7
			c0.1,1.2,0.4,6.1,3.2,5.9c0.2,0,0.4,0,0.6-0.2c0.9-0.4,0.8-1.6,0.8-2.2c0-1.8-0.1-3-0.2-4.8c0-1.2,0.1-2,0.1-3.2
			c0-0.9-0.1-1.6-0.1-2.6c0-0.7,0-1.1,0-1.8c0-1,0-2.7-1.7-2.7c-1.8,0.1-2.2,2.3-2.2,2.4c-0.2,0.8-0.7,5.4-0.7,6.2
			C55.5-727.6,55.6-726.8,55.6-725.7z"/>
		<path class="st2" d="M24.7-740.7c0-0.8-0.1-1.4-0.1-2.2c0-0.6,0.1-1.8,1.8-1.9c0.7,0,1.1,0,1.8,0l1.1,0c1.1,0,1.9,0,3.1,0
			c0.7,0,1.1-0.1,1.8-0.1l5-0.2c0.5-0.1,0.8-0.1,1.3-0.1c0.6,0,1.9,0.3,2,1.9c0,1.2-0.1,2.1,0,3.3c0,1.1,0.1,1.9,0.2,3
			c0,0.8-0.1,1.4-0.1,2.2c0,0.8,0.1,1.4,0.2,2.2c0.1,1.5,0,2.6,0.1,4.2c0.1,1.4,0.2,2.8,0.3,4.2c0.1,1.9,0,3.3,0.1,5.2
			c0.1,1.4,0.2,2.3,0.2,3.6c0.1,2.7-0.2,3.5-2.3,3.6c-1.2,0-2.1-0.1-3.3-0.1c-0.6,0-1.2,0.1-1.7,0.1c-1.5,0.1-2.6,0-4.1,0
			c-0.7,0-1.1,0.1-1.8,0.2l-0.9,0c-0.5,0-0.9,0.1-1.5,0.1c-1.5,0.1-1.5-1.1-1.6-1.5c0-0.8,0.1-1.6,0-2.4c0-1.3-0.7-3.5,1.7-3.6
			l0.5,0c0.6,0,1-0.1,1.5-0.1c0.8,0,1.3,0.1,2.1,0.1c2.6-0.1,2.6-0.9,2.6-2.5c-0.1-1.6-0.7-2.4-1.7-2.4c-0.5,0-0.9,0.1-1.4,0.1
			l-0.1,0c-0.7,0-1.2,0-1.8,0c-0.6,0-1,0.1-1.5,0.1c-1.9,0.1-1.9-1.2-1.9-1.9c0-0.8,0-1.2,0-2c0-0.7-0.1-1.2-0.1-1.9
			c-0.1-1.8,1.3-2,1.9-2c1.5-0.1,2.4,0.1,3.9,0c2.6-0.1,2.3-1.6,2.3-2.6l0-0.6c0-0.2,0-1.1-0.1-1.4c-0.7-1.3-1.4-0.9-3.1-1
			c-0.8-0.1-1.4-0.1-2.3-0.1c-0.8,0-1.3,0.2-2,0.2c-0.5,0-1.7-0.2-1.8-1.7C24.6-739.3,24.7-739.9,24.7-740.7z"/>
		<path class="st2" d="M4.5-740.4c0.9-0.9,2.1-1.7,3-2.1c1.4-0.6,4.1-1.1,5.5-1.3c1.1-0.1,5.3-0.5,6.4,0.6c0.3,0.3,0.4,0.5,0.5,1.1
			c0.1,1,0.1,1.7,0.3,2.8c0.1,0.8,0.3,1.3,0.4,2.1c0.1,0.5,0.4,2.3-1.6,2.5c-0.9,0.1-1.1-0.1-1.7-0.4c-0.2-0.1-0.2-0.2-0.3-0.2
			c-0.3-0.1-0.4-0.3-0.7-0.4c-0.7-0.3-1.7-0.3-2.3-0.2c-1.6,0.2-2.5,0.8-2.5,1.9c0,1.5,1.9,2.5,3.2,3.5c0.9,0.7,1.5,1.2,2.5,2
			c0.3,0.2,1.3,0.9,2.2,1.7c2.2,2.1,2.6,3.8,2.9,6.2c0.9,7-2,10.3-8.7,11.1c-3.1,0.4-6.5,1-6.7-1.2c-0.1-1-0.1-1.7-0.3-2.8l0-0.2
			c-0.1-0.7-0.2-1.1-0.3-1.7c-0.1-0.5-0.2-2,1.5-2.2c0.7-0.1,1.8,0.2,2,0.2c0.5,0.1,1,0.2,1.9,0c0.3,0,2.1-0.2,1.8-1.9
			c-0.1-0.5-0.2-0.9-0.6-1.3c-0.4-0.5-2.6-2-4.6-3.5c-0.8-0.6-1.4-1-2.1-1.6c-2.6-2.2-3.2-3.8-3.6-6.4
			C2.1-736.2,2.4-738.3,4.5-740.4z"/>
		<path class="st2" d="M-10.9-739.3c0.7-0.1,1.2-0.1,1.9-0.3c1.1-0.2,1.9-0.5,3-0.7c2.3-0.5,2.4,0.6,2.6,1.7l0.4,1.9
			c0.2,1.1,0.2,1.9,0.4,2.9l0.4,1.9c0.5,2.3,0.9,3.9,1.4,6.2l1.1,5.7c0.4,1.8,0.5,3.1,0.8,4.9l0.6,3.2c0.2,0.8,0.4,1.3,0.6,2.1
			c0.3,1.5-0.7,1.8-1.8,2c-1.1,0.2-1.8,0.3-2.9,0.5c-0.9,0.2-1.5,0.4-2.4,0.6c-1,0.2-1.3-0.9-1.4-1.5c-0.1-0.7-0.2-1.3-0.3-2
			c-0.2-1.2-0.4-1.9-0.6-3.1l-1.4-7.1c-0.2-1.1-0.3-1.8-0.5-2.9l-0.5-2.3c-0.4-1.8-0.8-3-1.2-4.9c-0.3-1.4-0.3-2.4-0.6-3.7
			c-0.3-1.3-0.6-2.1-0.9-3.4C-12.1-738.2-12.2-739-10.9-739.3z"/>
		<path class="st2" d="M-35.3-716c-0.3-0.9-0.5-1.6-0.8-2.6c-0.3-0.9-0.4-1.6-0.6-2.5c-0.4-1.2-0.7-2-1.1-3.3
			c-0.4-1.3-0.6-2.2-1-3.5l-0.4-1.3c0,0-0.3-0.9-0.1-1.4c0.6-1.6,3.3-2.7,6.4-3.6c2.9-0.9,3.9-1.2,7.2-1c0.8,0.1,2,0.2,2.9,0.6
			c1.2,0.5,1.9,1.1,2.8,1.9c2.3,1.9,3.3,2.7,5,6.9c0.3,0.6,0.8,1.9,1.4,3.7c0.7,2.3,1.1,6.9,1.1,6.9c0,1.2-0.1,2-0.3,3.2
			c-0.2,1-0.4,1.9-0.5,2.3c-0.3,0.9-1.6,3.3-3.4,4.8c-1.1,1-2.4,1.7-3.6,2.3c-1.7,0.8-3.3,1.3-3.9,1.5l-0.5,0.1
			c-0.2,0.1-3.9,1-4.1,1c-0.5-0.2-1-0.3-1.3-1.1c-0.1-0.5-0.2-0.8-0.3-1.2l-0.5-1.6c-0.4-1.4-0.9-2.9-0.8-3.4
			c0.2-0.4,0.5-0.8,0.5-0.9c0.1-0.1,0.4-0.4,0.8-0.5c0.6-0.2,1.2,0.1,1.8,0.1c0.4,0,2.4-0.5,2.8-0.6c2.5-0.7,3.5-1.9,4-3.6
			c0.1-0.4,0.2-1.1,0.2-1.4c0-0.2-0.1-0.8-0.2-1.5c-0.1-1.3,0-1.8-0.6-3.9c-0.2-0.6-0.4-1.1-0.6-1.8l-0.1-0.5
			c-0.2-0.6-0.3-0.8-0.5-1.1c-0.1-0.2-2.2-2.8-2.4-3c-0.2-0.1-0.4-0.5-1-0.7c-0.5-0.2-1.3-0.3-2.2-0.1c-1.1,0.3-1.6,0.8-1.4,1.6
			c0.1,0.5,0.3,0.8,0.5,1.2c0.2,0.6,0.2,1.1,0.4,1.7c0.4,1.2,1.6,1.2,1.9,1.1c0.3-0.1,0.5-0.3,0.8-0.4c0.4-0.1,1.2,0.1,1.5,1
			c0.3,1.1,0.5,2,0.8,3.1c0.2,0.6,0.4,1.5,0.4,1.5c0,0,0.1,0.5,0,0.8c-0.2,0.6-0.6,1.2-1.5,1.4c-0.9,0.3-1.5,0.3-2.4,0.6
			c-1.1,0.3-1.8,0.5-2.9,0.9c-0.4,0.2-0.6,0.3-1.1,0.4c-2.3,0.7-2.6-1.1-2.8-1.8C-34.9-714.5-35-715.1-35.3-716z"/>
		<path class="st2" d="M-64.6-721.6c0.8-0.3,1.3-0.5,2.1-0.8c1.2-0.5,2-0.9,3.2-1.4c0.9-0.4,1.5,0.7,2.5,1.7
			c0.8,0.8,1.5,1.3,2.3,2.1c0.8,0.8,1.2,1.4,2,2.2c0.6,0.6,1.2,1,1.8,1.6c0.6,0.6,0.9,1,1.5,1.6c0.6,0.7,1.6,1.8,1.7,1.7
			c0.1,0,0.1-0.3,0-0.5c-0.2-0.6-0.5-0.9-0.8-1.4c-0.6-1-0.9-1.8-1.4-2.9c-0.6-1.4-0.8-2.5-1.4-3.9c-0.6-1.3-1.1-2.2-1.7-3.5
			c-0.4-1.1,0.1-1.5,1-1.9c1.1-0.4,1.9-0.7,3-1.2c0.8-0.3,1.3-0.7,2.1-1c1.3-0.5,1.8,0.9,1.8,1c0.8,1.8,1,3.2,1.8,5.1
			c0.2,0.6,0.4,0.9,0.6,1.4c0.5,1.2,0.9,2,1.4,3.2c0.4,1,0.7,1.8,1.1,2.8c0.3,0.8,0.4,1.4,0.8,2.3c0.3,0.8,0.7,1.3,1,2.1l0.9,2.3
			c0.7,1.6,1.1,2.7,1.7,4.4c0.7,1.7,1.3,2.8,2,4.5c0.1,0.2,0.4,1.1-0.5,1.7l-0.2,0.1c-0.3,0.1-0.6,0.2-1,0.3c-0.6,0.2-1,0.4-1.6,0.6
			c-0.9,0.4-1.5,0.8-2.5,1.2c-0.5,0.2-0.8,0.1-1.1,0c-0.8-0.2-3.2-2.9-3.6-3.3c-0.5-0.5-0.8-0.8-1.4-1.3c-0.4-0.3-0.7-0.6-1.1-0.9
			c-0.4-0.4-0.6-0.7-1-1.1c-0.3-0.3-0.5-0.4-0.8-0.7c-0.5-0.5-0.8-0.8-1.3-1.4c-0.6-0.7-1.6-1.9-1.8-1.8c-0.2,0.1,0.2,1.1,0.4,1.7
			c0.3,0.7,0.6,1.1,0.9,1.8c0.3,0.7,0.4,1.2,0.7,1.9c0.8,1.9,1.5,3.1,2.3,5c0.1,0.3,0.7,1.7,0.6,2.2c-0.1,0.3-0.2,0.4-0.3,0.6
			c-0.1,0.2-0.5,0.6-1,0.8c-0.6,0.3-1.1,0.3-1.7,0.6l-1.6,0.7c-0.5,0.2-0.8,0.4-1.4,0.6c-0.8,0.3-1.3,0.1-1.7-0.7
			c-0.5-1.3-0.7-2.3-1.3-3.6c-0.8-1.9-1.4-3.2-2.2-5.1c-0.8-2-1.3-3.5-2.1-5.6c-0.8-2-1.6-3.4-2.4-5.4c-0.8-1.8-1.1-3.2-1.9-5.1
			c-0.4-0.9-0.6-1.6-1.1-2.5c-0.2-0.4-0.4-0.6-0.6-1C-66.1-721-65.1-721.4-64.6-721.6z"/>
		<path class="st2" d="M-85.7-706.4c-0.4-0.7-0.7-1.2-1.1-1.9c-0.3-0.5-0.7-1.7,0.7-2.5c0.6-0.3,1-0.5,1.6-0.8l1-0.5
			c1-0.5,1.7-0.8,2.7-1.4c0.6-0.3,1-0.6,1.5-0.9l4.4-2.4c0.4-0.3,0.7-0.5,1.1-0.7c0.5-0.3,1.8-0.6,2.6,0.8c0.6,1.1,0.9,1.9,1.5,3
			c0.5,1,0.9,1.6,1.5,2.6c0.4,0.7,0.5,1.3,0.9,2c0.4,0.7,0.7,1.2,1.1,1.9c0.7,1.4,1.2,2.4,1.9,3.7c0.7,1.2,1.4,2.4,2.1,3.6
			c1,1.7,1.5,2.9,2.4,4.6c0.6,1.2,1.2,2,1.8,3.1c1.3,2.4,1.4,3.3-0.5,4.3c-1.1,0.6-1.9,0.8-3,1.4c-0.5,0.3-1,0.6-1.5,0.9
			c-1.3,0.7-2.3,1.1-3.7,1.8c-0.6,0.3-0.9,0.6-1.5,0.9l-0.8,0.4c-0.5,0.2-0.8,0.5-1.3,0.7c-1.3,0.7-1.9-0.3-2.1-0.7
			c-0.4-0.7-0.6-1.5-1-2.2c-0.6-1.1-2.1-2.9-0.1-4l0.5-0.2c0.5-0.3,0.8-0.5,1.3-0.8c0.7-0.4,1.2-0.5,1.9-0.9c2.3-1.2,2-2,1.2-3.4
			c-0.8-1.4-1.7-1.9-2.6-1.4c-0.5,0.2-0.7,0.5-1.2,0.7l-0.1,0c-0.6,0.3-1.1,0.5-1.7,0.8c-0.5,0.3-0.8,0.5-1.3,0.8
			c-1.7,0.9-2.2-0.3-2.5-0.9c-0.4-0.7-0.5-1.1-0.9-1.8c-0.3-0.6-0.6-1-0.9-1.6c-0.9-1.6,0.3-2.3,0.8-2.6c1.3-0.7,2.2-1,3.5-1.7
			c2.3-1.2,1.4-2.5,0.9-3.4l-0.3-0.5c-0.1-0.2-0.5-1-0.7-1.2c-1.2-0.8-1.6-0.2-3.2,0.5c-0.8,0.3-1.3,0.5-2.1,0.9
			c-0.7,0.4-1,0.7-1.7,1.1c-0.4,0.2-1.6,0.6-2.4-0.7C-85.2-705.2-85.3-705.7-85.7-706.4z"/>
		<path class="st2" d="M-104.1-698c0.7-1.1,1.7-2.2,3.9-3.6c0.7-0.5,1.3-0.8,2.1-1.3c1.1-0.8,1.8-1.5,2.9-2.2
			c1.2-0.8,2.4-1.6,3.6,0.2c0.9,1.4,1.4,2.5,2.4,4c1.5,2.3,2.8,3.7,4.3,6c0.6,0.9,1,1.5,1.5,2.4c1,1.6,1.9,2.6,3,4.2
			c0.9,1.4,1.5,2.4,2.4,3.8c0.8,1.1,1.4,1.9,2.2,3c1.2,1.8,1,2.7-0.2,3.5c-1.1,0.7-1.8,1.1-2.8,1.8c-1.1,0.7-1.8,1.2-2.7,1.9
			c-0.3,0.2-0.6,0.5-0.9,0.6c-3.7,2.5-6.2,2.5-9.1,1.7c-0.5-0.1-1.8-0.5-3-1.2c-3.8-2.2-7.3-7.6-7.5-7.9
			C-104.4-684.6-107.7-692.3-104.1-698z M-92.7-683.6c0.7,0.9,3.7,4.9,5.9,3.1c0.2-0.1,0.3-0.3,0.4-0.5c0.5-0.8-0.2-1.8-0.5-2.3
			c-1-1.5-1.8-2.5-2.8-3.9c-0.7-1-1-1.7-1.7-2.7c-0.5-0.8-1-1.3-1.6-2.1c-0.4-0.5-0.6-1-1-1.5c-0.5-0.8-1.5-2.3-2.9-1.3
			c-1.5,1-0.5,3.1-0.5,3.2c0.3,0.8,2.4,4.9,2.8,5.6C-94-685.1-93.4-684.5-92.7-683.6z"/>
		<path class="st2" d="M-130.5-678.3c0.5-0.5,1-0.7,1.5-1.2c0.9-0.8,1.4-1.4,2.2-2.1c1.8-1.5,2.3-0.7,3.1,0.2l1.3,1.4
			c0.7,0.8,1.1,1.5,1.8,2.3l1.3,1.4c1.6,1.8,2.8,2.9,4.3,4.7l3.8,4.4c1.2,1.4,2,2.5,3.2,3.8l2.1,2.4c0.5,0.6,1,0.9,1.5,1.5
			c1,1.2,0.3,1.9-0.5,2.6c-0.8,0.7-1.4,1.2-2.3,1.9c-0.7,0.6-1.1,1.1-1.8,1.7c-0.7,0.6-1.6-0.1-2-0.6c-0.5-0.6-0.8-1-1.2-1.6
			c-0.7-0.9-1.3-1.5-2.1-2.4l-4.8-5.5c-0.7-0.8-1.1-1.4-1.8-2.2l-1.5-1.7c-1.2-1.4-2.2-2.2-3.4-3.7c-0.9-1.1-1.5-1.9-2.4-2.9
			c-0.9-1-1.6-1.5-2.5-2.5C-131-676.7-131.5-677.4-130.5-678.3z"/>
		<path class="st2" d="M-150.3-658.8c0.6-0.6,1-0.9,1.6-1.6c0.9-0.9,1.5-1.6,2.3-2.6c0.7-0.7,1.7,0,3,0.6c1,0.4,1.9,0.6,2.9,1
			c1,0.4,1.7,0.8,2.7,1.2c0.8,0.3,1.5,0.4,2.3,0.8c0.8,0.3,1.2,0.5,2,0.9c0.8,0.4,2.1,1,2.2,0.9c0.1-0.1,0-0.3-0.2-0.4
			c-0.4-0.4-0.8-0.6-1.3-1c-0.9-0.7-1.6-1.3-2.5-2.1c-1.1-1.1-1.7-1.9-2.9-3c-1-1-1.9-1.5-3-2.5c-0.8-0.8-0.5-1.4,0.2-2.1
			c0.8-0.8,1.5-1.4,2.3-2.3c0.6-0.6,0.9-1.1,1.5-1.7c1-1,2,0.2,2.1,0.2c1.4,1.4,2.2,2.6,3.6,3.9c0.4,0.4,0.7,0.7,1.1,1
			c0.9,0.9,1.6,1.5,2.5,2.4c0.8,0.8,1.4,1.3,2.2,2.2c0.6,0.7,1,1.1,1.6,1.8c0.6,0.6,1.2,0.9,1.8,1.5l1.8,1.7
			c1.2,1.2,2.1,2.1,3.3,3.3c1.3,1.3,2.3,2,3.6,3.3c0.2,0.2,0.8,0.8,0.2,1.7l-0.2,0.2c-0.3,0.3-0.5,0.4-0.8,0.7
			c-0.5,0.4-0.8,0.7-1.2,1.2c-0.7,0.7-1.1,1.3-1.8,2.1c-0.4,0.4-0.7,0.4-1,0.4c-0.8,0.1-4.1-1.4-4.6-1.6c-0.7-0.3-1.1-0.4-1.8-0.7
			c-0.5-0.2-0.9-0.2-1.4-0.4c-0.5-0.2-0.8-0.4-1.3-0.6c-0.4-0.2-0.7-0.2-1-0.3c-0.6-0.2-1.1-0.4-1.7-0.7c-0.8-0.4-2.2-1.2-2.3-1
			c-0.1,0.2,0.6,0.9,1.1,1.4c0.5,0.5,1,0.7,1.5,1.3c0.5,0.5,0.8,0.9,1.3,1.4c1.4,1.4,2.7,2.2,4.1,3.7c0.3,0.3,1.3,1.3,1.5,1.7
			c0,0.3,0,0.5,0,0.6c0,0.2-0.2,0.7-0.6,1.1c-0.5,0.5-0.9,0.7-1.3,1.2l-1.2,1.3c-0.4,0.4-0.6,0.7-1,1.1c-0.6,0.6-1.2,0.6-1.8,0
			c-1-1-1.6-1.8-2.6-2.8c-1.5-1.4-2.6-2.3-4-3.8c-1.6-1.5-2.6-2.7-4.2-4.2c-1.6-1.5-2.8-2.4-4.4-4c-1.4-1.4-2.3-2.5-3.7-3.9
			c-0.7-0.7-1.2-1.2-2-1.8c-0.3-0.3-0.6-0.4-0.9-0.7C-151.4-657.5-150.7-658.3-150.3-658.8z"/>
		<path class="st2" d="M-145.5-625.5c0.3-0.4,0.5-0.6,0.8-1c0.8-1.1,0.6-1.8-0.8-2.9c-1.2-1-2.2-1.6-3.4-2.6c-1.5-1.2-2.5-2.1-4-3.3
			c-1.4-1.1-2.4-1.8-3.7-2.9c-0.8-0.6-1.5-1.3-2.3-1.9c-0.7-0.5-1.1-0.9-1.9-1.4c-0.4-0.3-0.7-0.4-1.2-0.7c-1.2-0.9-0.4-2.1-0.1-2.4
			c0.4-0.4,0.6-0.7,1-1.1c0.5-0.6,0.9-1,1.4-1.6c0.4-0.5,0.7-1,1.1-1.5c0.6-0.8,1.3-1.1,2.5-0.1c1.2,1,1.9,1.8,3.1,2.8
			c1.1,0.9,2,1.4,3.2,2.4c1.3,1.1,2.1,2,3.4,3.1c1,0.8,1.7,1.2,2.7,1.9c2.3,1.7,3.7,3.9,5.3,3.6c0.3,0,0.4-0.1,0.5-0.2
			c0.4-0.1,0.7-0.6,0.9-0.8c0.2-0.3,0.4-0.5,0.6-0.8c0.8-1,1.7-0.7,2.1-0.4c0.9,0.7,1.5,1.3,2.4,2.1c0.6,0.5,1.1,0.8,1.7,1.3
			c0.9,0.7,1,1.4,0.2,2.3c-0.7,0.8-1.2,1.4-1.9,2.2c-1,1.2-1.9,2.6-2.9,3.8l-0.3,0.4c-0.8,1-1.5,1.7-2.3,2.8
			c-0.5,0.7-0.8,1.2-1.3,1.8c-1.1,1.4-2.2,0.6-3.2-0.2c-0.7-0.6-1.2-1-1.9-1.6c-0.5-0.4-0.9-0.6-1.3-1
			C-145.5-623.6-146.4-624.4-145.5-625.5z"/>
		<path class="st2" d="M-173.7-615.5c-0.2-0.1-1.3-1.3-2-2.4c-0.7-1.3-1.2-3-1.2-4.5c0.1-0.4,0.2-0.8,0.3-1.6
			c0.4-1.6,0.8-2.5,1.7-3.8c1.5-2.3,4.3-5.5,8.2-5.6c1.3-0.1,3.9,0.7,4.8,1.1c0.8,0.3,3.5,1.9,4.2,2.3c1.1,0.7,1.7,1.3,2.8,1.9
			c0.8,0.5,1.4,0.9,2.2,1.4c5.6,3.7,8.3,6,8.7,10.4c0.1,2.3-0.2,3.7-2.1,6.6l-0.2,0.2c-0.9,1.4-2,2.7-3.4,3.5
			c-0.8,0.5-3.3,1.5-4.2,1.6c-2.6,0.4-6.1-1.1-10.3-3.8C-169.5-611.7-171.5-612.8-173.7-615.5z M-160.3-616c0.7,0.4,1.1,0.8,1.9,1.3
			c0.6,0.4,2.9,1.7,3.7,1.8c0.7,0,1.4,0,2-0.8c0.1-0.1,0.1-0.2,0.1-0.3c0.2-0.3,0.2-0.6,0.3-0.9c-0.1-1.1-0.8-1.9-2.2-2.8
			c-1.1-0.7-1.9-1.1-2.9-1.8c-2.1-1.4-3.5-2.5-5.6-3.8c-1-0.6-3.5-2.6-4.9-0.6c-1.2,1.8,0.4,3,1.5,3.7c0.7,0.4,1.2,0.7,1.8,1.2
			c0.9,0.7,1.5,1.2,2.5,1.9C-161.5-616.7-161-616.5-160.3-616z"/>
		<path class="st2" d="M-193.4-584.2c-0.7-0.3-1.3-0.5-2-0.9c-0.5-0.2-1.6-0.9-0.9-2.4c0.3-0.6,0.5-1,0.8-1.6l0.5-1
			c0.5-1,0.9-1.7,1.4-2.7c0.3-0.6,0.4-1,0.7-1.6l2.1-4.6c0.2-0.4,0.3-0.8,0.5-1.2c0.2-0.5,1.1-1.6,2.6-0.9c1.1,0.5,1.9,1,3,1.5
			c1,0.5,1.7,0.8,2.7,1.2c0.7,0.3,1.2,0.7,1.9,1.1c0.7,0.3,1.3,0.5,2,0.8c1.4,0.7,2.3,1.2,3.7,1.9c1.3,0.6,2.5,1.1,3.8,1.7
			c1.8,0.8,2.9,1.5,4.7,2.3c1.2,0.6,2.1,0.9,3.3,1.4c2.5,1.2,3.1,1.8,2.2,3.7c-0.5,1.1-1.1,1.8-1.6,2.9c-0.2,0.5-0.5,1.1-0.7,1.6
			c-0.6,1.4-1.2,2.3-1.9,3.6c-0.3,0.6-0.4,1.1-0.7,1.7l-0.4,0.9c-0.2,0.5-0.3,0.8-0.6,1.3c-0.6,1.3-1.7,0.9-2.1,0.7
			c-0.7-0.3-1.4-0.8-2.1-1.1c-1.1-0.5-3.4-1-2.4-3.1l0.2-0.5c0.2-0.5,0.4-0.9,0.6-1.4c0.3-0.7,0.7-1.1,1-1.8c1.1-2.3,0.4-2.8-1-3.4
			c-1.4-0.7-2.4-0.5-2.9,0.5c-0.2,0.5-0.3,0.8-0.5,1.3l0,0.1c-0.3,0.6-0.6,1-0.9,1.6c-0.2,0.5-0.4,0.9-0.6,1.4
			c-0.8,1.7-2,1.1-2.6,0.8c-0.7-0.3-1.1-0.6-1.8-0.9c-0.6-0.3-1.1-0.5-1.7-0.8c-1.7-0.8-1.2-2-0.9-2.6c0.6-1.3,1.2-2.1,1.8-3.5
			c1.1-2.3-0.4-2.8-1.3-3.2l-0.5-0.2c-0.2-0.1-1-0.5-1.3-0.5c-1.5,0-1.4,0.8-2.3,2.3c-0.4,0.7-0.8,1.2-1.1,2
			c-0.3,0.7-0.4,1.2-0.7,1.8c-0.2,0.4-0.9,1.5-2.3,0.9C-192.2-583.6-192.6-583.9-193.4-584.2z"/>
		<path class="st2" d="M-179.2-552c-1.2-0.7-2.1-1-3.4-1.6c-0.5-0.2-0.7-0.4-1.2-0.7c-0.4-0.2-0.7-0.2-1-0.4
			c-1.1-0.6-1.8-1.2-2.9-1.8c-1.1-0.7-1.9-1-3-1.6c-0.9-0.5-1.6-0.9-2.5-1.4c-1.1-0.6-2-0.9-3.1-1.6c-1.3-0.8-2.1-1.4-3.4-2.3
			c-1.9-1.2-3.7-2-4.1-3c-0.2-0.6,0-1.2,0.2-1.7l2.6-7.3c0.2-0.7,0.4-0.7,0.8-0.9c0.9-0.4,9.2,1.1,9.9,1.2c2.3,0.3,4,0.5,6.3,0.9
			c0.6,0.1,1,0.2,1.6,0.4c1.7,0.3,2.9,0.3,4.6,0.6c1.8,0.3,3,0.7,4.8,1c2.3,0.4,2.5,0.3,3.8,0.8c0.6,0.2,1.7,0.7,1.3,1.8
			c-0.2,0.7-0.5,1.2-0.7,1.8c-0.5,1.5-0.9,2.5-1.4,4c-0.6,1.6-1.8,0.7-3.7,0.3c-1.7-0.5-2.9-0.5-4.7-1c-1.3-0.4-2.2-0.7-3.5-1.1
			c-1.4-0.4-2.5-0.5-3.9-0.8c-1-0.2-1.7-0.5-2.8-0.7c0,0-2.5-0.7-2.6-0.2c-0.1,0.6,2.8,1.5,4.4,2.3c1.2,0.6,1.9,1.1,3.1,1.7
			c1.7,0.8,2.9,1.1,4.6,1.9c1.4,0.7,2.4,1.3,3.8,2c0.9,0.4,2.3,1,2.4,1.2c0.3,0.3,0.7,0.7,0.4,1.4c-0.4,1.1-0.8,1.8-1.2,2.8
			c-0.3,0.8-0.4,1.3-0.7,2c-0.2,0.5-0.2,0.8-0.4,1.3c-0.4,1-1.1,0.9-1.5,0.7C-177.1-550.5-178.2-551.4-179.2-552z"/>
		<path class="st2" d="M-207.9-538.1c-0.8-0.2-1.3-0.3-2.1-0.5c-0.5-0.1-1.7-0.6-1.3-2.2c0.2-0.6,0.3-1.1,0.5-1.7l0.3-1.1
			c0.3-1.1,0.6-1.8,0.8-2.9c0.2-0.6,0.2-1.1,0.4-1.7l1.2-4.9c0.1-0.5,0.1-0.8,0.2-1.3c0.1-0.5,0.8-1.8,2.4-1.4c1.2,0.3,2,0.7,3.2,1
			c1.1,0.3,1.8,0.4,2.9,0.7c0.8,0.2,1.3,0.5,2.1,0.7c0.8,0.2,1.3,0.2,2.1,0.4c1.5,0.4,2.5,0.7,4,1.1c1.4,0.3,2.7,0.6,4.1,0.9
			c1.9,0.4,3.2,0.9,5,1.4c1.3,0.3,2.3,0.5,3.5,0.8c2.6,0.7,3.3,1.2,2.8,3.2c-0.3,1.2-0.7,2-1,3.2c-0.1,0.5-0.2,1.1-0.4,1.7
			c-0.4,1.5-0.8,2.5-1.1,3.9c-0.2,0.6-0.2,1.1-0.3,1.8l-0.2,0.9c-0.1,0.5-0.2,0.9-0.3,1.4c-0.4,1.4-1.5,1.2-1.9,1.1
			c-0.8-0.2-1.5-0.5-2.3-0.7c-1.2-0.3-3.5-0.4-3-2.6l0.1-0.5c0.1-0.5,0.2-1,0.3-1.5c0.2-0.7,0.4-1.2,0.6-2c0.6-2.5-0.1-2.8-1.7-3.2
			c-1.5-0.4-2.5-0.1-2.8,1c-0.1,0.5-0.1,0.9-0.3,1.4l0,0.1c-0.2,0.7-0.4,1.1-0.5,1.8c-0.1,0.5-0.2,1-0.3,1.5
			c-0.5,1.9-1.7,1.5-2.4,1.3c-0.7-0.2-1.2-0.3-1.9-0.5c-0.7-0.2-1.1-0.2-1.8-0.4c-1.8-0.4-1.5-1.8-1.4-2.4c0.4-1.4,0.8-2.3,1.1-3.7
			c0.6-2.5-0.9-2.7-1.9-2.9l-0.5-0.1c-0.2-0.1-1.1-0.3-1.4-0.3c-1.4,0.3-1.3,1-1.8,2.7c-0.3,0.8-0.5,1.3-0.7,2.1
			c-0.2,0.7-0.2,1.3-0.3,1.9c-0.1,0.5-0.7,1.6-2.1,1.3C-206.7-537.7-207.2-537.9-207.9-538.1z"/>
		<path class="st2" d="M-216-512.5l0-0.2c0.1-0.8,0.3-1.3,0.4-2.1c0.1-0.9,0.2-1.5,0.3-2.4c0.1-0.5,0-0.9,0.1-1.4
			c0.2-1.5,1.4-1.5,2.5-1.8c1.2-0.3,2-0.7,3.1-1c0.8-0.2,1.3-0.3,2.1-0.5c0.8-0.3,1.5-0.4,1.6-0.9c0.1-0.7-0.8-0.7-1.1-0.8
			c-0.9-0.1-1.6-0.2-2.5-0.3c-0.7-0.1-1.2-0.2-1.8-0.3c-0.6-0.1-1.1-0.1-1.8-0.2c-1-0.2-1.2-0.8-1.1-1.3c0.1-1,0.4-1.7,0.5-2.7
			c0.2-1.2,0.1-2.1,0.3-3.2c0.2-1,0.9-1.4,1.9-1.3c0.7,0.1,1.1,0.3,1.8,0.4c1.2,0.2,2,0.4,3.2,0.6c2.3,0.3,4,0.4,6.3,0.8
			c2.4,0.4,4.1,0.8,6.4,1.1c1.5,0.2,2.6,0.3,4.1,0.5c1.6,0.2,2.8,0.5,4.4,0.8c1,0.1,1.7,0.1,2.7,0.3c0.9,0.1,2.3,0.7,2,2.8
			c-0.1,1-0.3,1.6-0.5,2.6c-0.4,2.3-0.5,4-0.8,6.4c-0.4,2.7-1.4,6.3-5.4,7.9c-0.3,0.1-0.7,0.2-1,0.3c-0.4,0.1-0.9,0.3-1.7,0.4
			c-1.2,0.2-4.3-0.2-5.4-0.3c-0.7-0.1-4.8-0.6-7.6-3.7c-0.3-0.3-0.5-0.6-0.8-1c-0.2-0.3-0.3-0.5-0.5-0.8c0-0.1-0.3-0.2-0.5-0.3
			c-0.6-0.1-4,1.2-4.7,1.4c-0.7,0.2-1.2,0.3-1.9,0.5c-1.1,0.4-1.9,0.8-3,1c-0.2,0-0.5,0.1-0.9,0.1C-216.2-511.3-216-512.4-216-512.5
			z M-189.3-519.2l0-0.2c0-0.3,0-0.7-0.2-0.9c-0.3-0.6-0.9-0.8-1-0.8c-0.2-0.1-3.9-0.8-4-0.8c-1.2-0.2-2.4,0.3-2.6,1.7
			c-0.1,0.6,0.1,1.1,0.3,1.5c0.6,0.9,2,1.2,3.8,1.5C-191.8-517-189.6-517.3-189.3-519.2z"/>
		<path class="st2" d="M-187.5-484.7c-0.3-0.1-4.5-1.6-7.1-2.8c-0.5-0.2-0.9-0.4-1.4-0.6c-1.8-0.8-3.1-1.2-5-2.1
			c-2.6-1.2-3.4-2.1-6-2.3c-0.9,0-1.6,0-2.5-0.1c-1-0.1-1.7-0.2-2.7-0.3c-1.2-0.1-2,0-3.2-0.1c-0.5,0-1.4-0.1-1.8-0.8
			c-0.1-0.1-0.1-0.9-0.1-1c0-0.5,0.1-0.9,0.1-1.4c0-0.7,0-1.3,0-2l0.1-1.6c0.1-2.1,1.9-1.6,3-1.5l0.1,0c0.3,0,0.6,0.1,0.9,0.1
			c0.5,0,0.9,0,1.4,0c0.8,0,1.4,0.3,2.2,0.3c0.9,0,1.6-0.1,2.5,0c0.9,0,1.5,0.1,2.5,0c0.2,0,4.9-1.2,7.5-2.2c1.4-0.5,2.3-1,3.8-1.4
			c2-0.6,3.4-0.9,5.3-1.5c0.9-0.3,1.5-0.6,2.4-0.8c0.3-0.1,0.6-0.1,0.8-0.1c1.3,0.1,1.1,1.5,1.1,1.7c0,0.7-0.2,1.4-0.2,2.1
			c-0.1,1.3-0.1,2.2-0.1,3.4c0,0.7-0.2,1-0.6,1.3c-0.7,0.7-4.6,1.1-5.2,1.2c-1.3,0.3-2.2,0.5-3.5,0.8c-0.6,0.1-1.6,0.2-1.6,0.5
			c0,0.4,0.8,0.5,1.3,0.6c0.9,0.3,1.5,0.5,2.4,0.7c0.4,0.2,0.7,0.3,1.1,0.4c0.6,0.3,1.2,0.3,1.9,0.6c0.5,0.1,2.3,0.5,2.8,0.8
			c0.5,0.4,0.7,0.4,1,1c0.1,0.2,0.1,1,0.1,1.2c0,0.8-0.2,1.4-0.2,2.1c0,0.8,0,1.4,0,2.3c0,0.9-0.2,2-1.5,1.9
			C-186.6-484.4-187.4-484.7-187.5-484.7z"/>
		<path class="st2" d="M-214.9-454c-0.6-1.1-1.1-2.5-1.4-5.1c-0.1-0.9-0.1-1.5-0.1-2.4c-0.1-1.4-0.5-2.3-0.6-3.6
			c-0.1-1.4-0.2-2.9,1.9-3.1c1.7-0.2,2.9-0.1,4.6-0.2c2.7-0.3,4.6-0.7,7.3-1c1.1-0.1,1.8-0.1,2.9-0.2c1.9-0.1,3.2-0.5,5.1-0.6
			c1.7-0.2,2.8-0.2,4.5-0.3c1.4-0.1,2.3-0.4,3.7-0.5c2.1-0.2,2.8,0.4,3,1.8c0.1,1.3,0.2,2.1,0.3,3.3c0.1,1.3,0.2,2.1,0.4,3.3
			c0,0.4,0.1,0.7,0.2,1.1c0.4,4.4-0.8,6.7-2.8,8.8c-0.3,0.4-1.3,1.3-2.5,2.1c-3.7,2.3-10.1,2.9-10.5,2.9
			C-203.2-447.4-211.6-448.1-214.9-454z M-196.9-457.2c1.2-0.2,6-1,5.5-3.7c0-0.2-0.1-0.4-0.2-0.5c-0.5-0.8-1.6-0.7-2.2-0.6
			c-1.8,0.2-3,0.4-4.8,0.6c-1.2,0.1-2,0.1-3.2,0.2c-0.9,0.1-1.6,0.3-2.6,0.4c-0.7,0.1-1.1,0.1-1.8,0.1c-1,0.1-2.7,0.3-2.5,1.9
			c0.2,1.8,2.5,1.9,2.5,1.9c0.8,0.1,5.4,0.2,6.2,0.1C-198.8-456.8-198-457-196.9-457.2z"/>
		<path class="st2" d="M-206.9-424.2c-0.8,0.2-1.3,0.3-2.1,0.5c-0.6,0.1-1.8,0.2-2.2-1.4c-0.1-0.6-0.2-1.1-0.3-1.8l-0.2-1.1
			c-0.2-1.1-0.3-1.9-0.5-3c-0.1-0.6-0.3-1.1-0.4-1.7l-1-4.9c-0.1-0.5-0.2-0.8-0.3-1.2c-0.1-0.6-0.1-2,1.6-2.3
			c1.2-0.2,2.1-0.3,3.3-0.5c1.1-0.2,1.8-0.4,2.9-0.6c0.8-0.2,1.4-0.1,2.2-0.3c0.8-0.2,1.3-0.4,2.1-0.5c1.5-0.3,2.6-0.4,4.1-0.7
			c1.4-0.3,2.7-0.6,4.1-0.9c1.9-0.4,3.2-0.6,5.1-0.9c1.3-0.3,2.2-0.5,3.5-0.8c2.7-0.5,3.5-0.4,3.9,1.7c0.2,1.2,0.2,2.1,0.5,3.3
			c0.1,0.6,0.3,1.1,0.4,1.7c0.3,1.5,0.4,2.6,0.7,4c0.1,0.6,0.3,1.1,0.4,1.7l0.2,0.9c0.1,0.5,0.2,0.9,0.3,1.4
			c0.3,1.4-0.8,1.7-1.3,1.8c-0.8,0.2-1.6,0.2-2.4,0.3c-1.2,0.2-3.4,1.2-3.8-1.1l-0.1-0.5c-0.1-0.6-0.2-1-0.3-1.5
			c-0.1-0.7-0.1-1.3-0.3-2.1c-0.5-2.5-1.3-2.5-2.9-2.2c-1.6,0.3-2.3,1-2.1,2.1c0.1,0.5,0.3,0.9,0.4,1.4l0,0.1
			c0.1,0.7,0.1,1.2,0.3,1.8c0.1,0.6,0.2,1,0.3,1.5c0.4,1.9-0.9,2.1-1.6,2.2c-0.7,0.1-1.2,0.2-1.9,0.3c-0.7,0.1-1.1,0.3-1.8,0.4
			c-1.8,0.4-2.2-1-2.3-1.6c-0.3-1.4-0.3-2.4-0.6-3.9c-0.5-2.5-2-2-3-1.9l-0.6,0.1c-0.2,0-1.1,0.2-1.4,0.4c-1.2,0.9-0.7,1.5-0.5,3.2
			c0.1,0.8,0.1,1.4,0.3,2.2c0.1,0.7,0.4,1.2,0.5,1.9c0.1,0.5,0.1,1.7-1.4,2.1C-205.6-424.4-206.1-424.4-206.9-424.2z"/>
		<path class="st2" d="M-181.2-410.4c-0.1-0.5-0.2-0.8-0.3-1.2c-0.4-1.3-1.1-1.5-2.9-1c-1.5,0.4-2.5,0.9-4.1,1.3
			c-1.8,0.5-3.1,0.8-5,1.4c-1.7,0.5-2.8,0.9-4.5,1.4c-0.9,0.3-1.9,0.5-2.9,0.8c-0.8,0.2-1.4,0.4-2.2,0.7c-0.5,0.2-0.8,0.4-1.3,0.5
			c-1.4,0.4-1.9-0.9-2-1.3c-0.2-0.5-0.2-0.9-0.3-1.5c-0.2-0.8-0.3-1.3-0.5-2c-0.2-0.6-0.4-1.1-0.6-1.7c-0.3-0.9-0.1-1.7,1.4-2.1
			c1.5-0.4,2.5-0.5,4-0.9c1.4-0.4,2.3-0.8,3.7-1.2c1.6-0.5,2.9-0.6,4.5-1.1c1.2-0.3,1.9-0.7,3.1-1.1c2.8-0.9,5.3-0.8,6-2.2
			c0.2-0.2,0.1-0.4,0.2-0.5c0.1-0.4-0.1-0.9-0.1-1.2c-0.1-0.4-0.2-0.6-0.3-0.9c-0.4-1.2,0.4-1.8,0.9-1.9c1.1-0.3,2-0.5,3.1-0.8
			c0.8-0.2,1.3-0.5,2-0.7c1.1-0.3,1.7,0,2,1.1c0.3,1,0.4,1.8,0.7,2.8c0.4,1.5,1,3,1.5,4.6l0.1,0.5c0.4,1.3,0.5,2.2,0.9,3.5
			c0.2,0.8,0.5,1.3,0.7,2.1c0.5,1.8-0.8,2.1-2,2.5c-0.9,0.3-1.5,0.4-2.4,0.6c-0.6,0.2-1,0.3-1.6,0.5
			C-179.6-409.4-180.8-409-181.2-410.4z"/>
		<path class="st2" d="M-196.5-380.3c-0.4-1.1-0.6-1.8-1-2.9c-0.3-0.9-0.7-1.5-1-2.3c-0.6-1.6,0.7-1.8,1.1-2.1
			c0.4-0.2,2.8-1.2,3-1.8c0.1-0.3,0.1-0.1,0.1-0.5c0-0.1-0.6-1.8-1-2.8c-0.6-1.7-1-1.4-2.1-1.2c-0.4,0.1-2.9,1-3.4,0.9
			c-0.5-0.2-0.8-0.4-1.1-1.1c-0.3-0.8-0.5-1.4-0.8-2.2c-0.3-0.9-0.7-1.7-1.1-2.6c-0.3-0.8-0.6-1.7,0.6-2.2c0.4-0.1,1.2-0.3,2.2-0.5
			c1.2-0.3,2-0.5,3.2-0.7c1.1-0.2,1.8-0.3,2.9-0.5c1.5-0.3,2.6-0.6,4.1-0.9c1.5-0.3,2.6-0.4,4.1-0.8c1.1-0.3,1.8-0.5,2.9-0.7
			c1.3-0.2,2.2-0.3,3.5-0.5c2-0.4,3.3-0.9,5.3-1.1c1.3-0.2,2.5-0.3,3.1,0c0.5,0.3,0.9,0.8,1.2,1.7c0.6,1.5,0.8,2.6,1.4,4.1
			c0.4,1.1,0.9,2.2,1.3,3.3l0.1,0.2c0.4,1.1,0.4,1.6-0.2,2.3c-0.1,0.1-0.4,0.3-0.4,0.4c0,0-3.8,2.4-3.8,2.4c-1.3,0.8-2.3,1.2-3.6,2
			c-1.6,1-2.7,1.6-4.3,2.6c-1.3,0.8-2.2,1.4-3.5,2.1c-1.7,1-3,1.4-4.7,2.4c-2.5,1.5-5.5,3.5-6.1,3.8
			C-194.3-379.5-196-379-196.5-380.3z M-180-396.6c0.7-0.4,1.6-0.8,1.7-0.9c0.3-0.2,0.4-0.5,0.3-0.6c-0.1-0.1-0.3-0.2-0.6-0.2
			c-0.3,0-1.8,0.3-2,0.3c-0.6,0.1-1,0.1-1.6,0.2c-0.4,0.1-4.1,0.9-4.4,1c-1.4,0.5-1.2,1.2-1,1.9c0.2,0.6,0.6,1.7,2.2,1.1
			C-183-394.7-180.6-396.2-180-396.6z"/>
		<path class="st2" d="M-190.7-368.3c-0.3-0.6-0.4-1.1-0.7-1.8c-0.5-1.1-1-1.7-1.5-2.7c-1-2.1,0-2.4,1-2.9l1.7-0.8
			c1-0.5,1.8-0.7,2.7-1.1l1.7-0.8c2.2-1,3.6-1.9,5.7-2.9l5.2-2.5c1.7-0.8,2.9-1.2,4.5-2l2.9-1.4c0.7-0.3,1.2-0.7,1.9-1.1
			c1.4-0.7,1.9,0.2,2.4,1.2c0.5,1,0.8,1.7,1.2,2.7c0.4,0.8,0.8,1.4,1.2,2.2c0.4,0.9-0.6,1.5-1.1,1.8c-0.7,0.3-1.2,0.5-1.9,0.7
			c-1.1,0.5-1.8,0.9-2.8,1.4l-6.6,3.1c-1,0.5-1.7,0.7-2.7,1.2l-2.1,1c-1.7,0.8-2.8,1.5-4.4,2.3c-1.3,0.6-2.2,0.9-3.4,1.5
			c-1.2,0.6-1.9,1.1-3.1,1.7C-189.2-367.3-190.1-367-190.7-368.3z"/>
		<path class="st2" d="M-177.9-348.9L-177.9-348.9c-0.5,0.3-1.7,1.3-2.6-0.3c-0.4-0.8-0.7-1.4-1.1-2.1c-0.4-0.7-0.7-1.2-1.1-1.9
			c-0.4-0.7-0.6-1.2-1-1.8l-1.7-3.1c-0.5-0.9-0.9-1.5-1.4-2.4c-0.8-1.5,0.2-2.2,0.7-2.5l0.3-0.2c1.5-0.9,2.6-1.3,4.2-2.2
			c1.6-0.9,2.7-1.7,4.3-2.6c1.3-0.7,2.3-1.1,3.6-1.8c1-0.6,1.7-1.1,2.6-1.6c0.7-0.4,1.4-0.7,2-1c1-0.6,1.7-1.1,2.7-1.7
			c1-0.5,1.8-0.8,2.8-1.4c1.1-0.6,2-1.3,3.1-1.8l0.2-0.1c0.4-0.2,1.7-1,2.5,0.6c0.4,0.7,0.6,1.3,1,2.1c0.4,0.7,0.9,1.4,1.3,2.2
			c0.4,0.7,1,1.8-0.2,2.4c-0.5,0.3-0.9,0.4-1.5,0.7c-1.2,0.6-2,1-3.1,1.6c-1.1,0.6-1.8,1.2-2.9,1.8c-0.8,0.5-1.7,0.8-2.5,1.3
			c-0.7,0.4-1.3,0.9-1.9,1.3c-1.2,0.7-2.1,1.1-3.3,1.7c-0.7,0.4-1.2,0.8-2,1.2c-0.3,0.2-0.7,0.4-1.1,0.6c-2.2,1.2-1.5,2.9-1,3.6
			c0.4,0.7,0.6,1.2,1,1.8c0.2,0.3,0.4,0.5,0.5,0.9c0.2,0.4,0.4,0.9,0.2,1.5c-0.2,0.8-2.5,2-3.1,2.3
			C-176.8-349.4-177.3-349.3-177.9-348.9z"/>
		<path class="st2" d="M-174.1-339.4l-1.2-1.8c-1.3-1.9-2.4-3.2-0.8-4.3c0.4-0.3,0.7-0.4,1.1-0.7c0.6-0.4,1-0.7,1.6-1.1
			c0.4-0.3,0.7-0.5,1.2-0.7c0.7-0.4,1.8-1.1,2.8,0.5c0.3,0.5,0.5,0.9,0.9,1.4c0.5,0.8,0.9,1.3,1.4,2.1c1,1.6-0.4,2.3-1.3,2.9
			c-0.7,0.4-1.2,0.7-1.8,1.1c-0.4,0.3-0.7,0.6-1.2,0.9C-172.8-337.9-173.7-338.7-174.1-339.4z"/>
		<path class="st2" d="M-156.5-321.7c-0.6,0.5-1.1,0.9-1.7,1.3c-0.4,0.3-1.6,1-2.6-0.4c-0.4-0.5-0.6-0.9-1-1.5l-0.7-0.9
			c-0.7-0.9-1.1-1.6-1.8-2.5c-0.4-0.5-0.7-0.9-1.1-1.4l-3-4c-0.3-0.3-0.6-0.6-0.8-1c-0.3-0.4-0.9-1.7,0.4-2.7c1-0.7,1.8-1.2,2.7-1.9
			c0.9-0.7,1.5-1.2,2.4-1.8c0.6-0.5,1.2-0.7,1.8-1.2c0.6-0.5,1-0.9,1.7-1.4c1.2-0.9,2.2-1.5,3.4-2.4c1.1-0.8,2.2-1.7,3.3-2.6
			c1.5-1.2,2.7-1.9,4.2-3.1c1.1-0.8,1.8-1.5,2.8-2.2c2.2-1.6,3-1.9,4.3-0.2c0.7,1,1.1,1.8,1.9,2.8c0.3,0.5,0.7,0.9,1.1,1.4
			c0.9,1.2,1.4,2.1,2.3,3.3c0.4,0.5,0.8,0.8,1.1,1.4l0.6,0.7c0.3,0.4,0.6,0.7,0.9,1.1c0.9,1.2,0,1.9-0.4,2.2c-0.6,0.5-1.4,0.8-2,1.3
			c-1,0.8-2.5,2.5-3.9,0.7l-0.3-0.4c-0.3-0.4-0.6-0.8-1-1.2c-0.5-0.6-0.6-1.1-1.1-1.7c-1.6-2.1-2.2-1.7-3.5-0.7
			c-1.3,1-1.6,1.9-1,2.8c0.3,0.4,0.6,0.7,0.9,1.1l0.1,0.1c0.4,0.6,0.6,1,1,1.5c0.3,0.5,0.6,0.8,0.9,1.2c1.2,1.5,0,2.3-0.5,2.6
			c-0.6,0.5-1,0.7-1.6,1.1c-0.6,0.4-0.9,0.7-1.5,1.2c-1.5,1.1-2.4,0.1-2.7-0.4c-0.9-1.2-1.3-2.1-2.2-3.2c-1.6-2.1-2.7-1-3.5-0.4
			l-0.4,0.3c-0.2,0.1-0.9,0.7-1.1,0.9c-0.7,1.3,0,1.6,0.9,3.1c0.4,0.7,0.7,1.2,1.2,1.9c0.5,0.6,0.9,0.9,1.3,1.5
			c0.3,0.4,0.9,1.5-0.3,2.5C-155.4-322.4-155.9-322.2-156.5-321.7z"/>
		<path class="st2" d="M-121.4-319c-1.2,0.7-1.9,1.4-3,2.2c-0.4,0.3-0.7,0.5-1.1,0.7c-0.3,0.2-0.5,0.5-0.9,0.7
			c-1.1,0.7-1.9,1.1-3,1.7c-1.1,0.6-1.8,1.2-2.8,1.9c-0.9,0.6-1.5,1-2.4,1.5c-1.1,0.7-1.8,1.3-2.9,1.9c-1.3,0.7-2.2,1.2-3.6,1.9
			c-1.9,1.1-3.5,2.4-4.6,2.2c-0.7-0.1-1-0.6-1.4-1l-5.2-5.8c-0.5-0.5-0.5-0.7-0.4-1.2c0.1-1,5.3-7.6,5.7-8.1
			c1.4-1.9,2.3-3.3,3.8-5.1c0.4-0.5,0.7-0.7,1.1-1.2c1-1.4,1.6-2.4,2.7-3.8c1.1-1.4,2-2.3,3.1-3.8c1.4-1.8,1.4-2.1,2.5-3
			c0.5-0.4,1.4-1.2,2.2-0.3c0.5,0.5,0.8,1,1.3,1.5c1,1.1,1.8,1.9,2.9,3.1c1.1,1.2-0.2,2-1.5,3.4c-1.2,1.3-1.9,2.3-3.1,3.6
			c-0.9,1-1.7,1.6-2.6,2.6c-1,1.1-1.6,2-2.5,3.1c-0.7,0.8-1.2,1.3-1.9,2.1c0,0-1.8,1.8-1.4,2.2c0.4,0.4,2.6-1.8,4.1-2.8
			c1.1-0.8,1.9-1.1,2.9-1.9c1.5-1.1,2.4-2,3.9-3.1c1.3-0.9,2.3-1.5,3.6-2.4c0.8-0.6,2-1.5,2.2-1.6c0.4-0.1,0.9-0.3,1.4,0.3
			c0.8,0.8,1.2,1.5,1.9,2.4c0.5,0.6,1,1,1.5,1.6c0.3,0.4,0.6,0.6,0.9,0.9c0.7,0.8,0.3,1.3,0,1.6C-119.1-320.1-120.4-319.6-121.4-319
			z"/>
		<path class="st2" d="M-122.8-287.1c-0.5,0.6-0.9,1-1.4,1.6c-0.4,0.4-1.4,1.2-2.6,0.1c-0.5-0.4-0.8-0.8-1.3-1.2l-0.8-0.8
			c-0.8-0.8-1.4-1.4-2.2-2.1c-0.5-0.4-0.9-0.7-1.3-1.2l-3.7-3.4c-0.4-0.3-0.7-0.5-1-0.8c-0.4-0.4-1.2-1.5-0.1-2.8
			c0.8-0.9,1.5-1.5,2.3-2.4c0.8-0.8,1.2-1.4,2-2.3c0.5-0.6,1.1-0.9,1.6-1.5c0.5-0.6,0.8-1.1,1.4-1.7c1-1.1,1.8-1.9,2.9-3
			c0.9-1,1.8-2.1,2.7-3.1c1.3-1.5,2.3-2.4,3.6-3.8c0.9-1,1.5-1.8,2.4-2.7c1.8-2,2.6-2.4,4.2-1c0.9,0.8,1.4,1.6,2.3,2.4
			c0.4,0.4,0.9,0.8,1.3,1.1c1.1,1,1.8,1.8,2.9,2.9c0.5,0.4,0.9,0.7,1.4,1.1l0.7,0.6c0.4,0.3,0.7,0.6,1.1,0.9c1.1,1,0.4,1.8,0,2.2
			c-0.5,0.6-1.2,1.1-1.7,1.7c-0.9,0.9-2,2.9-3.7,1.4l-0.4-0.3c-0.4-0.4-0.8-0.6-1.2-1c-0.6-0.5-0.8-1-1.4-1.5
			c-1.9-1.7-2.5-1.2-3.6,0c-1.1,1.2-1.2,2.2-0.4,2.9c0.4,0.3,0.7,0.5,1.1,0.9l0.1,0.1c0.5,0.5,0.8,0.9,1.3,1.3
			c0.4,0.4,0.8,0.6,1.1,1c1.4,1.3,0.5,2.2,0,2.7c-0.5,0.6-0.9,0.9-1.4,1.4c-0.5,0.5-0.8,0.9-1.2,1.4c-1.2,1.4-2.3,0.5-2.8,0.1
			c-1.1-1-1.7-1.8-2.8-2.8c-1.9-1.7-2.8-0.5-3.5,0.3l-0.4,0.4c-0.2,0.2-0.8,0.8-0.9,1.1c-0.4,1.4,0.3,1.6,1.5,2.9
			c0.6,0.6,0.9,1.1,1.5,1.7c0.6,0.5,1,0.7,1.6,1.2c0.3,0.3,1.1,1.3,0.1,2.5C-121.8-288-122.2-287.7-122.8-287.1z"/>
		<path class="st2" d="M-104.1-268l-0.2-0.1c-0.6-0.5-1-0.9-1.6-1.3c-0.8-0.6-1.2-0.9-2-1.4c-0.4-0.3-0.8-0.5-1.2-0.8
			c-1.2-0.9-0.6-1.9-0.3-3.1c0.3-1.2,0.3-2.1,0.6-3.2c0.2-0.8,0.4-1.3,0.5-2.1c0.1-0.8,0.3-1.5-0.1-1.8c-0.6-0.4-1.1,0.4-1.2,0.6
			c-0.6,0.8-0.9,1.3-1.5,2c-0.4,0.6-0.7,0.9-1.2,1.5c-0.4,0.5-0.6,1-1,1.5c-0.6,0.8-1.2,0.6-1.7,0.3c-0.8-0.6-1.3-1.1-2.1-1.7
			c-0.9-0.7-1.8-1.1-2.7-1.8c-0.8-0.6-0.8-1.5-0.3-2.2c0.4-0.6,0.8-0.9,1.2-1.4c0.7-0.9,1.3-1.6,2-2.5c1.4-1.9,2.2-3.3,3.7-5.2
			c1.4-1.9,2.6-3.2,4-5.1c0.9-1.2,1.5-2.2,2.4-3.4c1-1.3,1.8-2.2,2.7-3.5c0.6-0.8,0.9-1.4,1.5-2.2c0.6-0.8,1.7-1.7,3.4-0.4
			c0.8,0.6,1.3,1.1,2,1.6c1.9,1.4,3.3,2.3,5.2,3.7c2.2,1.6,4.9,4.2,4.4,8.4c-0.1,0.3-0.2,0.8-0.3,1c-0.1,0.4-0.2,0.9-0.5,1.7
			c-0.4,1.1-2.2,3.7-2.8,4.6c-0.4,0.6-2.8,4-6.8,5c-0.5,0.1-0.8,0.2-1.2,0.2c-0.4,0.1-0.6,0-0.9,0.1c-0.1,0-0.3,0.1-0.5,0.3
			c-0.4,0.5-0.8,4.1-1,4.8c-0.2,0.7-0.3,1.2-0.4,1.9c-0.2,1.2-0.2,2-0.5,3.2c-0.1,0.2-0.1,0.5-0.4,0.8
			C-103.1-267.2-104-267.9-104.1-268z M-97.3-294.6l-0.2-0.1c-0.3-0.2-0.6-0.3-0.9-0.3c-0.7,0-1.1,0.4-1.2,0.5
			c-0.1,0.1-2.5,3-2.6,3.2c-0.7,0.9-0.9,2.2,0.3,3.1c0.5,0.4,1,0.5,1.4,0.5c1.1-0.1,2-1.2,3.1-2.6
			C-96.6-291.4-95.7-293.4-97.3-294.6z"/>
		<path class="st2" d="M-66.1-279.9c-0.2,0.2-3.6,3.2-5.8,4.9c-0.4,0.3-0.8,0.6-1.2,0.9c-1.5,1.3-2.6,2.2-4.2,3.4
			c-2.3,1.7-3.5,2-4.9,4.2c-0.5,0.8-0.8,1.4-1.3,2.1c-0.6,0.8-1,1.4-1.5,2.2c-0.6,1-1,1.8-1.6,2.8c-0.3,0.4-0.7,1.1-1.5,1.3
			c-0.2,0-0.8-0.3-1-0.4c-0.4-0.3-0.7-0.5-1.2-0.8c-0.6-0.4-1.1-0.6-1.7-0.9l-1.4-0.8c-1.8-1.1-0.5-2.4,0.1-3.4l0.1-0.1
			c0.2-0.3,0.4-0.5,0.5-0.7c0.3-0.4,0.4-0.8,0.6-1.2c0.4-0.7,0.9-1.1,1.3-1.8c0.5-0.8,0.7-1.4,1.2-2.2c0.5-0.8,0.8-1.3,1.2-2.2
			c0.1-0.2,1.2-4.8,1.7-7.7c0.2-1.5,0.3-2.5,0.6-4c0.4-2,0.8-3.4,1.2-5.4c0.2-0.9,0.2-1.6,0.4-2.5c0.1-0.3,0.2-0.6,0.3-0.7
			c0.7-1.1,1.9-0.3,2-0.2c0.6,0.4,1.2,0.8,1.8,1.2c1.1,0.7,1.9,1.1,3,1.7c0.6,0.4,0.8,0.6,0.9,1.1c0.2,1-1.2,4.5-1.4,5.2
			c-0.4,1.3-0.6,2.2-1,3.4c-0.2,0.6-0.5,1.5-0.3,1.7c0.3,0.2,0.8-0.5,1.2-0.9c0.7-0.6,1.1-1.1,1.8-1.7c0.3-0.3,0.6-0.5,0.9-0.8
			c0.5-0.4,0.8-0.9,1.4-1.4c0.3-0.4,1.6-1.8,2-2.1c0.6-0.3,0.7-0.5,1.4-0.4c0.3,0,1,0.4,1.1,0.5c0.7,0.4,1.1,0.8,1.8,1.2
			c0.7,0.4,1.3,0.6,2,1.1c0.8,0.5,1.6,1.1,1,2.2C-65.3-280.6-66-280-66.1-279.9z"/>
		<path class="st2" d="M-40.2-267c-0.5,1.2-0.8,2-1.3,3.2c-0.1,0.3-0.7,1.7-2.2,1.1c-0.6-0.2-0.8-0.7-1.4-0.9
			c-0.3-0.1-2.2-0.2-2.6-0.1c-1.8,0.5-3.4,2.7-4.7,5.8c-1.1,2.6-1.2,4.7-0.5,6.2c0.1,0.2,1.2,2.1,2.3,2.6c0.4,0.2,0.8,0.1,1.2,0.3
			c0.1,0,0.5,0.3,0.7,0.9c0.1,0.3,0,0.6-0.2,1.1c-0.4,0.8-0.7,1.3-1,2.1c-0.5,1.1-0.7,1.9-1.2,3c-0.8,1.8-2.2,1.2-2.7,1
			c-0.3-0.1-3.2-1.5-3.5-1.7c-0.1-0.1-2.2-1.5-3.2-3c-0.9-1.4-1.3-3-1.4-3.4c-0.1-0.3-0.4-1.4-0.4-1.7c0-0.2-0.3-3.5,0.1-5.3
			c0.2-0.9,0.7-2.3,1-3.1c0.5-1.4,0.7-2.3,1.3-3.7c1.4-3.3,3.5-6.1,4.3-7c0.4-0.4,2-2.2,4.6-3c0.2-0.1,3.8-0.8,4-0.8
			c1.7-0.2,4.3,0.6,5.6,1.1l0.3,0.1c1,0.4,2.7,1,2,2.7C-39.5-268.4-39.8-267.9-40.2-267z"/>
		<path class="st2" d="M-30.9-235.1L-30.9-235.1c-0.2,0.6-0.4,2.1-2.1,1.5c-0.8-0.3-1.4-0.6-2.2-0.8c-0.8-0.3-1.3-0.4-2.1-0.6
			c-0.8-0.3-1.2-0.5-1.9-0.7l-3.3-1.1c-1-0.3-1.7-0.5-2.7-0.8c-1.6-0.5-1.3-1.7-1.1-2.3l0.1-0.4c0.6-1.6,1.1-2.8,1.6-4.4
			c0.6-1.8,0.9-3.1,1.5-4.8c0.5-1.4,1-2.3,1.5-3.7c0.4-1.1,0.5-1.9,0.9-3c0.2-0.7,0.6-1.4,0.8-2.1c0.4-1.1,0.6-1.9,0.9-3.1
			c0.4-1.1,0.8-1.8,1.1-2.9c0.4-1.2,0.7-2.3,1.1-3.4l0.1-0.2c0.2-0.4,0.6-1.8,2.3-1.3c0.8,0.3,1.3,0.6,2.2,0.9
			c0.8,0.3,1.6,0.5,2.4,0.7c0.8,0.3,1.9,0.6,1.5,1.9c-0.2,0.6-0.4,0.9-0.6,1.5c-0.5,1.2-0.9,2.1-1.3,3.3c-0.4,1.2-0.6,2.1-1,3.3
			c-0.3,0.9-0.7,1.7-1,2.7c-0.2,0.7-0.4,1.5-0.6,2.2c-0.4,1.3-0.8,2.2-1.3,3.5c-0.3,0.8-0.4,1.4-0.7,2.3c-0.1,0.4-0.3,0.7-0.4,1.1
			c-0.8,2.4,0.8,3.1,1.7,3.4c0.8,0.3,1.2,0.5,2,0.7c0.4,0.1,0.6,0.2,1,0.3c0.4,0.1,0.9,0.4,1.2,0.9c0.4,0.7-0.6,3.2-0.8,3.8
			C-30.5-236.2-30.7-235.8-30.9-235.1z"/>
		<path class="st2" d="M-5.6-234c0,0.2-0.7,1.7-1.6,2.7c-0.9,1.1-2.4,2.2-3.9,2.6c-0.4,0.1-0.9,0.1-1.6,0.2
			c-1.7,0.2-2.6,0.1-4.1-0.3c-2.7-0.6-6.6-2.2-8.1-5.8c-0.5-1.2-0.7-3.9-0.6-4.9c0-0.9,0.5-3.9,0.7-4.7c0.3-1.2,0.6-2.1,0.8-3.3
			c0.2-1,0.3-1.7,0.6-2.6c1.5-6.5,2.7-9.9,6.8-11.7c2.2-0.9,3.5-1.1,6.9-0.3l0.3,0.1c1.6,0.4,3.2,1,4.4,2c0.7,0.5,2.5,2.6,2.9,3.4
			c1.2,2.3,1.1,6.1-0.1,11C-3.6-239.3-3.8-237.1-5.6-234z M-10.7-246.4c0.1-0.8,0.4-1.4,0.6-2.2c0.2-0.7,0.6-3.3,0.4-4.1
			c-0.2-0.6-0.5-1.3-1.5-1.6c-0.1,0-0.2,0-0.3,0c-0.3-0.1-0.6,0-0.9,0.1c-1,0.4-1.5,1.4-1.9,3c-0.3,1.2-0.4,2.2-0.7,3.4
			c-0.6,2.4-1.1,4.1-1.7,6.5c-0.3,1.1-1.2,4.2,1.1,4.8c2.1,0.5,2.7-1.4,3-2.7c0.2-0.8,0.3-1.3,0.5-2.1c0.3-1.1,0.6-1.8,0.9-3
			C-11-245.1-10.9-245.6-10.7-246.4z"/>
		<path class="st2" d="M25.5-252c-0.3,1.3-0.4,2.2-0.5,3.5c-0.2,1.3-0.1,2.3-0.3,3.6c-0.2,1.7-0.5,2.9-0.7,4.6
			c-0.3,2.2-0.4,3.7-0.6,5.9c-0.1,1-0.3,1.8-0.5,2.8c-0.1,0.7-0.2,5.1-4.9,7.2c-0.6,0.3-1.8,0.7-3.2,0.8c-1.5,0.1-4.2-0.2-4.2-0.2
			c-3-0.4-4.5-1.4-5.8-2.4c-0.9-0.7-1.2-1-1.6-1.6c-0.4-0.5-0.7-1.4-0.9-1.8c-0.4-1.2-0.3-3.4-0.1-4.6c0.2-2,0.6-3.3,0.8-5.2
			c0.3-2.7,0.4-4.6,0.7-7.2c0.2-1.5,0.4-2.6,0.6-4.2c0.2-1.7,0.3-2.9,0.5-4.6c0.2-1.9,0.5-3,2-2.8c1.1,0.1,1.8,0.4,3,0.6
			c0.6,0.1,1,0,1.6,0.1c1,0.1,2.3,0.2,2.1,1.9c-0.2,1.4-0.5,2.5-0.6,3.9c-0.1,0.9-0.1,1.4-0.2,2.3c-0.1,0.8-0.2,1.3-0.3,2.1
			l-0.2,1.5c-0.2,1.4-0.5,2.9-0.7,4.3c-0.1,1.1-0.2,1.9-0.3,3c-0.1,1.1-0.3,2.2-0.5,3.3l0,0.2c-0.1,1.1-0.4,3.1,1.5,3.3
			c0.5,0.1,1-0.1,1.2-0.1c1.3-0.6,1.4-1.6,1.7-3.6c0.3-2.3,0.6-3.9,0.8-6.3c0.2-2,0.2-3.4,0.5-5.4c0.2-1.8,0.5-2.9,0.7-4.7
			c0.1-0.6,0.1-1.2,0.2-1.8c0.1-1.1,0.1-3.3,2.1-3c1.1,0.1,1.8,0.4,2.9,0.5c0.9,0.1,1.5,0.1,2.5,0.2c1.5,0.2,1.3,1.6,1.3,2
			C25.8-253.2,25.6-252.7,25.5-252z"/>
		<path class="st2" d="M42.2-223c-1.2,0.5-2.7,0.7-5.2,0.6c-0.9,0-1.5-0.2-2.4-0.2c-1.4-0.1-2.3,0.1-3.7,0.1
			c-1.5-0.1-2.9-0.2-2.8-2.3c0.1-1.7,0.4-2.9,0.5-4.6c0.1-2.7,0-4.7,0.1-7.4c0.1-1.1,0.1-1.8,0.2-2.9c0.1-1.9,0-3.2,0.1-5.1
			c0.1-1.7,0.2-2.8,0.3-4.5c0.1-1.4,0-2.4,0-3.8c0.1-2.1,0.8-2.7,2.2-2.7c1.3,0.1,2.1,0.2,3.3,0.2c1.3,0.1,2.1,0.1,3.3,0.1
			c0.4,0,0.8,0,1.1,0c4.5,0.2,6.5,1.7,8.3,4c0.3,0.4,1.1,1.5,1.7,2.8c1.7,4,1.4,10.4,1.3,10.8C50.5-233.6,48.6-225.4,42.2-223z
			 M41.7-241.3c0-1.2-0.1-6.1-2.8-6c-0.2,0-0.4,0-0.6,0.2c-0.9,0.4-0.9,1.5-1,2.1c-0.1,1.8,0,3.1-0.1,4.8c-0.1,1.2-0.2,2-0.3,3.2
			c0,0.9,0.1,1.6,0,2.6c0,0.7-0.1,1.1-0.1,1.8c0,1-0.1,2.7,1.6,2.8c1.8,0,2.3-2.1,2.3-2.2c0.2-0.8,1-5.4,1.1-6.1
			C41.8-239.4,41.8-240.2,41.7-241.3z"/>
		<path class="st2" d="M70-244.9c-0.4,0-0.8-0.1-1.3-0.2l-1.3-0.2c-0.7-0.1-1.1-0.2-1.8-0.3l-0.1,0c-1.1-0.1-1.5,0.4-1.5,1l-0.1,1
			c-0.1,0.5-0.1,0.8-0.2,1.3c-0.2,1.5,1.4,1.6,1.6,1.7c0.5,0.1,0.9,0.1,1.4,0.2c0.4,0,0.6,0.1,1,0.2c0.4,0,0.8,0,1.1,0
			c1.3,0.2,1.4,1.2,1.3,1.6c-0.1,0.5-0.2,0.8-0.2,1.3l-0.1,0.9c-0.3,2.6-0.2,4.1-2.5,3.9c-1-0.1-1.7-0.4-2.6-0.5
			c-1.8-0.2-2.1,1.2-2.1,1.8l-0.3,2.3c-0.1,1.1-0.2,1.9-0.3,3c-0.1,0.5-0.2,0.8-0.3,1.3c-0.1,0.8,0,1.3-0.1,2.1l0,0.1
			c-0.1,0.5-0.3,1.8-1.9,1.6c-1-0.1-1.7-0.3-2.8-0.4c-0.9-0.1-1.5-0.1-2.4-0.2c-1.5-0.2-1.6-1.3-1.5-1.8c0.2-1.4,0.4-2.5,0.6-3.9
			c0.4-2.7,0.4-4.6,0.8-7.3c0.2-2,0.6-3.4,0.8-5.3c0.2-1.9,0.2-3.2,0.5-5.1c0.2-1.6,0.4-2.8,0.6-4.5c0.1-0.9,0.1-1.6,0.2-2.6
			c0.2-2.1,1.3-2.4,2.4-2.2l1.5,0.2c1.7,0.2,2.9,0.2,4.6,0.4c0.9,0.1,1.5,0.3,2.5,0.4c1.4,0.2,2.3,0.2,3.7,0.4
			c0.4,0,1.4,0.2,1.2,1.4c0,0.4-0.1,0.6-0.2,1l-0.1,0.8c-0.1,0.9-0.1,1.6-0.2,2.5C71.9-245.7,71.9-244.7,70-244.9z"/>
		<path class="st2" d="M78.7-217.8c-0.7-0.1-1.2-0.3-1.9-0.4c-1.2-0.2-2-0.2-3.1-0.4c-2.3-0.4-2-1.4-1.8-2.5l0.3-1.9
			c0.2-1.1,0.5-1.8,0.7-2.9l0.3-1.9c0.4-2.4,0.6-4,1-6.3l1-5.7c0.3-1.8,0.7-3.1,1-4.9l0.6-3.2c0.1-0.8,0.1-1.4,0.2-2.1
			c0.3-1.5,1.3-1.4,2.4-1.2c1.1,0.2,1.8,0.4,2.9,0.6c0.9,0.2,1.5,0.2,2.5,0.3c1,0.2,0.9,1.4,0.8,1.9c-0.1,0.7-0.3,1.2-0.5,2
			c-0.3,1.1-0.3,1.9-0.6,3.1l-1.3,7.2c-0.2,1.1-0.4,1.8-0.6,2.8l-0.4,2.3c-0.3,1.8-0.4,3.1-0.7,5c-0.2,1.4-0.6,2.3-0.8,3.7
			c-0.2,1.3-0.2,2.2-0.4,3.5C80.3-218.5,80-217.6,78.7-217.8z"/>
		<path class="st2" d="M101.8-216.5c-0.2,0.8-0.3,1.3-0.5,2.1c-0.1,0.5-0.6,1.7-2.2,1.3c-0.6-0.2-1.1-0.3-1.7-0.5l-1.1-0.3
			c-1.1-0.3-1.8-0.5-2.9-0.8c-0.6-0.2-1.1-0.2-1.7-0.4l-4.9-1.2c-0.5-0.1-0.8-0.1-1.3-0.2c-0.5-0.1-1.8-0.8-1.4-2.4
			c0.3-1.2,0.6-2,0.9-3.2c0.3-1.1,0.4-1.8,0.7-2.9c0.2-0.8,0.5-1.3,0.7-2.1c0.2-0.8,0.2-1.3,0.4-2.1c0.4-1.5,0.7-2.5,1.1-4
			c0.3-1.4,0.6-2.7,0.9-4.1c0.4-1.9,0.9-3.2,1.3-5c0.3-1.3,0.5-2.3,0.8-3.5c0.6-2.6,1.2-3.3,3.2-2.8c1.2,0.3,2,0.7,3.2,1
			c0.5,0.1,1.2,0.2,1.7,0.4c1.5,0.4,2.5,0.8,3.9,1.1c0.6,0.2,1.1,0.2,1.8,0.3l0.9,0.2c0.5,0.1,0.9,0.2,1.4,0.3
			c1.4,0.3,1.2,1.5,1.1,1.9c-0.2,0.8-0.5,1.5-0.7,2.3c-0.3,1.2-0.3,3.5-2.6,3l-0.5-0.1c-0.5-0.1-1-0.2-1.5-0.3
			c-0.7-0.2-1.2-0.4-2-0.6c-2.5-0.6-2.8,0.1-3.2,1.7c-0.4,1.5,0,2.5,1,2.8c0.5,0.1,0.9,0.1,1.4,0.2l0.1,0c0.7,0.2,1.1,0.4,1.8,0.5
			c0.5,0.1,1,0.2,1.5,0.3c1.9,0.5,1.5,1.7,1.3,2.3c-0.2,0.7-0.3,1.2-0.5,1.9c-0.2,0.7-0.2,1.2-0.4,1.8c-0.4,1.8-1.8,1.5-2.4,1.4
			c-1.4-0.3-2.3-0.8-3.7-1.1c-2.5-0.6-2.7,0.9-2.9,1.9l-0.1,0.5c-0.1,0.2-0.3,1.1-0.2,1.4c0.3,1.4,1,1.3,2.7,1.8
			c0.8,0.3,1.3,0.5,2.1,0.7c0.7,0.2,1.3,0.2,1.9,0.3c0.5,0.1,1.6,0.6,1.3,2.1C102.2-217.7,102-217.3,101.8-216.5z"/>
		<path class="st2" d="M120.1-208.6L120.1-208.6c-0.2,0.6-0.4,2.1-2.1,1.5c-0.8-0.3-1.4-0.6-2.2-0.8c-0.8-0.2-1.3-0.4-2.1-0.6
			c-0.8-0.2-1.2-0.5-1.9-0.7l-3.3-1.1c-1-0.3-1.7-0.5-2.7-0.8c-1.6-0.5-1.3-1.7-1.1-2.3l0.1-0.4c0.5-1.6,1.1-2.8,1.6-4.4
			c0.6-1.8,0.9-3.1,1.4-4.9c0.5-1.4,1-2.3,1.4-3.7c0.4-1.1,0.5-1.9,0.9-3c0.2-0.7,0.6-1.4,0.8-2.1c0.4-1.1,0.5-1.9,0.9-3.1
			c0.4-1.1,0.7-1.8,1.1-2.9c0.4-1.2,0.7-2.3,1-3.4l0.1-0.2c0.1-0.4,0.6-1.8,2.3-1.3c0.8,0.3,1.3,0.6,2.2,0.9
			c0.8,0.3,1.6,0.4,2.4,0.7c0.8,0.3,1.9,0.6,1.5,1.9c-0.2,0.6-0.4,1-0.6,1.5c-0.5,1.2-0.8,2.1-1.2,3.3c-0.4,1.2-0.5,2.1-1,3.3
			c-0.3,0.9-0.7,1.8-1,2.7c-0.2,0.7-0.4,1.5-0.6,2.2c-0.4,1.3-0.8,2.2-1.2,3.5c-0.3,0.8-0.4,1.4-0.6,2.3c-0.1,0.4-0.3,0.7-0.4,1.1
			c-0.8,2.4,0.9,3.1,1.7,3.4c0.8,0.2,1.2,0.5,2,0.7c0.4,0.1,0.6,0.2,1,0.3c0.4,0.1,0.9,0.4,1.2,0.9c0.4,0.7-0.6,3.2-0.7,3.8
			C120.6-209.7,120.3-209.3,120.1-208.6z"/>
		<path class="st2" d="M135.8-201c-1.3,0-2.7-0.3-5.1-1.3c-0.8-0.3-1.3-0.7-2.2-1c-1.3-0.5-2.2-0.7-3.5-1.2
			c-1.3-0.6-2.7-1.2-1.8-3.1c0.7-1.6,1.4-2.6,2-4.1c1.1-2.5,1.6-4.4,2.7-6.9c0.4-1,0.7-1.6,1.2-2.6c0.8-1.7,1.1-3,1.9-4.8
			c0.7-1.6,1.2-2.6,1.9-4.1c0.5-1.3,0.8-2.2,1.3-3.5c0.8-1.9,1.7-2.3,3-1.7c1.2,0.5,1.9,0.9,3,1.3c1.2,0.5,1.9,0.8,3.1,1.2
			c0.3,0.1,0.7,0.3,1,0.4c4.1,1.7,5.5,3.9,6.4,6.7c0.2,0.5,0.5,1.8,0.6,3.2c0.2,4.4-2.3,10.3-2.5,10.6
			C147.2-208,142.6-201.1,135.8-201z M141.7-218.3c0.4-1.1,2-5.8-0.6-6.6c-0.2-0.1-0.4-0.1-0.6,0c-1,0-1.4,1.1-1.6,1.7
			c-0.7,1.6-1.1,2.9-1.8,4.5c-0.5,1.1-0.9,1.8-1.4,2.9c-0.4,0.9-0.5,1.6-0.9,2.4c-0.3,0.6-0.5,1-0.7,1.6c-0.4,0.9-1.1,2.5,0.5,3.2
			c1.7,0.7,2.9-1.2,2.9-1.3c0.5-0.7,2.8-4.7,3.1-5.4C141.1-216.5,141.3-217.3,141.7-218.3z"/>
		<path class="st2" d="M158.8-190.4c-1.2,0.2-2.6,0.2-3.7,0c-1.5-0.3-4-1.5-5.2-2.1c-1-0.5-4.6-2.7-4.9-4.2c-0.1-0.5,0-0.7,0.3-1.2
			c0.5-0.9,0.9-1.5,1.4-2.4c0.4-0.7,0.5-1.2,0.9-1.9c0.2-0.4,1-2.1,2.8-1.1c0.8,0.5,0.8,0.8,1.1,1.2c0.1,0.1,0,0.2,0.1,0.4
			c0.1,0.2,0.2,0.5,0.3,0.7c0.4,0.6,1.2,1.2,1.8,1.5c1.4,0.8,2.5,0.8,3.1-0.1c0.8-1.3-0.1-3.2-0.6-4.7c-0.3-1.1-0.5-1.9-0.9-3
			c-0.1-0.3-0.6-1.5-0.9-2.7c-0.6-3,0.1-4.6,1.2-6.7c3.3-6.2,7.6-7.2,13.5-4.1c2.7,1.5,5.8,2.9,4.8,4.9c-0.5,0.9-0.9,1.5-1.4,2.4
			l-0.1,0.2c-0.3,0.6-0.5,1-0.8,1.6c-0.2,0.4-1,1.7-2.5,0.9c-0.7-0.4-1.4-1.1-1.5-1.3c-0.3-0.3-0.7-0.7-1.6-1.2
			c-0.2-0.1-1.8-1.1-2.6,0.5c-0.2,0.4-0.3,0.8-0.3,1.4s0.9,3.1,1.7,5.5c0.3,0.9,0.6,1.6,0.8,2.6c0.8,3.3,0.4,5-0.8,7.2
			C163.1-192.5,161.7-191,158.8-190.4z"/>
		<path class="st2" d="M201.8-195.3c-0.7,1.1-1.2,1.8-1.9,2.9c-0.2,0.2-1,1.6-2.3,0.7c-0.5-0.3-0.7-0.8-1.2-1.1
			c-0.2-0.2-2.1-0.6-2.5-0.6c-1.9,0.1-3.9,2-5.8,4.8c-1.6,2.4-2.2,4.3-1.7,5.9c0,0.2,0.8,2.3,1.7,3c0.4,0.3,0.8,0.3,1.1,0.6
			c0.1,0.1,0.4,0.4,0.5,1c0,0.3-0.1,0.6-0.4,1.1c-0.5,0.7-0.9,1.2-1.4,1.9c-0.7,1-1.1,1.7-1.7,2.7c-1.1,1.6-2.4,0.7-2.9,0.4
			c-0.3-0.2-2.8-2.1-3.1-2.3c-0.1-0.1-1.9-1.9-2.5-3.6c-0.6-1.5-0.7-3.1-0.7-3.6c0-0.3-0.1-1.4-0.1-1.8c0-0.2,0.4-3.5,1.1-5.2
			c0.4-0.8,1.2-2.1,1.6-2.9c0.8-1.2,1.2-2.1,2-3.3c2-2.9,4.7-5.3,5.6-6c0.4-0.3,2.4-1.8,5.1-2c0.3,0,3.9,0,4.1,0
			c1.7,0.2,4.1,1.4,5.3,2.2l0.3,0.2c0.9,0.6,2.5,1.5,1.4,3.1C202.8-196.6,202.3-196.1,201.8-195.3z"/>
		<path class="st2" d="M203.7-156.4l-0.1-0.1c-0.6-0.5-1-0.9-1.6-1.4c-0.7-0.6-1.2-1-1.9-1.5c-0.4-0.3-0.7-0.5-1.1-0.8
			c-1.2-1-0.5-1.9-0.2-3.1c0.4-1.2,0.4-2,0.7-3.2c0.2-0.8,0.4-1.3,0.6-2.1c0.2-0.8,0.4-1.5,0-1.8c-0.5-0.4-1.1,0.3-1.2,0.5
			c-0.6,0.7-1,1.3-1.5,1.9c-0.4,0.5-0.8,0.9-1.2,1.4c-0.4,0.5-0.6,0.9-1.1,1.5c-0.7,0.8-1.3,0.6-1.7,0.3c-0.8-0.6-1.2-1.2-2-1.8
			c-0.9-0.7-1.7-1.2-2.6-1.9c-0.8-0.7-0.7-1.5-0.2-2.3c0.4-0.5,0.8-0.8,1.3-1.3c0.8-0.9,1.4-1.5,2.1-2.4c1.5-1.8,2.4-3.2,3.9-5
			c1.5-1.8,2.7-3.1,4.3-4.9c1-1.2,1.6-2.1,2.6-3.3c1-1.3,1.9-2.1,2.9-3.4c0.6-0.8,1-1.4,1.6-2.1c0.6-0.7,1.8-1.6,3.4-0.3
			c0.8,0.6,1.2,1.1,2,1.7c1.8,1.5,3.2,2.5,5.1,4c2.1,1.7,4.7,4.4,4,8.6c-0.1,0.3-0.2,0.8-0.3,1c-0.1,0.4-0.2,0.9-0.5,1.7
			c-0.5,1.1-2.4,3.6-3,4.4c-0.4,0.5-3,3.9-7.1,4.6c-0.5,0.1-0.8,0.1-1.2,0.2c-0.4,0.1-0.6,0-0.9,0c-0.1,0-0.3,0.1-0.5,0.3
			c-0.4,0.5-1,4-1.2,4.8c-0.2,0.7-0.4,1.2-0.5,1.9c-0.3,1.2-0.3,2-0.7,3.1c-0.1,0.2-0.2,0.5-0.4,0.8
			C204.6-155.5,203.8-156.3,203.7-156.4z M211.7-182.7l-0.1-0.1c-0.3-0.2-0.6-0.3-0.9-0.3c-0.7,0-1.2,0.4-1.2,0.5
			c-0.2,0.1-2.7,2.9-2.7,3c-0.7,0.9-1,2.2,0.1,3.1c0.5,0.4,1,0.5,1.4,0.5c1.1,0,2.1-1.1,3.3-2.5
			C212.3-179.4,213.2-181.4,211.7-182.7z"/>
		<path class="st2" d="M222-143.9c-0.6,0.6-0.9,1-1.5,1.6c-0.4,0.4-1.4,1.2-2.6,0c-0.5-0.5-0.8-0.8-1.2-1.3l-0.8-0.8
			c-0.8-0.8-1.3-1.4-2.1-2.2c-0.5-0.5-0.8-0.8-1.3-1.2l-3.6-3.5c-0.4-0.3-0.6-0.5-1-0.8c-0.4-0.4-1.1-1.6,0-2.8
			c0.9-0.9,1.6-1.4,2.4-2.3c0.8-0.8,1.3-1.4,2.1-2.2c0.6-0.6,1.1-0.9,1.6-1.5c0.6-0.6,0.9-1,1.4-1.6c1.1-1.1,1.9-1.8,3-2.9
			c1-1,1.9-2,2.9-3c1.3-1.4,2.4-2.3,3.7-3.7c1-1,1.5-1.7,2.5-2.6c1.9-1.9,2.7-2.3,4.2-0.8c0.9,0.9,1.4,1.6,2.2,2.5
			c0.4,0.4,0.9,0.8,1.3,1.2c1.1,1.1,1.7,1.9,2.8,3c0.5,0.5,0.9,0.7,1.3,1.2l0.7,0.7c0.4,0.4,0.7,0.6,1.1,1c1,1,0.3,1.9,0,2.2
			c-0.6,0.6-1.2,1-1.8,1.6c-0.9,0.9-2.1,2.9-3.8,1.2l-0.4-0.4c-0.4-0.4-0.7-0.7-1.1-1.1c-0.5-0.5-0.8-1-1.4-1.5
			c-1.8-1.8-2.5-1.3-3.6-0.2c-1.1,1.1-1.3,2.1-0.5,2.9c0.4,0.4,0.7,0.6,1.1,0.9l0.1,0.1c0.5,0.5,0.8,0.9,1.2,1.3
			c0.4,0.4,0.7,0.7,1.1,1c1.4,1.3,0.4,2.2-0.1,2.7c-0.5,0.5-0.9,0.8-1.4,1.4c-0.5,0.5-0.8,0.9-1.3,1.4c-1.3,1.3-2.3,0.4-2.8,0
			c-1-1-1.6-1.8-2.6-2.9c-1.8-1.8-2.8-0.6-3.5,0.1l-0.4,0.4c-0.2,0.2-0.8,0.8-0.9,1.1c-0.5,1.4,0.2,1.6,1.4,2.9
			c0.5,0.7,0.9,1.1,1.5,1.7c0.5,0.5,1,0.8,1.5,1.3c0.3,0.3,1.1,1.4,0.1,2.5C222.9-144.8,222.5-144.5,222-143.9z"/>
		<path class="st2" d="M234.6-123.5c-0.7-0.9-1.1-1.6-1.9-2.4c-0.6-0.7-1.1-1.1-1.7-1.9c-1.1-1.3,0-1.9,0.3-2.3
			c0.3-0.3,2.2-2.1,2.3-2.7c0-0.3,0-0.1,0-0.5c0-0.1-1.2-1.5-1.9-2.3c-1.2-1.4-1.4-0.9-2.3-0.4c-0.3,0.2-2.4,1.9-2.9,1.9
			c-0.5,0-0.9-0.1-1.3-0.6c-0.6-0.7-0.9-1.2-1.5-1.8c-0.6-0.7-1.3-1.4-1.9-2.1c-0.5-0.6-1.1-1.4-0.1-2.2c0.3-0.2,1.1-0.7,2-1.2
			c1-0.7,1.7-1.1,2.8-1.8c0.9-0.6,1.6-0.9,2.6-1.5c1.4-0.8,2.2-1.5,3.6-2.3c1.3-0.8,2.3-1.3,3.6-2.2c0.9-0.6,1.5-1.1,2.5-1.7
			c1.1-0.6,2-1,3.1-1.7c1.7-1,2.8-1.9,4.6-2.8c1.1-0.6,2.3-1.1,2.9-1c0.6,0.1,1.1,0.4,1.7,1.2c1,1.2,1.6,2.2,2.7,3.4
			c0.8,0.9,1.6,1.8,2.4,2.7l0.1,0.1c0.8,0.9,0.9,1.3,0.6,2.2c0,0.1-0.2,0.4-0.3,0.5c0,0-2.8,3.5-2.8,3.5c-1,1.2-1.7,1.9-2.7,3.1
			c-1.2,1.4-2,2.4-3.1,3.9c-0.9,1.2-1.6,2.1-2.5,3.2c-1.3,1.5-2.3,2.4-3.6,3.8c-1.9,2.2-4,5.2-4.5,5.6
			C237-123.5,235.5-122.4,234.6-123.5z M244.7-144.3c0.5-0.6,1.2-1.3,1.2-1.4c0.2-0.3,0.2-0.6,0.1-0.7c-0.1-0.1-0.4-0.1-0.6,0
			c-0.2,0.1-1.6,0.8-1.8,1c-0.5,0.3-0.9,0.4-1.4,0.7c-0.3,0.2-3.5,2.2-3.8,2.4c-1.1,0.9-0.8,1.6-0.3,2.1c0.4,0.5,1.2,1.4,2.4,0.3
			C242.5-141.5,244.3-143.8,244.7-144.3z"/>
		<path class="st2" d="M264.6-124.5c-0.3-0.4-0.4-0.7-0.7-1c-0.8-1.1-1.5-1.1-3.1,0c-1.3,0.9-2.1,1.7-3.4,2.6
			c-1.5,1.1-2.7,1.8-4.2,3c-1.4,1-2.3,1.8-3.7,2.9c-0.8,0.6-1.6,1.1-2.4,1.7c-0.7,0.5-1.2,0.9-1.8,1.4c-0.4,0.3-0.6,0.6-1,0.9
			c-1.2,0.9-2.1-0.2-2.3-0.5c-0.3-0.5-0.5-0.8-0.8-1.3c-0.4-0.7-0.7-1.1-1.2-1.7c-0.4-0.5-0.8-0.9-1.2-1.4c-0.6-0.8-0.7-1.5,0.6-2.5
			c1.2-0.9,2.2-1.3,3.5-2.3c1.2-0.9,1.9-1.6,3.1-2.4c1.4-1,2.5-1.5,3.8-2.5c1-0.7,1.6-1.3,2.5-2.1c2.3-1.8,4.7-2.6,4.9-4.2
			c0.1-0.3,0-0.4,0-0.5c0-0.4-0.4-0.8-0.5-1.1c-0.2-0.3-0.4-0.5-0.6-0.8c-0.8-1-0.3-1.8,0.2-2.1c0.9-0.7,1.7-1.1,2.6-1.8
			c0.6-0.5,1-0.9,1.7-1.4c0.9-0.7,1.6-0.6,2.3,0.4c0.6,0.9,1,1.5,1.6,2.4c0.9,1.3,2,2.5,2.9,3.8l0.3,0.4c0.8,1.1,1.3,1.9,2.1,3
			c0.5,0.7,0.9,1.1,1.4,1.8c1.1,1.5,0,2.3-1,3c-0.8,0.6-1.3,0.9-2,1.4c-0.5,0.4-0.8,0.7-1.3,1C266.5-124.1,265.5-123.4,264.6-124.5z
			"/>
		<path class="st2" d="M251-100.1c-0.4-0.6-0.6-1.1-1-1.7c-0.6-1-1.2-1.6-1.8-2.5c-1.3-2-0.3-2.4,0.6-3l1.6-1
			c0.9-0.6,1.7-0.9,2.6-1.5l1.6-1c2-1.3,3.3-2.3,5.3-3.6l4.9-3.2c1.6-1,2.7-1.6,4.3-2.6l2.7-1.8c0.7-0.4,1.1-0.9,1.7-1.3
			c1.3-0.8,1.9,0,2.5,0.9s1,1.6,1.6,2.5c0.5,0.7,0.9,1.2,1.4,2c0.5,0.8-0.4,1.6-0.8,1.9c-0.6,0.4-1.1,0.6-1.8,1
			c-1,0.6-1.7,1.1-2.6,1.7l-6.1,3.9c-0.9,0.6-1.6,0.9-2.5,1.5l-1.9,1.2c-1.6,1-2.5,1.9-4.1,2.9c-1.2,0.8-2.1,1.2-3.2,1.9
			c-1.1,0.7-1.7,1.4-2.9,2.1C252.6-99.4,251.8-99,251-100.1z"/>
		<path class="st2" d="M270.2-80.9c-0.2,0.1-1.8,0.6-3,0.6c-1.5,0.1-3.2-0.3-4.6-1.1c-0.3-0.2-0.7-0.5-1.3-1
			c-1.3-1.1-1.8-1.9-2.5-3.3c-1.3-2.4-2.8-6.4-1.1-9.9c0.5-1.2,2.4-3.1,3.2-3.7c0.7-0.6,3.3-2.2,4-2.6c1.1-0.6,1.9-1,3-1.6
			c0.9-0.5,1.5-0.9,2.3-1.3c5.8-3.2,9.2-4.6,13.2-2.8c2.1,1,3.2,1.9,4.8,4.9l0.1,0.2c0.8,1.4,1.4,3,1.5,4.6c0.1,0.9-0.3,3.6-0.6,4.4
			c-0.9,2.5-3.8,4.9-8.2,7.3C275.5-82.9,273.7-81.7,270.2-80.9z M276-93c0.7-0.4,1.3-0.6,2-1c0.6-0.3,2.9-1.7,3.3-2.4
			c0.3-0.6,0.7-1.2,0.2-2.1c0-0.1-0.1-0.2-0.2-0.2c-0.2-0.3-0.4-0.5-0.7-0.6c-1-0.5-2.1-0.2-3.5,0.6c-1.1,0.6-1.9,1.1-3,1.7
			c-2.2,1.2-3.8,1.9-6,3.1c-1,0.6-3.9,1.9-2.8,4c1,1.9,2.9,1,4,0.4c0.7-0.4,1.2-0.7,1.9-1.1c1-0.5,1.8-0.8,2.8-1.3
			C274.8-92.3,275.3-92.7,276-93z"/>
		<path class="st2" d="M274-54.8c-0.3-0.8-0.5-1.3-0.8-2.1c-0.5-1.2-1-2-1.4-3.2c-0.4-0.9,0.7-1.5,1.7-2.5c0.8-0.8,1.2-1.5,2.1-2.3
			c0.8-0.8,1.4-1.3,2.2-2.1c0.6-0.6,1-1.2,1.6-1.8c0.6-0.6,1-0.9,1.6-1.5c0.7-0.6,1.8-1.6,1.7-1.7c0-0.1-0.3-0.1-0.5,0
			c-0.6,0.2-0.9,0.5-1.4,0.8c-1,0.6-1.8,1-2.9,1.4c-1.4,0.6-2.4,0.8-3.9,1.5c-1.3,0.6-2.2,1.2-3.5,1.7c-1.1,0.5-1.5-0.1-1.9-1
			c-0.5-1.1-0.7-1.9-1.2-3c-0.3-0.8-0.7-1.3-1-2.1c-0.6-1.3,0.9-1.8,1-1.8c1.8-0.8,3.2-1,5-1.8c0.6-0.2,0.9-0.4,1.4-0.7
			c1.2-0.5,2-0.9,3.2-1.4c1-0.4,1.8-0.8,2.8-1.2c0.8-0.3,1.4-0.5,2.3-0.8c0.8-0.4,1.3-0.7,2.1-1.1l2.2-1c1.6-0.7,2.7-1.1,4.4-1.8
			c1.7-0.7,2.7-1.3,4.4-2c0.2-0.1,1.1-0.5,1.7,0.5l0.1,0.2c0.1,0.3,0.2,0.6,0.3,1c0.2,0.6,0.4,1,0.6,1.6c0.4,0.9,0.8,1.5,1.2,2.4
			c0.2,0.5,0.1,0.8,0,1.1c-0.2,0.8-2.9,3.2-3.2,3.6c-0.5,0.5-0.8,0.9-1.3,1.4c-0.3,0.4-0.6,0.7-0.9,1.1c-0.4,0.4-0.7,0.6-1,1
			c-0.3,0.3-0.4,0.5-0.7,0.8c-0.5,0.5-0.8,0.8-1.3,1.3c-0.7,0.6-1.9,1.6-1.8,1.8c0.1,0.2,1.1-0.2,1.7-0.5c0.6-0.3,1.1-0.6,1.8-0.9
			c0.6-0.3,1.2-0.4,1.8-0.7c1.9-0.8,3.1-1.6,5-2.4c0.3-0.1,1.7-0.7,2.2-0.7c0.3,0.1,0.4,0.2,0.6,0.3c0.2,0.1,0.6,0.5,0.8,1
			c0.3,0.6,0.4,1.1,0.6,1.7l0.7,1.6c0.2,0.5,0.4,0.8,0.6,1.4c0.3,0.8,0.1,1.3-0.7,1.7c-1.3,0.6-2.3,0.8-3.6,1.3
			c-1.9,0.8-3.2,1.4-5.1,2.3c-2,0.9-3.5,1.3-5.5,2.2c-2,0.9-3.3,1.6-5.4,2.5c-1.8,0.8-3.2,1.2-5,1.9c-0.9,0.4-1.6,0.6-2.5,1.2
			c-0.4,0.2-0.6,0.4-1,0.6C274.7-53.3,274.2-54.2,274-54.8z"/>
		<path class="st2" d="M281.5-31.6c-0.2-0.7-0.3-1.2-0.5-1.9c-0.3-1.1-0.7-1.9-1-2.9c-0.7-2.3,0.4-2.4,1.5-2.7l1.8-0.5
			c1-0.3,1.8-0.4,2.9-0.7l1.8-0.5c2.3-0.7,3.8-1.3,6.1-1.9l5.6-1.6c1.8-0.5,3.1-0.7,4.8-1.3l3.1-0.9c0.8-0.2,1.3-0.5,2-0.7
			c1.5-0.4,1.8,0.5,2.1,1.6c0.3,1,0.5,1.8,0.8,2.8c0.3,0.9,0.5,1.5,0.8,2.4c0.3,0.9-0.8,1.4-1.3,1.6c-0.7,0.2-1.2,0.3-2,0.4
			c-1.1,0.3-1.9,0.6-3,0.9l-7,2c-1,0.3-1.8,0.4-2.8,0.7l-2.2,0.6c-1.8,0.5-3,1.1-4.8,1.6c-1.4,0.4-2.3,0.5-3.6,0.9
			c-1.3,0.4-2.1,0.8-3.3,1.2C282.7-30.4,281.9-30.3,281.5-31.6z"/>
		<path class="st2" d="M287.9-12.3c-1-0.8-1.9-1.9-2.4-2.8c-0.7-1.3-1.5-4-1.8-5.4c-0.2-1.1-1-5.2,0-6.5c0.3-0.4,0.5-0.4,1.1-0.6
			c1-0.2,1.7-0.3,2.7-0.5c0.8-0.2,1.3-0.4,2-0.6c0.5-0.1,2.2-0.6,2.6,1.4c0.1,0.9,0,1.1-0.2,1.7c-0.1,0.2-0.2,0.2-0.2,0.3
			c-0.1,0.3-0.3,0.4-0.3,0.7c-0.2,0.7-0.1,1.7,0,2.3c0.4,1.6,1,2.5,2.1,2.3c1.5-0.2,2.4-2.2,3.1-3.5c0.6-1,1.1-1.6,1.7-2.6
			c0.2-0.3,0.7-1.4,1.5-2.4c1.9-2.4,3.6-2.9,5.9-3.4c6.9-1.5,10.4,1,11.9,7.6c0.7,3,1.6,6.3-0.6,6.8c-1,0.2-1.7,0.3-2.7,0.5l-0.2,0
			c-0.6,0.1-1,0.3-1.7,0.4c-0.5,0.1-1.9,0.4-2.3-1.3c-0.2-0.7,0-1.8,0-2c0-0.5,0.1-1-0.1-1.9c-0.1-0.3-0.4-2-2.1-1.6
			c-0.5,0.1-0.8,0.3-1.3,0.7c-0.4,0.4-1.7,2.7-3,4.9c-0.5,0.8-0.8,1.5-1.4,2.3c-2,2.8-3.5,3.6-6,4.1
			C292.3-10.4,290.3-10.5,287.9-12.3z"/>
		<path class="st2" d="M315.2,17.4c0-0.5,0-0.8-0.1-1.3c-0.1-1.4-0.8-1.7-2.7-1.5c-1.6,0.2-2.6,0.4-4.2,0.6
			c-1.9,0.2-3.2,0.2-5.1,0.4c-1.7,0.2-2.9,0.4-4.7,0.6c-1,0.1-2,0.2-2.9,0.3c-0.8,0.1-1.4,0.1-2.3,0.3c-0.5,0.1-0.8,0.2-1.3,0.3
			c-1.5,0.2-1.7-1.2-1.8-1.6c-0.1-0.6,0-0.9-0.1-1.5c0-0.8-0.1-1.3-0.2-2.1c-0.1-0.7-0.2-1.2-0.3-1.8c-0.1-1,0.2-1.7,1.7-1.8
			c1.5-0.2,2.6,0,4.1-0.2c1.4-0.1,2.5-0.4,3.9-0.5c1.7-0.2,2.9-0.1,4.6-0.2c1.2-0.1,2-0.3,3.2-0.5c2.9-0.4,5.3,0.2,6.3-1.1
			c0.2-0.2,0.2-0.4,0.2-0.4c0.2-0.3,0.1-0.9,0.1-1.2c0-0.4-0.1-0.6-0.1-1c-0.1-1.3,0.7-1.7,1.2-1.7c1.2-0.1,2-0.1,3.2-0.2
			c0.8-0.1,1.3-0.2,2.1-0.3c1.2-0.1,1.6,0.3,1.8,1.5c0.1,1.1,0.1,1.8,0.2,2.9c0.2,1.6,0.5,3.2,0.6,4.7l0.1,0.5
			c0.1,1.3,0.1,2.3,0.3,3.6c0.1,0.8,0.2,1.4,0.3,2.2c0.2,1.8-1.2,2-2.4,2.1c-0.9,0.1-1.5,0.1-2.4,0.2c-0.7,0.1-1.1,0.2-1.7,0.2
			C316.6,18.7,315.3,18.8,315.2,17.4z"/>
		<path class="st2" d="M291.2,43.7c0-0.8,0.1-1.4,0.1-2.2c0-1.1-0.2-2-0.2-3.1c0-1.5,1.3-1.6,1.7-1.6c0.8,0,1.3,0.1,2,0.1
			c0.5,0,0.7-0.1,1.2-0.1c1.8,0,3.1,0.1,4.8,0.1c2.8,0,2.8-1.2,2.8-2.7c0-0.8-0.2-1.2-0.7-1.5c-0.4-0.4-2.8-0.5-3.2-0.5
			c-0.9,0-1.9,0.1-2.9,0.1c-1,0-1.7,0-2.7,0c-0.6,0-1.1,0.1-1.7,0.1c-1.2,0-1.5-0.8-1.5-1.3c0-1,0.1-1.7,0.1-2.7
			c0-0.6-0.1-1-0.1-1.6c0-0.4-0.1-0.7-0.1-1c0-1.7,1.3-1.9,1.9-1.9c1.3,0,2.2,0.2,3.5,0.2l0.1,0c1.4,0,2.4,0,3.8,0
			c2.1,0,3.5-0.2,5.6-0.2c1.7,0,2.9,0.1,4.6,0.1c0.9,0,1.6-0.1,2.5-0.2c1.3-0.1,2.2-0.1,3.5-0.1c1.1,0,1.9,0.1,3.1,0
			c1.1,0,1.8-0.2,2.9-0.2c0.6,0,1.6,0.2,1.7,1.6c0,0.9-0.1,1.6,0,2.6c0,0.9,0.2,1.6,0.2,2.5c0,1.6-0.8,1.8-1.6,1.9
			c-1,0-1.6-0.2-2.6-0.2c-1.1,0-1.8,0.1-2.9,0.1c-1.2,0-2,0-3.1,0l-0.1,0c-1.7,0-1.8,0.9-1.8,2.3c0,1.1,0.2,1.5,0.8,1.9
			c0.3,0.1,2.6,0.2,2.9,0.2c1,0,1.8-0.2,2.9-0.2c0.6,0,1.2,0,1.7,0c0.8,0,1.5-0.2,2.3-0.2c1.5,0,1.7,1.1,1.7,1.7
			c0,1-0.1,1.7-0.1,2.8c0,0.8,0.2,1.4,0.2,2.2c0,2-1.6,1.9-2.1,1.9c-1.8,0-3.1-0.2-4.9-0.1c-0.5,0-0.8,0.1-1.4,0.1
			c-0.9,0-1.5-0.1-2.4-0.1c-1.5,0-2.5,0.1-4,0.1c-1.8,0-3.1,0-4.9,0c-2.2,0-3.7,0.3-5.9,0.3c-1.1,0-1.8,0-2.9,0
			c-0.9,0-1.6,0.2-2.6,0.2C291.7,45.2,291.2,44.5,291.2,43.7z"/>
		<path class="st2" d="M296.8,69.7c-0.2,0-1.8-0.5-2.9-1.1c-1.3-0.8-2.5-2-3.2-3.4c-0.1-0.3-0.3-0.8-0.5-1.5
			c-0.4-1.6-0.5-2.6-0.3-4.1c0.2-2.8,1.1-6.9,4.5-8.9c1.1-0.7,3.7-1.3,4.7-1.4c0.9-0.1,4-0.1,4.8,0c1.3,0.1,2.1,0.3,3.4,0.3
			c1,0.1,1.7,0.1,2.6,0.2c6.6,0.5,10.2,1.2,12.6,4.9c1.3,2,1.6,3.3,1.4,6.8l0,0.3c-0.1,1.6-0.4,3.3-1.3,4.7
			c-0.4,0.8-2.2,2.9-2.9,3.4c-2.1,1.6-5.9,2-10.9,1.7C302.3,71,300.1,71,296.8,69.7z M308.3,62.8c0.8,0,1.4,0.2,2.2,0.2
			c0.7,0.1,3.4,0.1,4.1-0.2c0.6-0.3,1.2-0.7,1.3-1.7c0-0.1,0-0.2,0-0.3c0-0.3-0.1-0.6-0.2-0.9c-0.6-0.9-1.6-1.3-3.2-1.4
			c-1.3-0.1-2.2-0.1-3.5-0.2c-2.5-0.2-4.2-0.5-6.7-0.7c-1.2-0.1-4.3-0.5-4.5,1.9c-0.2,2.1,1.8,2.4,3.1,2.5c0.8,0.1,1.4,0.1,2.2,0.2
			c1.1,0.1,1.9,0.3,3.1,0.4C306.9,62.7,307.5,62.7,308.3,62.8z"/>
		<path class="st2" d="M314.2,100.4c-1.3-0.3-2.2-0.5-3.5-0.7c-1.3-0.2-2.2-0.3-3.6-0.5c-1.7-0.3-2.8-0.6-4.6-0.9
			c-2.2-0.4-3.7-0.6-5.8-0.9c-1-0.2-1.7-0.4-2.8-0.6c-0.7-0.2-5.1-0.5-6.9-5.2c-0.2-0.6-0.6-1.8-0.7-3.3c-0.1-1.5,0.4-4.2,0.5-4.2
			c0.5-3,1.6-4.4,2.7-5.7c0.7-0.8,1.1-1.1,1.6-1.5c0.5-0.3,1.4-0.7,1.9-0.8c1.2-0.3,3.4-0.1,4.6,0.1c1.9,0.3,3.3,0.7,5.2,1.1
			c2.6,0.5,4.6,0.6,7.2,1.1c1.5,0.3,2.6,0.6,4.1,0.8c1.7,0.3,2.9,0.5,4.5,0.8c1.9,0.3,2.9,0.6,2.7,2.1c-0.2,1.1-0.5,1.8-0.7,2.9
			c-0.1,0.6-0.1,1-0.2,1.6c-0.2,1-0.4,2.3-2,2c-1.4-0.3-2.5-0.6-3.9-0.8c-0.9-0.2-1.4-0.2-2.3-0.4c-0.8-0.1-1.3-0.3-2.1-0.4
			l-1.5-0.3c-1.4-0.3-2.8-0.6-4.2-0.9c-1.1-0.2-1.9-0.3-3-0.5c-1.1-0.2-2.2-0.4-3.3-0.6l-0.2,0c-1.1-0.2-3-0.5-3.4,1.4
			c-0.1,0.5,0,1,0.1,1.2c0.5,1.3,1.5,1.5,3.5,1.9c2.3,0.4,3.9,0.8,6.2,1.1c1.9,0.3,3.4,0.4,5.3,0.8c1.8,0.3,2.9,0.7,4.6,1
			c0.6,0.1,1.2,0.2,1.8,0.3c1.1,0.2,3.2,0.2,2.9,2.3c-0.2,1.1-0.5,1.8-0.6,2.8c-0.2,0.9-0.2,1.5-0.3,2.5c-0.3,1.5-1.7,1.2-2,1.2
			C315.4,100.8,314.9,100.6,314.2,100.4z"/>
		<path class="st2" d="M294.3,124.7c-1-0.3-1.6-0.4-2.6-0.7c-0.9-0.3-1.5-0.5-2.4-0.8c-1.2-0.3-2.1-0.5-3.4-0.8
			c-1.3-0.4-2.2-0.7-3.5-1l-1.3-0.4c0,0-0.9-0.3-1.3-0.7c-1.1-1.3-0.5-4.2,0.3-7.3c0.8-2.9,1-4,3-6.6c0.5-0.6,1.2-1.6,2-2.1
			c1.1-0.8,1.9-1,3.1-1.4c2.8-1,4.1-1.4,8.5-0.6c0.7,0.1,2.1,0.3,3.8,0.8c2.3,0.6,6.4,2.7,6.4,2.7c1,0.6,1.7,1.1,2.6,1.9
			c0.8,0.7,1.4,1.3,1.7,1.7c0.6,0.7,2,3.1,2.3,5.4c0.3,1.4,0.2,2.9,0,4.2c-0.2,1.9-0.6,3.5-0.8,4.1l-0.1,0.5c0,0.2-1.2,3.8-1.3,4
			c-0.4,0.3-0.8,0.7-1.6,0.5c-0.5-0.1-0.8-0.3-1.2-0.4L307,127c-1.4-0.4-3-0.8-3.3-1.1c-0.3-0.4-0.4-0.8-0.5-0.9
			c-0.1-0.1-0.1-0.6,0-0.9c0.2-0.6,0.7-0.9,1.1-1.5c0.2-0.3,0.8-2.3,0.9-2.7c0.7-2.5,0.3-4-0.9-5.3c-0.3-0.3-0.8-0.8-1.1-0.9
			c-0.2-0.1-0.8-0.3-1.4-0.6c-1.2-0.6-1.5-1-3.7-1.6c-0.6-0.2-1.1-0.3-1.8-0.5l-0.5-0.1c-0.6-0.2-0.8-0.1-1.2-0.2
			c-0.2,0-3.6,0.4-3.8,0.5c-0.2,0.1-0.6,0.1-1.1,0.5c-0.4,0.3-1,0.9-1.2,1.8c-0.3,1.1-0.1,1.8,0.6,2c0.5,0.1,0.8,0.1,1.3,0.3
			c0.6,0.2,1.1,0.4,1.7,0.6c1.2,0.3,1.9-0.7,2-1.1c0.1-0.3,0-0.5,0.1-0.9c0.1-0.4,0.8-1,1.6-0.7c1.1,0.3,1.9,0.6,3,0.9
			c0.6,0.2,1.5,0.4,1.5,0.5c0,0,0.5,0.1,0.7,0.4c0.5,0.5,0.7,1.1,0.4,2.1c-0.3,0.9-0.5,1.5-0.7,2.3c-0.3,1.1-0.5,1.8-0.8,2.9
			c-0.1,0.4-0.1,0.7-0.2,1.1c-0.6,2.3-2.4,1.6-3,1.5C295.8,125.1,295.2,124.9,294.3,124.7z"/>
		<path class="st2" d="M270.5,141.7c0.3-0.7,0.6-1.2,0.9-2c0.4-1.1,0.6-1.9,1-3c0.5-1.4,1.8-1,2.2-0.8c0.7,0.3,1.1,0.6,1.8,0.8
			c0.4,0.2,0.7,0.2,1.2,0.4c1.7,0.6,2.8,1.2,4.5,1.9c2.6,1,3,0,3.6-1.4c0.3-0.8,0.2-1.2-0.1-1.6c-0.3-0.5-2.4-1.5-2.8-1.6
			c-0.9-0.3-1.8-0.6-2.7-0.9c-0.9-0.4-1.6-0.7-2.5-1c-0.6-0.2-1-0.3-1.6-0.6c-1.1-0.4-1.1-1.3-0.9-1.8c0.4-0.9,0.7-1.5,1.1-2.4
			c0.2-0.6,0.3-1,0.5-1.6c0.1-0.4,0.1-0.6,0.3-1c0.6-1.6,1.9-1.2,2.5-1c1.2,0.5,1.9,1,3.2,1.5l0.1,0.1c1.3,0.5,2.3,0.9,3.6,1.4
			c1.9,0.7,3.3,1.1,5.3,1.9c1.6,0.6,2.6,1.2,4.3,1.8c0.9,0.3,1.5,0.5,2.4,0.8c1.2,0.4,2,0.7,3.3,1.2c1.1,0.4,1.8,0.8,2.8,1.2
			c1,0.4,1.8,0.5,2.8,0.9c0.5,0.2,1.5,0.8,1,2.1c-0.3,0.9-0.7,1.5-1,2.4c-0.3,0.9-0.4,1.5-0.8,2.4c-0.6,1.5-1.4,1.4-2.2,1.1
			c-0.9-0.4-1.4-0.8-2.4-1.2c-1-0.4-1.7-0.6-2.7-1c-1.1-0.4-1.8-0.8-2.9-1.2l-0.1-0.1c-1.6-0.6-2,0.2-2.5,1.4
			c-0.4,1.1-0.4,1.4,0.1,2c0.2,0.2,2.4,1.2,2.6,1.3c1,0.4,1.7,0.5,2.7,0.9c0.5,0.2,1.1,0.5,1.6,0.7c0.8,0.3,1.4,0.4,2.2,0.7
			c1.4,0.6,1.2,1.7,1,2.2c-0.4,1-0.8,1.6-1.1,2.6c-0.3,0.8-0.4,1.4-0.7,2.2c-0.7,1.9-2.2,1.2-2.6,1c-1.7-0.6-2.8-1.3-4.5-2
			c-0.5-0.2-0.8-0.3-1.3-0.4c-0.8-0.3-1.4-0.6-2.2-0.9c-1.4-0.5-2.4-0.9-3.8-1.4c-1.7-0.7-2.9-1.2-4.6-1.9c-2.1-0.8-3.5-1.1-5.6-1.9
			c-1-0.4-1.7-0.7-2.7-1.1c-0.9-0.3-1.6-0.4-2.5-0.8C270.3,143.3,270.2,142.5,270.5,141.7z"/>
		<path class="st2" d="M284.1,170.8c0.2-0.4,0.4-0.7,0.6-1.1c0.6-1.2,0.2-1.9-1.5-2.7c-1.4-0.7-2.5-1-3.9-1.7
			c-1.7-0.8-2.9-1.5-4.6-2.3c-1.6-0.8-2.7-1.2-4.3-2c-0.9-0.4-1.8-0.9-2.6-1.3c-0.8-0.4-1.3-0.6-2.1-0.9c-0.5-0.2-0.8-0.2-1.3-0.5
			c-1.4-0.7-0.8-1.9-0.7-2.3c0.2-0.5,0.5-0.8,0.7-1.3c0.4-0.7,0.6-1.2,1-1.9c0.3-0.6,0.4-1.1,0.7-1.7c0.4-0.9,1-1.3,2.4-0.6
			c1.4,0.7,2.2,1.3,3.6,2c1.3,0.6,2.3,1,3.6,1.6c1.5,0.7,2.5,1.5,4,2.2c1.1,0.5,1.9,0.8,3,1.3c2.7,1.2,4.5,3,5.9,2.4
			c0.3-0.1,0.4-0.2,0.4-0.3c0.3-0.2,0.6-0.7,0.7-1c0.2-0.3,0.2-0.6,0.4-0.9c0.6-1.1,1.5-1.1,2-0.8c1.1,0.5,1.8,1,2.8,1.5
			c0.7,0.3,1.3,0.5,2,0.9c1.1,0.5,1.2,1.1,0.7,2.2c-0.5,1-0.9,1.6-1.4,2.6c-0.7,1.4-1.3,2.9-2,4.4l-0.2,0.5c-0.6,1.2-1.1,2-1.7,3.2
			c-0.4,0.8-0.5,1.3-0.9,2.1c-0.8,1.6-2,1.1-3.1,0.5c-0.8-0.4-1.4-0.7-2.2-1.1c-0.6-0.3-1-0.4-1.5-0.7
			C284.6,172.7,283.5,172.1,284.1,170.8z"/>
		<path class="st2" d="M274.5,188.7c0.2-0.4,0.5-0.7,0.7-1.1l0.7-1.1c0.3-0.6,0.6-1,0.9-1.5l0-0.1c0.6-1,0.2-1.5-0.4-1.8l-0.9-0.5
			c-0.4-0.3-0.7-0.5-1.2-0.7c-1.3-0.8-2,0.6-2.2,0.8c-0.3,0.4-0.4,0.8-0.7,1.3c-0.2,0.3-0.3,0.5-0.5,0.8c-0.1,0.3-0.3,0.7-0.5,1
			c-0.7,1.1-1.6,0.8-2,0.6c-0.4-0.3-0.7-0.5-1.1-0.8l-0.8-0.4c-2.3-1.3-3.7-1.8-2.6-3.8c0.5-0.9,1-1.4,1.5-2.2
			c0.9-1.6-0.3-2.4-0.8-2.7l-2-1.2c-1-0.6-1.6-0.9-2.6-1.5c-0.4-0.3-0.7-0.5-1.1-0.8c-0.7-0.4-1.2-0.5-1.9-0.9l-0.1-0.1
			c-0.4-0.2-1.5-1-0.7-2.4c0.5-0.9,1-1.5,1.5-2.4c0.4-0.8,0.7-1.3,1.1-2.1c0.8-1.3,1.8-0.9,2.3-0.6c1.3,0.7,2.1,1.4,3.4,2.1
			c2.3,1.4,4.1,2.2,6.4,3.6c1.7,1,2.9,1.9,4.6,2.9c1.7,1,2.9,1.5,4.5,2.5c1.4,0.8,2.4,1.5,3.9,2.3c0.8,0.5,1.5,0.7,2.3,1.2
			c1.8,1.1,1.7,2.1,1.1,3.1l-0.8,1.3c-0.8,1.5-1.4,2.6-2.2,4c-0.4,0.8-0.9,1.3-1.3,2.1c-0.7,1.2-1.1,2.1-1.8,3.3
			c-0.2,0.3-0.7,1.2-1.7,0.6c-0.3-0.2-0.5-0.3-0.8-0.5l-0.7-0.4c-0.8-0.5-1.4-0.8-2.2-1.2C274.6,190.8,273.6,190.3,274.5,188.7z"/>
		<path class="st2" d="M262.4,213.9c-1-0.8-1.8-1.4-2.9-2.1c-1.1-0.8-1.9-1.2-3-1.9c-1.5-1-2.3-1.8-3.7-2.8c-1.8-1.3-3.1-2-4.9-3.3
			c-0.8-0.6-1.4-1.1-2.3-1.8c-0.6-0.4-4.4-2.6-4.1-7.6c0.1-0.6,0.2-1.9,0.8-3.2c0.6-1.4,2.2-3.6,2.2-3.6c1.7-2.5,3.3-3.3,4.8-4
			c1-0.4,1.4-0.6,2.1-0.7c0.6-0.1,1.5,0,2,0.1c1.3,0.2,3.2,1.4,4.1,2c1.6,1.1,2.7,2,4.3,3.1c2.2,1.5,3.9,2.5,6.1,4
			c1.3,0.9,2.1,1.6,3.4,2.5c1.4,1,2.4,1.6,3.8,2.6c1.6,1.1,2.4,1.8,1.5,3.1c-0.6,0.9-1.2,1.4-1.9,2.4c-0.3,0.5-0.5,0.9-0.8,1.4
			c-0.6,0.8-1.3,2-2.7,1c-1.2-0.8-2-1.6-3.2-2.4c-0.7-0.5-1.2-0.8-2-1.3c-0.7-0.5-1.1-0.8-1.7-1.3l-1.2-0.9
			c-1.2-0.8-2.3-1.8-3.5-2.6c-0.9-0.6-1.6-1-2.5-1.7c-0.9-0.6-1.8-1.3-2.7-2l-0.2-0.1c-0.9-0.6-2.5-1.8-3.6-0.2
			c-0.3,0.4-0.4,0.9-0.4,1.1c-0.1,1.4,0.8,2,2.4,3.2c1.9,1.3,3.2,2.4,5.2,3.7c1.6,1.1,2.9,1.8,4.5,2.9c1.5,1,2.3,1.8,3.8,2.8
			c0.5,0.3,1,0.7,1.5,1c0.9,0.6,2.8,1.6,1.7,3.3c-0.6,0.9-1.2,1.4-1.8,2.3c-0.5,0.7-0.8,1.3-1.3,2.1c-0.9,1.2-2.1,0.4-2.3,0.2
			C263.4,214.7,263,214.4,262.4,213.9z"/>
		<path class="st2" d="M227.3,213.8L227.3,213.8c-0.5-0.4-1.8-1.1-0.6-2.5c0.6-0.7,1-1.1,1.6-1.7c0.5-0.6,0.8-1.1,1.3-1.7
			c0.5-0.6,0.9-1,1.4-1.6l2.2-2.7c0.7-0.8,1-1.4,1.7-2.2c1.1-1.3,2.1-0.6,2.5-0.2l0.3,0.2c1.3,1.1,2.2,2,3.5,3.1
			c1.4,1.2,2.5,1.9,4,3.1c1.2,1,1.8,1.8,3,2.7c0.9,0.7,1.6,1.2,2.4,1.9c0.6,0.5,1.1,1,1.7,1.5c0.9,0.7,1.6,1.2,2.5,2
			c0.9,0.8,1.4,1.4,2.3,2.1c0.9,0.8,1.9,1.5,2.8,2.2l0.1,0.1c0.4,0.3,1.5,1.2,0.4,2.6c-0.5,0.6-1,1-1.6,1.7c-0.5,0.6-1,1.4-1.5,2
			c-0.5,0.7-1.3,1.6-2.3,0.7c-0.5-0.4-0.7-0.7-1.1-1.1c-1-0.9-1.6-1.5-2.6-2.4c-1-0.8-1.8-1.3-2.7-2.1c-0.7-0.6-1.4-1.3-2.1-1.9
			c-0.6-0.5-1.3-0.9-1.9-1.4c-1-0.9-1.7-1.6-2.8-2.4c-0.7-0.5-1.2-0.9-1.9-1.4c-0.3-0.2-0.6-0.5-0.9-0.8c-1.9-1.6-3.2-0.3-3.8,0.4
			c-0.5,0.6-0.9,1-1.3,1.6c-0.2,0.3-0.4,0.5-0.6,0.8c-0.3,0.3-0.7,0.7-1.3,0.8c-0.8,0.1-2.8-1.7-3.2-2.1
			C228.1,214.7,227.8,214.3,227.3,213.8z"/>
		<path class="st2" d="M213.9,227.9L213.9,227.9c-0.4-0.4-1.7-1.3-0.5-2.6c0.6-0.6,1.1-1,1.7-1.6c0.6-0.6,0.9-1,1.5-1.6
			c0.6-0.6,0.9-0.9,1.5-1.5l2.4-2.5c0.7-0.7,1.1-1.3,1.9-2.1c1.2-1.2,2.1-0.4,2.6,0l0.3,0.3c1.3,1.2,2,2.1,3.3,3.4
			c1.4,1.3,2.4,2.1,3.8,3.4c1.1,1,1.7,1.9,2.7,2.9c0.8,0.8,1.5,1.3,2.3,2.1c0.5,0.5,1,1.1,1.6,1.6c0.8,0.8,1.5,1.3,2.4,2.1
			c0.8,0.8,1.3,1.5,2.1,2.2c0.9,0.8,1.8,1.6,2.6,2.4l0.1,0.1c0.3,0.3,1.4,1.3,0.2,2.6c-0.6,0.6-1.1,1-1.7,1.6
			c-0.6,0.6-1.1,1.3-1.7,1.9c-0.6,0.6-1.4,1.5-2.4,0.5c-0.4-0.4-0.7-0.8-1.1-1.2c-0.9-1-1.5-1.7-2.4-2.5c-0.9-0.9-1.7-1.4-2.5-2.3
			c-0.7-0.7-1.3-1.4-2-2.1c-0.5-0.5-1.2-1-1.8-1.5c-1-0.9-1.6-1.7-2.6-2.6c-0.6-0.6-1.1-0.9-1.8-1.6c-0.3-0.3-0.5-0.6-0.8-0.9
			c-1.8-1.7-3.2-0.6-3.8,0.1c-0.6,0.6-0.9,0.9-1.5,1.5c-0.3,0.3-0.4,0.5-0.7,0.8c-0.3,0.3-0.7,0.7-1.3,0.7c-0.8,0-2.6-1.9-3.1-2.3
			C214.7,228.7,214.5,228.3,213.9,227.9z"/>
		<path class="st2" d="M219,261.4c-0.2-0.2-2-4.3-3.1-6.9c-0.2-0.5-0.3-0.9-0.5-1.4c-0.8-1.8-1.4-3.1-2.1-5c-1-2.7-0.9-3.9-2.7-5.9
			c-0.6-0.7-1.1-1.1-1.7-1.8c-0.6-0.8-1-1.3-1.7-2.1c-0.8-0.9-1.4-1.4-2.2-2.3c-0.4-0.4-0.9-1-0.8-1.8c0-0.2,0.5-0.7,0.6-0.8
			c0.4-0.3,0.7-0.6,1.1-0.9c0.5-0.5,0.9-0.9,1.4-1.4l1.2-1.1c1.5-1.4,2.5,0.2,3.2,1l0.1,0.1c0.2,0.2,0.4,0.5,0.6,0.7
			c0.3,0.4,0.7,0.6,1,0.9c0.6,0.6,0.8,1.2,1.4,1.8c0.6,0.7,1.2,1,1.8,1.7c0.6,0.7,1,1.2,1.8,1.7c0.2,0.1,4.3,2.5,6.9,3.7
			c1.4,0.7,2.4,1,3.7,1.6c1.8,0.9,3,1.8,4.8,2.7c0.8,0.4,1.5,0.7,2.3,1.1c0.3,0.2,0.5,0.4,0.6,0.5c0.9,1-0.3,1.8-0.4,1.9
			c-0.5,0.5-1.1,0.9-1.6,1.4c-1,0.8-1.6,1.5-2.5,2.4c-0.5,0.5-0.8,0.6-1.3,0.5c-1,0-4-2.4-4.6-2.8c-1.1-0.7-1.9-1.2-3-1.9
			c-0.5-0.4-1.3-1-1.5-0.8c-0.3,0.3,0.2,0.9,0.5,1.4c0.4,0.8,0.8,1.4,1.2,2.2c0.2,0.4,0.3,0.7,0.5,1.1c0.3,0.6,0.6,1.1,0.9,1.7
			c0.2,0.4,1.3,2,1.5,2.5c0.1,0.6,0.3,0.8,0,1.4c-0.1,0.3-0.7,0.8-0.8,0.9c-0.6,0.5-1.1,0.9-1.6,1.4c-0.6,0.6-1,1-1.6,1.6
			c-0.7,0.6-1.5,1.2-2.4,0.3C219.5,262.3,219.1,261.5,219,261.4z"/>
		<path class="st2" d="M192.2,280.4c-0.8-1.1-1.3-1.8-2.1-2.8c-0.2-0.2-1.1-1.5,0.2-2.4c0.5-0.4,1-0.4,1.5-0.8
			c0.2-0.2,1.3-1.8,1.4-2.2c0.5-1.8-0.6-4.3-2.6-7c-1.7-2.3-3.4-3.5-5-3.6c-0.2,0-2.4-0.1-3.4,0.6c-0.4,0.3-0.5,0.6-0.9,0.9
			c-0.1,0.1-0.5,0.3-1.1,0.1c-0.3-0.1-0.5-0.3-0.8-0.8c-0.5-0.7-0.8-1.3-1.3-2c-0.7-1-1.3-1.6-1.9-2.5c-1.1-1.6,0.1-2.5,0.6-2.8
			c0.3-0.2,2.9-1.9,3.2-2.1c0.1,0,2.4-1.1,4.2-1.2c1.6-0.1,3.2,0.4,3.7,0.5c0.3,0.1,1.4,0.4,1.7,0.5c0.2,0.1,3.1,1.6,4.5,2.8
			c0.7,0.6,1.6,1.8,2.1,2.5c0.9,1.1,1.6,1.8,2.5,3c2.1,2.9,3.4,6.2,3.7,7.3c0.1,0.5,0.9,2.9,0.2,5.4c0,0.3-1.3,3.6-1.4,3.8
			c-0.7,1.5-2.7,3.4-3.9,4.2l-0.3,0.2c-0.9,0.7-2.3,1.8-3.4,0.3C193,281.8,192.7,281.2,192.2,280.4z"/>
		<path class="st2" d="M154.9,269.2l0.2-0.1c0.7-0.4,1.2-0.6,1.9-1c0.8-0.5,1.3-0.8,2.1-1.3c0.4-0.3,0.7-0.5,1.2-0.8
			c1.3-0.8,2,0.2,3,0.8c1,0.7,1.8,1.1,2.7,1.8c0.7,0.5,1.1,0.8,1.8,1.3c0.7,0.5,1.3,0.9,1.7,0.6c0.6-0.4,0-1.1-0.1-1.3
			c-0.5-0.8-0.9-1.3-1.3-2.1c-0.4-0.6-0.6-1-0.9-1.6c-0.3-0.6-0.7-0.9-1-1.5c-0.5-0.9-0.1-1.4,0.3-1.7c0.8-0.5,1.5-0.7,2.4-1.3
			c1-0.6,1.7-1.2,2.7-1.8c0.9-0.5,1.7-0.2,2.2,0.6c0.4,0.6,0.5,1.1,0.8,1.6c0.6,1,1,1.8,1.6,2.8c1.2,2,2.2,3.3,3.4,5.4
			c1.2,2.1,2,3.6,3.2,5.7c0.8,1.3,1.4,2.2,2.2,3.5c0.8,1.4,1.4,2.5,2.2,3.9c0.5,0.8,1,1.4,1.5,2.2c0.5,0.8,0.9,2.2-0.9,3.3
			c-0.8,0.5-1.5,0.8-2.3,1.3c-2,1.2-3.4,2.2-5.4,3.4c-2.3,1.4-5.8,2.9-9.5,0.9c-0.3-0.2-0.6-0.4-0.9-0.6c-0.3-0.2-0.8-0.5-1.4-1.1
			c-0.9-0.8-2.6-3.4-3.1-4.4c-0.4-0.6-2.6-4.1-2-8.2c0-0.5,0.2-0.8,0.2-1.2c0.1-0.4,0.2-0.5,0.3-0.9c0-0.1,0-0.3-0.1-0.5
			c-0.3-0.6-3.5-2.3-4.1-2.7c-0.6-0.4-1-0.7-1.6-1.1c-1-0.7-1.8-1-2.7-1.7c-0.1-0.1-0.4-0.3-0.6-0.7
			C153.8,269.8,154.8,269.2,154.9,269.2z M177,285.6l0.2-0.1c0.3-0.2,0.5-0.5,0.6-0.7c0.2-0.6,0-1.2,0-1.3c-0.1-0.2-1.9-3.5-1.9-3.6
			c-0.6-1-1.7-1.6-3-0.9c-0.6,0.3-0.8,0.8-1,1.1c-0.3,1,0.3,2.3,1.2,3.9C173.7,285,175.3,286.5,177,285.6z"/>
		<path class="st2" d="M133.1,279.6c1-0.5,1.8-0.7,2.8-1.2c0.8-0.4,1.4-0.8,2.2-1.2c1.5-0.7,1.9,0.5,2.1,0.9c0.2,0.4,1.4,2.7,2,2.9
			c0.3,0.1,0.1,0,0.5,0.1c0.1,0,1.7-0.7,2.7-1.2c1.6-0.8,1.3-1.1,1-2.1c-0.1-0.4-1.2-2.8-1.1-3.3c0.1-0.5,0.3-0.8,1-1.1
			c0.8-0.4,1.4-0.6,2.2-1c0.8-0.4,1.7-0.9,2.5-1.3c0.8-0.4,1.6-0.7,2.2,0.5c0.2,0.3,0.4,1.2,0.6,2.2c0.4,1.2,0.7,1.9,1,3.1
			c0.3,1.1,0.4,1.8,0.7,2.9c0.4,1.5,0.8,2.5,1.2,4c0.5,1.5,0.6,2.6,1.1,4c0.3,1,0.6,1.8,1,2.9c0.3,1.2,0.5,2.2,0.8,3.5
			c0.5,1.9,1.1,3.2,1.5,5.1c0.3,1.3,0.5,2.5,0.3,3c-0.3,0.5-0.7,0.9-1.6,1.4c-1.4,0.7-2.5,1-4,1.7c-1.1,0.5-2.1,1.1-3.2,1.6
			l-0.2,0.1c-1.1,0.5-1.5,0.5-2.3,0c-0.1,0-0.4-0.3-0.5-0.4c0,0-2.6-3.6-2.7-3.6c-0.9-1.3-1.4-2.2-2.3-3.4c-1.1-1.5-1.8-2.6-3-4
			c-0.9-1.2-1.6-2-2.4-3.3c-1.1-1.6-1.7-2.8-2.8-4.5c-1.7-2.4-4-5.2-4.2-5.8C132.5,281.9,131.9,280.2,133.1,279.6z M150.6,294.8
			c0.4,0.6,0.9,1.5,1.1,1.6c0.2,0.3,0.5,0.3,0.6,0.3c0.1-0.1,0.2-0.4,0.1-0.6c0-0.3-0.4-1.7-0.5-2c-0.1-0.6-0.2-1-0.3-1.6
			c-0.1-0.4-1.2-4-1.4-4.3c-0.6-1.3-1.3-1.1-2-0.8c-0.5,0.3-1.6,0.8-0.9,2.3C148.5,292,150.3,294.2,150.6,294.8z"/>
		<path class="st2" d="M125.2,309.7c0.4-0.2,0.8-0.3,1.2-0.4l1.2-0.5c0.6-0.2,1.1-0.4,1.7-0.6l0.1,0c1.1-0.4,1.1-1.1,0.9-1.6
			l-0.4-0.9c-0.2-0.5-0.3-0.8-0.4-1.3c-0.6-1.4-2-0.8-2.2-0.7c-0.5,0.2-0.9,0.4-1.4,0.5c-0.4,0.1-0.6,0.2-0.9,0.3
			c-0.3,0.2-0.7,0.4-1,0.5c-1.2,0.4-1.8-0.4-1.9-0.8c-0.2-0.5-0.2-0.8-0.4-1.3l-0.3-0.8c-0.9-2.5-1.7-3.8,0.4-4.6
			c0.9-0.4,1.6-0.4,2.6-0.8c1.7-0.7,1.3-2,1.1-2.6l-0.8-2.1c-0.4-1.1-0.7-1.7-1.1-2.8c-0.1-0.5-0.2-0.8-0.4-1.3
			c-0.3-0.7-0.6-1.2-0.9-1.9l-0.1-0.1c-0.2-0.4-0.6-1.7,1-2.3c1-0.4,1.7-0.5,2.7-0.9c0.8-0.3,1.4-0.6,2.2-0.9c1.4-0.5,2,0.4,2.2,0.9
			c0.5,1.4,0.8,2.4,1.3,3.8c0.9,2.6,1.8,4.2,2.7,6.8c0.7,1.9,1,3.3,1.8,5.1c0.7,1.8,1.3,3,2,4.8c0.6,1.5,0.9,2.7,1.5,4.2
			c0.3,0.9,0.7,1.5,1,2.4c0.8,2,0,2.7-1.1,3.1l-1.4,0.6c-1.6,0.6-2.7,1.1-4.3,1.7c-0.8,0.3-1.5,0.5-2.4,0.8
			c-1.3,0.5-2.2,0.9-3.5,1.4c-0.4,0.1-1.3,0.5-1.7-0.7c-0.1-0.4-0.2-0.6-0.3-0.9l-0.3-0.8c-0.3-0.9-0.6-1.5-0.9-2.4
			C124,311.4,123.5,310.4,125.2,309.7z"/>
		<path class="st2" d="M104.3,315.8c0.5-0.1,0.8-0.2,1.2-0.3c1.3-0.4,1.5-1.1,1-2.9c-0.5-1.5-0.9-2.5-1.4-4.1
			c-0.5-1.8-0.8-3.1-1.4-5c-0.5-1.7-0.9-2.8-1.4-4.5c-0.3-0.9-0.5-1.9-0.8-2.8c-0.2-0.8-0.4-1.4-0.7-2.2c-0.2-0.5-0.4-0.8-0.5-1.3
			c-0.4-1.4,0.8-1.9,1.3-2c0.5-0.2,0.9-0.2,1.5-0.3c0.8-0.2,1.3-0.3,2-0.6c0.6-0.2,1.1-0.4,1.7-0.6c0.9-0.3,1.7-0.2,2.1,1.4
			c0.4,1.5,0.5,2.5,1,4c0.4,1.4,0.8,2.3,1.3,3.7c0.5,1.6,0.6,2.9,1.1,4.5c0.3,1.2,0.7,1.9,1.1,3.1c0.9,2.8,0.8,5.3,2.3,6
			c0.2,0.2,0.4,0.1,0.5,0.1c0.4,0.1,0.9-0.1,1.2-0.2c0.4-0.1,0.6-0.2,0.9-0.3c1.2-0.4,1.8,0.4,1.9,0.9c0.3,1.1,0.5,2,0.8,3.1
			c0.2,0.8,0.5,1.3,0.7,2c0.3,1.1,0,1.7-1.1,2c-1,0.3-1.8,0.4-2.8,0.7c-1.5,0.5-3,1-4.5,1.5l-0.5,0.1c-1.3,0.4-2.2,0.6-3.5,0.9
			c-0.8,0.2-1.3,0.5-2.1,0.7c-1.8,0.5-2.1-0.8-2.5-2c-0.3-0.9-0.4-1.5-0.7-2.4c-0.2-0.6-0.4-1-0.5-1.6
			C103.3,317.4,103,316.2,104.3,315.8z"/>
		<path class="st2" d="M76.7,300.6c-0.2-0.8-0.3-1.3-0.5-2.1c-0.1-0.6-0.2-1.8,1.4-2.2c0.6-0.1,1.1-0.2,1.8-0.3l1.1-0.2
			c1.1-0.2,1.9-0.3,3-0.5c0.6-0.1,1.1-0.3,1.7-0.4l4.9-1.1c0.4-0.1,0.8-0.3,1.2-0.4c0.6-0.1,2-0.1,2.3,1.5c0.3,1.2,0.3,2.1,0.6,3.3
			c0.2,1.1,0.4,1.8,0.7,2.9c0.2,0.8,0.2,1.4,0.3,2.2c0.2,0.8,0.4,1.3,0.5,2.1c0.3,1.5,0.5,2.6,0.8,4.1c0.3,1.4,0.7,2.7,1,4.1
			c0.5,1.9,0.6,3.2,1,5.1c0.3,1.3,0.6,2.2,0.9,3.5c0.6,2.7,0.4,3.5-1.6,4c-1.2,0.3-2.1,0.3-3.3,0.5c-0.6,0.1-1.1,0.3-1.7,0.4
			c-1.5,0.3-2.6,0.4-4,0.7c-0.6,0.1-1.1,0.3-1.7,0.5l-0.9,0.2c-0.5,0.1-0.9,0.2-1.4,0.4c-1.4,0.3-1.7-0.8-1.8-1.2
			c-0.2-0.8-0.2-1.6-0.4-2.4c-0.3-1.2-1.2-3.3,1-3.8l0.5-0.1c0.6-0.1,1-0.3,1.5-0.4c0.7-0.2,1.3-0.1,2-0.3c2.5-0.5,2.4-1.3,2.1-2.9
			c-0.3-1.6-1.1-2.3-2.1-2c-0.5,0.1-0.9,0.3-1.4,0.4l-0.1,0c-0.7,0.1-1.2,0.2-1.8,0.3c-0.6,0.1-1,0.3-1.5,0.4
			c-1.9,0.4-2.1-0.9-2.2-1.5c-0.2-0.7-0.2-1.2-0.4-1.9c-0.1-0.7-0.3-1.1-0.4-1.8c-0.4-1.8,0.9-2.2,1.5-2.3c1.4-0.3,2.4-0.3,3.8-0.6
			c2.5-0.5,2-2,1.8-3l-0.1-0.6c0-0.2-0.2-1.1-0.4-1.4c-0.9-1.1-1.5-0.7-3.2-0.5c-0.8,0.1-1.4,0.1-2.2,0.3c-0.7,0.2-1.2,0.4-1.9,0.6
			c-0.5,0.1-1.7,0.1-2.1-1.3C76.9,301.9,76.9,301.4,76.7,300.6z"/>
		<path class="st2" d="M58.6,300.1c1.1-0.7,2.5-1.2,5.1-1.5c0.9-0.1,1.5-0.1,2.4-0.2c1.4-0.2,2.3-0.5,3.6-0.7
			c1.4-0.2,2.9-0.3,3.2,1.8c0.2,1.7,0.1,2.9,0.3,4.6c0.3,2.7,0.8,4.6,1.1,7.3c0.1,1.1,0.2,1.8,0.3,2.9c0.2,1.9,0.5,3.2,0.8,5.1
			c0.2,1.7,0.3,2.8,0.5,4.5c0.2,1.4,0.4,2.3,0.6,3.7c0.3,2.1-0.4,2.8-1.8,3c-1.3,0.2-2.1,0.2-3.3,0.4c-1.3,0.2-2.1,0.3-3.3,0.5
			c-0.4,0-0.7,0.1-1.1,0.2c-4.4,0.5-6.7-0.6-8.9-2.5c-0.4-0.3-1.3-1.3-2.2-2.5c-2.4-3.7-3.1-10.1-3.2-10.4
			C52.2,312,52.8,303.6,58.6,300.1z M62.2,318.1c0.2,1.2,1.1,6,3.8,5.4c0.2,0,0.4-0.1,0.5-0.3c0.8-0.5,0.6-1.6,0.6-2.2
			c-0.2-1.8-0.5-3-0.7-4.8c-0.2-1.2-0.2-2-0.3-3.2c-0.1-0.9-0.3-1.6-0.5-2.5c-0.1-0.7-0.1-1.1-0.2-1.8c-0.1-1-0.3-2.7-2-2.5
			c-1.8,0.3-1.9,2.5-1.9,2.6c-0.1,0.8-0.1,5.4,0,6.2C61.8,316.2,62,317,62.2,318.1z"/>
	</g>
</g>
</svg>
