<?xml version="1.0" encoding="utf-8"?>
<!-- Generator: Adobe Illustrator 27.8.1, SVG Export Plug-In . SVG Version: 6.00 Build 0)  -->
<svg version="1.1" id="Layer_1" xmlns="http://www.w3.org/2000/svg" xmlns:xlink="http://www.w3.org/1999/xlink" x="0px" y="0px"
	 viewBox="0 0 677.9 625" style="enable-background:new 0 0 677.9 625;" xml:space="preserve">
<style type="text/css">
	.st0{clip-path:url(#SVGID_00000123425910667852016640000009257862144773371829_);}
	.st1{fill:#FCFDFF;}
	.st2{fill:#004A2C;}
</style>
<g>
	<defs>
		<rect id="SVGID_1_" width="677.9" height="625"/>
	</defs>
	<clipPath id="SVGID_00000003791422068137210630000002491038238373329282_">
		<use xlink:href="#SVGID_1_"  style="overflow:visible;"/>
	</clipPath>
	<g style="clip-path:url(#SVGID_00000003791422068137210630000002491038238373329282_);">
		<path class="st1" d="M509.3,213c0.5-1,0.9-1.8,1.1-2.5l0.1-0.3c0.3-0.4,0.6-1.1,1-1.9c0.8-1.4,1.3-2.7,1.6-3.5
			c0.3-0.5,0.5-1,0.8-1.5c1.1-2.3,2-4.6,2.5-6.9c1.7-1.6,3.3-3.3,4.6-5.3c0.4-0.6,0.7-1.1,1.1-1.6l0.2-0.3c0.5-0.7,0.9-1.4,1.2-1.9
			c0.5-0.7,1.3-1.7,2.2-2.9c0.2-0.4,0.5-0.7,0.7-1.1c0.6-0.7,1.4-1.7,2.3-3c0.7-1,1.4-2.1,2-3.2c0.2-0.2,0.4-0.4,0.6-0.7
			c0.6-0.7,1.1-1.4,1.5-1.9c0.5-0.5,1.1-1.2,1.7-1.9c0.8-1,1.6-2,2.3-3c0.9-0.9,1.8-1.8,2.6-2.7c0.7-0.9,1.3-1.7,1.8-2.3
			c0.4-0.4,0.9-1,1.5-1.7c0,0,0,0,0.1-0.1c0.7-0.6,1.4-1.2,2-1.8c0.8-0.8,1.4-1.4,1.8-1.9c0.1,0,0.1-0.1,0.2-0.1
			c0.7-0.6,1.4-1.3,2.2-2l0.4-0.4c1-1,1.9-1.9,2.6-2.7c0.2-0.2,0.4-0.4,0.6-0.7l0.1-0.1c0.5-0.4,1.3-1.1,2.2-2
			c1.5-1.5,2.9-3.1,4.1-4.8c1.5-0.7,3-1.6,4.4-2.6c0.9-0.6,1.6-1.2,2.1-1.6c0.5-0.3,1.3-0.8,2.1-1.4c2.1-1.5,4-3.1,5.6-4.9
			c2-0.9,3.9-2,5.7-3.3c0.6-0.4,1.1-0.8,1.6-1.2c0.3-0.2,0.5-0.3,0.7-0.5c0.6-0.4,1.2-0.8,1.8-1.3c1-0.7,1.9-1.4,2.8-2.2
			c2.7-0.8,5.3-2,7.9-3.4l0.3-0.1c2.7-1.5,5.7-3.3,8.6-5.9c2.9-0.6,5.9-1.4,8.9-2.7c1.6-0.7,2.8-1.2,3.8-1.7
			c0.7-0.3,1.2-0.5,1.5-0.7c0.1,0,0.2-0.1,0.2-0.1c0.6-0.2,1.6-0.6,2.8-1.1c0.7-0.3,1.4-0.6,2.1-1c0.3-0.1,0.5-0.1,0.8-0.2
			c0.9-0.3,1.6-0.5,2.4-0.8c0.3-0.1,0.5-0.2,0.8-0.3c0.6-0.1,1.6-0.4,2.8-0.8c1.1-0.4,2.1-0.7,3.1-1c0.4-0.1,0.8-0.3,1.3-0.4
			l1.5-0.5c7.8-2.4,14.3-7.5,18.3-14.3c4.6-7.8,5.6-17.2,2.8-26.2c-0.4-1.2-0.7-2.2-0.9-2.8c-0.1-0.3-0.2-0.6-0.3-0.9
			c-0.3-1-0.5-2-0.9-3.1c-0.5-1.5-0.9-2.8-1.2-3.7c-0.1-0.4-0.3-0.8-0.4-1.2c0-0.1-0.2-0.6-0.3-1c-0.2-1-0.6-2.3-1.1-4
			c-0.6-1.9-1.1-3.4-1.5-4.6c-0.3-0.9-0.5-1.5-0.7-2.1c0-0.1-0.1-0.3-0.1-0.4c0-0.1-0.1-0.3-0.1-0.4c-0.2-0.8-0.5-2-0.9-3.5
			c-4-13.2-15.9-22.2-29.6-22.4c-3.4-0.1-6.8,0.4-10,1.4c-1,0.3-1.8,0.6-2.4,0.8c-0.6,0.2-1.5,0.4-2.6,0.7c-2.8,0.9-5.4,2.1-7.7,3.5
			c-3.4,0.2-6.8,1-10,2.4c-1.2,0.5-2.3,1-3,1.4c-0.7,0.2-1.5,0.5-2.5,0.9c-1.2,0.5-2.3,1-3.4,1.6c-1.1,0.3-2.2,0.7-3.3,1.2
			c-1.1,0.5-2,0.9-2.8,1.3c0,0,0,0,0,0c-0.6,0.2-1.5,0.5-2.6,1l-0.1,0c-2.9,1.2-5.6,2.8-7.9,4.7c-3.8,0.9-7.5,2.4-11.2,4.4
			c-2.6,1.4-5.9,3.5-9.5,7c-3.4,1-6.6,2.6-9.6,4.7c-0.9,0.7-1.7,1.3-2.4,1.9l-0.1,0c-0.6,0.4-1.1,0.7-1.8,1.2
			c-1.8,1.3-3.5,2.7-4.9,4.3c-2,0.9-3.9,2-5.7,3.3c-0.9,0.6-1.6,1.2-2.2,1.7c-0.7,0.4-1.5,1-2.5,1.7c-4.6,3.3-8.2,7.7-10.4,12.6
			c-4.6,1.5-8.8,4-12.4,7.5c-0.7,0.6-1.2,1.2-1.6,1.7c-0.6,0.5-1.4,1.2-2.3,2.1c-1.6,1.6-3,3.3-4.3,5.1c-2.5,1.7-4.9,3.7-6.9,6.1
			c-0.7,0.8-1.3,1.6-1.7,2.2c-0.5,0.5-1.1,1.1-1.7,1.8c-0.8,1-1.6,2-2.3,3.1c-0.8,0.8-1.6,1.6-2.4,2.5c-0.8,1-1.5,1.8-2,2.5
			c-0.4,0.4-0.9,1-1.5,1.7c-1.5,1.7-2.7,3.6-3.8,5.5c-1.4,1.4-2.8,3-3.9,4.7c-0.6,0.8-1,1.6-1.4,2.2l-2.1,3c-0.4,0.5-0.7,1-1,1.5
			l0,0c-0.4,0.5-1,1.3-1.8,2.4l-0.5,0.7c-0.4,0.5-0.8,1-1.2,1.7c-2.7,3.9-4.4,8.1-5.2,12.6c-3.5,2.8-6.4,6.5-8.5,10.7
			c-0.5,1-0.8,1.8-1.1,2.4c-0.3,0.5-0.5,1-0.8,1.6c-0.5,1.1-0.9,1.9-1.4,2.8c-0.3,0.7-0.6,1.3-1,2.1l-0.3,0.5
			c-1.3,2.7-2.3,5.4-3,8.2c-2,2.6-3.6,5.5-4.9,8.8c-0.2,0.7-0.5,1.4-0.7,2c-0.1,0.2-0.1,0.4-0.2,0.6l-0.1,0.3
			c-0.3,0.6-0.5,1.2-0.8,2c-0.5,1.4-1,2.9-1.3,4.3c-0.7,1.3-1.3,2.7-1.9,4.2c-0.3,0.9-0.6,1.7-0.8,2.3c-0.3,0.7-0.8,1.7-1.2,2.9
			c-0.7,2-1.2,4-1.6,6c-0.6,1.4-1.2,2.9-1.6,4.5c-0.3,1.3-0.6,2.3-0.7,2.9l0,0.1l-0.8,2.9l0,0.1c-0.2,0.6-0.4,1.3-0.6,2.1
			c-0.2,0.6-0.3,1.2-0.4,1.8c-0.2,0.6-0.5,1.5-0.8,2.5c-0.5,1.7-0.8,3.4-0.9,5.2c-0.7,1.9-1.2,3.8-1.5,5.9c-0.1,0.7-0.2,1.4-0.3,2.1
			c0,0.2-0.1,0.4-0.1,0.6l-0.1,0.3c-0.1,0.7-0.3,1.3-0.4,2.1c-0.2,1.5-0.4,3-0.4,4.5c-0.4,1.4-0.8,2.9-1.1,4.4
			c-0.2,1-0.3,1.8-0.3,2.4c-0.2,0.7-0.4,1.8-0.6,3.1c-0.3,1.8-0.4,3.7-0.4,5.5c-0.4,1.7-0.7,3.5-0.8,5.4c-0.1,1.1-0.1,2.1-0.1,2.9
			c-0.1,0.7-0.2,1.6-0.2,2.6c-0.1,1.6-0.1,3.2,0,4.6c-0.2,1.2-0.4,2.3-0.4,3.5c-0.1,1.3-0.1,2.3-0.1,3c-0.1,0.6-0.2,1.6-0.3,2.8
			c-0.2,3,0,5.9,0.6,8.7c0,0.1-0.1,0.2-0.1,0.3c-0.3,0.9-0.5,1.8-0.7,2.8c-0.6,2.8-1,7.9-1,8c-0.1,1.3-0.1,2.6,0,3.8
			c0,0.3-0.1,0.6-0.1,0.9c-0.1,1-0.2,1.9-0.3,2.6l-0.5,3.6c-0.1,0.7-0.2,1.3-0.2,1.8l0,0c-0.1,0.7-0.3,1.7-0.5,2.9l-0.1,0.8
			c-0.1,0.7-0.2,1.3-0.3,2.1c-0.5,3.4-0.4,6.7,0.1,9.9c-2.5,3.8-4.5,8.2-5.8,12.9c-0.6,2.3-1.3,5.2-1.5,8.8
			c-0.7,1.3-1.3,2.6-1.8,4.1c-0.4,1-0.6,1.8-0.8,2.4c-0.2,0.6-0.6,1.4-1,2.5c-1.3,3.6-1.9,7.3-1.9,11c-2.4,2.4-4.5,5.3-6.2,8.5
			c-0.5,0.9-0.8,1.7-1.1,2.3c-0.3,0.6-0.8,1.4-1.3,2.4c-0.9,1.9-1.7,3.8-2.2,5.7c-1.1,1.3-2.1,2.7-3,4.3c-0.7,1.1-1.2,2.1-1.5,2.6
			l0,0.1l-1.6,2.6l0,0.1c-0.4,0.6-0.7,1.1-1.1,1.8c-0.4,0.6-0.7,1.1-0.9,1.6c-0.4,0.5-0.9,1.3-1.4,2.2c-0.4,0.7-0.8,1.5-1.2,2.2
			c-0.1,0.2-0.3,0.3-0.4,0.5c-0.4,0.6-0.8,1.2-1.2,1.8c-0.1,0.2-0.3,0.4-0.3,0.5l-0.2,0.2c-0.4,0.5-0.8,1.1-1.3,1.7
			c-0.9,1.2-1.7,2.5-2.4,3.9c-1,1.1-2,2.2-2.9,3.5c-0.6,0.8-1,1.5-1.4,2c-0.5,0.6-1.2,1.4-1.9,2.5c-0.4,0.5-0.8,1.1-1.1,1.6
			c-0.9,0.9-1.8,1.8-2.5,2.6l-5,5.9c-1.7,2-3.1,4-4.2,6c-3.1,1.8-6,4-8.7,6.6c-2,2-4.5,4.7-6.9,8.7c-2.9,1.2-5.9,3-9.1,5.5
			c-3,2.3-5.6,4.7-7.6,7.1c-1.1,0.6-2.2,1.2-3.3,1.9c-1.1,0.7-2,1.4-2.7,1.9c-0.6,0.3-1.4,0.8-2.3,1.4c-1.1,0.7-2.1,1.4-3.1,2.2
			c-1,0.5-2,1.1-2.9,1.7c-1,0.7-1.9,1.3-2.5,1.8c0,0,0,0,0,0c-0.5,0.3-1.3,0.7-2.1,1.3c-2.7,0.9-5.2,2.1-7.1,3.1
			c-3.2,1.7-7.8,4.5-11.5,8.1c-0.3,0.3-0.6,0.5-0.8,0.8c-0.3,0.3-0.6,0.7-1,1.1c-3.8,0.1-7.5,0.8-11.2,2.2c-0.9,0.3-1.6,0.7-2.2,0.9
			c-0.7,0.2-1.7,0.5-3,1c-1.9,0.7-3.7,1.6-5.3,2.7c-3.3,0.2-6.7,0.8-10.1,1.8c-3.3,1-7.7,2.6-12.8,6.3c-0.3,0.2-0.7,0.5-1,0.7l0,0
			c-2-0.4-4.1-0.7-6.3-0.7c-1.9,0-3.8,0.1-5.7,0.4c-0.9,0.1-1.7,0.3-2.3,0.4c-0.8,0.1-1.8,0.2-3.1,0.4c-1.3,0.2-2.6,0.5-3.9,0.9
			c-0.3,0-0.6,0-0.9,0c-1,0-2,0-3,0.1c-1.1,0.1-2,0.2-2.8,0.3c-0.7,0-1.5,0-2.5,0.1c-1.3,0.1-2.5,0.3-3.8,0.5c-0.2,0-0.3,0-0.5,0
			c-1,0-2,0-3,0.1c-1.3,0.1-2.4,0.2-3.1,0.3c-0.6,0-1.3,0-2.2,0.1c-0.5,0-1.1,0.1-1.6,0.2c-0.9-0.1-1.9-0.2-2.8-0.2
			c-0.1,0-0.1,0-0.2,0c-1,0-1.9,0-2.6,0.1l-3.6,0c-0.7,0-1.3,0-1.8,0l0,0c-0.8,0-1.7-0.1-2.7-0.1l-1.2,0c-0.6,0-1.1-0.1-1.8-0.1
			c-0.1,0-0.2,0-0.3,0c-2.5,0-5,0.3-7.4,0.8c-3.4-1.4-7.1-2.3-11.2-2.9c-1.1-0.1-4-0.5-7.2-0.5c-1,0-1.9,0-2.7,0
			c-1.3-0.4-2.5-0.8-3.9-1.1c-1-0.2-2-0.4-2.8-0.5c-0.7-0.2-1.5-0.4-2.4-0.6c-1.2-0.3-2.5-0.5-3.8-0.6c-1.1-0.4-2.2-0.7-3.3-0.9
			c-1.3-0.3-2.3-0.5-3.1-0.6c-0.6-0.2-1.3-0.4-2.1-0.5c-0.6-0.1-1.2-0.2-1.8-0.3c-0.3-0.1-0.5-0.2-0.8-0.3c-0.7-0.2-1.4-0.4-2-0.6
			c-0.2-0.1-0.4-0.1-0.6-0.2l-0.3-0.1c-0.6-0.2-1.3-0.5-2-0.7c-1.5-0.5-2.9-0.8-4.4-1.1c-1.3-0.7-2.7-1.2-4.2-1.7
			c-0.9-0.3-1.7-0.5-2.3-0.7c-0.7-0.3-1.7-0.7-3-1.1c-0.2-0.1-0.5-0.1-0.7-0.2c-0.5-0.2-1-0.5-1.5-0.7c-1.2-0.5-2.3-0.9-3.2-1.2
			c-0.6-0.3-1.3-0.6-2.1-1c-2.8-1.2-5.7-2-8.6-2.4c-1.9-1.8-4.1-3.3-6.4-4.6c-0.9-0.5-1.7-0.9-2.4-1.2l-3.2-1.7
			c-0.6-0.3-1.1-0.6-1.6-0.8l0,0c-0.6-0.3-1.4-0.9-2.6-1.5l-0.7-0.4c-0.6-0.3-1.1-0.7-1.8-1c-2.2-1.2-4.6-2.1-7.1-2.8
			c-1.8-2.1-4-4-6.4-5.6c-1-0.7-1.9-1.2-2.5-1.6c-0.4-0.3-1-0.8-1.6-1.2c-1.2-0.8-2.4-1.5-3.7-2.2c-1-1-2-1.9-3.1-2.7
			c-0.7-0.6-1.4-1-1.9-1.4c-0.6-0.5-1.4-1.2-2.3-2c-3-2.3-6.4-4.1-9.9-5.3c-1.6-3.3-3.8-6.4-6.5-9.1c-0.6-0.6-1.2-1.2-1.7-1.6
			c-0.5-0.6-1.2-1.4-2.1-2.3c-0.8-0.8-1.6-1.5-2.5-2.2c-0.3-0.4-0.6-0.7-0.9-1.1c-0.5-0.5-1-1.1-1.5-1.6c-0.1-0.2-0.3-0.3-0.4-0.4
			l-0.2-0.2c-0.4-0.5-0.8-1-1.4-1.7c-1-1.2-2.1-2.2-3.2-3.2c-0.8-1.2-1.7-2.5-2.7-3.6c-0.6-0.7-1.2-1.3-1.6-1.8
			c-0.5-0.6-1.1-1.5-2-2.5c-0.2-0.2-0.4-0.4-0.5-0.6c-0.3-0.4-0.6-0.9-0.9-1.3c-0.7-1-1.3-1.8-1.9-2.4c-0.1-0.1-0.1-0.2-0.2-0.2
			l-0.1-0.2c-0.4-0.6-0.8-1.1-1.2-1.7c-0.8-1.1-1.6-2-2.4-3c-0.5-0.9-1.1-1.8-1.7-2.7c-0.8-1-1.4-1.9-1.8-2.4l-0.1-0.1
			c-0.4-0.5-0.7-1.1-1.1-1.7l-0.1-0.1c-0.1-0.1-0.1-0.2-0.2-0.3c-0.5-1.1-1-2.1-1.6-3.1c-0.5-0.9-1-1.6-1.4-2.2l-1.9-3.2
			c-0.3-0.6-0.6-1.1-1-1.5l0,0c-0.3-0.6-0.8-1.5-1.5-2.6l-0.4-0.7c-0.3-0.6-0.6-1.1-1-1.8c-0.3-0.5-0.6-0.9-0.9-1.4
			c-0.7-2.1-1.6-4.2-2.7-6.4c-1.6-3.3-4.3-7.9-7.8-11.8c-0.2-0.3-0.5-0.5-0.7-0.8c-0.2-3.4-0.8-6.8-2.1-10.2
			c-0.4-1.2-0.8-2.1-1.1-2.8c-0.2-0.5-0.4-1.2-0.6-1.9c-0.3-0.9-0.7-1.8-1.1-2.6c-0.1-0.4-0.2-0.8-0.3-1.2c-0.3-1.1-0.6-2-0.9-2.8
			c-0.2-0.6-0.4-1.5-0.7-2.6c-0.4-1.5-0.9-2.9-1.5-4.3c-0.2-1.2-0.4-2.4-0.8-3.5c-0.3-1.2-0.7-2.2-0.9-2.8c-0.1-0.6-0.3-1.5-0.7-2.6
			c-0.9-3.1-2.2-5.9-3.8-8.5c0.7-3.6,0.9-7.3,0.3-11.1l-0.2-1.6c-0.1-0.9-0.3-1.6-0.4-2.2c0-0.4-0.1-0.7-0.1-1.2
			c-0.4-2.5-1-4.9-1.8-7.2c0.7-3.5,0.9-7.2,0.7-11c-0.1-2.8-0.5-6.5-2-11c0.9-3,1.6-6.4,1.8-10.4c0.2-3.9,0.1-7.4-0.4-10.5
			c0.3-1.2,0.6-2.4,0.8-3.7c0.2-1.3,0.3-2.5,0.3-3.3c0.1-0.7,0.3-1.6,0.5-2.6c0.2-1.3,0.3-2.6,0.3-3.8c0.3-1.1,0.5-2.2,0.6-3.3
			c0.2-1.2,0.2-2.2,0.3-3.1c0,0,0,0,0-0.1c0.1-0.6,0.3-1.6,0.5-2.8l0-0.1c0.3-2,0.4-4,0.3-6c1.2-2.1,2.1-4.4,2.8-6.8
			c0.3-1,0.5-1.9,0.6-2.7c0.2-0.7,0.5-1.5,0.8-2.4c0.4-1.2,0.6-2.5,0.8-3.7c0.4-1,0.8-2.1,1.1-3.2c0.4-1.2,0.6-2.3,0.8-3.1
			c0.2-0.6,0.4-1.3,0.7-2.1c0.2-0.6,0.3-1.2,0.5-1.8c0.1-0.2,0.2-0.5,0.3-0.7c0.3-0.7,0.5-1.3,0.8-2c0.1-0.2,0.1-0.4,0.2-0.6
			l0.1-0.3c0.3-0.6,0.5-1.2,0.8-2c0.6-1.4,1-2.9,1.4-4.3c0.7-1.3,1.4-2.7,1.9-4.1c0.4-0.9,0.6-1.7,0.8-2.3c0.3-0.7,0.8-1.7,1.3-2.9
			c0.1-0.3,0.2-0.7,0.4-1c0.2-0.3,0.3-0.6,0.5-0.9c0.5-1,0.9-1.9,1.2-2.6c0.3-0.6,0.8-1.4,1.2-2.3c0.7-1.4,1.3-2.8,1.8-4.2
			c0.6-1,1.2-2,1.8-3.1c0.6-1.1,1-2.1,1.3-2.7c0.3-0.5,0.8-1.4,1.3-2.4c0.3-0.5,0.5-1,0.7-1.6c0.7-1,1.5-2,2.2-3.1
			c0.9-1.4,1.6-2.6,2-3.5c0.3-0.5,0.7-1,1.1-1.7c1.6-2.6,2.9-5.1,4-7.6c2.5-2.1,5-4.7,7.2-7.6c2.2-2.9,5.2-7.3,7.1-12.2
			c0.1-0.4,0.3-0.7,0.4-1.1c1.1-3.2,2.4-8.2,2.2-14.2c0,0,0-0.1,0-0.1c-0.6-17.9-12.5-27-16.4-30c-3.5-2.6-7.1-4.6-10.9-6
			c-1.1-1.1-2.3-2.2-3.6-3.2c-0.5-0.4-1-0.8-1.5-1.1c-0.5-0.4-1.3-1.1-2.2-1.8c-5.4-4.1-11.9-6.4-18.6-6.5
			c-16.6-0.3-25.7,11.8-28.7,15.7l-0.3,0.4c-3.7,4.9-6,9.6-7.3,14c-3.6,2.9-6.8,6.5-9.6,10.8c-0.5,0.7-0.8,1.4-1.1,1.8
			c-0.2,0.4-0.4,0.7-0.6,1.1c-0.2,0.3-0.3,0.5-0.5,0.9c-0.2,0.3-0.4,0.6-0.5,0.8c-0.4,0.6-0.8,1.2-1.3,2c-1.2,1.8-2.1,3.8-2.9,5.8
			c-1.4,1.7-2.7,3.7-3.7,5.7c-0.3,0.6-0.6,1.2-0.8,1.8l-0.2,0.4c-0.3,0.6-0.8,1.4-1.3,2.3c-0.7,1.3-1.3,2.7-1.7,4.1
			c-0.8,1.2-1.6,2.5-2.3,3.8c-0.5,1.1-0.9,2-1.2,2.7c-0.4,0.6-0.8,1.4-1.2,2.2l-0.1,0.2c-0.8,1.5-1.4,3.2-1.9,4.8
			c-0.4,1.2-0.6,2.3-0.8,3.5c-1.5,2.1-2.7,4.5-3.7,7.1l-0.1,0.2c-0.3,0.7-0.6,1.5-0.8,2.2c-0.1,0.3-0.2,0.6-0.3,0.9l-0.1,0.3
			c-0.4,0.9-1,2.2-1.7,3.9c-1.2,3.1-1.9,6-2.2,8.7c-1.5,2.5-2.8,5.2-3.6,8.2c-0.3,0.9-0.5,1.7-0.6,2.4c-0.2,0.7-0.5,1.5-0.8,2.5
			c-0.4,1.2-0.6,2.5-0.8,3.7c-0.5,1.2-0.9,2.4-1.2,3.6c-0.3,1.1-0.5,2.1-0.7,2.8c-0.2,0.6-0.4,1.3-0.7,2.2
			c-1.6,5.7-1.6,11.4-0.3,16.6c-3.4,5.1-5.7,11.1-6.7,17.8c-0.2,1.7-0.4,3.1-0.5,4.2c-0.1,0.8-0.1,1.3-0.2,1.6c0,0.1,0,0.2,0,0.2
			c-0.1,0.6-0.3,1.7-0.5,3c-0.4,2.6-0.4,5.1-0.2,7.5c-0.5,1.9-0.7,3.9-0.8,5.9c0,0.9-0.1,1.7,0,2.3c-0.1,0.8-0.2,1.8-0.3,3.1
			c-0.1,1.4,0,2.7,0.1,4.1c-0.2,1.3-0.3,2.6-0.4,3.9c0,0.5,0,1,0,1.5c-0.1,0.8-0.2,1.9-0.3,3.2c-0.2,3.7,0.3,7.3,1.4,10.8
			c-1,4-1.4,8.2-1.2,12.7l0,0.3c0.2,3,0.5,6.5,1.6,10.3c-0.3,2.8-0.3,5.6,0.1,8.5c0.1,0.9,0.3,1.6,0.4,2.2c0.1,0.6,0.1,1.3,0.2,2.1
			c0.2,1.7,0.6,3.4,1,5c0,1.4,0.1,2.7,0.3,4.1c0.1,0.9,0.3,1.6,0.4,2.4l0,0.2c0,0.5,0.1,1.4,0.2,2.4c0.6,4.6,2.1,8.9,4.3,12.6
			c-0.5,4.1-0.2,8.4,1,12.4c0.2,0.7,0.4,1.3,0.6,1.9l0.1,0.4c0.1,0.6,0.3,1.5,0.6,2.6c0.4,1.4,0.9,2.8,1.5,4.2
			c0.2,1.5,0.5,2.9,0.9,4.4c0.3,1.1,0.6,2.1,0.9,2.8c0.1,0.7,0.3,1.6,0.6,2.5l0.1,0.2c0.5,1.6,1.1,3.2,1.8,4.8
			c0.1,0.2,0.2,0.4,0.3,0.6c0.3,1.5,0.7,3,1.3,4.6c0.4,1.2,0.8,2.1,1.1,2.7c0,0.1,0.1,0.2,0.1,0.3c0.2,0.7,0.5,1.3,0.7,2.1
			c1.7,4.7,4.1,8.4,6.9,11.4c0.3,7.8,3.3,13.9,4.9,17l0.2,0.4c1.8,3.7,3.9,6.8,6.1,9.4c0.8,2.7,1.9,5.3,3.4,7.8
			c0.4,0.6,0.7,1.1,1,1.6l0.2,0.4c0.4,0.7,0.9,1.4,1.2,1.9c0.4,0.7,1,1.9,1.8,3.2c0.2,0.4,0.5,0.7,0.7,1.1c0.4,0.8,1,2,1.8,3.3
			c1,1.6,2.1,3.1,3.2,4.5c0.8,1.8,1.8,3.6,3.1,5.3c0,0,0.1,0.1,0.1,0.2c0.6,0.9,1.2,1.6,1.7,2.2c0.5,0.8,1.1,1.8,1.8,2.8
			c0.8,1.1,1.6,2.1,2.5,3.1c0.5,0.8,1,1.6,1.6,2.4c0.7,0.9,1.2,1.6,1.6,2.1c0.3,0.5,0.7,1,1,1.5l0.8,1.1c1.7,2.4,3.7,4.5,6,6.3
			c1.2,2.3,2.7,4.5,4.5,6.5l0.1,0.1c0.5,0.6,1.1,1.2,1.6,1.8c0.2,0.2,0.4,0.5,0.6,0.7l0.2,0.3c0.6,0.8,1.4,1.9,2.6,3.3
			c1.6,1.9,3.3,3.5,5,4.8c1.3,1.9,2.7,3.7,4.3,5.3c0.8,0.8,1.4,1.4,1.9,1.8c0.1,0.1,0.1,0.1,0.2,0.2c0.6,0.7,1.3,1.4,2.1,2.2
			l0.4,0.4c1,1,2,1.9,2.7,2.5c0.2,0.2,0.4,0.4,0.7,0.6l0.1,0.1c0.4,0.5,1.1,1.2,2.1,2.2c3,2.9,6.4,5.2,10,6.8c2,3.4,4.7,6.6,8,9.2
			c0.9,0.7,1.6,1.2,2.1,1.6c0.1,0,0.1,0.1,0.2,0.1c0.7,0.6,1.5,1.2,2.3,1.9l0.4,0.3c1.1,0.9,2.2,1.6,3,2.2c0.2,0.2,0.5,0.3,0.7,0.5
			l0.1,0.1c0.5,0.4,1.3,1.1,2.3,1.9c1.4,1.1,2.8,2,4.2,2.8c1,0.9,2.1,1.8,3.2,2.6c1,0.7,1.9,1.2,2.4,1.6c0.1,0.1,0.2,0.1,0.3,0.2
			c0.6,0.4,1.1,0.8,1.8,1.3c3.7,2.6,7.7,4.3,11.8,5.2c2.6,3.4,6,6.3,10.1,8.5c0.6,0.3,1.2,0.6,1.7,0.9l0.4,0.2c0.8,0.4,1.4,0.7,2,1
			c0.7,0.4,1.8,1.1,3.1,1.8c0.4,0.2,0.8,0.4,1.2,0.6c0.7,0.5,1.8,1.2,3.2,1.9c3.2,1.7,6.4,2.9,9.8,3.5c3,2.3,6.4,4.3,10.1,5.9
			c0.5,0.2,1,0.4,1.5,0.6c0.6,0.3,1.2,0.6,1.9,0.9c0.8,0.3,1.5,0.6,2.1,0.8c0.5,0.3,1.2,0.6,1.9,0.9c3.1,1.3,6.2,2.2,9.4,2.6
			c2.3,1.4,4.7,2.6,7.4,3.4l0.2,0.1c0.7,0.2,1.5,0.5,2.3,0.7c0.3,0.1,0.6,0.2,0.9,0.3l0.3,0.1c0.9,0.4,2.2,0.9,4,1.5
			c3,1,5.9,1.5,8.8,1.7c2.6,1.4,5.4,2.5,8.4,3.1c0.9,0.2,1.7,0.4,2.4,0.5c0.7,0.2,1.5,0.4,2.5,0.6c1.2,0.3,2.5,0.5,3.7,0.6
			c1.2,0.4,2.4,0.8,3.7,1c1.1,0.2,2.1,0.4,2.8,0.5c0.6,0.2,1.3,0.4,2.2,0.6c2.2,0.5,4.4,0.7,6.5,0.8c0,0,0,0,0,0c0,0,0,0,0,0
			c4.4,1.7,8.4,2.2,10.9,2.5l0.5,0.1c1.9,0.3,3.9,0.4,5.7,0.4c4.6,0.1,9-0.6,13.1-1.8c4.4,2.4,9.5,3.9,15,4c0.1,0,0.1,0,0.2,0
			c0.7,0,1.3,0,2,0l0.4,0c0.9,0,1.6,0,2.2,0c0.8,0,1.9,0.1,3.3,0.1l0.3,0c0.4,0,0.9,0,1.3,0c0.8,0.1,2,0.2,3.5,0.2
			c0.1,0,0.2,0,0.3,0c2.3,0,4.7-0.2,6.9-0.7c1.2,0.1,2.3,0.2,3.5,0.3c1,0,2,0,3-0.1c0.9-0.1,1.8-0.2,2.5-0.3c0.7,0,1.6,0,2.6-0.1
			c1.3-0.1,2.5-0.3,3.7-0.5c0.2,0,0.5,0,0.7,0c1,0,2.1,0,3.1-0.1c1.1-0.1,2.1-0.2,2.9-0.3c0.6,0,1.4,0,2.3-0.1
			c1.8-0.1,3.6-0.4,5.3-0.9c0.1,0,0.1,0,0.2,0c1.9,0,3.8-0.1,5.7-0.4c1.1-0.2,2-0.4,2.6-0.5c0.1,0,0.1,0,0.2,0c1-0.1,1.9-0.2,3-0.4
			l0.5-0.1c1.4-0.2,2.7-0.5,3.7-0.7c0.3-0.1,0.6-0.1,0.9-0.2l0.1,0c0.6-0.1,1.7-0.2,3-0.4c5.6-0.9,10.7-3.2,15-6.6
			c0.2,0,0.4,0.1,0.6,0.1c1.8,0.3,3.6,0.5,5.5,0.5c4.2,0.1,8.4-0.5,12.8-1.8l0.3-0.1c3-0.9,6.4-2.1,9.9-4.2c2.7-0.3,5.3-1,7.9-2
			c1-0.4,1.9-0.8,2.4-1c0.1,0,0.1,0,0.2-0.1c0.9-0.3,1.8-0.6,2.8-1l0.5-0.2c1.4-0.5,2.5-1,3.4-1.4c0.3-0.1,0.5-0.2,0.8-0.4l0.1,0
			c0.6-0.2,1.6-0.5,2.8-1c4.2-1.6,7.9-4,11-7c7.4-0.6,13-3.6,16.2-5.3l0.4-0.2c4.6-2.4,8.5-5.4,11.6-8.8c4.3-1.1,8.5-3,12.6-5.7
			c1.4-0.9,2.5-1.7,3.4-2.4c0.7-0.5,1.1-0.8,1.4-0.9c0.1,0,0.2-0.1,0.2-0.1c0.5-0.3,1.5-0.8,2.6-1.6c2.2-1.4,4.1-3,5.9-4.8
			c1.8-0.9,3.5-2,5.1-3.3c0.7-0.6,1.3-1.1,1.8-1.5c0.6-0.4,1.5-1,2.5-1.8c1.1-0.8,2.1-1.8,3-2.7c1.1-0.7,2.2-1.5,3.2-2.3
			c0.4-0.3,0.8-0.6,1.1-0.9c0.7-0.5,1.6-1.1,2.6-1.9c2.9-2.3,5.3-5,7.2-8c3.7-1.9,7.2-4.4,10.4-7.5l0.2-0.2c2.3-2.2,4.8-4.9,6.9-8.4
			c2.3-1.5,4.4-3.4,6.2-5.5c0.5-0.6,1-1.1,1.2-1.5c0.3-0.3,0.5-0.6,0.7-0.9c0.5-0.5,1.4-1.4,2.3-2.5c0.9-1,1.7-2,2.4-3.1
			c0.9-0.8,1.7-1.7,2.5-2.6c0.6-0.7,1.2-1.4,1.7-2c0.3-0.3,0.6-0.7,0.9-1.1l0,0c0.5-0.5,0.9-1,1.4-1.6c1.6-1.9,3-3.9,4.1-6.1
			c1.5-1.4,2.8-3,4.1-4.7l0.1-0.2c0.5-0.6,0.9-1.3,1.4-1.9c0.2-0.3,0.4-0.5,0.5-0.8l0.2-0.3c0.6-0.7,1.5-1.8,2.6-3.3
			c3-4.1,4.7-8.2,5.6-11.9c3.1-2.5,5.9-5.5,8.1-9.2c0.4-0.7,0.8-1.3,1-1.8c0.4-0.6,0.9-1.4,1.5-2.3c0.9-1.6,1.7-3.2,2.4-4.8
			c1-1.4,1.9-2.8,2.6-4.3c0.4-0.8,0.8-1.6,1.1-2.3c0.1-0.3,0.2-0.5,0.4-0.8c0.3-0.5,0.8-1.4,1.4-2.5c0.5-1.1,1-2,1.4-2.9
			c0.2-0.4,0.4-0.8,0.6-1.2l0.7-1.4c1.9-3.7,3-7.7,3.4-11.7c2.8-3,5.1-6.7,6.6-10.8c0.3-0.9,0.6-1.6,0.8-2.4
			c0.1-0.3,0.2-0.5,0.3-0.8c0.3-0.6,0.6-1.5,1.1-2.7c0.4-1.1,0.7-2.1,1.1-3.1c0.1-0.4,0.3-0.8,0.4-1.3l0.5-1.4
			c1.1-3.1,1.8-6.3,2-9.6c2.1-3.4,3.8-7.2,5-11.4l0.1-0.3c1.4-5,2.6-11.5,0.9-19.4c3.2-4.2,5.4-9.4,6.2-15.1
			c0.1-0.7,0.2-1.3,0.2-1.9l0.1-0.5c0.1-0.8,0.2-1.6,0.2-2.2c0.2-0.8,0.4-2.1,0.6-3.6c0.1-0.4,0.1-0.9,0.2-1.3
			c0.2-0.9,0.5-2.2,0.7-3.7c0.2-1.8,0.3-3.6,0.3-5.3c0.8-3,1.1-5.7,1.2-7.7l0-0.2c0.1-2.2,0.2-6.8-0.9-12.1c0.6-2.1,1-4.3,1.1-6.6
			c0-0.7,0.1-1.3,0.1-2l0-0.5c0.1-0.7,0.2-1.6,0.3-2.6c0.1-1.5,0.1-3,0-4.5c0.3-1.4,0.5-2.9,0.6-4.4c0.1-1.2,0.1-2.2,0.1-2.9
			c0.1-0.8,0.2-1.6,0.3-2.6l0-0.2c0.1-0.9,0.1-1.8,0-2.6c0.4-1.4,0.7-2.8,1-4.2l0-0.1c0.1-0.8,0.2-1.6,0.4-2.4
			c0-0.3,0.1-0.6,0.1-0.9l0.1-0.3c0.2-0.9,0.6-2.3,0.9-4.1c0.5-2.8,0.6-5.5,0.4-7.9c1.3-2.4,2.4-5,3.2-7.9c0.2-0.8,0.4-1.5,0.5-2.1
			c0.2-0.7,0.5-1.6,0.8-2.6c0.4-1.4,0.6-2.7,0.8-4.1c0.6-1.2,1.1-2.4,1.6-3.6c0,0,0.1-0.2,0.1-0.2c0.3-0.7,0.5-1.5,0.8-2.2
			c0.1-0.3,0.2-0.6,0.3-0.9l0.1-0.3c0.4-0.9,1-2.2,1.6-3.9c0.9-2.3,1.4-4.6,1.8-6.7C507.5,216.4,508.7,214.1,509.3,213z"/>
		<path class="st2" d="M611.9,74.5c0.4-0.1,0.8-0.2,1.2-0.3l1.3-0.4c0.6-0.2,1.1-0.3,1.7-0.5l0.1,0c1.1-0.3,1.2-1,1-1.6l-0.3-0.9
			c-0.2-0.5-0.2-0.8-0.4-1.3c-0.5-1.5-1.9-0.9-2.1-0.9c-0.5,0.2-0.9,0.3-1.4,0.4c-0.4,0.1-0.6,0.1-1,0.2c-0.3,0.2-0.7,0.3-1,0.4
			c-1.2,0.3-1.7-0.5-1.9-0.9c-0.2-0.5-0.2-0.8-0.3-1.3l-0.3-0.9c-0.8-2.5-1.5-3.9,0.7-4.5c0.9-0.3,1.7-0.3,2.6-0.6
			c1.7-0.5,1.4-2,1.2-2.5l-0.7-2.2c-0.3-1.1-0.6-1.8-0.9-2.9c-0.1-0.5-0.2-0.8-0.3-1.3c-0.2-0.8-0.6-1.2-0.8-1.9l0-0.1
			c-0.1-0.4-0.4-1.8,1.1-2.3c1-0.3,1.7-0.4,2.7-0.7c0.9-0.3,1.4-0.5,2.3-0.8c1.4-0.4,1.9,0.5,2.1,1.1c0.4,1.4,0.6,2.4,1,3.9
			c0.8,2.6,1.5,4.4,2.2,7c0.6,1.9,0.8,3.3,1.4,5.2c0.6,1.8,1.1,3.1,1.7,4.9c0.5,1.6,0.7,2.7,1.2,4.3c0.3,0.9,0.6,1.5,0.8,2.4
			c0.6,2-0.2,2.7-1.3,3l-1.5,0.5c-1.6,0.5-2.8,0.9-4.4,1.4c-0.9,0.3-1.5,0.4-2.4,0.6c-1.3,0.4-2.2,0.7-3.6,1.2
			c-0.4,0.1-1.3,0.4-1.7-0.8c-0.1-0.4-0.1-0.6-0.2-1l-0.2-0.8c-0.3-0.9-0.5-1.5-0.8-2.4C610.6,76,610.2,75,611.9,74.5z"/>
		<path class="st2" d="M578.8,60.6l0.2-0.1c0.7-0.3,1.2-0.4,2-0.7c0.9-0.4,1.4-0.6,2.2-1c0.5-0.2,0.8-0.4,1.3-0.6
			c1.4-0.6,2,0.5,2.8,1.3c0.9,0.9,1.6,1.3,2.5,2.1c0.6,0.6,0.9,1,1.6,1.5c0.6,0.5,1.1,1,1.6,0.9c0.7-0.3,0.2-1.1,0.1-1.3
			c-0.4-0.9-0.7-1.5-1-2.3c-0.3-0.7-0.4-1.1-0.7-1.8c-0.3-0.6-0.5-1-0.8-1.7c-0.4-1,0.1-1.4,0.6-1.6c0.9-0.4,1.6-0.5,2.6-0.9
			c1.1-0.4,1.8-1,2.9-1.4c1-0.4,1.7,0.1,2.1,0.9c0.3,0.7,0.4,1.1,0.6,1.7c0.4,1.1,0.7,1.9,1.2,3c0.9,2.1,1.7,3.6,2.6,5.8
			c0.9,2.2,1.5,3.9,2.4,6.1c0.6,1.4,1.1,2.4,1.7,3.8c0.6,1.5,1,2.6,1.6,4.2c0.4,0.9,0.8,1.5,1.1,2.4c0.4,0.9,0.6,2.3-1.4,3.2
			c-0.9,0.4-1.6,0.5-2.5,0.9c-2.2,0.9-3.7,1.7-5.9,2.6c-2.5,1-6.1,2-9.5-0.5c-0.2-0.2-0.6-0.5-0.8-0.7c-0.3-0.3-0.7-0.6-1.2-1.3
			c-0.7-0.9-2.1-3.8-2.5-4.8c-0.3-0.7-2-4.5-0.8-8.4c0.1-0.5,0.3-0.8,0.4-1.2c0.1-0.4,0.3-0.5,0.4-0.8c0-0.1,0.1-0.3,0-0.5
			c-0.3-0.6-3.1-2.8-3.7-3.3c-0.5-0.5-0.9-0.9-1.4-1.3c-0.9-0.8-1.6-1.3-2.4-2.1c-0.1-0.2-0.4-0.4-0.5-0.8
			C577.6,61.1,578.7,60.6,578.8,60.6z M598.2,80l0.2-0.1c0.3-0.2,0.6-0.4,0.7-0.6c0.3-0.6,0.2-1.2,0.2-1.3c0-0.2-1.3-3.7-1.4-3.8
			c-0.4-1.1-1.5-1.9-2.8-1.3c-0.6,0.3-1,0.6-1.1,1c-0.5,1,0,2.4,0.7,4C595.1,79,596.4,80.8,598.2,80z"/>
		<path class="st2" d="M557.9,79.6c-0.1-0.2-0.6-1.8-0.6-3c-0.1-1.5,0.3-3.2,1.1-4.6c0.2-0.3,0.5-0.7,1-1.3c1.1-1.3,1.9-1.8,3.3-2.5
			c2.4-1.3,6.4-2.8,9.9-1.1c1.2,0.5,3.1,2.4,3.7,3.2c0.6,0.7,2.2,3.3,2.6,4c0.6,1.1,1,1.9,1.6,3c0.5,0.9,0.9,1.5,1.3,2.3
			c3.2,5.8,4.6,9.2,2.8,13.2c-1,2.1-1.9,3.2-4.9,4.8l-0.2,0.1c-1.4,0.8-3,1.4-4.6,1.5c-0.9,0.1-3.6-0.3-4.4-0.6
			c-2.5-0.9-4.9-3.8-7.3-8.2C559.9,84.9,558.7,83.1,557.9,79.6z M570,85.4c0.4,0.7,0.6,1.3,1,2c0.3,0.6,1.7,2.9,2.4,3.3
			c0.6,0.3,1.2,0.7,2.1,0.2c0.1,0,0.2-0.1,0.2-0.2c0.3-0.2,0.5-0.4,0.6-0.7c0.5-1,0.2-2.1-0.6-3.5c-0.6-1.1-1.1-1.9-1.7-3
			c-1.2-2.2-1.9-3.8-3.1-6c-0.6-1-1.9-3.9-4-2.8c-1.9,1-1,2.9-0.4,4c0.4,0.7,0.7,1.2,1.1,1.9c0.5,1,0.8,1.8,1.3,2.8
			C569.3,84.3,569.7,84.7,570,85.4z"/>
		<path class="st2" d="M541.9,115c-0.7-1-1.2-1.7-2-2.7c-1.7-2.4-2.9-4.2-4.6-6.7l-0.2-0.3c-0.8-1.1-1.7-2.2-2.5-3.3
			c-1.3-1.8-2.1-3.1-3.3-4.9c-0.7-1-1.4-1.6-2.1-2.6c-0.8-1.2-1.1-1.7-0.2-2.4c1-0.7,1.8-1.1,2.8-1.8c0.7-0.5,1.1-1,1.9-1.5
			c1.2-0.9,2-0.2,2.4,0.3c0.6,0.8,0.9,1.6,1.5,2.4l0.7,1c0.2,0.3,0.3,0.6,0.6,0.9c0.4,0.5,0.7,0.8,1,1.3c0.3,0.4,0.4,0.8,0.7,1.3
			c0.6,0.8,1.1,1.4,1.7,2.2c0.3,0.5,0.5,0.8,0.8,1.2c0.2,0.2,0.3,0.4,0.4,0.5l0.1,0.2c0.1,0.1,0.1,0.2,0.3,0.1
			c0.4-0.3-0.4-2.4-0.5-2.6c0,0-0.9-4.7-0.9-4.8c0-0.3,0-0.7,0.4-1c0.2-0.1,0.6-0.4,0.8-0.4c0.7,0,2.1,0.8,3.7,1.5
			c0.4,0.2,0.7,0.3,1.1,0.5c0.5,0.2,0.8,0.5,1.3,0.7c0.6,0.3,1.6,0.9,1.7,0.7c0.1-0.1,0-0.4-0.1-0.6l-0.2-0.2
			c-0.8-1.2-1.3-2.1-2.1-3.3c-0.5-0.7-0.9-1.2-1.4-1.8c-0.6-0.9-1-1.5-1.6-2.5l-0.6-0.8c-0.6-0.8-1.1-1.3-1.6-2.1
			c-0.9-1.3-0.4-1.9,0.3-2.3c0.6-0.4,1.1-0.7,1.7-1.1c0.7-0.5,1.1-0.8,1.7-1.3c0.3-0.2,0.5-0.5,0.8-0.7c1.4-1,2,0,2.4,0.5
			c0.4,0.6,0.7,1.1,1.1,1.7c0.6,0.9,0.9,1.5,1.5,2.3c1.3,1.8,2.4,3.1,3.7,4.9c1.3,1.9,2.1,3.3,3.4,5.1c1.3,1.8,2.2,3,3.5,4.8
			c0.6,0.8,0.9,1.5,1.5,2.3c0.9,1.4,1.8,2.1,2.8,3.5c0.8,1.2-0.4,1.9-0.6,2.1c-1.1,0.8-2,1.3-3.1,2.1c-0.5,0.4-0.8,0.6-1.3,1
			c-1.4,1-1.9,0.1-3.7-1c-1.4-0.9-2.6-1.3-4.1-2c-0.7-0.3-1.1-0.6-1.7-1c-0.2-0.1-1.7-1-2-0.7c-0.4,0.3,0.1,2.2,0.2,2.4
			c0.2,1,0.2,1.8,0.4,2.8c0.2,1,0.5,1.8,0.7,2.8c0,0,0.5,2.9,0.4,3c-0.1,0.4,0,0.3-0.2,0.8c0,0.1-0.8,0.7-1.2,1
			c-0.8,0.5-1.4,0.8-2.1,1.4c-0.8,0.6-1.3,1-2.1,1.6c-0.7,0.5-1.2,0.2-1.6-0.4C543.4,117.6,542.9,116.4,541.9,115z"/>
		<path class="st2" d="M517.9,133.9c0.3-0.3,0.6-0.5,0.9-0.9c1-0.9,0.9-1.7-0.5-3c-1.1-1.1-2-1.8-3.1-3c-1.3-1.4-2.2-2.4-3.5-3.8
			c-1.2-1.2-2.1-2.1-3.3-3.3c-0.7-0.7-1.3-1.4-2-2.1c-0.6-0.6-1-1-1.7-1.6c-0.4-0.3-0.7-0.5-1.1-0.9c-1-1.1-0.1-2.1,0.2-2.4
			c0.4-0.4,0.7-0.6,1.1-1c0.6-0.5,1-0.9,1.5-1.4c0.5-0.5,0.8-0.9,1.2-1.3c0.7-0.7,1.4-0.9,2.5,0.2c1.1,1.1,1.6,2,2.7,3.1
			c1,1,1.8,1.7,2.9,2.7c1.2,1.2,1.9,2.2,3,3.5c0.9,0.9,1.5,1.4,2.4,2.2c2.1,2,3.2,4.3,4.8,4.2c0.3,0,0.4-0.1,0.5-0.1
			c0.4-0.1,0.8-0.5,1-0.7c0.3-0.3,0.4-0.5,0.7-0.7c0.9-0.9,1.7-0.5,2.1-0.1c0.8,0.8,1.3,1.5,2.2,2.3c0.6,0.6,1,0.9,1.6,1.5
			c0.8,0.8,0.8,1.5-0.1,2.3c-0.8,0.8-1.4,1.2-2.1,2c-1.1,1.1-2.2,2.3-3.3,3.4l-0.4,0.4c-0.9,0.9-1.7,1.5-2.7,2.5
			c-0.6,0.6-0.9,1.1-1.5,1.6c-1.3,1.3-2.3,0.3-3.1-0.6c-0.7-0.7-1-1.1-1.7-1.8c-0.5-0.5-0.8-0.7-1.2-1.2
			C517.7,135.8,516.9,134.9,517.9,133.9z"/>
		<path class="st2" d="M483.1,135.9c0.5-0.6,1-1,1.5-1.6c0.7-0.9,1.2-1.6,1.9-2.5c1-1.1,2-0.3,2.3-0.1c0.6,0.5,0.9,0.9,1.4,1.4
			c0.4,0.3,0.6,0.5,1,0.8c1.4,1.2,2.2,2.1,3.6,3.2c2.1,1.8,2.9,1,3.8-0.2c0.5-0.6,0.6-1,0.5-1.6c-0.1-0.6-1.8-2.2-2.1-2.5
			c-0.7-0.6-1.5-1.1-2.2-1.8c-0.8-0.6-1.3-1.1-2-1.8c-0.5-0.4-0.9-0.7-1.3-1.1c-0.9-0.8-0.6-1.6-0.2-2c0.6-0.8,1.2-1.2,1.8-1.9
			c0.4-0.5,0.6-0.8,1-1.3c0.2-0.3,0.4-0.6,0.6-0.8c1.1-1.3,2.2-0.5,2.7-0.1c1,0.8,1.5,1.6,2.5,2.4l0.1,0.1c1.1,0.9,1.8,1.6,2.9,2.5
			c1.6,1.3,2.8,2.2,4.3,3.5c1.3,1.1,2.1,2,3.4,3.2c0.7,0.6,1.3,1,2,1.5c1,0.8,1.7,1.4,2.7,2.2c0.9,0.7,1.4,1.3,2.3,2
			c0.8,0.7,1.5,1,2.3,1.7c0.4,0.4,1.1,1.2,0.2,2.3c-0.6,0.7-1.1,1.2-1.8,1.9c-0.6,0.7-0.9,1.3-1.5,2c-1,1.2-1.8,0.8-2.4,0.3
			c-0.8-0.6-1.1-1.2-1.9-1.9c-0.8-0.7-1.5-1.1-2.3-1.8c-0.9-0.8-1.5-1.3-2.4-2.1l-0.1-0.1c-1.3-1.1-2-0.5-2.9,0.5
			c-0.7,0.9-0.8,1.2-0.6,1.9c0.1,0.3,1.8,1.9,2,2.1c0.8,0.7,1.4,1,2.3,1.7c0.4,0.4,0.9,0.8,1.3,1.2c0.6,0.5,1.2,0.8,1.8,1.4
			c1.2,1,0.5,2,0.2,2.4c-0.7,0.8-1.2,1.2-1.9,2.1c-0.5,0.6-0.8,1.2-1.4,1.8c-1.3,1.5-2.5,0.4-2.8,0.1c-1.4-1.2-2.2-2.2-3.6-3.3
			c-0.4-0.3-0.7-0.5-1.1-0.8c-0.7-0.6-1.1-1-1.8-1.6c-1.1-1-2-1.6-3.1-2.6c-1.4-1.2-2.3-2.1-3.7-3.3c-1.7-1.4-3-2.2-4.6-3.6
			c-0.8-0.7-1.4-1.2-2.2-1.9c-0.7-0.6-1.4-0.9-2.1-1.6C482.4,137.4,482.5,136.6,483.1,135.9z"/>
		<path class="st2" d="M471.5,159c-0.7-0.5-1.1-0.7-1.8-1.2c-0.5-0.3-1.4-1.2-0.5-2.5c0.4-0.5,0.7-0.9,1.1-1.4l0.6-0.9
			c0.6-0.9,1.2-1.5,1.8-2.5c0.4-0.5,0.6-1,1-1.5l2.9-4.1c0.2-0.4,0.4-0.7,0.6-1.1c0.3-0.5,1.4-1.4,2.7-0.5c1,0.7,1.7,1.3,2.7,2
			c0.9,0.6,1.6,1,2.5,1.7c0.7,0.5,1.1,0.9,1.7,1.4s1.2,0.7,1.8,1.2c1.3,0.9,2.1,1.6,3.4,2.5c1.2,0.8,2.3,1.5,3.5,2.3
			c1.6,1.1,2.6,1.9,4.2,3c1.1,0.8,1.9,1.2,3,2c2.2,1.6,2.7,2.3,1.5,4c-0.7,1-1.4,1.6-2.1,2.6c-0.3,0.5-0.6,1-1,1.5
			c-0.9,1.2-1.6,2-2.4,3.3c-0.4,0.5-0.6,1-0.9,1.5l-0.5,0.8c-0.3,0.4-0.5,0.8-0.8,1.2c-0.8,1.2-1.8,0.6-2.2,0.3
			c-0.7-0.5-1.2-1-1.9-1.5c-1-0.7-3.2-1.6-1.8-3.5l0.3-0.4c0.3-0.5,0.5-0.8,0.8-1.3c0.4-0.6,0.8-1,1.3-1.6c1.5-2.1,0.9-2.7-0.4-3.6
			c-1.3-0.9-2.3-0.9-2.9,0c-0.3,0.4-0.4,0.8-0.7,1.2l-0.1,0.1c-0.4,0.6-0.7,0.9-1.1,1.4c-0.3,0.5-0.5,0.8-0.8,1.3
			c-1.1,1.6-2.1,0.8-2.7,0.4c-0.6-0.4-1-0.7-1.6-1.2c-0.6-0.4-1-0.6-1.6-1c-1.5-1-0.8-2.2-0.5-2.7c0.8-1.2,1.5-1.9,2.4-3.1
			c1.5-2.1,0.1-2.8-0.7-3.4l-0.5-0.3c-0.2-0.1-0.9-0.6-1.2-0.7c-1.5-0.2-1.6,0.5-2.7,1.9c-0.6,0.6-1,1-1.4,1.7
			c-0.4,0.6-0.6,1.1-1,1.7c-0.3,0.4-1.2,1.3-2.4,0.5C472.5,159.8,472.1,159.4,471.5,159z"/>
		<path class="st2" d="M454.4,194.7c-0.3-0.3-0.8-0.7-1-1c-0.1-0.1-0.4-0.4-0.5-0.8c-1-1.9-1.4-5.2,0.3-8.6l0.2-0.5
			c0.9-1.9,1.5-3.1,2.4-5c0.3-0.7,0.6-1.1,1-1.8c0.4-0.8,0.6-1.4,1-2.2c0.9-1.7,2.4-0.9,2.7-0.7c1,0.5,1.6,1,2.6,1.5
			c1.6,0.8,2.8,1.2,4.3,2c1.1,0.5,1.9,0.9,3,1.4c1,0.5,2,1.1,3,1.7c1.8,1,3.2,1.3,5.1,2.3c1.3,0.6,2.1,1.3,3.4,2
			c1.4,0.7,2.5,1,3.9,1.7c2.4,1.2,1.9,2.3,1.3,3.6c-0.3,0.6-0.6,1.2-0.9,1.7c-0.5,1-0.7,1.7-1.2,2.6c-0.4,0.7-0.7,1.1-1,1.9
			l-0.8,1.6c-0.3,0.6-0.4,1.1-0.7,1.7c-0.4,0.9-1.9,2.9-2.9,3.5c-0.5,0.3-1.7,0.6-1.7,0.6c-0.5,0.2-0.9,0.4-1.8,0.4
			c-0.7,0-1.5-0.3-2.1-0.4c-0.3,0-1.2-0.1-2.1-0.6c-0.7-0.3-1.1-0.6-1.8-0.9c-1.1-0.6-2.4-2.2-2.9-3.8c-0.1-0.4-0.2-0.8-0.3-1.3
			c0,0,0-0.3-0.2-0.4c-0.3-0.1-0.5,0.3-1,0.5c-0.7,0.3-1.3,0.7-2.9,0.9c-1.5,0.2-3.3,0-5.8-1.3C455.5,196.2,454.9,195.3,454.4,194.7
			z M466.2,188.2l0.1-0.3c0.1-0.3,0.2-0.6,0.1-0.9c0-0.5-0.3-0.8-0.4-0.9c-0.1-0.1-2.5-1.4-2.6-1.4c-0.9-0.4-2.1-1.2-3.2,0.9
			c-0.5,1.1-0.4,2.8,1.7,3.8C464.3,190.5,465.7,189.2,466.2,188.2z M478.1,193.7c0.1-0.3,0.2-0.5,0.2-0.8c0-1.1-1.1-1.5-1.2-1.6
			c-1.2-0.6-3-1.7-4.1,0.4c-0.7,1.5,0,2.8,1.3,3.5C475.5,195.7,477.1,195.9,478.1,193.7z"/>
		<path class="st2" d="M439.6,216.9c0.4-1.1,0.8-1.8,1.2-2.8c0.3-0.9,0.5-1.5,0.8-2.4c0.6-1.6,1.7-0.9,2.2-0.9
			c0.4,0.1,2.9,0.9,3.5,0.7c0.3-0.1,0.1-0.1,0.4-0.3c0.1-0.1,0.7-1.7,1.1-2.7c0.6-1.7,0.1-1.7-0.8-2.2c-0.3-0.2-2.8-1.2-3.1-1.6
			c-0.3-0.5-0.4-0.8-0.1-1.5c0.3-0.8,0.6-1.4,0.9-2.2c0.3-0.9,0.6-1.8,0.9-2.7c0.3-0.8,0.7-1.6,1.9-1.2c0.4,0.1,1.1,0.6,2,1.1
			c1.1,0.6,1.8,0.9,2.9,1.6c0.9,0.5,1.6,1,2.5,1.5c1.4,0.8,2.4,1.2,3.7,2c1.4,0.8,2.2,1.4,3.6,2.1c1,0.5,1.7,0.8,2.7,1.4
			c1.1,0.7,1.9,1.2,3,1.9c1.7,1,3,1.5,4.7,2.6c1.1,0.7,2.1,1.5,2.3,2c0.2,0.6,0.1,1.1-0.2,2.1c-0.6,1.5-1.1,2.5-1.7,4
			c-0.4,1.1-0.8,2.3-1.2,3.4l-0.1,0.2c-0.4,1.1-0.7,1.4-1.6,1.6c-0.1,0.1-0.5,0-0.6,0c0,0-4.4-0.7-4.4-0.7c-1.5-0.3-2.5-0.6-4-0.9
			c-1.8-0.3-3.1-0.5-4.9-0.8c-1.5-0.2-2.6-0.4-4-0.7c-1.9-0.4-3.2-0.9-5.1-1.3c-2.8-0.6-6.5-1-7.1-1.2
			C440.7,219,439.1,218.2,439.6,216.9z M462.7,215.6c0.7,0.2,1.7,0.4,1.9,0.4c0.3,0,0.6-0.1,0.6-0.3c0-0.1-0.1-0.4-0.3-0.5
			c-0.2-0.2-1.5-1-1.7-1.1c-0.5-0.3-0.8-0.6-1.3-0.9c-0.3-0.2-3.7-2-4-2.1c-1.4-0.5-1.7,0.1-2,0.8c-0.2,0.6-0.6,1.7,1,2.3
			C459.2,215,462.1,215.4,462.7,215.6z"/>
		<path class="st2" d="M435.6,239.2L435.6,239.2c-0.6-0.2-2.1-0.3-1.6-2c0.2-0.9,0.5-1.4,0.7-2.2c0.2-0.8,0.3-1.3,0.5-2.1
			c0.2-0.8,0.4-1.3,0.6-2l0.9-3.4c0.3-1,0.4-1.7,0.6-2.7c0.4-1.6,1.6-1.4,2.2-1.3l0.4,0.1c1.7,0.4,2.8,0.9,4.5,1.3
			c1.8,0.5,3.1,0.7,4.9,1.2c1.4,0.4,2.4,0.8,3.8,1.2c1.1,0.3,1.9,0.4,3,0.7c0.7,0.2,1.4,0.5,2.2,0.7c1.1,0.3,2,0.4,3.1,0.7
			c1.1,0.3,1.9,0.6,3,0.9c1.2,0.3,2.3,0.5,3.5,0.8l0.2,0c0.5,0.1,1.9,0.5,1.4,2.2c-0.2,0.8-0.5,1.4-0.7,2.2
			c-0.2,0.8-0.3,1.7-0.6,2.5c-0.2,0.8-0.5,1.9-1.8,1.6c-0.6-0.2-1-0.4-1.5-0.5c-1.2-0.4-2.1-0.7-3.4-1c-1.2-0.3-2.1-0.4-3.3-0.8
			c-0.9-0.2-1.8-0.6-2.7-0.8c-0.7-0.2-1.5-0.3-2.3-0.5c-1.3-0.4-2.2-0.7-3.6-1c-0.8-0.2-1.4-0.3-2.3-0.5c-0.4-0.1-0.8-0.3-1.2-0.4
			c-2.4-0.6-3,1-3.3,1.9c-0.2,0.8-0.4,1.3-0.5,2c-0.1,0.4-0.1,0.6-0.2,1c-0.1,0.4-0.3,0.9-0.9,1.2c-0.7,0.4-3.2-0.4-3.8-0.5
			C436.7,239.5,436.3,239.3,435.6,239.2z"/>
		<path class="st2" d="M428.8,264.9c0.2-1.1,0.5-1.9,0.6-3c0.2-0.9,0.2-1.6,0.3-2.5c0.3-1.7,1.5-1.2,2-1.2c0.4,0,3,0.4,3.5,0
			c0.3-0.2,0.1-0.1,0.3-0.3c0.1-0.1,0.4-1.8,0.6-2.9c0.3-1.8-0.2-1.7-1.2-2.1c-0.4-0.1-3-0.6-3.4-1c-0.4-0.4-0.5-0.7-0.4-1.4
			c0.1-0.9,0.3-1.5,0.4-2.4c0.2-0.9,0.3-1.9,0.4-2.8c0.1-0.8,0.4-1.7,1.6-1.5c0.4,0.1,1.2,0.4,2.2,0.7c1.2,0.4,2,0.6,3.1,1
			c1,0.4,1.7,0.7,2.8,1c1.5,0.5,2.5,0.8,4,1.3c1.5,0.5,2.5,0.9,4,1.4c1,0.3,1.8,0.5,2.9,0.9c1.2,0.4,2.1,0.9,3.3,1.3
			c1.9,0.7,3.3,0.9,5.1,1.7c1.2,0.5,2.3,1,2.6,1.5c0.3,0.5,0.3,1.1,0.2,2.1c-0.3,1.6-0.6,2.7-0.9,4.2c-0.2,1.2-0.3,2.4-0.5,3.5
			l0,0.2c-0.2,1.2-0.4,1.5-1.3,1.9c-0.1,0.1-0.5,0.1-0.6,0.1c0,0-4.4,0.1-4.5,0.1c-1.5,0-2.6-0.1-4.1-0.1c-1.9,0-3.1,0-5,0.1
			c-1.5,0-2.6,0.1-4.1,0.1c-1.9,0-3.3-0.3-5.2-0.3c-2.9,0-6.6,0.2-7.2,0.1C430.3,266.7,428.6,266.3,428.8,264.9z M451.3,259.2
			c0.8,0,1.7,0.1,1.9,0c0.3,0,0.6-0.2,0.6-0.4c0-0.1-0.2-0.4-0.4-0.4c-0.2-0.1-1.7-0.7-1.9-0.7c-0.5-0.2-0.9-0.4-1.5-0.6
			c-0.4-0.1-4-1.3-4.3-1.3c-1.4-0.2-1.7,0.4-1.8,1.2c-0.1,0.6-0.3,1.8,1.4,2C447.7,259.4,450.6,259.2,451.3,259.2z"/>
		<path class="st2" d="M426.9,291.9c0.1-0.8,0.2-1.4,0.2-2.2c0.1-1.3,0-2.2,0.1-3.5c0.1-1,1.3-1.1,2.6-1.5c1.1-0.4,1.8-0.8,2.9-1.1
			c1.1-0.4,1.8-0.5,2.9-0.9c0.8-0.3,1.4-0.6,2.2-0.9c0.8-0.3,1.3-0.4,2.1-0.6c0.9-0.2,2.3-0.6,2.3-0.8c0-0.1-0.2-0.2-0.4-0.2
			c-0.6,0-1,0.1-1.7,0.1c-1.2,0.1-2,0.1-3.2,0c-1.5-0.1-2.6-0.3-4.1-0.4c-1.5-0.1-2.4,0.1-3.9,0c-1.2-0.1-1.3-0.7-1.3-1.7
			c0.1-1.2,0.2-2,0.3-3.2c0.1-0.8-0.1-1.5,0-2.3c0.1-1.4,1.6-1.2,1.7-1.2c2,0.1,3.4,0.5,5.3,0.6c0.6,0,1,0,1.5,0
			c1.3,0.1,2.2,0.1,3.5,0.2c1.1,0.1,1.9,0.1,3,0.2c0.9,0.1,1.5,0.2,2.4,0.3c0.9,0.1,1.5,0,2.3,0l2.4,0.1c1.7,0.1,2.9,0.2,4.7,0.4
			c1.8,0.2,3.1,0,4.9,0.2c0.2,0,1.2,0.1,1.3,1.2l0,0.2c0,0.4-0.1,0.6-0.2,1.1c-0.1,0.6-0.1,1.1-0.1,1.7c-0.1,1,0,1.7,0,2.7
			c0,0.5-0.2,0.7-0.5,1c-0.6,0.6-4,1.6-4.5,1.8c-0.7,0.2-1.1,0.4-1.8,0.6c-0.5,0.2-0.8,0.4-1.3,0.6c-0.5,0.2-0.9,0.2-1.4,0.4
			c-0.4,0.1-0.6,0.3-1,0.4c-0.6,0.2-1.1,0.4-1.8,0.6c-0.9,0.2-2.4,0.6-2.4,0.8c0,0.2,1.1,0.3,1.7,0.3c0.7,0,1.2-0.1,2,0
			c0.7,0,1.2,0.2,2,0.2c2,0.1,3.5,0,5.5,0.1c0.4,0,1.8,0.1,2.2,0.4c0.2,0.2,0.3,0.3,0.4,0.5c0.1,0.2,0.3,0.7,0.3,1.2
			c0,0.7-0.2,1.1-0.2,1.8l-0.1,1.8c0,0.6,0,0.9,0,1.5c-0.1,0.8-0.5,1.2-1.4,1.2c-1.4-0.1-2.4-0.3-3.8-0.4c-2.1-0.1-3.5-0.1-5.5-0.2
			c-2.2-0.1-3.7-0.4-5.9-0.5c-2.2-0.1-3.7,0-5.9-0.2c-2-0.1-3.4-0.4-5.4-0.5c-1-0.1-1.7-0.2-2.7-0.1c-0.4,0-0.8,0.1-1.2,0.1
			C426.9,293.6,426.9,292.6,426.9,291.9z"/>
		<path class="st2" d="M455.1,315.8c-1.3-0.1-2.2-0.1-3.5-0.2c-0.3,0-1.9-0.1-1.8-1.7c0-0.6,0.3-1,0.3-1.6c0-0.3-0.6-2.2-0.8-2.4
			c-1.1-1.6-3.7-2.3-7.1-2.5c-2.9-0.2-4.8,0.4-6,1.6c-0.1,0.1-1.6,1.8-1.6,3c0,0.5,0.1,0.8,0.1,1.3c0,0.1-0.1,0.6-0.6,0.9
			c-0.3,0.2-0.6,0.2-1.1,0.2c-0.9-0.1-1.5-0.2-2.3-0.2c-1.2-0.1-2,0-3.2-0.1c-2-0.1-1.9-1.7-1.8-2.2c0-0.3,0.4-3.5,0.4-3.8
			c0.1-0.1,0.6-2.6,1.8-4c1-1.3,2.3-2.2,2.7-2.5c0.2-0.2,1.2-0.8,1.5-1c0.1-0.1,3.2-1.4,5-1.7c0.9-0.1,2.4-0.1,3.3-0.1
			c1.5,0,2.4-0.1,3.9,0c3.6,0.2,6.9,1.3,8,1.7c0.5,0.2,2.8,1.2,4.4,3.3c0.2,0.2,2,3.3,2.1,3.5c0.7,1.5,0.9,4.2,0.8,5.7l0,0.3
			c-0.1,1.1,0,2.9-1.9,2.8C456.7,316,456.1,315.9,455.1,315.8z"/>
		<path class="st2" d="M427.2,335c-0.8-0.1-1.4-0.1-2.1-0.2c-0.6-0.1-1.8-0.4-1.6-2.1c0.1-0.7,0.2-1.1,0.3-1.8l0.2-1.1
			c0.2-1.1,0.4-1.9,0.5-3c0.1-0.7,0.1-1.1,0.2-1.8l0.7-5c0-0.5,0-0.8,0.1-1.3c0.1-0.6,0.6-1.9,2.2-1.6c1.2,0.2,2.1,0.4,3.3,0.6
			c1.1,0.2,1.9,0.2,3,0.4c0.8,0.1,1.4,0.3,2.2,0.4c0.8,0.1,1.4,0.1,2.2,0.2c1.5,0.2,2.6,0.5,4.1,0.7c1.4,0.2,2.8,0.3,4.2,0.5
			c1.9,0.2,3.2,0.5,5.1,0.8c1.3,0.2,2.3,0.2,3.6,0.4c2.7,0.4,3.4,0.8,3.2,2.9c-0.2,1.2-0.5,2.1-0.6,3.3c-0.1,0.6-0.1,1.2-0.2,1.7
			c-0.2,1.5-0.5,2.5-0.7,4c-0.1,0.7-0.1,1.1-0.1,1.8l-0.1,0.9c-0.1,0.5-0.1,0.9-0.2,1.4c-0.2,1.4-1.3,1.3-1.8,1.3
			c-0.8-0.1-1.6-0.4-2.4-0.5c-1.3-0.2-3.6,0-3.2-2.3l0.1-0.5c0.1-0.6,0.1-1,0.2-1.5c0.1-0.7,0.3-1.2,0.4-2c0.4-2.6-0.4-2.8-2-3
			c-1.6-0.2-2.5,0.2-2.6,1.3c-0.1,0.5,0,0.9-0.1,1.4l0,0.1c-0.1,0.7-0.3,1.1-0.3,1.8c-0.1,0.6-0.1,1-0.2,1.5
			c-0.3,1.9-1.6,1.6-2.2,1.5c-0.7-0.1-1.2-0.2-1.9-0.3c-0.7-0.1-1.2-0.1-1.9-0.2c-1.8-0.2-1.7-1.6-1.6-2.2c0.2-1.4,0.5-2.4,0.7-3.8
			c0.4-2.6-1.2-2.6-2.2-2.7l-0.6-0.1c-0.2,0-1.1-0.2-1.4-0.1c-1.4,0.5-1.2,1.2-1.5,2.9c-0.2,0.8-0.4,1.4-0.5,2.2
			c-0.1,0.7,0,1.3-0.1,2c-0.1,0.5-0.5,1.7-2,1.5C428.4,335.3,427.9,335.1,427.2,335z"/>
		<path class="st2" d="M421.8,370.7c-0.2,0-1.7-0.8-2.6-1.6c-1.1-1-2.1-2.5-2.5-4c0-0.4-0.1-0.9-0.2-1.6c-0.1-1.7,0-2.6,0.5-4.1
			c0.7-2.7,2.4-6.5,6.1-7.9c1.2-0.4,3.9-0.5,4.9-0.5c0.9,0.1,3.9,0.7,4.7,0.9c1.2,0.3,2.1,0.7,3.3,1c0.9,0.3,1.6,0.4,2.5,0.7
			c6.4,1.8,9.8,3.1,11.5,7.2c0.9,2.2,1,3.6,0,6.9l-0.1,0.3c-0.4,1.6-1.1,3.2-2.1,4.4c-0.6,0.7-2.7,2.4-3.5,2.8
			c-2.4,1.2-6.2,0.9-11-0.4C427,373,424.9,372.6,421.8,370.7z M434.5,366.1c0.8,0.2,1.3,0.4,2.2,0.6c0.7,0.2,3.3,0.8,4.1,0.6
			c0.6-0.2,1.3-0.4,1.6-1.4c0-0.1,0-0.2,0-0.3c0.1-0.3,0-0.6,0-0.9c-0.4-1-1.4-1.5-2.9-2c-1.2-0.3-2.2-0.5-3.4-0.8
			c-2.4-0.7-4.1-1.3-6.5-1.9c-1.1-0.3-4.2-1.3-4.8,1c-0.6,2,1.3,2.7,2.6,3c0.8,0.2,1.3,0.3,2.1,0.6c1.1,0.3,1.8,0.7,2.9,1
			C433.1,365.7,433.7,365.9,434.5,366.1z"/>
		<path class="st2" d="M432.2,395.2c0.1-0.4,0.3-0.8,0.5-1.2l0.5-1.2c0.2-0.6,0.4-1,0.7-1.7l0-0.1c0.4-1.1-0.1-1.5-0.7-1.7l-0.9-0.3
			c-0.5-0.2-0.8-0.3-1.3-0.5c-1.5-0.5-1.9,1-2,1.2c-0.2,0.5-0.3,0.9-0.5,1.4c-0.1,0.4-0.3,0.6-0.4,0.9c-0.1,0.4-0.2,0.7-0.3,1.1
			c-0.5,1.2-1.4,1.1-1.9,0.9c-0.5-0.2-0.8-0.4-1.2-0.6l-0.8-0.3c-2.5-0.9-4-1.2-3.2-3.3c0.3-0.9,0.8-1.5,1.1-2.4
			c0.6-1.7-0.7-2.3-1.2-2.5l-2.2-0.8c-1.1-0.4-1.8-0.6-2.8-1c-0.5-0.2-0.8-0.4-1.2-0.6c-0.7-0.3-1.3-0.3-2-0.5l-0.1,0
			c-0.4-0.2-1.7-0.7-1.1-2.3c0.4-1,0.7-1.6,1.1-2.6c0.3-0.8,0.4-1.4,0.7-2.3c0.5-1.4,1.6-1.2,2.1-1c1.4,0.5,2.3,1,3.7,1.5
			c2.5,1,4.4,1.5,6.9,2.4c1.9,0.7,3.2,1.4,5,2c1.8,0.7,3.1,1,4.9,1.6c1.5,0.6,2.6,1.1,4.2,1.6c0.9,0.3,1.6,0.5,2.5,0.8
			c2,0.7,2,1.8,1.6,2.9l-0.5,1.5c-0.6,1.6-0.9,2.8-1.5,4.3c-0.3,0.8-0.6,1.4-0.9,2.3c-0.5,1.3-0.8,2.2-1.3,3.5
			c-0.1,0.4-0.5,1.3-1.6,0.9c-0.4-0.1-0.6-0.3-0.9-0.4l-0.8-0.3c-0.9-0.3-1.5-0.5-2.4-0.8C432.7,397.2,431.6,396.9,432.2,395.2z"/>
		<path class="st2" d="M418.5,424.8c0.2-0.4,0.4-0.7,0.6-1.1l0.6-1.2c0.3-0.6,0.5-1,0.8-1.6l0-0.1c0.5-1,0.1-1.5-0.5-1.8l-0.9-0.4
			c-0.5-0.2-0.7-0.4-1.2-0.7c-1.4-0.7-2,0.7-2.1,0.9c-0.2,0.5-0.4,0.9-0.7,1.3c-0.2,0.3-0.3,0.5-0.5,0.9c-0.1,0.4-0.3,0.7-0.4,1
			c-0.6,1.1-1.6,0.9-2,0.7c-0.5-0.2-0.7-0.5-1.2-0.7l-0.8-0.4c-2.3-1.2-3.8-1.6-2.8-3.7c0.4-0.9,0.9-1.4,1.4-2.3
			c0.8-1.6-0.4-2.4-0.9-2.6l-2.1-1c-1-0.5-1.7-0.8-2.7-1.3c-0.4-0.3-0.7-0.5-1.2-0.7c-0.7-0.4-1.3-0.4-1.9-0.8l-0.1-0.1
			c-0.4-0.2-1.6-0.9-0.9-2.4c0.5-0.9,0.9-1.5,1.4-2.5c0.4-0.8,0.6-1.4,1-2.2c0.7-1.3,1.7-1,2.2-0.8c1.3,0.7,2.2,1.2,3.5,1.9
			c2.4,1.3,4.2,1.9,6.6,3.2c1.8,0.9,3,1.7,4.7,2.6c1.7,0.9,3,1.3,4.7,2.2c1.5,0.7,2.5,1.4,4,2.1c0.8,0.4,1.5,0.7,2.3,1.1
			c1.9,0.9,1.8,2,1.2,3l-0.7,1.4c-0.8,1.5-1.2,2.6-2,4.1c-0.4,0.8-0.8,1.3-1.2,2.2c-0.6,1.2-1,2.1-1.6,3.4c-0.2,0.3-0.6,1.2-1.7,0.7
			c-0.3-0.2-0.5-0.3-0.9-0.5l-0.8-0.4c-0.8-0.4-1.4-0.7-2.3-1.1C418.7,426.8,417.7,426.4,418.5,424.8z"/>
		<path class="st2" d="M387.3,432.2L387.3,432.2c-0.5-0.3-2-0.8-1-2.4c0.5-0.8,0.9-1.2,1.3-2c0.4-0.7,0.7-1.2,1.1-1.9
			c0.4-0.7,0.7-1.1,1.1-1.7l1.8-3c0.5-0.9,0.8-1.5,1.3-2.4c0.9-1.4,2-0.9,2.5-0.6l0.3,0.2c1.5,0.9,2.5,1.6,4,2.5
			c1.6,1,2.8,1.5,4.4,2.5c1.3,0.8,2.1,1.5,3.3,2.2c1,0.6,1.7,0.9,2.7,1.5c0.6,0.4,1.2,0.9,1.9,1.2c1,0.6,1.8,1,2.8,1.6
			c1,0.6,1.6,1.1,2.6,1.7c1,0.6,2.1,1.1,3.1,1.8l0.2,0.1c0.4,0.2,1.7,0.9,0.8,2.5c-0.4,0.7-0.9,1.2-1.3,1.9
			c-0.4,0.7-0.8,1.5-1.2,2.2c-0.4,0.7-1,1.7-2.2,1c-0.5-0.3-0.8-0.6-1.3-0.9c-1.1-0.8-1.9-1.3-2.9-1.9c-1.1-0.7-1.9-1-3-1.7
			c-0.8-0.5-1.6-1-2.4-1.6c-0.6-0.4-1.4-0.7-2-1.1c-1.2-0.7-2-1.3-3.1-2c-0.7-0.4-1.3-0.7-2.1-1.1c-0.3-0.2-0.7-0.5-1-0.7
			c-2.1-1.3-3.2,0.2-3.7,0.9c-0.4,0.7-0.7,1.1-1.1,1.8c-0.2,0.3-0.3,0.6-0.5,0.9c-0.2,0.4-0.5,0.8-1.2,0.9c-0.8,0.2-3-1.2-3.5-1.6
			C388.3,432.9,387.9,432.5,387.3,432.2z"/>
		<path class="st2" d="M371.6,450.7c0.7-0.9,1.2-1.5,1.9-2.4c0.5-0.8,0.9-1.3,1.4-2.1c1-1.4,1.9-0.4,2.3-0.2
			c0.4,0.2,2.6,1.7,3.1,1.6c0.3-0.1,0.1,0,0.4-0.1c0.1,0,1.2-1.5,1.8-2.3c1-1.4,0.6-1.6-0.1-2.4c-0.3-0.3-2.4-1.9-2.6-2.4
			c-0.1-0.5-0.1-0.9,0.3-1.5c0.5-0.7,0.9-1.2,1.4-1.9c0.5-0.8,1.1-1.5,1.6-2.3c0.5-0.7,1.1-1.4,2.1-0.6c0.3,0.2,0.9,0.9,1.6,1.6
			c0.9,0.9,1.5,1.4,2.3,2.3c0.8,0.8,1.3,1.4,2,2.2c1.1,1.1,1.9,1.8,3,2.9c1.1,1.1,1.8,1.9,2.9,3c0.8,0.7,1.4,1.3,2.2,2.1
			c0.9,0.9,1.5,1.7,2.4,2.6c1.4,1.5,2.5,2.3,3.8,3.8c0.9,1,1.6,2,1.7,2.6c0,0.6-0.2,1.1-0.8,2c-0.9,1.3-1.7,2.1-2.7,3.4
			c-0.7,1-1.4,2-2.1,2.9l-0.1,0.2c-0.7,1-1.1,1.2-2,1.1c-0.1,0-0.5-0.1-0.6-0.1c0,0-4-1.9-4.1-1.9c-1.4-0.7-2.3-1.2-3.6-1.9
			c-1.7-0.8-2.8-1.4-4.5-2.1c-1.3-0.6-2.4-1-3.7-1.7c-1.7-0.9-2.8-1.7-4.5-2.6c-2.6-1.3-6-2.7-6.5-3.1
			C372.2,453,370.8,451.8,371.6,450.7z M394.3,455.7c0.7,0.4,1.5,0.9,1.7,0.9c0.3,0.1,0.6,0,0.7-0.1c0.1-0.1,0-0.4-0.2-0.6
			c-0.1-0.2-1.2-1.3-1.3-1.5c-0.4-0.4-0.6-0.8-1-1.2c-0.3-0.3-3-2.9-3.3-3.1c-1.2-0.9-1.7-0.4-2.1,0.2c-0.4,0.5-1,1.4,0.3,2.4
			C391,454.2,393.7,455.4,394.3,455.7z"/>
		<path class="st2" d="M378.2,486.7c-0.9-1.1-1.6-1.7-2.6-2.7c-0.4-0.4-0.5-0.7-0.8-1c-0.3-0.3-0.5-0.5-0.8-0.8
			c-0.8-1-1.3-1.7-2.1-2.8c-0.7-1-1.4-1.6-2.2-2.6c-0.7-0.8-1.1-1.4-1.8-2.2c-0.8-1-1.5-1.6-2.3-2.6c-0.9-1.2-1.4-2.1-2.3-3.3
			c-1.3-1.8-2.8-3.2-2.8-4.3c0-0.7,0.5-1.1,0.8-1.5l5.1-5.9c0.5-0.5,0.7-0.5,1.1-0.6c1,0,8.1,4.4,8.8,4.7c2,1.1,3.5,1.9,5.5,3.2
			c0.5,0.3,0.8,0.6,1.3,0.9c1.5,0.9,2.6,1.3,4.1,2.2c1.5,1,2.6,1.7,4.1,2.6c2,1.2,2.2,1.2,3.3,2.1c0.5,0.4,1.4,1.2,0.6,2.1
			c-0.5,0.5-0.9,0.9-1.3,1.5c-1,1.2-1.7,2.1-2.7,3.2c-1.1,1.3-2,0-3.6-1.1c-1.4-1.1-2.5-1.6-4-2.6c-1.1-0.8-1.8-1.5-2.9-2.2
			c-1.2-0.8-2.1-1.3-3.4-2.1c-0.9-0.6-1.4-1.1-2.4-1.7c0,0-2-1.6-2.4-1.1c-0.3,0.5,2.1,2.4,3.3,3.8c0.9,1,1.4,1.7,2.3,2.7
			c1.3,1.3,2.3,2.1,3.6,3.5c1.1,1.2,1.7,2.1,2.8,3.3c0.7,0.7,1.8,1.8,1.8,2c0.2,0.4,0.4,0.9-0.1,1.5c-0.7,0.9-1.4,1.4-2.1,2.2
			c-0.5,0.6-0.9,1.1-1.4,1.7c-0.3,0.4-0.5,0.7-0.8,1c-0.7,0.8-1.3,0.4-1.6,0.2C379.6,488.9,378.9,487.6,378.2,486.7z"/>
		<path class="st2" d="M345,489.7c-0.1-0.1-1-1.5-1.4-2.7c-0.4-1.4-0.5-3.2-0.2-4.7c0.1-0.3,0.3-0.8,0.7-1.5
			c0.8-1.5,1.4-2.2,2.5-3.3c2-1.9,5.4-4.4,9.3-3.7c1.3,0.2,3.6,1.5,4.4,2.1c0.8,0.5,3,2.6,3.6,3.2c0.9,0.9,1.4,1.6,2.3,2.5
			c0.7,0.7,1.2,1.2,1.9,1.9c4.6,4.8,6.8,7.6,6.2,12c-0.4,2.3-1,3.6-3.5,6l-0.2,0.2c-1.2,1.1-2.5,2.2-4.1,2.7
			c-0.8,0.3-3.6,0.7-4.4,0.6c-2.6-0.2-5.8-2.4-9.2-6C348.3,494.3,346.6,492.8,345,489.7z M358.2,492.1c0.6,0.5,0.9,1,1.5,1.7
			c0.5,0.5,2.4,2.3,3.2,2.6c0.6,0.2,1.4,0.3,2.1-0.4c0.1-0.1,0.1-0.1,0.2-0.2c0.2-0.2,0.3-0.5,0.4-0.8c0.2-1.1-0.4-2-1.5-3.2
			c-0.9-0.9-1.6-1.5-2.5-2.4c-1.7-1.8-2.9-3.2-4.6-5c-0.8-0.8-2.9-3.3-4.6-1.6c-1.5,1.5-0.2,3,0.7,3.9c0.6,0.6,1,0.9,1.5,1.6
			c0.7,0.8,1.2,1.5,2,2.4C357.2,491.1,357.7,491.5,358.2,492.1z"/>
		<path class="st2" d="M337.7,524.1c-0.7-1.1-1.3-1.8-2.1-2.9c-0.8-1-1.5-1.7-2.4-2.7c-1.1-1.3-1.7-2.4-2.8-3.7
			c-1.4-1.7-2.4-2.8-3.7-4.6c-0.6-0.8-1-1.5-1.7-2.3c-0.4-0.6-3.5-3.7-1.7-8.5c0.2-0.6,0.7-1.8,1.7-2.9c1-1.2,3.1-2.8,3.1-2.8
			c2.4-1.9,4.2-2.2,5.8-2.5c1.1-0.1,1.6-0.2,2.2,0c0.6,0.1,1.5,0.4,1.9,0.7c1.1,0.6,2.6,2.2,3.4,3.1c1.3,1.5,2,2.7,3.2,4.2
			c1.7,2.1,3,3.5,4.7,5.6c1,1.2,1.6,2.2,2.5,3.4c1,1.3,1.8,2.3,2.9,3.6c1.2,1.5,1.8,2.4,0.6,3.4c-0.9,0.7-1.6,1-2.5,1.7
			c-0.5,0.4-0.8,0.7-1.2,1.1c-0.8,0.6-1.8,1.5-2.8,0.2c-0.9-1.1-1.5-2.1-2.4-3.2c-0.6-0.7-0.9-1.1-1.5-1.8c-0.5-0.6-0.8-1.1-1.3-1.7
			l-0.9-1.2c-0.9-1.1-1.7-2.4-2.6-3.5c-0.7-0.9-1.2-1.4-1.9-2.3c-0.7-0.9-1.4-1.8-2.1-2.7l-0.1-0.1c-0.7-0.8-1.9-2.4-3.4-1.2
			c-0.4,0.3-0.7,0.8-0.7,0.9c-0.5,1.3,0.2,2.2,1.4,3.7c1.5,1.8,2.4,3.2,3.9,5c1.3,1.5,2.2,2.5,3.5,4.1c1.1,1.4,1.7,2.4,2.8,3.8
			c0.4,0.5,0.8,0.9,1.2,1.4c0.7,0.8,2.3,2.3,0.6,3.6c-0.8,0.7-1.5,1-2.4,1.7c-0.7,0.6-1.2,1-1.9,1.6c-1.2,0.9-2.1-0.2-2.3-0.5
			C338.3,525.2,338.1,524.8,337.7,524.1z"/>
		<path class="st2" d="M299,514.8l0.2-0.1c0.7-0.4,1.2-0.6,1.8-1.1c0.8-0.5,1.3-0.8,2-1.4c0.4-0.3,0.7-0.6,1.1-0.8
			c1.3-0.8,2,0.1,3,0.7c1,0.7,1.8,1,2.8,1.6c0.7,0.5,1.1,0.8,1.8,1.2c0.7,0.4,1.3,0.8,1.7,0.6c0.6-0.4,0-1.1-0.1-1.3
			c-0.5-0.8-0.9-1.3-1.4-2.1c-0.4-0.6-0.6-1-1-1.6c-0.4-0.6-0.7-0.9-1.1-1.5c-0.6-0.9-0.2-1.4,0.3-1.7c0.8-0.5,1.5-0.8,2.4-1.4
			c1-0.6,1.6-1.3,2.6-1.9c0.9-0.6,1.7-0.3,2.2,0.5c0.4,0.6,0.6,1,0.9,1.6c0.6,1,1,1.7,1.7,2.8c1.3,1.9,2.3,3.2,3.6,5.3
			c1.3,2,2.1,3.5,3.4,5.5c0.8,1.3,1.5,2.2,2.4,3.5c0.9,1.4,1.5,2.4,2.3,3.8c0.5,0.8,1,1.3,1.5,2.2c0.5,0.8,1,2.2-0.8,3.4
			c-0.8,0.5-1.4,0.8-2.3,1.4c-2,1.2-3.3,2.3-5.3,3.6c-2.3,1.5-5.6,3.1-9.5,1.2c-0.3-0.2-0.7-0.4-0.9-0.6c-0.3-0.2-0.8-0.5-1.4-1
			c-0.9-0.8-2.7-3.3-3.3-4.2c-0.4-0.6-2.8-4-2.3-8.1c0-0.5,0.1-0.8,0.2-1.2c0-0.4,0.2-0.5,0.3-0.9c0-0.1,0-0.3-0.1-0.5
			c-0.4-0.6-3.5-2.2-4.2-2.6c-0.6-0.4-1-0.7-1.6-1.1c-1-0.6-1.8-0.9-2.8-1.6c-0.1-0.1-0.4-0.3-0.6-0.6
			C297.9,515.5,298.9,514.9,299,514.8z M321.6,530.4l0.2-0.1c0.2-0.2,0.5-0.5,0.6-0.8c0.2-0.6,0-1.2-0.1-1.3c-0.1-0.2-2-3.4-2.1-3.5
			c-0.6-1-1.8-1.6-3-0.8c-0.6,0.4-0.8,0.8-0.9,1.2c-0.3,1,0.4,2.3,1.4,3.9C318.4,529.9,320,531.4,321.6,530.4z"/>
		<path class="st2" d="M283.3,525.2c0.5-1.2,1.3-2.3,2-3.1c1.1-1.1,3.5-2.5,4.7-3.1c1-0.5,4.8-2.3,6.2-1.7c0.4,0.2,0.6,0.3,0.8,0.9
			c0.5,0.9,0.7,1.6,1.2,2.5c0.4,0.7,0.7,1.1,1.1,1.8c0.2,0.4,1.2,2-0.6,2.9c-0.8,0.4-1.1,0.3-1.7,0.3c-0.2,0-0.2-0.1-0.4-0.1
			c-0.3,0-0.5-0.2-0.8-0.1c-0.7,0-1.7,0.4-2.2,0.6c-1.4,0.8-2.1,1.6-1.7,2.6c0.6,1.4,2.7,1.7,4.3,2.1c1.1,0.3,1.9,0.6,3,1
			c0.4,0.1,1.6,0.3,2.7,0.8c2.8,1.2,3.8,2.7,4.9,4.8c3.3,6.2,1.8,10.3-4.2,13.5c-2.7,1.5-5.7,3.2-6.7,1.2c-0.5-0.9-0.7-1.6-1.2-2.5
			l-0.1-0.2c-0.3-0.6-0.5-0.9-0.9-1.5c-0.2-0.4-0.9-1.8,0.6-2.6c0.7-0.4,1.7-0.5,1.9-0.5c0.5-0.1,1-0.2,1.8-0.7
			c0.2-0.1,1.9-0.9,1-2.5c-0.2-0.4-0.5-0.7-1-1c-0.5-0.3-3.1-0.9-5.5-1.6c-0.9-0.2-1.6-0.4-2.6-0.8c-3.2-1.2-4.4-2.4-5.6-4.7
			C282.6,529.9,282.2,527.9,283.3,525.2z"/>
		<path class="st2" d="M262,559.3c0.4-0.2,0.8-0.2,1.2-0.4c1.3-0.5,1.4-1.2,0.8-3c-0.6-1.5-1.1-2.4-1.7-3.9
			c-0.7-1.8-1.1-3.1-1.8-4.8c-0.6-1.6-1.2-2.7-1.8-4.3c-0.4-0.9-0.7-1.9-1-2.8c-0.3-0.8-0.5-1.4-0.9-2.1c-0.2-0.5-0.4-0.7-0.6-1.2
			c-0.5-1.4,0.7-2,1.1-2.1c0.5-0.2,0.9-0.3,1.4-0.5c0.8-0.2,1.2-0.4,2-0.7c0.6-0.2,1.1-0.5,1.7-0.7c0.9-0.4,1.7-0.3,2.2,1.2
			c0.6,1.4,0.7,2.5,1.3,3.9c0.5,1.4,1,2.3,1.6,3.6c0.6,1.6,0.8,2.8,1.4,4.4c0.4,1.1,0.9,1.9,1.4,3c1.1,2.7,1.3,5.2,2.7,5.8
			c0.3,0.2,0.4,0.1,0.5,0.1c0.4,0.1,0.9-0.1,1.2-0.2c0.3-0.1,0.6-0.3,0.9-0.4c1.2-0.5,1.8,0.2,2,0.7c0.4,1.1,0.6,1.9,1.1,3
			c0.3,0.7,0.6,1.2,0.9,2c0.4,1.1,0.1,1.7-1,2.1c-1,0.4-1.7,0.6-2.7,1c-1.5,0.6-2.9,1.3-4.4,1.9l-0.5,0.2c-1.2,0.5-2.1,0.7-3.4,1.2
			c-0.8,0.3-1.3,0.6-2.1,0.9c-1.7,0.7-2.2-0.6-2.6-1.7c-0.3-0.9-0.5-1.5-0.8-2.3c-0.2-0.6-0.4-1-0.7-1.6
			C261.1,561,260.7,559.8,262,559.3z"/>
		<path class="st2" d="M232.4,550c-0.1-0.2-0.2-1.8,0-3.1c0.3-1.4,1-3.1,2-4.2c0.3-0.2,0.7-0.5,1.3-1c1.4-1,2.2-1.3,3.7-1.8
			c2.7-0.8,6.8-1.4,9.9,1c1,0.8,2.5,3,3,3.9c0.4,0.8,1.5,3.7,1.7,4.5c0.4,1.2,0.5,2.1,0.9,3.3c0.3,0.9,0.5,1.6,0.8,2.5
			c1.9,6.4,2.5,9.9-0.1,13.5c-1.4,1.9-2.5,2.7-5.9,3.7l-0.3,0.1c-1.6,0.5-3.2,0.8-4.8,0.5c-0.9-0.1-3.5-1-4.2-1.5
			c-2.2-1.4-4-4.8-5.4-9.5C233.2,555.6,232.3,553.6,232.4,550z M243,558.3c0.3,0.8,0.4,1.4,0.6,2.2c0.2,0.7,1.1,3.2,1.7,3.8
			c0.5,0.4,1.1,0.9,2,0.6c0.1,0,0.2-0.1,0.3-0.1c0.3-0.1,0.5-0.3,0.8-0.5c0.7-0.9,0.6-2,0.1-3.5c-0.4-1.2-0.7-2.1-1.1-3.3
			c-0.7-2.4-1.1-4.1-1.8-6.5c-0.3-1.1-1.1-4.2-3.4-3.6c-2,0.6-1.6,2.6-1.2,3.8c0.2,0.8,0.4,1.3,0.6,2.1c0.3,1.1,0.4,1.9,0.7,3
			C242.6,557,242.8,557.5,243,558.3z"/>
		<path class="st2" d="M203.9,573.5c0.5-0.1,0.8-0.1,1.3-0.2c1.3-0.2,1.7-0.9,1.4-2.7c-0.3-1.6-0.6-2.6-0.8-4.2
			c-0.3-1.9-0.4-3.2-0.7-5.1c-0.3-1.7-0.6-2.9-0.8-4.6c-0.2-1-0.3-2-0.4-2.9c-0.1-0.8-0.2-1.4-0.5-2.3c-0.1-0.5-0.3-0.8-0.4-1.3
			c-0.2-1.5,1.1-1.8,1.5-1.9c0.6-0.1,0.9-0.1,1.5-0.1c0.8-0.1,1.3-0.2,2.1-0.3c0.6-0.1,1.1-0.3,1.8-0.4c1-0.2,1.7,0.1,1.9,1.6
			c0.2,1.5,0.2,2.6,0.4,4.1c0.2,1.4,0.5,2.4,0.8,3.9c0.3,1.7,0.2,2.9,0.5,4.6c0.2,1.2,0.5,2,0.7,3.2c0.6,2.9,0.1,5.3,1.5,6.2
			c0.2,0.2,0.4,0.2,0.5,0.2c0.4,0.1,0.9,0,1.2,0c0.4-0.1,0.6-0.2,1-0.2c1.3-0.2,1.7,0.6,1.8,1.1c0.2,1.2,0.2,2,0.4,3.2
			c0.1,0.8,0.3,1.3,0.4,2.1c0.2,1.2-0.2,1.6-1.4,1.8c-1.1,0.2-1.8,0.2-2.9,0.4c-1.6,0.3-3.1,0.6-4.7,0.9l-0.5,0.1
			c-1.3,0.2-2.2,0.3-3.6,0.5c-0.8,0.1-1.4,0.3-2.2,0.4c-1.8,0.3-2-1.1-2.2-2.3c-0.1-0.9-0.2-1.5-0.3-2.4c-0.1-0.6-0.2-1.1-0.3-1.7
			C202.6,574.9,202.5,573.7,203.9,573.5z"/>
		<path class="st2" d="M176.2,551c0.8-0.1,1.4,0,2.2-0.1c1.1-0.1,2-0.3,3.1-0.4c1.5-0.1,1.6,1.2,1.7,1.6c0.1,0.7,0,1.3,0,2
			c0,0.5,0.1,0.7,0.1,1.2c0.1,1.8,0.1,3.1,0.2,4.8c0.2,2.8,1.3,2.7,2.8,2.6c0.8-0.1,1.2-0.3,1.4-0.8c0.3-0.4,0.3-2.8,0.3-3.3
			c-0.1-0.9-0.2-1.9-0.3-2.8c-0.1-1-0.1-1.7-0.2-2.7c0-0.6-0.1-1.1-0.2-1.7c-0.1-1.2,0.7-1.5,1.2-1.6c1-0.1,1.7,0,2.7-0.1
			c0.6,0,1-0.1,1.6-0.2c0.4,0,0.6-0.1,1-0.2c1.7-0.1,1.9,1.2,2,1.8c0.1,1.3-0.1,2.2,0,3.5l0,0.1c0.1,1.4,0.1,2.4,0.2,3.8
			c0.2,2.1,0.4,3.5,0.6,5.6c0.1,1.7,0,2.9,0.2,4.6c0.1,0.9,0.2,1.6,0.3,2.5c0.1,1.3,0.2,2.1,0.3,3.5c0.1,1.1,0.1,1.9,0.1,3
			c0.1,1.1,0.3,1.8,0.4,2.9c0,0.6-0.1,1.7-1.5,1.8c-0.9,0.1-1.6,0-2.6,0.1c-0.9,0.1-1.6,0.3-2.5,0.3c-1.6,0.1-1.9-0.7-1.9-1.5
			c-0.1-1,0.1-1.7,0-2.6c-0.1-1.1-0.2-1.8-0.3-2.9c-0.1-1.2-0.1-2-0.2-3.1l0-0.1c-0.1-1.7-1-1.8-2.4-1.7c-1.1,0.1-1.4,0.2-1.8,0.9
			c-0.1,0.3-0.1,2.6-0.1,2.9c0.1,1,0.3,1.8,0.4,2.8c0,0.6,0,1.2,0.1,1.7c0.1,0.8,0.2,1.4,0.3,2.3c0.1,1.5-1,1.8-1.6,1.8
			c-1,0.1-1.7,0-2.8,0.1c-0.8,0.1-1.4,0.2-2.2,0.3c-2,0.2-2-1.5-2-2c-0.1-1.8,0-3.1-0.1-4.9c0-0.5-0.1-0.8-0.1-1.4
			c-0.1-0.9,0-1.5-0.1-2.4c-0.1-1.5-0.2-2.5-0.3-4c-0.1-1.8-0.1-3.1-0.3-4.9c-0.2-2.2-0.5-3.7-0.7-5.8c-0.1-1.1-0.1-1.8-0.2-2.9
			c-0.1-0.9-0.3-1.6-0.4-2.6C174.7,551.6,175.4,551.1,176.2,551z"/>
		<path class="st2" d="M153.2,554.9c0-0.8,0-1.4,0-2.2c0-0.6,0.2-1.8,1.8-1.8c0.7,0,1.1,0.1,1.8,0.1l1.1,0c1.1,0,1.9,0.1,3,0.1
			c0.7,0,1.1,0,1.8,0l5,0.1c0.5,0,0.8-0.1,1.3-0.1c0.6,0,1.9,0.3,1.9,2c0,1.2-0.2,2.1-0.2,3.3c0,1.1,0,1.9,0,3
			c0,0.8-0.2,1.4-0.2,2.2c0,0.8,0.1,1.4,0.1,2.2c0,1.5-0.1,2.6-0.1,4.2c0,1.4,0.1,2.8,0.1,4.2c0,1.9-0.1,3.3-0.1,5.2
			c0,1.4,0.1,2.3,0.1,3.6c0,2.7-0.4,3.5-2.5,3.5c-1.2,0-2.1-0.2-3.3-0.2c-0.6,0-1.2,0-1.7,0c-1.5,0-2.6-0.2-4.1-0.2
			c-0.7,0-1.1,0.1-1.8,0.1l-0.9,0c-0.5,0-0.9,0-1.5,0c-1.5,0-1.5-1.1-1.5-1.6c0-0.8,0.2-1.6,0.2-2.4c0-1.3-0.5-3.5,1.9-3.5l0.5,0
			c0.6,0,1,0,1.5,0c0.7,0,1.3,0.2,2.1,0.2c2.6,0,2.7-0.8,2.7-2.4c0-1.6-0.5-2.4-1.6-2.5c-0.5,0-0.9,0.1-1.4,0.1l-0.1,0
			c-0.7,0-1.2-0.1-1.8-0.1c-0.6,0-1,0-1.5,0c-1.9,0-1.8-1.3-1.8-2c0-0.8,0.1-1.2,0.1-2c0-0.7,0-1.2,0-1.9c0-1.8,1.4-1.9,2-1.9
			c1.5,0,2.4,0.2,3.9,0.2c2.6,0,2.4-1.5,2.4-2.5l0-0.6c0-0.2,0-1.1-0.1-1.4c-0.6-1.3-1.3-1-3-1.2c-0.8-0.1-1.4-0.2-2.2-0.2
			c-0.8,0-1.3,0.1-2,0.1c-0.5,0-1.7-0.3-1.8-1.8C153.1,556.2,153.2,555.7,153.2,554.9z"/>
		<path class="st2" d="M123.6,549.7c1.1-0.7,2.4-1.1,3.4-1.3c1.5-0.2,4.3,0,5.7,0.2c1.1,0.1,5.2,0.9,6,2.3c0.2,0.4,0.3,0.6,0.2,1.2
			c-0.1,1-0.3,1.7-0.5,2.7c-0.1,0.8-0.1,1.3-0.2,2.1c-0.1,0.5-0.2,2.3-2.2,2c-0.9-0.2-1-0.4-1.5-0.8c-0.1-0.1-0.1-0.2-0.2-0.3
			c-0.2-0.2-0.3-0.4-0.5-0.5c-0.6-0.5-1.6-0.7-2.2-0.8c-1.6-0.2-2.7,0.1-2.9,1.2c-0.3,1.5,1.2,3,2.2,4.2c0.7,0.9,1.2,1.6,1.9,2.5
			c0.2,0.3,1.1,1.2,1.7,2.2c1.6,2.6,1.5,4.4,1.2,6.7c-0.9,7-4.6,9.4-11.3,8.5c-3.1-0.4-6.5-0.7-6.2-2.9c0.1-1,0.3-1.7,0.5-2.7l0-0.2
			c0.1-0.7,0.1-1.1,0.2-1.7c0.1-0.5,0.3-1.9,2-1.7c0.7,0.1,1.7,0.6,1.9,0.7c0.4,0.2,0.9,0.4,1.9,0.5c0.3,0,2,0.4,2.3-1.4
			c0.1-0.5,0-0.9-0.2-1.5c-0.3-0.6-2-2.6-3.6-4.5c-0.6-0.7-1.1-1.3-1.7-2.1c-1.9-2.8-2.1-4.5-1.8-7.1
			C120.3,553.1,121.1,551.2,123.6,549.7z"/>
		<path class="st2" d="M98.8,542.7c0.8,0.2,1.3,0.4,2.1,0.6c1.1,0.2,2,0.3,3.1,0.6c1.5,0.3,1.2,1.6,1.1,2c-0.2,0.7-0.4,1.2-0.6,1.9
			c-0.1,0.5-0.1,0.7-0.2,1.2c-0.4,1.7-0.8,2.9-1.2,4.7c-0.6,2.7,0.5,3,1.9,3.3c0.8,0.2,1.2,0.1,1.6-0.3c0.5-0.3,1.1-2.6,1.2-3
			c0.2-0.9,0.3-1.9,0.5-2.8c0.2-1,0.4-1.6,0.6-2.6c0.1-0.6,0.2-1.1,0.3-1.7c0.3-1.1,1.1-1.2,1.6-1.1c1,0.2,1.6,0.5,2.6,0.7
			c0.6,0.1,1,0.2,1.6,0.3c0.4,0.1,0.7,0.1,1,0.1c1.7,0.4,1.5,1.7,1.4,2.3c-0.3,1.2-0.7,2.1-1,3.3l0,0.1c-0.3,1.4-0.6,2.4-0.9,3.7
			c-0.5,2-0.6,3.5-1.1,5.5c-0.4,1.6-0.8,2.8-1.2,4.5c-0.2,0.9-0.3,1.6-0.4,2.5c-0.2,1.2-0.4,2.1-0.7,3.4c-0.2,1.1-0.5,1.9-0.8,3
			c-0.2,1.1-0.2,1.8-0.5,2.9c-0.1,0.5-0.5,1.6-1.9,1.3c-0.9-0.2-1.6-0.5-2.5-0.7c-0.9-0.2-1.6-0.2-2.5-0.4c-1.6-0.3-1.6-1.2-1.4-2
			c0.2-1,0.6-1.6,0.8-2.5c0.2-1.1,0.3-1.8,0.5-2.9c0.3-1.1,0.5-1.9,0.7-3.1l0-0.1c0.4-1.7-0.5-2-1.8-2.3c-1.1-0.2-1.5-0.2-2,0.4
			c-0.2,0.2-0.9,2.5-0.9,2.8c-0.2,1-0.3,1.8-0.5,2.8c-0.1,0.5-0.3,1.1-0.4,1.7c-0.2,0.8-0.2,1.5-0.4,2.3c-0.3,1.5-1.5,1.4-2.1,1.3
			c-1-0.2-1.7-0.5-2.7-0.8c-0.8-0.2-1.4-0.2-2.2-0.4c-2-0.4-1.5-2-1.4-2.5c0.4-1.7,0.9-3,1.3-4.7c0.1-0.5,0.1-0.8,0.3-1.3
			c0.2-0.9,0.4-1.4,0.6-2.3c0.3-1.5,0.5-2.5,0.8-3.9c0.4-1.8,0.8-3,1.2-4.8c0.5-2.2,0.6-3.7,1.1-5.8c0.2-1.1,0.4-1.8,0.7-2.8
			c0.2-0.9,0.2-1.6,0.4-2.6C97.2,542.8,97.9,542.5,98.8,542.7z"/>
		<path class="st2" d="M74.6,535.1c1.1,0.3,1.8,0.7,2.9,1.1c0.9,0.3,1.5,0.4,2.4,0.7c1.6,0.5,1,1.7,0.9,2.1
			c-0.1,0.4-0.8,2.9-0.5,3.5c0.2,0.3,0.1,0.1,0.3,0.4c0.1,0.1,1.8,0.7,2.8,1c1.7,0.6,1.7,0.1,2.2-0.9c0.2-0.3,1.1-2.9,1.5-3.2
			c0.4-0.3,0.8-0.4,1.5-0.2c0.8,0.3,1.4,0.5,2.3,0.8c0.9,0.3,1.8,0.5,2.7,0.8c0.8,0.3,1.7,0.6,1.3,1.8c-0.1,0.4-0.6,1.1-1.1,2
			c-0.6,1.1-0.8,1.8-1.4,2.9c-0.5,1-0.9,1.6-1.4,2.6c-0.7,1.4-1.1,2.4-1.9,3.8c-0.7,1.4-1.3,2.3-2,3.7c-0.5,1-0.8,1.7-1.3,2.7
			c-0.6,1.1-1.2,1.9-1.8,3.1c-1,1.8-1.4,3.1-2.4,4.8c-0.7,1.1-1.4,2.1-1.9,2.4c-0.6,0.2-1.1,0.2-2.1-0.1c-1.5-0.5-2.5-1-4-1.5
			c-1.1-0.4-2.3-0.7-3.4-1.1l-0.2-0.1c-1.2-0.4-1.5-0.7-1.7-1.6c-0.1-0.1,0-0.5,0-0.6c0,0,0.5-4.4,0.6-4.5c0.2-1.5,0.5-2.6,0.7-4.1
			c0.3-1.8,0.4-3.1,0.6-5c0.2-1.5,0.3-2.6,0.5-4c0.3-1.9,0.8-3.2,1.1-5.1c0.4-2.9,0.7-6.5,0.9-7.1C72.6,536.3,73.3,534.7,74.6,535.1
			z M76.8,558.2c-0.1,0.7-0.4,1.7-0.3,1.9c0,0.3,0.2,0.6,0.3,0.6c0.1,0,0.4-0.1,0.5-0.3c0.2-0.2,0.9-1.5,1-1.7
			c0.3-0.5,0.6-0.8,0.8-1.4c0.2-0.3,1.9-3.7,2-4c0.5-1.4-0.2-1.7-0.9-2c-0.6-0.2-1.7-0.6-2.2,1.1C77.2,554.6,76.9,557.5,76.8,558.2z
			"/>
		<path class="st2" d="M44.3,542.2c0.6-1.2,1.7-3.6,5.7-5.5c1.7-0.7,4-1.4,7-0.1c0.4,0.2,0.8,0.4,1.3,0.6l0.1,0
			c0.6,0.3,1.8,0.8,2.5-0.9c0.2-0.6,0.3-1,0.6-1.5c0.2-0.6,0.4-1,0.7-1.7c0.2-0.5,0.2-0.8,0.5-1.3c0.2-0.6,0.6-1.5,2-0.9
			c1,0.4,1.7,0.8,2.7,1.3c0.9,0.4,1.7,0.5,2.6,0.9c0.9,0.4,1.2,0.9,0.6,2.2c-0.2,0.4-0.4,0.8-0.6,1.3c-0.2,0.5-0.3,0.9-0.5,1.4
			c-0.4,0.7-0.7,1.2-1,1.9c-0.5,1.2-0.9,2.5-1.5,3.7c-0.7,1.6-1.3,2.8-2,4.4c-0.6,1.3-1.1,2.6-1.6,3.9c-0.9,2.2-1.7,3.7-2.6,6
			c-0.6,1.6-1,2.8-1.7,4.4c-0.7,1.7-1.9,1.6-3.3,1c-0.6-0.2-1.1-0.6-1.6-0.8c-0.8-0.3-1.6-0.6-2.4-0.9c-0.5-0.2-1-0.5-1.5-0.7
			c-0.7-0.4-1.4-0.6-2.2-0.9c-3.9-1.6-5.7-3.9-6.3-6.3c-0.3-1.5-0.1-2.3-0.1-2.8c0.1-1.4,0-2.8,1.1-5.2
			C42.9,544.7,43.3,544,44.3,542.2z M51.3,547.9c-0.2,0.5-0.4,0.8-0.6,1.4c-0.8,1.9-0.3,3.3,0.9,3.8l0.2,0.1
			c0.3,0.1,0.6,0.1,0.8,0.1c0.7-0.1,1.4-1,1.9-2.2l1.2-2.7c0.7-1.6,0.2-3-0.8-3.4c-0.3-0.1-0.8-0.1-1.2,0c-0.7,0.2-1.3,0.6-1.8,1.7
			C51.6,547,51.5,547.3,51.3,547.9z"/>
		<path class="st2" d="M31.3,518.9c0.4-0.7,0.6-1.2,1-1.9c0.3-0.5,1-1.5,2.5-0.7c0.6,0.3,1,0.6,1.5,0.9l1,0.5c1,0.5,1.6,1,2.6,1.5
			c0.6,0.3,1,0.5,1.6,0.8l4.4,2.4c0.4,0.2,0.7,0.3,1.2,0.5c0.5,0.3,1.5,1.2,0.8,2.6c-0.6,1.1-1.1,1.8-1.7,2.9
			c-0.5,1-0.9,1.7-1.4,2.7c-0.4,0.7-0.8,1.2-1.2,1.9c-0.4,0.7-0.6,1.2-0.9,1.9c-0.7,1.4-1.3,2.3-2.1,3.6c-0.7,1.2-1.2,2.5-1.9,3.7
			c-0.9,1.7-1.6,2.8-2.6,4.5c-0.6,1.2-1,2.1-1.6,3.2c-1.3,2.4-2,2.9-3.8,1.9c-1.1-0.6-1.8-1.2-2.8-1.7c-0.5-0.3-1.1-0.5-1.5-0.8
			c-1.3-0.7-2.2-1.4-3.5-2.1c-0.6-0.3-1-0.5-1.6-0.8l-0.8-0.4c-0.5-0.2-0.8-0.4-1.3-0.6c-1.3-0.7-0.8-1.7-0.6-2.1
			c0.4-0.7,0.9-1.3,1.3-2c0.6-1.1,1.2-3.3,3.3-2.2l0.5,0.2c0.5,0.3,0.9,0.4,1.4,0.7c0.7,0.4,1,0.7,1.7,1.1c2.3,1.2,2.7,0.6,3.5-0.8
			c0.8-1.4,0.7-2.4-0.3-2.9c-0.5-0.2-0.8-0.3-1.3-0.6l-0.1,0c-0.6-0.3-1-0.6-1.6-1c-0.5-0.3-0.9-0.4-1.3-0.7c-1.7-0.9-1-2-0.7-2.6
			c0.4-0.7,0.6-1.1,1-1.7c0.3-0.6,0.5-1.1,0.9-1.7c0.9-1.6,2.1-1,2.6-0.8c1.3,0.7,2.1,1.3,3.3,2c2.3,1.2,2.8-0.2,3.3-1.1l0.3-0.5
			c0.1-0.2,0.5-1,0.6-1.3c0-1.5-0.7-1.5-2.1-2.4c-0.7-0.5-1.1-0.8-1.9-1.2c-0.7-0.4-1.2-0.5-1.8-0.8c-0.4-0.2-1.4-1-0.7-2.4
			C30.6,520,30.9,519.6,31.3,518.9z"/>
		<path class="st2" d="M14.4,503.3c0.6,0.4,1,0.8,1.5,1.2c1,0.7,1.7,1,2.6,1.6c1.9,1.3,1.2,2.1,0.6,3l-1.1,1.6
			c-0.6,0.9-1.2,1.5-1.8,2.4l-1.1,1.6c-1.4,2-2.2,3.4-3.5,5.3l-3.3,4.8c-1.1,1.5-1.9,2.5-2.9,4l-1.8,2.7c-0.5,0.7-0.7,1.2-1.1,1.9
			c-0.9,1.3-1.8,0.7-2.6,0.1c-0.9-0.6-1.5-1.1-2.4-1.7c-0.7-0.5-1.3-0.8-2.1-1.3c-0.8-0.6-0.3-1.6,0.1-2.1c0.4-0.6,0.8-1,1.3-1.6
			c0.7-0.9,1.1-1.6,1.8-2.6l4.1-6c0.6-0.9,1.1-1.5,1.7-2.3l1.3-1.9c1.1-1.5,1.6-2.7,2.7-4.2c0.8-1.2,1.5-1.9,2.2-3
			c0.7-1.1,1.1-1.9,1.8-3C12.7,503.2,13.3,502.5,14.4,503.3z"/>
		<path class="st2" d="M-16.8,510.6c0.4,0.3,0.6,0.5,1,0.8c1.1,0.8,1.8,0.6,2.9-0.9c1-1.3,1.5-2.2,2.5-3.4c1.2-1.5,2.1-2.5,3.3-4
			c1.1-1.4,1.7-2.4,2.8-3.8c0.6-0.8,1.3-1.5,1.9-2.3c0.5-0.7,0.9-1.1,1.3-1.9c0.3-0.4,0.4-0.8,0.7-1.2c0.9-1.2,2.1-0.4,2.4-0.2
			c0.4,0.3,0.7,0.6,1.1,1c0.6,0.5,1,0.8,1.6,1.3c0.5,0.4,1,0.6,1.5,1.1c0.8,0.6,1.1,1.3,0.1,2.5c-1,1.2-1.8,1.9-2.7,3.1
			c-0.9,1.1-1.4,2-2.3,3.2c-1,1.3-2,2.1-3,3.5c-0.8,1-1.2,1.7-1.9,2.7c-1.7,2.3-3.8,3.7-3.6,5.3c0,0.3,0.2,0.4,0.2,0.5
			c0.1,0.4,0.6,0.7,0.8,0.9c0.3,0.2,0.5,0.4,0.8,0.6c1,0.8,0.7,1.6,0.4,2.1c-0.7,0.9-1.3,1.5-2,2.5c-0.5,0.6-0.8,1.1-1.3,1.8
			c-0.7,0.9-1.4,1-2.3,0.2c-0.9-0.7-1.4-1.2-2.2-1.9c-1.3-1-2.6-1.9-3.9-2.8l-0.4-0.3c-1-0.8-1.7-1.5-2.8-2.3
			c-0.7-0.5-1.2-0.8-1.8-1.3c-1.4-1.1-0.6-2.2,0.1-3.2c0.6-0.7,1-1.2,1.5-1.9c0.4-0.5,0.6-0.9,1-1.4
			C-18.8,510.7-17.9,509.8-16.8,510.6z"/>
		<path class="st2" d="M-41.5,487.7c0.3,0.3,0.5,0.6,0.9,0.9c1,1,1.7,0.8,3-0.5c1.1-1.1,1.8-2,2.9-3.1c1.4-1.4,2.3-2.2,3.7-3.6
			c1.2-1.2,2-2.2,3.2-3.4c0.7-0.7,1.4-1.4,2.1-2.1c0.6-0.6,1-1,1.6-1.7c0.3-0.4,0.5-0.7,0.9-1.1c1.1-1.1,2.1-0.2,2.4,0.1
			c0.4,0.4,0.6,0.7,1,1.1c0.5,0.6,0.9,1,1.5,1.5c0.5,0.5,0.9,0.8,1.4,1.2c0.7,0.7,0.9,1.4-0.2,2.5c-1.1,1.1-2,1.7-3.1,2.8
			c-1,1-1.7,1.9-2.7,2.9c-1.2,1.2-2.2,1.9-3.4,3.1c-0.9,0.9-1.4,1.6-2.2,2.5c-2,2.1-4.2,3.3-4.2,4.9c0,0.3,0.1,0.4,0.1,0.5
			c0.1,0.4,0.5,0.8,0.7,1c0.3,0.3,0.5,0.4,0.7,0.7c0.9,0.9,0.5,1.7,0.1,2.1c-0.8,0.8-1.5,1.4-2.3,2.2c-0.6,0.6-0.9,1-1.5,1.6
			c-0.8,0.8-1.5,0.8-2.3,0c-0.8-0.8-1.2-1.4-2-2.1c-1.1-1.1-2.4-2.1-3.5-3.3l-0.4-0.4c-0.9-0.9-1.5-1.7-2.5-2.6
			c-0.6-0.6-1.1-0.9-1.7-1.5c-1.3-1.3-0.3-2.3,0.5-3.1c0.7-0.7,1.1-1.1,1.8-1.7c0.5-0.5,0.7-0.8,1.2-1.2
			C-43.4,487.6-42.5,486.8-41.5,487.7z"/>
		<path class="st2" d="M-38.8,453.3c0.7,0.9,1.2,1.5,1.9,2.4c0.6,0.7,1.1,1.1,1.7,1.9c1.1,1.3,0,1.9-0.3,2.3
			c-0.3,0.3-2.2,2.1-2.3,2.7c0,0.3,0,0.1,0,0.5c0,0.1,1.2,1.5,1.9,2.3c1.2,1.3,1.4,0.9,2.3,0.4c0.3-0.2,2.4-1.9,2.9-2
			c0.5,0,0.9,0.1,1.4,0.6c0.6,0.7,0.9,1.2,1.5,1.8c0.6,0.7,1.3,1.4,1.9,2.1c0.6,0.6,1.1,1.4,0.1,2.2c-0.3,0.2-1.1,0.7-1.9,1.2
			c-1,0.7-1.7,1.1-2.8,1.8c-0.9,0.6-1.6,0.9-2.6,1.5c-1.4,0.8-2.2,1.5-3.6,2.3c-1.3,0.8-2.3,1.3-3.6,2.2c-0.9,0.6-1.5,1.1-2.5,1.7
			c-1.1,0.7-2,1.1-3.1,1.7c-1.7,1-2.8,1.9-4.6,2.8c-1.1,0.6-2.3,1.1-2.9,1.1c-0.6-0.1-1.1-0.4-1.7-1.2c-1-1.2-1.6-2.2-2.7-3.4
			c-0.8-0.9-1.6-1.8-2.4-2.7l-0.1-0.1c-0.8-0.9-0.9-1.3-0.6-2.2c0-0.1,0.2-0.4,0.3-0.5c0,0,2.7-3.5,2.8-3.5c1-1.2,1.7-1.9,2.7-3.1
			c1.2-1.4,2-2.5,3.1-3.9c0.9-1.2,1.5-2.1,2.5-3.2c1.3-1.5,2.3-2.4,3.6-3.8c1.9-2.2,4-5.2,4.5-5.6
			C-41.2,453.3-39.7,452.2-38.8,453.3z M-48.8,474.2c-0.5,0.6-1.2,1.3-1.2,1.4c-0.2,0.3-0.2,0.6-0.1,0.7c0.1,0.1,0.4,0.1,0.6,0
			c0.2-0.1,1.6-0.9,1.8-1c0.5-0.3,0.9-0.4,1.4-0.7c0.3-0.2,3.5-2.2,3.8-2.5c1.1-1,0.7-1.6,0.3-2.1c-0.4-0.5-1.2-1.3-2.4-0.2
			C-46.6,471.4-48.4,473.7-48.8,474.2z"/>
		<path class="st2" d="M-52.6,434.7c0.4,0.6,0.7,1.1,1.1,1.7c0.7,1,1.3,1.6,1.9,2.5c0.9,1.3-0.1,1.9-1.3,3.4
			c-1.2,1.6-1.9,2.8-3.1,4.4c-0.4,0.5-0.6,0.8-1,1.3c-0.4,0.6-1,1.5-0.8,1.7c0.2,0.2,0.6,0,0.8-0.2l3.4-2.4c0.8-0.6,1.4-1,2.2-1.7
			c0.6-0.5,1-0.9,1.6-1.3c1.1-0.8,1.6-0.7,2.4,0.4c0.5,0.7,0.8,1.2,1.3,1.9c0.5,0.7,0.9,1.2,1.4,1.9c0.2,0.3,0.5,0.5,0.7,0.8
			c0.4,0.6,0.4,1.3-0.2,1.7c-1.1,0.8-1.9,1.1-2.9,1.9c-0.9,0.6-1.7,1.3-2.6,2c-0.9,0.7-2,1.3-2.9,2c-1.3,0.9-2,1.6-3.3,2.5
			c-1.8,1.3-3.1,2.3-4.9,3.6c-1.5,1.1-2.7,1.7-4.2,2.8c-1.4,1-2.3,1.9-3.7,2.9c-0.6,0.4-1.3,1-2,0.1l-0.8-1.1
			c-0.4-0.5-0.7-1.1-1.1-1.6c-0.6-0.8-1-1.3-1.6-2c-0.4-0.5-1-1.2,0.3-2.1c0.7-0.5,1.3-0.7,2.1-1.2c0.7-0.5,1.2-1,1.9-1.5
			c0.5-0.4,0.9-0.6,1.5-1c0.3-0.2,0.6-0.5,0.5-0.7c-0.1-0.2-0.4-0.2-0.4-0.1c-0.1,0-6.3,1.3-6.3,1.3c-0.8,0.2-2,0.5-2.1,0.5
			c-0.1,0-0.3,0.1-0.6,0c-0.4-0.1-0.6-0.4-0.8-0.6c-0.3-0.4-0.4-0.7-0.6-1.1c-0.3-0.5-0.5-0.9-0.9-1.3c-0.7-1-1.3-1.6-2.1-2.7
			l-0.1-0.1c-0.3-0.5-0.4-1.1,0.1-1.5c0.7-0.5,2.4-0.6,3.3-0.7c1.1-0.2,1.9-0.5,3-0.7c1.2-0.2,2.1-0.2,3.3-0.4
			c0.7-0.1,1.1-0.3,1.8-0.4c1.6-0.3,2.4-0.1,3.1-0.6c0.3-0.2,1-1.5,1.7-2.7c0.7-1.3,1.4-2.1,2.2-3.3c0.5-0.7,0.8-1.3,1.3-2
			c1-1.5,1.7-2.5,2.7-4c1.3-1.9,1.6-3.1,2.5-3.8C-53.9,432.7-53.5,433.6-52.6,434.7z"/>
		<path class="st2" d="M-67.4,417.6c0.7-0.4,1.1-0.7,1.8-1.1c0.5-0.3,1.7-0.8,2.5,0.6c0.3,0.6,0.5,1,0.9,1.6l0.6,1
			c0.6,1,0.9,1.7,1.5,2.7c0.3,0.6,0.6,0.9,1,1.5l2.6,4.3c0.3,0.4,0.5,0.6,0.7,1c0.3,0.5,0.7,1.8-0.7,2.7c-1,0.6-1.9,1-2.9,1.6
			c-1,0.6-1.6,1-2.6,1.6c-0.7,0.4-1.3,0.6-2,1c-0.7,0.4-1.1,0.8-1.8,1.2c-1.3,0.8-2.3,1.3-3.6,2.1c-1.2,0.7-2.3,1.5-3.5,2.2
			c-1.6,1-2.9,1.6-4.5,2.6c-1.2,0.7-1.9,1.3-3.1,1.9c-2.3,1.4-3.2,1.5-4.3-0.3c-0.6-1-0.9-1.9-1.5-3c-0.3-0.5-0.6-1-0.9-1.5
			c-0.8-1.3-1.2-2.3-2-3.6c-0.3-0.6-0.7-0.9-1-1.5l-0.5-0.8c-0.3-0.4-0.5-0.7-0.8-1.2c-0.7-1.2,0.2-1.9,0.6-2.1
			c0.7-0.4,1.4-0.7,2.1-1.1c1.1-0.6,2.8-2.2,4-0.2l0.3,0.4c0.3,0.5,0.5,0.8,0.8,1.3c0.4,0.6,0.5,1.2,0.9,1.8
			c1.3,2.2,2.1,1.9,3.4,1.1c1.4-0.8,1.8-1.7,1.3-2.7c-0.3-0.4-0.5-0.7-0.8-1.2l0-0.1c-0.4-0.6-0.5-1.1-0.9-1.6
			c-0.3-0.5-0.5-0.8-0.8-1.3c-1-1.7,0.2-2.2,0.8-2.6c0.6-0.4,1.1-0.6,1.7-1c0.6-0.4,1-0.6,1.6-1c1.6-0.9,2.3,0.2,2.7,0.7
			c0.7,1.2,1.1,2.2,1.8,3.4c1.3,2.2,2.6,1.3,3.4,0.8l0.5-0.3c0.2-0.1,1-0.6,1.2-0.8c0.8-1.2,0.2-1.6-0.6-3.2c-0.4-0.8-0.6-1.3-1-2
			c-0.4-0.6-0.8-1-1.1-1.6c-0.2-0.4-0.7-1.6,0.6-2.4C-68.6,418.2-68.1,418-67.4,417.6z"/>
		<path class="st2" d="M-73.7,400.3c1.2,0.5,2.3,1.4,3,2.1c1,1.1,2.4,3.5,3,4.8c0.5,1,2.2,4.8,1.5,6.3c-0.2,0.4-0.4,0.5-0.9,0.8
			c-0.9,0.5-1.6,0.7-2.5,1.1c-0.7,0.4-1.1,0.7-1.9,1c-0.4,0.2-2,1.1-2.9-0.7c-0.4-0.8-0.2-1.1-0.2-1.7c0-0.2,0.1-0.2,0.1-0.4
			c0-0.3,0.2-0.5,0.2-0.8c0.1-0.7-0.3-1.7-0.6-2.2c-0.7-1.5-1.6-2.1-2.6-1.8c-1.4,0.5-1.8,2.7-2.2,4.2c-0.4,1.1-0.7,1.8-1,3
			c-0.1,0.4-0.4,1.6-0.9,2.7c-1.3,2.8-2.8,3.7-4.9,4.7c-6.3,3.1-10.4,1.5-13.4-4.6c-1.4-2.8-3-5.8-1-6.8c0.9-0.5,1.6-0.7,2.5-1.1
			l0.2-0.1c0.6-0.3,0.9-0.5,1.5-0.8c0.4-0.2,1.8-0.8,2.6,0.7c0.3,0.7,0.4,1.7,0.5,1.9c0.1,0.5,0.2,1,0.6,1.8
			c0.1,0.3,0.8,1.9,2.4,1.1c0.4-0.2,0.8-0.5,1.1-1c0.3-0.5,1-3.1,1.8-5.5c0.3-0.9,0.4-1.6,0.8-2.6c1.3-3.1,2.5-4.3,4.8-5.4
			C-78.4,399.5-76.4,399.1-73.7,400.3z"/>
		<path class="st2" d="M-81.4,376.9c0.2,0.7,0.3,1.2,0.6,1.8c0.4,1.1,0.8,1.8,1.2,2.9c0.8,2.2-0.2,2.4-1.3,2.8l-1.8,0.7
			c-1,0.4-1.8,0.5-2.8,0.9l-1.8,0.7c-2.2,0.8-3.7,1.5-5.9,2.3l-5.5,2c-1.8,0.6-3,1-4.7,1.6l-3,1.1c-0.7,0.3-1.2,0.6-2,0.9
			c-1.5,0.5-1.9-0.4-2.2-1.4c-0.4-1-0.6-1.8-1-2.8c-0.3-0.8-0.6-1.4-0.9-2.3c-0.3-0.9,0.7-1.5,1.2-1.7c0.7-0.3,1.2-0.3,1.9-0.6
			c1.1-0.4,1.8-0.7,2.9-1.1l6.8-2.5c1-0.4,1.7-0.5,2.8-0.9l2.2-0.8c1.8-0.6,2.9-1.3,4.6-1.9c1.3-0.5,2.3-0.7,3.6-1.2
			c1.2-0.5,2-0.9,3.2-1.4C-82.7,375.8-81.8,375.6-81.4,376.9z"/>
		<path class="st2" d="M-88.9,352.5c0.2,0.8,0.3,1.4,0.5,2.2c0.3,1.3,0.7,2.1,1,3.3c0.3,0.9-0.9,1.4-2,2.3c-0.9,0.7-1.4,1.3-2.3,2
			c-0.9,0.7-1.5,1.1-2.4,1.8c-0.7,0.5-1.1,1.1-1.8,1.6c-0.6,0.5-1.1,0.8-1.8,1.3c-0.7,0.5-2,1.3-1.9,1.5c0,0.1,0.3,0.1,0.5,0.1
			c0.6-0.2,1-0.4,1.5-0.6c1.1-0.5,1.9-0.7,3.1-1.1c1.5-0.4,2.5-0.5,4-1c1.4-0.4,2.3-0.9,3.7-1.3c1.1-0.3,1.5,0.3,1.8,1.2
			c0.3,1.1,0.5,2,0.8,3.1c0.2,0.8,0.5,1.4,0.8,2.2c0.4,1.4-1.1,1.6-1.2,1.7c-1.9,0.5-3.3,0.6-5.2,1.2c-0.6,0.2-0.9,0.3-1.5,0.5
			c-1.3,0.4-2.1,0.7-3.3,1c-1.1,0.3-1.8,0.5-2.9,0.8c-0.9,0.2-1.5,0.3-2.3,0.5c-0.9,0.2-1.4,0.5-2.2,0.8l-2.3,0.7
			c-1.7,0.5-2.9,0.8-4.5,1.2c-1.8,0.5-2.9,1-4.7,1.5c-0.2,0.1-1.1,0.3-1.6-0.7l-0.1-0.2c-0.1-0.4-0.1-0.7-0.2-1.1
			c-0.1-0.6-0.3-1.1-0.4-1.6c-0.3-0.9-0.6-1.6-0.9-2.6c-0.1-0.5,0-0.8,0.1-1.1c0.3-0.7,3.2-2.8,3.7-3.2c0.6-0.5,0.9-0.7,1.5-1.2
			c0.4-0.4,0.6-0.7,1-1c0.4-0.3,0.7-0.5,1.2-0.9c0.3-0.2,0.5-0.5,0.8-0.7c0.5-0.4,0.9-0.7,1.5-1.1c0.8-0.5,2.1-1.3,2-1.5
			c-0.1-0.2-1.1,0.1-1.7,0.3c-0.7,0.2-1.1,0.5-1.9,0.7c-0.7,0.2-1.2,0.2-1.9,0.5c-1.9,0.6-3.3,1.2-5.3,1.7c-0.4,0.1-1.8,0.5-2.2,0.4
			c-0.3-0.1-0.4-0.2-0.5-0.3c-0.2-0.1-0.5-0.5-0.7-1.1c-0.2-0.6-0.2-1.1-0.4-1.7l-0.5-1.7c-0.2-0.5-0.3-0.9-0.5-1.4
			c-0.2-0.8,0.1-1.3,0.9-1.6c1.4-0.4,2.4-0.5,3.8-0.9c2-0.6,3.3-1,5.3-1.6c2.1-0.6,3.6-0.9,5.8-1.5c2.1-0.6,3.5-1.2,5.6-1.8
			c1.9-0.5,3.3-0.7,5.2-1.3c0.9-0.3,1.7-0.4,2.6-0.8c0.4-0.1,0.7-0.3,1.1-0.5C-89.4,350.9-89.1,351.9-88.9,352.5z"/>
		<path class="st2" d="M-125.1,319.7c0.3,0,4.7,0.8,7.5,1.4c0.5,0.1,0.9,0.2,1.5,0.4c1.9,0.4,3.3,0.6,5.3,1.1
			c2.8,0.7,3.7,1.5,6.4,1.1c0.9-0.1,1.6-0.3,2.5-0.3c1-0.1,1.7-0.1,2.7-0.2c1.2-0.2,2-0.4,3.1-0.5c0.5-0.1,1.4-0.1,1.9,0.4
			c0.2,0.1,0.3,0.8,0.3,1c0.1,0.5,0.1,0.9,0.1,1.4c0.1,0.7,0.3,1.2,0.4,1.9l0.2,1.6c0.3,2-1.5,1.9-2.6,2.1l-0.1,0
			c-0.3,0-0.6,0-0.9,0.1c-0.5,0.1-0.9,0.2-1.3,0.3c-0.8,0.1-1.4,0-2.3,0.1c-0.9,0.1-1.5,0.4-2.4,0.5c-0.9,0.1-1.5,0.2-2.4,0.5
			c-0.2,0.1-4.5,2.1-7,3.5c-1.3,0.8-2.1,1.4-3.4,2.1c-1.8,1-3.2,1.5-5,2.5c-0.8,0.4-1.4,0.9-2.2,1.3c-0.3,0.1-0.6,0.2-0.7,0.2
			c-1.3,0.2-1.4-1.3-1.4-1.4c-0.1-0.7-0.1-1.4-0.2-2.1c-0.1-1.3-0.3-2.1-0.5-3.4c-0.1-0.7,0-1,0.3-1.4c0.6-0.8,4.3-1.9,4.9-2.2
			c1.3-0.5,2.1-0.9,3.3-1.4c0.6-0.2,1.5-0.5,1.5-0.8c-0.1-0.4-0.8-0.3-1.4-0.4c-0.9-0.1-1.6-0.2-2.5-0.3c-0.4-0.1-0.7-0.2-1.2-0.2
			c-0.7-0.1-1.2-0.1-1.9-0.2c-0.5,0-2.4-0.1-2.9-0.2c-0.6-0.2-0.8-0.2-1.2-0.8c-0.2-0.2-0.3-1-0.3-1.2c-0.1-0.8-0.1-1.4-0.2-2.1
			c-0.1-0.8-0.3-1.4-0.4-2.2c-0.1-0.9-0.1-2,1.1-2.1C-126.1,319.6-125.2,319.7-125.1,319.7z"/>
		<path class="st2" d="M-103.5,293.9c0.2,0,1.8,0.2,3,0.7c1.3,0.6,2.8,1.7,3.6,3c0.2,0.3,0.4,0.8,0.7,1.5c0.6,1.6,0.8,2.5,0.9,4
			c0.1,2.8-0.2,7-3.3,9.4c-1,0.8-3.5,1.7-4.5,2c-0.9,0.2-3.9,0.6-4.8,0.6c-1.3,0.1-2.2,0-3.4,0.1c-1,0.1-1.7,0.1-2.6,0.2
			c-6.7,0.3-10.2,0.2-13.1-3.2c-1.5-1.8-2-3.1-2.2-6.6l0-0.3c-0.1-1.6,0-3.3,0.6-4.8c0.3-0.8,1.8-3.1,2.4-3.7
			c1.9-1.8,5.6-2.8,10.6-3C-109.2,293.4-107,293.1-103.5,293.9z M-114,302.3c-0.8,0.1-1.4,0-2.3,0.1c-0.7,0-3.4,0.3-4,0.7
			c-0.5,0.4-1.1,0.8-1.1,1.8c0,0.1,0,0.2,0.1,0.3c0,0.3,0.2,0.6,0.3,0.9c0.7,0.9,1.8,1,3.4,1c1.3-0.1,2.2-0.2,3.5-0.3
			c2.5-0.1,4.3-0.1,6.8-0.2c1.2-0.1,4.4,0,4.2-2.4c-0.1-2.1-2.1-2.1-3.4-2.1c-0.8,0-1.4,0.1-2.2,0.1c-1.1,0-1.9-0.1-3.1,0
			C-112.7,302.2-113.2,302.3-114,302.3z"/>
		<path class="st2" d="M-124.7,265.7c1.3,0.2,2.2,0.2,3.6,0.3c1.3,0.1,2.3,0,3.6,0c1.7,0,2.9,0.3,4.6,0.4c2.2,0.1,3.7,0.1,5.9,0.2
			c1,0,1.8,0.2,2.9,0.3c0.7,0.1,5.1-0.2,7.5,4.3c0.3,0.6,0.9,1.7,1.1,3.2c0.3,1.5,0.1,4.2,0.1,4.2c-0.1,3-1.1,4.6-1.9,6
			c-0.6,0.9-0.9,1.3-1.4,1.7c-0.5,0.4-1.3,0.8-1.7,1c-1.2,0.5-3.4,0.5-4.6,0.5c-2,0-3.3-0.3-5.3-0.4c-2.7-0.1-4.6,0-7.3-0.2
			c-1.5-0.1-2.7-0.2-4.2-0.3c-1.7-0.1-2.9-0.1-4.6-0.2c-1.9-0.1-3-0.2-2.9-1.8c0.1-1.1,0.3-1.9,0.3-3c0-0.6,0-1,0-1.6
			c0-1,0.1-2.3,1.7-2.3c1.5,0.1,2.5,0.3,4,0.3c0.9,0,1.5,0,2.3,0.1c0.8,0,1.4,0.1,2.2,0.1l1.5,0.1c1.5,0.1,2.9,0.3,4.3,0.3
			c1.1,0.1,1.9,0,3,0.1c1.1,0.1,2.2,0.2,3.4,0.2l0.2,0c1.1,0.1,3.1,0.1,3.2-1.8c0-0.5-0.1-1-0.2-1.1c-0.7-1.2-1.7-1.3-3.7-1.4
			c-2.3-0.1-4-0.3-6.3-0.3c-2,0-3.4,0-5.4-0.1c-1.8-0.1-2.9-0.3-4.7-0.4c-0.6,0-1.2,0-1.8,0c-1.1-0.1-3.2,0.2-3.2-1.9
			c0.1-1.1,0.2-1.8,0.3-2.9c0-0.9,0-1.6,0-2.5c0.1-1.5,1.5-1.4,1.9-1.4C-126,265.5-125.5,265.6-124.7,265.7z"/>
		<path class="st2" d="M-92.4,242.7l0,0.2c-0.1,0.8-0.3,1.3-0.4,2.1c-0.1,0.9-0.2,1.5-0.3,2.4c-0.1,0.5,0,0.9-0.1,1.4
			c-0.2,1.5-1.4,1.5-2.5,1.8c-1.2,0.3-1.9,0.7-3.1,1c-0.8,0.2-1.3,0.3-2.1,0.6c-0.8,0.3-1.5,0.5-1.6,0.9c-0.1,0.7,0.8,0.7,1.1,0.8
			c0.9,0.1,1.6,0.2,2.5,0.3c0.7,0.1,1.2,0.2,1.9,0.3c0.7,0.1,1.1,0.1,1.8,0.2c1,0.1,1.2,0.8,1.1,1.3c-0.1,1-0.4,1.7-0.5,2.7
			c-0.2,1.2-0.1,2.1-0.3,3.2c-0.1,1-0.9,1.4-1.8,1.3c-0.7-0.1-1.1-0.3-1.8-0.4c-1.2-0.2-2-0.4-3.2-0.5c-2.3-0.3-4-0.4-6.3-0.7
			c-2.4-0.3-4.1-0.7-6.4-1c-1.5-0.2-2.6-0.3-4.1-0.5c-1.6-0.2-2.8-0.5-4.4-0.7c-1-0.1-1.7-0.1-2.7-0.3c-0.9-0.1-2.3-0.7-2-2.8
			c0.1-1,0.3-1.6,0.5-2.6c0.4-2.3,0.4-4,0.7-6.4c0.4-2.7,1.4-6.3,5.3-7.9c0.3-0.1,0.7-0.2,1-0.3c0.4-0.1,0.9-0.3,1.7-0.4
			c1.2-0.2,4.3,0.1,5.4,0.3c0.7,0.1,4.9,0.5,7.6,3.6c0.3,0.3,0.5,0.6,0.8,1c0.2,0.3,0.3,0.5,0.5,0.8c0,0.1,0.3,0.2,0.5,0.3
			c0.7,0.1,4-1.2,4.7-1.5c0.7-0.2,1.2-0.3,1.9-0.5c1.1-0.4,1.9-0.8,3-1c0.2,0,0.5-0.1,0.9-0.1C-92.1,241.4-92.4,242.6-92.4,242.7z
			 M-119,249.6l0,0.2c0,0.3,0,0.7,0.2,0.9c0.3,0.6,0.9,0.8,1,0.8c0.2,0.1,3.9,0.7,4,0.8c1.2,0.2,2.4-0.3,2.6-1.7
			c0.1-0.7-0.1-1.1-0.3-1.5c-0.6-0.9-2-1.2-3.8-1.5C-116.5,247.4-118.7,247.7-119,249.6z"/>
		<path class="st2" d="M-83.6,208.6c-0.2,0.8-0.5,1.3-0.7,2.1c-0.3,1.1-0.4,1.9-0.7,3.1c-0.4,1.4-1.7,1.1-2.1,1
			c-0.7-0.2-1.2-0.5-1.9-0.7c-0.5-0.1-0.7-0.2-1.2-0.3c-1.7-0.5-2.9-1-4.6-1.5c-2.7-0.8-3,0.3-3.4,1.8c-0.2,0.8-0.1,1.2,0.2,1.6
			c0.3,0.5,2.6,1.3,3,1.4c0.9,0.3,1.8,0.4,2.8,0.7c0.9,0.3,1.6,0.5,2.6,0.8c0.6,0.2,1,0.3,1.6,0.4c1.1,0.3,1.2,1.2,1,1.7
			c-0.3,0.9-0.6,1.6-0.9,2.5c-0.2,0.6-0.2,1-0.4,1.6c-0.1,0.4-0.1,0.7-0.2,1c-0.5,1.7-1.8,1.4-2.4,1.2c-1.2-0.3-2-0.8-3.3-1.2
			l-0.1,0c-1.4-0.4-2.3-0.7-3.7-1.1c-2-0.6-3.4-0.8-5.4-1.4c-1.6-0.5-2.7-1-4.4-1.5c-0.9-0.3-1.6-0.3-2.5-0.6
			c-1.2-0.3-2.1-0.5-3.4-0.9c-1.1-0.3-1.8-0.6-2.9-0.9c-1-0.3-1.8-0.3-2.8-0.6c-0.5-0.2-1.5-0.6-1.1-2c0.3-0.9,0.5-1.6,0.8-2.5
			c0.3-0.9,0.3-1.6,0.6-2.5c0.4-1.5,1.3-1.5,2.1-1.3c0.9,0.3,1.5,0.7,2.5,0.9c1,0.3,1.8,0.4,2.8,0.7c1.1,0.3,1.9,0.6,3,0.9l0.1,0
			c1.7,0.5,2-0.4,2.4-1.7c0.3-1.1,0.3-1.4-0.3-2c-0.2-0.2-2.4-1-2.7-1.1c-1-0.3-1.8-0.4-2.8-0.7c-0.5-0.2-1.1-0.4-1.7-0.5
			c-0.8-0.2-1.4-0.3-2.2-0.5c-1.5-0.4-1.3-1.6-1.1-2.1c0.3-1,0.6-1.6,0.9-2.7c0.2-0.8,0.3-1.4,0.5-2.2c0.6-1.9,2.1-1.4,2.5-1.2
			c1.7,0.5,2.9,1.1,4.6,1.6c0.5,0.1,0.8,0.2,1.3,0.3c0.9,0.2,1.4,0.5,2.3,0.7c1.4,0.4,2.4,0.7,3.9,1.1c1.8,0.5,3,1,4.7,1.4
			c2.1,0.6,3.6,0.8,5.7,1.4c1,0.3,1.7,0.5,2.8,0.8c0.9,0.3,1.6,0.3,2.6,0.5C-83.6,206.9-83.4,207.7-83.6,208.6z"/>
		<path class="st2" d="M-74.7,184.9c-0.4,1-0.8,1.7-1.2,2.8c-0.3,0.9-0.5,1.5-0.8,2.4c-0.6,1.6-1.7,0.9-2.2,0.8
			c-0.4-0.1-2.9-1-3.4-0.7c-0.3,0.1-0.1,0.1-0.4,0.2c-0.1,0.1-0.8,1.7-1.2,2.7c-0.6,1.7-0.2,1.7,0.7,2.3c0.3,0.2,2.8,1.2,3.1,1.7
			c0.3,0.5,0.3,0.8,0.1,1.5c-0.3,0.8-0.6,1.4-0.9,2.2c-0.3,0.9-0.6,1.8-1,2.6c-0.3,0.8-0.7,1.6-1.9,1.2c-0.3-0.1-1.1-0.6-2-1.2
			c-1.1-0.6-1.8-1-2.8-1.6c-0.9-0.6-1.6-1-2.5-1.6c-1.3-0.8-2.3-1.3-3.7-2.1c-1.4-0.8-2.2-1.4-3.6-2.2c-1-0.5-1.7-0.9-2.7-1.4
			c-1.1-0.7-1.9-1.3-3-2c-1.7-1.1-3-1.6-4.6-2.7c-1.1-0.7-2-1.5-2.3-2c-0.2-0.6-0.1-1.1,0.3-2.1c0.6-1.5,1.2-2.5,1.7-4
			c0.4-1.1,0.8-2.2,1.3-3.3l0.1-0.2c0.4-1.1,0.8-1.4,1.7-1.6c0.1-0.1,0.5,0,0.6,0c0,0,4.4,0.8,4.4,0.8c1.5,0.3,2.5,0.6,4,1
			c1.8,0.4,3.1,0.6,4.9,0.9c1.5,0.3,2.6,0.4,4,0.8c1.9,0.4,3.2,0.9,5.1,1.4c2.8,0.6,6.5,1.1,7.1,1.4
			C-75.8,182.8-74.2,183.6-74.7,184.9z M-97.8,185.7c-0.7-0.2-1.7-0.5-1.9-0.4c-0.3,0-0.6,0.1-0.7,0.2c-0.1,0.1,0.1,0.4,0.3,0.5
			c0.2,0.2,1.5,1,1.7,1.1c0.5,0.3,0.8,0.6,1.3,0.9c0.3,0.2,3.6,2.1,3.9,2.2c1.4,0.5,1.7-0.1,2-0.8c0.2-0.6,0.6-1.7-0.9-2.3
			C-94.3,186.3-97.2,185.9-97.8,185.7z"/>
		<path class="st2" d="M-64.1,163.1c-0.4,0.8-0.7,1.2-1.1,2c-0.6,1.2-0.9,2-1.5,3.1c-0.4,0.9-1.6,0.5-3,0.3c-1.1-0.1-2,0-3.1-0.1
			c-1.1-0.1-1.9-0.3-3-0.3c-0.9-0.1-1.5,0-2.4-0.1c-0.8,0-1.3-0.2-2.2-0.3c-0.9-0.1-2.3-0.3-2.4-0.2c0,0.1,0.1,0.3,0.3,0.4
			c0.5,0.3,1,0.3,1.6,0.6c1.1,0.4,1.9,0.7,3,1.3c1.4,0.7,2.2,1.3,3.6,2c1.3,0.7,2.3,0.9,3.6,1.5c1,0.5,0.9,1.2,0.5,2.1
			c-0.5,1-1,1.8-1.5,2.8c-0.4,0.8-0.5,1.4-0.9,2.1c-0.6,1.3-2,0.4-2,0.4c-1.8-0.9-2.9-1.8-4.6-2.7c-0.5-0.3-0.9-0.4-1.4-0.7
			c-1.2-0.6-2-1-3.1-1.5c-1-0.5-1.7-0.9-2.7-1.4c-0.8-0.4-1.3-0.8-2.1-1.2c-0.8-0.4-1.4-0.6-2.2-0.9l-2.2-1.1
			c-1.5-0.8-2.6-1.4-4.1-2.2c-1.6-0.9-2.8-1.3-4.4-2.1c-0.2-0.1-1-0.5-0.7-1.6l0.1-0.2c0.2-0.3,0.4-0.5,0.6-0.9
			c0.3-0.5,0.5-0.9,0.8-1.5c0.4-0.9,0.6-1.6,1.1-2.5c0.2-0.5,0.5-0.6,0.8-0.7c0.7-0.3,4.3,0.1,4.9,0.1c0.7,0,1.2,0.1,1.9,0.1
			c0.5,0,0.9-0.1,1.4,0c0.5,0,0.9,0.1,1.4,0.2c0.4,0,0.7,0,1.1,0c0.7,0,1.2,0.1,1.8,0.2c0.9,0.2,2.5,0.5,2.5,0.2
			c0.1-0.2-0.9-0.7-1.4-1c-0.6-0.3-1.2-0.4-1.8-0.8c-0.6-0.3-1-0.6-1.7-1c-1.8-0.9-3.2-1.4-5-2.3c-0.3-0.2-1.6-0.8-1.9-1.2
			c-0.1-0.3-0.1-0.4-0.2-0.6c0-0.2,0-0.8,0.2-1.3c0.3-0.6,0.6-1,0.9-1.5l0.8-1.6c0.3-0.5,0.4-0.9,0.6-1.4c0.4-0.8,1-0.9,1.7-0.5
			c1.3,0.6,2.1,1.2,3.3,1.9c1.8,0.9,3.1,1.5,5,2.4c2,1,3.3,1.8,5.3,2.8c2,1,3.4,1.5,5.4,2.5c1.8,0.9,2.9,1.7,4.7,2.6
			c0.9,0.4,1.5,0.8,2.5,1.1c0.4,0.2,0.7,0.2,1.1,0.4C-63.4,161.6-63.8,162.5-64.1,163.1z"/>
		<path class="st2" d="M-54.5,145.8c-0.2,1.3-0.7,2.7-2.1,4.9c-0.5,0.8-0.9,1.2-1.4,2c-0.7,1.1-1,2.1-1.8,3.2
			c-0.8,1.2-1.6,2.4-3.4,1.3c-1.4-0.9-2.3-1.8-3.8-2.7c-2.3-1.5-4-2.3-6.3-3.7c-0.9-0.6-1.5-1-2.4-1.6c-1.6-1-2.8-1.6-4.4-2.6
			c-1.4-0.9-2.3-1.6-3.8-2.5c-1.1-0.7-2.1-1.1-3.2-1.9c-1.8-1.1-2-2.1-1.2-3.3c0.7-1.1,1.2-1.8,1.8-2.8c0.7-1.1,1.1-1.8,1.7-2.9
			c0.2-0.3,0.4-0.7,0.5-0.9c2.4-3.8,4.7-4.8,7.6-5.2c0.5-0.1,1.8-0.2,3.3-0.1c4.4,0.5,9.8,4,10.1,4.2
			C-59.6,133.4-53.5,139.1-54.5,145.8z M-70.7,137.2c-1-0.5-5.4-3-6.6-0.5c-0.1,0.2-0.2,0.4-0.1,0.6c-0.1,1,0.9,1.5,1.4,1.9
			c1.5,1,2.7,1.5,4.2,2.5c1,0.7,1.7,1.2,2.7,1.8c0.8,0.5,1.5,0.8,2.3,1.3c0.6,0.4,0.9,0.6,1.5,1c0.8,0.5,2.3,1.5,3.2,0
			c0.9-1.5-0.7-3-0.8-3.1c-0.6-0.6-4.2-3.5-4.8-4C-68.9,138.1-69.7,137.7-70.7,137.2z"/>
		<path class="st2" d="M-40.4,124.8c0,1.3-0.2,2.6-0.6,3.6c-0.5,1.4-2.1,3.7-3,4.8c-0.7,0.9-3.4,4.1-5,4.1c-0.5,0-0.6-0.1-1.1-0.4
			c-0.8-0.6-1.3-1.1-2.1-1.8c-0.6-0.5-1.1-0.7-1.7-1.2c-0.4-0.3-1.9-1.3-0.6-2.9c0.6-0.7,0.9-0.7,1.4-0.9c0.2-0.1,0.2,0,0.4-0.1
			c0.3-0.1,0.5-0.1,0.7-0.2c0.7-0.3,1.4-1,1.7-1.5c1-1.3,1.2-2.4,0.4-3.1c-1.1-1-3.2-0.4-4.7-0.1c-1.1,0.2-1.9,0.2-3.1,0.4
			c-0.4,0.1-1.6,0.3-2.8,0.4c-3.1,0.1-4.5-0.9-6.4-2.3c-5.6-4.3-5.9-8.6-1.8-14c1.9-2.5,3.8-5.3,5.6-3.9c0.8,0.6,1.3,1.1,2.1,1.8
			l0.1,0.1c0.5,0.4,0.9,0.6,1.4,1c0.4,0.3,1.5,1.2,0.5,2.6c-0.5,0.6-1.4,1.2-1.5,1.3c-0.4,0.3-0.8,0.6-1.4,1.4
			c-0.2,0.2-1.3,1.6,0.1,2.7c0.4,0.3,0.8,0.5,1.4,0.5c0.6,0.1,3.2-0.4,5.7-0.8c0.9-0.2,1.7-0.3,2.7-0.4c3.4-0.3,5,0.4,7,1.9
			C-41.7,120.2-40.5,121.9-40.4,124.8z"/>
	</g>
</g>
</svg>
