<?xml version="1.0" encoding="utf-8"?>
<!-- Generator: Adobe Illustrator 27.8.1, SVG Export Plug-In . SVG Version: 6.00 Build 0)  -->
<svg version="1.1" id="Layer_1" xmlns="http://www.w3.org/2000/svg" xmlns:xlink="http://www.w3.org/1999/xlink" x="0px" y="0px"
	 viewBox="0 0 463.4 384.5" style="enable-background:new 0 0 463.4 384.5;" xml:space="preserve">
<style type="text/css">
	.st0{fill:#025C38;}
</style>
<g>
	<g>
		<path class="st0" d="M279.8,82.4c1,9.9,0.7,19.6-2.8,29.3c1.8,0.5,3.1,1.4,3.8,3.1c0.1,0.3,0.9,0.7,1.3,0.5c2-0.8,3.9-0.5,5.4,1
			c1.2,1.3,2.4,2.6,2.6,4.7c0.1,0.9,0.7,1.3,1.7,1.1c3.2-0.8,4.9,0.8,4.8,4.3c0,1.1-0.1,2.1-0.1,3.2c1.8-0.1,3.4-0.2,5-0.2
			c4.3,0.2,6.9,2.6,8.1,6.9c1,3.8,3,6.8,6.3,8.7c3.3,2,6.6,3,10.7,2.6c15.2-1.3,29.9,0.5,43.7,5.9c1.6,0.6,3.6,0.4,5.3,0.2
			c6.4-0.5,12.7-2,18.7-4.7c2.5-1.1,4.8-3.1,7.1-4.7c1.5-1.1,2.9-2.2,4.7-2.3c0.6,0,1.6,0.2,1.8,0.6c0.4,0.8-0.1,1.6-0.9,2.3
			c-6.7,5.6-14.2,8.7-22.2,10.6c-2.4,0.6-4.7,0.9-7.3,1.4c1.8,1.1,3.5,2.2,5.2,3.3c8.3,5.4,15.1,12.4,19.5,21.6
			c4.7,9.8,5.8,20.4,3.4,31.8c-0.1,0.3-0.1,0.6-0.2,1.1c1.7,0.1,3.3,0.1,4.9,0.1c5.7,0.1,11.4-0.1,17,0.2c9.8,0.5,18.9,3.1,26.1,10
			c7.3,7.2,11.1,16.2,9.6,27.7c-1,7.6-3.8,14.8-7.2,21.8c-4.5,9.3-10.7,17.1-18.6,23.5c-10.3,8.3-21.2,15.5-32.8,21.2
			c-8.2,4.1-16.8,7.6-25.1,11.4c-0.5,0.2-1.1,0.5-1.8,0.8c2.4,2.1,1.6,4.7,0.5,7.5c1,0.4,1.9,0.9,2.9,1.3c3.7,1.7,4.2,4,1.6,7.8
			c-1.1,1.6-2.1,2.9-2.4,5.1c-0.4,3.9-3.5,6-7.7,6c-0.6,1.2-0.9,2.7-1.8,3.5c-1.8,1.7-3.8,3.5-6.3,3.6c-5.1,0.1-10.2,0-15.3,0.1
			c-4.6,0-9.2,0.1-13.9,0.2c-2.8,0.1-5.5,1.4-8.1,2.8c-8.1,4.3-18.6,5-26.4,1.8c-2.8-1.2-5.6-2.7-8.3-4.2c-0.9-0.5-1.4-0.4-2.2,0.2
			c-8.1,6.9-17.4,8.4-26.9,8.6c-9.3,0.1-17.5-2.7-24.4-8.7c-1.7-1.5-3.2-3.4-4.9-5.2c-0.1,0.1-0.4,0.3-0.7,0.5
			c-12,10.6-25.6,17.3-40.7,20.2c-30.4,5.8-56.8-1.3-79.4-21c-6.7-5.9-12.2-12.8-16.2-21.1c-0.2-0.5-1-1-1.6-1
			c-21.6-1.8-41.6-8.4-60-19.7c-10.3-6.3-19.4-14.2-26.1-24.5C1.2,282.9-1.5,269,0.8,254c4-25.9,17.3-46.6,38.1-62.6
			c9.1-7,18.9-12.7,29.8-16c4.6-1.4,9.2-1.9,13.9-1.2c0.9,0.1,1.3-0.2,1.7-1c1.7-3.5,3.5-7,5.3-10.4c6.4-11.9,14.5-22.5,25.1-30.8
			c3.6-2.8,7.5-5.2,11.6-7.1c9.7-4.5,19.7-8.2,30-10.3c2.9-0.6,5.8-0.8,8.8-1.1c-0.7-1.6-1.3-3.2-1.9-4.8c-1.7-4.6-2.5-9.4-1.6-14.5
			c0.7-3.9,2.6-7.1,5.1-10.1c2.9-3.5,6.1-6.5,10-8.6c4.6-2.5,6.3-6.4,6.3-11.4c0-2.4,0-4.7,0.3-7.1c0.6-5.6,2.7-10.7,5.8-15.3
			c4.5-6.7,10.3-12.1,17.1-15.9c6.6-3.7,13.3-4.4,19.8-0.5c1.6,1,2.6,3,3.8,4.6c0.2,0.3,0,1.1-0.3,1.4c-0.2,0.2-0.9,0.2-1.2,0
			c-0.6-0.3-1.1-0.9-1.6-1.3c-5.3-3.6-11-4.3-16.8-1.3c-9.3,4.8-16.8,11.9-20.7,22.4c-1.1,2.9-1.3,6.2-1.8,9.4
			c-0.4,3.1-0.4,6.3-0.9,9.3c-0.5,3.1-2.2,5.6-4.7,7.4c-1.3,1-2.8,1.8-4,2.8c-2.4,2-4.9,4-7.2,6.3c-4.9,5-6.1,11.1-4.2,17.6
			c0.9,3.1,2.3,6.1,3.6,9c0.2,0.6,1,1.1,1.7,1.2c6.2,1.3,12.5,2.5,18.7,3.8c2,0.4,3.7,1.2,5.1,2.8c0.3,0.4,0.9,0.5,1.5,0.9
			c0.4-3.2,0.8-6.1,1.1-9.1c-3.4-0.1-6-1.6-8.4-3.8c-2.4-2.3-4.2-5.2-4.9-8.7c-0.3-1.5-0.3-3.2,0.1-4.7c1.2-4.8,4.1-8.4,8-11
			c1-0.6,2.2-1,3.3-1.1c2.4-0.2,4.8-0.3,7.2-0.2c0.9,0,1.9,0.3,2.5,0.9c0.5,0.5,0.9,1.6,0.7,2.4c-0.1,0.4-1.3,0.9-2,1
			c-2.1,0.1-4.3,0-6.4,0c-2.4,0-4.4,1-6,2.9c-5,5.7-5.3,9.8,0.2,15.8c1.6,1.8,3.6,3.2,6.5,2.4c1.8-0.5,2.7,0.7,2.7,3
			c-0.1,3.7-0.3,7.5-0.5,11.2c-0.4,9.7,2.1,18.4,6.5,26.4c3.4,6.2,8.2,10.9,15.1,12.7c4.4,1.1,8.8,0.7,13.2-0.9
			c0.5-0.2,0.9-0.8,1.4-1.2c0,0,0.1-0.1,0.1-0.1c1.9-5.6,5.6-9.9,9.6-13.9c4.6-4.7,9.3-9.2,14-13.7c1.6-1.5,3.5-2.5,5.3-2
			c1.4-3.7,2.5-7.5,4.1-10.9c3.7-7.7,4.9-16,6-24.3c0.5-3.4-0.5-6.8-0.3-10.3c0.1-3.1-1-4.2-3.7-4.7c-4.7-1-6.8-4.1-6.7-9.5
			c0.1-3,0.4-6,0.9-8.9c0.5-3.4-0.2-6.4-2.2-8.9c-1.6-2-3.5-3.7-5.2-5.6c-0.5-0.5-0.6-1.3-0.9-2c0.7-0.1,1.5-0.4,2.1-0.2
			c6.5,2.4,10.8,10.2,10,17.6c-0.3,2.6-0.6,5.3-0.7,7.9c-0.1,3.4,1.7,5.5,4.8,6.3c2.3,0.6,4.8,0.9,6.8,2c5.2,2.8,9,7.1,10.1,13.6
			c0.4,2.7,0.6,5.5,1.3,8.1c1.1,4.2,4.6,8.1,9.3,8c3.7-0.1,7.1-1,10.6-2.5c2.8-1.1,5.5-2.4,8.3-3.4c4-1.4,7.4-0.4,9.8,3
			c1.6,2.3,3,4.8,4.4,7.4c1.1,2.1,2,4.3,2.9,6.5c5.7,13.5,18.6,16.3,28.7,13.5c7.2-2,14-5.3,20.8-8.7c3.4-1.7,6.9-3.3,10.4-4.8
			c0.8-0.3,1.7-0.5,2.4-0.4c0.6,0.1,1.3,0.6,1.4,1.1c0.1,0.5-0.3,1.4-0.7,2c-0.2,0.3-0.6,0.5-1,0.7c-7.2,3.4-14.3,7-21.5,10.3
			c-6.2,2.9-12.7,5-19.4,5.3c-1.5,0.1-3-0.2-4.5-0.5c-1.3-0.2-2.5-0.8-3.8-1.1c-7.4-1.9-12.5-6.9-15.9-13.9
			c-1.6-3.2-2.9-6.5-4.5-9.7c-0.8-1.6-1.8-3.1-2.8-4.6c-1.5-2.3-3.6-2.9-6.2-1.9c-2.6,1-5.2,2.2-7.7,3.2c-5.1,2.1-10.2,3.5-15.5,2.2
			c-6.2-1.5-10.9-8.5-10.6-15.5c0.2-3.8-0.9-7.3-3.4-10c-1.3-1.4-2.7-2.7-4.1-4.1C280.1,82.2,280,82.3,279.8,82.4z M279,120.2
			c-0.2-0.9-0.3-2.4-0.7-3.8c-0.5-1.6-1.6-1.9-2.9-0.9c-0.6,0.5-1.2,1.1-1.6,1.8c-2.1,3.3-2.7,7-3.4,10.7c-0.7,3.8-0.9,7.7-1.8,11.4
			c-0.5,2.1-1.8,4.3-3.2,6c-1.6,2-3.8,3.5-5.7,5.2c-1.9,1.8-3.7,3.7-5.7,5.5c-0.5,0.4-1.4,0.1-2.2,0.2c0.1-0.7,0-1.7,0.5-2.1
			c4.2-4.3,8.5-8.6,12.8-12.8c0.3-0.3,0.6-0.8,0.7-1.1c0.2-2,0.3-4,0.4-6c0-0.4-0.3-0.9-0.6-1.1c-0.3-0.1-0.9,0.1-1.2,0.3
			c-0.5,0.4-1,1-1.5,1.5c-5.6,5.5-11.1,11.2-16.8,16.5c-1.9,1.7-3,3.7-4,5.9c-3.9,8.4-7.6,16.9-10.2,25.8c-0.9,3.1-1.2,6.1-0.4,9.3
			c1.4,5.1,3.7,9.5,6.3,13.9c1.2,1.9,2.7,3.3,4.7,4.2c1.1,0.4,1.8,0.3,2.7-0.5c3.9-3.6,8.1-6.5,12.6-9c1.7-1,3.3-2.2,4.9-3.4
			c2-1.6,2-1.7,1.1-3.9c-1.9-4.8-1.4-9.3,2.2-13.4c3.3-3.8,6.6-7.5,9.9-11.2c2.7-2.9,5.6-5.6,8.2-8.7c2.1-2.5,4.2-5.1,5-8.6
			c1.5-6.6,3.2-13.1,4.6-19.7c0.4-2,0.1-4.1,0-6.2c-0.1-1.3-0.9-1.4-2-0.8c-1.3,0.7-2.1,1.7-2.5,3.2c-1.7,6.7-3.5,13.3-5,19.9
			c-1,4.4-2.6,8.4-6.2,11.3c-2.9,2.3-5.8,4.5-8.7,6.7c-1.4,1.1-2.9,2.2-4.5,3c-0.6,0.3-1.5,0-2.2,0c0.2-0.7,0.3-1.7,0.8-2.2
			c1.6-1.6,3.3-3,5.1-4.4c1.5-1.2,3.1-2.4,4.8-3.4c3.9-2.3,6.9-5.2,7.8-10.1c1.4-7.7,3.1-15.3,5.7-22.8c0.9-2.6,1-5.3-0.5-7.6
			c-0.3-0.5-1.1-1.2-1.5-1c-0.5,0.2-1.1,1-1.2,1.6c-0.5,1.6-0.7,3.3-1.1,4.9c-1.3,5.8-2.4,11.6-3.8,17.4c-1.1,4.4-2.3,8.9-6.2,11.9
			c-4.4,3.4-9.3,6.1-13.2,10.3c-0.3,0.3-1,0.1-1.5,0.2c0-0.5-0.2-1.2,0.1-1.6c0.5-0.8,1.1-1.5,1.8-2c4-3.4,8-6.6,11.9-10
			c1-0.8,1.9-2,2.3-3.2C276.8,138.5,277.7,129.6,279,120.2z M374.9,337.8c1.2-2.7,1.1-3.4-1.1-4.4c-3.1-1.3-6.2-2.6-9.4-3.6
			c-2-0.6-4.1-1-6.2-0.8c-6.8,0.5-13.6,1.3-20.5,2c-0.6,0.1-1.3,0.1-1.8-0.2c-6.5-3.2-13.3-3-20.4-0.1c-2.8,1.2-5.7,2.4-8.6,3.3
			c-2.5,0.8-3.7,2.3-4.4,4.8c-2.3,8.5-4.7,16.9-8.3,25.4c2.7,1.2,5.6,2.6,8.5,3.7c7.4,2.9,15,2.1,22.5-1.5c5.8-2.8,11.7-4,17.7-3.9
			c5.7,0.1,11.4,0.4,17.1,0.2c2.5-0.1,5.1-1.1,7.6-1.9c0.5-0.2,0.9-1.3,1.2-2c0-0.2-0.9-0.7-1.4-0.8c-1.7-0.3-3.5-0.5-5.2-0.8
			c-2.4-0.4-4.8-1-7.3-1.1c-7.8-0.3-15.7-0.3-23.5-0.5c-0.6,0-1.1-0.7-1.7-1c0.5-0.6,1-1.5,1.6-1.8c0.9-0.4,2-0.4,3-0.4
			c5.9-0.1,11.8-0.1,17.8-0.2c6.1-0.1,11.7,1.3,17.4,2.7c1.5,0.4,3,0.6,4.5,0.7c1.4,0.1,3-1.2,3.2-2.7c0.2-1.5-1.1-1.5-2.1-1.8
			c-1.6-0.4-3.2-0.8-4.8-1.3c-10-3.2-20.4-4.8-31.3-4.9c-3.6,0-7.2-0.4-10.8-0.7c-0.5,0-0.8-0.7-1.2-1.1c0.5-0.4,0.9-0.9,1.5-1.1
			c0.6-0.2,1.3-0.2,2-0.2c3-0.1,6-0.3,8.9-0.2c6.6,0.1,13.3-0.3,19.7,1.3c5.3,1.4,10.5,2.9,15.8,4.3c1.1,0.3,2.4,0.4,3.6,0.3
			c1.4-0.1,1.9-1.5,2.3-2.6c0.4-1.1-0.6-1.2-1.2-1.5c-1.4-0.8-2.9-1.4-4.3-2.1c-0.3-0.2-0.7-0.2-1.1-0.3c-3.3-0.4-6.6-0.6-9.8-1.3
			c-8.8-2-17.6-3.6-27-2.5c-0.8,0.1-1.7,0.1-2.4-0.2c-0.6-0.3-0.8-1.1-1.2-1.7c0.5-0.2,1-0.7,1.5-0.7c4.3-0.2,8.7-0.5,13-0.4
			c4.4,0.1,8.7,0.4,13,1C365.7,336,370.3,337,374.9,337.8z M159.6,251.3c0.2-0.5,0.3-0.8,0.4-1c2.1-4.3,3.4-8.9,3.7-13.7
			c0.9-13.5-3.8-24.5-13.3-33.2c-8.7-7.9-18.9-11-30.9-8.4c-10.2,2.2-19.2,7.1-27.6,13.6c-3.8,3-7.4,6.2-10.2,10.2
			c-0.5,0.7-0.8,1.6-1.2,2.5c-0.1,0.2,0.2,0.6,0.4,0.9c0.2-0.2,0.4-0.4,0.6-0.6c0.9-1.1,1.6-2.4,2.6-3.4
			c7.9-8.2,17.1-14.3,27.6-18.3c7.3-2.8,14.6-4.1,22.1-2.4c17.8,4.2,30.2,24.2,26.6,42.9c-1.2,6.3-3.7,12.1-8.7,16.5
			c-0.2,0.2-0.5,0.4-0.5,0.6c-0.1,0.7-0.4,1.6-0.1,2c0.3,0.3,1.3,0.2,1.9,0.1c0.5-0.2,0.9-0.7,1.3-1.1c2.7-2.9,5.9-4.6,9.5-5.7
			c6.1-1.7,11.3-0.6,15.1,4.3c2.6,3.3,4.4,7.1,5.6,11.1c1.6,5.4,4.3,10,8.9,13.1c7.2,4.7,14.8,8.1,23.2,10
			c10.3,2.4,20.8,1.6,31.3,0.1c2.3-0.3,4.6-0.8,7.3-1.2c-0.4,0.8-0.6,1.4-0.9,1.9c-1.2,2.1-2.7,4.2-3.7,6.4
			c-3.8,8.8-3.9,17.3,0.5,25.2c1.9,3.4,4.3,6.5,7.3,8.9c7.2,6,15.9,8.5,25.3,9.1c6,0.4,11.4-1.8,16.3-6c0.2-0.2,0.4-0.5,0.7-0.8
			c-1-0.1-1.9-0.4-2.7-0.3c-1.2,0.1-2.6,0.1-3.7,0.7c-2.9,1.6-5.9,2.4-9,2.4c-7.3-0.1-14-1.9-20.1-5.4c-4.9-2.7-8.5-6.8-11.1-11.8
			c-2.6-5-3.1-10.4-1.6-16.1c1.2-4.7,3.5-8.8,6.1-12.8c0.7-1,1.2-2.1,0.6-3.2c-0.6-1.2-1.8-1.3-2.9-1.1c-3.1,0.4-6.3,0.9-9.4,1.4
			c-10.4,1.6-20.8,1.9-30.9-0.5c-7.7-1.8-15.1-4.4-21.2-9.6c-5.7-4.8-7.7-11.2-5.9-18.9c2.6-11.2,8.7-20.2,17.2-27.7
			c9.1-8.1,19.5-13.5,30.7-16.7c0.4-0.1,0.8-0.6,1.2-0.9c-0.4-0.3-0.8-0.9-1.3-1c-0.8-0.1-1.7,0-2.6,0.2
			c-15.2,3.9-28.2,11.8-38.7,24.5c-4.6,5.6-7.9,12-10,18.9c-0.2,0.8-0.4,1.6-0.7,2.7C178.9,249.9,170.8,246.9,159.6,251.3z
			 M316.5,241c-0.5-1.6-0.9-3.3-1.4-4.9c-2-6.6-4.1-13.2-8.2-18.6c-6.5-8.4-15.3-13.4-25.3-16.4c-0.9-0.3-1.8-0.5-2.7-0.5
			c-0.5,0-1.4,0.4-1.4,0.7c-0.1,0.5,0.2,1.3,0.6,1.6c0.5,0.5,1.3,0.6,2,0.9c3.7,1.6,7.5,3,11,4.8c9.3,4.7,16,12,19.3,22.5
			c0.6,1.8,1.3,3.6,1.8,5.4c1.3,5,2.4,10.1,3.7,15.2c0.4,1.5,1,2.9,1.8,4.2c0.6,1,1.6,1.5,2.8,0.8c1.1-0.6,1.1-1.7,1-2.8
			c0-0.4-0.1-0.7-0.2-1c-2.8-13.5-0.5-26.6,6.8-39.1c4.1-7.1,9.1-13.5,14.7-19.4c1.2-1.3,1.6-2.6,1.3-4.3
			C329.2,204.1,317.6,219.7,316.5,241z M313.6,148.9c0,0,0-0.1,0-0.1c-0.5-0.4-1-0.8-1.6-1.1c-3.5-2.1-6-5-6.8-9.4
			c-0.2-1.1-0.4-2.2-0.8-3.2c-0.3-0.7-0.8-1.5-1.4-1.8c-2-1-4.2-1.1-6.3-0.8c-0.3,1.7-0.5,3.2-0.9,4.7c-1.1,4.7-2.2,9.4-3.3,14.1
			c-0.5,2,0.1,2.7,1.9,2.2c2.2-0.5,4.3-1.2,6.5-1.7C305.1,150.9,309.3,149.9,313.6,148.9z"/>
		<path class="st0" d="M238.1,29.7c0.8-0.5,1.6-1.1,2.4-1.6c7.1-4.8,14.6-6.7,22.6-5.4c2.9,0.5,6,0.7,8.8,1.5
			c12.3,3.6,20.5,11.9,24.2,24.9c1.1,4,0.7,8.7,0.8,13c0.1,3.2-0.2,6.4,0.1,9.5c0.4,4.9,3.5,8.1,8,8.8c5,0.8,10-0.4,14.9-1.5
			c4.7-1.1,9.4-2.5,14.2-3.2c2.8-0.4,5.9-0.3,8.6,0.3c7.8,1.6,11.6,6.8,12.4,15.9c0.1,1.5,0.3,3.1,0.4,4.6c1,9.4,7.8,14.6,16.5,12.2
			c3.9-1.1,7.7-2.8,11.5-4.5c5.8-2.6,11.6-5.4,17.8-6.2c3.9-0.5,7.6-0.1,11,1.9c1.4,0.8,1.9,1.8,1.4,3c-0.5,1.1-1.8,1.7-3.1,1
			c-5.6-2.8-11.3-1.5-17,0.7c-5,2-10,4.4-15,6.5c-4.4,1.8-8.8,3.2-13.4,2.3c-7.9-1.4-12.9-7.5-13.8-16.9c-0.2-1.9-0.3-3.8-0.5-5.7
			c-0.8-6.5-4.1-9.9-10.1-10.8c-4.8-0.8-9.5,0.4-14.2,1.5c-5.2,1.2-10.4,2.4-15.6,3.2c-2.5,0.4-5.1,0.2-7.5-0.3
			c-6.5-1.4-10.5-6.8-10.6-14.3c-0.1-3.9,0.1-7.8,0.3-11.7c0.4-7.7-2.2-14-6.6-19.6c-5.5-7-12.6-11-21.3-12
			c-2.5-0.3-4.9-0.6-7.4-0.8c-4.5-0.4-8.7,0.9-12.7,3c-2.6,1.4-5,2.9-7.5,4.5c-1.6,1-2.7,0.8-3.4-0.9c-0.9-2.1-0.8-4.3,0.2-6.5
			c0.5-1.1,1.1-2.2,1.4-3.4c3.1-10.3,9.2-17.7,18.9-21.1c7.1-2.5,14.2-2.8,20.6,1.7c0.4,0.3,0.8,0.7,1.2,1c-0.1,0.2-0.1,0.4-0.2,0.6
			c-2.4-0.2-4.8-0.3-7.1-0.5c-7.9-0.8-15.3,0.7-21.8,6.6c-3.9,3.5-6.3,8-8,13c-0.6,1.8-1.2,3.6-1.7,5.4
			C237.8,29.6,238,29.7,238.1,29.7z"/>
		<path class="st0" d="M219.1,105c-1.2,0.3-2.3,0.7-3.4,0.6c-0.7-0.1-1.3-0.9-1.9-1.4c0.5-0.6,1-1.3,1.5-1.9
			c0.1-0.1,0.3-0.1,0.4-0.2c3-1.2,3-1.2,2.8-4.6c-1.4,0.5-2.9,1-4.3,1.6c-1,0.4-2,0.4-2.3-0.8c-0.4-1.2,0.2-2.2,1.3-2.5
			c1.8-0.6,3.6-0.9,5.7-1.5c0.2-1.1,0.4-2.6,0.9-4.1c0.9-2.7,1.9-5.3,2.9-8c0.3-0.7,0.6-1.4,1.2-1.8c0.5-0.4,1.3-0.6,1.8-0.5
			c0.3,0.1,0.6,1.1,0.5,1.7c-0.2,1-0.7,2-1,3c-1.9,5.2-3.3,10.4-2.9,15.9c0.1,1.7,0.5,3.3,1.2,4.8c0.9,2.1,2.6,2.7,4.5,1.4
			c1.7-1.1,3.3-2.5,4.5-4.1c4.2-5.5,6.4-11.9,7.2-18.8c0-0.3,0-0.7,0.1-1c0.2-1.1,0.8-1.9,1.9-1.8c1.1,0.1,1.6,0.8,1.5,1.9
			c-0.4,2.8-0.7,5.7-1.5,8.5c-1.4,5.4-3.6,10.4-7.2,14.6c-1.4,1.7-3.2,3.2-5,4.3c-3.7,2.2-7.4,0.8-9.2-3.1
			C219.6,106.5,219.4,105.7,219.1,105z"/>
		<path class="st0" d="M254.6,115.6c-0.2-0.4-0.4-0.8-0.7-1.3c-1.1,0.6-2.1,1.2-3.1,1.6c-1,0.4-2.1,0.5-2.6-0.8
			c-0.4-1.3,0.3-2.1,1.4-2.6c1-0.5,2.1-0.9,2.9-1.2c0.1-3.7-0.2-7.4,0.4-10.9c0.5-3.6,1.8-7.1,2.8-10.7c0.2-0.6,0.6-1.3,1-1.7
			c0.4-0.4,1.2-0.8,1.4-0.6c0.4,0.3,0.7,1,0.7,1.6c0,0.7-0.4,1.5-0.6,2.2c-1.9,6-3,12-1.8,18.1c0.3,1.5,0.9,3.1,1.6,4.4
			c0.8,1.5,2.1,1.7,3.4,0.5c1.2-1,2.4-2.3,3.1-3.7c3.4-6.1,4.8-12.7,4.3-19.7c-0.1-1.1-0.2-2.2,1.2-2.4c1.3-0.2,1.6,0.8,1.7,1.9
			c0.6,7-0.4,13.9-3.5,20.3c-1.1,2.2-2.7,4.2-4.4,6c-1.6,1.7-3.6,2-5.8,1.5c-0.5-0.1-1.1,0.1-1.7,0.3c-1,0.4-1.9,1-2.9,1.2
			c-0.5,0.1-1.5-0.3-1.6-0.7c-0.2-0.5,0.1-1.5,0.6-2C252.9,116.5,253.7,116.1,254.6,115.6z"/>
		<path class="st0" d="M211,77.7c1.7-0.7,3.5-1.5,5.2-2.2c3-1.4,6.2-2.4,8.9-4.2c6.3-4.1,10-10.1,10.6-18.1c0.1-1.5,0.6-3,1-4.4
			c0.2-0.6,0.6-1.2,1.2-1.8c0.8,3.3,1.7,6.6,1.1,10.1c-1.8,10.8-8.5,17-17.5,20.9c-2.7,1.2-5.6,2-8.6,1.1c-0.6-0.2-1.2-0.5-1.8-0.7
			C211.1,78.1,211.1,77.9,211,77.7z"/>
		<path class="st0" d="M197.4,74.3c0.6-1.9,1.9-2.9,3.4-3.8c2.5-1.5,5.2-3,7.6-4.7c4.5-3.2,8-7.4,10.7-12.4c0.6-1.1,1.1-3,2.8-2.1
			c1.6,0.9,0.6,2.5,0.1,3.7c-2.7,6.6-7.2,11.5-12.7,15.3c-2.3,1.6-4.9,2.8-7.3,4.1C200.5,75,199,75.1,197.4,74.3z"/>
		<path class="st0" d="M258.3,76.6c-0.9,0-1.9,0.3-2.8,0c-3.8-1.1-5.9-5.4-5-9.9c0.5-2.3,1.2-4.6,1.6-7c0.8-5.2-1.9-10.2-6.2-12.3
			c-0.8-0.4-2.2-0.5-1.7-2c0.5-1.4,1.8-0.9,2.7-0.7c5.2,1.3,9.5,8,8.8,14.1c-0.3,2.5-1,4.9-1.6,7.3c-1,3.8-0.3,6,2.6,8.2
			c0.6,0.5,1.2,1,1.8,1.6C258.4,76.3,258.3,76.5,258.3,76.6z"/>
		<path class="st0" d="M243.4,136.4c-5-0.9-9.5-1.9-13.6-4.2c-1.3-0.7-2.7-1.4-4.1-2.1c-0.8-0.4-1.3-1-0.8-1.9
			c0.4-0.6,1.1-1,1.7-1.2c0.3-0.1,0.8,0.1,1.2,0.3c5,2.6,10.3,4.4,15.8,5.8c1,0.2,1.6,0.9,1.2,1.9
			C244.5,135.7,243.7,136.1,243.4,136.4z"/>
		<path class="st0" d="M246.7,109.1c-0.8,1.2-1.5,2.5-2.4,3.5c-0.5,0.5-1.4,0.6-2.2,0.5c-1.3-0.1-2.3-1.4-1.9-2.9
			c0.7-2.8,1.4-4.6,3.3-4.4c1.8,0.2,3,1.4,2.9,3C246.5,108.9,246.6,109,246.7,109.1z"/>
	</g>
</g>
</svg>
