<svg version="1.1" id="Layer_1" xmlns="http://www.w3.org/2000/svg"
						xmlns:xlink="http://www.w3.org/1999/xlink" x="0px" y="0px" viewBox="0 0 400.6 619.8"
						style="enable-background:new 0 0 400.6 619.8;" xml:space="preserve">
						<path id="text-path" class="decor-bg" fill="#FCFDFF" d="M22.9,178.8c-0.3,0.7-0.5,1.3-0.7,2c-0.1,0.2-0.1,0.4-0.2,0.6l-0.1,0.3c-0.3,0.6-0.5,1.2-0.8,1.9
		c-0.5,1.4-1,2.9-1.3,4.4c-0.7,1.3-1.4,2.7-1.9,4.1c-0.3,0.9-0.6,1.7-0.8,2.3c-0.3,0.7-0.8,1.7-1.2,2.9c-0.6,1.7-1.1,3.4-1.5,5.1
		c-1,2-1.8,4.1-2.3,6.3c-0.3,1.1-0.5,2.1-0.6,3l0,0.1c-0.2,0.6-0.4,1.3-0.6,2c-0.5,2.2-0.9,4.3-1,6.5c-0.9,2-1.7,4-2.2,6.2
		c-0.3,1-0.4,1.9-0.6,2.6c-0.2,0.7-0.5,1.7-0.8,3c-1.2,4.9-1.3,9.8-0.3,14.4c-2,3.7-3.3,7.9-3.7,12.4c-0.1,1.2-0.2,2.2-0.2,3
		c-0.1,0.6-0.2,1.2-0.3,2c-0.2,1.7-0.2,3.4-0.1,5c-0.8,3.2-1.3,6.7-1.5,10.5c-0.1,3-0.1,8.7,1.3,14c0.1,0.4,0.2,0.8,0.3,1.1
		c0.4,1.3,1,2.9,1.7,4.7C1.1,304.4,0.3,310.2,1,316c0.1,1.1,0.3,2.2,0.5,3l0,0.1c0.1,0.7,0.1,1.3,0.2,2.1c0.3,2.2,0.8,4.3,1.5,6.4
		c-0.2,2.2-0.1,4.4,0.2,6.6c0.1,1.1,0.3,2,0.4,2.7c0.1,0.8,0.1,1.8,0.3,3c0.4,3.5,1.5,6.9,2.9,9.9c-0.1,4,0.3,8.1,1.4,12.2
		c0.7,2.9,1.9,6.7,4.5,11.2c0.1,3.2,0.8,6.4,1.9,9.5c0.5,1.2,0.9,2.3,1.3,3.1c0.2,0.7,0.5,1.5,0.8,2.5c0.4,1.2,0.9,2.4,1.5,3.5
		c0.3,1.1,0.6,2.2,1,3.2c0.4,1.2,0.8,2.1,1.2,2.9c0,0,0,0,0,0c0.2,0.6,0.5,1.6,0.9,2.6l0,0.1c0.7,1.9,1.5,3.7,2.5,5.4
		c0.5,1.8,1.1,3.6,1.9,5.3c0.4,0.9,0.9,1.7,1.2,2.3l1.6,3.3c0.3,0.6,0.6,1.1,0.8,1.6l0,0c0.3,0.6,0.7,1.6,1.2,2.7l0.4,0.7
		c0.3,0.6,0.5,1.2,0.9,1.9c2.3,4.8,5.7,8.9,9.9,12c0.6,4.7,2.3,9.3,5,13.4c0.5,0.8,1,1.4,1.3,1.9c0.4,0.7,0.9,1.6,1.6,2.6
		c1.2,1.9,2.6,3.6,4.2,5.1c1.2,2.8,2.7,5.5,4.7,7.9c0.7,0.8,1.3,1.6,1.9,2.2c0.4,0.6,0.9,1.3,1.5,2c0.8,1,1.6,1.9,2.5,2.8
		c0.6,1,1.3,1.9,2,2.8c0.8,1,1.5,1.8,2,2.4c0.3,0.5,0.8,1.1,1.3,1.8c1.2,1.5,2.5,2.9,4,4.1c1.1,1.6,2.3,3.1,3.7,4.5
		c0.5,0.5,1,1,1.5,1.5c0.2,0.2,0.3,0.3,0.4,0.4l0.2,0.2c0.5,0.5,0.9,1,1.5,1.5c1.1,1.1,2.2,2.1,3.4,3c0.9,1.2,1.9,2.3,3,3.4
		c0.7,0.7,1.3,1.3,1.7,1.7c0.5,0.6,1.2,1.4,2.1,2.3c1.3,1.3,2.8,2.6,4.3,3.6c1.2,1.4,2.5,2.7,3.9,3.8c0.9,0.7,1.7,1.3,2.3,1.7
		c0.5,0.4,1.2,1,2,1.7c1.2,1,2.5,1.9,3.8,2.7c0.8,0.9,1.7,1.6,2.6,2.3c1,0.8,1.8,1.4,2.4,1.8c0.5,0.4,1.2,1.1,2.1,1.8
		c2.1,1.7,4.3,3.1,6.6,4.2c1.6,0.8,3.2,1.4,4.9,1.9c2.6,3.5,5.9,6.5,9.9,8.9c0.6,0.4,1.3,0.7,1.9,1.1c0.2,0.1,0.4,0.2,0.5,0.3
		l0.3,0.2c0.6,0.4,1.1,0.7,1.8,1.1c0.8,0.5,1.6,0.9,2.4,1.3c0.6,0.3,1.1,0.5,1.7,0.8c1.2,0.9,2.4,1.8,3.7,2.5
		c0.8,0.5,1.6,0.9,2.1,1.2c0.6,0.4,1.6,1,2.7,1.7c0.7,0.4,1.5,0.8,2.2,1.2c3.4,1.6,7,2.6,10.7,2.9c2.3,2.4,5,4.5,8,6.1
		c0.6,0.3,1.2,0.6,1.7,0.9c0.1,0.1,0.2,0.1,0.4,0.2c0.6,0.4,1.5,1,2.7,1.6c0.4,0.2,0.9,0.5,1.5,0.8c0.8,0.4,1.6,0.7,2.5,1
		c0.9,0.7,1.8,1.4,2.7,2c1.1,0.7,2.1,1.3,2.8,1.7c0.6,0.4,1.3,1,2.1,1.5c1.1,0.7,2.2,1.3,3.3,1.9c0.9,0.7,1.8,1.4,2.7,2
		c1,0.7,1.9,1.2,2.7,1.6c0,0,0,0,0,0c0.5,0.4,1.3,1,2.3,1.6l0.1,0.1c0.8,0.8,1.7,1.6,2.6,2.3c0.8,0.6,1.5,1.1,2.1,1.6l2.9,2.3
		c0.5,0.4,1,0.8,1.5,1.1l0,0c0.5,0.4,1.3,1.1,2.3,1.9l0.6,0.5c0.5,0.4,1,0.9,1.6,1.3c0.7,0.5,1.3,1,2,1.5c0.1,0.1,0.1,0.1,0.2,0.2
		c0.5,0.5,1.1,1,1.6,1.5c0.2,0.1,0.3,0.3,0.4,0.4l0.2,0.2c0.5,0.5,1,1,1.5,1.5c1.1,1.1,2.3,2,3.5,2.9c0.9,1.2,2,2.3,3.1,3.3
		c0.7,0.7,1.3,1.2,1.8,1.6c0.5,0.6,1.3,1.4,2.2,2.3c0.4,0.4,0.8,0.7,1.2,1.1c0.6,0.8,1.3,1.6,2,2.4c0.6,0.7,1.2,1.2,1.6,1.7
		c0.5,0.6,1.1,1.4,2,2.4c2.8,3.1,6.2,5.6,9.9,7.4c11.6,5.6,25.3,3.5,34.8-5.2c1.2-1.1,2.1-2,2.8-2.8c0.1-0.1,0.2-0.2,0.3-0.3
		c0.6-0.5,1.1-1,1.6-1.5c0.5-0.5,1-0.9,1.4-1.3c5.4-1.1,10.6-3.7,15-7.7c0.5-0.5,0.9-0.9,1.4-1.3l0.1-0.1c0.5-0.4,1-0.9,1.6-1.4
		c2.5-2.3,6.1-6,8.6-11.9c4.8-11.4,2.5-24.3-5.9-33.6c-0.7-0.8-1.4-1.4-1.8-1.9c0-0.1-0.1-0.1-0.1-0.2c-0.6-0.7-1.2-1.5-2-2.3
		l-0.4-0.4c-1-1.1-1.9-2-2.6-2.7c-0.2-0.2-0.4-0.4-0.6-0.6l-0.1-0.1c-0.4-0.5-1.1-1.3-2-2.3c-1.6-1.7-3.3-3.2-5.1-4.6
		c-1.2-1.6-2.6-3.2-4.1-4.6l-0.2-0.1c-0.6-0.5-1.2-1.1-1.7-1.6c-0.2-0.2-0.5-0.4-0.7-0.6l-0.2-0.2c-0.6-0.7-1.6-1.8-2.9-3
		c-2.2-2.1-4.5-3.8-6.9-5.1c-1.6-2.2-3.6-4.2-5.8-6c-0.6-0.4-1.1-0.8-1.6-1.2l-0.3-0.3c-0.7-0.5-1.3-1-1.8-1.3
		c-0.6-0.6-1.6-1.4-2.8-2.4c-0.3-0.3-0.7-0.5-1-0.8c-0.6-0.6-1.6-1.5-2.8-2.5c-2.1-1.7-4.2-3-6.5-4.1c-0.8-0.4-1.6-0.7-2.4-1
		c-2.4-2.7-5.3-5.1-8.5-7.3c-1.4-0.9-2.6-1.6-3.5-2.2c-0.7-0.4-1.1-0.7-1.4-0.9c-0.1,0-0.2-0.1-0.2-0.1c-0.5-0.4-1.3-1-2.5-1.7
		c-1.3-0.8-2.6-1.6-4-2.3c-0.7-0.3-1.3-0.6-2-0.9c-1.5-1.2-3-2.2-4.7-3.1c-0.7-0.4-1.3-0.7-2-1c-0.1-0.1-0.3-0.1-0.4-0.2
		c-0.1,0-0.1-0.1-0.2-0.1c-0.8-0.5-1.6-1-2.6-1.5l-0.5-0.2c-1.3-0.7-2.4-1.2-3.3-1.7c-0.3-0.1-0.5-0.3-0.8-0.4l-0.1,0
		c-0.5-0.3-1.4-0.9-2.6-1.5c-0.5-0.3-1.1-0.6-1.6-0.8c-3.4-1.6-6.9-2.6-10.4-3c-2.1-2.2-4.6-4.2-7.5-5.9l-0.2-0.1
		c-0.7-0.4-1.4-0.8-2.1-1.2c-0.3-0.2-0.6-0.3-0.8-0.5l-0.3-0.2c-0.8-0.5-2-1.3-3.6-2.3c-0.9-0.5-1.8-1-2.7-1.4
		c-2.2-1.1-4.4-1.8-6.5-2.3c-1.5-2-3.3-3.9-5.4-5.6c-0.5-0.4-1-0.8-1.5-1.2l-0.4-0.3c-0.5-0.5-1.2-1.1-2-1.8
		c-1.2-0.9-2.4-1.8-3.7-2.6c-1-1.1-2.1-2.1-3.3-3.1c-0.9-0.7-1.7-1.3-2.3-1.8c-0.5-0.5-1.2-1.1-1.9-1.7l-0.2-0.1
		c-0.7-0.5-1.4-1.1-2.1-1.5c-0.9-1.1-1.8-2.2-2.8-3.2l-0.1-0.1c-0.5-0.6-1.1-1.1-1.7-1.7c-0.2-0.2-0.5-0.4-0.7-0.7l-0.2-0.2
		c-0.6-0.7-1.6-1.8-2.8-3.1c-1.3-1.3-2.7-2.5-4.1-3.5c-0.5-0.8-1.1-1.5-1.7-2.3c-0.6-0.7-1.1-1.4-1.6-1.9c-0.4-0.6-0.9-1.3-1.6-2.1
		c-0.8-1-1.6-1.9-2.5-2.8c-0.7-1.1-1.4-2.1-2.2-3.1c-0.7-0.9-1.4-1.6-1.9-2.2c-0.4-0.5-0.8-1.1-1.4-1.8c0,0,0,0,0,0
		c-0.4-0.8-0.9-1.5-1.4-2.3c-0.6-0.9-1.1-1.6-1.5-2.1c0-0.1-0.1-0.1-0.1-0.2c-0.5-0.8-1-1.6-1.6-2.5l-0.3-0.5
		c-0.8-1.2-1.5-2.2-2.1-3c-0.2-0.2-0.4-0.5-0.5-0.7l0-0.1c-0.3-0.5-0.9-1.5-1.6-2.6c-1.2-1.8-2.5-3.4-4-5c-0.5-2-1.2-4-2.1-5.9
		c-0.3-0.6-0.6-1.2-0.9-1.7l-0.2-0.4c-0.4-0.8-0.7-1.4-1-2c-0.3-0.8-0.8-1.9-1.5-3.4c-0.2-0.4-0.4-0.8-0.6-1.2
		c-0.3-0.8-0.8-2-1.5-3.5c-0.8-1.7-1.7-3.2-2.6-4.5c-0.4-2.3-1.1-4.6-1.9-6.9c-0.6-1.6-1.1-2.9-1.5-3.9c-0.3-0.8-0.5-1.2-0.6-1.5
		c0-0.1-0.1-0.2-0.1-0.2c-0.2-0.6-0.5-1.6-0.9-2.9c-0.6-1.5-1.2-3-2-4.5c-0.1-2.8-0.5-5.6-1.3-8.4l-0.1-0.3
		c-0.6-2.4-1.4-5.1-2.6-7.9c0-0.7-0.1-1.5-0.2-2.2c-0.1-1.1-0.3-1.9-0.4-2.6c0-0.6-0.1-1.5-0.2-2.5c-0.3-2.6-0.9-5-1.6-7.3
		c0.2-2.3,0.1-4.5-0.1-6.6c-0.1-0.7-0.2-1.3-0.3-1.9c0-0.3-0.1-0.6-0.1-0.9c-0.1-0.7-0.2-1.4-0.2-2.2c-0.2-2.1-0.7-4.2-1.3-6.2
		c1.4-4.8,1.5-9.1,1.6-11.7l0-0.4c0.1-2.8-0.1-5.5-0.4-8.1c0.3-1.4,0.6-2.7,0.7-4.2c0.1-1.2,0.2-2.2,0.2-2.8c0-0.1,0-0.2,0-0.4
		c0.1-0.7,0.2-1.4,0.3-2.2c0.3-2.8,0.3-5.5-0.1-8c0.8-1.7,1.4-3.4,1.8-5.2c0.3-1,0.4-1.9,0.6-2.5c0.2-0.6,0.4-1.4,0.7-2.5
		c0.6-2.5,1-4.9,1.1-7.3c1-2,1.7-4.1,2.2-6.1c0.2-0.7,0.3-1.3,0.4-1.9c0.1-0.3,0.2-0.6,0.2-0.9c0.2-0.7,0.4-1.4,0.6-2.2
		c0.2-0.9,0.4-1.8,0.6-2.7c0.7-1.3,1.3-2.6,1.8-4c0,0,0.1-0.2,0.1-0.3c0.3-0.7,0.5-1.5,0.8-2.2c0.1-0.3,0.2-0.6,0.3-0.9l0.1-0.3
		c0.4-0.9,1-2.2,1.7-3.9c0.6-1.6,1.1-3.1,1.4-4.6c0.6-0.9,1.1-1.9,1.6-2.9c0.3-0.6,0.6-1.2,0.8-1.8l0.2-0.4c0.4-0.8,0.7-1.5,0.9-2
		c0.4-0.7,1-1.8,1.7-3.2c0.2-0.4,0.4-0.8,0.6-1.2c0.5-0.8,1.1-1.9,1.8-3.3c0.8-1.5,1.4-3.1,1.9-4.7c1.6-1.8,3-3.7,4.3-5.8
		c0.9-1.4,1.6-2.6,2.1-3.6c0.4-0.7,0.6-1.1,0.8-1.4c0-0.1,0.1-0.2,0.1-0.2c0.4-0.5,1-1.4,1.7-2.5c0.1-0.2,0.3-0.4,0.4-0.7
		c1-1,1.9-2.1,2.8-3.4l0.1-0.2c1.6-2.1,4.8-6.8,6.8-13.1c2.9-1.5,5.6-3.5,8-5.9c0.5-0.5,0.9-0.9,1.3-1.4l0.3-0.3
		c0.6-0.6,1.1-1.2,1.5-1.6c0.6-0.6,1.6-1.4,2.6-2.5c0.3-0.3,0.6-0.6,0.9-1c0.7-0.6,1.7-1.4,2.8-2.5c0.3-0.3,0.6-0.6,0.9-0.9
		c1.1-0.8,2.2-1.6,3.2-2.5l0.2-0.2c1.4-1.2,4-3.6,6.6-7c1.7-0.8,3.4-1.8,5-3c1-0.7,1.8-1.4,2.3-1.8c0.1-0.1,0.2-0.1,0.3-0.2
		c0.6-0.4,1.2-0.8,1.8-1.3c1.1-0.8,3.5-2.6,6-5.6c2.1-0.7,4.2-1.5,6.1-2.6c0.6-0.4,1.2-0.7,1.7-1l0.4-0.2c0.7-0.4,1.4-0.8,1.9-1.1
		c0.8-0.4,1.9-0.9,3.2-1.7c0.4-0.2,0.8-0.4,1.2-0.7c0.8-0.4,2-0.9,3.3-1.7c1-0.6,2-1.2,2.9-1.8c0.4-0.2,0.7-0.3,1-0.5
		c0.4-0.2,0.7-0.3,1.1-0.5c0.7-0.3,1.8-0.7,3.1-1.3c1.2-0.5,2.4-1.1,3.5-1.8c1.1-0.4,2.2-0.8,3.3-1.3c0.9-0.4,1.7-0.8,2.4-1.1
		c0.4-0.2,0.8-0.4,1.2-0.6l0.1,0c0.4-0.2,0.9-0.4,1.3-0.6c0.6-0.2,1.2-0.4,1.9-0.6c0.7-0.2,1.3-0.4,1.8-0.7l0.4-0.1
		c0.8-0.3,1.5-0.5,2.1-0.8c0.8-0.2,2-0.6,3.5-1.1c0.4-0.1,0.8-0.3,1.2-0.4c0.9-0.2,2.1-0.5,3.6-1.1c0.8-0.3,1.5-0.6,2.3-0.9
		c0.8-0.1,1.6-0.3,2.3-0.5c1.2-0.3,2.1-0.6,2.7-0.8c0.1,0,0.2-0.1,0.3-0.1c0.7-0.2,1.4-0.3,2.2-0.5c1-0.3,3.1-0.8,5.6-2
		c2.1,0,4.2-0.2,6.4-0.6c0.8-0.2,1.5-0.3,2.1-0.4c0.7-0.1,1.7-0.2,2.7-0.4c0.9-0.2,1.8-0.4,2.7-0.6c0.4,0,0.8,0,1.2-0.1
		c0.7-0.1,1.3-0.2,1.9-0.2l0.4,0c0.9-0.1,1.6-0.2,2.2-0.3c0.8,0,2.1-0.1,3.6-0.3c0.4,0,0.9-0.1,1.3-0.2c0.9,0,2.2-0.1,3.7-0.2
		c1.7-0.2,3.3-0.5,4.9-0.9c2.1,0.3,4,0.4,5.7,0.4c1.1,0,2-0.1,2.7-0.1l0.3,0c0.5,0,1.2,0.1,2.1,0.1c1.6,0,2.9,0,3.8-0.1
		c0.6,0,1.1,0,1.7,0c2.5,0,5-0.3,7.3-0.8c2.2,0.8,4.4,1.4,6.8,1.8c0.7,0.1,1.3,0.2,1.9,0.2l0.4,0.1c0.9,0.1,1.6,0.2,2.2,0.3
		c0.8,0.2,2.1,0.4,3.6,0.6c0.4,0.1,0.9,0.1,1.3,0.2c0.9,0.2,2.1,0.5,3.7,0.7c1.5,0.2,3,0.3,4.5,0.4c0.7,0.3,1.7,0.6,2.7,0.8
		c1.7,0.5,3.3,0.8,4.8,1c1.2,0.5,2.5,0.9,3.9,1.3c0.8,0.2,1.5,0.4,2,0.5c0.5,0.2,1.2,0.4,1.9,0.6c1.6,0.5,3.1,0.9,4.7,1.1
		c1,0.4,2.1,0.8,3.2,1c0.7,0.2,1.3,0.3,1.9,0.5c0.6,0.2,1.4,0.5,2.4,0.7c11.2,3.3,20-0.1,24.3-2.5c7.5-4.1,12.9-11.1,15.2-19.6
		c1.3-4.8,1.9-15.5,1.9-15.6c0-0.2,0-0.4,0-0.6c0.1-1.7,0-3.1,0-4.1c0-0.1,0-0.2,0-0.3c0-0.1,0-0.2,0-0.3c0.1-0.9,0.2-2.3,0.3-4
		c0.1-2,0.1-3.6,0-4.9c0-0.5,0-1.3,0-1.5c0-0.2,0-0.3,0-0.5c0-0.3,0.1-0.7,0.1-1c0.4-4.5,1.2-12.9-3.8-21.7
		c-3.2-5.6-8-10.1-13.8-12.9c-1.8-0.9-3.7-1.6-5.8-2.1c-0.6-0.2-1.3-0.3-2-0.5l-0.1,0l-0.3-0.1c-0.6-0.2-1.3-0.4-2.1-0.6
		c-1.2-0.3-2.3-0.6-3.5-0.8c-1.2-0.5-2.5-0.9-3.7-1.3c-0.9-0.2-1.7-0.4-2.3-0.5c-0.7-0.2-1.6-0.5-2.8-0.8c-3.8-1-7.3-1.3-10.4-1.1
		c-2.9-1.4-6-2.3-9.2-2.8c-1-0.1-1.9-0.2-2.6-0.3l-3.6-0.5C333.6,3,333,3,332.5,2.9l0,0c-0.7-0.1-1.7-0.3-2.9-0.5l-0.8-0.1
		c-0.6-0.1-1.3-0.2-2-0.3c-4.7-0.7-9.3-0.3-13.7,0.9c-4.2-1.9-8.7-2.9-13.4-2.8c-1.1,0-2,0.1-2.7,0.1c-0.6,0-1.1,0-1.8,0
		c-1.2,0-2.2,0-3.2,0c-0.7,0-1.5,0-2.4,0l-0.6,0c-3.4,0-6.7,0.4-9.8,1.2c-3.3-0.7-6.7-0.9-10.1-0.6c-1,0.1-1.9,0.2-2.6,0.4l-3.7,0.4
		c-0.7,0.1-1.2,0.1-1.8,0.2l0,0c-0.7,0-1.7,0.1-3,0.2L257.2,2c-0.7,0-1.3,0.1-2.1,0.2C253,2.4,251,2.8,249,3.4
		c-1.8,0-3.7,0.2-5.5,0.6c-1.3,0.2-2.3,0.5-2.9,0.7l-0.1,0l-3.1,0.6c-0.7,0.1-1.3,0.2-2.1,0.4c-0.7,0.1-1.3,0.3-1.8,0.4
		c-0.6,0.1-1.5,0.2-2.6,0.4c-2,0.4-4,1-5.9,1.7c-1.5,0.2-3,0.5-4.6,0.9c-1.2,0.3-2.2,0.6-2.9,0.9c-0.6,0.1-1.2,0.3-2,0.5
		c-1.5,0.4-3,0.9-4.4,1.5c-2.1,0.3-4.2,0.7-6.3,1.4c-1,0.3-1.8,0.6-2.5,0.9l-3.4,1.2c-0.6,0.2-1.2,0.4-1.7,0.6l0,0
		c-0.6,0.2-1.6,0.5-2.9,0.9l-0.8,0.3c-0.6,0.2-1.3,0.4-2,0.6c-2.8,0.9-5.3,2.2-7.6,3.7c-2.7,0.5-5,1.3-6.9,2.2l-7.1,3.1
		c-2.8,1.2-5.2,2.7-7.2,4.3c-2.9,0.7-5.6,1.8-8.2,3.2c-0.9,0.5-1.7,1-2.3,1.4l-3.2,1.8c-0.6,0.3-1.1,0.6-1.6,0.9l0,0
		c-0.6,0.3-1.5,0.8-2.6,1.4l-0.7,0.4c-0.6,0.3-1.2,0.6-1.8,1c-4,2.3-7.5,5.3-10.1,8.9c-4,1.1-7.9,2.9-11.5,5.5
		c-1,0.7-1.8,1.4-2.4,1.9c-0.5,0.3-1,0.7-1.7,1.2c-2.7,2-5,4.3-6.9,6.9c-0.8,0.4-1.6,0.8-2.5,1.2c-0.8,0.4-1.6,0.9-2.4,1.4
		c-2.5,1.6-6.5,4.8-6.5,4.9c-1.8,1.5-3.4,3.2-4.8,5c-1.3,1-2.6,2-3.7,3.2c-0.7,0.7-1.3,1.4-1.8,1.9l-2.6,2.6
		c-0.5,0.5-0.9,0.9-1.3,1.3l0,0c-0.5,0.5-1.2,1.1-2.2,2.1l-0.6,0.6c-0.5,0.4-1,0.9-1.5,1.4c-4.4,4.4-7.2,9.6-8.5,15.1
		c-2.8,1.4-5.5,3.3-8.3,5.6c-0.7,0.6-1.4,1.2-2.1,1.9c-2.1,2.1-5.2,6.1-5.3,6.2c-1.4,1.8-2.6,3.8-3.5,5.8c-1.1,1.3-2.1,2.7-3.1,4.1
		c-0.7,1.1-1.2,2.1-1.6,2.9c-0.4,0.6-0.9,1.3-1.5,2.2c-0.7,1.1-1.3,2.2-1.8,3.4c-0.7,0.9-1.3,1.8-1.9,2.7c-0.7,1.1-1.2,2-1.5,2.8
		c0,0,0,0,0,0c-0.4,0.5-0.9,1.3-1.5,2.3l0,0.1c-1,1.7-1.9,3.4-2.6,5.2c-1.1,1.6-2.2,3.2-3.1,5c-0.4,0.9-0.8,1.7-1.1,2.4l-1.6,3.3
		c-0.3,0.6-0.5,1.1-0.8,1.6l0,0c-0.3,0.6-0.8,1.5-1.4,2.6l-0.4,0.7c-0.3,0.6-0.6,1.2-1,1.8c-0.8,1.5-1.4,3.1-1.9,4.7
		C24.4,175.3,23.6,177,22.9,178.8z" />

						<text style="font-size: 5rem;">
							<textPath href="#text-path">
								WE BELIEVE ICE CREAM IS MORE THAN A TREAT
							</textPath>
						</text>
					</svg>