<?xml version="1.0" encoding="utf-8"?>
<!-- Generator: Adobe Illustrator 27.8.1, SVG Export Plug-In . SVG Version: 6.00 Build 0)  -->
<svg version="1.1" id="Layer_1" xmlns="http://www.w3.org/2000/svg" xmlns:xlink="http://www.w3.org/1999/xlink" x="0px" y="0px"
	 viewBox="0 0 713.7 283.2" style="enable-background:new 0 0 713.7 283.2;" xml:space="preserve">
<style type="text/css">
	.st0{clip-path:url(#SVGID_00000111157227176269354380000012222682483743514270_);}
	.st1{fill:#FDFEFF;}
	.st2{fill:#F05423;}
</style>
<g>
	<defs>
		<rect id="SVGID_1_" width="713.7" height="283.2"/>
	</defs>
	<clipPath id="SVGID_00000037654372924114996730000005053502214035477423_">
		<use xlink:href="#SVGID_1_"  style="overflow:visible;"/>
	</clipPath>
	<g style="clip-path:url(#SVGID_00000037654372924114996730000005053502214035477423_);">
		<g>
			<path class="st1" d="M22.4,541.4c2.6-2.6,6.2-6.6,8.7-11.1c0.2-0.3,0.4-0.7,0.5-1c0.9-1.7,1.9-4,2.7-6.8
				c5.2-2.1,9.8-5.6,13.4-10.2c0.6-0.7,1-1.4,1.4-1.9c0.5-0.6,1.2-1.4,2-2.4c1.3-1.7,2.5-3.6,3.4-5.6c2.3-2,4.3-4.4,6-7
				c0.6-0.9,1-1.8,1.4-2.5c0.4-0.6,0.9-1.3,1.4-2.1c0.7-1.1,1.3-2.2,1.8-3.3c0.7-0.9,1.4-1.8,2-2.8c0.7-1.1,1.2-2,1.6-2.7
				c0.3-0.5,0.8-1.1,1.2-1.8c1-1.7,1.9-3.4,2.6-5.1c1.1-1.5,2.1-3.2,3-4.9c0.3-0.6,0.6-1.3,0.9-1.9c0.1-0.2,0.2-0.4,0.3-0.6l0.1-0.3
				c0.3-0.6,0.6-1.2,1-1.9c0.7-1.4,1.2-2.8,1.7-4.2c0.8-1.2,1.6-2.5,2.3-3.9c0.4-0.9,0.8-1.6,1-2.2c0.4-0.7,0.9-1.6,1.5-2.8
				c1.1-2.3,2-4.7,2.5-7.1c0.7-1.3,1.3-2.6,1.9-3.9c0.3-0.8,0.6-1.6,0.8-2.2c0.3-0.7,0.8-1.6,1.2-2.8c1.9-4.8,2.5-9.8,2.1-14.6
				c3.7-4,6.3-9,7.6-14.7c0.2-1.1,0.4-2.1,0.5-3l0-0.1c0.2-0.6,0.3-1.3,0.5-2.1c0.5-2.2,0.7-4.4,0.8-6.5c0.9-2,1.6-4,2-6.2
				c0.2-1,0.4-1.9,0.5-2.7c0.2-0.7,0.5-1.8,0.7-3c0.4-2,0.7-4.1,0.7-6.3c0.5-1.7,0.8-3.6,1-5.4c0.1-0.7,0.1-1.4,0.2-2.2
				c0-0.2,0-0.4,0-0.6l0-0.3c0.1-0.7,0.2-1.3,0.3-2.1c0.1-1.5,0.2-3,0.1-4.5c0.4-1.5,0.6-3,0.8-4.5c0.1-1,0.1-1.8,0.2-2.4
				c0.1-0.8,0.3-1.8,0.4-3.2c0.2-2.2,0.2-4.4,0-6.6c0-0.2,0.1-0.5,0.1-0.7c0.1-1.2,0.1-2.2,0.1-3.1c0-0.1,0-0.2,0-0.3l0-0.3
				c0.1-0.7,0.1-1.3,0.2-2.1c0.1-1.3,0.1-2.6,0.1-3.9c0.2-1.1,0.3-2.1,0.4-3.1c0.1-1.3,0.1-2.3,0.1-3l0-0.2c0.1-0.6,0.1-1.3,0.2-2
				l0-0.1c0-0.2,0-0.3,0-0.5c0.3-1.1,0.5-2.2,0.7-3.4c0.2-1,0.3-1.9,0.3-2.6l0.6-3.6c0.1-0.7,0.2-1.3,0.2-1.8l0,0
				c0.1-0.7,0.3-1.7,0.5-2.9l0.1-0.8c0.1-0.6,0.2-1.3,0.4-2.1c0.5-3.4,0.5-6.7,0.1-9.8c2-2.8,3.5-6,4.6-9.5l0.5-1.6
				c0.2-0.8,0.4-1.6,0.6-2.2c0.1-0.3,0.2-0.7,0.3-1.1c0.7-2.4,1.1-4.9,1.3-7.3c2-2.9,3.8-6.2,5.2-9.7c1-2.6,2.2-6.1,2.7-10.8
				c2.1-2.3,4.2-5.2,6-8.8c1.8-3.5,3.2-6.8,4-9.8c1.1-4.1,1.6-8.4,1.3-12.9c0-0.1,0-0.1,0-0.2c-0.8-13.5-8.3-24.9-20.4-31.4
				l-0.1-0.1c-0.7-0.4-1.8-1.1-3.3-1.8c-1.2-0.6-2.3-1.1-3.3-1.6c-0.6-0.3-1.2-0.6-1.9-0.9c-0.1-0.1-0.3-0.2-0.4-0.2
				c-0.9-0.5-2.3-1.3-4.1-2.2c-1.3-0.6-2.3-1.1-3-1.4l-0.2-0.1c-0.7-0.4-0.9-0.4-1-0.5c-0.6-0.4-1.9-1.2-3.6-2.1
				c-4.3-2.2-8.8-3.4-13.5-3.6c-12.3-0.5-23.5,6.1-29.1,17.2c-0.4,0.8-0.8,1.5-1,2.1c-0.4,0.7-0.9,1.6-1.5,2.7
				c-0.6,1.2-1.2,2.5-1.6,3.7c-0.7,1.1-1.4,2.2-2,3.5c-0.2,0.5-0.4,0.9-0.6,1.3c-0.4,0.7-1,1.6-1.5,2.8c-1.7,3.3-2.7,6.8-3.2,10.3
				c-2.6,3.2-4.7,7-6.4,11.1l-0.1,0.3c-1.1,2.8-2.2,6.2-2.8,10c-1.4,2.4-2.6,5-3.4,7.8c-0.2,0.8-0.4,1.6-0.6,2.1
				c-0.2,0.6-0.4,1.3-0.7,2.1c-0.5,1.7-0.8,3.3-1.1,4.9c-0.5,1.2-1,2.5-1.4,3.8c-0.3,0.9-0.5,1.6-0.6,2.4l0,0.2
				c-0.2,0.5-0.5,1.3-0.7,2.2c-1.4,4.4-1.8,8.9-1.3,13.3c-2,3.4-3.4,7.2-4.1,11.4c-0.1,0.7-0.2,1.3-0.3,1.9l-0.1,0.4
				c-0.1,0.9-0.2,1.6-0.3,2.2c-0.2,0.8-0.4,2.1-0.7,3.6c-0.1,0.4-0.1,0.9-0.2,1.3c-0.2,0.9-0.5,2.1-0.7,3.7
				c-0.3,1.9-0.4,3.8-0.4,5.7c-0.5,1.9-0.8,3.8-1,5.8c0,0.1,0,0.1,0,0.2c-0.1,1.1-0.1,2-0.1,2.8c-0.2,1-0.3,2.1-0.4,3.4
				c-0.1,1.3-0.1,2.6,0,4c-0.1,1-0.3,1.9-0.3,2.9c-0.1,1.1-0.1,2-0.1,2.6c-0.1,0.6-0.1,1.2-0.2,1.8l-0.1,1.3
				c-0.2,2.3-0.1,4.6,0.2,6.8c-0.2,1.2-0.4,2.4-0.6,3.6l0,0.2c-0.1,0.8-0.1,1.6-0.2,2.4c0,0.3,0,0.6-0.1,0.9l-0.1,0.3
				c-0.2,0.9-0.4,2.4-0.6,4.2c-0.2,1.8-0.2,3.4-0.2,5c-0.2,0.6-0.3,1.1-0.4,1.7c-0.2,1.1-0.4,1.9-0.5,2.6c-0.2,0.6-0.4,1.4-0.6,2.5
				c-0.6,2.5-0.8,5-0.9,7.4c-0.9,2.1-1.6,4.2-2.1,6.2c-0.1,0.7-0.3,1.3-0.4,1.9c-0.1,0.3-0.1,0.6-0.2,0.9c-0.2,0.7-0.3,1.4-0.5,2.2
				c-0.4,1.9-0.7,3.8-0.8,5.8c-1.2,1.8-2.2,3.8-3.1,6c-0.4,1-0.7,1.9-0.9,2.5c0,0.1-0.1,0.1-0.1,0.2c-0.4,0.9-0.8,1.8-1.2,2.8
				l-0.2,0.5c-0.5,1.4-0.9,2.5-1.3,3.5c-0.1,0.3-0.2,0.6-0.3,0.8l0,0.1c-0.3,0.6-0.7,1.5-1.2,2.8c-0.3,0.7-0.5,1.5-0.8,2.2
				c-0.5,0.8-1,1.7-1.4,2.6l-0.1,0.1c-0.3,0.7-0.7,1.4-1,2.2c-0.1,0.3-0.3,0.6-0.4,0.9l-0.2,0.3c-0.5,0.8-1.2,2.1-2,3.7
				c-0.8,1.7-1.5,3.4-2,5c-0.6,0.7-1.1,1.5-1.6,2.3c-0.5,0.8-0.9,1.5-1.2,2.1c-0.4,0.6-0.9,1.3-1.4,2.2c-0.7,1.1-1.3,2.2-1.8,3.3
				c-0.8,1-1.5,2-2.2,3.1c-0.6,1-1.1,1.8-1.4,2.5c-0.3,0.5-0.8,1.1-1.3,1.9c0,0,0,0,0,0.1c-0.6,0.7-1.2,1.3-1.7,2
				c-0.7,0.9-1.2,1.6-1.5,2.1c0,0.1-0.1,0.1-0.1,0.2c-0.6,0.7-1.2,1.5-1.9,2.4l-0.3,0.4c-0.9,1.2-1.6,2.2-2.2,3
				c-0.2,0.2-0.3,0.5-0.5,0.7l-0.1,0.1c-0.4,0.5-1.1,1.3-1.9,2.3c-1.4,1.8-2.5,3.6-3.5,5.6c-4.2,2.6-7.1,5.5-8.7,7.1l-0.3,0.3
				c-2.2,2.1-3.9,4.3-5.4,6.5c-0.5,0.4-1,0.7-1.5,1.1c-0.8,0.7-1.5,1.3-2,1.7c-0.5,0.4-1.2,0.9-2.1,1.6c-2,1.6-3.8,3.3-5.3,5.2
				c-1.9,1-3.8,2.2-5.5,3.6c-0.6,0.5-1,0.8-1.5,1.3c-0.2,0.2-0.5,0.4-0.7,0.5c-0.6,0.4-1.1,0.9-1.7,1.4c-0.8,0.6-1.5,1.2-2.2,1.8
				c-1.3,0.6-2.6,1.3-3.8,2.1l-0.2,0.1c-0.7,0.4-1.3,0.8-2,1.3c-0.3,0.2-0.5,0.4-0.8,0.5l-0.3,0.2c-0.8,0.5-2.1,1.1-3.7,2.1
				c-1.5,0.9-2.8,1.9-4,2.9c-1,0.4-1.9,0.8-2.9,1.3c-0.6,0.3-1.2,0.6-1.7,0.9l-0.4,0.2c-0.8,0.4-1.4,0.7-2,1
				c-0.8,0.3-1.9,0.8-3.3,1.5c-0.4,0.2-0.8,0.4-1.2,0.6c-0.8,0.3-2,0.8-3.4,1.5c-1.5,0.8-3,1.6-4.4,2.6c-2.3,0.5-4.6,1.2-6.9,2.1
				c-1.6,0.6-2.8,1.1-3.9,1.6c-0.8,0.3-1.2,0.5-1.5,0.6c-0.1,0-0.2,0.1-0.2,0.1c-0.6,0.2-1.6,0.5-2.9,1c-0.2,0.1-0.4,0.2-0.6,0.2
				c-1.7,0.3-3.2,0.7-4.4,1l-0.2,0.1c-2.5,0.7-7.9,2.5-13.3,6.2c-1.4-0.2-2.8-0.4-4.3-0.5c-1.9-0.1-3.8,0-5.6,0.3
				c-0.7,0.1-1.3,0.2-1.9,0.3l-0.5,0.1c-0.8,0.1-1.6,0.2-2.2,0.4c-0.8,0.1-2.1,0.2-3.6,0.4c-0.4,0.1-0.9,0.1-1.3,0.2
				c-0.9,0-2.2,0.1-3.7,0.4c-0.4,0.1-0.8,0.1-1.1,0.2c-0.1,0-0.1,0-0.2,0c-1.8-0.1-3.3,0-4.1,0.1l-0.2,0c-1.9,0.1-5.4,0.4-9.5,1.6
				c-1.7-0.3-3.4-0.6-5.1-0.6c-0.2,0-0.5,0-0.7,0c-1.2,0-2.2,0-2.9,0l-0.9,0c-0.5,0-1.1,0-1.7,0c-2.1,0-8.4-0.1-15.4,3.4
				c-10.4,5.3-17,15.9-17.2,27.7c0,1.3,0,2.4,0.1,3.2l0,2.2c0,0.4,0,0.8-0.1,1.1c-0.1,0.9-0.1,2.2-0.2,3.9l-0.1,5.8
				c0,1.7,0,3.1,0,4.2c0,0.7,0,1.4,0,2.2l0,1.3c-0.1,0.8-0.2,2-0.2,3.5l0,1.9c-0.4,17.9,12.9,32,30.9,32.6c0.3,0,0.6,0,0.8,0
				c1.2,0,2.2,0,3-0.1c0.4,0,0.8,0,1.2,0.1c0.3,0,0.6,0,0.9,0c3.3,0,6.5-0.4,9.6-1.3c0.9,0.2,1.8,0.4,2.7,0.5
				c0.9,0.2,1.9,0.3,2.8,0.4c0.5,0,1.1,0.1,1.6,0.1c1.4,0.1,5.2,0,6.5-0.1c2.4-0.1,4.6-0.5,6.8-1.1c1.6,0,3.3-0.1,4.9-0.3
				c1-0.1,1.9-0.3,2.6-0.5l3.6-0.5c0.7-0.1,1.2-0.2,1.8-0.3l0,0c0.7-0.1,1.7-0.2,3-0.3l0.8-0.1c0.7-0.1,1.3-0.1,2.1-0.2
				c6.1-0.9,11.6-3.3,15.9-6.9c1.8,0.3,3.8,0.5,5.7,0.6c1.7,0.1,3.2,0,4.3,0c0.9,0,1.8-0.1,2.8-0.2c2.9-0.4,7.9-1.7,7.9-1.7
				c2.2-0.6,4.3-1.5,6.3-2.5c1.7-0.3,3.3-0.8,5-1.5c1.2-0.5,2.3-0.9,3.1-1.3c0.7-0.2,1.5-0.5,2.5-0.9c1.2-0.5,2.4-1,3.5-1.6
				c1.1-0.3,2.2-0.6,3.2-1c1.1-0.4,2.1-0.9,2.9-1.2c0,0,0,0,0,0c0.6-0.2,1.5-0.5,2.6-0.9l0.1,0c1.9-0.7,3.6-1.6,5.3-2.6
				c1.8-0.5,3.6-1.2,5.4-2.1c0.9-0.4,1.7-0.9,2.3-1.3l3.3-1.6c0.6-0.3,1.1-0.6,1.6-0.8l0,0c0.6-0.3,1.5-0.7,2.7-1.3l0.7-0.4
				c0.6-0.3,1.2-0.5,1.9-0.9c1.6-0.8,3.1-1.7,4.5-2.7c1.7-0.7,3.4-1.6,5.1-2.6c0.6-0.4,1.2-0.8,1.8-1.2c0.2-0.1,0.4-0.2,0.5-0.3
				l0.3-0.2c0.6-0.3,1.2-0.7,1.8-1.1c1.3-0.8,2.5-1.7,3.7-2.7c1.4-0.6,2.7-1.3,4-2.1c0.8-0.5,1.5-1,2-1.3c0.7-0.4,1.6-0.9,2.7-1.6
				c1.5-1,3-2.1,4.3-3.2c2-1,3.8-2.2,5.6-3.6c0.9-0.7,1.7-1.4,2.3-2l0.1,0c0.5-0.4,1.1-0.8,1.7-1.3c1.9-1.5,3.4-3.1,4.7-4.6
				c1.9-1,3.8-2.2,5.5-3.6c0.8-0.7,1.5-1.3,2.1-1.8c0.6-0.4,1.5-1.1,2.4-1.8c1.9-1.5,3.6-3.3,5.1-5.1
				C17.9,545.6,20.4,543.4,22.4,541.4z"/>
			<path class="st1" d="M693.6,321.1c-0.1-0.6-0.2-1.5-0.4-2.6c-0.4-2.6-1.1-5-2-7.2c0.1-2.3-0.1-4.5-0.4-6.5
				c-0.1-0.7-0.2-1.3-0.4-1.9c-0.1-0.3-0.1-0.6-0.1-0.9c-0.1-0.7-0.2-1.4-0.3-2.2c-0.5-3.1-1.4-6-2.7-8.8c-0.1-2.3-0.4-4.7-1-7
				l0-0.1c-0.2-0.8-0.4-1.5-0.6-2.3c-0.1-0.3-0.2-0.6-0.2-0.9l-0.1-0.3c-0.2-0.9-0.4-2.4-0.9-4.1c-0.7-2.9-1.7-5.4-2.8-7.6
				c-0.2-2.6-0.6-5.1-1.4-7.6c-0.2-0.7-0.4-1.3-0.6-1.9l-0.1-0.4c-0.3-0.8-0.5-1.5-0.7-2.1c-0.2-0.8-0.5-2-1-3.5
				c-0.1-0.4-0.3-0.8-0.4-1.3c-0.2-0.9-0.5-2.1-1-3.6c-1-3.2-2.5-6.2-4.3-8.8c-0.5-3.5-1.4-7-2.8-10.5c-0.6-1.6-1.2-2.8-1.7-3.8
				c-0.3-0.7-0.5-1.2-0.7-1.5c0-0.1-0.1-0.2-0.1-0.2c-0.2-0.6-0.5-1.6-1-2.8c-1.5-3.7-3.6-7-6.1-9.8c-0.8-3.7-2.1-7.5-4-11.2
				c-0.4-0.8-0.8-1.4-1-1.8c-0.2-0.4-0.4-0.7-0.6-1.1c-0.2-0.3-0.3-0.6-0.5-0.9c-0.2-0.3-0.3-0.6-0.4-0.9c-0.3-0.7-0.6-1.3-1-2.1
				c-2.9-5.7-7.2-10.2-12.4-13.2c-0.8-6.5-3.3-12.8-7.6-18.7c-0.5-0.7-0.9-1.2-1.2-1.6c-0.3-0.3-0.5-0.7-0.8-1
				c-0.2-0.3-0.4-0.5-0.6-0.8c-0.2-0.3-0.4-0.5-0.5-0.8c-0.4-0.6-0.8-1.2-1.3-2c-1.3-1.9-2.8-3.6-4.4-5.1c-1.1-2-2.4-3.9-4-5.7
				c-0.5-0.5-0.9-1-1.3-1.4l-0.3-0.3c-0.4-0.5-1-1.2-1.7-2c-1-1.1-2.1-2.2-3.2-3.2c-0.8-1.2-1.7-2.4-2.7-3.6c-0.8-0.9-1.5-1.6-2-2.1
				c-0.4-0.6-1-1.3-1.6-2c0,0-0.2-0.3-0.2-0.3c-1.1-1.3-2.3-2.4-3.7-3.5c-1-0.8-2.1-1.5-3.1-2.2c-1.5-2.2-3.3-4.4-5.4-6.3l-0.2-0.1
				c-0.6-0.5-1.2-1.1-1.8-1.6c-0.2-0.2-0.5-0.4-0.7-0.6l-0.2-0.2c-0.7-0.7-1.6-1.7-3-3c-4.6-4.2-9.3-6.5-13.5-7.7
				c-2.4-4.6-6-8.7-10.7-11.9c-0.7-0.5-1.3-0.9-1.9-1.2c-0.5-0.4-1.1-0.8-1.7-1.3c-1.4-1-2.9-1.8-4.4-2.6c-1-0.9-2.1-1.7-3.2-2.5
				c-0.7-0.5-1.4-0.9-2.1-1.3l-0.2-0.1c-0.4-0.3-1-0.8-1.8-1.4c-2.5-1.8-5.1-3.2-7.9-4.2c-2.3-2.1-5-4-7.9-5.6l-0.2-0.1
				c-2.6-1.5-6.3-3.3-10.8-4.4c-2.2-1.9-4.6-3.4-7.3-4.7c-0.7-0.3-1.3-0.6-2-0.9c-0.1,0-0.2-0.1-0.4-0.2c-0.6-0.3-1.5-0.8-2.6-1.3
				c-2.2-1-4.4-1.8-6.7-2.3c-2-1.4-4.2-2.5-6.5-3.4c-0.7-0.3-1.2-0.4-1.9-0.6l-0.4-0.2c-0.6-0.3-1.4-0.6-2.5-1
				c-1.4-0.5-2.8-0.9-4.3-1.3c-1.3-0.7-2.7-1.3-4.1-1.9c-1.1-0.4-2-0.7-2.8-0.9c-0.7-0.3-1.5-0.7-2.4-1l-0.2-0.1
				c-1.6-0.6-3.3-1.1-5-1.4c-0.3-0.1-0.5-0.1-0.8-0.1c-1.6-0.8-3.3-1.5-5.1-2c-0.7-0.2-1.3-0.3-1.9-0.5l-0.4-0.1
				c-0.8-0.2-1.5-0.4-2.1-0.5c-0.8-0.3-2-0.7-3.5-1.1c-0.4-0.1-0.8-0.2-1.3-0.3c-0.8-0.3-2.1-0.8-3.6-1.2c-2.8-0.8-5.4-1.2-8.2-1.3
				c-3.8-0.1-8,0.4-12.1,2c-4.6-4.5-10.7-7.6-17.7-8.6c-0.7-0.1-1.3-0.2-2-0.2l-0.4-0.1c-0.9-0.1-1.6-0.2-2.2-0.2
				c-0.8-0.2-2.1-0.4-3.6-0.6c-0.4-0.1-0.9-0.1-1.3-0.2c-0.9-0.2-2.1-0.5-3.7-0.7c-1.2-0.2-2.5-0.3-3.7-0.3
				c-2.2-0.1-4.4,0.1-6.5,0.4c-4.1-1.5-7.5-1.7-8.9-1.8c-0.6,0-1.2-0.1-1.7-0.1c-0.1,0-0.3,0-0.4,0c-0.7-0.1-1.7-0.2-2.7-0.3
				c-0.4,0-0.9-0.1-1.3-0.1c-1.4-0.1-2.9,0-4.3,0.1c-1.3-0.2-2.7-0.4-4.1-0.4c-0.2,0-0.4,0-0.5,0c-1.2,0-2.2,0-2.9,0l-1.4-0.1
				c-0.4,0-0.8,0-1.2,0c-0.9,0-2.7-0.1-5,0.2c-1.1-0.2-2.2-0.3-3.3-0.3c-0.3,0-0.7,0-1.1,0c-1.1,0-2,0-2.6,0.1c-0.3,0-0.7,0-1,0
				c-0.5,0-1,0-1.5,0c-2.6,0-5.1,0.2-7.5,0.7c-2.3-0.5-4.1-0.6-5.3-0.7c-0.4,0-0.8,0-1.2,0c-0.7,0-1.3,0-2,0c-0.3,0-0.6,0-0.9,0
				c-0.7,0-1.4,0-2.2,0c-2.8,0-5.6,0.3-8.3,0.9c-1-0.1-1.9-0.2-2.9-0.2c-3.1-0.1-5.7,0.1-7.5,0.3l-0.5,0
				c-9.8,0.9-18.1,4.6-24.3,10.3c-3.9-2-8.2-3.1-12.8-3.3c-3.2-0.1-6.3,0.2-9.4,1.1c-0.7,0.2-1.3,0.4-1.9,0.5l-0.4,0.1
				c-0.8,0.2-1.6,0.4-2.1,0.6c-0.8,0.2-2.1,0.4-3.5,0.8c-0.4,0.1-0.9,0.2-1.3,0.4c-0.9,0.2-2.2,0.4-3.7,0.8
				c-2.4,0.6-4.6,1.5-6.8,2.6c-4.6,0.5-8.3,1.8-10.7,2.7l-0.4,0.2c-3.8,1.3-7.2,3.1-10.2,5.1c-2.9,0.4-5.7,1.3-8.4,2.5
				c-0.8,0.4-1.6,0.7-2.1,1c-0.7,0.3-1.7,0.7-2.8,1.2c-1.2,0.6-2.4,1.2-3.5,1.9c-1.7,0.6-3,1.2-3.8,1.5c-0.5,0.2-0.9,0.4-1.3,0.6
				c-0.8,0.3-1.8,0.7-2.9,1.2c-2.8,1.3-5.3,2.9-7.6,4.8c-2.6,0.7-5.1,1.8-7.6,3.2l-0.2,0.1c-0.7,0.4-1.4,0.8-2,1.2
				c-0.3,0.2-0.6,0.3-0.8,0.5l-0.3,0.1c-0.9,0.4-2.2,1-3.7,2c-3.7,2.1-6.5,4.6-8.7,7.1c-4.1,1.3-8.1,3.4-11.8,6.1
				c-0.4,0.3-0.9,0.6-1.3,1c-0.6,0.4-1.2,0.7-1.7,1.1c-0.7,0.5-1.4,1-1.8,1.3c-0.5,0.3-1.1,0.7-1.7,1.1c-15,10.4-18.6,30.2-8.3,45.1
				c1,1.4,1.8,2.5,2.5,3.4c0.2,0.3,0.5,0.6,0.7,1c0.5,0.7,0.9,1.3,1.5,2.1c0.6,0.8,1.1,1.7,1.8,2.7c0.5,0.7,1,1.4,1.5,2.1
				c0.3,0.4,0.7,0.9,1,1.4c0.3,0.4,0.5,0.8,0.8,1.2c0.6,0.9,1.2,1.8,1.9,2.8c0.7,1,1.4,1.9,1.9,2.6c0.1,0.2,0.3,0.5,0.4,0.7
				c0.6,1,1.2,1.9,1.8,2.7c0.3,0.5,0.6,1,1,1.5c5.9,8.4,14.9,13.5,24.8,13.8c4.8,0.2,11.9-0.7,19.2-5.7c1.1-0.8,2-1.5,2.7-2.1
				c0.5-0.3,1.2-0.8,2-1.3c2.2-1.5,4.2-3.3,5.9-5.2c1.8-0.7,3.6-1.5,5.3-2.5c0.6-0.4,1.2-0.7,1.8-1.1c0.2-0.1,0.4-0.2,0.5-0.3
				l0.3-0.2c0.6-0.3,1.2-0.6,1.9-1c1.3-0.8,2.6-1.6,3.8-2.5c1.4-0.6,2.8-1.2,4.1-2c0.8-0.5,1.5-0.9,2.1-1.3c0.7-0.3,1.7-0.8,2.8-1.5
				c0.8-0.4,1.5-0.9,2.2-1.4c2.5-0.6,5-1.5,7.5-2.6c3.4-1.5,6.3-3.1,8.8-4.9c3.5-0.6,6.4-1.5,8.3-2.2c2.5-0.9,5.9-2.3,9.3-4.2
				c1.4-0.2,2.8-0.4,4.2-0.8c1-0.3,1.8-0.5,2.5-0.8l0.3-0.1c2.7,0.9,5.5,1.4,8.4,1.5c2.4,0.1,4.8-0.1,7.2-0.6l0.2,0
				c0.6-0.1,1.4-0.2,2.3-0.4c5.5-1.1,10.6-3.6,14.6-7.2c2.5,0,4.6-0.1,5.7-0.2c2.8-0.3,6.5-0.8,10.3-1.9c0.6,0.1,1.3,0.1,2,0.1
				c0.4,0,0.8,0,1.2,0c1.1,0,2.1-0.1,3-0.1l0.4,0c0.6,0,1.2,0,1.8,0c2.4,0,4.6-0.2,6.6-0.6c1.7,0.4,3.5,0.6,5.4,0.6
				c0.4,0,0.8,0,1.1,0c1.1,0,2,0,2.7-0.1c0.4,0,0.9,0.1,1.4,0.1c0.5,0,1.1,0,1.7,0c1.6,0,3.1-0.1,4.6-0.3c1,0.1,2,0.2,3,0.2
				c0.2,0,0.4,0,0.6,0c1.2,0,2.2,0,3,0c0.4,0,0.9,0.1,1.4,0.1c0.2,0,0.4,0,0.6,0c0.8,0,1.7,0,2.5-0.1c0.9,0.1,1.8,0.3,2.7,0.3
				c0.7,0.1,1.3,0.1,1.9,0.1c0.4,0,0.8,0,1.1,0l3.2,0.2c0.7,0.1,1.3,0.1,2.1,0.2c0.7,0.1,1.3,0.1,1.9,0.1c0.6,0.1,1.5,0.2,2.6,0.3
				c0.4,0,0.9,0.1,1.3,0.1c0.2,0,0.5,0,0.7,0c0.8,0.2,1.7,0.4,2.6,0.5c1,0.1,1.9,0.2,2.6,0.3l0.5,0.1c4,3.5,9,5.9,14.3,6.9l0.2,0
				c0.6,0.2,1.4,0.4,2.3,0.5c1.6,0.3,3.3,0.5,4.9,0.6c4.1,0.2,8.1-0.5,11.8-1.8c0.6,0.2,1.3,0.4,1.9,0.6c1,0.3,1.8,0.5,2.6,0.6
				l3.5,1c0.6,0.2,1.2,0.3,1.8,0.5l0,0c0.6,0.2,1.6,0.5,2.9,0.9l0.8,0.2c0.6,0.2,1.2,0.4,2,0.6c0.9,0.3,1.8,0.5,2.7,0.6
				c0.4,0.1,0.7,0.3,1.1,0.4c1.1,0.4,2,0.7,2.8,0.9c0.6,0.3,1.4,0.6,2.5,1c1.5,0.6,2.9,1,4.4,1.3c1.1,0.5,2.1,1,3.2,1.4
				c1.2,0.4,2.2,0.8,2.8,1c0.6,0.3,1.5,0.6,2.6,1.1c1.1,0.7,2.3,1.3,3.5,1.9c0.6,0.3,1.2,0.6,1.8,0.8c0.2,0.1,0.4,0.2,0.6,0.3
				c2.3,1.1,5.6,2.4,9.1,3.1c2.6,2.4,5.6,4.6,8.9,6.5c2.2,1.3,5.2,2.7,9.2,3.8c1.5,1.6,3.2,3,5.1,4.3l1.4,0.9
				c0.7,0.5,1.3,0.9,1.9,1.2c0.3,0.2,0.6,0.4,1,0.7c2.2,1.5,5.3,3.2,9.1,4.3c1.5,2.3,3.3,4.5,5.5,6.5c0.5,0.5,1.1,1,1.6,1.4
				c0.2,0.1,0.3,0.3,0.5,0.4l0.2,0.2c0.5,0.5,1,0.9,1.5,1.5c1.2,1.1,2.4,2,3.6,2.9c0.9,1.1,2,2.2,3.1,3.3c0.7,0.7,1.3,1.2,1.8,1.6
				c0.5,0.6,1.3,1.3,2.3,2.2c0.2,0.2,0.4,0.4,0.6,0.5c0.2,0.2,0.4,0.5,0.6,0.7c0.7,0.9,1.4,1.6,2,2.1c0.4,0.5,1,1.2,1.7,2
				c1.1,1.2,2.2,2.3,3.3,3.3c0.7,1,1.4,1.9,2.1,2.7c0.8,0.9,1.6,1.7,2,2.2c0.4,0.5,1,1.2,1.7,2.1c0.3,0.4,0.6,0.7,1,1
				c0.9,1.5,1.6,2.6,2.1,3.2c1,1.4,1.8,2.4,2.5,3.2c0.3,0.5,0.7,1.1,1.2,1.7c3.1,4.4,6.4,7.8,10.2,10.5c0.7,5.8,2.9,10,3.7,11.5
				c0.8,1.5,1.5,2.7,2,3.5c0.2,0.5,0.5,1.1,0.9,1.9c1.4,2.8,3,5.3,4.7,7.5c0.4,1.9,0.9,3.9,1.7,5.8c0.5,1.2,1,2.3,1.4,3
				c0.2,0.7,0.5,1.5,0.9,2.5c0.5,1.2,1,2.3,1.6,3.4c0.3,1.1,0.7,2.2,1.1,3.2c0.5,1.1,0.9,2.1,1.3,2.8c0,0,0,0,0,0.1
				c0.2,0.6,0.5,1.5,1,2.7l0,0.1c0,0.1,0.1,0.2,0.1,0.3c0.2,1.2,0.5,2.3,0.9,3.4c0.3,1,0.6,1.8,0.9,2.5l1.1,3.5
				c0.2,0.6,0.4,1.2,0.6,1.7l0,0c0.2,0.7,0.4,1.7,0.8,2.9l0.3,0.8c0.2,0.6,0.4,1.3,0.6,2c0.3,0.9,0.6,1.7,1,2.6
				c0.1,0.3,0.1,0.5,0.2,0.8c0.2,0.7,0.4,1.4,0.5,2c0.1,0.2,0.1,0.4,0.2,0.6l0.1,0.3c0.1,0.7,0.3,1.3,0.5,2.1
				c0.4,1.5,0.8,2.9,1.4,4.3c0.2,1.5,0.4,3,0.8,4.5c0.2,1,0.5,1.7,0.6,2.3c0.1,0.8,0.3,1.8,0.6,3.1c0.1,0.5,0.3,1,0.4,1.5
				c0.1,0.6,0.1,1.2,0.3,1.8c0.2,1.1,0.4,2.1,0.7,3l0,0.1c0.1,0.7,0.2,1.3,0.3,2.1c0.4,2.2,1,4.3,1.7,6.3c-0.1,2.2,0.1,4.4,0.5,6.6
				c0.2,1,0.4,1.9,0.6,2.7c0.1,0.8,0.2,1.8,0.4,3c0.1,0.4,0.2,0.9,0.2,1.3c0,2.4,0.3,4.2,0.4,5.4l0.3,2.4
				c1.9,15.7,14.7,27.5,30.4,28.1c1.7,0.1,3.5,0,5.2-0.2c0.8-0.1,1.5-0.2,2.1-0.3c0.4,0,0.8-0.1,1.3-0.1c11.5-1.2,18.5-7,22.2-11.7
				c1-1.3,1.9-2.6,2.7-4c0.5-0.1,0.9-0.1,1.4-0.2c17.3-2.9,28.5-18.7,25.6-35.9C694,322.6,693.8,321.7,693.6,321.1z"/>
		</g>
		<g>
			<g>
				<path class="st2" d="M-181.7,593.9c-0.7,0-1.2-0.1-1.9-0.1c-1.2,0-2,0.1-3.1,0.1c-2.3,0-2.2-1.1-2.2-2.2l0-1.9
					c0-1.1,0.2-1.9,0.2-3l0-1.9c0-2.4-0.1-4,0-6.4l0.1-5.8c0-1.9,0.2-3.1,0.2-5l0-3.2c0-0.8-0.1-1.4-0.1-2.2c0-1.5,1.1-1.6,2.1-1.6
					c1.1,0,1.9,0.1,3,0.1c0.9,0,1.5-0.1,2.5-0.1c1,0,1.1,1.2,1.1,1.8c0,0.8-0.1,1.3-0.2,2c-0.1,1.2,0,2,0,3.1l-0.1,7.3
					c0,1.1-0.1,1.8-0.1,2.9l0,2.3c0,1.9,0.1,3.1,0.1,5c0,1.4-0.2,2.4-0.2,3.8c0,1.3,0.2,2.2,0.1,3.5
					C-180.2,593-180.3,593.9-181.7,593.9z"/>
				<path class="st2" d="M-160.1,563.9c0.1,1.3,0.2,2.2,0.2,3.5c0,0.3,0.1,1.9-1.4,2c-0.6,0-1-0.2-1.7-0.1c-0.3,0-2.1,0.8-2.3,1.1
					c-1.4,1.3-1.9,4-1.6,7.3c0.2,2.9,1,4.7,2.3,5.7c0.1,0.1,2,1.3,3.2,1.3c0.5,0,0.8-0.2,1.3-0.3c0.1,0,0.6,0.1,1,0.5
					c0.2,0.3,0.3,0.5,0.3,1.1c0,0.9,0,1.5,0,2.3c0.1,1.2,0.2,2,0.3,3.2c0.1,2-1.4,2.1-2,2.1c-0.3,0-3.5,0.1-3.9,0
					c-0.1,0-2.6-0.3-4.2-1.3c-1.4-0.8-2.5-2.1-2.8-2.4c-0.2-0.2-1-1.1-1.2-1.3c-0.1-0.1-1.8-3-2.3-4.8c-0.2-0.9-0.4-2.4-0.5-3.3
					c-0.2-1.4-0.4-2.4-0.4-3.9c-0.2-3.6,0.5-7,0.8-8.2c0.2-0.5,0.8-2.9,2.8-4.7c0.2-0.2,3.1-2.4,3.2-2.5c1.4-0.9,4.1-1.4,5.6-1.5
					l0.3,0c1.1-0.1,2.9-0.3,3,1.6C-160.1,562.3-160.2,563-160.1,563.9z"/>
				<path class="st2" d="M-136.3,586.3c0.1,0.8,0.2,1.3,0.3,2.1c0.1,0.6,0.1,1.8-1.6,2.1c-0.7,0.1-1.1,0.1-1.8,0.2l-1.1,0.2
					c-1.1,0.2-1.9,0.2-3,0.3c-0.7,0.1-1.1,0.2-1.8,0.3l-5,0.7c-0.5,0.1-0.8,0.2-1.2,0.3c-0.6,0.1-2-0.1-2.2-1.7
					c-0.2-1.2-0.2-2.1-0.3-3.3c-0.2-1.1-0.3-1.9-0.5-3c-0.1-0.8-0.1-1.4-0.2-2.2c-0.1-0.8-0.3-1.3-0.4-2.1c-0.2-1.5-0.3-2.6-0.5-4.1
					c-0.2-1.4-0.5-2.7-0.7-4.1c-0.3-1.9-0.4-3.3-0.6-5.2c-0.2-1.3-0.4-2.3-0.6-3.6c-0.4-2.7-0.2-3.5,1.9-3.8
					c1.2-0.2,2.1-0.1,3.3-0.3c0.6-0.1,1.2-0.2,1.7-0.3c1.5-0.2,2.6-0.2,4.1-0.4c0.7-0.1,1.1-0.2,1.8-0.3l0.9-0.1
					c0.5-0.1,0.9-0.2,1.4-0.2c1.4-0.2,1.6,0.9,1.7,1.4c0.1,0.8,0.1,1.6,0.2,2.4c0.2,1.3,1,3.4-1.3,3.7l-0.5,0.1
					c-0.6,0.1-1,0.2-1.5,0.3c-0.7,0.1-1.3,0-2.1,0.1c-2.6,0.4-2.5,1.2-2.3,2.7c0.2,1.6,0.9,2.3,2,2.2c0.5-0.1,0.9-0.2,1.4-0.3l0.1,0
					c0.7-0.1,1.2-0.1,1.8-0.2c0.6-0.1,1-0.2,1.5-0.3c1.9-0.3,2,1,2.1,1.7c0.1,0.7,0.1,1.2,0.2,2c0.1,0.7,0.2,1.2,0.3,1.9
					c0.3,1.8-1.1,2.1-1.7,2.2c-1.4,0.2-2.4,0.1-3.9,0.4c-2.6,0.4-2.2,1.9-2,2.8l0.1,0.6c0,0.2,0.2,1.1,0.3,1.4
					c0.8,1.2,1.4,0.8,3.2,0.7c0.9,0,1.4,0,2.3-0.1c0.7-0.1,1.2-0.3,1.9-0.4c0.5-0.1,1.8,0,2,1.5C-136.4,585-136.4,585.5-136.3,586.3
					z"/>
				<path class="st2" d="M-110.8,554c0.4,1.3,0.6,2.1,1,3.3c0.1,0.3,0.6,1.8-1,2.2c-0.6,0.2-1.1,0-1.6,0.2c-0.3,0.1-1.8,1.2-2.1,1.5
					c-1.1,1.5-1,4.3,0,7.5c0.8,2.8,2,4.4,3.5,5.1c0.2,0.1,2.2,0.9,3.4,0.6c0.5-0.1,0.7-0.4,1.2-0.5c0.1,0,0.6-0.1,1.1,0.3
					c0.3,0.2,0.4,0.5,0.5,1c0.2,0.9,0.3,1.5,0.5,2.3c0.3,1.1,0.6,1.9,0.9,3c0.5,1.9-1,2.3-1.5,2.5c-0.3,0.1-3.4,0.8-3.8,0.9
					c-0.1,0-2.7,0.3-4.4-0.3c-1.6-0.5-2.9-1.5-3.3-1.8c-0.2-0.2-1.2-0.8-1.4-1.1c-0.1-0.1-2.4-2.5-3.3-4.2c-0.4-0.8-0.9-2.2-1.2-3.1
					c-0.5-1.4-0.9-2.3-1.3-3.7c-1-3.4-1.1-7-1-8.1c0.1-0.5,0.2-3,1.7-5.2c0.1-0.2,2.5-3,2.6-3.1c1.2-1.2,3.7-2.2,5.1-2.6l0.3-0.1
					c1.1-0.3,2.8-1,3.3,0.9C-111.1,552.4-111,553.1-110.8,554z"/>
				<path class="st2" d="M-78.2,573l-0.2,0.1c-0.7,0.3-1.3,0.4-2,0.7c-0.9,0.3-1.4,0.6-2.3,0.9c-0.5,0.2-0.8,0.4-1.3,0.6
					c-1.4,0.5-2-0.5-2.8-1.3c-0.8-0.9-1.6-1.4-2.4-2.2c-0.6-0.6-0.9-1-1.5-1.6s-1.1-1.1-1.6-0.9c-0.7,0.3-0.2,1.1-0.2,1.3
					c0.3,0.9,0.6,1.5,0.9,2.3c0.3,0.7,0.4,1.1,0.6,1.8c0.2,0.6,0.5,1,0.7,1.7c0.4,1-0.1,1.4-0.6,1.6c-0.9,0.4-1.6,0.5-2.6,0.8
					c-1.1,0.4-1.9,0.9-3,1.3c-1,0.4-1.7-0.1-2-1c-0.3-0.7-0.3-1.1-0.5-1.8c-0.4-1.1-0.6-1.9-1.1-3.1c-0.9-2.2-1.6-3.7-2.5-5.9
					c-0.9-2.2-1.3-3.9-2.2-6.1c-0.6-1.4-1-2.4-1.6-3.9c-0.6-1.5-0.9-2.7-1.5-4.2c-0.4-0.9-0.7-1.5-1-2.5c-0.3-0.9-0.5-2.4,1.5-3.1
					c0.9-0.4,1.6-0.5,2.5-0.9c2.2-0.8,3.7-1.6,6-2.4c2.5-1,6.2-1.9,9.5,0.8c0.2,0.2,0.6,0.5,0.7,0.8c0.3,0.3,0.7,0.6,1.2,1.3
					c0.7,0.9,2,3.8,2.3,4.8c0.3,0.7,1.9,4.5,0.6,8.4c-0.1,0.5-0.3,0.8-0.5,1.2c-0.1,0.3-0.3,0.5-0.4,0.8c0,0.1-0.1,0.3,0,0.5
					c0.2,0.6,3,2.9,3.6,3.4c0.5,0.5,0.8,0.9,1.4,1.4c0.9,0.8,1.6,1.3,2.4,2.2c0.1,0.2,0.3,0.4,0.5,0.8C-77,572.6-78.1,573-78.2,573z
					 M-97.1,553.1l-0.2,0.1c-0.3,0.2-0.6,0.4-0.7,0.6c-0.3,0.6-0.2,1.2-0.2,1.3c0,0.2,1.2,3.7,1.3,3.9c0.4,1.1,1.4,1.9,2.7,1.4
					c0.6-0.2,1-0.6,1.1-0.9c0.5-0.9,0.1-2.4-0.5-4.1C-94,554.2-95.3,552.4-97.1,553.1z"/>
				<path class="st2" d="M-58,558.9c0.4,0.7,0.7,1.2,1,1.9c0.3,0.5,0.7,1.7-0.8,2.5c-0.6,0.3-1,0.5-1.6,0.8l-1,0.5
					c-1,0.5-1.8,0.8-2.8,1.3c-0.6,0.3-1,0.5-1.6,0.8l-4.5,2.2c-0.4,0.3-0.7,0.4-1.1,0.7c-0.5,0.3-1.9,0.6-2.6-0.9
					c-0.5-1.1-0.8-2-1.4-3c-0.5-1-0.9-1.7-1.4-2.7c-0.4-0.7-0.5-1.3-0.9-2c-0.4-0.7-0.7-1.2-1-1.9c-0.7-1.4-1.1-2.4-1.8-3.8
					c-0.6-1.3-1.3-2.4-2-3.7c-0.9-1.7-1.4-3-2.2-4.7c-0.6-1.2-1.1-2-1.7-3.2c-1.2-2.4-1.3-3.3,0.6-4.2c1.1-0.5,2-0.8,3.1-1.3
					c0.5-0.3,1-0.6,1.5-0.8c1.3-0.7,2.4-1,3.7-1.7c0.6-0.3,1-0.6,1.6-0.9l0.8-0.4c0.5-0.2,0.8-0.4,1.3-0.7c1.3-0.7,1.8,0.3,2.1,0.8
					c0.4,0.7,0.6,1.5,0.9,2.2c0.6,1.1,2,2.9-0.1,4l-0.5,0.2c-0.5,0.3-0.9,0.5-1.4,0.7c-0.7,0.3-1.2,0.4-1.9,0.8
					c-2.3,1.2-2,1.9-1.3,3.3c0.7,1.4,1.6,1.9,2.6,1.4c0.5-0.2,0.8-0.5,1.2-0.7l0.1,0c0.6-0.3,1.1-0.4,1.7-0.7
					c0.5-0.3,0.9-0.5,1.3-0.7c1.7-0.9,2.2,0.4,2.5,0.9c0.3,0.7,0.5,1.1,0.8,1.8c0.3,0.6,0.6,1,0.9,1.7c0.8,1.6-0.4,2.3-0.9,2.6
					c-1.3,0.7-2.3,0.9-3.6,1.6c-2.3,1.2-1.4,2.5-1,3.3l0.3,0.5c0.1,0.2,0.5,1,0.7,1.2c1.2,0.9,1.6,0.3,3.2-0.4
					c0.8-0.3,1.3-0.5,2.1-0.8c0.7-0.3,1.1-0.7,1.7-1c0.4-0.2,1.7-0.6,2.4,0.8C-58.5,557.7-58.3,558.2-58,558.9z"/>
				<path class="st2" d="M-33.9,548.9c-1,0.6-1.7,0.9-2.7,1.5c-0.8,0.5-1.3,0.9-2.1,1.4c-1.4,0.9-1.9-0.3-2.2-0.6
					c-0.3-0.3-1.7-2.5-2.3-2.6c-0.3-0.1-0.1,0-0.5,0c-0.1,0-1.6,0.9-2.6,1.5c-1.5,0.9-1.1,1.3-0.8,2.2c0.2,0.3,1.5,2.7,1.5,3.2
					c-0.1,0.5-0.2,0.8-0.8,1.2c-0.8,0.5-1.3,0.8-2.1,1.2c-0.8,0.5-1.6,1-2.4,1.5c-0.7,0.4-1.6,0.9-2.2-0.2c-0.2-0.3-0.5-1.2-0.9-2.1
					c-0.5-1.1-0.9-1.8-1.3-3c-0.4-1-0.7-1.8-1.1-2.8c-0.6-1.5-1.1-2.4-1.7-3.9c-0.6-1.4-0.9-2.5-1.6-3.9c-0.5-1-0.8-1.7-1.3-2.7
					c-0.5-1.2-0.7-2.1-1.2-3.3c-0.7-1.9-1.5-3.1-2.1-4.9c-0.4-1.2-0.7-2.4-0.6-3c0.2-0.6,0.6-1,1.5-1.5c1.4-0.8,2.4-1.3,3.8-2.1
					c1-0.6,2-1.3,3-1.9l0.2-0.1c1-0.6,1.5-0.7,2.3-0.3c0.1,0,0.4,0.3,0.5,0.4c0,0,3,3.2,3.1,3.3c1,1.1,1.6,2,2.6,3.2
					c1.2,1.4,2.1,2.3,3.4,3.7c1,1.1,1.8,1.8,2.8,3c1.3,1.5,2,2.6,3.2,4.1c1.9,2.2,4.5,4.8,4.9,5.3
					C-33.6,546.5-32.7,548.1-33.9,548.9z M-53,535.8c-0.5-0.6-1.1-1.4-1.2-1.4c-0.3-0.2-0.6-0.3-0.7-0.2c-0.1,0.1-0.2,0.4-0.1,0.6
					c0,0.2,0.6,1.7,0.7,1.9c0.2,0.6,0.3,1,0.5,1.5c0.2,0.3,1.7,3.8,1.8,4.1c0.8,1.2,1.4,1,2.1,0.6c0.5-0.3,1.5-0.9,0.6-2.4
					C-50.6,538.3-52.6,536.3-53,535.8z"/>
				<path class="st2" d="M-24.3,506.9c0.8,1,1.3,1.6,2.1,2.6c1.9,2.3,3.1,4.1,5,6.4l0.2,0.3c0.9,1.1,1.8,2.1,2.7,3.2
					c1.4,1.7,2.2,3,3.6,4.7c0.8,1,1.5,1.5,2.3,2.5c0.9,1.1,1.2,1.6,0.3,2.3c-1,0.8-1.8,1.2-2.7,2c-0.7,0.6-1.1,1-1.8,1.6
					c-1.2,0.9-2,0.3-2.4-0.2c-0.6-0.8-1-1.5-1.6-2.3l-0.8-1c-0.2-0.3-0.4-0.5-0.6-0.8c-0.4-0.5-0.7-0.7-1.1-1.3
					c-0.3-0.4-0.4-0.8-0.8-1.2c-0.6-0.8-1.2-1.3-1.9-2.1c-0.4-0.4-0.6-0.8-0.9-1.2c-0.2-0.2-0.3-0.3-0.5-0.5l-0.1-0.1
					c-0.1-0.1-0.1-0.2-0.3,0c-0.4,0.3,0.6,2.4,0.6,2.6c0,0,1.2,4.6,1.2,4.7c0,0.3,0.1,0.7-0.4,1c-0.1,0.1-0.6,0.5-0.8,0.5
					c-0.7,0.1-2.2-0.7-3.8-1.3c-0.4-0.1-0.7-0.2-1.1-0.4c-0.5-0.2-0.8-0.4-1.3-0.6c-0.6-0.3-1.6-0.8-1.8-0.6c-0.1,0.1,0,0.4,0.2,0.6
					l0.2,0.2c0.9,1.1,1.4,2,2.3,3.1c0.5,0.7,0.9,1.1,1.5,1.8c0.6,0.9,1.1,1.5,1.8,2.4l0.6,0.8c0.6,0.8,1.1,1.3,1.7,2
					c1,1.2,0.5,1.9-0.2,2.4c-0.6,0.5-1,0.8-1.6,1.2c-0.6,0.5-1.1,0.9-1.7,1.4c-0.3,0.2-0.5,0.5-0.7,0.7c-1.3,1.1-2,0.1-2.4-0.4
					c-0.5-0.6-0.8-1-1.2-1.6c-0.6-0.8-1-1.4-1.7-2.2c-1.4-1.8-2.6-2.9-4-4.7c-1.4-1.8-2.3-3.1-3.7-4.9c-1.4-1.7-2.4-2.8-3.8-4.6
					c-0.6-0.8-1-1.4-1.7-2.2c-1-1.3-1.9-2-3-3.3c-0.9-1.1,0.3-1.9,0.5-2.1c1.1-0.9,1.9-1.5,3-2.3c0.5-0.4,0.7-0.7,1.2-1
					c1.3-1.1,1.9-0.2,3.8,0.8c1.5,0.8,2.7,1.1,4.2,1.8c0.7,0.3,1.1,0.6,1.8,0.9c0.2,0.1,1.7,0.9,2.1,0.6c0.4-0.3-0.3-2.2-0.3-2.4
					c-0.2-1-0.3-1.8-0.6-2.8c-0.3-1-0.6-1.7-0.9-2.8c0,0-0.6-2.9-0.6-2.9c0-0.4,0-0.3,0.2-0.8c0-0.1,0.7-0.8,1.2-1.1
					c0.7-0.6,1.3-0.9,2-1.5c0.8-0.6,1.2-1.1,2-1.7c0.6-0.5,1.2-0.2,1.6,0.3C-26,504.4-25.4,505.6-24.3,506.9z"/>
				<path class="st2" d="M6.7,511.9c-0.1,1.3-0.6,2.6-1.1,3.5c-0.7,1.3-2.6,3.4-3.6,4.4c-0.8,0.8-3.9,3.6-5.5,3.4
					c-0.5-0.1-0.6-0.2-1.1-0.6c-0.7-0.7-1.2-1.3-1.9-2c-0.6-0.6-1-0.9-1.6-1.4c-0.3-0.3-1.7-1.6-0.2-3c0.7-0.6,1-0.6,1.5-0.7
					c0.2,0,0.2,0,0.4,0c0.3-0.1,0.5,0,0.8-0.1c0.7-0.2,1.5-0.8,1.9-1.3c1.2-1.2,1.5-2.2,0.8-3c-1-1.2-3.1-0.8-4.7-0.8
					c-1.1,0-2,0-3.2,0c-0.4,0-1.6,0.1-2.8,0c-3.1-0.3-4.4-1.5-6.1-3.2c-5-5-4.7-9.4,0.1-14.1c2.2-2.2,4.5-4.7,6.1-3.1
					c0.7,0.7,1.2,1.3,1.9,2l0.1,0.1c0.5,0.5,0.8,0.7,1.3,1.2c0.3,0.3,1.4,1.4,0.1,2.7c-0.5,0.5-1.5,1-1.7,1.1
					c-0.4,0.2-0.9,0.5-1.6,1.2c-0.2,0.2-1.5,1.4-0.3,2.7c0.3,0.3,0.7,0.6,1.3,0.7c0.6,0.1,3.3,0,5.8-0.1c1,0,1.7-0.1,2.7,0
					c3.4,0.2,4.9,1,6.7,2.9C6,507.2,7,509,6.7,511.9z"/>
				<path class="st2" d="M11.2,470.7c-0.3,0.4-0.5,0.6-0.8,1c-0.8,1.1-0.6,1.8,0.9,2.9c1.3,1,2.2,1.5,3.5,2.5c1.5,1.2,2.5,2,4,3.2
					c1.4,1.1,2.4,1.7,3.8,2.8c0.8,0.6,1.5,1.2,2.3,1.8c0.7,0.5,1.2,0.9,1.9,1.3c0.4,0.3,0.8,0.4,1.2,0.7c1.2,0.9,0.4,2.1,0.2,2.4
					c-0.3,0.4-0.6,0.7-1,1.1c-0.5,0.6-0.8,1-1.3,1.6c-0.4,0.5-0.6,1-1,1.5c-0.6,0.8-1.3,1.1-2.5,0.1c-1.2-0.9-1.9-1.8-3.1-2.7
					c-1.2-0.9-2.1-1.4-3.2-2.3c-1.3-1-2.2-2-3.5-3c-1-0.7-1.7-1.1-2.7-1.9c-2.4-1.7-3.8-3.8-5.3-3.5c-0.3,0-0.4,0.2-0.5,0.2
					c-0.3,0.1-0.7,0.6-0.9,0.8c-0.2,0.3-0.4,0.5-0.6,0.8c-0.8,1-1.6,0.8-2.1,0.4c-0.9-0.7-1.5-1.3-2.5-2c-0.6-0.5-1.1-0.8-1.8-1.2
					c-0.9-0.7-1-1.3-0.3-2.3c0.7-0.9,1.2-1.4,1.8-2.2c1-1.3,1.8-2.6,2.8-3.9l0.3-0.4c0.8-1,1.4-1.7,2.3-2.8c0.5-0.7,0.8-1.2,1.3-1.8
					c1.1-1.5,2.2-0.6,3.2,0.1c0.7,0.6,1.2,1,1.9,1.5c0.5,0.4,0.9,0.6,1.4,1C11.1,468.7,12,469.6,11.2,470.7z"/>
				<path class="st2" d="M45.3,463.8c-0.4,0.7-0.8,1.1-1.3,1.8c-0.6,1-0.9,1.7-1.6,2.7c-0.8,1.3-1.9,0.6-2.3,0.4
					c-0.6-0.4-1-0.8-1.6-1.2c-0.4-0.2-0.7-0.4-1.1-0.6c-1.5-0.9-2.5-1.7-4-2.7c-2.4-1.5-3-0.5-3.8,0.7c-0.4,0.7-0.5,1.1-0.2,1.6
					c0.2,0.5,2.1,1.9,2.5,2.2c0.8,0.5,1.6,0.9,2.5,1.4c0.8,0.5,1.4,0.9,2.3,1.5c0.5,0.3,0.9,0.5,1.5,0.9c1,0.6,0.8,1.5,0.5,1.9
					c-0.5,0.8-1,1.4-1.5,2.2c-0.3,0.5-0.5,0.9-0.8,1.4c-0.2,0.3-0.3,0.6-0.5,0.9c-0.9,1.5-2.1,0.8-2.6,0.5c-1.1-0.7-1.7-1.3-2.8-2
					l-0.1-0.1c-1.2-0.7-2-1.3-3.2-2.1c-1.7-1.1-3.1-1.8-4.8-2.9c-1.4-0.9-2.4-1.7-3.8-2.6c-0.8-0.5-1.4-0.8-2.2-1.2
					c-1.1-0.6-1.9-1.1-3-1.8c-1-0.6-1.6-1.1-2.5-1.7c-0.9-0.6-1.6-0.8-2.6-1.4c-0.5-0.3-1.3-1-0.5-2.2c0.5-0.8,1-1.3,1.5-2.2
					c0.5-0.8,0.7-1.4,1.2-2.2c0.8-1.4,1.7-1.1,2.4-0.7c0.8,0.5,1.3,1.1,2.1,1.6c0.9,0.6,1.6,0.9,2.5,1.5c1,0.6,1.6,1.1,2.6,1.7
					l0.1,0.1c1.5,0.9,2,0.2,2.7-0.9c0.6-1,0.7-1.3,0.3-2c-0.2-0.3-2.1-1.6-2.3-1.8c-0.9-0.5-1.6-0.8-2.5-1.4c-0.5-0.3-1-0.7-1.4-1
					c-0.7-0.4-1.3-0.7-2-1.1c-1.3-0.8-0.8-1.9-0.5-2.4c0.5-0.9,1-1.4,1.6-2.3c0.4-0.7,0.6-1.3,1.1-2c1.1-1.7,2.4-0.7,2.8-0.5
					c1.5,0.9,2.5,1.8,4,2.8c0.4,0.3,0.7,0.4,1.2,0.7c0.8,0.5,1.2,0.9,2,1.4c1.3,0.8,2.2,1.3,3.4,2.1c1.5,1,2.6,1.8,4.1,2.7
					c1.9,1.2,3.3,1.8,5.1,2.9c0.9,0.6,1.5,1,2.4,1.6c0.8,0.5,1.5,0.7,2.3,1.2C45.8,462.2,45.8,463,45.3,463.8z"/>
				<path class="st2" d="M58.2,438.7c-0.5,1-1,1.7-1.5,2.7c-0.4,0.8-0.6,1.5-1,2.3c-0.7,1.5-1.8,0.7-2.2,0.6c-0.4-0.1-2.8-1.2-3.4-1
					c-0.3,0.1-0.1,0-0.4,0.2c-0.1,0.1-0.9,1.6-1.4,2.6c-0.8,1.6-0.3,1.7,0.5,2.3c0.3,0.2,2.7,1.5,2.9,1.9c0.2,0.5,0.3,0.8-0.1,1.5
					c-0.4,0.8-0.7,1.3-1.1,2.1c-0.4,0.8-0.8,1.7-1.2,2.5c-0.4,0.8-0.9,1.6-2,1c-0.3-0.2-1.1-0.7-1.9-1.3c-1-0.7-1.7-1.1-2.7-1.8
					c-0.9-0.6-1.5-1.1-2.4-1.8c-1.3-0.9-2.2-1.5-3.5-2.4c-1.3-0.9-2.1-1.6-3.4-2.5c-0.9-0.6-1.6-1-2.5-1.7c-1-0.8-1.8-1.4-2.8-2.2
					c-1.6-1.2-2.9-1.8-4.4-3.1c-1-0.8-1.9-1.7-2.1-2.2c-0.1-0.6,0-1.2,0.4-2.1c0.7-1.4,1.4-2.4,2.1-3.8c0.5-1.1,1-2.2,1.5-3.2
					l0.1-0.2c0.5-1.1,0.9-1.3,1.8-1.4c0.1,0,0.5,0,0.6,0c0,0,4.3,1.2,4.3,1.2c1.5,0.5,2.5,0.8,3.9,1.3c1.8,0.5,3,0.9,4.8,1.3
					c1.4,0.4,2.5,0.6,3.9,1.1c1.9,0.6,3.1,1.2,4.9,1.8c2.8,0.8,6.3,1.7,6.9,1.9C57.2,436.5,58.8,437.4,58.2,438.7z M35,437.6
					c-0.7-0.2-1.6-0.6-1.8-0.6c-0.3-0.1-0.6,0.1-0.7,0.2s0.1,0.4,0.3,0.5c0.2,0.2,1.4,1.1,1.6,1.2c0.4,0.4,0.8,0.7,1.2,1
					c0.3,0.2,3.4,2.4,3.7,2.5c1.3,0.6,1.7,0.1,2.1-0.6c0.3-0.5,0.8-1.6-0.7-2.3C38.5,438.5,35.7,437.8,35,437.6z"/>
				<path class="st2" d="M42.1,411.7c-0.2,0.4-0.3,0.7-0.5,1.2c-0.5,1.3-0.1,1.9,1.7,2.6c1.5,0.6,2.5,0.8,4,1.4c1.8,0.7,3,1.3,4.8,2
					c1.6,0.6,2.8,1,4.4,1.6c0.9,0.4,1.8,0.8,2.7,1.1c0.8,0.3,1.4,0.5,2.2,0.7c0.5,0.1,0.8,0.2,1.3,0.4c1.4,0.5,1,1.8,0.8,2.2
					c-0.2,0.5-0.4,0.9-0.6,1.4c-0.3,0.7-0.5,1.2-0.8,1.9c-0.2,0.6-0.3,1.1-0.6,1.7c-0.4,0.9-0.9,1.4-2.4,0.8
					c-1.4-0.6-2.3-1.2-3.8-1.7c-1.4-0.5-2.4-0.8-3.7-1.3c-1.6-0.6-2.6-1.3-4.2-1.9c-1.1-0.4-2-0.6-3.1-1c-2.7-1-4.7-2.6-6.1-1.9
					c-0.3,0.1-0.4,0.3-0.4,0.3c-0.3,0.2-0.5,0.8-0.6,1c-0.1,0.3-0.2,0.6-0.3,0.9c-0.5,1.2-1.4,1.2-1.9,1c-1.1-0.4-1.8-0.8-2.9-1.2
					c-0.7-0.3-1.3-0.4-2-0.7c-1.1-0.4-1.3-1-0.9-2.1c0.4-1,0.8-1.7,1.1-2.7c0.6-1.5,1-3,1.6-4.5l0.2-0.5c0.5-1.2,0.9-2.1,1.4-3.3
					c0.3-0.8,0.4-1.3,0.7-2.1c0.7-1.7,1.9-1.2,3.1-0.8c0.9,0.3,1.4,0.6,2.3,0.9c0.6,0.2,1,0.3,1.6,0.6
					C41.4,409.9,42.6,410.4,42.1,411.7z"/>
				<path class="st2" d="M50.5,369.7c1.2,0.3,2,0.4,3.3,0.7c2.9,0.6,5,1.2,7.9,1.8l0.4,0.1c1.4,0.3,2.8,0.5,4.1,0.8
					c2.2,0.5,3.6,0.9,5.7,1.4c1.2,0.3,2.1,0.3,3.3,0.5c1.4,0.3,2,0.5,1.7,1.6c-0.3,1.2-0.6,2.1-0.9,3.3c-0.2,0.9-0.2,1.5-0.4,2.4
					c-0.3,1.5-1.3,1.5-2,1.3c-1-0.2-1.7-0.6-2.7-0.8l-1.2-0.3c-0.4-0.1-0.6-0.2-1-0.3c-0.6-0.1-1-0.1-1.6-0.3
					c-0.5-0.2-0.8-0.3-1.4-0.4c-1-0.2-1.8-0.2-2.8-0.5c-0.5-0.1-0.9-0.2-1.4-0.4c-0.3-0.1-0.5-0.1-0.7-0.1l-0.2,0
					c-0.1,0-0.2-0.1-0.3,0.2c-0.1,0.5,1.9,1.5,2.1,1.6c0,0,3.8,2.9,3.9,2.9c0.2,0.2,0.5,0.5,0.3,1c0,0.2-0.2,0.7-0.3,0.9
					c-0.5,0.5-2.2,0.8-3.8,1.4c-0.4,0.1-0.7,0.3-1.1,0.4c-0.5,0.2-0.9,0.2-1.4,0.3c-0.7,0.1-1.8,0.4-1.8,0.6c0,0.1,0.3,0.3,0.5,0.3
					l0.3,0.1c1.4,0.3,2.4,0.7,3.8,1c0.8,0.2,1.4,0.3,2.3,0.4c1,0.3,1.8,0.5,2.9,0.7l1,0.2c1,0.2,1.7,0.3,2.6,0.5
					c1.6,0.3,1.5,1.2,1.4,1.9c-0.2,0.7-0.3,1.2-0.5,2c-0.2,0.8-0.3,1.3-0.4,2.1c-0.1,0.4,0,0.7-0.1,1c-0.4,1.6-1.5,1.4-2.1,1.2
					c-0.7-0.2-1.2-0.3-2-0.5c-1-0.3-1.7-0.5-2.7-0.7c-2.2-0.5-3.8-0.6-6-1.1c-2.2-0.5-3.8-1-6-1.4c-2.2-0.5-3.6-0.7-5.8-1.2
					c-1-0.2-1.7-0.5-2.7-0.7c-1.6-0.4-2.8-0.4-4.4-0.7c-1.4-0.3-1-1.7-0.9-1.9c0.3-1.4,0.6-2.3,0.8-3.7c0.1-0.6,0.2-1,0.3-1.6
					c0.4-1.6,1.3-1.3,3.5-1.7c1.7-0.3,2.8-0.8,4.4-1.3c0.7-0.2,1.2-0.3,1.9-0.4c0.2-0.1,1.9-0.4,2-0.8c0.1-0.5-1.6-1.5-1.7-1.7
					c-0.8-0.7-1.3-1.2-2.2-1.8c-0.9-0.6-1.6-1-2.4-1.6c0,0-2.3-1.8-2.3-1.9c-0.2-0.3-0.2-0.2-0.4-0.7c0-0.1,0.1-1,0.2-1.6
					c0.2-0.9,0.4-1.5,0.6-2.5c0.2-1,0.3-1.6,0.5-2.6c0.2-0.8,0.8-0.9,1.5-0.8C47.7,368.8,48.8,369.3,50.5,369.7z"/>
				<path class="st2" d="M80.1,348.6c-0.1,1.1-0.3,1.9-0.4,3c-0.1,0.9-0.1,1.6-0.2,2.5c-0.2,1.7-1.4,1.3-1.9,1.4
					c-0.4,0-3-0.2-3.5,0.2c-0.3,0.2-0.1,0.1-0.3,0.3c-0.1,0.1-0.3,1.9-0.4,2.9c-0.2,1.8,0.3,1.7,1.3,2c0.4,0.1,3,0.4,3.4,0.8
					c0.4,0.4,0.5,0.7,0.5,1.4c-0.1,0.9-0.2,1.5-0.3,2.4c-0.1,0.9-0.1,1.9-0.2,2.8c-0.1,0.8-0.3,1.8-1.5,1.6c-0.4,0-1.2-0.3-2.2-0.6
					c-1.2-0.3-2-0.4-3.2-0.8c-1.1-0.3-1.8-0.6-2.8-0.8c-1.5-0.4-2.6-0.6-4.1-1c-1.5-0.4-2.5-0.8-4-1.1c-1.1-0.2-1.8-0.4-3-0.7
					c-1.2-0.4-2.1-0.7-3.4-1.1c-1.9-0.6-3.3-0.7-5.2-1.4c-1.2-0.4-2.4-0.9-2.7-1.4c-0.3-0.5-0.4-1.1-0.3-2.1
					c0.2-1.6,0.5-2.7,0.6-4.3c0.1-1.2,0.2-2.4,0.3-3.6l0-0.2c0.1-1.2,0.3-1.6,1.2-2c0.1-0.1,0.5-0.1,0.6-0.2c0,0,4.4-0.4,4.5-0.4
					c1.5-0.1,2.6-0.1,4.1-0.2c1.9-0.1,3.1-0.3,5-0.4c1.5-0.1,2.6-0.3,4-0.4c1.9-0.1,3.3,0,5.2,0c2.9-0.2,6.5-0.7,7.2-0.6
					C78.4,346.9,80.3,347.2,80.1,348.6z M58,355.7c-0.8,0-1.7,0-1.9,0.1c-0.3,0.1-0.5,0.3-0.6,0.4c0,0.1,0.2,0.3,0.4,0.4
					c0.2,0.1,1.7,0.5,1.9,0.6c0.5,0.2,1,0.4,1.5,0.5c0.4,0.1,4,1,4.4,1c1.4,0.1,1.7-0.5,1.7-1.3c0.1-0.6,0.2-1.8-1.5-1.9
					C61.6,355.3,58.7,355.7,58,355.7z"/>
				<path class="st2" d="M81.2,324.1c-0.1,0.7-0.1,1.3-0.2,2c-0.1,1.2-0.1,2-0.1,3.2c-0.1,1.5-1.3,1.4-3.2,1.8
					c-1.9,0.4-3.3,0.9-5.2,1.4c-0.6,0.2-1,0.3-1.6,0.4c-0.7,0.2-1.7,0.5-1.7,0.8c0,0.3,0.4,0.4,0.7,0.4l4.2,0.3
					c1,0.1,1.7,0.1,2.7,0.1c0.8,0,1.3,0,2.1,0c1.4,0.1,1.7,0.5,1.6,1.9c-0.1,0.8-0.2,1.4-0.2,2.3c-0.1,0.9-0.1,1.5-0.1,2.3
					c0,0.4,0,0.7,0,1.1c-0.1,0.7-0.5,1.2-1.3,1.2c-1.3-0.1-2.2-0.3-3.4-0.4c-1.1-0.1-2.2-0.1-3.2-0.1c-1.2,0-2.4-0.3-3.5-0.4
					c-1.5-0.1-2.6-0.1-4.1-0.2c-2.2-0.2-3.8-0.2-6.1-0.4c-1.9-0.1-3.2-0.4-5-0.5c-1.8-0.1-3,0-4.7-0.2c-0.7-0.1-1.7-0.1-1.6-1.2
					l0.1-1.3c0-0.7,0.1-1.3,0.2-2c0.1-1,0-1.6,0.1-2.6c0-0.6,0-1.6,1.6-1.4c0.9,0.1,1.5,0.3,2.4,0.4c0.8,0.1,1.5,0,2.4,0.1
					c0.7,0,1.1,0.1,1.8,0.2c0.4,0,0.8,0,0.8-0.2c0-0.2-0.2-0.4-0.3-0.4c0-0.1-5.7-3-5.7-3.1c-0.7-0.4-1.9-0.9-2-0.9
					c-0.1-0.1-0.3-0.2-0.4-0.4c-0.2-0.3-0.2-0.7-0.2-1c0-0.5,0.1-0.7,0.2-1.2c0.1-0.6,0.2-1,0.2-1.6c0.1-1.2,0-2.1,0.1-3.4l0-0.1
					c0-0.6,0.4-1.1,1-1.1c0.9,0.1,2.2,1.1,3,1.5c1,0.5,1.7,0.8,2.7,1.4c1,0.6,1.7,1.2,2.7,1.8c0.6,0.4,1,0.5,1.7,0.9
					c1.4,0.8,2,1.5,2.8,1.5c0.4,0,1.7-0.5,3-1c1.4-0.5,2.4-0.7,3.8-1.1c0.9-0.2,1.4-0.5,2.3-0.7c1.7-0.5,2.9-0.9,4.6-1.4
					c2.3-0.6,3.3-1.4,4.4-1.3C81.5,321.7,81.3,322.6,81.2,324.1z"/>
				<path class="st2" d="M80.8,301.4c0.8,0.1,1.4,0.2,2.1,0.3c0.6,0.1,1.8,0.5,1.5,2.1c-0.1,0.6-0.2,1.1-0.3,1.8l-0.2,1.1
					c-0.2,1.1-0.4,1.9-0.6,3c-0.1,0.6-0.1,1.1-0.2,1.8l-0.8,5c0,0.5,0,0.8-0.1,1.3c-0.1,0.6-0.6,1.8-2.2,1.6
					c-1.2-0.2-2.1-0.5-3.3-0.7c-1.1-0.2-1.9-0.2-3-0.4c-0.8-0.1-1.4-0.4-2.2-0.5c-0.8-0.1-1.4-0.1-2.1-0.2c-1.5-0.2-2.6-0.5-4.1-0.7
					c-1.4-0.2-2.7-0.3-4.1-0.6c-1.9-0.3-3.2-0.6-5.1-0.9c-1.3-0.2-2.3-0.3-3.6-0.5c-2.7-0.4-3.4-0.9-3.1-3c0.2-1.2,0.5-2.1,0.7-3.3
					c0.1-0.6,0.1-1.2,0.2-1.7c0.2-1.5,0.5-2.5,0.8-4c0.1-0.6,0.1-1.1,0.2-1.8l0.1-0.9c0.1-0.5,0.1-0.9,0.2-1.4
					c0.2-1.4,1.3-1.3,1.8-1.2c0.8,0.1,1.6,0.4,2.3,0.5c1.3,0.2,3.6,0,3.2,2.4l-0.1,0.5c-0.1,0.6-0.1,1-0.2,1.5
					c-0.1,0.7-0.3,1.2-0.5,2c-0.4,2.5,0.4,2.8,2,3s2.5-0.2,2.7-1.2c0.1-0.5,0-0.9,0.1-1.4l0-0.1c0.1-0.7,0.3-1.1,0.4-1.8
					c0.1-0.6,0.1-1,0.2-1.5c0.3-1.9,1.6-1.6,2.2-1.5c0.7,0.1,1.2,0.2,1.9,0.4c0.7,0.1,1.2,0.1,1.9,0.2c1.8,0.3,1.7,1.6,1.6,2.2
					c-0.2,1.4-0.6,2.4-0.8,3.8c-0.4,2.5,1.2,2.6,2.1,2.8l0.6,0.1c0.2,0,1.1,0.2,1.4,0.1c1.4-0.4,1.2-1.1,1.6-2.8
					c0.2-0.8,0.4-1.4,0.5-2.2c0.1-0.7,0.1-1.3,0.2-2c0.1-0.5,0.5-1.7,2-1.5C79.5,301.1,80,301.3,80.8,301.4z"/>
				<path class="st2" d="M64.6,259.2c0.3,0.1,4,2.6,6.3,4.3c0.4,0.3,0.8,0.6,1.2,0.9c1.6,1.2,2.8,1.9,4.4,3.2
					c2.3,1.8,2.8,2.9,5.3,3.6c0.9,0.3,1.5,0.4,2.4,0.7c0.9,0.3,1.6,0.6,2.5,0.9c1.1,0.3,2,0.5,3.1,0.8c0.5,0.1,1.3,0.4,1.6,1.2
					c0.1,0.2-0.1,0.9-0.1,1c-0.1,0.5-0.3,0.8-0.4,1.3c-0.2,0.7-0.3,1.2-0.5,1.9l-0.5,1.6c-0.6,2-2.2,1.1-3.3,0.8l-0.1,0
					c-0.3-0.1-0.6-0.2-0.8-0.3c-0.5-0.1-0.9-0.2-1.3-0.3c-0.8-0.2-1.3-0.6-2.1-0.8c-0.9-0.3-1.5-0.3-2.4-0.6
					c-0.9-0.3-1.5-0.5-2.4-0.6c-0.2,0-5,0.1-7.8,0.4c-1.5,0.1-2.5,0.4-4,0.5c-2,0.1-3.5,0.1-5.5,0.2c-0.9,0.1-1.6,0.2-2.6,0.2
					c-0.3,0-0.6,0-0.8-0.1c-1.3-0.4-0.7-1.7-0.7-1.9c0.2-0.7,0.5-1.3,0.7-2c0.4-1.2,0.6-2.1,0.9-3.3c0.2-0.7,0.4-0.9,0.9-1.1
					c0.9-0.5,4.7,0,5.4,0c1.4,0.1,2.2,0,3.6,0.1c0.6,0,1.6,0.1,1.7-0.1c0.1-0.4-0.6-0.6-1.1-0.9c-0.8-0.5-1.4-0.8-2.1-1.3
					c-0.4-0.3-0.6-0.5-1-0.7c-0.6-0.4-1-0.6-1.7-1c-0.4-0.2-2.1-1.1-2.5-1.4c-0.4-0.5-0.6-0.5-0.8-1.2c-0.1-0.3,0.2-1,0.2-1.2
					c0.2-0.8,0.5-1.3,0.7-2c0.2-0.8,0.3-1.4,0.5-2.2c0.3-0.9,0.7-1.9,1.9-1.5C63.8,258.7,64.5,259.2,64.6,259.2z"/>
				<path class="st2" d="M94.9,244.7c0.2,0.1,1.6,1,2.4,1.9c1,1.1,1.8,2.7,2.1,4.2c0,0.4,0,0.9,0,1.6c-0.1,1.7-0.3,2.6-0.9,4
					c-1,2.6-3.1,6.3-6.9,7.2c-1.2,0.3-3.9,0.1-4.9-0.1c-0.9-0.2-3.8-1.1-4.6-1.4c-1.2-0.5-2-0.9-3.2-1.3c-0.9-0.4-1.6-0.6-2.5-0.9
					c-6.2-2.4-9.4-4.1-10.6-8.3c-0.6-2.3-0.6-3.7,0.7-6.9l0.1-0.3c0.6-1.5,1.4-3,2.6-4.1c0.6-0.6,2.9-2.1,3.8-2.4
					c2.5-0.9,6.2-0.2,10.9,1.6C90,241.9,92.1,242.4,94.9,244.7z M81.9,248c-0.8-0.2-1.3-0.6-2.1-0.9c-0.7-0.3-3.2-1.1-4-1
					c-0.6,0.1-1.4,0.3-1.7,1.2c0,0.1-0.1,0.2-0.1,0.3c-0.1,0.3-0.1,0.6-0.1,0.9c0.3,1.1,1.2,1.7,2.7,2.3c1.2,0.5,2.1,0.7,3.3,1.2
					c2.3,0.9,3.9,1.7,6.2,2.6c1.1,0.4,4,1.8,4.9-0.5c0.8-2-1.1-2.8-2.2-3.3c-0.7-0.3-1.3-0.5-2.1-0.8c-1-0.5-1.7-0.9-2.8-1.3
					C83.2,248.4,82.6,248.3,81.9,248z"/>
				<path class="st2" d="M87.3,210.2c1.1,0.7,2,1.1,3.1,1.7c1.2,0.6,2.1,0.9,3.3,1.5c1.6,0.7,2.5,1.4,4.1,2.2c2,1,3.3,1.6,5.3,2.6
					c0.9,0.5,1.5,0.9,2.5,1.4c0.6,0.4,4.7,2,5.1,7c0,0.7,0.1,1.9-0.3,3.3c-0.4,1.5-1.7,3.8-1.7,3.9c-1.4,2.7-2.9,3.8-4.2,4.6
					c-0.9,0.6-1.3,0.8-2,1c-0.6,0.2-1.5,0.2-2,0.2c-1.3-0.1-3.3-0.9-4.4-1.4c-1.8-0.9-2.9-1.6-4.7-2.5c-2.4-1.2-4.2-1.9-6.6-3.1
					c-1.4-0.7-2.3-1.3-3.7-2c-1.5-0.8-2.6-1.3-4.1-2.1c-1.7-0.9-2.6-1.5-1.9-2.8c0.5-1,1-1.6,1.5-2.6c0.3-0.5,0.4-1,0.6-1.5
					c0.5-0.9,1-2.1,2.5-1.4c1.3,0.7,2.2,1.3,3.5,1.9c0.8,0.4,1.3,0.6,2.1,1c0.7,0.4,1.2,0.7,1.9,1l1.3,0.7c1.3,0.7,2.5,1.4,3.8,2.1
					c1,0.5,1.7,0.8,2.7,1.3c1,0.5,2,1.1,3,1.6l0.2,0.1c1,0.5,2.8,1.4,3.6-0.3c0.2-0.4,0.3-1,0.3-1.1c-0.1-1.4-1-1.9-2.8-2.8
					c-2.1-1.1-3.5-1.9-5.6-2.9c-1.8-0.9-3.1-1.4-4.9-2.3c-1.6-0.8-2.6-1.5-4.2-2.3c-0.5-0.3-1.1-0.5-1.7-0.8c-1-0.5-3-1.2-2.1-3
					c0.5-1,1-1.6,1.4-2.5c0.4-0.8,0.6-1.4,1-2.3c0.7-1.3,2-0.7,2.3-0.5C86.2,209.5,86.6,209.8,87.3,210.2z"/>
				<path class="st2" d="M190.9,115.7c0.6,1.2,2.2,3.3,1.7,7.7c-0.3,1.8-0.9,4.1-3.6,6c-0.4,0.3-0.8,0.5-1.2,0.8l-0.1,0.1
					c-0.5,0.4-1.6,1.1-0.6,2.6c0.3,0.5,0.7,0.8,1,1.3c0.4,0.5,0.6,0.9,1.1,1.5c0.3,0.4,0.6,0.6,0.9,1.1c0.3,0.5,0.9,1.3-0.3,2.2
					c-0.9,0.6-1.6,1-2.5,1.6c-0.8,0.6-1.3,1.1-2.2,1.7c-0.8,0.5-1.3,0.5-2.2-0.7c-0.3-0.4-0.5-0.8-0.7-1.2c-0.3-0.5-0.6-0.7-0.9-1.2
					c-0.4-0.7-0.6-1.2-1.1-1.9c-0.8-1.1-1.6-2.1-2.4-3.2c-1-1.5-1.7-2.6-2.7-4c-0.8-1.2-1.7-2.3-2.5-3.5c-1.4-2-2.3-3.4-3.7-5.4
					c-1-1.4-1.8-2.3-2.8-3.8c-1-1.5-0.4-2.5,0.8-3.3c0.5-0.3,1.1-0.6,1.5-0.9c0.7-0.5,1.3-1,2-1.5c0.5-0.3,1-0.6,1.4-0.9
					c0.7-0.4,1.2-0.9,1.9-1.4c3.4-2.5,6.3-2.8,8.7-2c1.4,0.5,2,1.1,2.4,1.4c1.1,0.8,2.3,1.5,3.9,3.7
					C189.5,113.2,189.9,113.9,190.9,115.7z M182.4,118.7c-0.3-0.5-0.5-0.8-0.8-1.3c-1.2-1.7-2.7-2-3.7-1.3l-0.2,0.1
					c-0.2,0.2-0.4,0.4-0.5,0.7c-0.3,0.7,0.1,1.7,0.9,2.8l1.7,2.4c1,1.5,2.5,1.7,3.3,1.1c0.3-0.2,0.5-0.6,0.7-1
					c0.2-0.7,0.2-1.4-0.5-2.4C182.9,119.4,182.7,119.1,182.4,118.7z"/>
				<path class="st2" d="M220.4,119.8c-1,0.6-1.7,0.8-2.7,1.4c-0.8,0.5-1.3,0.9-2.2,1.3c-1.5,0.8-1.9-0.4-2.2-0.7
					c-0.3-0.3-1.6-2.6-2.2-2.7c-0.3-0.1-0.1,0-0.5-0.1c-0.1,0-1.7,0.9-2.6,1.4c-1.5,0.9-1.2,1.2-0.8,2.2c0.1,0.3,1.4,2.7,1.4,3.2
					c-0.1,0.5-0.2,0.8-0.9,1.2c-0.8,0.4-1.3,0.7-2.1,1.2c-0.8,0.5-1.6,1-2.4,1.4c-0.7,0.4-1.6,0.8-2.2-0.3c-0.2-0.3-0.5-1.2-0.8-2.1
					c-0.4-1.2-0.8-1.9-1.2-3c-0.4-1-0.6-1.8-1-2.8c-0.5-1.5-1-2.4-1.5-3.9c-0.6-1.5-0.8-2.5-1.4-3.9c-0.4-1-0.8-1.7-1.2-2.8
					c-0.4-1.2-0.6-2.2-1.1-3.4c-0.7-1.9-1.4-3.1-1.9-5c-0.4-1.2-0.6-2.4-0.5-3c0.2-0.6,0.6-1,1.5-1.5c1.4-0.8,2.5-1.2,3.8-2
					c1-0.6,2.1-1.2,3.1-1.8l0.2-0.1c1.1-0.6,1.5-0.6,2.3-0.2c0.1,0,0.4,0.3,0.5,0.4c0,0,2.9,3.4,2.9,3.4c1,1.2,1.6,2.1,2.5,3.3
					c1.2,1.4,2,2.4,3.3,3.8c1,1.1,1.7,1.9,2.6,3.1c1.2,1.5,1.9,2.7,3.1,4.2c1.8,2.2,4.3,4.9,4.7,5.5
					C220.8,117.5,221.6,119.1,220.4,119.8z M201.8,106c-0.5-0.6-1-1.4-1.2-1.5c-0.2-0.2-0.5-0.3-0.7-0.2c-0.1,0.1-0.2,0.4-0.1,0.6
					c0,0.3,0.5,1.7,0.6,1.9c0.2,0.6,0.2,1,0.4,1.5c0.1,0.3,1.5,3.9,1.7,4.2c0.7,1.3,1.4,1,2.1,0.7c0.5-0.3,1.5-0.9,0.7-2.4
					C204.1,108.7,202.2,106.5,201.8,106z"/>
				<path class="st2" d="M230.8,82.6c0.5,1.2,0.8,2.1,1.4,3.3c0.5,1.2,1.1,2,1.6,3.2c0.8,1.6,1.1,2.7,1.8,4.3c0.9,2,1.6,3.3,2.5,5.3
					c0.4,0.9,0.7,1.7,1.1,2.7c0.2,0.7,2.5,4.5-0.4,8.6c-0.4,0.5-1.1,1.6-2.3,2.4c-1.2,0.9-3.7,2-3.7,2c-2.8,1.3-4.6,1.2-6.2,1
					c-1.1-0.1-1.5-0.2-2.2-0.5c-0.6-0.3-1.3-0.8-1.7-1.1c-1-0.9-2-2.8-2.5-3.8c-0.9-1.8-1.3-3.1-2.1-4.9c-1.1-2.4-2.1-4.1-3.2-6.5
					c-0.6-1.4-1-2.5-1.7-3.9c-0.7-1.5-1.2-2.6-1.9-4.2c-0.8-1.8-1.2-2.8,0.2-3.4c1-0.5,1.8-0.6,2.8-1.1c0.6-0.3,0.9-0.5,1.4-0.7
					c0.9-0.4,2.1-1,2.8,0.5c0.6,1.3,0.9,2.4,1.5,3.7c0.4,0.8,0.6,1.3,1,2.1c0.3,0.7,0.5,1.3,0.9,2l0.6,1.4c0.6,1.3,1.1,2.7,1.7,4
					c0.5,1,0.8,1.7,1.3,2.7c0.5,1,0.9,2.1,1.4,3.1l0.1,0.2c0.4,1,1.3,2.8,3,2c0.4-0.2,0.8-0.6,0.9-0.7c0.8-1.2,0.4-2.1-0.5-4
					c-1-2.1-1.6-3.7-2.6-5.8c-0.9-1.8-1.6-3-2.4-4.8c-0.7-1.6-1.1-2.7-1.8-4.4c-0.3-0.6-0.5-1.1-0.8-1.6c-0.4-1-1.6-2.8,0.2-3.7
					c1-0.4,1.7-0.6,2.7-1.1c0.8-0.4,1.4-0.7,2.2-1.1c1.4-0.6,2,0.7,2.1,1C230.4,81.4,230.5,81.9,230.8,82.6z"/>
				<path class="st2" d="M259.6,101.4c-0.7,1.1-1.7,2.1-2.5,2.7c-1.2,0.9-3.8,1.9-5.1,2.4c-1,0.4-5.1,1.6-6.4,0.7
					c-0.4-0.3-0.5-0.4-0.7-1c-0.3-1-0.5-1.7-0.8-2.6c-0.3-0.8-0.5-1.2-0.8-2c-0.2-0.4-0.9-2.1,1.1-2.8c0.9-0.3,1.1-0.1,1.7,0
					c0.2,0,0.2,0.1,0.4,0.2c0.3,0.1,0.5,0.2,0.7,0.2c0.7,0.2,1.7-0.1,2.3-0.3c1.5-0.5,2.3-1.3,2-2.4c-0.4-1.5-2.4-2.1-3.9-2.7
					c-1-0.5-1.8-0.9-2.8-1.4c-0.3-0.1-1.5-0.6-2.6-1.2c-2.6-1.6-3.3-3.2-4.1-5.5c-2.4-6.6-0.2-10.5,6.1-12.7c2.9-1,6.1-2.3,6.8-0.2
					c0.3,1,0.5,1.7,0.8,2.6l0.1,0.2c0.2,0.6,0.4,1,0.6,1.6c0.2,0.4,0.6,1.9-1,2.5c-0.7,0.3-1.8,0.2-2,0.2c-0.5,0-1,0.1-1.9,0.4
					c-0.3,0.1-2,0.6-1.4,2.3c0.2,0.4,0.4,0.8,0.9,1.2c0.5,0.4,2.9,1.4,5.2,2.4c0.9,0.4,1.6,0.6,2.4,1.1c3,1.6,4,3,4.8,5.5
					C261,96.8,261.2,98.9,259.6,101.4z"/>
				<path class="st2" d="M282,92.9c0.2,0.8,0.4,1.3,0.6,2.1c0.1,0.5,0.3,1.8-1.3,2.2c-0.6,0.2-1.1,0.2-1.7,0.4l-1.1,0.3
					c-1.1,0.3-1.9,0.4-3,0.7c-0.6,0.2-1.1,0.3-1.7,0.5l-4.9,1.3c-0.4,0.2-0.7,0.3-1.2,0.4c-0.5,0.1-1.9,0.2-2.4-1.4
					c-0.3-1.2-0.4-2.1-0.7-3.3c-0.3-1.1-0.5-1.8-0.8-2.9c-0.2-0.8-0.2-1.4-0.4-2.2s-0.4-1.3-0.6-2.1c-0.4-1.5-0.6-2.6-1-4.1
					c-0.4-1.4-0.8-2.7-1.2-4c-0.5-1.8-0.8-3.2-1.2-5.1c-0.3-1.3-0.7-2.2-1-3.5c-0.7-2.6-0.6-3.5,1.5-4c1.2-0.3,2.1-0.4,3.3-0.7
					c0.5-0.1,1.1-0.3,1.7-0.5c1.5-0.4,2.5-0.5,4-0.9c0.6-0.2,1.1-0.4,1.7-0.5l0.9-0.2c0.5-0.1,0.8-0.3,1.4-0.4
					c1.4-0.4,1.7,0.7,1.9,1.2c0.2,0.8,0.3,1.6,0.5,2.3c0.3,1.2,1.4,3.3-0.9,3.9l-0.5,0.1c-0.5,0.1-0.9,0.3-1.5,0.4
					c-0.7,0.2-1.3,0.2-2,0.4c-2.5,0.7-2.4,1.5-2,3c0.4,1.5,1.2,2.2,2.2,1.9c0.5-0.1,0.8-0.3,1.3-0.5l0.1,0c0.7-0.2,1.2-0.2,1.8-0.4
					c0.5-0.1,0.9-0.3,1.4-0.4c1.9-0.5,2.1,0.8,2.3,1.4c0.2,0.7,0.3,1.2,0.5,1.9c0.2,0.7,0.3,1.1,0.5,1.8c0.5,1.8-0.8,2.2-1.4,2.4
					c-1.4,0.4-2.4,0.4-3.8,0.8c-2.5,0.7-1.9,2.1-1.7,3.1l0.1,0.5c0.1,0.2,0.3,1.1,0.5,1.3c1,1.1,1.5,0.6,3.2,0.3
					c0.8-0.1,1.4-0.2,2.2-0.4c0.7-0.2,1.2-0.5,1.9-0.6c0.5-0.1,1.7-0.2,2.2,1.2C281.8,91.6,281.8,92.1,282,92.9z"/>
				<path class="st2" d="M284.8,89.4l0-0.1c-0.2-0.8,0.2-1.4,1.2-1.6l0.1,0l0.4,0l0.5-0.1l1.1-0.2c0.3-0.1,0.4-0.1,0.5-0.1
					c0.2,0,0.3-0.1,0.4-0.1c0.2-0.1,0.3-0.1,0.4-0.1l0.3,0l0.2,0l0.3-0.1c0.8-0.2,1.2-0.1,1.5,0.2c0.3,0.2,0.6,0.5,0.7,0.7
					c0,0.2,0.2,0.5,0.3,1.4l0.1,0.7c0,0.3,0.1,0.6,0.1,0.6l0.2,0.9c0.3,1.3,0.1,3.3-0.3,5.2c-0.1,0.5-0.2,1-0.4,1.6
					c-0.2,0.7-0.5,1.3-0.7,1.5c-0.1,0.3-0.5,0.5-1,0.6c-0.1,0-1,0.1-1.2,0.1c-0.3,0.1-0.6,0.1-0.7,0.1c-0.2,0-0.5,0.1-0.7,0.1
					c-0.3,0.1-0.7-0.1-0.8-0.6c0-0.2,0-0.4,0.2-0.8c0.2-0.4,0.5-1.3,0.6-1.8l0-0.2l0.1-0.4c0-0.1,0.1-0.2,0-0.3
					c0.1-0.2,0.1-0.2,0-0.3c0.1-0.2,0-0.2,0-0.3c0,0,0-0.2-0.2-0.3c-0.1-0.2-0.3-0.2-0.5-0.2l-0.4,0c-0.7,0.1-1.3-0.2-1.4-1l0-0.1
					l-0.3-2l-0.2-1.2l-0.2-1L284.8,89.4z"/>
				<path class="st2" d="M322.5,89.1c-0.9,0.9-2.1,1.6-3.1,2c-1.4,0.6-4.1,1-5.6,1.1c-1.1,0.1-5.3,0.3-6.4-0.8
					c-0.3-0.3-0.4-0.5-0.4-1.1c-0.1-1-0.1-1.7-0.2-2.8c-0.1-0.8-0.2-1.3-0.3-2.1c0-0.5-0.3-2.3,1.7-2.4c0.9,0,1.1,0.2,1.6,0.4
					c0.1,0.1,0.2,0.2,0.3,0.3c0.2,0.1,0.4,0.3,0.7,0.4c0.6,0.3,1.7,0.3,2.3,0.3c1.6-0.2,2.6-0.7,2.6-1.8c0-1.5-1.9-2.6-3.1-3.6
					c-0.9-0.7-1.5-1.3-2.4-2c-0.3-0.2-1.3-0.9-2.2-1.8c-2.1-2.2-2.4-3.9-2.7-6.3c-0.7-7,2.3-10.2,9-10.9c3.1-0.3,6.5-0.8,6.7,1.4
					c0.1,1,0.1,1.7,0.2,2.8l0,0.2c0.1,0.7,0.1,1.1,0.2,1.7c0,0.5,0.1,2-1.6,2.1c-0.7,0.1-1.8-0.2-2-0.2c-0.5-0.1-1-0.2-1.9-0.1
					c-0.3,0-2.1,0.1-1.9,1.9c0,0.5,0.2,0.9,0.6,1.4c0.4,0.5,2.5,2.1,4.5,3.6c0.8,0.6,1.4,1,2.1,1.7c2.5,2.3,3.1,3.9,3.4,6.5
					C325,85,324.7,87,322.5,89.1z"/>
				<path class="st2" d="M355.6,63c0,1.2,0,2.1,0,3.3c0,3-0.1,5.1-0.1,8.1l0,0.4c0,1.4,0.1,2.8,0.1,4.2c0,2.2-0.2,3.8-0.2,5.9
					c0,1.3,0.2,2.1,0.2,3.4c0,1.5-0.1,2-1.2,2c-1.3,0-2.2-0.1-3.4-0.1c-0.9,0-1.5,0.1-2.4,0.1c-1.5,0-1.7-1-1.7-1.6
					c0-1,0.2-1.8,0.2-2.8l0-1.3c0-0.4,0-0.7,0-1c0-0.6-0.1-1,0-1.6c0-0.5,0.1-0.9,0.1-1.5c0-1-0.1-1.8-0.1-2.8c0-0.6,0-0.9,0.1-1.5
					c0-0.3,0-0.5,0-0.7l0-0.2c0-0.1,0-0.2-0.2-0.2c-0.5,0-1,2.2-1.1,2.4c0,0-2,4.4-2,4.4c-0.2,0.2-0.4,0.6-0.9,0.6
					c-0.2,0-0.8,0-0.9-0.1c-0.6-0.4-1.3-1.9-2.1-3.4c-0.2-0.4-0.4-0.7-0.6-1c-0.3-0.5-0.4-0.8-0.6-1.3c-0.3-0.6-0.8-1.6-1-1.6
					c-0.1,0-0.2,0.3-0.2,0.6l0,0.3c0,1.5-0.1,2.4-0.2,3.9c0,0.8,0,1.5,0,2.3c0,1.1-0.1,1.8-0.1,3l0,1c0,1,0.1,1.7,0.1,2.7
					c0,1.6-0.8,1.7-1.6,1.7c-0.8,0-1.3,0-2-0.1c-0.8,0-1.4,0-2.2,0c-0.4,0-0.7,0.1-1,0.1c-1.7,0-1.6-1.2-1.6-1.8
					c0-0.8,0.1-1.3,0.1-2c0-1,0.1-1.7,0.1-2.8c0-2.3-0.2-3.9-0.2-6.1c0-2.3,0.2-3.9,0.2-6.1c0-2.2-0.1-3.7-0.1-5.9
					c0-1,0.1-1.7,0.1-2.8c0.1-1.6-0.2-2.8-0.2-4.5c0-1.5,1.4-1.3,1.7-1.3c1.4,0,2.4,0.1,3.8,0.1c0.6,0,1,0,1.6,0c1.7,0,1.5,1,2.4,3
					c0.7,1.6,1.4,2.6,2.2,4c0.4,0.7,0.5,1.1,0.8,1.8c0.1,0.2,0.8,1.8,1.2,1.8c0.5,0,1.2-1.9,1.3-2.1c0.5-0.9,0.9-1.5,1.3-2.5
					c0.4-1,0.6-1.7,1.1-2.7c0,0,1.3-2.6,1.4-2.7c0.3-0.3,0.2-0.3,0.6-0.5c0,0,1-0.1,1.6-0.1c0.9,0,1.6,0.1,2.5,0.1
					c1,0,1.6-0.1,2.6-0.1c0.8,0,1.1,0.6,1.1,1.3C355.8,60,355.6,61.3,355.6,63z"/>
				<path class="st2" d="M368.1,90.3c-0.7,0-1.2-0.1-1.9-0.1c-1.2,0-2,0.1-3.1,0.1c-2.3,0-2.2-1.1-2.2-2.2l0-1.9
					c0-1.1,0.2-1.9,0.2-3l0-1.9c0-2.4-0.1-4,0-6.4l0.1-5.8c0-1.9,0.2-3.1,0.2-5l0.1-3.2c0-0.8-0.1-1.4-0.1-2.2
					c0-1.5,1.1-1.6,2.1-1.6c1.1,0,1.9,0.1,3,0.1c0.9,0,1.6-0.1,2.5,0c1,0,1.1,1.2,1.1,1.8c0,0.8-0.1,1.3-0.2,2c-0.1,1.2,0,2-0.1,3.1
					l-0.1,7.3c0,1.1-0.1,1.8-0.2,2.9l0,2.3c0,1.9,0.1,3.1,0.1,5c0,1.4-0.2,2.4-0.2,3.8c0,1.3,0.1,2.2,0.1,3.5
					C369.6,89.4,369.5,90.3,368.1,90.3z"/>
				<path class="st2" d="M389.5,89.6L389.5,89.6c0,0.6,0.1,2.1-1.7,2c-0.9-0.1-1.5-0.2-2.3-0.3c-0.8-0.1-1.4-0.1-2.2-0.1
					c-0.8-0.1-1.3-0.1-2.1-0.2l-3.5-0.3c-1-0.1-1.7,0-2.8-0.1c-1.7-0.1-1.7-1.4-1.6-2l0-0.4c0.1-1.7,0.4-2.9,0.5-4.7
					c0.1-1.9,0.1-3.2,0.2-5.1c0.1-1.5,0.4-2.5,0.5-4c0.1-1.2,0.1-2,0.1-3.1c0.1-0.7,0.2-1.5,0.3-2.2c0.1-1.2,0.1-2,0.1-3.2
					c0.1-1.2,0.3-2,0.4-3.1c0.1-1.2,0.1-2.4,0.2-3.6l0-0.2c0-0.5,0.1-1.9,1.9-1.8c0.8,0.1,1.4,0.3,2.3,0.3c0.8,0.1,1.7,0,2.5,0.1
					c0.8,0.1,2,0.2,1.9,1.5c0,0.6-0.2,1-0.3,1.6c-0.2,1.3-0.3,2.2-0.4,3.5c-0.1,1.3,0,2.2-0.2,3.4c-0.1,0.9-0.2,1.9-0.3,2.8
					c-0.1,0.7,0,1.6,0,2.3c-0.1,1.4-0.3,2.3-0.4,3.7c-0.1,0.8,0,1.5-0.1,2.3c0,0.4-0.1,0.8-0.1,1.2c-0.2,2.5,1.6,2.8,2.5,2.9
					c0.8,0.1,1.3,0.1,2.1,0.2c0.4,0,0.7,0,1,0c0.4,0,1,0.1,1.4,0.6c0.5,0.6,0.2,3.2,0.2,3.8C389.7,88.5,389.6,88.9,389.5,89.6z"/>
				<path class="st2" d="M410.5,90.7c-0.1,0.8-0.1,1.4-0.3,2.1c-0.1,0.6-0.4,1.8-2.1,1.6c-0.7-0.1-1.1-0.2-1.8-0.3l-1.1-0.2
					c-1.1-0.2-1.9-0.4-3-0.5c-0.7-0.1-1.1-0.1-1.8-0.2l-5-0.7c-0.5,0-0.8,0-1.3-0.1c-0.6-0.1-1.9-0.6-1.6-2.2
					c0.2-1.2,0.4-2.1,0.6-3.3c0.2-1.1,0.2-1.9,0.4-3c0.1-0.8,0.3-1.4,0.4-2.2c0.1-0.8,0.1-1.4,0.2-2.2c0.2-1.5,0.5-2.6,0.7-4.1
					c0.2-1.4,0.3-2.8,0.5-4.1c0.2-1.9,0.6-3.2,0.8-5.1c0.2-1.3,0.2-2.3,0.4-3.6c0.4-2.7,0.8-3.4,2.9-3.1c1.2,0.2,2.1,0.5,3.3,0.7
					c0.6,0.1,1.2,0.1,1.7,0.2c1.5,0.2,2.5,0.5,4,0.7c0.7,0.1,1.1,0.1,1.8,0.2l0.9,0.1c0.5,0.1,0.9,0.1,1.4,0.2
					c1.4,0.2,1.3,1.3,1.3,1.8c-0.1,0.8-0.4,1.6-0.5,2.3c-0.2,1.3,0,3.6-2.3,3.2l-0.5-0.1c-0.6-0.1-1-0.1-1.5-0.2
					c-0.7-0.1-1.2-0.3-2-0.4c-2.6-0.4-2.8,0.4-3,2c-0.2,1.6,0.2,2.5,1.3,2.6c0.5,0.1,0.9,0,1.4,0.1l0.1,0c0.7,0.1,1.1,0.3,1.8,0.3
					c0.6,0.1,1,0.1,1.5,0.2c1.9,0.3,1.6,1.6,1.5,2.2c-0.1,0.7-0.2,1.2-0.3,1.9c-0.1,0.7-0.1,1.2-0.2,1.9c-0.3,1.8-1.6,1.7-2.2,1.6
					c-1.4-0.2-2.4-0.5-3.8-0.7c-2.6-0.4-2.6,1.2-2.7,2.2l-0.1,0.6c0,0.2-0.2,1.1-0.1,1.4c0.5,1.4,1.2,1.2,2.9,1.5
					c0.8,0.2,1.4,0.4,2.2,0.5c0.7,0.1,1.3,0,2,0.1c0.5,0.1,1.7,0.5,1.5,2C410.8,89.4,410.6,89.9,410.5,90.7z"/>
				<path class="st2" d="M414.4,88.4l0-0.1c0.2-0.8,0.7-1.2,1.7-1.1l0.1,0l0.4,0.1l0.5,0.1l1.1,0.2c0.3,0.1,0.4,0.1,0.5,0.1
					c0.2,0,0.3,0.1,0.4,0.1c0.2,0,0.3,0,0.4,0l0.3,0.1l0.2,0l0.3,0.1c0.8,0.2,1.1,0.3,1.3,0.7c0.2,0.3,0.4,0.6,0.4,0.9
					c0,0.2-0.1,0.6-0.2,1.4l-0.1,0.7c-0.1,0.3-0.2,0.5-0.2,0.5l-0.2,0.9c-0.3,1.3-1.1,3.1-2.2,4.7c-0.3,0.4-0.6,0.9-1,1.3
					c-0.5,0.5-1,1-1.2,1.1c-0.2,0.2-0.6,0.3-1.1,0.2c-0.1,0-1-0.3-1.1-0.3c-0.3-0.1-0.6-0.1-0.7-0.1c-0.2,0-0.5-0.1-0.7-0.1
					c-0.3-0.1-0.6-0.4-0.5-0.9c0-0.2,0.1-0.4,0.5-0.7c0.4-0.3,1-1.1,1.2-1.4l0.1-0.2l0.2-0.3c0-0.1,0.1-0.2,0.2-0.3
					C415,96,415,96,415,95.9c0.1-0.1,0.1-0.2,0.2-0.3c0,0,0-0.2,0-0.4c0-0.2-0.2-0.3-0.4-0.4l-0.4-0.2c-0.7-0.1-1.1-0.7-1-1.5l0-0.1
					l0.5-2l0.2-1.2l0.2-1L414.4,88.4z"/>
				<path class="st2" d="M453.3,101c-0.2,0.8-0.3,1.3-0.5,2.1c-0.2,0.5-0.7,1.7-2.3,1.3c-0.6-0.2-1.1-0.4-1.7-0.5l-1.1-0.3
					c-1.1-0.3-1.8-0.6-2.9-0.9c-0.6-0.2-1.1-0.3-1.7-0.4l-4.8-1.4c-0.5-0.1-0.8-0.1-1.2-0.3c-0.5-0.2-1.8-0.8-1.3-2.4
					c0.3-1.2,0.7-2,1.1-3.2c0.3-1.1,0.5-1.8,0.8-2.9c0.2-0.8,0.5-1.3,0.7-2.1c0.2-0.8,0.3-1.3,0.5-2.1c0.4-1.5,0.8-2.5,1.2-4
					c0.4-1.4,0.7-2.7,1.1-4c0.5-1.9,1-3.1,1.5-5c0.4-1.3,0.5-2.2,0.9-3.5c0.7-2.6,1.3-3.3,3.3-2.7c1.2,0.3,2,0.8,3.2,1.1
					c0.5,0.2,1.1,0.3,1.7,0.4c1.4,0.4,2.4,0.8,3.9,1.3c0.6,0.2,1.1,0.2,1.7,0.4l0.9,0.3c0.5,0.1,0.9,0.2,1.4,0.4
					c1.4,0.4,1.1,1.5,1,1.9c-0.2,0.8-0.6,1.5-0.8,2.3c-0.3,1.2-0.5,3.5-2.7,2.9l-0.5-0.1c-0.5-0.2-1-0.2-1.5-0.4
					c-0.7-0.2-1.2-0.5-1.9-0.7c-2.5-0.7-2.8,0-3.2,1.6c-0.4,1.5-0.1,2.5,0.9,2.8c0.5,0.1,0.9,0.2,1.4,0.3l0.1,0
					c0.7,0.2,1.1,0.4,1.7,0.6c0.5,0.2,1,0.2,1.5,0.4c1.8,0.5,1.4,1.8,1.2,2.4c-0.2,0.7-0.4,1.2-0.6,1.9c-0.2,0.7-0.3,1.1-0.5,1.8
					c-0.5,1.8-1.8,1.5-2.4,1.3c-1.4-0.4-2.3-0.9-3.7-1.3c-2.5-0.7-2.7,0.8-3,1.8l-0.2,0.5c-0.1,0.2-0.3,1.1-0.3,1.4
					c0.3,1.4,1,1.3,2.6,1.9c0.8,0.3,1.3,0.6,2.1,0.8c0.7,0.2,1.3,0.2,1.9,0.4c0.5,0.1,1.6,0.7,1.2,2.2
					C453.7,99.7,453.5,100.2,453.3,101z"/>
				<path class="st2" d="M474.6,112.8c-0.8-0.3-1.3-0.6-2.1-0.9c-1.2-0.5-2.1-0.7-3.3-1.1c-0.9-0.3-0.6-1.5-0.6-2.9
					c0-1.1-0.2-1.9-0.2-3.1c0-1.1,0.1-1.9,0-3c0-0.9-0.2-1.5-0.2-2.4c0-0.8,0-1.4,0-2.2c0-0.9,0.1-2.4-0.1-2.4
					c-0.1,0-0.3,0.2-0.3,0.3c-0.2,0.6-0.2,1-0.4,1.6c-0.3,1.1-0.5,2-1,3.1c-0.5,1.4-1.1,2.4-1.6,3.8c-0.5,1.4-0.6,2.4-1.1,3.7
					c-0.4,1.1-1.1,1-2,0.7c-1.1-0.4-1.9-0.8-3-1.2c-0.8-0.3-1.4-0.4-2.2-0.7c-1.3-0.5-0.6-1.9-0.6-2c0.7-1.8,1.5-3,2.1-4.9
					c0.2-0.6,0.3-0.9,0.5-1.5c0.5-1.2,0.7-2.1,1.2-3.3c0.4-1.1,0.7-1.8,1.1-2.8c0.4-0.8,0.7-1.4,1-2.2c0.3-0.8,0.4-1.5,0.7-2.2
					l0.9-2.3c0.6-1.6,1.1-2.8,1.7-4.4c0.7-1.7,0.9-2.9,1.6-4.6c0.1-0.2,0.4-1.1,1.5-0.9l0.2,0.1c0.4,0.1,0.6,0.3,1,0.5
					c0.6,0.3,1,0.4,1.6,0.6c0.9,0.3,1.6,0.5,2.6,0.8c0.5,0.2,0.6,0.4,0.8,0.7c0.4,0.7,0.3,4.3,0.4,4.9c0,0.7,0.1,1.2,0.1,1.9
					c0.1,0.5,0.2,0.9,0.2,1.4c0,0.5,0,0.9,0,1.5c0,0.4,0.1,0.7,0.1,1.1c0,0.7,0,1.2,0,1.9c0,0.9-0.2,2.5,0.1,2.5
					c0.2,0,0.6-0.9,0.8-1.5c0.2-0.7,0.3-1.2,0.6-1.9c0.2-0.7,0.5-1.1,0.8-1.8c0.7-1.9,1-3.3,1.7-5.3c0.1-0.4,0.6-1.7,1-2
					c0.3-0.2,0.4-0.2,0.6-0.2c0.2-0.1,0.7-0.1,1.3,0.1c0.6,0.2,1,0.5,1.6,0.7l1.7,0.6c0.5,0.2,0.9,0.3,1.4,0.5
					c0.8,0.3,1,0.9,0.7,1.7c-0.5,1.3-1,2.2-1.5,3.5c-0.7,1.9-1.1,3.3-1.9,5.2c-0.8,2.1-1.4,3.5-2.2,5.5c-0.8,2.1-1.1,3.5-1.9,5.6
					c-0.7,1.8-1.4,3.1-2.1,5c-0.3,0.9-0.7,1.6-0.9,2.6c-0.1,0.4-0.1,0.8-0.3,1.1C476.2,113.3,475.2,113,474.6,112.8z"/>
				<path class="st2" d="M501.8,93.9c-0.5,1.1-0.7,1.8-1.2,2.9c-0.4,0.8-0.7,1.3-1,2.1c-0.4,0.8-0.6,1.4-1,2.2
					c-0.4,0.9-0.9,1.6-1.3,2.5c-0.3,0.6-0.5,1.3-0.9,2l-0.1,0.1c-0.6,1.4-1,2.3-1.6,3.7c-0.7,1.4-1.2,2.3-1.9,3.7
					c-0.2,0.5-0.4,0.9-0.6,1.4c-1.5,3.3-5.5,3.4-6.7,3.2c-0.6-0.1-2.5-0.8-3.1-1.1c-0.3-0.2-0.7-0.4-1-0.5c-0.5-0.2-0.8-0.3-1.4-0.5
					c-1.2-0.5-1.3-1.6-0.8-2.6c0.4-0.9,0.8-1.4,1.2-2.3c0.4-0.9,0.6-1.5,1-2.4c0.4-0.9,1.1-1.1,1.7-0.8c0.3,0.1,0.5,0.3,0.8,0.5
					c2,0.9,2.8-1.4,2.9-1.5c0.7-1.3,1-2.4,1.7-3.7c0.7-1.6,1.2-2.8,2-4.4c0.9-2,1.7-3.2,2.6-5.2c0.8-1.8,1.2-3.3,2.1-5.1
					c0.6-1.3,1.1-1.7,2.5-1.1c0.9,0.4,1.4,0.8,2.3,1.1l0.3,0.1c0.9,0.4,1.6,0.7,2.4,1.1c0.9,0.4,1.1,1,0.7,1.9
					C502.9,92.1,502.3,92.8,501.8,93.9z"/>
				<path class="st2" d="M514.9,125.3c-0.1,0.2-1.2,1.4-2.2,2.1c-1.2,0.8-2.9,1.4-4.4,1.5c-0.4,0-0.9-0.1-1.6-0.2
					c-1.7-0.3-2.5-0.7-3.9-1.4c-2.4-1.4-5.8-3.9-6.2-7.8c-0.2-1.3,0.4-3.9,0.7-4.9c0.3-0.9,1.6-3.6,2-4.4c0.6-1.1,1.1-1.8,1.7-3
					c0.5-0.9,0.8-1.5,1.2-2.3c3.3-5.8,5.3-8.7,9.7-9.4c2.3-0.3,3.7-0.1,6.7,1.6l0.2,0.1c1.4,0.8,2.8,1.8,3.7,3.1
					c0.5,0.7,1.7,3.2,1.9,4.1c0.6,2.6-0.6,6.2-3.1,10.5C518.3,120.8,517.5,122.8,514.9,125.3z M513.4,111.9c0.3-0.7,0.7-1.2,1.1-1.9
					c0.3-0.6,1.5-3,1.5-3.8c0-0.7-0.1-1.4-1-1.9c-0.1,0-0.2-0.1-0.3-0.1c-0.3-0.2-0.6-0.2-0.9-0.2c-1.1,0.1-1.8,1-2.6,2.4
					c-0.6,1.1-1,2-1.6,3.1c-1.2,2.2-2.2,3.7-3.4,5.8c-0.6,1-2.3,3.7-0.2,4.9c1.8,1,3-0.7,3.6-1.8c0.4-0.7,0.6-1.2,1.1-1.9
					c0.6-1,1.1-1.6,1.7-2.6C512.8,113.1,513,112.6,513.4,111.9z"/>
				<path class="st2" d="M547.5,119.4c-0.2,0.2-3.7,3-6,4.6c-0.4,0.3-0.8,0.5-1.3,0.8c-1.6,1.2-2.7,2-4.4,3.2
					c-2.4,1.6-3.6,1.8-5.1,4c-0.5,0.8-0.9,1.3-1.4,2.1c-0.6,0.8-1.1,1.3-1.6,2.1c-0.7,1-1.1,1.7-1.7,2.7c-0.3,0.4-0.8,1.1-1.6,1.2
					c-0.2,0-0.8-0.3-1-0.4c-0.4-0.3-0.7-0.5-1.1-0.8c-0.6-0.4-1.1-0.6-1.7-1l-1.4-0.9c-1.7-1.2-0.4-2.4,0.2-3.4l0.1-0.1
					c0.2-0.3,0.4-0.5,0.5-0.7c0.3-0.4,0.4-0.8,0.7-1.2c0.5-0.7,0.9-1.1,1.4-1.8c0.5-0.7,0.8-1.4,1.3-2.1c0.5-0.8,0.9-1.3,1.3-2.1
					c0.1-0.2,1.5-4.8,2.1-7.6c0.3-1.5,0.4-2.5,0.8-4c0.5-2,1-3.3,1.5-5.3c0.2-0.9,0.3-1.6,0.6-2.5c0.1-0.3,0.2-0.6,0.3-0.7
					c0.7-1.1,1.9-0.1,2-0.1c0.6,0.4,1.1,0.9,1.7,1.3c1,0.8,1.8,1.2,2.9,1.9c0.6,0.4,0.7,0.7,0.8,1.2c0.2,1-1.5,4.5-1.7,5.1
					c-0.5,1.3-0.7,2.1-1.2,3.4c-0.2,0.6-0.6,1.5-0.4,1.6c0.3,0.2,0.8-0.4,1.2-0.8c0.7-0.6,1.2-1.1,1.9-1.6c0.4-0.3,0.6-0.4,0.9-0.7
					c0.6-0.4,0.9-0.8,1.4-1.3c0.3-0.3,1.7-1.7,2.1-2c0.6-0.3,0.7-0.4,1.4-0.4c0.3,0,0.9,0.5,1.1,0.6c0.7,0.4,1.1,0.8,1.7,1.3
					c0.7,0.5,1.2,0.7,1.9,1.2c0.7,0.5,1.5,1.2,0.8,2.3C548.3,118.8,547.6,119.4,547.5,119.4z"/>
				<path class="st2" d="M556.1,166.8c-0.8-0.8-1.3-1.4-2.1-2.2c-0.7-0.6-1.2-1-1.9-1.6c-1.2-1.1-0.2-1.9,0-2.3
					c0.3-0.3,2-2.3,1.9-2.9c0-0.3,0-0.1-0.1-0.5c0-0.1-1.3-1.3-2.1-2.1c-1.3-1.2-1.5-0.8-2.4-0.1c-0.3,0.2-2.2,2.1-2.7,2.3
					c-0.5,0.1-0.9,0-1.4-0.5c-0.7-0.6-1.1-1.1-1.7-1.7c-0.7-0.6-1.4-1.2-2.1-1.9c-0.6-0.6-1.2-1.3-0.4-2.2c0.3-0.3,1-0.8,1.8-1.4
					c1-0.8,1.5-1.3,2.5-2.1c0.9-0.7,1.5-1.1,2.4-1.8c1.3-0.9,2-1.7,3.3-2.7c1.2-1,2.1-1.5,3.3-2.6c0.8-0.7,1.4-1.3,2.3-2
					c1-0.8,1.9-1.3,2.9-2c1.6-1.2,2.6-2.2,4.2-3.3c1.1-0.7,2.1-1.4,2.7-1.4c0.6,0,1.1,0.3,1.9,1c1.2,1.1,1.9,2,3,3.1
					c0.9,0.8,1.8,1.6,2.7,2.4l0.1,0.1c0.9,0.8,1,1.2,0.9,2.1c0,0.1-0.2,0.5-0.2,0.6c0,0-2.3,3.8-2.4,3.8c-0.8,1.3-1.5,2.1-2.4,3.4
					c-1,1.6-1.7,2.7-2.6,4.3c-0.8,1.3-1.3,2.2-2.1,3.4c-1.1,1.6-2,2.6-3.1,4.2c-1.6,2.4-3.4,5.6-3.8,6.1
					C558.5,166.5,557.1,167.7,556.1,166.8z M563.7,144.9c0.4-0.6,1-1.4,1.1-1.6c0.2-0.3,0.1-0.6,0-0.7c-0.1-0.1-0.4,0-0.6,0.1
					c-0.2,0.1-1.5,1-1.6,1.2c-0.5,0.3-0.9,0.5-1.3,0.9c-0.3,0.2-3.2,2.6-3.5,2.9c-1,1.1-0.6,1.7,0,2.2c0.4,0.4,1.3,1.2,2.5,0
					C561.9,147.9,563.3,145.4,563.7,144.9z"/>
				<path class="st2" d="M572.4,184.6c-0.6-0.6-0.9-1.1-1.4-1.8c-0.8-1-1.5-1.6-2.4-2.5c-0.7-0.7,0.2-1.7,0.8-2.9
					c0.5-1,0.7-1.8,1.2-2.8c0.5-1,0.9-1.6,1.4-2.6c0.4-0.8,0.6-1.4,0.9-2.2c0.3-0.7,0.6-1.2,1.1-1.9c0.4-0.8,1.2-2.1,1-2.2
					c-0.1-0.1-0.3,0-0.4,0.1c-0.5,0.4-0.7,0.8-1.1,1.2c-0.8,0.9-1.4,1.5-2.3,2.3c-1.2,1-2.1,1.6-3.2,2.6c-1.1,1-1.7,1.8-2.8,2.7
					c-0.9,0.8-1.5,0.4-2.1-0.3c-0.8-0.9-1.3-1.6-2.1-2.5c-0.6-0.6-1.1-1-1.6-1.6c-0.9-1.1,0.3-2,0.4-2c1.5-1.3,2.8-2,4.2-3.3
					c0.5-0.4,0.7-0.7,1.1-1.1c1-0.9,1.6-1.5,2.6-2.3c0.8-0.7,1.4-1.3,2.3-2c0.7-0.6,1.2-0.9,1.9-1.5c0.7-0.6,1-1.1,1.7-1.7l1.8-1.6
					c1.3-1.1,2.3-1.9,3.6-3c1.4-1.2,2.2-2.1,3.6-3.3c0.2-0.2,0.9-0.8,1.7-0.1l0.2,0.2c0.2,0.3,0.4,0.6,0.6,0.9
					c0.4,0.5,0.7,0.8,1.1,1.3c0.7,0.7,1.2,1.2,1.9,2c0.3,0.4,0.4,0.7,0.3,1c0,0.8-1.7,3.9-1.9,4.5c-0.3,0.6-0.5,1.1-0.8,1.7
					c-0.2,0.5-0.3,0.9-0.5,1.3c-0.2,0.5-0.4,0.8-0.7,1.3c-0.2,0.4-0.2,0.6-0.4,1c-0.3,0.6-0.5,1-0.9,1.6c-0.5,0.8-1.3,2.1-1.1,2.3
					c0.2,0.1,1-0.5,1.5-1c0.5-0.5,0.8-0.9,1.4-1.4c0.5-0.5,1-0.7,1.5-1.2c1.5-1.3,2.5-2.5,4-3.8c0.3-0.2,1.4-1.2,1.8-1.3
					c0.3,0,0.5,0,0.6,0.1c0.2,0,0.7,0.2,1.1,0.7c0.4,0.5,0.7,0.9,1.1,1.4l1.2,1.3c0.4,0.4,0.7,0.7,1,1.1c0.6,0.6,0.5,1.3-0.1,1.8
					c-1.1,0.9-1.9,1.4-3,2.4c-1.5,1.4-2.5,2.4-4.1,3.7c-1.7,1.5-2.9,2.4-4.6,3.8c-1.7,1.5-2.7,2.6-4.3,4c-1.5,1.3-2.7,2.1-4.2,3.4
					c-0.7,0.7-1.3,1.1-2,1.9c-0.3,0.3-0.5,0.6-0.8,0.9C573.5,185.9,572.8,185.1,572.4,184.6z"/>
				<path class="st2" d="M584.7,200c-1.1-0.7-2.2-1.7-3.7-3.8c-0.5-0.7-0.8-1.3-1.3-2c-0.8-1.1-1.5-1.7-2.3-2.9
					c-0.8-1.2-1.6-2.4,0.1-3.6c1.4-1,2.5-1.5,3.9-2.5c2.2-1.6,3.7-2.9,5.9-4.4c0.9-0.6,1.5-1,2.4-1.6c1.6-1,2.6-2,4.1-3.1
					c1.4-1,2.4-1.6,3.7-2.5c1.1-0.8,1.8-1.5,3-2.3c1.7-1.2,2.7-1,3.5,0.1c0.7,1,1.2,1.8,1.9,2.7c0.7,1,1.2,1.7,2,2.7
					c0.2,0.3,0.5,0.6,0.7,0.9c2.6,3.6,2.6,6.2,2,9c-0.1,0.5-0.5,1.8-1.2,3.1c-2.1,3.8-7.4,7.5-7.7,7.7
					C598.1,200,590.5,203.5,584.7,200z M598.8,188.3c0.9-0.8,4.8-3.8,3-6c-0.1-0.2-0.3-0.3-0.5-0.4c-0.9-0.5-1.8,0.2-2.2,0.6
					c-1.5,1-2.4,1.9-3.9,2.9c-1,0.7-1.7,1.1-2.7,1.8c-0.8,0.5-1.3,1.1-2,1.6c-0.5,0.4-0.9,0.6-1.5,1c-0.8,0.6-2.2,1.6-1.2,3
					c1.1,1.4,3.1,0.5,3.2,0.4c0.8-0.3,4.8-2.5,5.5-3C597.3,189.6,597.9,189,598.8,188.3z"/>
				<path class="st2" d="M603.1,231.5c-1-0.8-2-2-3.1-4.3c-0.4-0.8-0.6-1.4-1-2.2c-0.6-1.2-1.3-1.9-1.9-3.2
					c-0.7-1.3-1.3-2.6,0.6-3.6c1.5-0.8,2.7-1.1,4.2-1.9c2.4-1.2,4-2.3,6.4-3.6c1-0.5,1.6-0.8,2.6-1.2c1.7-0.8,2.8-1.6,4.5-2.5
					c1.5-0.8,2.5-1.2,4.1-2c1.2-0.6,2-1.2,3.3-1.8c1.9-1,2.8-0.6,3.4,0.6c0.6,1.1,0.9,1.9,1.5,3c0.6,1.1,1,1.9,1.6,2.9
					c0.2,0.3,0.4,0.6,0.5,0.9c2,4,1.7,6.5,0.7,9.2c-0.2,0.5-0.7,1.7-1.6,2.9c-2.6,3.5-8.4,6.4-8.7,6.6
					C616.4,233.4,608.4,235.8,603.1,231.5z M618.8,221.9c1-0.6,5.3-3.1,3.8-5.5c-0.1-0.2-0.2-0.4-0.4-0.4c-0.8-0.6-1.8,0-2.3,0.2
					c-1.6,0.8-2.7,1.5-4.2,2.3c-1.1,0.6-1.8,0.8-2.9,1.4c-0.8,0.4-1.4,0.9-2.2,1.3c-0.6,0.3-1,0.5-1.6,0.8c-0.9,0.4-2.4,1.2-1.7,2.7
					c0.9,1.6,3,0.9,3.1,0.9c0.8-0.2,5.1-1.8,5.9-2.2C617.1,223,617.8,222.5,618.8,221.9z"/>
				<path class="st2" d="M614.9,260.8l-0.1-0.2c-0.3-0.7-0.4-1.3-0.7-2c-0.4-0.9-0.6-1.4-1-2.2c-0.2-0.5-0.4-0.8-0.6-1.3
					c-0.6-1.4,0.5-2,1.3-2.8c0.9-0.9,1.3-1.6,2.2-2.4c0.6-0.6,1-0.9,1.6-1.5c0.6-0.6,1.1-1.1,0.9-1.6c-0.3-0.7-1.1-0.2-1.3-0.1
					c-0.9,0.4-1.5,0.6-2.3,1c-0.7,0.3-1.1,0.4-1.8,0.7c-0.6,0.2-1,0.5-1.7,0.8c-1,0.4-1.4-0.1-1.6-0.6c-0.4-0.9-0.5-1.6-0.9-2.6
					c-0.4-1.1-0.9-1.8-1.4-2.9c-0.4-1,0.1-1.7,0.9-2.1c0.7-0.3,1.1-0.4,1.7-0.6c1.1-0.4,1.9-0.7,3-1.1c2.2-0.9,3.6-1.7,5.8-2.6
					c2.2-0.9,3.9-1.4,6.1-2.3c1.4-0.6,2.4-1.1,3.8-1.7c1.5-0.6,2.6-1,4.2-1.6c0.9-0.4,1.5-0.8,2.4-1.1c0.9-0.4,2.3-0.6,3.2,1.4
					c0.4,0.9,0.5,1.6,0.9,2.5c0.8,2.2,1.6,3.7,2.5,5.9c1,2.5,2,6.1-0.6,9.5c-0.2,0.2-0.5,0.6-0.8,0.8c-0.3,0.3-0.6,0.7-1.3,1.2
					c-0.9,0.7-3.8,2-4.8,2.4c-0.7,0.3-4.5,2-8.4,0.7c-0.5-0.1-0.8-0.3-1.2-0.4c-0.3-0.1-0.5-0.3-0.8-0.4c-0.1,0-0.3-0.1-0.5,0
					c-0.6,0.2-2.8,3.1-3.3,3.6c-0.5,0.5-0.9,0.9-1.4,1.4c-0.8,0.9-1.3,1.6-2.1,2.4c-0.2,0.1-0.4,0.4-0.8,0.5
					C615.3,261.9,614.9,260.8,614.9,260.8z M634.4,241.5l-0.1-0.2c-0.2-0.3-0.4-0.6-0.6-0.7c-0.6-0.3-1.2-0.2-1.3-0.2
					c-0.2,0-3.7,1.3-3.9,1.4c-1.1,0.4-1.9,1.5-1.4,2.8c0.2,0.6,0.6,1,1,1.1c1,0.5,2.4,0.1,4-0.6
					C633.4,244.6,635.2,243.3,634.4,241.5z"/>
				<path class="st2" d="M625.2,280.4c-0.8,0.2-1.3,0.5-2,0.7c-0.5,0.2-1.8,0.4-2.3-1.2c-0.2-0.6-0.3-1.1-0.5-1.7l-0.3-1.1
					c-0.3-1.1-0.5-1.9-0.8-2.9c-0.2-0.6-0.4-1.1-0.6-1.7l-1.5-4.8c-0.2-0.4-0.3-0.7-0.5-1.2c-0.2-0.5-0.3-1.9,1.3-2.4
					c1.2-0.4,2.1-0.5,3.2-0.9c1.1-0.3,1.8-0.6,2.8-1c0.8-0.2,1.4-0.3,2.1-0.5c0.8-0.2,1.3-0.5,2-0.7c1.5-0.5,2.5-0.7,4-1.2
					c1.3-0.4,2.6-0.9,4-1.4c1.8-0.6,3.2-0.9,5-1.5c1.3-0.4,2.2-0.8,3.4-1.2c2.6-0.8,3.5-0.8,4.1,1.3c0.4,1.2,0.5,2.1,0.8,3.2
					c0.2,0.5,0.4,1.1,0.6,1.6c0.5,1.4,0.7,2.5,1.1,3.9c0.2,0.6,0.4,1,0.6,1.7l0.3,0.9c0.2,0.5,0.3,0.8,0.5,1.4
					c0.4,1.4-0.6,1.8-1.1,1.9c-0.8,0.2-1.6,0.4-2.3,0.6c-1.2,0.4-3.2,1.6-3.9-0.7l-0.2-0.5c-0.2-0.5-0.3-0.9-0.5-1.5
					c-0.2-0.7-0.3-1.2-0.5-2c-0.8-2.5-1.6-2.3-3.1-1.8c-1.5,0.5-2.2,1.3-1.8,2.3c0.2,0.5,0.4,0.8,0.5,1.3l0,0.1
					c0.2,0.7,0.3,1.1,0.5,1.8c0.2,0.5,0.3,0.9,0.5,1.4c0.6,1.8-0.7,2.1-1.3,2.3c-0.7,0.2-1.2,0.3-1.9,0.6c-0.7,0.2-1.1,0.4-1.8,0.6
					c-1.7,0.6-2.2-0.7-2.4-1.3c-0.4-1.4-0.6-2.4-1-3.8c-0.8-2.5-2.2-1.8-3.1-1.5l-0.5,0.2c-0.2,0.1-1.1,0.3-1.3,0.5
					c-1.1,1-0.5,1.6-0.1,3.2c0.2,0.8,0.2,1.4,0.5,2.2c0.2,0.7,0.5,1.2,0.7,1.8c0.1,0.4,0.3,1.7-1.1,2.2
					C626.5,280.1,625.9,280.1,625.2,280.4z"/>
				<path class="st2" d="M627.2,304.4c-0.3-1.1-0.3-1.9-0.6-3c-0.2-0.9-0.5-1.5-0.7-2.4c-0.4-1.6,0.9-1.7,1.3-1.9
					c0.4-0.1,2.9-0.9,3.2-1.4c0.2-0.3,0.1-0.1,0.2-0.4c0-0.1-0.4-1.8-0.6-2.9c-0.4-1.7-0.8-1.5-1.9-1.4c-0.4,0-3,0.6-3.5,0.4
					c-0.5-0.2-0.7-0.4-0.9-1.2c-0.2-0.9-0.3-1.5-0.5-2.3c-0.2-0.9-0.5-1.8-0.7-2.7c-0.2-0.8-0.3-1.8,0.9-2.1
					c0.4-0.1,1.3-0.1,2.3-0.2c1.2-0.1,2-0.3,3.3-0.3c1.1-0.1,1.9-0.1,3-0.1c1.6-0.1,2.6-0.3,4.2-0.4c1.6-0.1,2.6-0.1,4.2-0.3
					c1.1-0.1,1.9-0.3,3-0.4c1.3-0.1,2.3,0,3.6-0.1c2-0.1,3.4-0.4,5.3-0.4c1.3,0,2.5,0.1,3,0.4c0.5,0.4,0.7,0.9,1,1.9
					c0.4,1.5,0.5,2.7,0.9,4.2c0.3,1.1,0.6,2.3,0.9,3.5l0,0.2c0.3,1.2,0.2,1.6-0.5,2.2c-0.1,0.1-0.4,0.3-0.5,0.4c0,0-4,1.9-4.1,1.9
					c-1.4,0.6-2.4,0.9-3.8,1.5c-1.7,0.8-2.9,1.3-4.6,2.1c-1.3,0.6-2.3,1.2-3.7,1.7c-1.8,0.7-3.1,1.1-4.9,1.8c-2.7,1.1-5.9,2.8-6.6,3
					C629.4,305.5,627.6,305.8,627.2,304.4z M645.6,290.4c0.7-0.3,1.6-0.6,1.8-0.7c0.3-0.2,0.4-0.4,0.4-0.6c0-0.1-0.3-0.3-0.5-0.3
					c-0.3,0-1.8,0.1-2,0.1c-0.6,0-1,0-1.6,0c-0.4,0-4.2,0.4-4.5,0.5c-1.4,0.3-1.4,1.1-1.2,1.8c0.1,0.6,0.4,1.7,2.1,1.3
					C642.4,291.9,645,290.6,645.6,290.4z"/>
				<path class="st2" d="M659.6,330.2c-1.2,0.2-2,0.4-3.3,0.6c-3,0.5-5.1,0.8-8,1.3l-0.4,0.1c-1.4,0.2-2.8,0.6-4.1,0.8
					c-2.2,0.4-3.7,0.5-5.9,0.9c-1.2,0.2-2,0.5-3.3,0.8c-1.4,0.2-2,0.2-2.2-0.9c-0.2-1.2-0.2-2.2-0.4-3.4c-0.1-0.9-0.4-1.5-0.5-2.3
					c-0.3-1.5,0.7-1.9,1.3-2c1-0.2,1.8-0.1,2.8-0.3l1.2-0.2c0.4-0.1,0.7-0.1,1-0.1c0.6-0.1,1-0.3,1.6-0.3c0.5,0,0.9,0,1.5-0.1
					c1-0.2,1.7-0.4,2.8-0.6c0.6-0.1,0.9-0.1,1.4-0.2c0.3,0,0.5-0.1,0.7-0.2l0.2,0c0.1,0,0.2,0,0.2-0.3c-0.1-0.5-2.3-0.6-2.5-0.7
					c0,0-4.6-1.2-4.7-1.2c-0.3-0.1-0.6-0.3-0.7-0.8c0-0.2-0.1-0.7,0-0.9c0.3-0.6,1.7-1.6,3-2.7c0.3-0.3,0.6-0.5,0.9-0.8
					c0.4-0.4,0.8-0.5,1.2-0.8c0.6-0.4,1.5-1.1,1.4-1.2c-0.1-0.1-0.4-0.2-0.6-0.1l-0.3,0c-1.4,0.2-2.4,0.3-3.9,0.5
					c-0.8,0.1-1.4,0.3-2.3,0.4c-1.1,0.1-1.8,0.2-2.9,0.4l-1,0.2c-1,0.2-1.6,0.4-2.6,0.5c-1.6,0.3-1.8-0.5-2-1.3
					c-0.1-0.7-0.2-1.3-0.3-2c-0.1-0.8-0.2-1.3-0.4-2.1c-0.1-0.4-0.2-0.6-0.3-1c-0.3-1.7,0.9-1.8,1.5-1.9c0.7-0.1,1.3-0.2,2-0.2
					c1-0.1,1.7-0.2,2.7-0.4c2.2-0.4,3.8-0.8,6-1.2c2.3-0.4,3.9-0.5,6.1-0.9c2.2-0.4,3.6-0.7,5.8-1.1c1-0.2,1.7-0.2,2.7-0.4
					c1.6-0.2,2.7-0.7,4.4-1c1.4-0.2,1.5,1.2,1.6,1.4c0.2,1.4,0.4,2.4,0.6,3.7c0.1,0.6,0.2,1,0.3,1.6c0.3,1.7-0.8,1.7-2.6,2.9
					c-1.4,0.9-2.3,1.8-3.6,2.9c-0.6,0.5-1,0.7-1.6,1.1c-0.2,0.1-1.6,1.1-1.6,1.5c0.1,0.5,2,0.8,2.2,0.9c1,0.3,1.7,0.6,2.7,0.9
					c1,0.3,1.8,0.3,2.9,0.6c0,0,2.8,0.9,2.9,0.9c0.3,0.2,0.3,0.1,0.6,0.5c0.1,0,0.3,1,0.4,1.5c0.2,0.9,0.2,1.6,0.3,2.5
					c0.2,1,0.4,1.6,0.5,2.6c0.1,0.8-0.4,1.2-1.1,1.3C662.6,330,661.3,329.9,659.6,330.2z"/>
				<path class="st2" d="M633.7,344.2l-0.3-2.1c-0.3-2.3-0.7-3.9,1.2-4.2c0.5-0.1,0.8,0,1.3-0.1c0.7-0.1,1.3-0.2,2-0.3
					c0.5-0.1,0.9-0.2,1.4-0.1c0.8,0,2.1-0.2,2.3,1.7c0.1,0.6,0.1,1.1,0.2,1.7c0.1,0.9,0.2,1.6,0.4,2.6c0.2,1.9-1.3,1.9-2.5,2
					c-0.8,0.1-1.4,0.1-2.1,0.2c-0.5,0.1-0.9,0.2-1.4,0.3C634.2,346.1,633.8,345,633.7,344.2z"/>
			</g>
		</g>
	</g>
</g>
</svg>
