<?xml version="1.0" encoding="utf-8"?>
<!-- Generator: Adobe Illustrator 27.8.1, SVG Export Plug-In . SVG Version: 6.00 Build 0)  -->
<svg version="1.1" id="Layer_1" xmlns="http://www.w3.org/2000/svg" xmlns:xlink="http://www.w3.org/1999/xlink" x="0px" y="0px"
	 viewBox="0 0 914.3 596.9" style="enable-background:new 0 0 914.3 596.9;" xml:space="preserve">
<style type="text/css">
	.st0{fill:#FDFEFF;}
	.st1{fill:#F05423;}
</style>
<g>
	<g>
		<g>
			<path class="st0" d="M242.1,514.1c2.6-2.6,6.2-6.6,8.7-11.1c0.2-0.3,0.4-0.7,0.5-1c0.9-1.7,1.9-4,2.7-6.8
				c5.2-2.1,9.8-5.6,13.4-10.2c0.6-0.7,1-1.4,1.4-1.9c0.5-0.6,1.2-1.4,2-2.4c1.3-1.7,2.5-3.6,3.4-5.6c2.3-2,4.3-4.4,6-7
				c0.6-0.9,1-1.8,1.4-2.5c0.4-0.6,0.9-1.3,1.4-2.1c0.7-1.1,1.3-2.2,1.8-3.3c0.7-0.9,1.4-1.8,2-2.8c0.7-1.1,1.2-2,1.6-2.7
				c0.3-0.5,0.8-1.1,1.2-1.8c1-1.7,1.9-3.4,2.6-5.1c1.1-1.5,2.1-3.2,3-4.9c0.3-0.6,0.6-1.3,0.9-1.9c0.1-0.2,0.2-0.4,0.3-0.6l0.1-0.3
				c0.3-0.6,0.6-1.2,1-1.9c0.7-1.4,1.2-2.8,1.7-4.2c0.8-1.2,1.6-2.5,2.3-3.9c0.4-0.9,0.8-1.6,1-2.2c0.4-0.7,0.9-1.6,1.5-2.8
				c1.1-2.3,2-4.7,2.5-7.1c0.7-1.3,1.3-2.6,1.9-3.9c0.3-0.8,0.6-1.6,0.8-2.2c0.3-0.7,0.8-1.6,1.2-2.8c1.9-4.8,2.5-9.8,2.1-14.6
				c3.7-4,6.3-9,7.6-14.7c0.2-1.1,0.4-2.1,0.5-3l0-0.1c0.2-0.6,0.3-1.3,0.5-2.1c0.5-2.2,0.7-4.4,0.8-6.5c0.9-2,1.6-4,2-6.2
				c0.2-1,0.4-1.9,0.5-2.7c0.2-0.7,0.5-1.8,0.7-3c0.4-2,0.7-4.1,0.7-6.3c0.5-1.7,0.8-3.6,1-5.4c0.1-0.7,0.1-1.4,0.2-2.2
				c0-0.2,0-0.4,0-0.6l0-0.3c0.1-0.7,0.2-1.3,0.3-2.1c0.1-1.5,0.2-3,0.1-4.5c0.4-1.5,0.6-3,0.8-4.5c0.1-1,0.1-1.8,0.2-2.4
				c0.1-0.8,0.3-1.8,0.4-3.2c0.2-2.2,0.2-4.4,0-6.6c0-0.2,0.1-0.5,0.1-0.7c0.1-1.2,0.1-2.2,0.1-3.1c0-0.1,0-0.2,0-0.3l0-0.3
				c0.1-0.7,0.1-1.3,0.2-2.1c0.1-1.3,0.1-2.6,0.1-3.9c0.2-1.1,0.3-2.1,0.4-3.1c0.1-1.3,0.1-2.3,0.1-3l0-0.2c0.1-0.6,0.1-1.3,0.2-2
				l0-0.1c0-0.2,0-0.3,0-0.5c0.3-1.1,0.5-2.2,0.7-3.4c0.2-1,0.3-1.9,0.3-2.6l0.6-3.6c0.1-0.7,0.2-1.3,0.2-1.8l0,0
				c0.1-0.7,0.3-1.7,0.5-2.9l0.1-0.8c0.1-0.6,0.2-1.3,0.4-2.1c0.5-3.4,0.5-6.7,0.1-9.8c2-2.8,3.5-6,4.6-9.5l0.5-1.6
				c0.2-0.8,0.4-1.6,0.6-2.2c0.1-0.3,0.2-0.7,0.3-1.1c0.7-2.4,1.1-4.9,1.3-7.3c2-2.9,3.8-6.2,5.2-9.7c1-2.6,2.2-6.1,2.7-10.8
				c2.1-2.3,4.2-5.2,6-8.8c1.8-3.5,3.2-6.8,4-9.8c1.1-4.1,1.6-8.4,1.3-12.9c0-0.1,0-0.1,0-0.2c-0.8-13.5-8.3-24.9-20.4-31.4
				l-0.1-0.1c-0.7-0.4-1.8-1.1-3.3-1.8c-1.2-0.6-2.3-1.1-3.3-1.6c-0.6-0.3-1.2-0.6-1.9-0.9c-0.1-0.1-0.3-0.2-0.4-0.2
				c-0.9-0.5-2.3-1.3-4.1-2.2c-1.3-0.6-2.3-1.1-3-1.4l-0.2-0.1c-0.7-0.4-0.9-0.4-1-0.5c-0.6-0.4-1.9-1.2-3.6-2.1
				c-4.3-2.2-8.8-3.4-13.5-3.6c-12.3-0.5-23.5,6.1-29.1,17.2c-0.4,0.8-0.8,1.5-1,2.1c-0.4,0.7-0.9,1.6-1.5,2.7
				c-0.6,1.2-1.2,2.5-1.6,3.7c-0.7,1.1-1.4,2.2-2,3.5c-0.2,0.5-0.4,0.9-0.6,1.3c-0.4,0.7-1,1.6-1.5,2.8c-1.7,3.3-2.7,6.8-3.2,10.3
				c-2.6,3.2-4.7,7-6.4,11.1l-0.1,0.3c-1.1,2.8-2.2,6.2-2.8,10c-1.4,2.4-2.6,5-3.4,7.8c-0.2,0.8-0.4,1.6-0.6,2.1
				c-0.2,0.6-0.4,1.3-0.7,2.1c-0.5,1.7-0.8,3.3-1.1,4.9c-0.5,1.2-1,2.5-1.4,3.8c-0.3,0.9-0.5,1.6-0.6,2.4l0,0.2
				c-0.2,0.5-0.5,1.3-0.7,2.2c-1.4,4.4-1.8,8.9-1.3,13.3c-2,3.4-3.4,7.2-4.1,11.4c-0.1,0.7-0.2,1.3-0.3,1.9l-0.1,0.4
				c-0.1,0.9-0.2,1.6-0.3,2.2c-0.2,0.8-0.4,2.1-0.7,3.6c-0.1,0.4-0.1,0.9-0.2,1.3c-0.2,0.9-0.5,2.1-0.7,3.7
				c-0.3,1.9-0.4,3.8-0.4,5.7c-0.5,1.9-0.8,3.8-1,5.8c0,0.1,0,0.1,0,0.2c-0.1,1.1-0.1,2-0.1,2.8c-0.2,1-0.3,2.1-0.4,3.4
				c-0.1,1.3-0.1,2.6,0,4c-0.1,1-0.3,1.9-0.3,2.9c-0.1,1.1-0.1,2-0.1,2.6c-0.1,0.6-0.1,1.2-0.2,1.8l-0.1,1.3
				c-0.2,2.3-0.1,4.6,0.2,6.8c-0.2,1.2-0.4,2.4-0.6,3.6l0,0.2c-0.1,0.8-0.1,1.6-0.2,2.4c0,0.3,0,0.6-0.1,0.9l-0.1,0.3
				c-0.2,0.9-0.4,2.4-0.6,4.2c-0.2,1.8-0.2,3.4-0.2,5c-0.2,0.6-0.3,1.1-0.4,1.7c-0.2,1.1-0.4,1.9-0.5,2.6c-0.2,0.6-0.4,1.4-0.6,2.5
				c-0.6,2.5-0.8,5-0.9,7.4c-0.9,2.1-1.6,4.2-2.1,6.2c-0.1,0.7-0.3,1.3-0.4,1.9c-0.1,0.3-0.1,0.6-0.2,0.9c-0.2,0.7-0.3,1.4-0.5,2.2
				c-0.4,1.9-0.7,3.8-0.8,5.8c-1.2,1.8-2.2,3.8-3.1,6c-0.4,1-0.7,1.9-0.9,2.5c0,0.1-0.1,0.1-0.1,0.2c-0.4,0.9-0.8,1.8-1.2,2.8
				l-0.2,0.5c-0.5,1.4-0.9,2.5-1.3,3.5c-0.1,0.3-0.2,0.6-0.3,0.8l0,0.1c-0.3,0.6-0.7,1.5-1.2,2.8c-0.3,0.7-0.5,1.5-0.8,2.2
				c-0.5,0.8-1,1.7-1.4,2.6l-0.1,0.1c-0.3,0.7-0.7,1.4-1,2.2c-0.1,0.3-0.3,0.6-0.4,0.9l-0.2,0.3c-0.5,0.8-1.2,2.1-2,3.7
				c-0.8,1.7-1.5,3.4-2,5c-0.6,0.7-1.1,1.5-1.6,2.3c-0.5,0.8-0.9,1.5-1.2,2.1c-0.4,0.6-0.9,1.3-1.4,2.2c-0.7,1.1-1.3,2.2-1.8,3.3
				c-0.8,1-1.5,2-2.2,3.1c-0.6,1-1.1,1.8-1.4,2.5c-0.3,0.5-0.8,1.1-1.3,1.9c0,0,0,0,0,0.1c-0.6,0.7-1.2,1.3-1.7,2
				c-0.7,0.9-1.2,1.6-1.5,2.1c0,0.1-0.1,0.1-0.1,0.2c-0.6,0.7-1.2,1.5-1.9,2.4l-0.3,0.4c-0.9,1.2-1.6,2.2-2.2,3
				c-0.2,0.2-0.3,0.5-0.5,0.7l-0.1,0.1c-0.4,0.5-1.1,1.3-1.9,2.3c-1.4,1.8-2.5,3.6-3.5,5.6c-4.2,2.6-7.1,5.5-8.7,7.1l-0.3,0.3
				c-2.2,2.1-3.9,4.3-5.4,6.5c-0.5,0.4-1,0.7-1.5,1.1c-0.8,0.7-1.5,1.3-2,1.7c-0.5,0.4-1.2,0.9-2.1,1.6c-2,1.6-3.8,3.3-5.3,5.2
				c-1.9,1-3.8,2.2-5.5,3.6c-0.6,0.5-1,0.8-1.5,1.3c-0.2,0.2-0.5,0.4-0.7,0.5c-0.6,0.4-1.1,0.9-1.7,1.4c-0.8,0.6-1.5,1.2-2.2,1.8
				c-1.3,0.6-2.6,1.3-3.8,2.1l-0.2,0.1c-0.7,0.4-1.3,0.8-2,1.3c-0.3,0.2-0.5,0.4-0.8,0.5l-0.3,0.2c-0.8,0.5-2.1,1.1-3.7,2.1
				c-1.5,0.9-2.8,1.9-4,2.9c-1,0.4-1.9,0.8-2.9,1.3c-0.6,0.3-1.2,0.6-1.7,0.9l-0.4,0.2c-0.8,0.4-1.4,0.7-2,1
				c-0.8,0.3-1.9,0.8-3.3,1.5c-0.4,0.2-0.8,0.4-1.2,0.6c-0.8,0.3-2,0.8-3.4,1.5c-1.5,0.8-3,1.6-4.4,2.6c-2.3,0.5-4.6,1.2-6.9,2.1
				c-1.6,0.6-2.8,1.1-3.9,1.6c-0.8,0.3-1.2,0.5-1.5,0.6c-0.1,0-0.2,0.1-0.2,0.1c-0.6,0.2-1.6,0.5-2.9,1c-0.2,0.1-0.4,0.2-0.6,0.2
				c-1.7,0.3-3.2,0.7-4.4,1l-0.2,0.1c-2.5,0.7-7.9,2.5-13.3,6.2c-1.4-0.2-2.8-0.4-4.3-0.5c-1.9-0.1-3.8,0-5.6,0.3
				c-0.7,0.1-1.3,0.2-1.9,0.3l-0.5,0.1c-0.8,0.1-1.6,0.2-2.2,0.4c-0.8,0.1-2.1,0.2-3.6,0.4c-0.4,0.1-0.9,0.1-1.3,0.2
				c-0.9,0-2.2,0.1-3.7,0.4c-0.4,0.1-0.8,0.1-1.1,0.2c-0.1,0-0.1,0-0.2,0c-1.8-0.1-3.3,0-4.1,0.1l-0.2,0c-1.9,0.1-5.4,0.4-9.5,1.6
				c-1.7-0.3-3.4-0.6-5.1-0.6c-0.2,0-0.5,0-0.7,0c-1.2,0-2.2,0-2.9,0l-0.9,0c-0.5,0-1.1,0-1.7,0c-2.1,0-8.4-0.1-15.4,3.4
				c-10.4,5.3-17,15.9-17.2,27.7c0,1.3,0,2.4,0.1,3.2l0,2.2c0,0.4,0,0.8-0.1,1.1c-0.1,0.9-0.1,2.2-0.2,3.9L0.2,551
				c0,1.7,0,3.1,0,4.2c0,0.7,0,1.4,0,2.2l0,1.3c-0.1,0.8-0.2,2-0.2,3.5l0,1.9c-0.4,17.9,12.9,32,30.9,32.6c0.3,0,0.6,0,0.8,0
				c1.2,0,2.2,0,3-0.1c0.4,0,0.8,0,1.2,0.1c0.3,0,0.6,0,0.9,0c3.3,0,6.5-0.4,9.6-1.3c0.9,0.2,1.8,0.4,2.7,0.5
				c0.9,0.2,1.9,0.3,2.8,0.4c0.5,0,1.1,0.1,1.6,0.1c1.4,0.1,5.2,0,6.5-0.1c2.4-0.1,4.6-0.5,6.8-1.1c1.6,0,3.3-0.1,4.9-0.3
				c1-0.1,1.9-0.3,2.6-0.5l3.6-0.5c0.7-0.1,1.2-0.2,1.8-0.3l0,0c0.7-0.1,1.7-0.2,3-0.3l0.8-0.1c0.7-0.1,1.3-0.1,2.1-0.2
				c6.1-0.9,11.6-3.3,15.9-6.9c1.8,0.3,3.8,0.5,5.7,0.6c1.7,0.1,3.2,0,4.3,0c0.9,0,1.8-0.1,2.8-0.2c2.9-0.4,7.9-1.7,7.9-1.7
				c2.2-0.6,4.3-1.5,6.3-2.5c1.7-0.3,3.3-0.8,5-1.5c1.2-0.5,2.3-0.9,3.1-1.3c0.7-0.2,1.5-0.5,2.5-0.9c1.2-0.5,2.4-1,3.5-1.6
				c1.1-0.3,2.2-0.6,3.2-1c1.1-0.4,2.1-0.9,2.9-1.2c0,0,0,0,0,0c0.6-0.2,1.5-0.5,2.6-0.9l0.1,0c1.9-0.7,3.6-1.6,5.3-2.6
				c1.8-0.5,3.6-1.2,5.4-2.1c0.9-0.4,1.7-0.9,2.3-1.3l3.3-1.6c0.6-0.3,1.1-0.6,1.6-0.8l0,0c0.6-0.3,1.5-0.7,2.7-1.3l0.7-0.4
				c0.6-0.3,1.2-0.5,1.9-0.9c1.6-0.8,3.1-1.7,4.5-2.7c1.7-0.7,3.4-1.6,5.1-2.6c0.6-0.4,1.2-0.8,1.8-1.2c0.2-0.1,0.4-0.2,0.5-0.3
				l0.3-0.2c0.6-0.3,1.2-0.7,1.8-1.1c1.3-0.8,2.5-1.7,3.7-2.7c1.4-0.6,2.7-1.3,4-2.1c0.8-0.5,1.5-1,2-1.3c0.7-0.4,1.6-0.9,2.7-1.6
				c1.5-1,3-2.1,4.3-3.2c2-1,3.8-2.2,5.6-3.6c0.9-0.7,1.7-1.4,2.3-2l0.1,0c0.5-0.4,1.1-0.8,1.7-1.3c1.9-1.5,3.4-3.1,4.7-4.6
				c1.9-1,3.8-2.2,5.5-3.6c0.8-0.7,1.5-1.3,2.1-1.8c0.6-0.4,1.5-1.1,2.4-1.8c1.9-1.5,3.6-3.3,5.1-5.1
				C237.5,518.3,240.1,516.1,242.1,514.1z"/>
			<path class="st0" d="M913.3,293.8c-0.1-0.6-0.2-1.5-0.4-2.6c-0.4-2.6-1.1-5-2-7.2c0.1-2.3-0.1-4.5-0.4-6.5
				c-0.1-0.7-0.2-1.3-0.4-1.9c0-0.3-0.1-0.6-0.1-0.9c-0.1-0.7-0.2-1.4-0.3-2.2c-0.5-3.1-1.4-6-2.7-8.8c-0.1-2.3-0.4-4.7-1-7l0-0.1
				c-0.2-0.8-0.4-1.5-0.6-2.3c-0.1-0.3-0.2-0.6-0.2-0.9l-0.1-0.3c-0.2-0.9-0.4-2.4-0.9-4.1c-0.7-2.9-1.7-5.4-2.8-7.6
				c-0.2-2.6-0.6-5.1-1.4-7.6c-0.2-0.7-0.4-1.3-0.6-1.9l-0.1-0.4c-0.3-0.8-0.5-1.5-0.7-2.1c-0.2-0.8-0.5-2-1-3.5
				c-0.1-0.4-0.3-0.8-0.4-1.3c-0.2-0.9-0.5-2.1-1-3.6c-1-3.2-2.5-6.2-4.3-8.8c-0.5-3.5-1.4-7-2.8-10.5c-0.6-1.6-1.2-2.8-1.7-3.8
				c-0.3-0.7-0.5-1.2-0.7-1.5c0-0.1-0.1-0.2-0.1-0.2c-0.2-0.6-0.5-1.6-1-2.8c-1.5-3.7-3.6-7-6.1-9.8c-0.8-3.7-2.1-7.5-4-11.2
				c-0.4-0.8-0.8-1.4-1-1.8c-0.2-0.4-0.4-0.7-0.6-1.1c-0.2-0.3-0.3-0.6-0.5-0.9c-0.2-0.3-0.3-0.6-0.4-0.9c-0.3-0.7-0.6-1.3-1-2.1
				c-2.9-5.7-7.2-10.2-12.4-13.2c-0.8-6.5-3.3-12.8-7.6-18.7c-0.5-0.7-0.9-1.2-1.2-1.6c-0.3-0.3-0.5-0.7-0.8-1
				c-0.2-0.3-0.4-0.5-0.6-0.8c-0.2-0.3-0.4-0.5-0.5-0.8c-0.4-0.6-0.8-1.2-1.3-2c-1.3-1.9-2.8-3.6-4.4-5.1c-1.1-2-2.4-3.9-4-5.7
				c-0.5-0.5-0.9-1-1.3-1.4l-0.3-0.3c-0.4-0.5-1-1.2-1.7-2c-1-1.1-2.1-2.2-3.2-3.2c-0.8-1.2-1.7-2.4-2.7-3.6c-0.8-0.9-1.5-1.6-2-2.1
				c-0.4-0.6-1-1.3-1.6-2c0,0-0.2-0.3-0.2-0.3c-1.1-1.3-2.3-2.4-3.7-3.5c-1-0.8-2.1-1.5-3.1-2.2c-1.5-2.2-3.3-4.4-5.4-6.3l-0.2-0.1
				c-0.6-0.5-1.2-1.1-1.8-1.6c-0.2-0.2-0.5-0.4-0.7-0.6l-0.2-0.2c-0.7-0.7-1.6-1.7-3-3c-4.6-4.2-9.3-6.5-13.5-7.7
				c-2.4-4.6-6-8.7-10.7-11.9c-0.7-0.5-1.3-0.9-1.9-1.2c-0.5-0.4-1.1-0.8-1.7-1.3c-1.4-1-2.9-1.8-4.4-2.6c-1-0.9-2.1-1.7-3.2-2.5
				c-0.7-0.5-1.4-0.9-2.1-1.3l-0.2-0.1c-0.4-0.3-1-0.8-1.8-1.4c-2.5-1.8-5.1-3.2-7.9-4.2c-2.3-2.1-5-4-7.9-5.6l-0.2-0.1
				c-2.6-1.5-6.3-3.3-10.8-4.4c-2.2-1.9-4.6-3.4-7.3-4.7c-0.7-0.3-1.3-0.6-2-0.9c-0.1,0-0.2-0.1-0.4-0.2c-0.6-0.3-1.5-0.8-2.6-1.3
				c-2.2-1-4.4-1.8-6.7-2.3c-2-1.4-4.2-2.5-6.5-3.4c-0.7-0.3-1.2-0.4-1.9-0.6l-0.4-0.2c-0.6-0.3-1.4-0.6-2.5-1
				c-1.4-0.5-2.8-0.9-4.3-1.3c-1.3-0.7-2.7-1.3-4.1-1.9c-1.1-0.4-2-0.7-2.8-0.9c-0.7-0.3-1.5-0.7-2.4-1l-0.2-0.1
				c-1.6-0.6-3.3-1.1-5-1.4c-0.3-0.1-0.5-0.1-0.8-0.1c-1.6-0.8-3.3-1.5-5.1-2c-0.7-0.2-1.3-0.3-1.9-0.5l-0.4-0.1
				c-0.8-0.2-1.5-0.4-2.1-0.5c-0.8-0.3-2-0.7-3.5-1.1c-0.4-0.1-0.8-0.2-1.3-0.3c-0.8-0.3-2.1-0.8-3.6-1.2c-2.8-0.8-5.4-1.2-8.2-1.3
				c-3.8-0.1-8,0.4-12.1,2c-4.6-4.5-10.7-7.6-17.7-8.6c-0.7-0.1-1.3-0.2-2-0.2l-0.4-0.1c-0.9-0.1-1.6-0.2-2.2-0.2
				c-0.8-0.2-2.1-0.4-3.6-0.6c-0.4-0.1-0.9-0.1-1.3-0.2c-0.9-0.2-2.1-0.5-3.7-0.7c-1.2-0.2-2.5-0.3-3.7-0.3
				c-2.2-0.1-4.4,0.1-6.5,0.4c-4.1-1.5-7.5-1.7-8.9-1.8c-0.6,0-1.2-0.1-1.7-0.1c-0.1,0-0.3,0-0.4,0c-0.7-0.1-1.7-0.2-2.7-0.3
				c-0.4,0-0.9-0.1-1.3-0.1c-1.4-0.1-2.9,0-4.3,0.1c-1.3-0.2-2.7-0.4-4.1-0.4c-0.2,0-0.4,0-0.5,0c-1.2,0-2.2,0-2.9,0l-1.4-0.1
				c-0.4,0-0.8,0-1.2,0c-0.9,0-2.7-0.1-5,0.2c-1.1-0.2-2.2-0.3-3.3-0.3c-0.3,0-0.7,0-1.1,0c-1.1,0-2,0-2.6,0.1c-0.3,0-0.7,0-1,0
				c-0.5,0-1,0-1.5,0c-2.6,0-5.1,0.2-7.5,0.7c-2.3-0.5-4.1-0.6-5.3-0.7c-0.4,0-0.8,0-1.2,0c-0.7,0-1.3,0-2,0c-0.3,0-0.6,0-0.9,0
				c-0.7,0-1.4,0-2.2,0c-2.8,0-5.6,0.3-8.3,0.9c-1-0.1-1.9-0.2-2.9-0.2c-3.1-0.1-5.7,0.1-7.5,0.3l-0.5,0
				c-9.8,0.9-18.1,4.6-24.3,10.3c-3.9-2-8.2-3.1-12.8-3.3c-3.2-0.1-6.3,0.2-9.4,1.1c-0.7,0.2-1.3,0.4-1.9,0.5l-0.4,0.1
				c-0.8,0.2-1.6,0.4-2.1,0.6c-0.8,0.2-2.1,0.4-3.5,0.8c-0.4,0.1-0.9,0.2-1.3,0.4c-0.9,0.2-2.2,0.4-3.7,0.8
				c-2.4,0.6-4.6,1.5-6.8,2.6c-4.6,0.5-8.3,1.8-10.7,2.7l-0.4,0.2c-3.8,1.3-7.2,3.1-10.2,5.1c-2.9,0.4-5.7,1.3-8.4,2.5
				c-0.8,0.4-1.6,0.7-2.1,1c-0.7,0.3-1.7,0.7-2.8,1.2c-1.2,0.6-2.4,1.2-3.5,1.9c-1.7,0.6-3,1.2-3.8,1.5c-0.5,0.2-0.9,0.4-1.3,0.6
				c-0.8,0.3-1.8,0.7-2.9,1.2c-2.8,1.3-5.3,2.9-7.6,4.8c-2.6,0.7-5.1,1.8-7.6,3.2l-0.2,0.1c-0.7,0.4-1.4,0.8-2,1.2
				c-0.3,0.2-0.6,0.3-0.8,0.5l-0.3,0.1c-0.9,0.4-2.2,1-3.7,2c-3.7,2.1-6.5,4.6-8.7,7.1c-4.1,1.3-8.1,3.4-11.8,6.1
				c-0.4,0.3-0.9,0.6-1.3,1c-0.6,0.4-1.2,0.7-1.7,1.1c-0.7,0.5-1.4,1-1.8,1.3c-0.5,0.3-1.1,0.7-1.7,1.1c-15,10.4-18.6,30.2-8.3,45.1
				c1,1.4,1.8,2.5,2.5,3.4c0.2,0.3,0.5,0.6,0.7,1c0.5,0.7,0.9,1.3,1.5,2.1c0.6,0.8,1.1,1.7,1.8,2.7c0.5,0.7,1,1.4,1.5,2.1
				c0.3,0.4,0.7,0.9,1,1.4c0.3,0.4,0.5,0.8,0.8,1.2c0.6,0.9,1.2,1.8,1.9,2.8c0.7,1,1.4,1.9,1.9,2.6c0.1,0.2,0.3,0.5,0.4,0.7
				c0.6,1,1.2,1.9,1.8,2.7c0.3,0.5,0.6,1,1,1.5c5.9,8.4,14.9,13.5,24.8,13.8c4.8,0.2,11.9-0.7,19.2-5.7c1.1-0.8,2-1.5,2.7-2.1
				c0.5-0.3,1.2-0.8,2-1.3c2.2-1.5,4.2-3.3,5.9-5.2c1.8-0.7,3.6-1.5,5.3-2.5c0.6-0.4,1.2-0.7,1.8-1.1c0.2-0.1,0.4-0.2,0.5-0.3
				l0.3-0.2c0.6-0.3,1.2-0.6,1.9-1c1.3-0.8,2.6-1.6,3.8-2.5c1.4-0.6,2.8-1.2,4.1-2c0.8-0.5,1.5-0.9,2.1-1.3c0.7-0.3,1.7-0.8,2.8-1.5
				c0.8-0.4,1.5-0.9,2.2-1.4c2.5-0.6,5-1.5,7.5-2.6c3.4-1.5,6.3-3.1,8.8-4.9c3.5-0.6,6.4-1.5,8.3-2.2c2.5-0.9,5.9-2.3,9.3-4.2
				c1.4-0.2,2.8-0.4,4.2-0.8c1-0.3,1.8-0.5,2.5-0.8l0.3-0.1c2.7,0.9,5.5,1.4,8.4,1.5c2.4,0.1,4.8-0.1,7.2-0.6l0.2,0
				c0.6-0.1,1.4-0.2,2.3-0.4c5.5-1.1,10.6-3.6,14.6-7.2c2.5,0,4.6-0.1,5.7-0.2c2.8-0.3,6.5-0.8,10.3-1.9c0.6,0.1,1.3,0.1,2,0.1
				c0.4,0,0.8,0,1.2,0c1.1,0,2.1-0.1,3-0.1l0.4,0c0.6,0,1.2,0,1.8,0c2.4,0,4.6-0.2,6.6-0.6c1.7,0.4,3.5,0.6,5.4,0.6
				c0.4,0,0.8,0,1.1,0c1.1,0,2,0,2.7-0.1c0.4,0,0.9,0.1,1.4,0.1c0.5,0,1.1,0,1.7,0c1.6,0,3.1-0.1,4.6-0.3c1,0.1,2,0.2,3,0.2
				c0.2,0,0.4,0,0.6,0c1.2,0,2.2,0,3,0c0.4,0,0.9,0.1,1.4,0.1c0.2,0,0.4,0,0.6,0c0.8,0,1.7,0,2.5-0.1c0.9,0.1,1.8,0.3,2.7,0.3
				c0.7,0.1,1.3,0.1,1.9,0.1c0.4,0,0.8,0,1.1,0l3.2,0.2c0.7,0.1,1.3,0.1,2.1,0.2c0.7,0.1,1.3,0.1,1.9,0.1c0.6,0.1,1.5,0.2,2.6,0.3
				c0.4,0,0.9,0.1,1.3,0.1c0.2,0,0.5,0,0.7,0c0.8,0.2,1.7,0.4,2.6,0.5c1,0.1,1.9,0.2,2.6,0.3l0.5,0.1c4,3.5,9,5.9,14.3,6.9l0.2,0
				c0.6,0.2,1.4,0.4,2.3,0.5c1.6,0.3,3.3,0.5,4.9,0.6c4.1,0.2,8.1-0.5,11.8-1.8c0.6,0.2,1.3,0.4,1.9,0.6c1,0.3,1.8,0.5,2.6,0.6
				l3.5,1c0.6,0.2,1.2,0.3,1.8,0.5l0,0c0.6,0.2,1.6,0.5,2.9,0.9l0.8,0.2c0.6,0.2,1.2,0.4,2,0.6c0.9,0.3,1.8,0.5,2.7,0.6
				c0.4,0.1,0.7,0.3,1.1,0.4c1.1,0.4,2,0.7,2.8,0.9c0.6,0.3,1.4,0.6,2.5,1c1.5,0.6,2.9,1,4.4,1.3c1.1,0.5,2.1,1,3.2,1.4
				c1.2,0.4,2.2,0.8,2.8,1c0.6,0.3,1.5,0.6,2.6,1.1c1.1,0.7,2.3,1.3,3.5,1.9c0.6,0.3,1.2,0.6,1.8,0.8c0.2,0.1,0.4,0.2,0.6,0.3
				c2.3,1.1,5.6,2.4,9.1,3.1c2.6,2.4,5.6,4.6,8.9,6.5c2.2,1.3,5.2,2.7,9.2,3.8c1.5,1.6,3.2,3,5.1,4.3l1.4,0.9
				c0.7,0.5,1.3,0.9,1.9,1.2c0.3,0.2,0.6,0.4,1,0.7c2.2,1.5,5.3,3.2,9.1,4.3c1.5,2.3,3.3,4.5,5.5,6.5c0.5,0.5,1.1,1,1.6,1.4
				c0.2,0.1,0.3,0.3,0.5,0.4l0.2,0.2c0.5,0.5,1,0.9,1.5,1.5c1.2,1.1,2.4,2,3.6,2.9c0.9,1.1,2,2.2,3.1,3.3c0.7,0.7,1.3,1.2,1.8,1.6
				c0.5,0.6,1.3,1.3,2.3,2.2c0.2,0.2,0.4,0.4,0.6,0.5c0.2,0.2,0.4,0.5,0.6,0.7c0.7,0.9,1.4,1.6,2,2.1c0.4,0.5,1,1.2,1.7,2
				c1.1,1.2,2.2,2.3,3.3,3.3c0.7,1,1.4,1.9,2.1,2.7c0.8,0.9,1.6,1.7,2,2.2c0.4,0.5,1,1.2,1.7,2.1c0.3,0.4,0.6,0.7,1,1
				c0.9,1.5,1.6,2.6,2.1,3.2c1,1.4,1.8,2.4,2.5,3.2c0.3,0.5,0.7,1.1,1.2,1.7c3.1,4.4,6.4,7.8,10.2,10.5c0.7,5.8,2.9,10,3.7,11.5
				c0.8,1.5,1.5,2.7,2,3.5c0.2,0.5,0.5,1.1,0.9,1.9c1.4,2.8,3,5.3,4.7,7.5c0.4,1.9,0.9,3.9,1.7,5.8c0.5,1.2,1,2.3,1.4,3
				c0.2,0.7,0.5,1.5,0.9,2.5c0.5,1.2,1,2.3,1.6,3.4c0.3,1.1,0.7,2.2,1.1,3.2c0.5,1.1,0.9,2.1,1.3,2.8c0,0,0,0,0,0.1
				c0.2,0.6,0.5,1.5,1,2.7l0,0.1c0,0.1,0.1,0.2,0.1,0.3c0.2,1.2,0.5,2.3,0.9,3.4c0.3,1,0.6,1.8,0.9,2.5l1.1,3.5
				c0.2,0.6,0.4,1.2,0.6,1.7l0,0c0.2,0.7,0.4,1.7,0.8,2.9l0.3,0.8c0.2,0.6,0.4,1.3,0.6,2c0.3,0.9,0.6,1.7,1,2.6
				c0.1,0.3,0.1,0.5,0.2,0.8c0.2,0.7,0.4,1.4,0.5,2c0.1,0.2,0.1,0.4,0.2,0.6l0.1,0.3c0.1,0.7,0.3,1.3,0.5,2.1
				c0.4,1.5,0.8,2.9,1.4,4.3c0.2,1.5,0.4,3,0.8,4.5c0.2,1,0.5,1.7,0.6,2.3c0.1,0.8,0.3,1.8,0.6,3.1c0.1,0.5,0.3,1,0.4,1.5
				c0.1,0.6,0.1,1.2,0.3,1.8c0.2,1.1,0.4,2.1,0.7,3l0,0.1c0.1,0.7,0.2,1.3,0.3,2.1c0.4,2.2,1,4.3,1.7,6.3c-0.1,2.2,0.1,4.4,0.5,6.6
				c0.2,1,0.4,1.9,0.6,2.7c0.1,0.8,0.2,1.8,0.4,3c0.1,0.4,0.2,0.9,0.2,1.3c0,2.4,0.3,4.2,0.4,5.4l0.3,2.4
				c1.9,15.7,14.7,27.5,30.4,28.1c1.7,0.1,3.5,0,5.2-0.2c0.8-0.1,1.5-0.2,2.1-0.3c0.4,0,0.8-0.1,1.3-0.1c11.5-1.2,18.5-7,22.2-11.7
				c1-1.3,1.9-2.6,2.7-4c0.5-0.1,0.9-0.1,1.4-0.2c17.3-2.9,28.5-18.7,25.6-35.9C913.6,295.3,913.5,294.4,913.3,293.8z"/>
		</g>
		<g>
			<g>
				<path class="st1" d="M38,566.6c-0.7,0-1.2-0.1-1.9-0.1c-1.2,0-2,0.1-3.1,0.1c-2.3,0-2.2-1.1-2.2-2.2l0-1.9c0-1.1,0.2-1.9,0.2-3
					l0-1.9c0-2.4-0.1-4,0-6.4l0.1-5.8c0-1.9,0.2-3.1,0.2-5l0-3.2c0-0.8-0.1-1.4-0.1-2.2c0-1.5,1.1-1.6,2.1-1.6c1.1,0,1.9,0.1,3,0.1
					c0.9,0,1.5-0.1,2.5-0.1c1,0,1.1,1.2,1.1,1.8c0,0.8-0.1,1.3-0.2,2c-0.1,1.2,0,2,0,3.1l-0.1,7.3c0,1.1-0.1,1.8-0.1,2.9l0,2.3
					c0,1.9,0.1,3.1,0.1,5c0,1.4-0.2,2.4-0.2,3.8c0,1.3,0.2,2.2,0.1,3.5C39.4,565.7,39.3,566.6,38,566.6z"/>
				<path class="st1" d="M59.5,536.6c0.1,1.3,0.2,2.2,0.2,3.5c0,0.3,0.1,1.9-1.4,2c-0.6,0-1-0.2-1.7-0.1c-0.3,0-2.1,0.8-2.3,1.1
					c-1.4,1.3-1.9,4-1.6,7.3c0.2,2.9,1,4.7,2.3,5.7c0.1,0.1,2,1.3,3.2,1.3c0.5,0,0.8-0.2,1.3-0.3c0.1,0,0.6,0.1,1,0.5
					c0.2,0.3,0.3,0.5,0.3,1.1c0,0.9,0,1.5,0,2.3c0.1,1.2,0.2,2,0.3,3.2c0.1,2-1.4,2.1-2,2.1c-0.3,0-3.5,0.1-3.9,0
					c-0.1,0-2.6-0.3-4.2-1.3c-1.4-0.8-2.5-2.1-2.8-2.4c-0.2-0.2-1-1.1-1.2-1.3c-0.1-0.1-1.8-3-2.3-4.8c-0.2-0.9-0.4-2.4-0.5-3.3
					c-0.2-1.4-0.4-2.4-0.4-3.9c-0.2-3.6,0.5-7,0.8-8.2c0.2-0.5,0.8-2.9,2.8-4.7c0.2-0.2,3.1-2.4,3.2-2.5c1.4-0.9,4.1-1.4,5.6-1.5
					l0.3,0c1.1-0.1,2.9-0.3,3,1.6C59.6,535,59.5,535.7,59.5,536.6z"/>
				<path class="st1" d="M83.4,559c0.1,0.8,0.2,1.3,0.3,2.1c0.1,0.6,0.1,1.8-1.6,2.1c-0.7,0.1-1.1,0.1-1.8,0.2l-1.1,0.2
					c-1.1,0.2-1.9,0.2-3,0.3c-0.7,0.1-1.1,0.2-1.8,0.3l-5,0.7c-0.5,0.1-0.8,0.2-1.2,0.3c-0.6,0.1-2-0.1-2.2-1.7
					c-0.2-1.2-0.2-2.1-0.3-3.3c-0.2-1.1-0.3-1.9-0.5-3c-0.1-0.8-0.1-1.4-0.2-2.2c-0.1-0.8-0.3-1.3-0.4-2.1c-0.2-1.5-0.3-2.6-0.5-4.1
					c-0.2-1.4-0.5-2.7-0.7-4.1c-0.3-1.9-0.4-3.3-0.6-5.2c-0.2-1.3-0.4-2.3-0.6-3.6c-0.4-2.7-0.2-3.5,1.9-3.8
					c1.2-0.2,2.1-0.1,3.3-0.3c0.6-0.1,1.2-0.2,1.7-0.3c1.5-0.2,2.6-0.2,4.1-0.4c0.7-0.1,1.1-0.2,1.8-0.3l0.9-0.1
					c0.5-0.1,0.9-0.2,1.4-0.2c1.4-0.2,1.6,0.9,1.7,1.4c0.1,0.8,0.1,1.6,0.2,2.4c0.2,1.3,1,3.4-1.3,3.7l-0.5,0.1
					c-0.6,0.1-1,0.2-1.5,0.3c-0.7,0.1-1.3,0-2.1,0.1c-2.6,0.4-2.5,1.2-2.3,2.7c0.2,1.6,0.9,2.3,2,2.2c0.5-0.1,0.9-0.2,1.4-0.3l0.1,0
					c0.7-0.1,1.2-0.1,1.8-0.2c0.6-0.1,1-0.2,1.5-0.3c1.9-0.3,2,1,2.1,1.7c0.1,0.7,0.1,1.2,0.2,2c0.1,0.7,0.2,1.2,0.3,1.9
					c0.3,1.8-1.1,2.1-1.7,2.2c-1.4,0.2-2.4,0.1-3.9,0.4c-2.6,0.4-2.2,1.9-2,2.8l0.1,0.6c0,0.2,0.2,1.1,0.3,1.4
					c0.8,1.2,1.4,0.8,3.2,0.7c0.9,0,1.4,0,2.3-0.1c0.7-0.1,1.2-0.3,1.9-0.4c0.5-0.1,1.8,0,2,1.5C83.3,557.7,83.3,558.2,83.4,559z"/>
				<path class="st1" d="M108.9,526.7c0.4,1.3,0.6,2.1,1,3.3c0.1,0.3,0.6,1.8-1,2.2c-0.6,0.2-1.1,0-1.6,0.2
					c-0.3,0.1-1.8,1.2-2.1,1.5c-1.1,1.5-1,4.3,0,7.5c0.8,2.8,2,4.4,3.5,5.1c0.2,0.1,2.2,0.9,3.4,0.6c0.5-0.1,0.7-0.4,1.2-0.5
					c0.1,0,0.6-0.1,1.1,0.3c0.3,0.2,0.4,0.5,0.5,1c0.2,0.9,0.3,1.5,0.5,2.3c0.3,1.1,0.6,1.9,0.9,3c0.5,1.9-1,2.3-1.5,2.5
					c-0.3,0.1-3.4,0.8-3.8,0.9c-0.1,0-2.7,0.3-4.4-0.3c-1.6-0.5-2.9-1.5-3.3-1.8c-0.2-0.2-1.2-0.8-1.4-1.1c-0.1-0.1-2.4-2.5-3.3-4.2
					c-0.4-0.8-0.9-2.2-1.2-3.1c-0.5-1.4-0.9-2.3-1.3-3.7c-1-3.4-1.1-7-1-8.1c0.1-0.5,0.2-3,1.7-5.2c0.1-0.2,2.5-3,2.6-3.1
					c1.2-1.2,3.7-2.2,5.1-2.6l0.3-0.1c1.1-0.3,2.8-1,3.3,0.9C108.6,525.1,108.6,525.8,108.9,526.7z"/>
				<path class="st1" d="M141.5,545.7l-0.2,0.1c-0.7,0.3-1.3,0.4-2,0.7c-0.9,0.3-1.4,0.6-2.3,0.9c-0.5,0.2-0.8,0.4-1.3,0.6
					c-1.4,0.5-2-0.5-2.8-1.3c-0.8-0.9-1.6-1.4-2.4-2.2c-0.6-0.6-0.9-1-1.5-1.6s-1.1-1.1-1.6-0.9c-0.7,0.3-0.2,1.1-0.2,1.3
					c0.3,0.9,0.6,1.5,0.9,2.3c0.3,0.7,0.4,1.1,0.6,1.8c0.2,0.6,0.5,1,0.7,1.7c0.4,1-0.1,1.4-0.6,1.6c-0.9,0.4-1.6,0.5-2.6,0.8
					c-1.1,0.4-1.9,0.9-3,1.3c-1,0.4-1.7-0.1-2-1c-0.3-0.7-0.3-1.1-0.5-1.8c-0.4-1.1-0.6-1.9-1.1-3.1c-0.9-2.2-1.6-3.7-2.5-5.9
					c-0.9-2.2-1.3-3.9-2.2-6.1c-0.6-1.4-1-2.4-1.6-3.9c-0.6-1.5-0.9-2.7-1.5-4.2c-0.4-0.9-0.7-1.5-1-2.5c-0.3-0.9-0.5-2.4,1.5-3.1
					c0.9-0.4,1.6-0.5,2.5-0.9c2.2-0.8,3.7-1.6,6-2.4c2.5-1,6.2-1.9,9.5,0.8c0.2,0.2,0.6,0.5,0.7,0.8c0.3,0.3,0.7,0.6,1.2,1.3
					c0.7,0.9,2,3.8,2.3,4.8c0.3,0.7,1.9,4.5,0.6,8.4c-0.1,0.5-0.3,0.8-0.5,1.2c-0.1,0.3-0.3,0.5-0.4,0.8c0,0.1-0.1,0.3,0,0.5
					c0.2,0.6,3,2.9,3.6,3.4c0.5,0.5,0.8,0.9,1.4,1.4c0.9,0.8,1.6,1.3,2.4,2.2c0.1,0.2,0.3,0.4,0.5,0.8
					C142.7,545.3,141.6,545.7,141.5,545.7z M122.6,525.7l-0.2,0.1c-0.3,0.2-0.6,0.4-0.7,0.6c-0.3,0.6-0.2,1.2-0.2,1.3
					c0,0.2,1.2,3.7,1.3,3.9c0.4,1.1,1.4,1.9,2.7,1.4c0.6-0.2,1-0.6,1.1-0.9c0.5-0.9,0.1-2.4-0.5-4.1
					C125.7,526.9,124.4,525.1,122.6,525.7z"/>
				<path class="st1" d="M161.7,531.6c0.4,0.7,0.7,1.2,1,1.9c0.3,0.5,0.7,1.7-0.8,2.5c-0.6,0.3-1,0.5-1.6,0.8l-1,0.5
					c-1,0.5-1.8,0.8-2.8,1.3c-0.6,0.3-1,0.5-1.6,0.8l-4.5,2.2c-0.4,0.3-0.7,0.4-1.1,0.7c-0.5,0.3-1.9,0.6-2.6-0.9
					c-0.5-1.1-0.8-2-1.4-3c-0.5-1-0.9-1.7-1.4-2.7c-0.4-0.7-0.5-1.3-0.9-2c-0.4-0.7-0.7-1.2-1-1.9c-0.7-1.4-1.1-2.4-1.8-3.8
					c-0.6-1.3-1.3-2.4-2-3.7c-0.9-1.7-1.4-3-2.2-4.7c-0.6-1.2-1.1-2-1.7-3.2c-1.2-2.4-1.3-3.3,0.6-4.2c1.1-0.5,2-0.8,3.1-1.3
					c0.5-0.3,1-0.6,1.5-0.8c1.3-0.7,2.4-1,3.7-1.7c0.6-0.3,1-0.6,1.6-0.9l0.8-0.4c0.5-0.2,0.8-0.4,1.3-0.7c1.3-0.6,1.8,0.3,2.1,0.8
					c0.4,0.7,0.6,1.5,0.9,2.2c0.6,1.1,2,2.9-0.1,4l-0.5,0.2c-0.5,0.3-0.9,0.5-1.4,0.7c-0.7,0.3-1.2,0.4-1.9,0.8
					c-2.3,1.2-2,1.9-1.3,3.3c0.7,1.4,1.6,1.9,2.6,1.4c0.5-0.2,0.8-0.5,1.2-0.7l0.1,0c0.6-0.3,1.1-0.4,1.7-0.7
					c0.5-0.3,0.9-0.5,1.3-0.7c1.7-0.9,2.2,0.4,2.5,0.9c0.3,0.7,0.5,1.1,0.8,1.8c0.3,0.6,0.6,1,0.9,1.7c0.8,1.6-0.4,2.3-0.9,2.6
					c-1.3,0.7-2.3,0.9-3.6,1.6c-2.3,1.2-1.4,2.5-1,3.3l0.3,0.5c0.1,0.2,0.5,1,0.7,1.2c1.2,0.9,1.6,0.3,3.2-0.4
					c0.8-0.3,1.3-0.5,2.1-0.8c0.7-0.3,1.1-0.7,1.7-1c0.4-0.2,1.7-0.6,2.4,0.8C161.2,530.4,161.3,530.9,161.7,531.6z"/>
				<path class="st1" d="M185.8,521.6c-1,0.6-1.7,0.9-2.7,1.5c-0.8,0.5-1.3,0.9-2.1,1.4c-1.4,0.9-1.9-0.3-2.2-0.6
					c-0.3-0.3-1.7-2.5-2.3-2.6c-0.3-0.1-0.1,0-0.5,0c-0.1,0-1.6,0.9-2.6,1.5c-1.5,0.9-1.1,1.3-0.8,2.2c0.2,0.3,1.5,2.7,1.5,3.2
					c-0.1,0.5-0.2,0.8-0.8,1.2c-0.8,0.5-1.3,0.8-2.1,1.2c-0.8,0.5-1.6,1-2.4,1.5c-0.7,0.4-1.6,0.9-2.2-0.2c-0.2-0.3-0.5-1.2-0.9-2.1
					c-0.5-1.1-0.9-1.8-1.3-3c-0.4-1-0.7-1.8-1.1-2.8c-0.6-1.5-1.1-2.4-1.7-3.9c-0.6-1.4-0.9-2.5-1.6-3.9c-0.5-1-0.8-1.7-1.3-2.7
					c-0.5-1.2-0.7-2.1-1.2-3.3c-0.7-1.9-1.5-3.1-2.1-4.9c-0.4-1.2-0.7-2.4-0.6-3c0.2-0.6,0.6-1,1.5-1.5c1.4-0.8,2.4-1.3,3.8-2.1
					c1-0.6,2-1.3,3-1.9l0.2-0.1c1-0.6,1.5-0.7,2.3-0.3c0.1,0,0.4,0.3,0.5,0.4c0,0,3,3.2,3.1,3.3c1,1.1,1.6,2,2.6,3.2
					c1.2,1.4,2.1,2.3,3.4,3.7c1,1.1,1.8,1.8,2.8,3c1.3,1.5,2,2.6,3.2,4.1c1.9,2.2,4.5,4.8,4.9,5.3
					C186.1,519.2,187,520.8,185.8,521.6z M166.6,508.5c-0.5-0.6-1.1-1.4-1.2-1.4c-0.3-0.2-0.6-0.3-0.7-0.2c-0.1,0.1-0.2,0.4-0.1,0.6
					c0,0.2,0.6,1.7,0.7,1.9c0.2,0.6,0.3,1,0.5,1.5c0.2,0.3,1.7,3.8,1.8,4.1c0.8,1.2,1.4,1,2.1,0.6c0.5-0.3,1.5-0.9,0.6-2.4
					C169.1,511,167.1,509,166.6,508.5z"/>
				<path class="st1" d="M195.3,479.6c0.8,1,1.3,1.6,2.1,2.6c1.9,2.3,3.1,4.1,5,6.4l0.2,0.3c0.9,1.1,1.8,2.1,2.7,3.2
					c1.4,1.7,2.2,3,3.6,4.7c0.8,1,1.5,1.5,2.3,2.5c0.9,1.1,1.2,1.6,0.3,2.3c-1,0.8-1.8,1.2-2.7,2c-0.7,0.6-1.1,1-1.8,1.6
					c-1.2,0.9-2,0.3-2.4-0.2c-0.6-0.8-1-1.5-1.6-2.3l-0.8-1c-0.2-0.3-0.4-0.5-0.6-0.8c-0.4-0.5-0.7-0.7-1.1-1.3
					c-0.3-0.4-0.4-0.8-0.8-1.2c-0.6-0.8-1.2-1.3-1.9-2.1c-0.4-0.4-0.6-0.8-0.9-1.2c-0.2-0.2-0.3-0.3-0.5-0.5l-0.1-0.1
					c-0.1-0.1-0.1-0.2-0.3,0c-0.4,0.3,0.6,2.4,0.6,2.6c0,0,1.2,4.6,1.2,4.7c0,0.3,0.1,0.7-0.4,1c-0.1,0.1-0.6,0.5-0.8,0.5
					c-0.7,0.1-2.2-0.7-3.8-1.3c-0.4-0.1-0.7-0.2-1.1-0.4c-0.5-0.2-0.8-0.4-1.3-0.6c-0.6-0.3-1.6-0.8-1.8-0.6c-0.1,0.1,0,0.4,0.2,0.6
					l0.2,0.2c0.9,1.1,1.4,2,2.3,3.1c0.5,0.7,0.9,1.1,1.5,1.8c0.6,0.9,1.1,1.5,1.8,2.4l0.6,0.8c0.6,0.8,1.1,1.3,1.7,2
					c1,1.2,0.5,1.9-0.2,2.4c-0.6,0.5-1,0.8-1.6,1.2c-0.6,0.5-1.1,0.9-1.7,1.4c-0.3,0.2-0.5,0.5-0.7,0.7c-1.3,1.1-2,0.1-2.4-0.4
					c-0.5-0.6-0.8-1-1.2-1.6c-0.6-0.8-1-1.4-1.7-2.2c-1.4-1.8-2.6-2.9-4-4.7c-1.4-1.8-2.3-3.1-3.7-4.9c-1.4-1.7-2.4-2.8-3.8-4.6
					c-0.6-0.8-1-1.4-1.7-2.2c-1-1.3-1.9-2-3-3.3c-0.9-1.1,0.3-1.9,0.5-2.1c1.1-0.9,1.9-1.5,3-2.3c0.5-0.4,0.7-0.7,1.2-1
					c1.3-1.1,1.9-0.2,3.8,0.8c1.5,0.8,2.7,1.1,4.2,1.8c0.7,0.3,1.1,0.6,1.8,0.9c0.2,0.1,1.7,0.9,2.1,0.6c0.4-0.3-0.3-2.2-0.3-2.4
					c-0.2-1-0.3-1.8-0.6-2.8c-0.3-1-0.6-1.7-0.9-2.8c0,0-0.6-2.9-0.6-2.9c0-0.4,0-0.3,0.2-0.8c0-0.1,0.7-0.8,1.2-1.1
					c0.7-0.6,1.3-0.9,2-1.5c0.8-0.6,1.2-1.1,2-1.7c0.6-0.5,1.2-0.2,1.6,0.3C193.7,477.1,194.3,478.2,195.3,479.6z"/>
				<path class="st1" d="M226.4,484.6c-0.1,1.3-0.6,2.6-1.1,3.5c-0.7,1.3-2.6,3.4-3.6,4.4c-0.8,0.8-3.9,3.6-5.5,3.4
					c-0.5-0.1-0.6-0.2-1.1-0.6c-0.7-0.7-1.2-1.3-1.9-2c-0.6-0.6-1-0.9-1.6-1.4c-0.3-0.3-1.7-1.6-0.2-3c0.7-0.6,1-0.6,1.5-0.7
					c0.2,0,0.2,0,0.4,0c0.3-0.1,0.5,0,0.8-0.1c0.7-0.2,1.5-0.8,1.9-1.3c1.2-1.2,1.5-2.2,0.8-3c-1-1.2-3.1-0.8-4.7-0.8
					c-1.1,0-2,0-3.2,0c-0.4,0-1.6,0.1-2.8,0c-3.1-0.3-4.4-1.5-6.1-3.2c-5-5-4.7-9.4,0.1-14.1c2.2-2.2,4.5-4.7,6.1-3.1
					c0.7,0.7,1.2,1.3,1.9,2l0.1,0.1c0.5,0.5,0.8,0.7,1.3,1.2c0.3,0.3,1.4,1.4,0.1,2.7c-0.5,0.5-1.5,1-1.7,1.1
					c-0.4,0.2-0.9,0.5-1.6,1.2c-0.2,0.2-1.5,1.4-0.3,2.7c0.3,0.3,0.7,0.6,1.3,0.7c0.6,0.1,3.3,0,5.8-0.1c1,0,1.7-0.1,2.7,0
					c3.4,0.2,4.9,1,6.7,2.9C225.7,479.9,226.7,481.7,226.4,484.6z"/>
				<path class="st1" d="M230.8,443.3c-0.3,0.4-0.5,0.6-0.8,1c-0.8,1.1-0.6,1.8,0.9,2.9c1.3,1,2.2,1.5,3.5,2.5c1.5,1.2,2.5,2,4,3.2
					c1.4,1.1,2.4,1.7,3.8,2.8c0.8,0.6,1.5,1.2,2.3,1.8c0.7,0.5,1.2,0.9,1.9,1.3c0.4,0.3,0.8,0.4,1.2,0.7c1.2,0.9,0.4,2.1,0.2,2.4
					c-0.3,0.4-0.6,0.7-1,1.1c-0.5,0.6-0.8,1-1.3,1.6c-0.4,0.5-0.6,1-1,1.5c-0.6,0.8-1.3,1.1-2.5,0.1c-1.2-0.9-1.9-1.8-3.1-2.7
					c-1.2-0.9-2.1-1.4-3.2-2.3c-1.3-1-2.2-2-3.5-3c-1-0.7-1.7-1.1-2.7-1.9c-2.4-1.7-3.8-3.8-5.3-3.5c-0.3,0-0.4,0.2-0.5,0.2
					c-0.3,0.1-0.7,0.6-0.9,0.8c-0.2,0.3-0.4,0.5-0.6,0.8c-0.8,1-1.6,0.8-2.1,0.4c-0.9-0.7-1.5-1.3-2.5-2c-0.6-0.5-1.1-0.8-1.8-1.2
					c-0.9-0.7-1-1.3-0.3-2.3c0.7-0.9,1.2-1.4,1.8-2.2c1-1.3,1.8-2.6,2.8-3.9l0.3-0.4c0.8-1,1.4-1.7,2.3-2.8c0.5-0.7,0.8-1.2,1.3-1.8
					c1.1-1.5,2.2-0.6,3.2,0.1c0.7,0.6,1.2,1,1.9,1.5c0.5,0.4,0.9,0.6,1.4,1C230.7,441.4,231.7,442.2,230.8,443.3z"/>
				<path class="st1" d="M265,436.4c-0.4,0.7-0.8,1.1-1.3,1.8c-0.6,1-0.9,1.7-1.6,2.7c-0.8,1.3-1.9,0.6-2.3,0.4
					c-0.6-0.4-1-0.8-1.6-1.2c-0.4-0.2-0.7-0.4-1.1-0.6c-1.5-0.9-2.5-1.7-4-2.7c-2.4-1.5-3-0.5-3.8,0.7c-0.4,0.7-0.5,1.1-0.2,1.6
					c0.2,0.5,2.1,1.9,2.5,2.2c0.8,0.5,1.6,0.9,2.5,1.4c0.8,0.5,1.4,0.9,2.3,1.5c0.5,0.3,0.9,0.5,1.5,0.9c1,0.6,0.8,1.5,0.5,1.9
					c-0.5,0.8-1,1.4-1.5,2.2c-0.3,0.5-0.5,0.9-0.8,1.4c-0.2,0.3-0.3,0.6-0.5,0.9c-0.9,1.5-2.1,0.8-2.6,0.5c-1.1-0.7-1.7-1.3-2.8-2
					l-0.1-0.1c-1.2-0.7-2-1.3-3.2-2.1c-1.7-1.1-3.1-1.8-4.8-2.9c-1.4-0.9-2.4-1.7-3.8-2.6c-0.8-0.5-1.4-0.8-2.2-1.2
					c-1.1-0.6-1.9-1.1-3-1.8c-1-0.6-1.6-1.1-2.5-1.7c-0.9-0.6-1.6-0.8-2.6-1.4c-0.5-0.3-1.3-1-0.5-2.2c0.5-0.8,1-1.3,1.5-2.2
					c0.5-0.8,0.7-1.4,1.2-2.2c0.8-1.4,1.7-1.1,2.4-0.7c0.8,0.5,1.3,1.1,2.1,1.6c0.9,0.6,1.6,0.9,2.5,1.5c1,0.6,1.6,1.1,2.6,1.7
					l0.1,0.1c1.5,0.9,2,0.2,2.7-0.9c0.6-1,0.7-1.3,0.3-2c-0.2-0.3-2.1-1.6-2.3-1.8c-0.9-0.5-1.6-0.8-2.5-1.4c-0.5-0.3-1-0.7-1.4-1
					c-0.7-0.4-1.3-0.7-2-1.1c-1.3-0.8-0.8-1.9-0.5-2.4c0.5-0.9,1-1.4,1.6-2.3c0.4-0.7,0.6-1.3,1.1-2c1.1-1.7,2.4-0.7,2.8-0.5
					c1.5,0.9,2.5,1.8,4,2.8c0.4,0.3,0.7,0.4,1.2,0.7c0.8,0.5,1.2,0.9,2,1.4c1.3,0.8,2.2,1.3,3.4,2.1c1.5,1,2.6,1.8,4.1,2.7
					c1.9,1.2,3.3,1.8,5.1,2.9c0.9,0.6,1.5,1,2.4,1.6c0.8,0.5,1.5,0.7,2.3,1.2C265.4,434.8,265.5,435.7,265,436.4z"/>
				<path class="st1" d="M277.9,411.3c-0.5,1-1,1.7-1.5,2.7c-0.4,0.8-0.6,1.5-1,2.3c-0.7,1.5-1.8,0.7-2.2,0.6
					c-0.4-0.1-2.8-1.2-3.4-1c-0.3,0.1-0.1,0-0.4,0.2c-0.1,0.1-0.9,1.6-1.4,2.6c-0.8,1.6-0.3,1.7,0.5,2.3c0.3,0.2,2.7,1.5,2.9,1.9
					c0.2,0.5,0.3,0.8-0.1,1.5c-0.4,0.8-0.7,1.3-1.1,2.1c-0.4,0.8-0.8,1.7-1.2,2.5c-0.4,0.8-0.9,1.6-2,1c-0.3-0.2-1.1-0.7-1.9-1.3
					c-1-0.7-1.7-1.1-2.7-1.8c-0.9-0.6-1.5-1.1-2.4-1.8c-1.3-0.9-2.2-1.5-3.5-2.4c-1.3-0.9-2.1-1.6-3.4-2.5c-0.9-0.6-1.6-1-2.5-1.7
					c-1-0.8-1.8-1.4-2.8-2.2c-1.6-1.2-2.9-1.8-4.4-3.1c-1-0.8-1.9-1.7-2.1-2.2c-0.1-0.6,0-1.2,0.4-2.1c0.7-1.4,1.4-2.4,2.1-3.8
					c0.5-1.1,1-2.2,1.5-3.2l0.1-0.2c0.5-1.1,0.9-1.3,1.8-1.4c0.1,0,0.5,0,0.6,0c0,0,4.3,1.2,4.3,1.2c1.5,0.5,2.5,0.8,3.9,1.3
					c1.8,0.5,3,0.9,4.8,1.3c1.4,0.4,2.5,0.6,3.9,1.1c1.9,0.6,3.1,1.2,4.9,1.8c2.8,0.8,6.3,1.7,6.9,1.9
					C276.9,409.1,278.5,410.1,277.9,411.3z M254.7,410.3c-0.7-0.2-1.6-0.6-1.8-0.6c-0.3-0.1-0.6,0.1-0.7,0.2
					c-0.1,0.1,0.1,0.4,0.3,0.5c0.2,0.2,1.4,1.1,1.6,1.2c0.4,0.4,0.8,0.7,1.2,1c0.3,0.2,3.4,2.4,3.7,2.5c1.3,0.6,1.7,0.1,2.1-0.6
					c0.3-0.5,0.8-1.6-0.7-2.3C258.1,411.2,255.3,410.5,254.7,410.3z"/>
				<path class="st1" d="M261.8,384.4c-0.2,0.4-0.3,0.7-0.5,1.2c-0.5,1.3-0.1,1.9,1.7,2.6c1.5,0.6,2.5,0.8,4,1.4
					c1.8,0.7,3,1.3,4.8,2c1.6,0.6,2.8,1,4.4,1.6c0.9,0.4,1.8,0.8,2.7,1.1c0.8,0.3,1.4,0.5,2.2,0.7c0.5,0.1,0.8,0.2,1.3,0.4
					c1.4,0.5,1,1.8,0.8,2.2c-0.2,0.5-0.4,0.9-0.6,1.4c-0.3,0.7-0.5,1.2-0.8,1.9c-0.2,0.6-0.3,1.1-0.6,1.7c-0.4,0.9-0.9,1.4-2.4,0.8
					c-1.4-0.6-2.3-1.2-3.8-1.7c-1.4-0.5-2.4-0.8-3.7-1.3c-1.6-0.6-2.6-1.3-4.2-1.9c-1.1-0.4-2-0.6-3.1-1c-2.7-1-4.7-2.6-6.1-1.9
					c-0.3,0.1-0.4,0.3-0.4,0.3c-0.3,0.2-0.5,0.8-0.6,1c-0.1,0.3-0.2,0.6-0.3,0.9c-0.5,1.2-1.4,1.2-1.9,1c-1.1-0.4-1.8-0.8-2.9-1.2
					c-0.7-0.3-1.3-0.4-2-0.7c-1.1-0.4-1.3-1-0.9-2.1c0.4-1,0.8-1.7,1.1-2.7c0.6-1.5,1-3,1.6-4.5l0.2-0.5c0.5-1.2,0.9-2.1,1.4-3.3
					c0.3-0.8,0.4-1.3,0.7-2.1c0.7-1.7,1.9-1.2,3.1-0.8c0.9,0.3,1.4,0.6,2.3,0.9c0.6,0.2,1,0.3,1.6,0.6
					C261.1,382.6,262.3,383.1,261.8,384.4z"/>
				<path class="st1" d="M270.2,342.4c1.2,0.3,2,0.4,3.3,0.7c2.9,0.6,5,1.2,7.9,1.8l0.4,0.1c1.4,0.3,2.8,0.5,4.1,0.8
					c2.2,0.5,3.6,0.9,5.7,1.4c1.2,0.3,2.1,0.3,3.3,0.5c1.4,0.3,2,0.5,1.7,1.6c-0.3,1.2-0.6,2.1-0.9,3.3c-0.2,0.9-0.2,1.5-0.4,2.4
					c-0.3,1.5-1.3,1.5-2,1.3c-1-0.2-1.7-0.6-2.7-0.8l-1.2-0.3c-0.4-0.1-0.6-0.2-1-0.3c-0.6-0.1-1-0.1-1.6-0.3
					c-0.5-0.2-0.8-0.3-1.4-0.4c-1-0.2-1.8-0.2-2.8-0.5c-0.5-0.1-0.9-0.2-1.4-0.4c-0.3-0.1-0.5-0.1-0.7-0.1l-0.2,0
					c-0.1,0-0.2,0-0.3,0.2c-0.1,0.5,1.9,1.5,2.1,1.6c0,0,3.8,2.9,3.9,2.9c0.2,0.2,0.5,0.5,0.3,1c0,0.2-0.2,0.7-0.3,0.9
					c-0.5,0.5-2.2,0.8-3.8,1.4c-0.4,0.1-0.7,0.3-1.1,0.4c-0.5,0.2-0.9,0.2-1.4,0.3c-0.7,0.1-1.8,0.4-1.8,0.6c0,0.1,0.3,0.3,0.5,0.3
					l0.3,0.1c1.4,0.3,2.4,0.7,3.8,1c0.8,0.2,1.4,0.3,2.3,0.4c1,0.3,1.8,0.5,2.9,0.7l1,0.2c1,0.2,1.7,0.3,2.6,0.5
					c1.6,0.3,1.5,1.2,1.4,1.9c-0.2,0.7-0.3,1.2-0.5,2c-0.2,0.8-0.3,1.3-0.4,2.1c-0.1,0.4,0,0.7-0.1,1c-0.4,1.6-1.5,1.4-2.1,1.2
					c-0.7-0.2-1.2-0.3-2-0.5c-1-0.3-1.7-0.5-2.7-0.7c-2.2-0.5-3.8-0.6-6-1.1c-2.2-0.5-3.8-1-6-1.4c-2.2-0.5-3.6-0.7-5.8-1.2
					c-1-0.2-1.7-0.5-2.7-0.7c-1.6-0.4-2.8-0.4-4.4-0.7c-1.4-0.3-1-1.7-0.9-1.9c0.3-1.4,0.6-2.3,0.8-3.7c0.1-0.6,0.2-1,0.3-1.6
					c0.4-1.6,1.3-1.3,3.5-1.7c1.7-0.3,2.8-0.8,4.4-1.3c0.7-0.2,1.2-0.3,1.9-0.4c0.2-0.1,1.9-0.4,2-0.8c0.1-0.5-1.6-1.5-1.7-1.7
					c-0.8-0.7-1.3-1.2-2.2-1.8c-0.9-0.6-1.6-1-2.4-1.6c0,0-2.3-1.8-2.3-1.9c-0.2-0.3-0.2-0.2-0.4-0.7c0-0.1,0.1-1,0.2-1.6
					c0.2-0.9,0.4-1.5,0.6-2.5c0.2-1,0.3-1.6,0.5-2.6c0.2-0.8,0.8-0.9,1.5-0.8C267.3,341.5,268.5,342,270.2,342.4z"/>
				<path class="st1" d="M299.8,321.3c-0.1,1.1-0.3,1.9-0.4,3c-0.1,0.9-0.1,1.6-0.2,2.5c-0.2,1.7-1.4,1.3-1.9,1.4
					c-0.4,0-3-0.2-3.5,0.2c-0.3,0.2-0.1,0.1-0.3,0.3c-0.1,0.1-0.3,1.9-0.4,2.9c-0.2,1.8,0.3,1.7,1.3,2c0.4,0.1,3,0.4,3.4,0.8
					c0.4,0.4,0.5,0.7,0.5,1.4c-0.1,0.9-0.2,1.5-0.3,2.4c-0.1,0.9-0.1,1.9-0.2,2.8c-0.1,0.8-0.3,1.8-1.5,1.6c-0.4,0-1.2-0.3-2.2-0.6
					c-1.2-0.3-2-0.4-3.2-0.8c-1.1-0.3-1.8-0.6-2.8-0.8c-1.5-0.4-2.6-0.6-4.1-1c-1.5-0.4-2.5-0.8-4-1.1c-1.1-0.2-1.8-0.4-3-0.7
					c-1.2-0.4-2.1-0.7-3.4-1.1c-1.9-0.6-3.3-0.7-5.2-1.4c-1.2-0.4-2.4-0.9-2.7-1.4c-0.3-0.5-0.4-1.1-0.3-2.1
					c0.2-1.6,0.5-2.7,0.6-4.3c0.1-1.2,0.2-2.4,0.3-3.6l0-0.2c0.1-1.2,0.3-1.6,1.2-2c0.1-0.1,0.5-0.1,0.6-0.2c0,0,4.4-0.4,4.5-0.4
					c1.5-0.1,2.6-0.1,4.1-0.2c1.9-0.1,3.1-0.3,5-0.4c1.5-0.1,2.6-0.3,4-0.4c1.9-0.1,3.3,0,5.2,0c2.9-0.2,6.5-0.7,7.2-0.6
					C298.1,319.6,299.9,319.9,299.8,321.3z M277.7,328.4c-0.8,0-1.7,0-1.9,0.1c-0.3,0.1-0.5,0.3-0.6,0.4c0,0.1,0.2,0.3,0.4,0.4
					c0.2,0.1,1.7,0.5,1.9,0.6c0.5,0.2,1,0.4,1.5,0.5c0.4,0.1,4,1,4.4,1c1.4,0.1,1.7-0.5,1.7-1.3c0.1-0.6,0.2-1.8-1.5-1.9
					C281.2,328,278.4,328.4,277.7,328.4z"/>
				<path class="st1" d="M300.9,296.8c-0.1,0.7-0.1,1.3-0.2,2c-0.1,1.2-0.1,2-0.1,3.2c-0.1,1.5-1.3,1.4-3.2,1.8
					c-1.9,0.4-3.3,0.9-5.2,1.4c-0.6,0.2-1,0.3-1.6,0.4c-0.7,0.2-1.7,0.5-1.7,0.8c0,0.3,0.4,0.4,0.7,0.4l4.2,0.3
					c1,0.1,1.7,0.1,2.7,0.1c0.8,0,1.3,0,2.1,0c1.4,0.1,1.7,0.5,1.6,1.9c-0.1,0.8-0.2,1.4-0.2,2.3c-0.1,0.9-0.1,1.5-0.1,2.3
					c0,0.4,0,0.7,0,1.1c-0.1,0.7-0.5,1.2-1.3,1.2c-1.3-0.1-2.2-0.3-3.4-0.4c-1.1-0.1-2.2-0.1-3.2-0.1c-1.2,0-2.4-0.3-3.5-0.4
					c-1.5-0.1-2.6-0.1-4.1-0.2c-2.2-0.2-3.8-0.2-6.1-0.4c-1.9-0.1-3.2-0.4-5-0.5c-1.8-0.1-3,0-4.7-0.2c-0.7-0.1-1.7-0.1-1.6-1.2
					l0.1-1.3c0-0.7,0.1-1.3,0.2-2c0.1-1,0-1.6,0.1-2.6c0-0.6,0-1.6,1.6-1.4c0.9,0.1,1.5,0.3,2.4,0.4c0.8,0.1,1.5,0,2.4,0.1
					c0.7,0,1.1,0.1,1.8,0.2c0.4,0,0.8,0,0.8-0.2c0-0.2-0.2-0.4-0.3-0.4c0-0.1-5.7-3-5.7-3.1c-0.7-0.4-1.9-0.9-2-0.9
					c-0.1-0.1-0.3-0.2-0.4-0.4c-0.2-0.3-0.2-0.7-0.2-1c0-0.5,0.1-0.7,0.2-1.2c0.1-0.6,0.2-1,0.2-1.6c0.1-1.2,0-2.1,0.1-3.4l0-0.1
					c0-0.6,0.4-1.1,1-1.1c0.9,0.1,2.2,1.1,3,1.5c1,0.5,1.7,0.8,2.7,1.4c1,0.6,1.7,1.2,2.7,1.8c0.6,0.4,1,0.5,1.7,0.9
					c1.4,0.8,2,1.5,2.8,1.5c0.4,0,1.7-0.5,3-1c1.4-0.5,2.4-0.7,3.8-1.1c0.9-0.2,1.4-0.5,2.3-0.7c1.7-0.5,2.9-0.9,4.6-1.4
					c2.3-0.6,3.3-1.4,4.4-1.3C301.2,294.3,301,295.3,300.9,296.8z"/>
				<path class="st1" d="M300.4,274.1c0.8,0.1,1.4,0.2,2.1,0.3c0.6,0.1,1.8,0.5,1.5,2.1c-0.1,0.6-0.2,1.1-0.3,1.8l-0.2,1.1
					c-0.2,1.1-0.4,1.9-0.6,3c-0.1,0.6-0.1,1.1-0.2,1.8l-0.8,5c0,0.5,0,0.8-0.1,1.3c-0.1,0.6-0.6,1.8-2.2,1.6
					c-1.2-0.2-2.1-0.5-3.3-0.7c-1.1-0.2-1.9-0.2-3-0.4c-0.8-0.1-1.4-0.4-2.2-0.5c-0.8-0.1-1.4-0.1-2.1-0.2c-1.5-0.2-2.6-0.5-4.1-0.7
					c-1.4-0.2-2.7-0.3-4.1-0.6c-1.9-0.3-3.2-0.6-5.1-0.9c-1.3-0.2-2.3-0.3-3.6-0.5c-2.7-0.4-3.4-0.9-3.1-3c0.2-1.2,0.5-2.1,0.7-3.3
					c0.1-0.6,0.1-1.2,0.2-1.7c0.2-1.5,0.5-2.5,0.8-4c0.1-0.6,0.1-1.1,0.2-1.8l0.1-0.9c0.1-0.5,0.1-0.9,0.2-1.4
					c0.2-1.4,1.3-1.3,1.8-1.2c0.8,0.1,1.6,0.4,2.3,0.5c1.3,0.2,3.6,0,3.2,2.4l-0.1,0.5c-0.1,0.6-0.1,1-0.2,1.5
					c-0.1,0.7-0.3,1.2-0.5,2c-0.4,2.5,0.4,2.8,2,3s2.5-0.2,2.7-1.2c0.1-0.5,0-0.9,0.1-1.4l0-0.1c0.1-0.7,0.3-1.1,0.4-1.8
					c0.1-0.6,0.1-1,0.2-1.5c0.3-1.9,1.6-1.6,2.2-1.5c0.7,0.1,1.2,0.2,1.9,0.4c0.7,0.1,1.2,0.1,1.9,0.2c1.8,0.3,1.7,1.6,1.6,2.2
					c-0.2,1.4-0.6,2.4-0.8,3.8c-0.4,2.5,1.2,2.6,2.1,2.8l0.6,0.1c0.2,0,1.1,0.2,1.4,0.1c1.4-0.4,1.2-1.1,1.6-2.8
					c0.2-0.8,0.4-1.4,0.5-2.2c0.1-0.7,0.1-1.3,0.2-2c0.1-0.5,0.5-1.7,2-1.5C299.1,273.8,299.6,274,300.4,274.1z"/>
				<path class="st1" d="M284.2,231.9c0.3,0.1,4,2.6,6.3,4.3c0.4,0.3,0.8,0.6,1.2,0.9c1.6,1.2,2.8,1.9,4.4,3.2
					c2.3,1.8,2.8,2.9,5.3,3.6c0.9,0.3,1.5,0.4,2.4,0.7c0.9,0.3,1.6,0.6,2.5,0.9c1.1,0.3,2,0.5,3.1,0.8c0.5,0.1,1.3,0.4,1.6,1.2
					c0.1,0.2-0.1,0.9-0.1,1c-0.1,0.5-0.3,0.8-0.4,1.3c-0.2,0.7-0.3,1.2-0.5,1.9l-0.5,1.6c-0.6,2-2.2,1.1-3.3,0.8l-0.1,0
					c-0.3-0.1-0.6-0.2-0.8-0.3c-0.5-0.1-0.9-0.2-1.3-0.3c-0.8-0.2-1.3-0.6-2.1-0.8c-0.9-0.3-1.5-0.3-2.4-0.6
					c-0.9-0.3-1.5-0.5-2.4-0.6c-0.2,0-5,0.1-7.8,0.4c-1.5,0.1-2.5,0.4-4,0.5c-2,0.1-3.5,0.1-5.5,0.2c-0.9,0.1-1.6,0.2-2.6,0.2
					c-0.3,0-0.6,0-0.8-0.1c-1.3-0.4-0.7-1.7-0.7-1.9c0.2-0.7,0.5-1.3,0.7-2c0.4-1.2,0.6-2.1,0.9-3.3c0.2-0.7,0.4-0.9,0.9-1.1
					c0.9-0.5,4.7,0,5.4,0c1.4,0.1,2.2,0,3.6,0.1c0.6,0,1.6,0.1,1.7-0.1c0.1-0.4-0.6-0.6-1.1-0.9c-0.8-0.5-1.4-0.8-2.1-1.3
					c-0.4-0.3-0.6-0.5-1-0.7c-0.6-0.4-1-0.6-1.7-1c-0.4-0.2-2.1-1.1-2.5-1.4c-0.4-0.5-0.6-0.5-0.8-1.2c-0.1-0.3,0.2-1,0.2-1.2
					c0.2-0.8,0.5-1.3,0.7-2c0.2-0.8,0.3-1.4,0.5-2.2c0.3-0.9,0.7-1.9,1.9-1.5C283.4,231.4,284.2,231.9,284.2,231.9z"/>
				<path class="st1" d="M314.6,217.3c0.2,0.1,1.6,1,2.4,1.9c1,1.1,1.8,2.7,2.1,4.2c0,0.4,0,0.9,0,1.6c-0.1,1.7-0.3,2.6-0.9,4
					c-1,2.6-3.1,6.3-6.9,7.2c-1.2,0.3-3.9,0.1-4.9-0.1c-0.9-0.2-3.8-1.1-4.6-1.4c-1.2-0.5-2-0.9-3.2-1.3c-0.9-0.4-1.6-0.6-2.5-0.9
					c-6.2-2.4-9.4-4.1-10.6-8.3c-0.6-2.3-0.6-3.7,0.7-6.9l0.1-0.3c0.6-1.5,1.4-3,2.6-4.1c0.6-0.6,2.9-2.1,3.8-2.4
					c2.5-0.9,6.2-0.2,10.9,1.6C309.6,214.5,311.8,215.1,314.6,217.3z M301.5,220.6c-0.8-0.2-1.3-0.6-2.1-0.9c-0.7-0.3-3.2-1.1-4-1
					c-0.6,0.1-1.4,0.3-1.7,1.2c0,0.1-0.1,0.2-0.1,0.3c-0.1,0.3-0.1,0.6-0.1,0.9c0.3,1.1,1.2,1.7,2.7,2.3c1.2,0.5,2.1,0.7,3.3,1.2
					c2.3,0.9,3.9,1.7,6.2,2.6c1.1,0.4,4,1.8,4.9-0.5c0.8-2-1.1-2.8-2.2-3.3c-0.7-0.3-1.3-0.5-2.1-0.8c-1-0.5-1.7-0.9-2.8-1.3
					C302.8,221.1,302.3,220.9,301.5,220.6z"/>
				<path class="st1" d="M306.9,182.9c1.1,0.7,2,1.1,3.1,1.7c1.2,0.6,2.1,0.9,3.3,1.5c1.6,0.7,2.5,1.4,4.1,2.2c2,1,3.3,1.6,5.3,2.6
					c0.9,0.5,1.5,0.9,2.5,1.4c0.6,0.4,4.7,2,5.1,7c0,0.7,0.1,1.9-0.3,3.3c-0.4,1.5-1.7,3.8-1.7,3.9c-1.4,2.7-2.9,3.8-4.2,4.6
					c-0.9,0.6-1.3,0.8-2,1c-0.6,0.2-1.5,0.2-2,0.2c-1.3-0.1-3.3-0.9-4.4-1.4c-1.8-0.9-2.9-1.6-4.7-2.5c-2.4-1.2-4.2-1.9-6.6-3.1
					c-1.4-0.7-2.3-1.3-3.7-2c-1.5-0.8-2.6-1.3-4.1-2.1c-1.7-0.9-2.6-1.5-1.9-2.8c0.5-1,1-1.6,1.5-2.6c0.3-0.5,0.4-1,0.6-1.5
					c0.5-0.9,1-2.1,2.5-1.4c1.3,0.7,2.2,1.3,3.5,1.9c0.8,0.4,1.3,0.6,2.1,1c0.7,0.4,1.2,0.7,1.9,1l1.3,0.7c1.3,0.7,2.5,1.4,3.8,2.1
					c1,0.5,1.7,0.8,2.7,1.3c1,0.5,2,1.1,3,1.6l0.2,0.1c1,0.5,2.8,1.4,3.6-0.3c0.2-0.4,0.3-1,0.3-1.1c-0.1-1.4-1-1.9-2.8-2.8
					c-2.1-1.1-3.5-1.9-5.6-2.9c-1.8-0.9-3.1-1.4-4.9-2.3c-1.6-0.8-2.6-1.5-4.2-2.3c-0.5-0.3-1.1-0.5-1.7-0.8c-1-0.5-3-1.2-2.1-3
					c0.5-1,1-1.6,1.4-2.5c0.4-0.8,0.6-1.4,1-2.3c0.7-1.3,2-0.7,2.3-0.5C305.9,182.2,306.3,182.5,306.9,182.9z"/>
				<path class="st1" d="M410.5,88.4c0.6,1.2,2.2,3.3,1.7,7.7c-0.3,1.8-0.9,4.1-3.6,6c-0.4,0.3-0.8,0.5-1.2,0.8l-0.1,0.1
					c-0.5,0.4-1.6,1.1-0.6,2.6c0.3,0.5,0.7,0.8,1,1.3c0.4,0.5,0.6,0.9,1.1,1.5c0.3,0.4,0.6,0.6,0.9,1.1c0.3,0.5,0.9,1.3-0.3,2.2
					c-0.9,0.6-1.6,1-2.5,1.6c-0.8,0.6-1.3,1.1-2.2,1.7c-0.8,0.5-1.3,0.5-2.2-0.7c-0.3-0.4-0.5-0.8-0.7-1.2c-0.3-0.5-0.6-0.7-0.9-1.2
					c-0.4-0.7-0.6-1.2-1.1-1.9c-0.8-1.1-1.6-2.1-2.4-3.2c-1-1.5-1.7-2.6-2.7-4c-0.8-1.2-1.7-2.3-2.5-3.5c-1.4-2-2.3-3.4-3.7-5.4
					c-1-1.4-1.8-2.3-2.8-3.8c-1-1.5-0.4-2.5,0.8-3.3c0.5-0.3,1.1-0.6,1.5-0.9c0.7-0.5,1.3-1,2-1.5c0.5-0.3,1-0.6,1.4-0.9
					c0.7-0.4,1.2-0.9,1.9-1.4c3.4-2.5,6.3-2.8,8.7-2c1.4,0.5,2,1.1,2.4,1.4c1.1,0.8,2.3,1.5,3.9,3.7
					C409.1,85.9,409.5,86.6,410.5,88.4z M402,91.4c-0.3-0.5-0.5-0.8-0.8-1.3c-1.2-1.7-2.7-2-3.7-1.3l-0.2,0.1
					c-0.2,0.2-0.4,0.4-0.5,0.7c-0.3,0.7,0.1,1.7,0.9,2.8l1.7,2.4c1,1.5,2.5,1.7,3.3,1.1c0.3-0.2,0.5-0.6,0.7-1
					c0.2-0.7,0.2-1.4-0.5-2.4C402.6,92.1,402.4,91.8,402,91.4z"/>
				<path class="st1" d="M440,92.5c-1,0.6-1.7,0.8-2.7,1.4c-0.8,0.5-1.3,0.9-2.2,1.3c-1.5,0.8-1.9-0.4-2.2-0.7
					c-0.3-0.3-1.6-2.6-2.2-2.7c-0.3-0.1-0.1,0-0.5-0.1c-0.1,0-1.7,0.9-2.6,1.4c-1.5,0.9-1.2,1.2-0.8,2.2c0.1,0.3,1.4,2.7,1.4,3.2
					c-0.1,0.5-0.2,0.8-0.9,1.2c-0.8,0.4-1.3,0.7-2.1,1.2c-0.8,0.5-1.6,1-2.4,1.4c-0.7,0.4-1.6,0.8-2.2-0.3c-0.2-0.3-0.5-1.2-0.8-2.1
					c-0.4-1.2-0.8-1.9-1.2-3c-0.4-1-0.6-1.8-1-2.8c-0.5-1.5-1-2.4-1.5-3.9c-0.6-1.5-0.8-2.5-1.4-3.9c-0.4-1-0.8-1.7-1.2-2.8
					c-0.4-1.2-0.6-2.2-1.1-3.4c-0.7-1.9-1.4-3.1-1.9-5c-0.4-1.2-0.6-2.4-0.5-3c0.2-0.6,0.6-1,1.5-1.5c1.4-0.8,2.5-1.2,3.8-2
					c1-0.6,2.1-1.2,3.1-1.8l0.2-0.1c1.1-0.6,1.5-0.6,2.3-0.2c0.1,0,0.4,0.3,0.5,0.4c0,0,2.9,3.4,2.9,3.4c1,1.2,1.6,2.1,2.5,3.3
					c1.2,1.4,2,2.4,3.3,3.8c1,1.1,1.7,1.9,2.6,3.1c1.2,1.5,1.9,2.7,3.1,4.2c1.8,2.2,4.3,4.9,4.7,5.5C440.4,90.2,441.2,91.8,440,92.5
					z M421.4,78.7c-0.5-0.6-1-1.4-1.2-1.5c-0.2-0.2-0.5-0.3-0.7-0.2c-0.1,0.1-0.2,0.4-0.1,0.6c0,0.3,0.5,1.7,0.6,1.9
					c0.2,0.6,0.2,1,0.4,1.5c0.1,0.3,1.5,3.9,1.7,4.2c0.7,1.3,1.4,1,2.1,0.7c0.5-0.3,1.5-0.9,0.7-2.4
					C423.8,81.4,421.8,79.2,421.4,78.7z"/>
				<path class="st1" d="M450.4,55.3c0.5,1.2,0.8,2.1,1.4,3.3c0.5,1.2,1.1,2,1.6,3.2c0.8,1.6,1.1,2.7,1.8,4.3c0.9,2,1.6,3.3,2.5,5.3
					c0.4,0.9,0.7,1.7,1.1,2.7c0.2,0.7,2.5,4.5-0.4,8.6c-0.4,0.5-1.1,1.6-2.3,2.4c-1.2,0.9-3.7,2-3.7,2c-2.8,1.3-4.6,1.2-6.2,1
					c-1.1-0.1-1.5-0.2-2.2-0.5c-0.6-0.3-1.3-0.8-1.7-1.1c-1-0.9-2-2.8-2.5-3.8c-0.9-1.8-1.3-3.1-2.1-4.9c-1.1-2.4-2.1-4.1-3.2-6.5
					c-0.6-1.4-1-2.5-1.7-3.9c-0.7-1.5-1.2-2.6-1.9-4.2c-0.8-1.8-1.2-2.8,0.2-3.4c1-0.5,1.8-0.6,2.8-1.1c0.6-0.3,0.9-0.5,1.4-0.7
					c0.9-0.4,2.1-1,2.8,0.5c0.6,1.3,0.9,2.4,1.5,3.7c0.4,0.8,0.6,1.3,1,2.1c0.3,0.7,0.5,1.3,0.9,2l0.6,1.4c0.6,1.3,1.1,2.7,1.7,4
					c0.5,1,0.8,1.7,1.3,2.7c0.5,1,0.9,2.1,1.4,3.1l0.1,0.2c0.4,1,1.3,2.8,3,2c0.4-0.2,0.8-0.6,0.9-0.7c0.8-1.2,0.4-2.1-0.5-4
					c-1-2.1-1.6-3.7-2.6-5.8c-0.9-1.8-1.6-3-2.4-4.8c-0.7-1.6-1.1-2.7-1.8-4.4c-0.3-0.6-0.5-1.1-0.8-1.6c-0.4-1-1.6-2.8,0.2-3.7
					c1-0.4,1.7-0.6,2.7-1.1c0.8-0.4,1.4-0.7,2.2-1.1c1.4-0.6,2,0.7,2.1,1C450,54.1,450.2,54.6,450.4,55.3z"/>
				<path class="st1" d="M479.3,74.1c-0.7,1.1-1.7,2.1-2.5,2.7c-1.2,0.9-3.8,1.9-5.1,2.4c-1,0.4-5.1,1.6-6.4,0.7
					c-0.4-0.3-0.5-0.4-0.7-1c-0.3-1-0.5-1.7-0.8-2.6c-0.3-0.8-0.5-1.2-0.8-2c-0.2-0.4-0.9-2.1,1.1-2.8c0.9-0.3,1.1-0.1,1.7,0
					c0.2,0,0.2,0.1,0.4,0.2c0.3,0.1,0.5,0.2,0.7,0.2c0.7,0.2,1.7-0.1,2.3-0.3c1.5-0.5,2.3-1.3,2-2.4c-0.4-1.5-2.4-2.1-3.9-2.7
					c-1-0.5-1.8-0.9-2.8-1.4c-0.3-0.1-1.5-0.6-2.6-1.2c-2.6-1.6-3.3-3.2-4.1-5.5c-2.4-6.6-0.2-10.5,6.1-12.7c2.9-1,6.1-2.3,6.8-0.2
					c0.3,1,0.5,1.7,0.8,2.6l0.1,0.2c0.2,0.6,0.4,1,0.6,1.6c0.2,0.4,0.6,1.9-1,2.5c-0.7,0.3-1.8,0.2-2,0.2c-0.5,0-1,0.1-1.9,0.4
					c-0.3,0.1-2,0.6-1.4,2.3c0.2,0.4,0.4,0.8,0.9,1.2c0.5,0.4,2.9,1.4,5.2,2.4c0.9,0.4,1.6,0.6,2.4,1.1c3,1.6,4,3,4.8,5.5
					C480.7,69.5,480.8,71.6,479.3,74.1z"/>
				<path class="st1" d="M501.7,65.6c0.2,0.8,0.4,1.3,0.6,2.1c0.1,0.5,0.3,1.8-1.3,2.2c-0.6,0.2-1.1,0.2-1.7,0.4l-1.1,0.3
					c-1.1,0.3-1.9,0.4-3,0.7c-0.6,0.2-1.1,0.3-1.7,0.5l-4.9,1.3c-0.4,0.2-0.7,0.3-1.2,0.4c-0.5,0.1-1.9,0.2-2.4-1.4
					c-0.3-1.2-0.4-2.1-0.7-3.3c-0.3-1.1-0.5-1.8-0.8-2.9c-0.2-0.8-0.2-1.4-0.4-2.2c-0.2-0.8-0.4-1.3-0.6-2.1c-0.4-1.5-0.6-2.6-1-4.1
					c-0.4-1.4-0.8-2.7-1.2-4c-0.5-1.8-0.8-3.2-1.2-5.1c-0.3-1.3-0.7-2.2-1-3.5c-0.7-2.6-0.6-3.5,1.5-4c1.2-0.3,2.1-0.4,3.3-0.7
					c0.5-0.1,1.1-0.3,1.7-0.5c1.5-0.4,2.5-0.5,4-0.9c0.6-0.2,1.1-0.4,1.7-0.5l0.9-0.2c0.5-0.1,0.8-0.3,1.4-0.4
					c1.4-0.4,1.7,0.7,1.9,1.2c0.2,0.8,0.3,1.6,0.5,2.3c0.3,1.2,1.4,3.3-0.9,3.9l-0.5,0.1c-0.5,0.1-0.9,0.3-1.5,0.4
					c-0.7,0.2-1.3,0.2-2,0.4c-2.5,0.7-2.4,1.5-2,3c0.4,1.5,1.2,2.2,2.2,1.9c0.5-0.1,0.8-0.3,1.3-0.5l0.1,0c0.7-0.2,1.2-0.2,1.8-0.4
					c0.5-0.1,0.9-0.3,1.4-0.4c1.9-0.5,2.1,0.8,2.3,1.4c0.2,0.7,0.3,1.2,0.5,1.9c0.2,0.7,0.3,1.1,0.5,1.8c0.5,1.8-0.8,2.2-1.4,2.4
					c-1.4,0.4-2.4,0.4-3.8,0.8c-2.5,0.7-1.9,2.1-1.7,3.1l0.1,0.5c0.1,0.2,0.3,1.1,0.5,1.3c1,1.1,1.5,0.6,3.2,0.3
					c0.8-0.1,1.4-0.2,2.2-0.4c0.7-0.2,1.2-0.5,1.9-0.6c0.5-0.1,1.7-0.2,2.2,1.2C501.5,64.3,501.5,64.8,501.7,65.6z"/>
				<path class="st1" d="M504.4,62.1l0-0.1c-0.2-0.8,0.2-1.4,1.2-1.6l0.1,0l0.4,0l0.5-0.1l1.1-0.2c0.3-0.1,0.4-0.1,0.5-0.1
					c0.2,0,0.3-0.1,0.4-0.1c0.2-0.1,0.3-0.1,0.4-0.1l0.3,0l0.2,0l0.3-0.1c0.8-0.2,1.2-0.1,1.5,0.2c0.3,0.2,0.6,0.5,0.7,0.7
					c0,0.2,0.2,0.5,0.3,1.4l0.1,0.7c0,0.3,0.1,0.6,0.1,0.6l0.2,0.9c0.3,1.3,0.1,3.3-0.3,5.2c-0.1,0.5-0.2,1-0.4,1.6
					c-0.2,0.7-0.5,1.3-0.7,1.5c-0.1,0.3-0.5,0.5-1,0.6c-0.1,0-1,0.1-1.2,0.1c-0.3,0.1-0.6,0.1-0.7,0.1c-0.2,0-0.5,0.1-0.7,0.1
					c-0.3,0.1-0.7-0.1-0.8-0.6c0-0.2,0-0.4,0.2-0.8c0.2-0.4,0.5-1.3,0.6-1.8l0-0.2l0.1-0.4c0-0.1,0.1-0.2,0-0.3
					c0.1-0.2,0.1-0.2,0-0.3c0.1-0.2,0-0.2,0-0.3c0,0,0-0.2-0.2-0.3c-0.1-0.2-0.3-0.2-0.5-0.2l-0.4,0c-0.7,0.1-1.3-0.2-1.4-1l0-0.1
					l-0.3-2l-0.2-1.2l-0.2-1L504.4,62.1z"/>
				<path class="st1" d="M542.2,61.8c-0.9,0.9-2.1,1.6-3.1,2c-1.4,0.6-4.1,1-5.6,1.1c-1.1,0.1-5.3,0.3-6.4-0.8
					c-0.3-0.3-0.4-0.5-0.4-1.1c-0.1-1-0.1-1.7-0.2-2.8c-0.1-0.8-0.2-1.3-0.3-2.1c0-0.5-0.3-2.3,1.7-2.4c0.9,0,1.1,0.2,1.6,0.4
					c0.1,0.1,0.2,0.2,0.3,0.3c0.2,0.1,0.4,0.3,0.7,0.4c0.6,0.3,1.7,0.3,2.3,0.3c1.6-0.2,2.6-0.7,2.6-1.8c0-1.5-1.9-2.6-3.1-3.6
					c-0.9-0.7-1.5-1.3-2.4-2c-0.3-0.2-1.3-0.9-2.2-1.8c-2.1-2.2-2.4-3.9-2.7-6.3c-0.7-7,2.3-10.2,9-10.9c3.1-0.3,6.5-0.8,6.7,1.4
					c0.1,1,0.1,1.7,0.2,2.8l0,0.2c0.1,0.7,0.1,1.1,0.2,1.7c0,0.5,0.1,2-1.6,2.1c-0.7,0.1-1.8-0.2-2-0.2c-0.5-0.1-1-0.2-1.9-0.1
					c-0.3,0-2.1,0.1-1.9,1.9c0,0.5,0.2,0.9,0.6,1.4c0.4,0.5,2.5,2.1,4.5,3.6c0.8,0.6,1.4,1,2.1,1.7c2.5,2.3,3.1,3.9,3.4,6.5
					C544.7,57.7,544.3,59.7,542.2,61.8z"/>
				<path class="st1" d="M575.2,35.7c0,1.2,0,2.1,0,3.3c0,3-0.1,5.1-0.1,8.1l0,0.4c0,1.4,0.1,2.8,0.1,4.2c0,2.2-0.2,3.8-0.2,5.9
					c0,1.3,0.2,2.1,0.2,3.4c0,1.5-0.1,2-1.2,2c-1.3,0-2.2-0.1-3.4-0.1c-0.9,0-1.5,0.1-2.4,0.1c-1.5,0-1.7-1-1.7-1.6
					c0-1,0.2-1.8,0.2-2.8l0-1.3c0-0.4,0-0.7,0-1c0-0.6-0.1-1,0-1.6c0-0.5,0.1-0.9,0.1-1.5c0-1-0.1-1.8-0.1-2.8c0-0.6,0-0.9,0.1-1.5
					c0-0.3,0-0.5,0-0.7l0-0.2c0-0.1,0-0.2-0.2-0.2c-0.5,0-1,2.2-1.1,2.4c0,0-2,4.4-2,4.4c-0.2,0.2-0.4,0.6-0.9,0.6
					c-0.2,0-0.8,0-0.9-0.1c-0.6-0.4-1.3-1.9-2.1-3.4c-0.2-0.4-0.4-0.7-0.6-1c-0.3-0.5-0.4-0.8-0.6-1.3c-0.3-0.6-0.8-1.6-1-1.6
					c-0.1,0-0.2,0.3-0.2,0.6l0,0.3c0,1.5-0.1,2.4-0.2,3.9c0,0.8,0,1.5,0,2.3c0,1.1-0.1,1.8-0.1,3l0,1c0,1,0.1,1.7,0.1,2.7
					c0,1.6-0.8,1.7-1.6,1.7c-0.8,0-1.3,0-2-0.1c-0.8,0-1.4,0-2.2,0c-0.4,0-0.7,0.1-1,0.1c-1.7,0-1.6-1.2-1.6-1.8
					c0-0.8,0.1-1.3,0.1-2c0-1,0.1-1.7,0.1-2.8c0-2.3-0.2-3.9-0.2-6.1c0-2.3,0.2-3.9,0.2-6.1c0-2.2-0.1-3.7-0.1-5.9
					c0-1,0.1-1.7,0.1-2.8c0.1-1.6-0.2-2.8-0.2-4.5c0-1.5,1.4-1.3,1.7-1.3c1.4,0,2.4,0.1,3.8,0.1c0.6,0,1,0,1.6,0c1.7,0,1.5,1,2.4,3
					c0.7,1.6,1.4,2.6,2.2,4c0.4,0.7,0.5,1.1,0.8,1.8c0.1,0.2,0.8,1.8,1.2,1.8c0.5,0,1.2-1.9,1.3-2.1c0.5-0.9,0.9-1.5,1.3-2.5
					c0.4-1,0.6-1.7,1.1-2.7c0,0,1.3-2.6,1.4-2.7c0.3-0.3,0.2-0.3,0.6-0.5c0,0,1-0.1,1.6-0.1c0.9,0,1.6,0.1,2.5,0.1
					c1,0,1.6-0.1,2.6-0.1c0.8,0,1.1,0.6,1.1,1.3C575.5,32.7,575.2,33.9,575.2,35.7z"/>
				<path class="st1" d="M587.8,63c-0.7,0-1.2-0.1-1.9-0.1c-1.2,0-2,0.1-3.1,0.1c-2.3,0-2.2-1.1-2.2-2.2l0-1.9c0-1.1,0.2-1.9,0.2-3
					l0-1.9c0-2.4-0.1-4,0-6.4l0.1-5.8c0-1.9,0.2-3.1,0.2-5l0.1-3.2c0-0.8-0.1-1.4-0.1-2.2c0-1.5,1.1-1.6,2.1-1.6s1.9,0.1,3,0.1
					c0.9,0,1.6-0.1,2.5,0c1,0,1.1,1.2,1.1,1.8c0,0.8-0.1,1.3-0.2,2c-0.1,1.2,0,2-0.1,3.1l-0.1,7.3c0,1.1-0.1,1.8-0.2,2.9l0,2.3
					c0,1.9,0.1,3.1,0.1,5c0,1.4-0.2,2.4-0.2,3.8c0,1.3,0.1,2.2,0.1,3.5C589.2,62.1,589.1,63,587.8,63z"/>
				<path class="st1" d="M609.2,62.3L609.2,62.3c0,0.6,0.1,2.1-1.7,2c-0.9-0.1-1.5-0.2-2.3-0.3c-0.8-0.1-1.4-0.1-2.2-0.1
					c-0.8-0.1-1.3-0.1-2.1-0.2l-3.5-0.3c-1-0.1-1.7,0-2.8-0.1c-1.7-0.1-1.7-1.4-1.6-2l0-0.4c0.1-1.7,0.4-2.9,0.5-4.7
					c0.1-1.9,0.1-3.2,0.2-5.1c0.1-1.5,0.4-2.5,0.5-4c0.1-1.2,0.1-2,0.1-3.1c0.1-0.7,0.2-1.5,0.3-2.2c0.1-1.2,0.1-2,0.1-3.2
					c0.1-1.2,0.3-2,0.4-3.1c0.1-1.2,0.1-2.4,0.2-3.6l0-0.2c0-0.5,0.1-1.9,1.9-1.8c0.8,0.1,1.4,0.3,2.3,0.3c0.8,0.1,1.7,0,2.5,0.1
					c0.8,0.1,2,0.2,1.9,1.5c0,0.6-0.2,1-0.3,1.6c-0.2,1.3-0.3,2.2-0.4,3.5c-0.1,1.3,0,2.2-0.2,3.4c-0.1,0.9-0.2,1.9-0.3,2.8
					c-0.1,0.7,0,1.6,0,2.3c-0.1,1.4-0.3,2.3-0.4,3.7c-0.1,0.8,0,1.5-0.1,2.3c0,0.4-0.1,0.8-0.1,1.2c-0.2,2.5,1.6,2.8,2.5,2.9
					c0.8,0.1,1.3,0.1,2.1,0.2c0.4,0,0.7,0,1,0c0.4,0,1,0.1,1.4,0.6c0.5,0.6,0.2,3.2,0.2,3.8C609.4,61.2,609.2,61.6,609.2,62.3z"/>
				<path class="st1" d="M630.2,63.3c-0.1,0.8-0.1,1.4-0.3,2.1c-0.1,0.6-0.4,1.8-2.1,1.6c-0.7-0.1-1.1-0.2-1.8-0.3l-1.1-0.2
					c-1.1-0.2-1.9-0.4-3-0.5c-0.7-0.1-1.1-0.1-1.8-0.2l-5-0.7c-0.5,0-0.8,0-1.3-0.1c-0.6-0.1-1.9-0.6-1.6-2.2
					c0.2-1.2,0.4-2.1,0.6-3.3c0.2-1.1,0.2-1.9,0.4-3c0.1-0.8,0.3-1.4,0.4-2.2c0.1-0.8,0.1-1.4,0.2-2.2c0.2-1.5,0.5-2.6,0.7-4.1
					c0.2-1.4,0.3-2.8,0.5-4.1c0.2-1.9,0.6-3.2,0.8-5.1c0.2-1.3,0.2-2.3,0.4-3.6c0.4-2.7,0.8-3.4,2.9-3.1c1.2,0.2,2.1,0.5,3.3,0.7
					c0.6,0.1,1.2,0.1,1.7,0.2c1.5,0.2,2.5,0.5,4,0.7c0.7,0.1,1.1,0.1,1.8,0.2L631,34c0.5,0.1,0.9,0.1,1.4,0.2
					c1.4,0.2,1.3,1.3,1.3,1.8c-0.1,0.8-0.4,1.6-0.5,2.3c-0.2,1.3,0,3.6-2.3,3.2l-0.5-0.1c-0.6-0.1-1-0.1-1.5-0.2
					c-0.7-0.1-1.2-0.3-2-0.4c-2.6-0.4-2.8,0.4-3,2c-0.2,1.6,0.2,2.5,1.3,2.6c0.5,0.1,0.9,0,1.4,0.1l0.1,0c0.7,0.1,1.1,0.3,1.8,0.3
					c0.6,0.1,1,0.1,1.5,0.2c1.9,0.3,1.6,1.6,1.5,2.2c-0.1,0.7-0.2,1.2-0.3,1.9c-0.1,0.7-0.1,1.2-0.2,1.9c-0.3,1.8-1.6,1.7-2.2,1.6
					c-1.4-0.2-2.4-0.5-3.8-0.7c-2.6-0.4-2.6,1.2-2.7,2.2l-0.1,0.6c0,0.2-0.2,1.1-0.1,1.4c0.5,1.4,1.2,1.2,2.9,1.5
					c0.8,0.2,1.4,0.4,2.2,0.5c0.7,0.1,1.3,0,2,0.1c0.5,0.1,1.7,0.5,1.5,2C630.5,62,630.3,62.5,630.2,63.3z"/>
				<path class="st1" d="M634.1,61.1l0-0.1c0.2-0.8,0.7-1.2,1.7-1.1l0.1,0l0.4,0.1l0.5,0.1l1.1,0.2c0.3,0.1,0.4,0.1,0.5,0.1
					c0.2,0,0.3,0.1,0.4,0.1c0.2,0,0.3,0,0.4,0l0.3,0.1l0.2,0l0.3,0.1c0.8,0.2,1.1,0.3,1.3,0.7c0.2,0.3,0.4,0.6,0.4,0.9
					c0,0.2-0.1,0.6-0.2,1.4l-0.1,0.7c-0.1,0.3-0.2,0.5-0.2,0.5l-0.2,0.9c-0.3,1.3-1.1,3.1-2.2,4.7c-0.3,0.4-0.6,0.9-1,1.3
					c-0.5,0.5-1,1-1.2,1.1c-0.2,0.2-0.6,0.3-1.1,0.2c-0.1,0-1-0.3-1.1-0.3c-0.3-0.1-0.6-0.1-0.7-0.1c-0.2,0-0.5-0.1-0.7-0.1
					c-0.3-0.1-0.6-0.4-0.5-0.9c0-0.2,0.1-0.4,0.5-0.7c0.4-0.3,1-1.1,1.2-1.4l0.1-0.2l0.2-0.3c0-0.1,0.1-0.2,0.2-0.3
					c0.1-0.2,0.1-0.2,0.1-0.3c0.1-0.1,0.1-0.2,0.2-0.3c0,0,0-0.2,0-0.4c0-0.2-0.2-0.3-0.4-0.4l-0.4-0.2c-0.7-0.1-1.1-0.7-1-1.5
					l0-0.1l0.5-2l0.2-1.2l0.2-1L634.1,61.1z"/>
				<path class="st1" d="M672.9,73.7c-0.2,0.8-0.3,1.3-0.5,2.1c-0.2,0.5-0.7,1.7-2.3,1.3c-0.6-0.2-1.1-0.4-1.7-0.5l-1.1-0.3
					c-1.1-0.3-1.8-0.6-2.9-0.9c-0.6-0.2-1.1-0.3-1.7-0.4l-4.8-1.4c-0.5-0.1-0.8-0.1-1.2-0.3c-0.5-0.2-1.8-0.8-1.3-2.4
					c0.3-1.2,0.7-2,1.1-3.2c0.3-1.1,0.5-1.8,0.8-2.9c0.2-0.8,0.5-1.3,0.7-2.1c0.2-0.8,0.3-1.3,0.5-2.1c0.4-1.5,0.8-2.5,1.2-4
					c0.4-1.4,0.7-2.7,1.1-4c0.5-1.9,1-3.1,1.5-5c0.4-1.3,0.5-2.2,0.9-3.5c0.7-2.6,1.3-3.3,3.3-2.7c1.2,0.3,2,0.8,3.2,1.1
					c0.5,0.2,1.1,0.3,1.7,0.4c1.4,0.4,2.4,0.8,3.9,1.3c0.6,0.2,1.1,0.2,1.7,0.4l0.9,0.3c0.5,0.1,0.9,0.2,1.4,0.4
					c1.4,0.4,1.1,1.5,1,1.9c-0.2,0.8-0.6,1.5-0.8,2.3c-0.3,1.2-0.5,3.5-2.7,2.9l-0.5-0.1c-0.5-0.2-1-0.2-1.5-0.4
					c-0.7-0.2-1.2-0.5-1.9-0.7c-2.5-0.7-2.8,0-3.2,1.6c-0.4,1.5-0.1,2.5,0.9,2.8c0.5,0.1,0.9,0.2,1.4,0.3l0.1,0
					c0.7,0.2,1.1,0.4,1.7,0.6c0.5,0.2,1,0.2,1.5,0.4c1.8,0.5,1.4,1.8,1.2,2.4c-0.2,0.7-0.4,1.2-0.6,1.9c-0.2,0.7-0.3,1.1-0.5,1.8
					c-0.5,1.8-1.8,1.5-2.4,1.3c-1.4-0.4-2.3-0.9-3.7-1.3c-2.5-0.7-2.7,0.8-3,1.8L666,65c-0.1,0.2-0.3,1.1-0.3,1.4
					c0.3,1.4,1,1.3,2.6,1.9c0.8,0.3,1.3,0.6,2.1,0.8c0.7,0.2,1.3,0.2,1.9,0.4c0.5,0.1,1.6,0.7,1.2,2.2
					C673.4,72.4,673.1,72.9,672.9,73.7z"/>
				<path class="st1" d="M694.3,85.5c-0.8-0.3-1.3-0.6-2.1-0.9c-1.2-0.5-2.1-0.7-3.3-1.1c-0.9-0.3-0.6-1.5-0.6-2.9
					c0-1.1-0.2-1.9-0.2-3.1c0-1.1,0.1-1.9,0-3c0-0.9-0.2-1.5-0.2-2.4c0-0.8,0-1.4,0-2.2c0-0.9,0.1-2.4-0.1-2.4
					c-0.1,0-0.3,0.2-0.3,0.3c-0.2,0.6-0.2,1-0.4,1.6c-0.3,1.1-0.5,2-1,3.1c-0.5,1.4-1.1,2.4-1.6,3.8c-0.5,1.4-0.6,2.4-1.1,3.7
					c-0.4,1.1-1.1,1-2,0.7c-1.1-0.4-1.9-0.8-3-1.2c-0.8-0.3-1.4-0.4-2.2-0.7c-1.3-0.5-0.6-1.9-0.6-2c0.7-1.8,1.5-3,2.1-4.9
					c0.2-0.6,0.3-0.9,0.5-1.5c0.5-1.2,0.7-2.1,1.2-3.3c0.4-1.1,0.7-1.8,1.1-2.8c0.4-0.8,0.7-1.4,1-2.2c0.3-0.8,0.4-1.5,0.7-2.2
					l0.9-2.3c0.6-1.6,1.1-2.8,1.7-4.4c0.7-1.7,0.9-2.9,1.6-4.6c0.1-0.2,0.4-1.1,1.5-0.9l0.2,0.1c0.4,0.1,0.6,0.3,1,0.5
					c0.6,0.3,1,0.4,1.6,0.6c0.9,0.3,1.6,0.5,2.6,0.8c0.5,0.2,0.6,0.4,0.8,0.7c0.4,0.7,0.3,4.3,0.4,4.9c0,0.7,0.1,1.2,0.1,1.9
					c0.1,0.5,0.2,0.9,0.2,1.4c0,0.5,0,0.9,0,1.5c0,0.4,0.1,0.7,0.1,1.1c0,0.7,0,1.2,0,1.9c0,0.9-0.2,2.5,0.1,2.5
					c0.2,0,0.6-0.9,0.8-1.5c0.2-0.7,0.3-1.2,0.6-1.9c0.2-0.7,0.5-1.1,0.8-1.8c0.7-1.9,1-3.3,1.7-5.3c0.1-0.4,0.6-1.7,1-2
					c0.3-0.2,0.4-0.2,0.6-0.2c0.2-0.1,0.7-0.1,1.3,0.1c0.6,0.2,1,0.5,1.6,0.7l1.7,0.6c0.5,0.2,0.9,0.3,1.4,0.5
					c0.8,0.3,1,0.9,0.7,1.7c-0.5,1.3-1,2.2-1.5,3.5c-0.7,1.9-1.1,3.3-1.9,5.2c-0.8,2.1-1.4,3.5-2.2,5.5c-0.8,2.1-1.1,3.5-1.9,5.6
					c-0.7,1.8-1.4,3.1-2.1,5c-0.3,0.9-0.7,1.6-0.9,2.6c-0.1,0.4-0.1,0.8-0.3,1.1C695.8,86,694.9,85.7,694.3,85.5z"/>
				<path class="st1" d="M721.5,66.6c-0.5,1.1-0.7,1.8-1.2,2.9c-0.4,0.8-0.7,1.3-1,2.1c-0.4,0.8-0.6,1.4-1,2.2
					c-0.4,0.9-0.9,1.6-1.3,2.5c-0.3,0.6-0.5,1.3-0.9,2l-0.1,0.1c-0.6,1.4-1,2.3-1.6,3.7c-0.7,1.4-1.2,2.3-1.9,3.7
					c-0.2,0.5-0.4,0.9-0.6,1.4c-1.5,3.3-5.5,3.4-6.7,3.2c-0.6-0.1-2.5-0.8-3.1-1.1c-0.3-0.2-0.7-0.4-1-0.5c-0.5-0.2-0.8-0.3-1.4-0.5
					c-1.1-0.5-1.3-1.6-0.8-2.6c0.4-0.9,0.8-1.4,1.2-2.3c0.4-0.9,0.6-1.5,1-2.4c0.4-0.9,1.1-1.1,1.7-0.8c0.3,0.1,0.5,0.3,0.8,0.5
					c2,0.9,2.8-1.4,2.9-1.5c0.7-1.3,1-2.4,1.7-3.7c0.7-1.6,1.2-2.8,2-4.4c0.9-2,1.7-3.2,2.6-5.2c0.8-1.8,1.2-3.3,2.1-5.1
					c0.6-1.3,1.1-1.7,2.5-1.1c0.9,0.4,1.4,0.8,2.3,1.1l0.3,0.1c0.9,0.4,1.6,0.7,2.4,1.1c0.9,0.4,1.1,1,0.7,1.9
					C722.5,64.8,722,65.5,721.5,66.6z"/>
				<path class="st1" d="M734.6,98c-0.1,0.2-1.2,1.4-2.2,2.1c-1.2,0.8-2.9,1.4-4.4,1.5c-0.4,0-0.9-0.1-1.6-0.2
					c-1.7-0.3-2.5-0.7-3.9-1.4c-2.4-1.4-5.8-3.9-6.2-7.8c-0.2-1.3,0.4-3.9,0.7-4.9c0.3-0.9,1.6-3.6,2-4.4c0.6-1.1,1.1-1.8,1.7-3
					c0.5-0.9,0.8-1.5,1.2-2.3c3.3-5.8,5.3-8.7,9.7-9.4c2.3-0.3,3.7-0.1,6.7,1.6l0.2,0.1c1.4,0.8,2.8,1.8,3.7,3.1
					c0.5,0.7,1.7,3.2,1.9,4.1c0.6,2.6-0.6,6.2-3.1,10.5C738,93.5,737.1,95.5,734.6,98z M733.1,84.6c0.3-0.7,0.7-1.2,1.1-1.9
					c0.3-0.6,1.5-3,1.5-3.8c0-0.7-0.1-1.4-1-1.9c-0.1,0-0.2-0.1-0.3-0.1c-0.3-0.2-0.6-0.2-0.9-0.2c-1.1,0.1-1.8,1-2.6,2.4
					c-0.6,1.1-1,2-1.6,3.1c-1.2,2.2-2.2,3.7-3.4,5.8c-0.6,1-2.3,3.7-0.2,4.9c1.8,1,3-0.7,3.6-1.8c0.4-0.7,0.6-1.2,1.1-1.9
					c0.6-1,1.1-1.6,1.7-2.6C732.4,85.8,732.7,85.3,733.1,84.6z"/>
				<path class="st1" d="M767.2,92.1c-0.2,0.2-3.7,3-6,4.6c-0.4,0.3-0.8,0.5-1.3,0.8c-1.6,1.2-2.7,2-4.4,3.2c-2.4,1.6-3.6,1.8-5.1,4
					c-0.5,0.8-0.9,1.3-1.4,2.1c-0.6,0.8-1.1,1.3-1.6,2.1c-0.7,1-1.1,1.7-1.7,2.7c-0.3,0.4-0.8,1.1-1.6,1.2c-0.2,0-0.8-0.3-1-0.4
					c-0.4-0.3-0.7-0.5-1.1-0.8c-0.6-0.4-1.1-0.6-1.7-1l-1.4-0.9c-1.7-1.2-0.4-2.4,0.2-3.4l0.1-0.1c0.2-0.3,0.4-0.5,0.5-0.7
					c0.3-0.4,0.4-0.8,0.7-1.2c0.5-0.7,0.9-1.1,1.4-1.8c0.5-0.7,0.8-1.4,1.3-2.1c0.5-0.8,0.9-1.3,1.3-2.1c0.1-0.2,1.5-4.8,2.1-7.6
					c0.3-1.5,0.4-2.5,0.8-4c0.5-2,1-3.3,1.5-5.3c0.2-0.9,0.3-1.6,0.6-2.5c0.1-0.3,0.2-0.6,0.3-0.7c0.7-1.1,1.9-0.1,2-0.1
					c0.6,0.4,1.1,0.9,1.7,1.3c1,0.8,1.8,1.2,2.9,1.9c0.6,0.4,0.7,0.7,0.8,1.2c0.2,1-1.5,4.5-1.7,5.1c-0.5,1.3-0.7,2.1-1.2,3.4
					c-0.2,0.6-0.6,1.5-0.4,1.6c0.3,0.2,0.8-0.4,1.2-0.8c0.7-0.6,1.2-1.1,1.9-1.6c0.4-0.3,0.6-0.4,0.9-0.7c0.6-0.4,0.9-0.8,1.4-1.3
					c0.3-0.3,1.7-1.7,2.1-2c0.6-0.3,0.7-0.4,1.4-0.4c0.3,0,0.9,0.5,1.1,0.6c0.7,0.4,1.1,0.8,1.7,1.3c0.7,0.5,1.2,0.7,1.9,1.2
					c0.7,0.5,1.5,1.2,0.8,2.3C767.9,91.5,767.3,92.1,767.2,92.1z"/>
				<path class="st1" d="M775.8,139.4c-0.8-0.8-1.3-1.4-2.1-2.2c-0.7-0.6-1.2-1-1.9-1.6c-1.2-1.1-0.2-1.9,0-2.3
					c0.3-0.3,2-2.3,1.9-2.9c0-0.3,0-0.1-0.1-0.5c0-0.1-1.3-1.3-2.1-2.1c-1.3-1.2-1.5-0.8-2.4-0.1c-0.3,0.2-2.2,2.1-2.7,2.3
					c-0.5,0.1-0.9,0-1.4-0.5c-0.7-0.6-1.1-1.1-1.7-1.7c-0.7-0.6-1.4-1.2-2.1-1.9c-0.6-0.6-1.2-1.3-0.4-2.2c0.3-0.3,1-0.8,1.8-1.4
					c1-0.8,1.5-1.3,2.5-2.1c0.9-0.7,1.5-1.1,2.4-1.8c1.3-0.9,2-1.7,3.3-2.7c1.2-1,2.1-1.5,3.3-2.6c0.8-0.7,1.4-1.3,2.3-2
					c1-0.8,1.9-1.3,2.9-2c1.6-1.2,2.6-2.2,4.2-3.3c1.1-0.7,2.1-1.4,2.7-1.4c0.6,0,1.1,0.3,1.9,1c1.2,1.1,1.9,2,3,3.1
					c0.9,0.8,1.8,1.6,2.7,2.4l0.1,0.1c0.9,0.8,1,1.2,0.9,2.1c0,0.1-0.2,0.5-0.2,0.6c0,0-2.3,3.8-2.4,3.8c-0.8,1.3-1.5,2.1-2.4,3.4
					c-1,1.6-1.7,2.7-2.6,4.3c-0.8,1.3-1.3,2.2-2.1,3.4c-1.1,1.6-2,2.6-3.1,4.2c-1.6,2.4-3.4,5.6-3.8,6.1
					C778.1,139.1,776.8,140.4,775.8,139.4z M783.4,117.5c0.4-0.6,1-1.4,1.1-1.6c0.2-0.3,0.1-0.6,0-0.7c-0.1-0.1-0.4,0-0.6,0.1
					c-0.2,0.1-1.5,1-1.6,1.2c-0.5,0.3-0.9,0.5-1.3,0.9c-0.3,0.2-3.2,2.6-3.5,2.9c-1,1.1-0.6,1.7,0,2.2c0.4,0.4,1.3,1.2,2.5,0
					C781.5,120.6,783,118.1,783.4,117.5z"/>
				<path class="st1" d="M792,157.3c-0.6-0.6-0.9-1.1-1.4-1.8c-0.8-1-1.5-1.6-2.4-2.5c-0.7-0.7,0.2-1.7,0.8-2.9
					c0.5-1,0.7-1.8,1.2-2.8c0.5-1,0.9-1.6,1.4-2.6c0.4-0.8,0.6-1.4,0.9-2.2c0.3-0.7,0.6-1.2,1.1-1.9c0.4-0.8,1.2-2.1,1-2.2
					c-0.1-0.1-0.3,0-0.4,0.1c-0.5,0.4-0.7,0.8-1.1,1.2c-0.8,0.9-1.4,1.5-2.3,2.3c-1.2,1-2.1,1.6-3.2,2.6c-1.1,1-1.7,1.8-2.8,2.7
					c-0.9,0.8-1.5,0.4-2.1-0.3c-0.8-0.9-1.3-1.6-2.1-2.5c-0.6-0.6-1.1-1-1.6-1.6c-0.9-1.1,0.3-2,0.4-2c1.5-1.3,2.8-2,4.2-3.3
					c0.5-0.4,0.7-0.7,1.1-1.1c1-0.9,1.6-1.5,2.6-2.3c0.8-0.7,1.4-1.3,2.3-2c0.7-0.6,1.2-0.9,1.9-1.5c0.7-0.6,1-1.1,1.7-1.7l1.8-1.6
					c1.3-1.1,2.3-1.9,3.6-3c1.4-1.2,2.2-2.1,3.6-3.3c0.2-0.2,0.9-0.8,1.7-0.1l0.2,0.2c0.2,0.3,0.4,0.6,0.6,0.9
					c0.4,0.5,0.7,0.8,1.1,1.3c0.7,0.7,1.2,1.2,1.9,2c0.3,0.4,0.4,0.7,0.3,1c0,0.8-1.7,3.9-1.9,4.5c-0.3,0.6-0.5,1.1-0.8,1.7
					c-0.2,0.5-0.3,0.9-0.5,1.3c-0.2,0.5-0.4,0.8-0.7,1.3c-0.2,0.4-0.2,0.6-0.4,1c-0.3,0.6-0.5,1-0.9,1.6c-0.5,0.8-1.3,2.1-1.1,2.3
					c0.2,0.1,1-0.5,1.5-1c0.5-0.5,0.8-0.9,1.4-1.4c0.5-0.5,1-0.7,1.5-1.2c1.5-1.3,2.5-2.5,4-3.8c0.3-0.2,1.4-1.2,1.8-1.3
					c0.3,0,0.5,0,0.6,0.1c0.2,0,0.7,0.2,1.1,0.7c0.4,0.5,0.7,0.9,1.1,1.4l1.2,1.3c0.4,0.4,0.7,0.7,1,1.1c0.6,0.6,0.5,1.3-0.1,1.8
					c-1.1,0.9-1.9,1.4-3,2.4c-1.5,1.4-2.5,2.4-4.1,3.7c-1.7,1.5-2.9,2.4-4.6,3.8c-1.7,1.5-2.7,2.6-4.3,4c-1.5,1.3-2.7,2.1-4.2,3.4
					c-0.7,0.7-1.3,1.1-2,1.9c-0.3,0.3-0.5,0.6-0.8,0.9C793.1,158.5,792.4,157.8,792,157.3z"/>
				<path class="st1" d="M804.3,172.7c-1.1-0.7-2.2-1.7-3.7-3.8c-0.5-0.7-0.8-1.3-1.3-2c-0.8-1.1-1.5-1.7-2.3-2.9
					c-0.8-1.2-1.6-2.4,0.1-3.6c1.4-1,2.5-1.5,3.9-2.5c2.2-1.6,3.7-2.9,5.9-4.4c0.9-0.6,1.5-1,2.4-1.6c1.6-1,2.6-2,4.1-3.1
					c1.4-1,2.4-1.6,3.7-2.5c1.1-0.8,1.8-1.5,3-2.3c1.7-1.2,2.7-1,3.5,0.1c0.7,1,1.2,1.8,1.9,2.7c0.7,1,1.2,1.7,2,2.7
					c0.2,0.3,0.5,0.6,0.7,0.9c2.6,3.6,2.6,6.2,2,9c-0.1,0.5-0.5,1.8-1.2,3.1c-2.1,3.8-7.4,7.5-7.7,7.7
					C817.8,172.7,810.2,176.1,804.3,172.7z M818.5,161c0.9-0.8,4.8-3.8,3-6c-0.1-0.2-0.3-0.3-0.5-0.4c-0.9-0.5-1.8,0.2-2.2,0.6
					c-1.5,1-2.4,1.9-3.9,2.9c-1,0.7-1.7,1.1-2.7,1.8c-0.8,0.5-1.3,1.1-2,1.6c-0.5,0.4-0.9,0.6-1.5,1c-0.8,0.6-2.2,1.6-1.2,3
					c1.1,1.4,3.1,0.5,3.2,0.4c0.8-0.3,4.8-2.5,5.5-3C817,162.3,817.6,161.7,818.5,161z"/>
				<path class="st1" d="M822.8,204.2c-1-0.8-2-2-3.1-4.3c-0.4-0.8-0.6-1.4-1-2.2c-0.6-1.2-1.3-1.9-1.9-3.2
					c-0.7-1.3-1.3-2.6,0.6-3.6c1.5-0.8,2.7-1.1,4.2-1.9c2.4-1.2,4-2.3,6.4-3.6c1-0.5,1.6-0.8,2.6-1.2c1.7-0.8,2.8-1.6,4.5-2.5
					c1.5-0.8,2.5-1.2,4.1-2c1.2-0.6,2-1.2,3.3-1.8c1.9-1,2.8-0.6,3.4,0.6c0.6,1.1,0.9,1.9,1.5,3c0.6,1.1,1,1.9,1.6,2.9
					c0.2,0.3,0.4,0.6,0.5,0.9c2,4,1.7,6.5,0.7,9.2c-0.2,0.5-0.7,1.7-1.6,2.9c-2.6,3.5-8.4,6.4-8.7,6.6
					C836.1,206.1,828.1,208.5,822.8,204.2z M838.4,194.6c1-0.6,5.3-3.1,3.8-5.5c-0.1-0.2-0.2-0.4-0.4-0.4c-0.8-0.6-1.8,0-2.3,0.2
					c-1.6,0.8-2.7,1.5-4.2,2.3c-1.1,0.6-1.8,0.8-2.9,1.4c-0.8,0.4-1.4,0.9-2.2,1.3c-0.6,0.3-1,0.5-1.6,0.8c-0.9,0.4-2.4,1.2-1.7,2.7
					c0.9,1.6,3,0.9,3.1,0.9c0.8-0.2,5.1-1.8,5.9-2.2C836.8,195.7,837.5,195.2,838.4,194.6z"/>
				<path class="st1" d="M834.5,233.4l-0.1-0.2c-0.3-0.7-0.4-1.3-0.7-2c-0.4-0.9-0.6-1.4-1-2.2c-0.2-0.5-0.4-0.8-0.6-1.3
					c-0.6-1.4,0.5-2,1.3-2.8c0.9-0.9,1.3-1.6,2.2-2.4c0.6-0.6,1-0.9,1.6-1.5c0.6-0.6,1.1-1.1,0.9-1.6c-0.3-0.7-1.1-0.2-1.3-0.1
					c-0.9,0.4-1.5,0.6-2.3,1c-0.7,0.3-1.1,0.4-1.8,0.7c-0.6,0.2-1,0.5-1.7,0.8c-1,0.4-1.4-0.1-1.6-0.6c-0.4-0.9-0.5-1.6-0.9-2.6
					c-0.4-1.1-0.9-1.8-1.4-2.9c-0.4-1,0.1-1.7,0.9-2.1c0.7-0.3,1.1-0.4,1.7-0.6c1.1-0.4,1.9-0.7,3-1.1c2.2-0.9,3.6-1.7,5.8-2.6
					c2.2-0.9,3.9-1.4,6.1-2.3c1.4-0.6,2.4-1.1,3.8-1.7c1.5-0.6,2.6-1,4.2-1.6c0.9-0.4,1.5-0.8,2.4-1.1c0.9-0.4,2.3-0.6,3.2,1.4
					c0.4,0.9,0.5,1.6,0.9,2.5c0.8,2.2,1.6,3.7,2.5,5.9c1,2.5,2,6.1-0.6,9.5c-0.2,0.2-0.5,0.6-0.8,0.8c-0.3,0.3-0.6,0.7-1.3,1.2
					c-0.9,0.7-3.8,2-4.8,2.4c-0.7,0.3-4.5,2-8.4,0.7c-0.5-0.1-0.8-0.3-1.2-0.4c-0.3-0.1-0.5-0.3-0.8-0.4c-0.1,0-0.3-0.1-0.5,0
					c-0.6,0.2-2.8,3.1-3.3,3.6c-0.5,0.5-0.9,0.9-1.4,1.4c-0.8,0.9-1.3,1.6-2.1,2.4c-0.2,0.1-0.4,0.4-0.8,0.5
					C834.9,234.6,834.6,233.5,834.5,233.4z M854.1,214.2L854,214c-0.2-0.3-0.4-0.6-0.6-0.7c-0.6-0.3-1.2-0.2-1.3-0.2
					c-0.2,0-3.7,1.3-3.9,1.4c-1.1,0.4-1.9,1.5-1.4,2.8c0.2,0.6,0.6,1,1,1.1c1,0.5,2.4,0.1,4-0.6C853,217.3,854.8,216,854.1,214.2z"
					/>
				<path class="st1" d="M844.9,253.1c-0.8,0.2-1.3,0.5-2,0.7c-0.5,0.2-1.8,0.4-2.3-1.2c-0.2-0.6-0.3-1.1-0.5-1.7l-0.3-1.1
					c-0.3-1.1-0.5-1.9-0.8-2.9c-0.2-0.6-0.4-1.1-0.6-1.7l-1.5-4.8c-0.2-0.4-0.3-0.7-0.5-1.2c-0.2-0.5-0.3-1.9,1.3-2.4
					c1.2-0.4,2.1-0.5,3.2-0.9c1.1-0.3,1.8-0.6,2.8-1c0.8-0.2,1.4-0.3,2.1-0.5c0.8-0.2,1.3-0.5,2-0.7c1.5-0.5,2.5-0.7,4-1.2
					c1.3-0.4,2.6-0.9,4-1.4c1.8-0.6,3.2-0.9,5-1.5c1.3-0.4,2.2-0.8,3.4-1.2c2.6-0.8,3.5-0.8,4.1,1.3c0.4,1.2,0.5,2.1,0.8,3.2
					c0.2,0.5,0.4,1.1,0.6,1.6c0.5,1.4,0.7,2.5,1.1,3.9c0.2,0.6,0.4,1,0.6,1.7l0.3,0.9c0.2,0.5,0.3,0.8,0.5,1.4
					c0.4,1.4-0.6,1.8-1.1,1.9c-0.8,0.2-1.6,0.4-2.3,0.6c-1.2,0.4-3.2,1.6-3.9-0.7l-0.2-0.5c-0.2-0.5-0.3-0.9-0.5-1.5
					c-0.2-0.7-0.3-1.2-0.5-2c-0.8-2.5-1.6-2.3-3.1-1.8c-1.5,0.5-2.2,1.3-1.8,2.3c0.2,0.5,0.4,0.8,0.5,1.3l0,0.1
					c0.2,0.7,0.3,1.1,0.5,1.8c0.2,0.5,0.3,0.9,0.5,1.4c0.6,1.8-0.7,2.1-1.3,2.3c-0.7,0.2-1.2,0.3-1.9,0.6c-0.7,0.2-1.1,0.4-1.8,0.6
					c-1.7,0.6-2.2-0.7-2.4-1.3c-0.4-1.4-0.6-2.4-1-3.8c-0.8-2.5-2.2-1.8-3.1-1.5l-0.5,0.2c-0.2,0.1-1.1,0.3-1.3,0.5
					c-1.1,1-0.5,1.6-0.1,3.2c0.2,0.8,0.2,1.4,0.5,2.2c0.2,0.7,0.5,1.2,0.7,1.8c0.1,0.4,0.3,1.7-1.1,2.2
					C846.1,252.7,845.6,252.8,844.9,253.1z"/>
				<path class="st1" d="M846.9,277.1c-0.3-1.1-0.3-1.9-0.6-3c-0.2-0.9-0.5-1.5-0.7-2.4c-0.4-1.6,0.9-1.7,1.3-1.9
					c0.4-0.1,2.9-0.9,3.2-1.4c0.2-0.3,0.1-0.1,0.2-0.4c0-0.1-0.4-1.8-0.6-2.9c-0.4-1.7-0.8-1.5-1.9-1.4c-0.4,0-3,0.6-3.5,0.4
					c-0.5-0.2-0.7-0.4-0.9-1.2c-0.2-0.9-0.3-1.5-0.5-2.3c-0.2-0.9-0.5-1.8-0.7-2.7c-0.2-0.8-0.3-1.8,0.9-2.1
					c0.4-0.1,1.3-0.1,2.3-0.2c1.2-0.1,2-0.3,3.3-0.3c1.1-0.1,1.9-0.1,3-0.1c1.6-0.1,2.6-0.3,4.2-0.4c1.6-0.1,2.6-0.1,4.2-0.3
					c1.1-0.1,1.9-0.3,3-0.4c1.3-0.1,2.3,0,3.6-0.1c2-0.1,3.4-0.4,5.3-0.4c1.3,0,2.5,0.1,3,0.4c0.5,0.4,0.7,0.9,1,1.9
					c0.4,1.5,0.5,2.7,0.9,4.2c0.3,1.1,0.6,2.3,0.9,3.5l0,0.2c0.3,1.2,0.2,1.6-0.5,2.2c-0.1,0.1-0.4,0.3-0.5,0.4c0,0-4,1.9-4.1,1.9
					c-1.4,0.6-2.4,0.9-3.8,1.5c-1.7,0.8-2.9,1.3-4.6,2.1c-1.3,0.6-2.3,1.2-3.7,1.7c-1.8,0.7-3.1,1.1-4.9,1.8c-2.7,1.1-5.9,2.8-6.6,3
					C849,278.2,847.2,278.5,846.9,277.1z M865.3,263.1c0.7-0.3,1.6-0.6,1.8-0.7c0.3-0.2,0.4-0.4,0.4-0.6c0-0.1-0.3-0.3-0.5-0.3
					c-0.3,0-1.8,0.1-2,0.1c-0.6,0-1,0-1.6,0c-0.4,0-4.2,0.4-4.5,0.5c-1.4,0.3-1.4,1.1-1.2,1.8c0.1,0.6,0.4,1.7,2.1,1.3
					C862.1,264.6,864.7,263.3,865.3,263.1z"/>
				<path class="st1" d="M879.3,302.9c-1.2,0.2-2,0.4-3.3,0.6c-3,0.5-5.1,0.8-8,1.3l-0.4,0.1c-1.4,0.2-2.8,0.6-4.1,0.8
					c-2.2,0.4-3.7,0.5-5.9,0.9c-1.2,0.2-2,0.5-3.3,0.8c-1.4,0.2-2,0.2-2.2-0.9c-0.2-1.2-0.2-2.2-0.4-3.4c-0.1-0.9-0.4-1.5-0.5-2.3
					c-0.3-1.5,0.7-1.9,1.3-2c1-0.2,1.8-0.1,2.8-0.3l1.2-0.2c0.4-0.1,0.7-0.1,1-0.1c0.6-0.1,1-0.3,1.6-0.3c0.5,0,0.9,0,1.5-0.1
					c1-0.2,1.7-0.4,2.8-0.6c0.6-0.1,0.9-0.1,1.4-0.2c0.3,0,0.5-0.1,0.7-0.2l0.2,0c0.1,0,0.2,0,0.2-0.3c-0.1-0.5-2.3-0.6-2.5-0.7
					c0,0-4.6-1.2-4.7-1.2c-0.3-0.1-0.6-0.3-0.7-0.8c0-0.2-0.1-0.7,0-0.9c0.3-0.6,1.7-1.6,3-2.7c0.3-0.3,0.6-0.5,0.9-0.8
					c0.4-0.4,0.8-0.5,1.2-0.8c0.6-0.4,1.5-1.1,1.4-1.2c-0.1-0.1-0.4-0.2-0.6-0.1l-0.3,0c-1.4,0.2-2.4,0.3-3.9,0.5
					c-0.8,0.1-1.4,0.3-2.3,0.4c-1.1,0.1-1.8,0.2-2.9,0.4l-1,0.2c-1,0.2-1.6,0.4-2.6,0.5c-1.6,0.3-1.8-0.5-2-1.3
					c-0.1-0.7-0.2-1.3-0.3-2c-0.1-0.8-0.2-1.3-0.4-2.1c-0.1-0.4-0.2-0.6-0.3-1c-0.3-1.7,0.9-1.8,1.5-1.9c0.7-0.1,1.3-0.2,2-0.2
					c1-0.1,1.7-0.2,2.7-0.4c2.2-0.4,3.8-0.8,6-1.2c2.3-0.4,3.9-0.5,6.1-0.9c2.2-0.4,3.6-0.7,5.8-1.1c1-0.2,1.7-0.2,2.7-0.4
					c1.6-0.2,2.7-0.7,4.4-1c1.4-0.2,1.5,1.2,1.6,1.4c0.2,1.4,0.4,2.4,0.6,3.7c0.1,0.6,0.2,1,0.3,1.6c0.3,1.7-0.8,1.7-2.6,2.9
					c-1.4,0.9-2.3,1.8-3.6,2.9c-0.6,0.5-1,0.7-1.6,1.1c-0.2,0.1-1.6,1.1-1.6,1.5c0.1,0.5,2,0.8,2.2,0.9c1,0.3,1.7,0.6,2.7,0.9
					c1,0.3,1.8,0.3,2.9,0.6c0,0,2.8,0.9,2.9,0.9c0.3,0.2,0.3,0.1,0.6,0.5c0.1,0,0.3,1,0.4,1.5c0.2,0.9,0.2,1.6,0.3,2.5
					c0.2,1,0.4,1.6,0.5,2.6c0.1,0.8-0.4,1.2-1.1,1.3C882.2,302.6,881,302.6,879.3,302.9z"/>
				<path class="st1" d="M853.3,316.9l-0.3-2.1c-0.3-2.3-0.7-3.9,1.2-4.2c0.5-0.1,0.8,0,1.3-0.1c0.7-0.1,1.3-0.2,2-0.3
					c0.5-0.1,0.9-0.2,1.4-0.1c0.8,0,2.1-0.2,2.3,1.7c0.1,0.6,0.1,1.1,0.2,1.7c0.1,0.9,0.2,1.6,0.4,2.6c0.2,1.9-1.3,1.9-2.5,2
					c-0.8,0.1-1.4,0.1-2.1,0.2c-0.5,0.1-0.9,0.2-1.4,0.3C853.8,318.8,853.4,317.7,853.3,316.9z"/>
			</g>
		</g>
	</g>
</g>
</svg>
