<?xml version="1.0" encoding="utf-8"?>
<!-- Generator: Adobe Illustrator 27.8.1, SVG Export Plug-In . SVG Version: 6.00 Build 0)  -->
<svg version="1.1" id="Layer_1" xmlns="http://www.w3.org/2000/svg" xmlns:xlink="http://www.w3.org/1999/xlink" x="0px" y="0px"
	 viewBox="0 0 400.6 619.8" style="enable-background:new 0 0 400.6 619.8;" xml:space="preserve">
<style type="text/css">
	.st0{fill:#FCFDFF;}
	.st1{fill:#582F10;}
</style>
<g>
	<path class="st0" d="M22.9,178.8c-0.3,0.7-0.5,1.3-0.7,2c-0.1,0.2-0.1,0.4-0.2,0.6l-0.1,0.3c-0.3,0.6-0.5,1.2-0.8,1.9
		c-0.5,1.4-1,2.9-1.3,4.4c-0.7,1.3-1.4,2.7-1.9,4.1c-0.3,0.9-0.6,1.7-0.8,2.3c-0.3,0.7-0.8,1.7-1.2,2.9c-0.6,1.7-1.1,3.4-1.5,5.1
		c-1,2-1.8,4.1-2.3,6.3c-0.3,1.1-0.5,2.1-0.6,3l0,0.1c-0.2,0.6-0.4,1.3-0.6,2c-0.5,2.2-0.9,4.3-1,6.5c-0.9,2-1.7,4-2.2,6.2
		c-0.3,1-0.4,1.9-0.6,2.6c-0.2,0.7-0.5,1.7-0.8,3c-1.2,4.9-1.3,9.8-0.3,14.4c-2,3.7-3.3,7.9-3.7,12.4c-0.1,1.2-0.2,2.2-0.2,3
		c-0.1,0.6-0.2,1.2-0.3,2c-0.2,1.7-0.2,3.4-0.1,5c-0.8,3.2-1.3,6.7-1.5,10.5c-0.1,3-0.1,8.7,1.3,14c0.1,0.4,0.2,0.8,0.3,1.1
		c0.4,1.3,1,2.9,1.7,4.7C1.1,304.4,0.3,310.2,1,316c0.1,1.1,0.3,2.2,0.5,3l0,0.1c0.1,0.7,0.1,1.3,0.2,2.1c0.3,2.2,0.8,4.3,1.5,6.4
		c-0.2,2.2-0.1,4.4,0.2,6.6c0.1,1.1,0.3,2,0.4,2.7c0.1,0.8,0.1,1.8,0.3,3c0.4,3.5,1.5,6.9,2.9,9.9c-0.1,4,0.3,8.1,1.4,12.2
		c0.7,2.9,1.9,6.7,4.5,11.2c0.1,3.2,0.8,6.4,1.9,9.5c0.5,1.2,0.9,2.3,1.3,3.1c0.2,0.7,0.5,1.5,0.8,2.5c0.4,1.2,0.9,2.4,1.5,3.5
		c0.3,1.1,0.6,2.2,1,3.2c0.4,1.2,0.8,2.1,1.2,2.9c0,0,0,0,0,0c0.2,0.6,0.5,1.6,0.9,2.6l0,0.1c0.7,1.9,1.5,3.7,2.5,5.4
		c0.5,1.8,1.1,3.6,1.9,5.3c0.4,0.9,0.9,1.7,1.2,2.3l1.6,3.3c0.3,0.6,0.6,1.1,0.8,1.6l0,0c0.3,0.6,0.7,1.6,1.2,2.7l0.4,0.7
		c0.3,0.6,0.5,1.2,0.9,1.9c2.3,4.8,5.7,8.9,9.9,12c0.6,4.7,2.3,9.3,5,13.4c0.5,0.8,1,1.4,1.3,1.9c0.4,0.7,0.9,1.6,1.6,2.6
		c1.2,1.9,2.6,3.6,4.2,5.1c1.2,2.8,2.7,5.5,4.7,7.9c0.7,0.8,1.3,1.6,1.9,2.2c0.4,0.6,0.9,1.3,1.5,2c0.8,1,1.6,1.9,2.5,2.8
		c0.6,1,1.3,1.9,2,2.8c0.8,1,1.5,1.8,2,2.4c0.3,0.5,0.8,1.1,1.3,1.8c1.2,1.5,2.5,2.9,4,4.1c1.1,1.6,2.3,3.1,3.7,4.5
		c0.5,0.5,1,1,1.5,1.5c0.2,0.2,0.3,0.3,0.4,0.4l0.2,0.2c0.5,0.5,0.9,1,1.5,1.5c1.1,1.1,2.2,2.1,3.4,3c0.9,1.2,1.9,2.3,3,3.4
		c0.7,0.7,1.3,1.3,1.7,1.7c0.5,0.6,1.2,1.4,2.1,2.3c1.3,1.3,2.8,2.6,4.3,3.6c1.2,1.4,2.5,2.7,3.9,3.8c0.9,0.7,1.7,1.3,2.3,1.7
		c0.5,0.4,1.2,1,2,1.7c1.2,1,2.5,1.9,3.8,2.7c0.8,0.9,1.7,1.6,2.6,2.3c1,0.8,1.8,1.4,2.4,1.8c0.5,0.4,1.2,1.1,2.1,1.8
		c2.1,1.7,4.3,3.1,6.6,4.2c1.6,0.8,3.2,1.4,4.9,1.9c2.6,3.5,5.9,6.5,9.9,8.9c0.6,0.4,1.3,0.7,1.9,1.1c0.2,0.1,0.4,0.2,0.5,0.3
		l0.3,0.2c0.6,0.4,1.1,0.7,1.8,1.1c0.8,0.5,1.6,0.9,2.4,1.3c0.6,0.3,1.1,0.5,1.7,0.8c1.2,0.9,2.4,1.8,3.7,2.5
		c0.8,0.5,1.6,0.9,2.1,1.2c0.6,0.4,1.6,1,2.7,1.7c0.7,0.4,1.5,0.8,2.2,1.2c3.4,1.6,7,2.6,10.7,2.9c2.3,2.4,5,4.5,8,6.1
		c0.6,0.3,1.2,0.6,1.7,0.9c0.1,0.1,0.2,0.1,0.4,0.2c0.6,0.4,1.5,1,2.7,1.6c0.4,0.2,0.9,0.5,1.5,0.8c0.8,0.4,1.6,0.7,2.5,1
		c0.9,0.7,1.8,1.4,2.7,2c1.1,0.7,2.1,1.3,2.8,1.7c0.6,0.4,1.3,1,2.1,1.5c1.1,0.7,2.2,1.3,3.3,1.9c0.9,0.7,1.8,1.4,2.7,2
		c1,0.7,1.9,1.2,2.7,1.6c0,0,0,0,0,0c0.5,0.4,1.3,1,2.3,1.6l0.1,0.1c0.8,0.8,1.7,1.6,2.6,2.3c0.8,0.6,1.5,1.1,2.1,1.6l2.9,2.3
		c0.5,0.4,1,0.8,1.5,1.1l0,0c0.5,0.4,1.3,1.1,2.3,1.9l0.6,0.5c0.5,0.4,1,0.9,1.6,1.3c0.7,0.5,1.3,1,2,1.5c0.1,0.1,0.1,0.1,0.2,0.2
		c0.5,0.5,1.1,1,1.6,1.5c0.2,0.1,0.3,0.3,0.4,0.4l0.2,0.2c0.5,0.5,1,1,1.5,1.5c1.1,1.1,2.3,2,3.5,2.9c0.9,1.2,2,2.3,3.1,3.3
		c0.7,0.7,1.3,1.2,1.8,1.6c0.5,0.6,1.3,1.4,2.2,2.3c0.4,0.4,0.8,0.7,1.2,1.1c0.6,0.8,1.3,1.6,2,2.4c0.6,0.7,1.2,1.2,1.6,1.7
		c0.5,0.6,1.1,1.4,2,2.4c2.8,3.1,6.2,5.6,9.9,7.4c11.6,5.6,25.3,3.5,34.8-5.2c1.2-1.1,2.1-2,2.8-2.8c0.1-0.1,0.2-0.2,0.3-0.3
		c0.6-0.5,1.1-1,1.6-1.5c0.5-0.5,1-0.9,1.4-1.3c5.4-1.1,10.6-3.7,15-7.7c0.5-0.5,0.9-0.9,1.4-1.3l0.1-0.1c0.5-0.4,1-0.9,1.6-1.4
		c2.5-2.3,6.1-6,8.6-11.9c4.8-11.4,2.5-24.3-5.9-33.6c-0.7-0.8-1.4-1.4-1.8-1.9c0-0.1-0.1-0.1-0.1-0.2c-0.6-0.7-1.2-1.5-2-2.3
		l-0.4-0.4c-1-1.1-1.9-2-2.6-2.7c-0.2-0.2-0.4-0.4-0.6-0.6l-0.1-0.1c-0.4-0.5-1.1-1.3-2-2.3c-1.6-1.7-3.3-3.2-5.1-4.6
		c-1.2-1.6-2.6-3.2-4.1-4.6l-0.2-0.1c-0.6-0.5-1.2-1.1-1.7-1.6c-0.2-0.2-0.5-0.4-0.7-0.6l-0.2-0.2c-0.6-0.7-1.6-1.8-2.9-3
		c-2.2-2.1-4.5-3.8-6.9-5.1c-1.6-2.2-3.6-4.2-5.8-6c-0.6-0.4-1.1-0.8-1.6-1.2l-0.3-0.3c-0.7-0.5-1.3-1-1.8-1.3
		c-0.6-0.6-1.6-1.4-2.8-2.4c-0.3-0.3-0.7-0.5-1-0.8c-0.6-0.6-1.6-1.5-2.8-2.5c-2.1-1.7-4.2-3-6.5-4.1c-0.8-0.4-1.6-0.7-2.4-1
		c-2.4-2.7-5.3-5.1-8.5-7.3c-1.4-0.9-2.6-1.6-3.5-2.2c-0.7-0.4-1.1-0.7-1.4-0.9c-0.1,0-0.2-0.1-0.2-0.1c-0.5-0.4-1.3-1-2.5-1.7
		c-1.3-0.8-2.6-1.6-4-2.3c-0.7-0.3-1.3-0.6-2-0.9c-1.5-1.2-3-2.2-4.7-3.1c-0.7-0.4-1.3-0.7-2-1c-0.1-0.1-0.3-0.1-0.4-0.2
		c-0.1,0-0.1-0.1-0.2-0.1c-0.8-0.5-1.6-1-2.6-1.5l-0.5-0.2c-1.3-0.7-2.4-1.2-3.3-1.7c-0.3-0.1-0.5-0.3-0.8-0.4l-0.1,0
		c-0.5-0.3-1.4-0.9-2.6-1.5c-0.5-0.3-1.1-0.6-1.6-0.8c-3.4-1.6-6.9-2.6-10.4-3c-2.1-2.2-4.6-4.2-7.5-5.9l-0.2-0.1
		c-0.7-0.4-1.4-0.8-2.1-1.2c-0.3-0.2-0.6-0.3-0.8-0.5l-0.3-0.2c-0.8-0.5-2-1.3-3.6-2.3c-0.9-0.5-1.8-1-2.7-1.4
		c-2.2-1.1-4.4-1.8-6.5-2.3c-1.5-2-3.3-3.9-5.4-5.6c-0.5-0.4-1-0.8-1.5-1.2l-0.4-0.3c-0.5-0.5-1.2-1.1-2-1.8
		c-1.2-0.9-2.4-1.8-3.7-2.6c-1-1.1-2.1-2.1-3.3-3.1c-0.9-0.7-1.7-1.3-2.3-1.8c-0.5-0.5-1.2-1.1-1.9-1.7l-0.2-0.1
		c-0.7-0.5-1.4-1.1-2.1-1.5c-0.9-1.1-1.8-2.2-2.8-3.2l-0.1-0.1c-0.5-0.6-1.1-1.1-1.7-1.7c-0.2-0.2-0.5-0.4-0.7-0.7l-0.2-0.2
		c-0.6-0.7-1.6-1.8-2.8-3.1c-1.3-1.3-2.7-2.5-4.1-3.5c-0.5-0.8-1.1-1.5-1.7-2.3c-0.6-0.7-1.1-1.4-1.6-1.9c-0.4-0.6-0.9-1.3-1.6-2.1
		c-0.8-1-1.6-1.9-2.5-2.8c-0.7-1.1-1.4-2.1-2.2-3.1c-0.7-0.9-1.4-1.6-1.9-2.2c-0.4-0.5-0.8-1.1-1.4-1.8c0,0,0,0,0,0
		c-0.4-0.8-0.9-1.5-1.4-2.3c-0.6-0.9-1.1-1.6-1.5-2.1c0-0.1-0.1-0.1-0.1-0.2c-0.5-0.8-1-1.6-1.6-2.5l-0.3-0.5
		c-0.8-1.2-1.5-2.2-2.1-3c-0.2-0.2-0.4-0.5-0.5-0.7l0-0.1c-0.3-0.5-0.9-1.5-1.6-2.6c-1.2-1.8-2.5-3.4-4-5c-0.5-2-1.2-4-2.1-5.9
		c-0.3-0.6-0.6-1.2-0.9-1.7l-0.2-0.4c-0.4-0.8-0.7-1.4-1-2c-0.3-0.8-0.8-1.9-1.5-3.4c-0.2-0.4-0.4-0.8-0.6-1.2
		c-0.3-0.8-0.8-2-1.5-3.5c-0.8-1.7-1.7-3.2-2.6-4.5c-0.4-2.3-1.1-4.6-1.9-6.9c-0.6-1.6-1.1-2.9-1.5-3.9c-0.3-0.8-0.5-1.2-0.6-1.5
		c0-0.1-0.1-0.2-0.1-0.2c-0.2-0.6-0.5-1.6-0.9-2.9c-0.6-1.5-1.2-3-2-4.5c-0.1-2.8-0.5-5.6-1.3-8.4l-0.1-0.3
		c-0.6-2.4-1.4-5.1-2.6-7.9c0-0.7-0.1-1.5-0.2-2.2c-0.1-1.1-0.3-1.9-0.4-2.6c0-0.6-0.1-1.5-0.2-2.5c-0.3-2.6-0.9-5-1.6-7.3
		c0.2-2.3,0.1-4.5-0.1-6.6c-0.1-0.7-0.2-1.3-0.3-1.9c0-0.3-0.1-0.6-0.1-0.9c-0.1-0.7-0.2-1.4-0.2-2.2c-0.2-2.1-0.7-4.2-1.3-6.2
		c1.4-4.8,1.5-9.1,1.6-11.7l0-0.4c0.1-2.8-0.1-5.5-0.4-8.1c0.3-1.4,0.6-2.7,0.7-4.2c0.1-1.2,0.2-2.2,0.2-2.8c0-0.1,0-0.2,0-0.4
		c0.1-0.7,0.2-1.4,0.3-2.2c0.3-2.8,0.3-5.5-0.1-8c0.8-1.7,1.4-3.4,1.8-5.2c0.3-1,0.4-1.9,0.6-2.5c0.2-0.6,0.4-1.4,0.7-2.5
		c0.6-2.5,1-4.9,1.1-7.3c1-2,1.7-4.1,2.2-6.1c0.2-0.7,0.3-1.3,0.4-1.9c0.1-0.3,0.2-0.6,0.2-0.9c0.2-0.7,0.4-1.4,0.6-2.2
		c0.2-0.9,0.4-1.8,0.6-2.7c0.7-1.3,1.3-2.6,1.8-4c0,0,0.1-0.2,0.1-0.3c0.3-0.7,0.5-1.5,0.8-2.2c0.1-0.3,0.2-0.6,0.3-0.9l0.1-0.3
		c0.4-0.9,1-2.2,1.7-3.9c0.6-1.6,1.1-3.1,1.4-4.6c0.6-0.9,1.1-1.9,1.6-2.9c0.3-0.6,0.6-1.2,0.8-1.8l0.2-0.4c0.4-0.8,0.7-1.5,0.9-2
		c0.4-0.7,1-1.8,1.7-3.2c0.2-0.4,0.4-0.8,0.6-1.2c0.5-0.8,1.1-1.9,1.8-3.3c0.8-1.5,1.4-3.1,1.9-4.7c1.6-1.8,3-3.7,4.3-5.8
		c0.9-1.4,1.6-2.6,2.1-3.6c0.4-0.7,0.6-1.1,0.8-1.4c0-0.1,0.1-0.2,0.1-0.2c0.4-0.5,1-1.4,1.7-2.5c0.1-0.2,0.3-0.4,0.4-0.7
		c1-1,1.9-2.1,2.8-3.4l0.1-0.2c1.6-2.1,4.8-6.8,6.8-13.1c2.9-1.5,5.6-3.5,8-5.9c0.5-0.5,0.9-0.9,1.3-1.4l0.3-0.3
		c0.6-0.6,1.1-1.2,1.5-1.6c0.6-0.6,1.6-1.4,2.6-2.5c0.3-0.3,0.6-0.6,0.9-1c0.7-0.6,1.7-1.4,2.8-2.5c0.3-0.3,0.6-0.6,0.9-0.9
		c1.1-0.8,2.2-1.6,3.2-2.5l0.2-0.2c1.4-1.2,4-3.6,6.6-7c1.7-0.8,3.4-1.8,5-3c1-0.7,1.8-1.4,2.3-1.8c0.1-0.1,0.2-0.1,0.3-0.2
		c0.6-0.4,1.2-0.8,1.8-1.3c1.1-0.8,3.5-2.6,6-5.6c2.1-0.7,4.2-1.5,6.1-2.6c0.6-0.4,1.2-0.7,1.7-1l0.4-0.2c0.7-0.4,1.4-0.8,1.9-1.1
		c0.8-0.4,1.9-0.9,3.2-1.7c0.4-0.2,0.8-0.4,1.2-0.7c0.8-0.4,2-0.9,3.3-1.7c1-0.6,2-1.2,2.9-1.8c0.4-0.2,0.7-0.3,1-0.5
		c0.4-0.2,0.7-0.3,1.1-0.5c0.7-0.3,1.8-0.7,3.1-1.3c1.2-0.5,2.4-1.1,3.5-1.8c1.1-0.4,2.2-0.8,3.3-1.3c0.9-0.4,1.7-0.8,2.4-1.1
		c0.4-0.2,0.8-0.4,1.2-0.6l0.1,0c0.4-0.2,0.9-0.4,1.3-0.6c0.6-0.2,1.2-0.4,1.9-0.6c0.7-0.2,1.3-0.4,1.8-0.7l0.4-0.1
		c0.8-0.3,1.5-0.5,2.1-0.8c0.8-0.2,2-0.6,3.5-1.1c0.4-0.1,0.8-0.3,1.2-0.4c0.9-0.2,2.1-0.5,3.6-1.1c0.8-0.3,1.5-0.6,2.3-0.9
		c0.8-0.1,1.6-0.3,2.3-0.5c1.2-0.3,2.1-0.6,2.7-0.8c0.1,0,0.2-0.1,0.3-0.1c0.7-0.2,1.4-0.3,2.2-0.5c1-0.3,3.1-0.8,5.6-2
		c2.1,0,4.2-0.2,6.4-0.6c0.8-0.2,1.5-0.3,2.1-0.4c0.7-0.1,1.7-0.2,2.7-0.4c0.9-0.2,1.8-0.4,2.7-0.6c0.4,0,0.8,0,1.2-0.1
		c0.7-0.1,1.3-0.2,1.9-0.2l0.4,0c0.9-0.1,1.6-0.2,2.2-0.3c0.8,0,2.1-0.1,3.6-0.3c0.4,0,0.9-0.1,1.3-0.2c0.9,0,2.2-0.1,3.7-0.2
		c1.7-0.2,3.3-0.5,4.9-0.9c2.1,0.3,4,0.4,5.7,0.4c1.1,0,2-0.1,2.7-0.1l0.3,0c0.5,0,1.2,0.1,2.1,0.1c1.6,0,2.9,0,3.8-0.1
		c0.6,0,1.1,0,1.7,0c2.5,0,5-0.3,7.3-0.8c2.2,0.8,4.4,1.4,6.8,1.8c0.7,0.1,1.3,0.2,1.9,0.2l0.4,0.1c0.9,0.1,1.6,0.2,2.2,0.3
		c0.8,0.2,2.1,0.4,3.6,0.6c0.4,0.1,0.9,0.1,1.3,0.2c0.9,0.2,2.1,0.5,3.7,0.7c1.5,0.2,3,0.3,4.5,0.4c0.7,0.3,1.7,0.6,2.7,0.8
		c1.7,0.5,3.3,0.8,4.8,1c1.2,0.5,2.5,0.9,3.9,1.3c0.8,0.2,1.5,0.4,2,0.5c0.5,0.2,1.2,0.4,1.9,0.6c1.6,0.5,3.1,0.9,4.7,1.1
		c1,0.4,2.1,0.8,3.2,1c0.7,0.2,1.3,0.3,1.9,0.5c0.6,0.2,1.4,0.5,2.4,0.7c11.2,3.3,20-0.1,24.3-2.5c7.5-4.1,12.9-11.1,15.2-19.6
		c1.3-4.8,1.9-15.5,1.9-15.6c0-0.2,0-0.4,0-0.6c0.1-1.7,0-3.1,0-4.1c0-0.1,0-0.2,0-0.3c0-0.1,0-0.2,0-0.3c0.1-0.9,0.2-2.3,0.3-4
		c0.1-2,0.1-3.6,0-4.9c0-0.5,0-1.3,0-1.5c0-0.2,0-0.3,0-0.5c0-0.3,0.1-0.7,0.1-1c0.4-4.5,1.2-12.9-3.8-21.7
		c-3.2-5.6-8-10.1-13.8-12.9c-1.8-0.9-3.7-1.6-5.8-2.1c-0.6-0.2-1.3-0.3-2-0.5l-0.1,0l-0.3-0.1c-0.6-0.2-1.3-0.4-2.1-0.6
		c-1.2-0.3-2.3-0.6-3.5-0.8c-1.2-0.5-2.5-0.9-3.7-1.3c-0.9-0.2-1.7-0.4-2.3-0.5c-0.7-0.2-1.6-0.5-2.8-0.8c-3.8-1-7.3-1.3-10.4-1.1
		c-2.9-1.4-6-2.3-9.2-2.8c-1-0.1-1.9-0.2-2.6-0.3l-3.6-0.5C333.6,3,333,3,332.5,2.9l0,0c-0.7-0.1-1.7-0.3-2.9-0.5l-0.8-0.1
		c-0.6-0.1-1.3-0.2-2-0.3c-4.7-0.7-9.3-0.3-13.7,0.9c-4.2-1.9-8.7-2.9-13.4-2.8c-1.1,0-2,0.1-2.7,0.1c-0.6,0-1.1,0-1.8,0
		c-1.2,0-2.2,0-3.2,0c-0.7,0-1.5,0-2.4,0l-0.6,0c-3.4,0-6.7,0.4-9.8,1.2c-3.3-0.7-6.7-0.9-10.1-0.6c-1,0.1-1.9,0.2-2.6,0.4l-3.7,0.4
		c-0.7,0.1-1.2,0.1-1.8,0.2l0,0c-0.7,0-1.7,0.1-3,0.2L257.2,2c-0.7,0-1.3,0.1-2.1,0.2C253,2.4,251,2.8,249,3.4
		c-1.8,0-3.7,0.2-5.5,0.6c-1.3,0.2-2.3,0.5-2.9,0.7l-0.1,0l-3.1,0.6c-0.7,0.1-1.3,0.2-2.1,0.4c-0.7,0.1-1.3,0.3-1.8,0.4
		c-0.6,0.1-1.5,0.2-2.6,0.4c-2,0.4-4,1-5.9,1.7c-1.5,0.2-3,0.5-4.6,0.9c-1.2,0.3-2.2,0.6-2.9,0.9c-0.6,0.1-1.2,0.3-2,0.5
		c-1.5,0.4-3,0.9-4.4,1.5c-2.1,0.3-4.2,0.7-6.3,1.4c-1,0.3-1.8,0.6-2.5,0.9l-3.4,1.2c-0.6,0.2-1.2,0.4-1.7,0.6l0,0
		c-0.6,0.2-1.6,0.5-2.9,0.9l-0.8,0.3c-0.6,0.2-1.3,0.4-2,0.6c-2.8,0.9-5.3,2.2-7.6,3.7c-2.7,0.5-5,1.3-6.9,2.2l-7.1,3.1
		c-2.8,1.2-5.2,2.7-7.2,4.3c-2.9,0.7-5.6,1.8-8.2,3.2c-0.9,0.5-1.7,1-2.3,1.4l-3.2,1.8c-0.6,0.3-1.1,0.6-1.6,0.9l0,0
		c-0.6,0.3-1.5,0.8-2.6,1.4l-0.7,0.4c-0.6,0.3-1.2,0.6-1.8,1c-4,2.3-7.5,5.3-10.1,8.9c-4,1.1-7.9,2.9-11.5,5.5
		c-1,0.7-1.8,1.4-2.4,1.9c-0.5,0.3-1,0.7-1.7,1.2c-2.7,2-5,4.3-6.9,6.9c-0.8,0.4-1.6,0.8-2.5,1.2c-0.8,0.4-1.6,0.9-2.4,1.4
		c-2.5,1.6-6.5,4.8-6.5,4.9c-1.8,1.5-3.4,3.2-4.8,5c-1.3,1-2.6,2-3.7,3.2c-0.7,0.7-1.3,1.4-1.8,1.9l-2.6,2.6
		c-0.5,0.5-0.9,0.9-1.3,1.3l0,0c-0.5,0.5-1.2,1.1-2.2,2.1l-0.6,0.6c-0.5,0.4-1,0.9-1.5,1.4c-4.4,4.4-7.2,9.6-8.5,15.1
		c-2.8,1.4-5.5,3.3-8.3,5.6c-0.7,0.6-1.4,1.2-2.1,1.9c-2.1,2.1-5.2,6.1-5.3,6.2c-1.4,1.8-2.6,3.8-3.5,5.8c-1.1,1.3-2.1,2.7-3.1,4.1
		c-0.7,1.1-1.2,2.1-1.6,2.9c-0.4,0.6-0.9,1.3-1.5,2.2c-0.7,1.1-1.3,2.2-1.8,3.4c-0.7,0.9-1.3,1.8-1.9,2.7c-0.7,1.1-1.2,2-1.5,2.8
		c0,0,0,0,0,0c-0.4,0.5-0.9,1.3-1.5,2.3l0,0.1c-1,1.7-1.9,3.4-2.6,5.2c-1.1,1.6-2.2,3.2-3.1,5c-0.4,0.9-0.8,1.7-1.1,2.4l-1.6,3.3
		c-0.3,0.6-0.5,1.1-0.8,1.6l0,0c-0.3,0.6-0.8,1.5-1.4,2.6l-0.4,0.7c-0.3,0.6-0.6,1.2-1,1.8c-0.8,1.5-1.4,3.1-1.9,4.7
		C24.4,175.3,23.6,177,22.9,178.8z"/>
	<path class="st1" d="M336.8,61.8c0.9-1.7,1.4-2.9,2.3-4.7c1-2.2,1.9-3.7,3.2-5.8c0.8-1.3,1.3-2.2,2-3.5c0.6-1,0.8-1.8,1.3-2.8
		c0.7-1.2,1.2-2,1.9-3.3c0.6-1.1,1-1.9,1.7-3c0.6-0.9,1.1-1.7,1.6-1.9c0.6-0.2,1-0.1,1.4,0c1.2,0.3,2,0.6,3.2,1
		c0.7,0.2,1.2,0.2,1.9,0.4c0.6,0.2,0.8,0.5,0.9,0.9c0,0.1,0,0.4,0,0.4c0,0.1-0.2,4.4-0.2,4.4c0,0.8-0.1,1.4-0.1,2.1
		c0,0.1-0.1,1.5,0.3,1.7c0.6,0.3,1.3-1.2,1.9-2.2c0.8-1.2,1.3-2.1,2.1-3.4c0.4-0.6,0.9-1.5,1-1.5c0.2-0.2,0.2-0.2,0.5-0.4
		c0.2-0.1,0.6-0.1,1,0c1,0.3,1.6,0.5,2.5,0.7c0.6,0.2,1.3,0.3,2,0.5c0.8,0.2,1.1,0.5,1.4,1c0.4,0.7,0,3.3-0.2,5.6
		c-0.3,3,0,5.1-0.2,8.1c0,1.8-0.3,3-0.3,4.7c0,1.5,0.1,2.6,0,4c0,0.7-0.7,8.8-0.9,9.4c-0.5,1.9-1.7,1.3-2.3,1.1
		c-1.1-0.3-1.9-0.7-3-0.9c-0.6-0.2-1.1-0.2-1.7-0.4c-1.8-0.5-1.3-2.7-1.1-3.7c0.1-0.8,0.1-1.4,0.2-2.3c0.2-3,0.1-5.1,0.2-8.1
		c0.1-1.4,0.2-4,0.2-4.1c-0.1-0.2-0.1-0.2-0.2-0.2c-0.5-0.1-0.4,0.3-0.7,0.7c-0.2,0.2-0.7,1.2-0.8,1.4c-0.7,1.3-1.2,2.2-2,3.5
		c0,1.2,0,2.4-0.1,3.7c-0.1,1.2-0.2,2.1-0.3,3.4c0,0.9,0,2-0.2,2.9c-0.5,1.7-2.1,1-2.3,0.9c-1-0.3-1.7-0.6-2.7-0.9
		c-0.8-0.2-1.3-0.3-2.1-0.5c-1.8-0.5-1.4-1.4-1-3.5c0.2-0.8,0.2-1.4,0.3-2.3c0.4-3.4,0.4-5.9,1-9.3c0.2-1.2,0.6-3.1,0.2-3.2
		c-0.5-0.1-1.1,1.8-1.6,2.9c-0.6,1.3-1.2,2.2-1.8,3.5c-0.5,1.3-0.8,2.2-1.4,3.5c-0.5,1-0.9,1.7-1.3,2.7c0,0.1-0.9,2.7-1,2.8
		c0,0.1-0.2,0.5-0.6,0.8c-0.5,0.3-0.8,0.2-1.6,0c-0.9-0.2-1.5-0.6-2.4-0.8c-0.8-0.2-1.3-0.3-2.1-0.5c-0.8-0.2-2.4-0.5-2-2
		C335.2,64.6,336,63.3,336.8,61.8z"/>
	<path class="st1" d="M320,35.3c0.1-0.8,0.2-1.4,0.3-2.1c0.1-0.6,0.5-1.8,2.1-1.5c0.7,0.1,1.1,0.2,1.8,0.3l1.1,0.2
		c1.1,0.2,1.9,0.4,3,0.5c0.7,0.1,1.1,0.1,1.8,0.2l5,0.7c0.5,0,0.8,0,1.3,0.1c0.6,0.1,1.9,0.6,1.6,2.2c-0.2,1.2-0.4,2.1-0.6,3.3
		c-0.2,1.1-0.2,1.9-0.4,3c-0.1,0.8-0.3,1.4-0.5,2.2c-0.1,0.8-0.1,1.4-0.2,2.1c-0.2,1.5-0.5,2.6-0.7,4.1c-0.2,1.4-0.3,2.8-0.5,4.1
		c-0.2,1.9-0.6,3.2-0.8,5.1c-0.2,1.3-0.2,2.3-0.4,3.6c-0.4,2.7-0.8,3.4-2.9,3.1c-1.2-0.2-2.1-0.5-3.3-0.7c-0.6-0.1-1.2-0.1-1.7-0.2
		c-1.5-0.2-2.5-0.5-4-0.7c-0.7-0.1-1.1-0.1-1.8-0.2l-0.9-0.1c-0.5-0.1-0.9-0.1-1.4-0.2c-1.4-0.2-1.3-1.3-1.3-1.8
		c0.1-0.8,0.4-1.6,0.5-2.3c0.2-1.3,0-3.6,2.3-3.2l0.5,0.1c0.6,0.1,1,0.1,1.5,0.2c0.7,0.1,1.2,0.3,2,0.4c2.6,0.4,2.8-0.4,3-2
		c0.2-1.6-0.2-2.5-1.3-2.7c-0.5-0.1-0.9,0-1.4-0.1l-0.1,0c-0.7-0.1-1.1-0.3-1.8-0.4c-0.6-0.1-1-0.1-1.5-0.2
		c-1.9-0.3-1.6-1.6-1.5-2.2c0.1-0.7,0.2-1.2,0.3-1.9c0.1-0.7,0.1-1.2,0.2-1.9c0.3-1.8,1.6-1.7,2.2-1.6c1.4,0.2,2.4,0.5,3.8,0.7
		c2.6,0.4,2.6-1.2,2.7-2.2l0.1-0.6c0-0.2,0.2-1.1,0.1-1.4c-0.5-1.4-1.2-1.2-2.9-1.6c-0.8-0.2-1.4-0.4-2.2-0.5c-0.7-0.1-1.3,0-2-0.1
		c-0.5-0.1-1.7-0.5-1.5-2C319.7,36.6,319.8,36.1,320,35.3z"/>
	<path class="st1" d="M280.4,35.9c0.1-0.4,0.3-1,0.5-1.4c0-0.1,0.2-0.5,0.5-0.8c1.2-1.7,4-3.6,7.9-3.6l0.6,0c2.1,0,3.5-0.1,5.5-0.1
		c0.8,0,1.3,0,2.1,0c0.9,0,1.5-0.1,2.4-0.1c1.9,0,1.8,1.8,1.8,2.2c0,1.1-0.1,1.9-0.1,3c0,1.8,0.2,3,0.2,4.7c0,1.2,0.1,2.1,0.1,3.3
		c0,1.1-0.1,2.3-0.2,3.5c0,2.1,0.2,3.5,0.2,5.6c0,1.5-0.2,2.5-0.2,3.9c0,1.5,0.2,2.7,0.3,4.2c0,2.7-1.3,2.7-2.7,2.7
		c-0.7,0-1.3,0-2,0c-1.1,0-1.8,0.1-2.9,0.1c-0.8,0-1.3-0.1-2.2-0.1l-1.7,0c-0.7,0-1.2,0.1-1.9,0.1c-1,0-3.5-0.4-4.5-1
		c-0.5-0.3-1.3-1.2-1.3-1.3c-0.4-0.4-0.7-0.6-1.1-1.5c-0.3-0.7-0.4-1.5-0.6-2.1c-0.1-0.3-0.4-1.2-0.4-2.1c0-0.8,0-1.3,0-2
		c0-1.3,0.9-3.1,2.1-4.3c0.3-0.3,0.7-0.5,1-0.8c0,0,0.3-0.1,0.3-0.3c0-0.3-0.5-0.4-0.8-0.7c-0.6-0.5-1.2-0.8-2.1-2.2
		c-0.8-1.3-1.4-3-1.4-5.8C279.5,37.6,280.1,36.7,280.4,35.9z M291.4,43.7l0.3,0c0.3,0,0.6-0.1,0.9-0.3c0.5-0.2,0.6-0.6,0.7-0.8
		c0-0.1,0.1-2.8,0.1-3c0-1,0.1-2.4-2.3-2.4c-1.2,0-2.7,0.9-2.7,3.2C288.5,43,290.3,43.7,291.4,43.7z M291.8,56.8
		c0.3,0,0.6,0,0.8-0.1c1-0.5,0.9-1.7,0.9-1.7c0-1.4,0.2-3.5-2.2-3.5c-1.7,0-2.5,1.2-2.5,2.7C288.9,55.3,289.4,56.8,291.8,56.8z"/>
	<path class="st1" d="M256.8,36.2c-0.1-0.8-0.2-1.3-0.3-2.1c-0.1-0.6,0-1.8,1.6-2c0.7-0.1,1.1-0.1,1.8-0.1l1.1-0.1
		c1.1-0.1,1.9-0.1,3-0.2c0.7-0.1,1.1-0.2,1.8-0.2l5-0.5c0.5-0.1,0.8-0.2,1.3-0.2c0.6-0.1,1.9,0.1,2.1,1.8c0.1,1.2,0.1,2.1,0.2,3.3
		c0.1,1.1,0.2,1.9,0.4,3c0.1,0.8,0,1.4,0.1,2.2c0.1,0.8,0.2,1.3,0.3,2.1c0.2,1.5,0.2,2.6,0.3,4.2c0.1,1.4,0.4,2.7,0.5,4.1
		c0.2,1.9,0.2,3.3,0.4,5.2c0.1,1.4,0.3,2.3,0.5,3.6c0.3,2.7,0,3.5-2.1,3.7c-1.2,0.1-2.1,0-3.3,0.2c-0.6,0.1-1.2,0.2-1.7,0.2
		c-1.5,0.2-2.6,0.1-4.1,0.3c-0.7,0.1-1.1,0.2-1.8,0.3l-0.9,0.1c-0.5,0.1-0.9,0.1-1.4,0.2c-1.4,0.1-1.6-1-1.7-1.4
		c-0.1-0.8,0-1.6-0.1-2.4c-0.1-1.3-0.9-3.4,1.5-3.7l0.5-0.1c0.6-0.1,1-0.1,1.5-0.2c0.7-0.1,1.3,0,2.1-0.1c2.6-0.3,2.6-1.1,2.4-2.7
		c-0.2-1.6-0.8-2.4-1.9-2.3c-0.5,0.1-0.9,0.2-1.4,0.2l-0.1,0c-0.7,0.1-1.2,0-1.8,0.1c-0.6,0.1-1,0.1-1.5,0.2c-1.9,0.2-2-1.1-2-1.8
		c-0.1-0.7-0.1-1.2-0.2-2c-0.1-0.7-0.2-1.2-0.2-1.9c-0.2-1.8,1.2-2.1,1.8-2.1c1.4-0.1,2.4-0.1,3.9-0.2c2.6-0.3,2.2-1.8,2.1-2.8
		l-0.1-0.6c0-0.2-0.1-1.1-0.2-1.4c-0.8-1.2-1.4-0.8-3.1-0.8c-0.8,0-1.4,0-2.3,0c-0.7,0.1-1.2,0.3-1.9,0.3c-0.5,0-1.8-0.1-2-1.5
		C256.9,37.5,256.9,37,256.8,36.2z"/>
	<path class="st1" d="M235.3,38.2L235.3,38.2c-0.1-0.6-0.7-2,1.1-2.4c0.9-0.2,1.5-0.2,2.3-0.3c0.8-0.1,1.3-0.3,2.1-0.4
		c0.8-0.1,1.3-0.2,2-0.3l3.5-0.7c1-0.2,1.7-0.4,2.7-0.6c1.7-0.3,2,0.9,2.1,1.5l0.1,0.4c0.3,1.7,0.4,2.9,0.7,4.6
		c0.3,1.8,0.7,3.1,1.1,5c0.3,1.5,0.3,2.5,0.6,4c0.2,1.2,0.5,1.9,0.7,3c0.1,0.7,0.2,1.5,0.3,2.2c0.2,1.2,0.5,2,0.7,3.1
		c0.2,1.2,0.2,2,0.4,3.1c0.2,1.2,0.5,2.3,0.8,3.5l0,0.2c0.1,0.5,0.4,1.9-1.3,2.2c-0.8,0.2-1.5,0.1-2.3,0.3c-0.8,0.2-1.6,0.4-2.5,0.6
		c-0.8,0.2-2,0.4-2.2-1c-0.1-0.6-0.1-1-0.2-1.6c-0.2-1.3-0.3-2.2-0.5-3.5c-0.2-1.2-0.5-2.1-0.7-3.3c-0.2-0.9-0.3-1.9-0.4-2.8
		c-0.1-0.7-0.4-1.5-0.6-2.2c-0.3-1.3-0.3-2.3-0.6-3.7c-0.2-0.8-0.4-1.4-0.5-2.3c-0.1-0.4-0.1-0.8-0.2-1.2c-0.5-2.4-2.3-2.3-3.1-2.1
		c-0.8,0.1-1.3,0.2-2.1,0.4c-0.4,0.1-0.6,0.2-1,0.2c-0.4,0.1-1,0.1-1.5-0.2c-0.7-0.4-1.1-3-1.2-3.6
		C235.4,39.4,235.4,38.9,235.3,38.2z"/>
	<path class="st1" d="M223.1,39.3c0.7-0.2,1.2-0.2,1.9-0.4c1.1-0.3,1.9-0.6,3-0.9c2.3-0.6,2.4,0.4,2.7,1.5l0.5,1.9
		c0.3,1,0.3,1.9,0.6,2.9l0.5,1.9c0.6,2.3,1.2,3.9,1.7,6.1l1.5,5.6c0.5,1.8,0.7,3.1,1.1,4.8l0.8,3.1c0.2,0.8,0.5,1.3,0.7,2.1
		c0.4,1.5-0.6,1.8-1.6,2.1c-1,0.3-1.8,0.4-2.9,0.7c-0.9,0.2-1.5,0.5-2.4,0.7c-1,0.2-1.4-0.9-1.5-1.4c-0.2-0.7-0.2-1.2-0.4-2
		c-0.3-1.1-0.5-1.9-0.8-3l-1.8-7c-0.3-1-0.4-1.8-0.6-2.8l-0.6-2.2c-0.5-1.8-1-3-1.4-4.8c-0.4-1.4-0.5-2.4-0.8-3.7
		c-0.3-1.3-0.7-2.1-1.1-3.4C221.9,40.6,221.7,39.7,223.1,39.3z"/>
	<path class="st1" d="M200.7,50.5c-0.3-0.8-0.5-1.3-0.7-2c-0.2-0.5-0.4-1.8,1.1-2.3c0.6-0.2,1.1-0.3,1.7-0.5l1.1-0.4
		c1.1-0.4,1.9-0.5,2.9-0.9c0.6-0.2,1.1-0.4,1.7-0.6l4.8-1.6c0.4-0.2,0.7-0.3,1.2-0.5c0.5-0.2,1.9-0.3,2.5,1.3c0.4,1.2,0.5,2,0.9,3.2
		c0.4,1.1,0.6,1.8,1,2.8c0.3,0.8,0.3,1.4,0.6,2.1c0.3,0.8,0.5,1.3,0.8,2c0.5,1.5,0.8,2.5,1.2,4c0.5,1.3,1,2.6,1.4,3.9
		c0.7,1.8,1,3.1,1.6,5c0.4,1.3,0.8,2.1,1.2,3.4c0.9,2.6,0.8,3.4-1.2,4.1c-1.2,0.4-2.1,0.5-3.2,0.9c-0.5,0.2-1.1,0.4-1.6,0.6
		c-1.4,0.5-2.5,0.7-3.9,1.2c-0.6,0.2-1,0.4-1.7,0.7l-0.9,0.3c-0.5,0.2-0.8,0.3-1.4,0.5c-1.4,0.5-1.8-0.6-1.9-1
		c-0.3-0.8-0.4-1.6-0.6-2.3c-0.4-1.2-1.6-3.2,0.6-3.9l0.5-0.2c0.5-0.2,0.9-0.4,1.5-0.5c0.7-0.2,1.2-0.3,2-0.5
		c2.4-0.8,2.3-1.6,1.8-3.1c-0.5-1.5-1.3-2.1-2.3-1.8c-0.5,0.2-0.8,0.4-1.3,0.5l-0.1,0c-0.7,0.2-1.1,0.3-1.8,0.5
		c-0.5,0.2-0.9,0.4-1.4,0.5c-1.8,0.6-2.2-0.7-2.4-1.3c-0.2-0.7-0.3-1.2-0.6-1.9c-0.2-0.7-0.4-1.1-0.6-1.8c-0.6-1.7,0.7-2.3,1.3-2.5
		c1.4-0.5,2.4-0.6,3.7-1.1c2.4-0.8,1.8-2.2,1.5-3.2l-0.2-0.5c-0.1-0.2-0.4-1.1-0.5-1.3c-1-1-1.6-0.5-3.3-0.1
		c-0.8,0.2-1.4,0.3-2.2,0.5c-0.7,0.2-1.2,0.5-1.8,0.8c-0.4,0.2-1.7,0.3-2.2-1.1C201,51.7,201,51.2,200.7,50.5z"/>
	<path class="st1" d="M187.2,83c-0.3-1.3-0.7-2.2-1.2-3.5c-0.2-0.5-0.2-0.8-0.3-1.3c-0.1-0.4-0.3-0.6-0.4-1
		c-0.3-1.2-0.4-2.1-0.7-3.4c-0.2-1.2-0.6-2.1-0.9-3.3c-0.3-1-0.4-1.8-0.7-2.8c-0.3-1.2-0.7-2.1-0.9-3.3c-0.3-1.5-0.4-2.5-0.7-4
		c-0.4-2.2-1.1-4.1-0.7-5c0.3-0.6,0.9-0.8,1.4-1l7.1-3.2c0.6-0.3,0.8-0.2,1.3,0c0.9,0.4,5.5,7.4,5.9,8c1.4,1.9,2.4,3.2,3.7,5.2
		c0.3,0.5,0.5,0.9,0.8,1.4c1,1.4,1.8,2.3,2.8,3.8c1,1.5,1.6,2.6,2.6,4.1c1.3,1.9,1.5,2,2.1,3.3c0.3,0.6,0.7,1.7-0.4,2.2
		c-0.6,0.3-1.2,0.5-1.8,0.8c-1.4,0.6-2.4,1.1-3.8,1.8c-1.5,0.7-1.8-0.8-2.8-2.5c-0.9-1.6-1.6-2.5-2.5-4.1c-0.6-1.2-1-2.1-1.7-3.3
		c-0.7-1.3-1.4-2.1-2.1-3.4c-0.5-0.9-0.9-1.6-1.4-2.5c0,0-1.2-2.3-1.7-2c-0.5,0.3,0.9,3.1,1.4,4.8c0.4,1.3,0.5,2.1,0.9,3.4
		c0.6,1.7,1.2,2.9,1.8,4.7c0.5,1.5,0.7,2.6,1.2,4.1c0.3,1,0.8,2.3,0.8,2.6c0,0.4,0,1-0.7,1.3c-1,0.5-1.8,0.7-2.8,1.1
		c-0.7,0.3-1.2,0.6-2,0.9c-0.5,0.2-0.8,0.4-1.2,0.6c-1,0.4-1.4-0.2-1.5-0.6C187.5,85.6,187.4,84.1,187.2,83z"/>
	<path class="st1" d="M157.3,71.7c-0.4-0.7-0.7-1.2-1.1-1.9c-0.3-0.5-0.7-1.7,0.7-2.5c0.6-0.3,1-0.5,1.6-0.8l1-0.6
		c1-0.6,1.7-0.9,2.7-1.4c0.6-0.3,1-0.6,1.5-0.9l4.4-2.5c0.4-0.3,0.6-0.5,1.1-0.7c0.5-0.3,1.8-0.7,2.6,0.8c0.6,1.1,0.9,1.9,1.5,3
		c0.6,1,1,1.6,1.5,2.6c0.4,0.7,0.6,1.3,1,2s0.7,1.1,1.1,1.8c0.8,1.3,1.2,2.3,2,3.7c0.7,1.2,1.4,2.4,2.1,3.6c1,1.7,1.5,2.9,2.5,4.6
		c0.7,1.2,1.2,2,1.9,3.1c1.3,2.4,1.4,3.2-0.4,4.3c-1.1,0.6-1.9,0.9-3,1.5c-0.5,0.3-1,0.6-1.5,0.9c-1.3,0.7-2.3,1.1-3.6,1.9
		c-0.6,0.3-0.9,0.6-1.5,1l-0.8,0.5c-0.4,0.3-0.8,0.5-1.2,0.8c-1.3,0.7-1.9-0.2-2.1-0.7c-0.4-0.7-0.7-1.5-1.1-2.2
		c-0.6-1.1-2.2-2.8-0.1-4l0.4-0.3c0.5-0.3,0.8-0.5,1.3-0.8c0.7-0.4,1.2-0.5,1.9-0.9c2.2-1.3,1.9-2,1.2-3.4c-0.8-1.4-1.7-1.8-2.6-1.3
		c-0.4,0.3-0.7,0.5-1.2,0.8l-0.1,0c-0.6,0.3-1.1,0.5-1.6,0.8c-0.5,0.3-0.8,0.5-1.3,0.8c-1.7,0.9-2.2-0.2-2.6-0.8
		c-0.4-0.7-0.6-1.1-0.9-1.7c-0.3-0.6-0.6-1-1-1.6c-0.9-1.6,0.2-2.3,0.8-2.6c1.3-0.7,2.2-1,3.5-1.7c2.2-1.3,1.3-2.5,0.8-3.4l-0.3-0.5
		c-0.1-0.2-0.6-1-0.8-1.2c-1.2-0.8-1.6-0.2-3.2,0.5c-0.8,0.3-1.3,0.5-2.1,0.9c-0.7,0.4-1,0.7-1.6,1.1c-0.4,0.2-1.6,0.6-2.4-0.6
		C157.9,72.9,157.7,72.4,157.3,71.7z"/>
	<path class="st1" d="M134.3,82.9c0.6-0.4,1-0.6,1.6-1.1c0.9-0.7,1.5-1.3,2.4-1.9c1.9-1.4,2.4-0.5,3.1,0.4l1.1,1.5
		c0.6,0.9,1,1.6,1.6,2.5l1.1,1.5c1.4,1.9,2.5,3.2,3.9,5.1l3.4,4.7c1.1,1.5,1.7,2.6,2.8,4.1l1.9,2.6c0.5,0.6,0.9,1,1.4,1.7
		c0.9,1.2,0.1,1.9-0.8,2.5c-0.9,0.6-1.5,1.1-2.4,1.7c-0.7,0.5-1.2,1-1.9,1.5c-0.8,0.6-1.6-0.3-1.9-0.7c-0.4-0.6-0.7-1.1-1.1-1.7
		c-0.7-1-1.2-1.6-1.9-2.5l-4.3-5.9c-0.6-0.9-1-1.5-1.6-2.4l-1.4-1.9c-1.1-1.5-2-2.4-3.1-3.9c-0.8-1.1-1.3-2-2.1-3.1
		c-0.8-1.1-1.5-1.7-2.2-2.7C133.6,84.4,133.2,83.7,134.3,82.9z"/>
	<path class="st1" d="M135.2,119.8c-0.9-1-1.5-1.7-2.3-2.6c-0.2-0.2-1.3-1.4,0-2.4c0.5-0.4,1-0.5,1.4-0.9c0.2-0.2,1.2-1.9,1.2-2.3
		c0.4-1.9-0.9-4.3-3.1-6.8c-1.9-2.2-3.6-3.2-5.3-3.2c-0.2,0-2.4,0.1-3.3,0.9c-0.4,0.3-0.5,0.7-0.8,1c-0.1,0.1-0.5,0.3-1.1,0.2
		c-0.3-0.1-0.5-0.3-0.9-0.7c-0.6-0.7-0.9-1.2-1.4-1.8c-0.8-0.9-1.4-1.5-2.1-2.4c-1.3-1.5-0.1-2.5,0.3-2.9c0.3-0.2,2.8-2.2,3.1-2.3
		c0.1,0,2.3-1.3,4.1-1.5c1.6-0.2,3.2,0.2,3.7,0.2c0.3,0.1,1.4,0.3,1.7,0.4c0.2,0,3.3,1.3,4.7,2.4c0.7,0.6,1.7,1.7,2.3,2.3
		c1,1,1.8,1.7,2.7,2.8c2.3,2.7,3.9,5.9,4.3,7c0.2,0.5,1.1,2.8,0.7,5.4c0,0.3-1,3.7-1.1,3.9c-0.6,1.5-2.4,3.6-3.5,4.5l-0.3,0.2
		c-0.9,0.7-2.1,2-3.3,0.6C136.2,121.1,135.8,120.5,135.2,119.8z"/>
	<path class="st1" d="M102.7,116.4c-0.6-0.6-1-0.9-1.6-1.5c-0.4-0.4-1.2-1.4,0-2.6c0.5-0.5,0.8-0.8,1.3-1.2l0.8-0.8
		c0.8-0.8,1.4-1.3,2.2-2.1c0.5-0.5,0.8-0.8,1.2-1.3l3.5-3.6c0.3-0.4,0.5-0.6,0.8-1c0.4-0.4,1.6-1.1,2.8,0c0.9,0.9,1.4,1.6,2.3,2.4
		c0.8,0.8,1.4,1.3,2.2,2.1c0.6,0.6,0.9,1.1,1.5,1.7c0.6,0.6,1,0.9,1.6,1.5c1.1,1.1,1.8,1.9,2.9,3c1,1,2,1.9,3,2.9
		c1.4,1.3,2.3,2.4,3.6,3.7c1,1,1.7,1.6,2.6,2.5c1.9,1.9,2.3,2.7,0.8,4.2c-0.9,0.9-1.6,1.4-2.5,2.2c-0.4,0.4-0.8,0.9-1.2,1.3
		c-1.1,1.1-1.9,1.7-3,2.8c-0.5,0.5-0.7,0.9-1.2,1.3l-0.7,0.7c-0.4,0.4-0.6,0.7-1,1.1c-1,1-1.9,0.3-2.2-0.1c-0.6-0.6-1-1.2-1.6-1.8
		c-0.9-0.9-2.9-2.1-1.2-3.8l0.4-0.4c0.4-0.4,0.7-0.7,1.1-1.1c0.5-0.5,1-0.8,1.6-1.4c1.8-1.8,1.3-2.5,0.2-3.6
		c-1.1-1.1-2.1-1.3-2.9-0.6c-0.4,0.4-0.6,0.7-0.9,1.1l-0.1,0.1c-0.5,0.5-0.9,0.8-1.4,1.2c-0.4,0.4-0.7,0.7-1,1.1
		c-1.4,1.4-2.2,0.4-2.7-0.1c-0.5-0.5-0.8-0.9-1.4-1.4c-0.5-0.5-0.9-0.8-1.4-1.3c-1.3-1.3-0.4-2.3,0-2.8c1-1,1.9-1.6,2.9-2.6
		c1.8-1.8,0.6-2.8-0.1-3.5l-0.4-0.4c-0.2-0.2-0.8-0.8-1.1-0.9c-1.4-0.5-1.6,0.2-2.9,1.4c-0.7,0.5-1.1,0.9-1.7,1.5
		c-0.5,0.5-0.8,1-1.3,1.5c-0.3,0.3-1.4,1.1-2.5,0C103.5,117.4,103.2,117,102.7,116.4z"/>
	<path class="st1" d="M101.9,157.6c-1-0.8-1.8-1.3-2.8-2.1c-0.2-0.2-1.5-1.1-0.6-2.4c0.4-0.5,0.8-0.7,1.2-1.2
		c0.2-0.2,0.7-2.1,0.7-2.5c0-1.9-1.8-4-4.5-6c-2.3-1.7-4.2-2.3-5.9-2c-0.2,0-2.3,0.7-3,1.6c-0.3,0.4-0.3,0.7-0.6,1.1
		c-0.1,0.1-0.4,0.4-1,0.4c-0.3,0-0.6-0.2-1-0.5c-0.7-0.5-1.1-1-1.8-1.5c-0.9-0.7-1.7-1.1-2.6-1.9c-1.6-1.2-0.6-2.4-0.3-2.9
		c0.2-0.3,2.2-2.7,2.5-3c0.1,0,2-1.8,3.7-2.4c1.5-0.5,3.2-0.5,3.7-0.6c0.3,0,1.4,0,1.8,0c0.2,0,3.5,0.6,5.1,1.3
		c0.8,0.4,2,1.3,2.8,1.8c1.2,0.8,2.1,1.3,3.2,2.2c2.8,2.2,5.1,4.9,5.7,5.9c0.3,0.4,1.7,2.5,1.8,5.1c0,0.3-0.2,3.9-0.2,4.1
		c-0.2,1.6-1.6,4-2.5,5.2l-0.2,0.3c-0.7,0.9-1.6,2.4-3.1,1.3C103.1,158.6,102.7,158.1,101.9,157.6z"/>
	<path class="st1" d="M64.5,162.1l0.1-0.2c0.4-0.7,0.8-1.1,1.2-1.7c0.5-0.8,0.8-1.3,1.2-2.1c0.3-0.4,0.4-0.8,0.7-1.2
		c0.8-1.3,1.9-0.8,3-0.6c1.2,0.2,2.1,0.1,3.2,0.3c0.8,0.1,1.3,0.3,2.2,0.3c0.8,0.1,1.5,0.2,1.8-0.2c0.4-0.6-0.5-1-0.7-1.1
		c-0.8-0.5-1.4-0.8-2.1-1.3c-0.6-0.4-1-0.7-1.6-1c-0.6-0.3-1-0.5-1.6-0.9c-0.9-0.5-0.8-1.2-0.5-1.6c0.5-0.8,1-1.4,1.6-2.2
		c0.6-1,0.9-1.9,1.5-2.8c0.5-0.9,1.4-0.9,2.2-0.4c0.6,0.4,0.9,0.7,1.5,1.1c1,0.7,1.7,1.1,2.7,1.8c2,1.2,3.5,1.9,5.5,3.2
		c2,1.3,3.4,2.3,5.5,3.6c1.3,0.8,2.3,1.3,3.6,2.1c1.4,0.9,2.3,1.6,3.7,2.4c0.8,0.5,1.5,0.8,2.3,1.3c0.8,0.5,1.9,1.5,0.7,3.4
		c-0.5,0.8-0.9,1.3-1.5,2.2c-1.3,2-2,3.5-3.3,5.5c-1.4,2.3-3.8,5.2-8,5.1c-0.3,0-0.8-0.1-1.1-0.2c-0.4-0.1-0.9-0.1-1.7-0.3
		c-1.1-0.3-3.9-1.9-4.8-2.4c-0.6-0.4-4.2-2.5-5.5-6.4c-0.2-0.4-0.2-0.8-0.4-1.2c-0.1-0.3,0-0.6-0.1-0.9c0-0.1-0.1-0.3-0.3-0.4
		c-0.6-0.3-4.1-0.5-4.9-0.6c-0.7-0.1-1.2-0.2-1.9-0.3c-1.2-0.1-2.1-0.1-3.2-0.3c-0.2-0.1-0.5-0.1-0.9-0.3
		C63.8,163.2,64.5,162.2,64.5,162.1z M91.6,166.6l0.1-0.2c0.1-0.3,0.2-0.6,0.2-0.9c-0.1-0.7-0.5-1.1-0.6-1.2
		c-0.1-0.1-3.2-2.2-3.4-2.3c-1-0.6-2.3-0.7-3,0.5c-0.3,0.6-0.4,1.1-0.3,1.4c0.2,1,1.3,1.9,2.9,2.9C88.5,167.6,90.6,168.2,91.6,166.6
		z"/>
	<path class="st1" d="M56.9,185.6c-0.7-0.4-1.2-0.6-2-0.9c-0.5-0.2-1.6-1-0.8-2.4c0.3-0.6,0.5-1,0.8-1.6l0.5-1
		c0.5-1,0.9-1.7,1.4-2.7c0.3-0.6,0.5-1,0.7-1.6l2.2-4.5c0.2-0.4,0.3-0.8,0.5-1.2c0.2-0.5,1.1-1.6,2.6-0.9c1.1,0.5,1.8,1.1,2.9,1.6
		c1,0.5,1.7,0.8,2.7,1.3c0.7,0.4,1.2,0.7,1.9,1.1c0.7,0.4,1.3,0.5,2,0.9c1.4,0.7,2.3,1.2,3.7,1.9c1.3,0.6,2.5,1.1,3.8,1.8
		c1.7,0.8,2.9,1.5,4.6,2.4c1.2,0.6,2.1,0.9,3.3,1.5c2.4,1.2,3,1.8,2.1,3.7c-0.5,1.1-1.1,1.8-1.6,2.9c-0.2,0.5-0.5,1.1-0.7,1.6
		c-0.7,1.3-1.3,2.3-1.9,3.6c-0.3,0.6-0.4,1.1-0.7,1.6l-0.4,0.8c-0.2,0.5-0.4,0.8-0.6,1.3c-0.6,1.3-1.7,0.8-2.1,0.6
		c-0.7-0.4-1.4-0.8-2.1-1.2c-1.1-0.6-3.4-1.1-2.3-3.2l0.2-0.5c0.2-0.5,0.4-0.9,0.6-1.4c0.3-0.7,0.7-1.1,1-1.8c1.1-2.3,0.5-2.8-1-3.5
		c-1.4-0.7-2.4-0.6-2.9,0.4c-0.2,0.5-0.3,0.8-0.5,1.3l0,0.1c-0.3,0.6-0.6,1-0.9,1.6c-0.2,0.5-0.4,0.9-0.6,1.4
		c-0.9,1.7-2,1.1-2.6,0.8c-0.7-0.3-1.1-0.6-1.7-0.9c-0.6-0.3-1.1-0.5-1.7-0.8c-1.6-0.8-1.1-2.1-0.9-2.6c0.6-1.3,1.2-2.1,1.9-3.4
		c1.1-2.3-0.3-2.8-1.2-3.3l-0.5-0.2c-0.2-0.1-1-0.5-1.3-0.5c-1.5,0-1.5,0.7-2.4,2.2c-0.5,0.7-0.8,1.2-1.2,1.9
		c-0.3,0.7-0.4,1.2-0.7,1.8c-0.2,0.4-1,1.5-2.3,0.8C58,186.3,57.6,186,56.9,185.6z"/>
	<path class="st1" d="M43.8,208.1c0.4-1.1,0.8-1.7,1.2-2.8c0.3-0.9,0.5-1.5,0.8-2.4c0.6-1.6,1.7-0.9,2.2-0.8c0.4,0.1,2.9,1,3.4,0.7
		c0.3-0.1,0.1-0.1,0.4-0.3c0.1-0.1,0.8-1.7,1.1-2.7c0.6-1.7,0.1-1.7-0.8-2.2c-0.3-0.2-2.8-1.2-3.1-1.6c-0.3-0.5-0.4-0.8-0.1-1.5
		c0.3-0.8,0.6-1.4,0.9-2.2c0.3-0.9,0.6-1.8,1-2.6c0.3-0.8,0.7-1.6,1.9-1.2c0.4,0.1,1.1,0.6,2,1.2c1.1,0.6,1.8,0.9,2.9,1.6
		c0.9,0.6,1.6,1,2.5,1.6c1.3,0.8,2.3,1.2,3.7,2.1c1.4,0.8,2.2,1.4,3.6,2.1c1,0.5,1.7,0.8,2.7,1.4c1.1,0.7,1.9,1.3,3,1.9
		c1.7,1.1,3,1.6,4.7,2.7c1.1,0.7,2,1.5,2.3,2c0.2,0.6,0.1,1.1-0.3,2.1c-0.6,1.5-1.1,2.5-1.7,4c-0.4,1.1-0.8,2.3-1.2,3.3l-0.1,0.2
		c-0.4,1.1-0.7,1.4-1.7,1.6c-0.1,0.1-0.5,0-0.6,0c0,0-4.4-0.8-4.4-0.8c-1.5-0.3-2.5-0.6-4-0.9c-1.8-0.3-3.1-0.6-4.9-0.9
		c-1.5-0.3-2.6-0.4-4-0.7c-1.9-0.4-3.2-0.9-5.1-1.3c-2.8-0.6-6.5-1.1-7.1-1.3C44.9,210.2,43.3,209.4,43.8,208.1z M66.9,207
		c0.7,0.2,1.7,0.4,1.9,0.4c0.3,0,0.6-0.1,0.6-0.3c0.1-0.1-0.1-0.4-0.3-0.5c-0.2-0.2-1.5-1-1.7-1.1c-0.5-0.3-0.8-0.6-1.3-0.9
		c-0.3-0.2-3.6-2-3.9-2.2c-1.4-0.5-1.7,0.1-2,0.8c-0.2,0.6-0.6,1.7,0.9,2.3C63.4,206.4,66.3,206.8,66.9,207z"/>
	<path class="st1" d="M61.4,247.3c-1.2-0.3-2-0.5-3.2-0.8c-2.9-0.7-4.9-1.3-7.8-2.1l-0.4-0.1c-1.4-0.3-2.8-0.6-4.1-0.9
		c-2.1-0.5-3.6-1.1-5.7-1.6c-1.2-0.3-2.1-0.3-3.3-0.6c-1.4-0.4-1.9-0.6-1.7-1.7c0.3-1.2,0.7-2.1,1-3.2c0.2-0.9,0.2-1.5,0.5-2.4
		c0.4-1.5,1.4-1.4,2-1.3c1,0.3,1.7,0.6,2.7,0.9l1.2,0.3c0.4,0.1,0.6,0.2,1,0.3c0.6,0.1,1,0.2,1.6,0.4c0.5,0.2,0.8,0.4,1.4,0.5
		c1,0.3,1.8,0.3,2.8,0.6c0.5,0.1,0.9,0.3,1.4,0.4c0.3,0.1,0.5,0.1,0.7,0.1l0.2,0c0.1,0,0.2,0.1,0.3-0.2c0.1-0.5-1.9-1.5-2-1.7
		c0,0-3.7-3-3.8-3c-0.2-0.2-0.5-0.5-0.3-1c0-0.2,0.2-0.7,0.4-0.9c0.5-0.5,2.2-0.8,3.8-1.3c0.4-0.1,0.7-0.2,1.2-0.3
		c0.5-0.2,0.9-0.2,1.4-0.3c0.7-0.1,1.8-0.4,1.8-0.6c0-0.1-0.3-0.3-0.5-0.4l-0.3-0.1c-1.4-0.4-2.3-0.7-3.7-1.1
		c-0.8-0.2-1.4-0.3-2.2-0.5c-1-0.3-1.8-0.5-2.8-0.8l-1-0.2c-1-0.2-1.7-0.3-2.6-0.6c-1.5-0.4-1.5-1.2-1.3-2c0.2-0.7,0.4-1.2,0.5-1.9
		c0.2-0.8,0.3-1.3,0.5-2.1c0.1-0.4,0.1-0.7,0.2-1c0.4-1.6,1.5-1.3,2.1-1.2c0.7,0.2,1.2,0.4,1.9,0.6c1,0.3,1.7,0.5,2.7,0.8
		c2.2,0.6,3.8,0.8,6,1.3c2.2,0.6,3.7,1.1,5.9,1.6c2.1,0.5,3.6,0.8,5.8,1.4c1,0.3,1.7,0.5,2.7,0.8c1.6,0.4,2.7,0.5,4.4,0.9
		c1.4,0.4,0.9,1.7,0.9,2c-0.3,1.4-0.6,2.3-1,3.6c-0.2,0.6-0.2,1-0.3,1.6c-0.4,1.6-1.4,1.2-3.5,1.6c-1.7,0.3-2.8,0.7-4.5,1.1
		c-0.7,0.2-1.2,0.2-1.9,0.4c-0.2,0-1.9,0.3-2,0.7c-0.1,0.5,1.5,1.6,1.7,1.7c0.8,0.7,1.3,1.2,2.1,1.9c0.9,0.7,1.5,1,2.4,1.7
		c0,0,2.2,1.9,2.3,2c0.2,0.3,0.2,0.3,0.4,0.7c0,0.1-0.1,1-0.3,1.6c-0.2,0.9-0.5,1.5-0.7,2.4c-0.2,1-0.3,1.6-0.6,2.6
		c-0.2,0.8-0.8,0.9-1.5,0.7C64.2,248.3,63.1,247.8,61.4,247.3z"/>
	<path class="st1" d="M31.5,267.1c0.1-0.7,0.2-1.2,0.3-1.9c0.1-1.2,0.1-2,0.2-3.1c0.2-2.3,1.3-2.1,2.4-2l1.9,0.2
		c1.1,0.1,1.9,0.3,2.9,0.5l1.9,0.2c2.4,0.3,4,0.3,6.4,0.5l5.8,0.6c1.9,0.2,3.1,0.5,4.9,0.7l3.2,0.3c0.8,0.1,1.4,0,2.2,0.1
		c1.5,0.2,1.5,1.2,1.4,2.3c-0.1,1.1-0.2,1.9-0.4,2.9c-0.1,0.9-0.1,1.5-0.2,2.5c-0.1,1-1.3,1-1.8,0.9c-0.7-0.1-1.2-0.2-2-0.4
		c-1.2-0.2-2-0.2-3.1-0.3l-7.2-0.8c-1.1-0.1-1.8-0.3-2.9-0.4l-2.3-0.2c-1.9-0.2-3.1-0.1-5-0.3c-1.4-0.1-2.4-0.4-3.7-0.5
		c-1.3-0.1-2.2,0-3.5-0.2C32.2,268.6,31.3,268.4,31.5,267.1z"/>
	<path class="st1" d="M32,289.3c-0.8-1-1.3-2.3-1.6-3.3c-0.4-1.5-0.4-4.2-0.4-5.6c0-1.1,0.4-5.3,1.7-6.2c0.4-0.3,0.6-0.3,1.2-0.3
		c1,0,1.7,0.2,2.8,0.2c0.8,0,1.3-0.1,2.1,0c0.5,0,2.3,0,2.2,2c-0.1,0.9-0.3,1.1-0.6,1.6c-0.1,0.1-0.2,0.1-0.3,0.3
		c-0.1,0.2-0.4,0.4-0.5,0.6c-0.4,0.6-0.5,1.6-0.5,2.2c-0.1,1.6,0.4,2.6,1.5,2.8c1.5,0.2,2.8-1.5,3.9-2.6c0.8-0.8,1.5-1.3,2.3-2.1
		c0.2-0.3,1.1-1.2,2-2c2.5-1.8,4.2-1.9,6.6-1.8c7,0.2,9.8,3.6,9.6,10.4c-0.1,3.1-0.1,6.5-2.3,6.5c-1,0-1.7-0.2-2.8-0.2l-0.2,0
		c-0.7,0-1.1,0-1.7,0c-0.5,0-2-0.1-1.9-1.8c0-0.8,0.4-1.7,0.5-1.9c0.2-0.5,0.3-1,0.3-1.9c0-0.3,0.2-2.1-1.6-2.1
		c-0.5,0-0.9,0.1-1.4,0.4c-0.5,0.3-2.4,2.2-4.2,4c-0.7,0.7-1.2,1.2-1.9,1.9c-2.6,2.2-4.3,2.6-6.8,2.5
		C35.8,292.3,33.8,291.7,32,289.3z"/>
	<path class="st1" d="M61.1,333.8c-1.2,0.2-2,0.3-3.3,0.5c-3,0.4-5.1,0.5-8.1,0.9l-0.4,0c-1.4,0.2-2.8,0.4-4.1,0.6
		c-2.2,0.3-3.7,0.3-5.9,0.6c-1.3,0.2-2.1,0.5-3.3,0.6c-1.4,0.2-2,0.2-2.2-1c-0.2-1.3-0.1-2.2-0.3-3.4c-0.1-0.9-0.3-1.5-0.4-2.4
		c-0.2-1.5,0.8-1.8,1.4-1.9c1-0.1,1.8,0,2.8-0.2l1.3-0.2c0.4,0,0.7,0,1-0.1c0.6-0.1,1-0.2,1.6-0.3c0.5,0,0.9,0,1.5,0
		c1-0.1,1.8-0.4,2.8-0.5c0.6-0.1,0.9-0.1,1.4-0.1c0.3,0,0.5-0.1,0.7-0.1l0.2,0c0.1,0,0.2,0,0.2-0.3c-0.1-0.5-2.3-0.7-2.5-0.8
		c0,0-4.6-1.4-4.6-1.5c-0.3-0.2-0.6-0.3-0.7-0.9c0-0.2-0.1-0.7,0-0.9c0.3-0.6,1.8-1.5,3.1-2.6c0.3-0.3,0.6-0.5,0.9-0.7
		c0.4-0.3,0.8-0.5,1.2-0.8c0.6-0.4,1.5-1,1.5-1.2c-0.1-0.1-0.4-0.2-0.6-0.2l-0.3,0c-1.4,0.2-2.4,0.2-3.9,0.3
		c-0.8,0.1-1.4,0.2-2.3,0.3c-1.1,0.1-1.8,0.1-2.9,0.3l-1,0.1c-1,0.1-1.7,0.3-2.6,0.4c-1.6,0.2-1.8-0.6-1.9-1.4
		c-0.1-0.7-0.1-1.3-0.2-2c-0.1-0.8-0.2-1.4-0.3-2.1c0-0.4-0.2-0.6-0.2-1c-0.2-1.7,1-1.8,1.6-1.9c0.7-0.1,1.3-0.1,2-0.2
		c1-0.1,1.7-0.1,2.8-0.3c2.2-0.3,3.8-0.7,6.1-1c2.3-0.3,3.9-0.3,6.1-0.6c2.2-0.3,3.7-0.6,5.9-0.8c1-0.1,1.7-0.1,2.8-0.3
		c1.6-0.2,2.7-0.6,4.4-0.8c1.4-0.2,1.5,1.2,1.5,1.5c0.2,1.4,0.3,2.4,0.4,3.7c0.1,0.6,0.2,1,0.2,1.6c0.2,1.7-0.8,1.7-2.7,2.8
		c-1.5,0.8-2.4,1.7-3.7,2.7c-0.6,0.5-1.1,0.7-1.7,1.1c-0.2,0.1-1.7,1-1.6,1.4c0.1,0.5,2,0.9,2.2,1c1,0.3,1.6,0.7,2.7,1
		c1,0.3,1.8,0.4,2.8,0.7c0,0,2.8,1,2.8,1c0.3,0.2,0.3,0.2,0.6,0.5c0.1,0,0.3,1,0.3,1.6c0.1,0.9,0.1,1.6,0.2,2.5
		c0.1,1,0.3,1.6,0.4,2.6c0.1,0.8-0.4,1.1-1.1,1.2C64.1,333.7,62.9,333.6,61.1,333.8z"/>
	<path class="st1" d="M47.3,362.3c-0.2,0-1.9,0.1-3.1-0.2c-1.4-0.3-3-1.1-4.1-2.2c-0.2-0.3-0.5-0.7-1-1.3c-0.9-1.4-1.2-2.3-1.6-3.8
		c-0.7-2.7-1.1-6.9,1.5-9.8c0.8-1,3.1-2.4,4-2.8c0.8-0.4,3.7-1.3,4.6-1.5c1.2-0.3,2.1-0.4,3.3-0.8c1-0.2,1.6-0.5,2.5-0.7
		c6.5-1.6,10-2.1,13.5,0.7c1.8,1.5,2.6,2.6,3.4,6l0.1,0.3c0.4,1.6,0.6,3.3,0.3,4.9c-0.2,0.9-1.2,3.4-1.7,4.1c-1.5,2.2-5,3.8-9.8,5
		C53,361.7,50.9,362.5,47.3,362.3z M56.1,352c0.8-0.2,1.4-0.3,2.2-0.5c0.7-0.2,3.2-1,3.8-1.5c0.5-0.5,1-1,0.7-2c0-0.1,0-0.2-0.1-0.3
		c-0.1-0.3-0.3-0.6-0.5-0.8c-0.9-0.7-2-0.7-3.5-0.3c-1.2,0.3-2.1,0.6-3.3,0.9c-2.4,0.6-4.2,0.9-6.6,1.5c-1.1,0.3-4.3,0.9-3.7,3.2
		c0.5,2,2.5,1.7,3.7,1.4c0.8-0.2,1.3-0.4,2.1-0.5c1.1-0.2,1.9-0.3,3.1-0.6C54.7,352.4,55.3,352.2,56.1,352z"/>
	<path class="st1" d="M49.7,390.6l-0.1-0.2c-0.3-0.7-0.4-1.3-0.6-2c-0.3-0.9-0.5-1.5-0.9-2.3c-0.2-0.5-0.4-0.8-0.6-1.3
		c-0.5-1.4,0.5-1.9,1.4-2.8c0.9-0.8,1.4-1.6,2.2-2.4c0.6-0.6,1-0.9,1.6-1.5c0.6-0.6,1.1-1.1,0.9-1.5c-0.2-0.7-1.1-0.3-1.3-0.2
		c-0.9,0.3-1.5,0.6-2.3,0.9c-0.7,0.2-1.1,0.4-1.8,0.6c-0.6,0.2-1,0.5-1.7,0.7c-1,0.4-1.4-0.1-1.6-0.6c-0.3-0.9-0.4-1.6-0.8-2.6
		c-0.4-1.1-0.9-1.9-1.3-3c-0.4-1,0.1-1.7,1-2c0.7-0.2,1.1-0.3,1.8-0.5c1.1-0.4,1.9-0.6,3.1-1c2.2-0.8,3.7-1.5,5.9-2.4
		c2.2-0.8,3.9-1.3,6.2-2.1c1.5-0.5,2.4-1,3.9-1.5c1.5-0.6,2.7-0.9,4.2-1.4c0.9-0.3,1.5-0.7,2.5-1c0.9-0.3,2.4-0.5,3.1,1.5
		c0.3,0.9,0.5,1.6,0.8,2.5c0.8,2.2,1.5,3.7,2.3,6c0.9,2.6,1.8,6.2-0.9,9.5c-0.2,0.2-0.5,0.5-0.8,0.7c-0.3,0.3-0.6,0.7-1.3,1.2
		c-0.9,0.7-3.9,1.9-4.9,2.3c-0.7,0.2-4.5,1.8-8.4,0.4c-0.4-0.1-0.8-0.3-1.2-0.5c-0.3-0.1-0.5-0.3-0.8-0.5c-0.1,0-0.3-0.1-0.5,0
		c-0.6,0.2-2.9,3-3.5,3.5c-0.5,0.5-0.9,0.8-1.4,1.4c-0.8,0.9-1.3,1.6-2.2,2.3c-0.2,0.1-0.4,0.3-0.8,0.5
		C50.1,391.8,49.8,390.7,49.7,390.6z M70,372l-0.1-0.2c-0.2-0.3-0.4-0.6-0.6-0.7c-0.6-0.3-1.2-0.3-1.3-0.2c-0.2,0-3.8,1.2-3.9,1.2
		c-1.1,0.4-1.9,1.4-1.5,2.7c0.2,0.6,0.6,1,0.9,1.2c0.9,0.5,2.3,0.1,4.1-0.5C68.8,375.1,70.7,373.8,70,372z"/>
	<path class="st1" d="M63.5,411c-0.7,0.3-1.2,0.6-1.9,1c-0.5,0.2-1.7,0.6-2.4-0.9c-0.3-0.6-0.4-1-0.7-1.6l-0.5-1
		c-0.5-1-0.7-1.8-1.2-2.8c-0.3-0.6-0.5-1-0.8-1.6l-2.2-4.5c-0.2-0.4-0.4-0.7-0.6-1.1c-0.2-0.5-0.5-1.9,0.9-2.6
		c1.1-0.5,2-0.8,3.1-1.3c1-0.5,1.7-0.9,2.7-1.3c0.7-0.3,1.3-0.5,2.1-0.8c0.7-0.3,1.2-0.7,1.9-1c1.4-0.7,2.4-1,3.8-1.7
		c1.3-0.6,2.5-1.3,3.7-1.9c1.7-0.9,3-1.3,4.7-2.2c1.2-0.6,2-1.1,3.2-1.6c2.5-1.2,3.3-1.2,4.2,0.7c0.5,1.1,0.7,2,1.3,3.1
		c0.2,0.5,0.5,1,0.8,1.5c0.6,1.4,1,2.4,1.6,3.7c0.3,0.6,0.6,1,0.9,1.6l0.4,0.8c0.2,0.5,0.4,0.8,0.7,1.3c0.6,1.3-0.4,1.8-0.8,2
		c-0.7,0.3-1.5,0.6-2.2,0.9c-1.1,0.5-3,2-4-0.1l-0.2-0.5c-0.2-0.5-0.5-0.9-0.7-1.4c-0.3-0.7-0.4-1.2-0.8-1.9
		c-1.1-2.3-1.9-2.1-3.3-1.4c-1.4,0.7-2,1.6-1.5,2.5c0.2,0.5,0.5,0.8,0.7,1.2l0,0.1c0.3,0.6,0.4,1.1,0.7,1.7c0.2,0.5,0.5,0.9,0.7,1.3
		c0.8,1.7-0.4,2.2-1,2.5c-0.7,0.3-1.1,0.5-1.8,0.8c-0.6,0.3-1,0.5-1.7,0.9c-1.7,0.8-2.3-0.4-2.6-0.9c-0.6-1.3-0.9-2.3-1.5-3.6
		c-1.1-2.3-2.4-1.5-3.3-1.1l-0.5,0.2c-0.2,0.1-1,0.5-1.2,0.7c-0.9,1.2-0.3,1.6,0.3,3.2c0.3,0.8,0.4,1.4,0.8,2.1
		c0.3,0.7,0.7,1.1,1,1.7c0.2,0.4,0.5,1.7-0.8,2.4C64.7,410.5,64.2,410.7,63.5,411z"/>
	<path class="st1" d="M98.1,427.8c-0.3-0.4-0.4-0.7-0.7-1.1c-0.7-1.1-1.5-1.2-3.1-0.1c-1.3,0.9-2.2,1.6-3.5,2.5
		c-1.6,1.1-2.8,1.7-4.4,2.8c-1.5,1-2.4,1.7-3.9,2.7c-0.8,0.5-1.7,1-2.5,1.6c-0.7,0.5-1.2,0.8-1.9,1.3c-0.4,0.3-0.6,0.6-1.1,0.9
		c-1.3,0.8-2.1-0.3-2.3-0.6c-0.3-0.5-0.5-0.8-0.7-1.3c-0.4-0.7-0.7-1.1-1.1-1.8c-0.4-0.5-0.7-0.9-1.1-1.5c-0.5-0.8-0.6-1.6,0.7-2.4
		c1.3-0.8,2.3-1.2,3.6-2.1c1.2-0.8,2-1.5,3.2-2.3c1.4-0.9,2.6-1.4,4-2.3c1-0.7,1.6-1.3,2.6-2c2.4-1.7,4.8-2.3,5.1-3.9
		c0.1-0.3,0-0.4,0-0.5c0-0.4-0.3-0.8-0.5-1.1c-0.2-0.3-0.4-0.5-0.6-0.8c-0.7-1.1-0.2-1.8,0.3-2.1c1-0.6,1.7-1,2.7-1.7
		c0.7-0.4,1.1-0.8,1.8-1.3c1-0.6,1.6-0.5,2.2,0.5c0.6,0.9,0.9,1.6,1.5,2.5c0.9,1.3,1.9,2.6,2.7,3.9l0.3,0.4c0.7,1.1,1.2,1.9,1.9,3.1
		c0.5,0.7,0.9,1.1,1.3,1.8c1,1.5-0.1,2.3-1.2,2.9c-0.8,0.5-1.3,0.8-2.1,1.3c-0.5,0.4-0.9,0.6-1.4,1C100,428.3,98.9,429,98.1,427.8z"
		/>
	<path class="st1" d="M93.5,462.3c-0.5-0.6-0.8-1.1-1.3-1.8c-0.7-0.9-1.3-1.4-2.1-2.4c-0.9-1.2,0.1-2,0.4-2.3
		c0.6-0.5,1.1-0.7,1.6-1.1c0.4-0.3,0.6-0.5,0.9-0.8c1.4-1.1,2.5-1.8,3.9-2.9c2.2-1.8,1.5-2.6,0.6-3.8c-0.5-0.7-0.9-0.8-1.5-0.8
		c-0.6,0-2.5,1.4-2.8,1.6c-0.7,0.6-1.4,1.2-2.2,1.9c-0.8,0.6-1.3,1-2.2,1.7c-0.5,0.4-0.8,0.7-1.3,1.1c-0.9,0.7-1.7,0.3-2-0.2
		c-0.6-0.8-0.9-1.4-1.6-2.2c-0.4-0.5-0.7-0.8-1.1-1.2c-0.2-0.3-0.5-0.5-0.7-0.7c-1.1-1.4-0.1-2.3,0.4-2.6c1-0.8,1.8-1.2,2.9-2
		l0.1-0.1c1.1-0.9,1.9-1.5,3-2.4c1.6-1.3,2.7-2.3,4.3-3.6c1.3-1.1,2.4-1.7,3.7-2.8c0.7-0.6,1.2-1.1,1.9-1.7c1-0.8,1.7-1.4,2.7-2.2
		c0.9-0.7,1.6-1.1,2.4-1.8c0.8-0.7,1.3-1.3,2.2-2c0.4-0.4,1.4-0.9,2.3,0.2c0.6,0.7,1,1.3,1.6,2.1c0.6,0.7,1.1,1.2,1.7,1.9
		c1,1.2,0.5,2-0.1,2.5c-0.8,0.6-1.4,0.8-2.2,1.5c-0.8,0.7-1.4,1.2-2.2,1.9c-0.9,0.7-1.6,1.2-2.5,1.9l-0.1,0.1
		c-1.4,1.1-0.9,1.8,0,2.9c0.7,0.9,1,1,1.8,1c0.3-0.1,2.2-1.4,2.4-1.6c0.8-0.6,1.3-1.2,2.1-1.9c0.4-0.4,0.9-0.7,1.4-1
		c0.7-0.5,1-1,1.7-1.5c1.2-1,2.1-0.1,2.4,0.3c0.6,0.8,1,1.4,1.7,2.3c0.5,0.7,1,1,1.5,1.7c1.3,1.6-0.1,2.5-0.5,2.8
		c-1.4,1.1-2.6,1.8-4,2.9c-0.4,0.3-0.6,0.6-1,0.9c-0.7,0.6-1.2,0.9-1.9,1.4c-1.2,0.9-1.9,1.6-3.1,2.6c-1.4,1.1-2.5,1.9-3.9,3
		c-1.7,1.4-2.7,2.5-4.4,3.8c-0.8,0.7-1.5,1.1-2.3,1.8c-0.7,0.6-1.2,1.2-1.9,1.8C94.8,463.2,94,463,93.5,462.3z"/>
	<path class="st1" d="M113,482.7c-0.8-0.8-1.3-1.5-2-2.3c-0.7-0.7-1.2-1.1-1.8-1.7c-1.2-1.2-0.1-1.9,0.1-2.3
		c0.3-0.3,2.1-2.2,2.1-2.8c0-0.3,0-0.1-0.1-0.5c0-0.1-1.3-1.4-2-2.2c-1.3-1.3-1.5-0.8-2.4-0.2c-0.3,0.2-2.3,2-2.8,2.1
		c-0.5,0.1-0.9,0-1.4-0.5c-0.6-0.6-1-1.1-1.6-1.7c-0.7-0.7-1.4-1.3-2-2c-0.6-0.6-1.2-1.3-0.3-2.2c0.3-0.3,1-0.8,1.9-1.3
		c1-0.7,1.6-1.3,2.6-1.9c0.9-0.6,1.6-1,2.5-1.6c1.3-0.9,2.1-1.6,3.4-2.5c1.3-0.9,2.2-1.4,3.4-2.4c0.9-0.7,1.5-1.2,2.4-1.8
		c1.1-0.7,1.9-1.2,3-1.9c1.7-1.1,2.7-2.1,4.4-3.1c1.1-0.7,2.2-1.2,2.8-1.2c0.6,0.1,1.1,0.4,1.8,1.1c1.1,1.1,1.8,2.1,2.9,3.2
		c0.8,0.8,1.7,1.7,2.5,2.5l0.1,0.1c0.9,0.9,1,1.3,0.8,2.2c0,0.1-0.2,0.5-0.2,0.6c0,0-2.5,3.7-2.5,3.7c-0.9,1.2-1.6,2-2.5,3.3
		c-1.1,1.5-1.8,2.6-2.8,4.1c-0.8,1.2-1.4,2.2-2.3,3.3c-1.2,1.6-2.1,2.5-3.3,4.1c-1.7,2.3-3.6,5.5-4.1,5.9
		C115.4,482.5,114,483.7,113,482.7z M121.6,461.2c0.5-0.6,1.1-1.4,1.1-1.5c0.2-0.3,0.1-0.6,0-0.7c-0.1-0.1-0.4-0.1-0.6,0.1
		c-0.2,0.1-1.5,1-1.7,1.1c-0.5,0.3-0.9,0.5-1.4,0.8c-0.3,0.2-3.4,2.5-3.6,2.7c-1,1-0.6,1.6-0.1,2.2c0.4,0.4,1.3,1.3,2.5,0.1
		C119.6,464.1,121.2,461.7,121.6,461.2z"/>
	<path class="st1" d="M133.9,500.1c-0.7-0.5-1-1-1.7-1.5c-1-0.9-1.8-1.3-2.8-2.1c-0.8-0.6-0.1-1.7,0.3-3c0.3-1.1,0.4-1.9,0.8-3
		c0.3-1.1,0.7-1.8,1-2.8c0.2-0.8,0.3-1.5,0.6-2.3c0.2-0.8,0.4-1.3,0.7-2.1c0.3-0.8,0.8-2.2,0.7-2.3c-0.1-0.1-0.3,0.1-0.4,0.2
		c-0.4,0.5-0.5,0.9-0.9,1.4c-0.6,1-1.1,1.7-1.9,2.6c-1,1.2-1.8,1.9-2.7,3.1c-0.9,1.1-1.4,2-2.3,3.2c-0.7,0.9-1.4,0.6-2.1,0
		c-0.9-0.7-1.5-1.3-2.5-2.1c-0.7-0.5-1.2-0.8-1.9-1.3c-1.1-0.9,0-2,0.1-2.1c1.2-1.5,2.4-2.4,3.6-4c0.4-0.5,0.6-0.8,0.9-1.2
		c0.8-1,1.4-1.7,2.2-2.7c0.7-0.9,1.2-1.5,2-2.3c0.6-0.7,1.1-1.1,1.6-1.8c0.6-0.7,0.8-1.3,1.4-1.9l1.5-1.9c1.1-1.3,1.9-2.3,3-3.6
		c1.2-1.4,1.8-2.5,3-3.9c0.1-0.2,0.7-0.9,1.7-0.4l0.2,0.1c0.3,0.2,0.5,0.5,0.8,0.8c0.4,0.4,0.8,0.7,1.3,1.1c0.8,0.6,1.4,1,2.2,1.6
		c0.4,0.3,0.5,0.6,0.5,0.9c0.1,0.8-1,4.2-1.2,4.7c-0.2,0.7-0.3,1.1-0.5,1.8c-0.1,0.5-0.1,0.9-0.3,1.4c-0.2,0.5-0.3,0.8-0.5,1.4
		c-0.1,0.4-0.1,0.7-0.3,1.1c-0.2,0.7-0.4,1.1-0.6,1.8c-0.3,0.9-1,2.3-0.8,2.4c0.2,0.1,0.9-0.7,1.3-1.2c0.4-0.5,0.7-1,1.1-1.6
		c0.4-0.5,0.8-0.9,1.3-1.5c1.3-1.6,2-2.8,3.3-4.4c0.2-0.3,1.2-1.4,1.6-1.6c0.3-0.1,0.5,0,0.6,0c0.2,0,0.7,0.1,1.2,0.5
		c0.5,0.4,0.8,0.8,1.3,1.2l1.4,1.1c0.4,0.4,0.8,0.6,1.2,0.9c0.7,0.5,0.7,1.2,0.2,1.8c-0.9,1.1-1.7,1.7-2.6,2.9
		c-1.3,1.6-2.1,2.8-3.4,4.4c-1.4,1.7-2.5,2.8-3.9,4.5c-1.4,1.7-2.2,3-3.6,4.7c-1.2,1.5-2.3,2.5-3.6,4.1c-0.6,0.8-1.1,1.3-1.6,2.2
		c-0.3,0.3-0.4,0.7-0.6,1C135.2,501.1,134.4,500.5,133.9,500.1z"/>
	<path class="st1" d="M168.6,522.4c-1-0.6-1.6-1.1-2.6-1.7c-0.8-0.5-1.4-0.7-2.2-1.2c-1.5-0.9-0.6-1.8-0.5-2.3
		c0.2-0.4,1.4-2.7,1.3-3.3c-0.1-0.3,0-0.1-0.2-0.4c-0.1-0.1-1.6-1-2.5-1.6c-1.5-0.9-1.7-0.4-2.3,0.4c-0.2,0.3-1.7,2.6-2.1,2.8
		c-0.5,0.2-0.8,0.2-1.5-0.2c-0.8-0.4-1.3-0.8-2-1.2c-0.8-0.5-1.6-0.9-2.5-1.4c-0.7-0.4-1.5-1-0.9-2.1c0.2-0.3,0.8-1,1.5-1.8
		c0.8-1,1.2-1.6,2-2.6c0.7-0.8,1.2-1.4,2-2.2c1-1.2,1.6-2.1,2.6-3.3c1-1.2,1.7-2,2.7-3.2c0.7-0.9,1.1-1.5,1.8-2.4
		c0.8-1,1.6-1.6,2.4-2.6c1.3-1.5,2-2.7,3.4-4.2c0.9-1,1.8-1.8,2.4-1.9c0.6-0.1,1.2,0.1,2,0.6c1.4,0.8,2.3,1.5,3.6,2.3
		c1,0.6,2.1,1.2,3.1,1.8l0.2,0.1c1.1,0.6,1.3,1,1.3,1.9c0,0.1-0.1,0.5-0.1,0.6c0,0-1.5,4.2-1.5,4.2c-0.6,1.4-1,2.4-1.6,3.8
		c-0.6,1.7-1.1,3-1.7,4.7c-0.5,1.4-0.8,2.5-1.4,3.8c-0.7,1.8-1.4,3-2.1,4.8c-1,2.7-2.1,6.2-2.4,6.8
		C170.9,521.6,169.8,523.1,168.6,522.4z M171.3,499.4c0.3-0.7,0.7-1.6,0.7-1.8c0.1-0.3,0-0.6-0.1-0.7c-0.1-0.1-0.4,0-0.6,0.2
		c-0.2,0.2-1.2,1.3-1.4,1.5c-0.4,0.4-0.7,0.7-1.1,1.1c-0.2,0.3-2.6,3.3-2.8,3.5c-0.7,1.3-0.2,1.7,0.5,2.1c0.5,0.3,1.5,0.9,2.4-0.6
		C170.2,502.8,171.1,500,171.3,499.4z"/>
	<path class="st1" d="M209.3,515.3c-0.4-0.2-0.7-0.4-1.1-0.6c-1.2-0.7-1.9-0.3-2.8,1.3c-0.8,1.4-1.2,2.4-1.9,3.8
		c-0.9,1.7-1.6,2.8-2.6,4.5c-0.8,1.5-1.3,2.6-2.2,4.2c-0.5,0.9-1,1.7-1.5,2.6c-0.4,0.7-0.7,1.3-1,2.1c-0.2,0.5-0.3,0.8-0.5,1.3
		c-0.7,1.3-2,0.7-2.3,0.5c-0.5-0.3-0.8-0.5-1.3-0.8c-0.7-0.4-1.1-0.7-1.8-1.1c-0.6-0.3-1.1-0.5-1.7-0.8c-0.9-0.5-1.3-1.1-0.5-2.5
		c0.7-1.4,1.4-2.2,2.2-3.5c0.7-1.3,1.1-2.3,1.8-3.5c0.8-1.5,1.6-2.4,2.4-3.9c0.6-1.1,0.9-1.9,1.4-3c1.3-2.6,3.2-4.3,2.6-5.8
		c-0.1-0.3-0.2-0.4-0.2-0.4c-0.2-0.3-0.7-0.6-0.9-0.7c-0.3-0.2-0.6-0.3-0.9-0.4c-1.1-0.6-1-1.5-0.7-2c0.6-1,1-1.7,1.6-2.8
		c0.4-0.7,0.6-1.2,0.9-1.9c0.6-1,1.2-1.2,2.2-0.6c0.9,0.5,1.6,1,2.5,1.5c1.4,0.8,2.9,1.4,4.3,2.2l0.5,0.2c1.2,0.6,1.9,1.2,3.1,1.8
		c0.7,0.4,1.3,0.6,2,1c1.6,0.9,1,2.1,0.4,3.1c-0.4,0.8-0.8,1.3-1.2,2.1c-0.3,0.6-0.5,1-0.8,1.5C211.2,514.8,210.6,515.9,209.3,515.3
		z"/>
	<path class="st1" d="M218.5,550.5l-0.2-0.1c-0.7-0.4-1-0.8-1.7-1.2c-0.8-0.5-1.3-0.9-2.1-1.3c-0.4-0.3-0.8-0.4-1.2-0.7
		c-1.3-0.8-0.7-1.9-0.5-3c0.2-1.2,0.2-2.1,0.4-3.2c0.1-0.8,0.3-1.3,0.4-2.2c0.1-0.8,0.2-1.5-0.2-1.8c-0.6-0.4-1,0.4-1.2,0.6
		c-0.5,0.8-0.8,1.4-1.3,2.1c-0.4,0.6-0.7,1-1.1,1.5c-0.4,0.5-0.5,1-0.9,1.6c-0.6,0.9-1.2,0.7-1.6,0.4c-0.8-0.5-1.3-1-2.2-1.6
		c-1-0.6-1.8-1-2.8-1.6c-0.9-0.6-0.9-1.4-0.4-2.2c0.4-0.6,0.7-0.9,1.1-1.5c0.7-1,1.2-1.6,1.9-2.7c1.3-2,2-3.4,3.4-5.4
		c1.3-2,2.4-3.4,3.7-5.4c0.9-1.3,1.4-2.2,2.2-3.5c0.9-1.4,1.6-2.3,2.5-3.7c0.5-0.8,0.8-1.5,1.4-2.3c0.5-0.8,1.6-1.8,3.4-0.6
		c0.8,0.5,1.3,1,2.1,1.5c1.9,1.3,3.4,2.1,5.4,3.4c2.3,1.5,5.1,3.9,4.9,8.2c0,0.3-0.1,0.8-0.2,1.1c-0.1,0.4-0.1,0.9-0.4,1.7
		c-0.3,1.1-2,3.8-2.6,4.7c-0.4,0.6-2.6,4.2-6.5,5.4c-0.4,0.2-0.8,0.2-1.2,0.3c-0.4,0.1-0.6,0-0.9,0.1c-0.1,0-0.3,0.1-0.4,0.3
		c-0.4,0.5-0.6,4.1-0.7,4.9c-0.1,0.7-0.2,1.2-0.3,1.9c-0.2,1.2-0.1,2.1-0.4,3.2c-0.1,0.2-0.1,0.5-0.3,0.8
		C219.6,551.2,218.6,550.5,218.5,550.5z M223.7,523.5l-0.2-0.1c-0.3-0.1-0.6-0.2-0.9-0.2c-0.7,0.1-1.1,0.5-1.2,0.6
		c-0.1,0.1-2.3,3.2-2.4,3.3c-0.6,1-0.7,2.3,0.5,3.1c0.5,0.4,1.1,0.4,1.4,0.4c1.1-0.1,2-1.3,3-2.8
		C224.6,526.7,225.3,524.5,223.7,523.5z"/>
	<path class="st1" d="M238,560.9c-0.5,0.6-0.8,1.1-1.3,1.7c-0.3,0.4-1.3,1.3-2.6,0.3c-0.5-0.4-0.9-0.7-1.4-1.1l-0.9-0.7
		c-0.9-0.7-1.4-1.3-2.3-2c-0.5-0.4-0.9-0.7-1.4-1.1l-3.9-3.1c-0.4-0.3-0.7-0.4-1.1-0.7c-0.4-0.3-1.3-1.5-0.3-2.7
		c0.8-1,1.4-1.6,2.2-2.5c0.7-0.9,1.1-1.5,1.8-2.4c0.5-0.6,1-1,1.5-1.6c0.5-0.6,0.8-1.1,1.3-1.7c1-1.2,1.7-2,2.7-3.2
		c0.9-1.1,1.6-2.2,2.5-3.3c1.2-1.5,2.1-2.5,3.3-4c0.8-1.1,1.4-1.9,2.2-2.9c1.7-2.1,2.4-2.6,4.1-1.2c1,0.8,1.5,1.5,2.5,2.2
		c0.4,0.3,0.9,0.7,1.4,1c1.2,0.9,1.9,1.7,3.1,2.6c0.5,0.4,0.9,0.6,1.5,1l0.7,0.6c0.4,0.3,0.7,0.5,1.2,0.9c1.1,0.9,0.5,1.8,0.2,2.2
		c-0.5,0.6-1.1,1.2-1.6,1.8c-0.8,1-1.8,3.1-3.6,1.6l-0.4-0.3c-0.4-0.3-0.8-0.6-1.2-0.9c-0.6-0.5-0.9-0.9-1.5-1.4
		c-2-1.6-2.6-1-3.6,0.2c-1,1.3-1.1,2.3-0.2,2.9c0.4,0.3,0.8,0.5,1.2,0.8l0.1,0.1c0.6,0.4,0.9,0.8,1.4,1.2c0.4,0.3,0.8,0.6,1.2,0.9
		c1.5,1.2,0.6,2.2,0.2,2.7c-0.5,0.6-0.8,0.9-1.3,1.5c-0.4,0.6-0.7,0.9-1.1,1.5c-1.1,1.4-2.3,0.7-2.7,0.3c-1.1-0.9-1.8-1.7-2.9-2.6
		c-2-1.6-2.8-0.3-3.4,0.5l-0.4,0.4c-0.1,0.2-0.7,0.9-0.8,1.2c-0.3,1.4,0.4,1.6,1.7,2.8c0.6,0.6,1,1,1.6,1.5c0.6,0.5,1.1,0.7,1.6,1.1
		c0.4,0.3,1.2,1.3,0.3,2.5C238.9,560,238.5,560.3,238,560.9z"/>
	<path class="st1" d="M252.7,580c-0.8-0.8-1.3-1.4-2.1-2.2c-0.7-0.6-1.2-1-1.9-1.7c-1.2-1.2-0.2-1.9,0.1-2.3c0.3-0.3,2-2.3,2-2.9
		c0-0.3,0-0.1-0.1-0.5c0-0.1-1.3-1.4-2.1-2.1c-1.3-1.2-1.5-0.8-2.4-0.2c-0.3,0.2-2.2,2.1-2.7,2.2c-0.5,0.1-0.9,0-1.4-0.5
		c-0.6-0.6-1.1-1.1-1.7-1.7c-0.7-0.6-1.4-1.3-2.1-1.9c-0.6-0.6-1.2-1.3-0.4-2.2c0.3-0.3,1-0.8,1.8-1.4c1-0.8,1.6-1.3,2.6-2
		c0.9-0.7,1.5-1.1,2.4-1.7c1.3-0.9,2-1.7,3.3-2.6c1.2-1,2.1-1.5,3.3-2.5c0.8-0.7,1.4-1.2,2.3-1.9c1-0.8,1.9-1.2,2.9-2
		c1.6-1.2,2.6-2.2,4.3-3.3c1.1-0.7,2.2-1.3,2.8-1.3c0.6,0,1.1,0.3,1.9,1c1.2,1.1,1.8,2,3,3.1c0.9,0.8,1.8,1.6,2.6,2.4l0.1,0.1
		c0.9,0.8,1,1.2,0.8,2.1c0,0.1-0.2,0.5-0.2,0.6c0,0-2.4,3.8-2.4,3.8c-0.9,1.3-1.5,2.1-2.4,3.4c-1,1.6-1.7,2.6-2.7,4.2
		c-0.8,1.3-1.3,2.2-2.2,3.4c-1.1,1.6-2.1,2.6-3.2,4.2c-1.6,2.4-3.5,5.6-3.9,6.1C255.1,579.7,253.7,580.9,252.7,580z M260.6,558.2
		c0.4-0.6,1.1-1.4,1.1-1.6c0.2-0.3,0.1-0.6,0-0.7c-0.1-0.1-0.4-0.1-0.6,0.1c-0.2,0.1-1.5,1-1.7,1.1c-0.5,0.3-0.9,0.5-1.3,0.9
		c-0.3,0.2-3.3,2.6-3.5,2.8c-1,1.1-0.6,1.6,0,2.2c0.4,0.4,1.3,1.2,2.5,0C258.7,561.2,260.2,558.7,260.6,558.2z"/>
	<path class="st1" d="M282.5,575.8c-0.3-0.3-0.5-0.6-0.8-1c-0.9-1-1.7-0.9-3,0.4c-1.2,1.1-1.9,1.9-3.1,3c-1.4,1.3-2.5,2.1-3.9,3.4
		c-1.3,1.2-2.1,2.1-3.4,3.2c-0.7,0.7-1.5,1.3-2.2,2c-0.6,0.6-1.1,1-1.6,1.6c-0.4,0.4-0.5,0.7-0.9,1c-1.1,1-2.1,0.1-2.4-0.2
		c-0.4-0.4-0.6-0.7-0.9-1.2c-0.5-0.6-0.8-1-1.4-1.6c-0.4-0.5-0.9-0.8-1.3-1.3c-0.7-0.7-0.9-1.4,0.3-2.5c1.1-1,2.1-1.6,3.2-2.6
		c1.1-1,1.7-1.8,2.8-2.8c1.2-1.1,2.3-1.8,3.6-2.9c0.9-0.8,1.4-1.5,2.3-2.3c2.1-2,4.4-3,4.4-4.6c0-0.3-0.1-0.4-0.1-0.5
		c-0.1-0.4-0.5-0.8-0.7-1c-0.3-0.3-0.5-0.5-0.7-0.7c-0.9-0.9-0.4-1.7,0-2.1c0.9-0.8,1.6-1.3,2.4-2.1c0.6-0.5,0.9-1,1.5-1.5
		c0.9-0.8,1.5-0.7,2.3,0.1c0.7,0.8,1.2,1.4,1.9,2.2c1.1,1.2,2.3,2.3,3.3,3.4l0.3,0.4c0.9,1,1.4,1.7,2.4,2.7c0.6,0.6,1,1,1.6,1.6
		c1.2,1.4,0.2,2.3-0.7,3.1c-0.7,0.6-1.2,1-1.8,1.6c-0.5,0.4-0.8,0.8-1.2,1.2C284.4,576,283.5,576.8,282.5,575.8z"/>
</g>
</svg>
