<svg version="1.1" id="Layer_1" xmlns="http://www.w3.org/2000/svg" xmlns:xlink="http://www.w3.org/1999/xlink" x="0px" y="0px"
	 viewBox="0 0 264.5 295" style="enable-background:new 0 0 264.5 295;" xml:space="preserve">
<style type="text/css">
	.st0{fill:#FCFDFF;}
	.st1{fill:#582F10;}
</style>
<g>
	<path class="st0" d="M14.3,271.2c0.6,1.5,1.3,2.9,2.2,4.3c0.3,0.6,0.6,1.1,0.9,1.5c0.3,0.6,0.8,1.4,1.4,2.5
		c5.2,8.7,13.9,14.2,24,15.2c11.2,1.1,19.5-3.9,23.4-6.2l0.4-0.2c4.5-2.7,8.2-5.9,11.2-9.4c4.1-1.2,8.1-3,11.9-5.6
		c0.7-0.5,1.3-0.9,1.7-1.2c0.3-0.2,0.7-0.5,1-0.8c0.3-0.2,0.5-0.4,0.9-0.6c0.3-0.2,0.6-0.4,0.8-0.5c0.6-0.4,1.3-0.8,2-1.3
		c2.6-1.7,4.8-3.7,6.7-5.9c2.5-1,5.1-2.3,7.7-4.2c0.7-0.5,1.3-0.9,1.7-1.3c0.6-0.4,1.4-0.9,2.3-1.5c1.4-1,2.7-2.2,3.9-3.4
		c1.4-0.8,2.7-1.7,3.9-2.7c0.6-0.4,1-0.8,1.5-1.2l0.4-0.3c0.7-0.5,1.2-1,1.7-1.4c0.7-0.5,1.7-1.2,2.9-2.2c0.3-0.3,0.7-0.6,1-0.8
		c0.7-0.5,1.8-1.2,3-2.2c1.5-1.2,2.9-2.5,4.1-3.8c1.2-0.8,2.3-1.6,3.4-2.5c0.9-0.8,1.7-1.5,2.1-1.9c0.1-0.1,0.2-0.1,0.3-0.2
		c0.5-0.4,1.1-0.9,1.7-1.4c1-0.9,2-1.8,2.9-2.8c1.3-0.9,2.5-1.8,3.7-2.9c0.7-0.6,1.3-1.2,1.8-1.7c0.2-0.2,0.4-0.4,0.6-0.6
		c0.5-0.4,1.3-1,2.2-1.9c0.9-0.8,1.6-1.5,2.4-2.2c0.3-0.3,0.6-0.6,1-0.9l1.1-1c2.4-2.2,4.5-4.7,6.1-7.4c3.2-1.9,6.2-4.2,9-7.1
		c0.6-0.6,1.1-1.2,1.4-1.5c0.3-0.3,0.6-0.6,0.8-0.9c0.2-0.2,0.4-0.4,0.7-0.7c0.3-0.3,0.5-0.5,0.7-0.7c0.5-0.5,1.1-1,1.7-1.7
		c1.4-1.4,2.7-3,3.7-4.5c1.5-1.2,2.9-2.5,4.1-4c0.6-0.7,1.1-1.3,1.5-1.8c0.5-0.5,1.3-1.3,2.1-2.2c0.9-1,1.7-2.1,2.5-3.2
		c0.9-0.9,1.9-1.8,2.8-2.9c0.3-0.4,0.6-0.7,0.9-1.1c0.6-0.6,1.3-1.4,2.2-2.3c2.3-2.6,4-5.5,5.3-8.6c3.2-2.4,6.1-5.4,8.7-8.9l0.2-0.2
		c2.5-3.4,5.2-7.7,6.8-13.4c3-2.3,5.6-5.2,7.7-8.7c0.4-0.7,0.8-1.3,1.1-1.9c0.4-0.6,1-1.4,1.5-2.3c0.9-1.4,1.6-2.8,2.2-4.2
		c1.6-1.9,3-4.1,4.3-6.6l0.1-0.2c1.5-2.9,5-10.7,4.9-19.6c4.8-3.8,8.5-8.9,10.5-15.1c0.3-1,0.6-1.9,0.7-2.5c0-0.1,0.1-0.1,0.1-0.2
		c0.3-0.9,0.7-1.8,1-2.9l0.1-0.4c0.5-1.4,0.8-2.6,1.1-3.6c0.1-0.3,0.2-0.6,0.2-0.9l0-0.1c0.2-0.6,0.6-1.6,1-2.8
		c0.9-2.7,1.4-5.5,1.6-8.3c1-2.3,1.8-4.7,2.3-7.3l0-0.1c0.1-0.8,0.3-1.6,0.4-2.4c0.1-0.3,0.1-0.6,0.2-0.9l0.1-0.3
		c0.2-0.9,0.6-2.3,1-4.1c1.9-9.7-0.6-17.2-3.1-21.8c-0.5-1-1.1-1.9-1.7-2.8c-3.6-5.2-8.5-9.2-15.3-12.2c-2.5-1.1-4.5-1.8-5.8-2.2
		c-0.2,0-0.3-0.1-0.5-0.2l-0.4-0.2c-0.7-0.3-1.7-0.7-2.9-1.2c-0.2-0.1-0.3-0.1-0.5-0.2c-1.5-0.5-2.6-0.9-3.4-1.1
		c-0.1,0-0.5-0.2-0.6-0.2c-0.1-0.1-0.3-0.1-0.4-0.2c-0.8-0.3-1.5-0.6-2.4-0.9c-1.3-0.5-2.4-0.8-3.1-1.1c-0.2-0.1-0.3-0.1-0.5-0.2
		c-0.1,0-0.1,0-0.2-0.1c-0.2-0.1-0.4-0.1-0.5-0.2c-0.6-0.3-1.3-0.5-2-0.8c-1.5-0.6-2.6-1-3.4-1.2c0,0-0.1,0-0.1,0
		c-1.6-0.6-3.9-1.5-6.9-2.1c-0.9-0.2-1.9-0.3-2.9-0.4c-16.2-1.6-30.8,9.4-33.9,25.7c-0.1,0.7-0.3,1.4-0.4,2.1c0,0.2-0.1,0.4-0.1,0.6
		l-0.1,0.3c-0.1,0.7-0.3,1.3-0.4,2.1c-0.3,1.5-0.5,3-0.5,4.5c-0.5,1.4-0.9,2.9-1.2,4.4c-0.2,0.9-0.3,1.8-0.4,2.4
		c-0.2,0.6-0.4,1.6-0.6,2.6c-0.4,0.9-0.8,1.9-1.1,2.9c-0.3,0.9-0.5,1.6-0.7,2.2c-0.3,0.7-0.7,1.7-1.1,2.9c-1.3,3.8-1.8,7.7-1.6,11.6
		c-1.6,1.4-3.1,2.9-4.6,4.7c-0.6,0.7-1.2,1.5-1.8,2.3c-1.7,2.4-4.1,6.9-4.1,6.9c-0.6,1.1-1.1,2.3-1.5,3.4c-0.1,0.2-0.3,0.4-0.4,0.6
		c-0.7,1.1-1.2,2.1-1.5,2.6l-1.7,2.7c-0.4,0.6-0.7,1.1-1.2,1.8c-0.4,0.6-0.7,1.1-1,1.6c-0.4,0.5-0.9,1.3-1.5,2.2
		c-0.6,1-1.2,2-1.7,3.1c-2.1,1.9-4,4.1-5.8,6.5c-1.7,2.3-3.8,5.5-5.5,10c-2.7,1.8-5.5,4.2-8.3,7.3c-2.6,2.9-4.7,5.8-6.2,8.6
		c-0.1,0.1-0.1,0.2-0.2,0.4c-1.4,1.1-2.9,2.3-4.3,3.7c-1.2,1.2-2.1,2.2-2.7,3c-0.4,0.4-0.9,0.9-1.5,1.4c-2.3,2.3-4.2,4.7-5.8,7.1
		c-2.1,1.2-4,2.6-5.8,4.2c-0.8,0.7-1.4,1.3-1.8,1.8c-0.5,0.4-1.2,1-2,1.7c-1.7,1.5-3.1,3.2-4.4,4.9c-1.9,1.1-3.8,2.4-5.5,3.8
		c-0.9,0.8-1.7,1.5-2.2,2c-0.5,0.3-1,0.8-1.6,1.3c-0.7,0.6-1.4,1.2-2,1.9c-1,0.6-1.9,1.3-2.8,2c-0.8,0.6-1.4,1.2-2,1.7l-2.9,2.3
		c-0.5,0.4-1,0.8-1.4,1.2l0,0c-0.5,0.4-1.4,1-2.4,1.8l-0.6,0.5c-0.5,0.4-1.1,0.8-1.7,1.3c-0.8,0.6-1.5,1.3-2.2,2
		c-0.8,0.5-1.7,1-2.5,1.6c-1.1,0.8-1.9,1.4-2.4,1.8l0,0l-2.5,1.8c-0.5,0.4-1.1,0.7-1.8,1.2c-0.5,0.4-1,0.8-1.5,1.1
		c-0.5,0.3-1.3,0.8-2.2,1.5c-0.9,0.6-1.7,1.3-2.5,2c-1,0.5-1.9,1.1-2.9,1.7c-1.4,0.9-2.5,1.8-3.3,2.4c-0.5,0.3-1.1,0.7-1.7,1.1
		c-2.7,1.8-5.1,3.7-7.2,5.7c-3.5,1.1-7,2.6-10.5,4.7c-2.5,1.5-7.4,4.7-11.1,8.7c-0.3,0.3-0.5,0.6-0.8,0.9c-2.2,2.6-5.2,6.8-7.3,12.4
		c0,0,0,0.1,0,0.1c-6.1,16.9,1.6,29.7,4.1,33.9C8.6,265.4,11.2,268.6,14.3,271.2z"/>
	<g>
		<g>
			<g>
				<path class="st1" d="M199.1,51c0.2-1.1,0.5-1.9,0.7-3c0.2-0.9,0.2-1.6,0.4-2.5c0.3-1.7,1.5-1.2,2-1.2c0.4,0,3,0.4,3.5,0.1
					c0.3-0.2,0.1-0.1,0.3-0.3c0.1-0.1,0.4-1.8,0.6-2.9c0.3-1.8-0.2-1.7-1.1-2.1c-0.4-0.1-3-0.7-3.3-1.1c-0.4-0.4-0.5-0.7-0.3-1.5
					c0.2-0.9,0.3-1.5,0.5-2.3c0.2-0.9,0.3-1.9,0.5-2.8c0.2-0.8,0.4-1.7,1.7-1.5c0.4,0.1,1.2,0.4,2.1,0.8c1.2,0.4,1.9,0.6,3.1,1.1
					c1,0.4,1.7,0.7,2.8,1.1c1.5,0.6,2.5,0.8,4,1.4c1.5,0.5,2.4,1,3.9,1.5c1,0.3,1.8,0.5,2.9,0.9c1.2,0.5,2.1,0.9,3.3,1.4
					c1.9,0.7,3.2,1,5,1.8c1.2,0.5,2.3,1.1,2.6,1.6c0.3,0.5,0.3,1.1,0.1,2.1c-0.3,1.6-0.7,2.6-1,4.2c-0.2,1.2-0.4,2.4-0.6,3.5l0,0.2
					c-0.2,1.2-0.5,1.5-1.4,1.8c-0.1,0.1-0.5,0.1-0.6,0.1c0,0-4.4,0-4.5,0c-1.5-0.1-2.6-0.2-4.1-0.2c-1.9,0-3.1,0-5,0
					c-1.5,0-2.6,0.1-4.1,0c-1.9-0.1-3.3-0.3-5.2-0.4c-2.9-0.1-6.6,0.1-7.2,0C200.6,52.9,198.9,52.4,199.1,51z M221.8,45.9
					c0.8,0,1.7,0.1,1.9,0.1c0.3,0,0.6-0.2,0.6-0.4c0-0.1-0.2-0.4-0.4-0.5c-0.2-0.1-1.6-0.7-1.9-0.8c-0.5-0.2-0.9-0.5-1.5-0.7
					c-0.4-0.1-3.9-1.4-4.3-1.4c-1.4-0.3-1.7,0.4-1.8,1.1c-0.1,0.6-0.3,1.8,1.3,2.1C218.2,46,221.1,45.9,221.8,45.9z"/>
				<path class="st1" d="M217.4,74.5c0.1-0.4,0.3-0.7,0.4-1.2c0.4-1.3,0-1.9-1.8-2.5c-1.5-0.5-2.6-0.7-4.1-1.2
					c-1.8-0.6-3-1.1-4.9-1.7c-1.6-0.5-2.8-0.8-4.5-1.4c-0.9-0.3-1.9-0.7-2.8-1c-0.8-0.3-1.4-0.5-2.2-0.6c-0.5-0.1-0.8-0.1-1.3-0.3
					c-1.4-0.5-1.1-1.8-1-2.2c0.2-0.5,0.3-0.9,0.6-1.4c0.3-0.7,0.5-1.2,0.7-2c0.2-0.6,0.3-1.1,0.5-1.8c0.3-0.9,0.8-1.5,2.3-1
					c1.5,0.5,2.4,1,3.8,1.5c1.4,0.5,2.4,0.6,3.8,1.1c1.6,0.5,2.7,1.1,4.3,1.7c1.2,0.4,2,0.5,3.2,0.9c2.8,0.8,4.8,2.3,6.2,1.6
					c0.3-0.1,0.3-0.3,0.4-0.3c0.3-0.3,0.5-0.8,0.5-1.1c0.1-0.4,0.2-0.6,0.3-0.9c0.4-1.2,1.3-1.2,1.8-1.1c1.1,0.4,1.9,0.7,3,1.1
					c0.8,0.3,1.3,0.3,2.1,0.6c1.1,0.4,1.4,0.9,1,2.1c-0.3,1-0.7,1.7-1,2.7c-0.5,1.5-0.9,3.1-1.4,4.6l-0.2,0.5
					c-0.4,1.2-0.8,2.1-1.2,3.4c-0.3,0.8-0.4,1.4-0.6,2.2c-0.6,1.7-1.9,1.3-3,0.9c-0.9-0.3-1.5-0.5-2.3-0.8c-0.6-0.2-1-0.3-1.6-0.5
					C218.2,76.3,217,75.9,217.4,74.5z"/>
				<path class="st1" d="M206.7,107.9c-1.2-0.6-2-1-3.1-1.6c-0.2-0.1-1.7-0.8-0.9-2.2c0.3-0.5,0.7-0.8,1-1.3
					c0.1-0.2,0.4-2.2,0.3-2.6c-0.3-1.9-2.5-3.6-5.5-5.1c-2.5-1.3-4.6-1.6-6.1-1c-0.2,0.1-2.2,1-2.7,2.1c-0.2,0.4-0.2,0.8-0.4,1.2
					c0,0.1-0.4,0.5-1,0.6c-0.3,0-0.6-0.1-1.1-0.3c-0.8-0.4-1.3-0.8-2-1.2c-1-0.5-1.8-0.8-2.9-1.4c-1.7-0.9-1-2.3-0.8-2.8
					c0.2-0.3,1.8-3.1,1.9-3.3c0.1-0.1,1.6-2.1,3.2-3c1.4-0.8,3-1.1,3.5-1.2c0.3-0.1,1.4-0.3,1.7-0.3c0.2,0,3.5,0,5.3,0.5
					c0.9,0.2,2.2,0.9,3,1.3c1.3,0.6,2.3,0.9,3.6,1.6c3.2,1.6,5.8,4,6.6,4.8c0.3,0.4,2.1,2.2,2.6,4.8c0.1,0.3,0.5,3.8,0.5,4.1
					c0,1.7-0.9,4.2-1.6,5.5l-0.2,0.3c-0.5,1-1.2,2.7-2.9,1.8C208,108.7,207.5,108.3,206.7,107.9z"/>
				<path class="st1" d="M172.4,111.7L172.4,111.7c-0.5-0.3-1.9-0.9-1-2.4c0.5-0.8,0.9-1.2,1.3-1.9c0.4-0.7,0.7-1.2,1.1-1.9
					c0.4-0.7,0.7-1.1,1.1-1.7l1.9-3c0.5-0.9,0.8-1.5,1.4-2.4c0.9-1.4,2-0.9,2.5-0.5l0.3,0.2c1.5,0.9,2.4,1.7,3.9,2.6
					c1.6,1,2.8,1.6,4.4,2.6c1.3,0.8,2,1.5,3.3,2.3c1,0.6,1.7,1,2.7,1.6c0.6,0.4,1.2,0.9,1.9,1.3c1,0.6,1.8,1,2.8,1.6
					c1,0.7,1.6,1.2,2.6,1.8c1,0.6,2.1,1.2,3.1,1.8l0.2,0.1c0.4,0.2,1.7,1,0.7,2.5c-0.4,0.7-0.9,1.2-1.4,1.9
					c-0.4,0.7-0.8,1.5-1.3,2.2c-0.4,0.7-1.1,1.7-2.2,1c-0.5-0.3-0.8-0.6-1.3-1c-1.1-0.8-1.8-1.3-2.9-2c-1.1-0.7-1.9-1-3-1.7
					c-0.8-0.5-1.5-1.1-2.4-1.6c-0.6-0.4-1.4-0.7-2-1.1c-1.2-0.7-1.9-1.3-3.1-2c-0.7-0.4-1.3-0.7-2-1.2c-0.3-0.2-0.7-0.5-1-0.7
					c-2.1-1.3-3.2,0.1-3.7,0.8c-0.4,0.7-0.7,1.1-1.1,1.8c-0.2,0.3-0.3,0.6-0.5,0.9c-0.2,0.4-0.6,0.8-1.2,0.9c-0.8,0.2-3-1.3-3.5-1.6
					C173.4,112.4,173,112.1,172.4,111.7z"/>
				<path class="st1" d="M163.1,133.1c-0.2-0.1-1.3-1.4-1.9-2.5c-0.7-1.3-1.1-3.1-0.9-4.6c0.1-0.3,0.2-0.8,0.4-1.6
					c0.5-1.6,1-2.4,1.9-3.7c1.6-2.2,4.6-5.3,8.5-5.2c1.3,0,3.8,0.9,4.7,1.3c0.8,0.4,3.4,2,4.1,2.5c1,0.8,1.7,1.4,2.7,2.1
					c0.8,0.6,1.4,1,2.1,1.5c5.4,4,8,6.4,8.1,10.8c0,2.3-0.4,3.7-2.4,6.5l-0.2,0.2c-1,1.3-2.1,2.6-3.6,3.3c-0.8,0.4-3.4,1.3-4.3,1.4
					c-2.6,0.2-6.1-1.4-10.1-4.3C167.2,137.1,165.3,135.9,163.1,133.1z M176.6,133.3c0.7,0.4,1.1,0.9,1.8,1.4c0.6,0.4,2.8,1.9,3.6,2
					c0.6,0.1,1.4,0.1,2-0.7c0.1-0.1,0.1-0.2,0.1-0.3c0.2-0.3,0.2-0.6,0.3-0.9c0-1.1-0.7-1.9-2-2.9c-1-0.8-1.8-1.2-2.9-2
					c-2-1.5-3.4-2.6-5.4-4.1c-0.9-0.7-3.4-2.7-4.8-0.8c-1.3,1.7,0.3,3,1.3,3.8c0.6,0.5,1.1,0.8,1.8,1.3c0.9,0.7,1.4,1.3,2.4,2
					C175.5,132.5,176,132.8,176.6,133.3z"/>
				<path class="st1" d="M162.2,168.3c-0.9-0.9-1.6-1.5-2.6-2.4c-1-0.9-1.8-1.4-2.8-2.3c-1.3-1.1-2.1-2-3.4-3.1
					c-1.7-1.4-2.9-2.4-4.5-3.8c-0.8-0.7-1.3-1.2-2.1-2c-0.5-0.5-4.1-3-3.2-8c0.1-0.6,0.4-1.9,1.1-3.1c0.7-1.3,2.5-3.3,2.6-3.4
					c2-2.3,3.7-3,5.2-3.5c1-0.3,1.5-0.4,2.2-0.5c0.6,0,1.5,0.2,2,0.3c1.2,0.4,3,1.7,3.9,2.4c1.5,1.3,2.4,2.3,3.9,3.6
					c2,1.8,3.6,2.9,5.6,4.6c1.2,1,2,1.8,3.1,2.8c1.3,1.1,2.2,1.9,3.5,3c1.5,1.3,2.2,2,1.2,3.2c-0.7,0.9-1.4,1.3-2.1,2.1
					c-0.4,0.5-0.6,0.8-1,1.3c-0.7,0.8-1.5,1.8-2.7,0.7c-1.1-1-1.8-1.8-2.9-2.7c-0.7-0.6-1.1-0.9-1.8-1.5c-0.6-0.5-1-0.9-1.6-1.4
					l-1.1-1c-1.1-1-2.1-2-3.2-2.9c-0.9-0.7-1.4-1.2-2.3-1.9c-0.9-0.7-1.7-1.5-2.5-2.2l-0.1-0.1c-0.8-0.7-2.3-2-3.6-0.6
					c-0.3,0.4-0.5,0.9-0.5,1c-0.2,1.4,0.5,2.1,2.1,3.4c1.8,1.5,3,2.7,4.8,4.2c1.5,1.3,2.7,2.1,4.2,3.4c1.3,1.2,2.1,2,3.5,3.2
					c0.5,0.4,1,0.8,1.4,1.2c0.8,0.7,2.7,1.9,1.3,3.4c-0.7,0.8-1.3,1.3-2,2.1c-0.6,0.7-0.9,1.2-1.6,1.9c-1,1.1-2.1,0.2-2.3,0
					C163.1,169.2,162.8,168.8,162.2,168.3z"/>
				<path class="st1" d="M128,162.9c0.5-1.2,1.2-2.5,3.1-4.3c0.6-0.6,1.1-1,1.8-1.7c1-1,1.5-1.8,2.4-2.8c1-1,2.1-2,3.6-0.5
					c1.2,1.2,1.9,2.2,3.1,3.4c1.9,1.9,3.5,3.1,5.4,5c0.8,0.8,1.2,1.3,2,2.1c1.3,1.4,2.4,2.2,3.7,3.5c1.2,1.2,1.9,2,3.1,3.2
					c1,1,1.8,1.6,2.8,2.5c1.5,1.5,1.5,2.4,0.5,3.4c-0.9,0.9-1.5,1.5-2.4,2.3c-0.9,0.9-1.5,1.5-2.3,2.4c-0.3,0.3-0.5,0.6-0.7,0.8
					c-3.1,3.2-5.6,3.7-8.5,3.5c-0.5,0-1.8-0.2-3.2-0.6c-4.2-1.4-8.7-6-9-6.2C130.4,176.1,125.6,169.2,128,162.9z M142,174.7
					c0.9,0.8,4.6,4,6.4,1.9c0.1-0.1,0.3-0.3,0.3-0.5c0.3-0.9-0.5-1.7-0.9-2.1c-1.3-1.3-2.3-2-3.5-3.3c-0.9-0.9-1.4-1.5-2.2-2.3
					c-0.7-0.7-1.3-1.1-1.9-1.7c-0.5-0.5-0.8-0.8-1.2-1.3c-0.7-0.7-1.9-1.9-3.1-0.7c-1.2,1.3,0.1,3.1,0.1,3.2
					c0.4,0.7,3.3,4.3,3.9,4.9C140.5,173.5,141.1,174,142,174.7z"/>
				<path class="st1" d="M126,198.1c0.3-0.3,0.7-0.5,1-0.8l1-0.9c0.5-0.4,0.9-0.7,1.3-1.2l0.1-0.1c0.8-0.8,0.6-1.4,0.2-1.8l-0.7-0.7
					c-0.3-0.4-0.5-0.7-0.9-1c-1-1.1-2.1,0-2.3,0.1c-0.4,0.3-0.7,0.7-1.1,1c-0.3,0.3-0.5,0.4-0.8,0.6c-0.2,0.3-0.5,0.6-0.8,0.8
					c-1,0.8-1.8,0.3-2.1-0.1c-0.3-0.4-0.5-0.7-0.8-1.1l-0.6-0.7c-1.8-1.9-3-2.9-1.3-4.4c0.7-0.7,1.4-1,2.1-1.7
					c1.4-1.2,0.4-2.4,0.1-2.8l-1.5-1.7c-0.8-0.8-1.3-1.4-2.1-2.2c-0.3-0.4-0.5-0.7-0.8-1.1c-0.5-0.6-1-0.8-1.5-1.4l-0.1-0.1
					c-0.3-0.3-1.2-1.4,0.1-2.5c0.8-0.7,1.3-1.1,2.1-1.8c0.7-0.6,1-1.1,1.7-1.7c1.1-1,2-0.3,2.4,0.1c1,1.1,1.6,1.9,2.6,3
					c1.8,2,3.2,3.3,5,5.3c1.4,1.5,2.2,2.7,3.5,4.1c1.3,1.4,2.3,2.3,3.6,3.7c1.1,1.2,1.8,2.1,3,3.4c0.6,0.7,1.2,1.2,1.8,1.8
					c1.4,1.6,0.9,2.5,0.1,3.3l-1.1,1c-1.2,1.1-2.1,2-3.3,3.2c-0.7,0.6-1.2,1-1.9,1.6c-1,0.9-1.7,1.6-2.7,2.6c-0.3,0.3-1,0.9-1.8,0
					c-0.3-0.3-0.4-0.5-0.6-0.8l-0.6-0.6c-0.6-0.7-1.1-1.1-1.7-1.8C125.4,200,124.6,199.3,126,198.1z"/>
				<path class="st1" d="M99.9,187.2c0.5-0.5,1-0.7,1.5-1.2c0.9-0.8,1.4-1.4,2.3-2.1c1.8-1.5,2.3-0.6,3.1,0.2l1.2,1.5
					c0.7,0.8,1.1,1.5,1.8,2.3l1.2,1.5c1.5,1.8,2.7,3,4.2,4.8l3.8,4.4c1.2,1.4,1.9,2.5,3.1,3.9l2.1,2.5c0.5,0.6,1,0.9,1.5,1.6
					c1,1.2,0.2,1.9-0.6,2.6c-0.8,0.7-1.5,1.2-2.3,1.9c-0.7,0.6-1.1,1.1-1.8,1.7c-0.8,0.6-1.6-0.2-2-0.6c-0.5-0.6-0.7-1-1.2-1.6
					c-0.7-0.9-1.3-1.5-2-2.4l-4.7-5.5c-0.7-0.8-1.1-1.5-1.8-2.3l-1.5-1.8c-1.2-1.4-2.2-2.3-3.4-3.7c-0.9-1.1-1.4-1.9-2.3-3
					c-0.8-1-1.6-1.6-2.4-2.6C99.4,188.8,98.9,188.1,99.9,187.2z"/>
				<path class="st1" d="M84.3,204.6c-0.5-0.6-0.9-1-1.4-1.7c-0.3-0.4-1-1.6,0.3-2.6c0.5-0.4,0.9-0.7,1.4-1.1l0.9-0.7
					c0.9-0.7,1.6-1.1,2.5-1.8c0.5-0.4,0.9-0.7,1.4-1.1l3.9-3.1c0.3-0.3,0.6-0.6,0.9-0.9c0.4-0.3,1.7-0.9,2.7,0.4
					c0.8,1,1.2,1.7,2,2.7c0.7,0.9,1.2,1.4,1.9,2.3c0.5,0.6,0.8,1.2,1.3,1.8c0.5,0.6,0.9,1,1.4,1.6c1,1.2,1.6,2.1,2.5,3.3
					c0.9,1.1,1.8,2.1,2.7,3.2c1.2,1.5,2,2.6,3.2,4.1c0.8,1.1,1.5,1.7,2.3,2.8c1.7,2.1,1.9,3,0.3,4.3c-1,0.8-1.8,1.2-2.7,1.9
					c-0.4,0.3-0.9,0.8-1.3,1.1c-1.2,0.9-2.1,1.5-3.3,2.4c-0.5,0.4-0.8,0.8-1.3,1.2l-0.7,0.6c-0.4,0.3-0.7,0.6-1.1,0.9
					c-1.1,0.9-1.9,0-2.2-0.3c-0.5-0.6-0.9-1.3-1.4-2c-0.8-1-2.6-2.4-0.7-3.9l0.4-0.3c0.4-0.3,0.7-0.6,1.2-1c0.6-0.5,1.1-0.7,1.7-1.2
					c2-1.6,1.6-2.3,0.6-3.5c-1-1.3-2-1.6-2.8-0.9c-0.4,0.3-0.6,0.6-1,0.9l-0.1,0.1c-0.6,0.4-1,0.7-1.5,1.1c-0.4,0.3-0.7,0.6-1.1,1
					c-1.5,1.2-2.2,0.1-2.7-0.4c-0.5-0.6-0.7-1-1.2-1.6c-0.4-0.6-0.8-0.9-1.2-1.4c-1.1-1.4-0.1-2.4,0.4-2.7c1.1-0.9,2-1.4,3.2-2.3
					c2-1.6,0.9-2.7,0.3-3.5l-0.3-0.4c-0.1-0.2-0.7-0.9-0.9-1c-1.3-0.6-1.6,0-3.1,1c-0.7,0.4-1.2,0.7-1.9,1.2
					c-0.6,0.5-0.9,0.9-1.5,1.3c-0.4,0.3-1.5,0.9-2.5-0.3C85.1,205.7,84.8,205.3,84.3,204.6z"/>
				<path class="st1" d="M67.1,214.9L67.1,214.9c-0.4-0.5-1.5-1.5,0-2.6c0.7-0.5,1.3-0.8,2-1.3c0.6-0.5,1.1-0.8,1.7-1.3
					c0.6-0.5,1.1-0.7,1.7-1.2l2.8-2.1c0.8-0.6,1.4-1.1,2.2-1.7c1.4-1,2.2-0.1,2.5,0.4l0.2,0.3c1,1.4,1.6,2.5,2.6,3.9
					c1.1,1.5,2,2.5,3.1,4c0.9,1.2,1.3,2.2,2.2,3.3c0.7,0.9,1.2,1.5,1.9,2.5c0.4,0.6,0.8,1.3,1.2,1.9c0.7,0.9,1.3,1.6,1.9,2.5
					c0.7,1,1,1.7,1.7,2.6c0.7,1,1.5,1.9,2.2,2.8l0.1,0.2c0.3,0.4,1.2,1.5-0.3,2.6c-0.7,0.5-1.3,0.7-2,1.3c-0.7,0.5-1.3,1.1-2,1.6
					c-0.7,0.5-1.6,1.2-2.4,0.1c-0.4-0.5-0.5-0.9-0.8-1.4c-0.7-1.1-1.2-1.9-2-2.9s-1.4-1.7-2.1-2.7c-0.6-0.8-1-1.6-1.6-2.4
					c-0.4-0.6-1-1.2-1.5-1.8c-0.8-1.1-1.3-2-2.1-3.1c-0.5-0.7-0.9-1.1-1.5-1.8c-0.2-0.3-0.4-0.7-0.7-1c-1.5-2-3-1.1-3.7-0.6
					c-0.6,0.5-1.1,0.7-1.7,1.2c-0.3,0.2-0.5,0.4-0.8,0.6c-0.3,0.2-0.8,0.5-1.4,0.4c-0.8-0.1-2.3-2.3-2.6-2.8
					C67.8,215.9,67.6,215.5,67.1,214.9z"/>
				<path class="st1" d="M51.8,223.8c0.7-1.1,1.7-2.2,3.9-3.6c0.7-0.5,1.3-0.7,2.1-1.3c1.1-0.7,1.8-1.5,2.9-2.2
					c1.2-0.8,2.5-1.6,3.6,0.2c0.9,1.4,1.4,2.6,2.3,4c1.5,2.3,2.8,3.7,4.3,6c0.6,0.9,0.9,1.5,1.5,2.4c1,1.6,1.9,2.6,2.9,4.2
					c0.9,1.4,1.5,2.4,2.4,3.8c0.7,1.1,1.4,1.9,2.2,3.1c1.2,1.8,0.9,2.7-0.2,3.5c-1.1,0.7-1.8,1.1-2.8,1.8c-1.1,0.7-1.8,1.2-2.7,1.9
					c-0.3,0.2-0.6,0.5-0.9,0.6c-3.7,2.5-6.3,2.4-9.1,1.7c-0.5-0.1-1.8-0.5-3-1.3c-3.8-2.2-7.3-7.6-7.5-7.9
					C51.4,237.2,48.2,229.5,51.8,223.8z M63.1,238.3c0.7,0.9,3.7,4.9,5.9,3.2c0.2-0.1,0.3-0.3,0.4-0.5c0.5-0.8-0.1-1.8-0.5-2.3
					c-1-1.5-1.8-2.5-2.8-4c-0.7-1-1-1.7-1.7-2.8c-0.5-0.8-1-1.3-1.5-2.1c-0.4-0.5-0.6-1-0.9-1.5c-0.5-0.8-1.5-2.3-2.9-1.3
					c-1.5,1-0.6,3.1-0.5,3.1c0.3,0.8,2.3,4.9,2.8,5.6C61.8,236.8,62.4,237.4,63.1,238.3z"/>
				<path class="st1" d="M30.5,237.9c0.4-1.2,1.2-2.4,1.9-3.2c1-1.1,3.3-2.7,4.5-3.4c0.9-0.6,4.6-2.6,6.1-2c0.4,0.2,0.6,0.3,0.9,0.8
					c0.5,0.9,0.8,1.5,1.3,2.4c0.4,0.7,0.8,1.1,1.2,1.8c0.2,0.4,1.3,1.9-0.5,2.9c-0.8,0.4-1.1,0.3-1.7,0.3c-0.2,0-0.2-0.1-0.4-0.1
					c-0.3,0-0.5-0.1-0.8-0.1c-0.7,0-1.7,0.4-2.2,0.8c-1.4,0.8-2,1.8-1.5,2.7c0.7,1.4,2.8,1.6,4.4,1.9c1.1,0.3,1.9,0.5,3,0.8
					c0.4,0.1,1.6,0.3,2.7,0.7c2.9,1.1,3.9,2.5,5.1,4.5c3.6,6,2.3,10.2-3.5,13.7c-2.7,1.6-5.5,3.5-6.7,1.6c-0.5-0.9-0.8-1.5-1.3-2.4
					l-0.1-0.2c-0.3-0.6-0.6-0.9-0.9-1.5c-0.2-0.4-1-1.7,0.5-2.6c0.6-0.4,1.7-0.6,1.9-0.6c0.5-0.1,1-0.3,1.8-0.7
					c0.2-0.1,1.8-1,0.9-2.5c-0.2-0.4-0.5-0.7-1.1-1c-0.5-0.3-3.2-0.8-5.6-1.3c-0.9-0.2-1.7-0.3-2.6-0.6c-3.2-1-4.5-2.2-5.8-4.4
					C30,242.7,29.5,240.7,30.5,237.9z"/>
			</g>
		</g>
	</g>
</g>
</svg>
