<?xml version="1.0" encoding="utf-8"?>
<!-- Generator: Adobe Illustrator 27.8.1, SVG Export Plug-In . SVG Version: 6.00 Build 0)  -->
<svg version="1.1" id="Layer_1" xmlns="http://www.w3.org/2000/svg" xmlns:xlink="http://www.w3.org/1999/xlink" x="0px" y="0px"
	 viewBox="0 0 529.2 394.8" style="enable-background:new 0 0 529.2 394.8;" xml:space="preserve">
<style type="text/css">
	.st0{fill:#025C38;}
</style>
<g>
	<g>
		<path class="st0" d="M509.8,307c0.9,0.3,1.8,0.5,2.6,0.9c1.5,0.8,3.1,1.7,4.4,2.8c1.6,1.3,2.1,3.2,1.9,5.2
			c-0.3,3.9-1.7,7.6-3.2,11.2c-6.4,15.1-12.9,30.2-19.4,45.2c-1.9,4.4-4.3,8.4-8.2,11.5c-3,2.3-6.4,3.3-10.1,3.3
			c-1.6,0-2.9-0.6-3.6-2c-0.1-0.2-0.3-0.5-0.5-0.7c-2.5-2.3-2.5-5.2-1.9-8.2c1.3-5.9,2.7-11.8,4.2-17.7c1.3-5.2,1.7-10.3-0.3-15.6
			c-0.5,0.1-1,0.3-1.6,0.4c-6.8,1.3-13.5,3-20.3,3.7c-12.4,1.2-24.7,3.4-37.2,3.4c-12.3,0-24.5-0.8-36.4-4
			c-6.4-1.7-12.7-3.9-18.2-7.9c-5.7-4.1-9.4-9.5-9.9-16.7c-0.1-2.2,0.6-4.5,1.3-6.6c1.4-4.5,3-9,4.5-13.5c0.2-0.7,0.1-1.6,0.2-2.4
			c-0.5,0.6-1.2,1.2-1.5,1.9c-1.5,4-3,8-4.4,12c-0.4,1.2-1,1.4-2.1,1.2c-1.6-0.3-3.2-0.6-4.7-1c-3.3-0.8-6.6-0.5-9.8,0.7
			c-3.2,1.2-5.5,3.6-4.6,7.7c0.3,1.5,0.7,3.1,1,4.6c0.9,3.8,0.4,7.5-1.6,10.9c-1.9,3.4-4.9,5.2-8.7,5.6c-1.2,0.1-1.7,0.5-2.2,1.6
			c-3.5,8.3-6.9,16.6-10.6,24.9c-1.3,2.8-2.8,5.6-4.5,8.2c-3,4.4-7,7.3-12.5,7.6c-0.9,0.1-2,0.2-2.8-0.2c-1.1-0.4-1.4,0.1-2,0.8
			c-2.2,2.6-4.5,5.3-6.9,7.8c-0.6,0.7-1.8,1.1-2.8,1.2c-4.1,0.1-8.1-1-11.9-2.4c-1.6-0.6-2-1.8-1.2-3.3c0.5-1,1.4-2,1.8-3.1
			c0.3-0.8,0.1-1.7,0.1-2.6c-0.9,0-1.7-0.1-2.6,0c-0.5,0.1-1,0.4-1.4,0.7c-5.7,4.2-12,5.1-18.8,3.7c-7.1-1.5-14.2-2.9-21.3-4.3
			c-3.6-0.7-7.3-1.3-10.9-1.9c-9.8-1.7-18.6-6.1-27.1-11.1c-1.1-0.6-2-1.4-2.9-2.3c-2.8-2.7-2.7-5.3,0.3-7.8c3.4-3,7.3-5,11.9-5.8
			c8.2-1.4,16.3-3,24.5-4.5c1.3-0.2,2.6-0.4,4.1,0.8c-1.4,0.6-2.6,1.4-3.9,1.7c-8.2,1.8-16.5,3.6-24.7,5.3c-3.5,0.7-6.5,2.2-9.2,4.5
			c-1.5,1.2-1.6,1.9-0.1,3.1c1.8,1.5,3.8,2.9,5.8,4c8.8,4.6,17.9,8.1,27.8,9.5c8.2,1.2,16.3,3.2,24.4,4.7c2.2,0.4,4.4,0.6,6.6,0.9
			c3.8,0.5,7.2-0.5,10.4-2.5c1.2-0.7,2.4-1.4,3.6-2c1.6-0.8,3.2-0.9,5-0.3c2,0.6,2.6,1.3,2.7,3.4c0.1,2.2-0.8,4.1-2.2,6
			c1.2,0.3,2.2,0.7,3.3,0.9c1.7,0.4,3.4,0.7,5.2,1c0.5,0.1,1.3-0.1,1.7-0.4c2.3-2.5,4.5-5.1,6.7-7.7c0.6-0.7,0.7-1.3,0.1-2.1
			c-1.1-1.6-1-3.5-0.8-5.4c0.1-1,0.3-1.5-1.1-2.1c-3.2-1.4-6.2-3.3-9.4-4.9c-12.1-6.2-24.3-12.3-36.4-18.4c-0.4-0.2-0.7-0.4-1.5-0.8
			c9.2-1.4,18-2.7,26.8-4.1c8.7-1.4,17.7-1,26.3-3.3c0-0.2,0-0.5,0-0.7c-0.6-0.1-1.2-0.4-1.7-0.3c-5.6,0.5-11.2,0.9-16.8,1.7
			c-8.5,1.2-17.1,2.4-25.5,4.1c-16.2,3.1-32.2,2.3-48.1-1.2c-3.7-0.8-7.2-2.3-10.9-3.3c-3.9-1.1-7.3-3.2-10.5-5.5
			c-6.7-5-10.3-11.7-9.7-20.4c0.4-5.8,1.6-11.4,3.9-16.8c0.6-1.4,1.5-1.8,2.8-1.8c0.8,0,1.7,0,2.6-0.3c-0.3-0.1-0.7-0.2-1-0.2
			c-3.7-0.4-7.4-0.7-11.1-1.2c-1-0.1-2-0.4-2.9-0.7c-1.9-0.7-2.5-2.3-2.7-4.2c-4.6,1.2-9.1,2.2-13.5,3.5c-1.7,0.5-3.3,1.7-4.7,2.9
			c-2.3,2-3.4,4.7-0.9,7.7c1.1,1.3,2.2,2.5,3.3,3.7c4.4,4.8,5.4,13.9-3.7,17.8c-1.3,0.6-2.6,1.1-4,1.4c-2.9,0.8-5.5,2.3-7.8,4.2
			c-2.4,1.9-2.5,3.7-0.3,5.8c1.1,1.1,2.4,2.2,3.5,3.3c3.1,3,3.8,6.5,2.1,10.5c-1.3,3.3-3.6,5.9-6.2,8.2c-2.3,1.9-4.6,3.6-6.9,5.5
			c-0.3,0.2-0.5,0.8-0.4,1.1c1.6,6-0.4,11.3-3.4,16.2c-1.8,2.9-4.4,5.4-6.7,8c-0.4,0.4-1.2,0.7-1.8,0.7c-5.9,0.2-11.8,0.3-17.8,0.4
			c-0.4,0-0.8-0.1-1.3-0.2c-0.8-0.2-1-0.7-0.6-1.4c1.2-2.7,2.4-5.5,3.6-8.2c0.3-0.7,0.6-1.3,0.7-2c0.1-0.5-0.2-1.1-0.3-1.6
			c-0.6,0.2-1.3,0.3-1.7,0.7c-1.2,1.3-2.3,2.6-3.4,4c-3,4-7.1,5.8-12,6.3c-5,0.5-10,0.5-15,0c-6.9-0.6-13.8-1.2-20.7-1.3
			c-8.8-0.1-17.5-1.5-26-3.8c-2.2-0.6-4.6-1-6.8-1.7c-5.6-1.8-6.5-5.9-2.4-9.9c3.7-3.6,8.5-5,13.5-5.9c7.9-1.4,15.9-2.8,23.8-4.3
			c0.2,0,0.4-0.1,0.5-0.2c0-0.1-0.1-0.3-0.1-0.3c-3.5,0.1-4.5-2.7-5.3-5.1c-1-2.9-1.4-6.1-1.6-9.2c-0.7-12.4,2.6-24.1,8.1-35.1
			c12.2-24.4,30.8-42.4,55.4-54.2c4-1.9,8.5-3,12.7-4.5c0.3-0.1,0.7-0.2,1.4-0.4c-0.7-0.4-1.1-0.6-1.6-0.9
			c-7.1-3.6-13.8-7.7-19.3-13.7c-4.3-4.8-7.3-10.2-7.3-16.8c0-5.6,2.2-10.4,5.6-14.8c4.9-6.4,11.4-10.9,18.4-14.8
			c10.5-5.8,21.7-9.6,33.3-12.7c0.6-0.2,1.2-0.3,2.1-0.6c-0.5-0.3-0.8-0.6-1.1-0.7c-9.2-4.2-17-10.2-23.8-17.6
			c-3.7-4-7.3-7.9-9.8-12.8c-4.2-8.5-5.7-17.6-5.2-27.1c0.6-13.6,4.7-26.2,11.1-38c8.9-16.6,21.1-30.4,36.9-40.9
			c0.2-0.2,0.4-0.3,0.4-0.3c-0.8-2.1-2-4-2.2-6c-0.7-6.4,2-11.5,6.9-15.5c0.9-0.8,1.1-1.3,0.7-2.4c-1.7-4.8-1.9-9.6-0.5-14.5
			c0.5-1.7,1.6-2.8,3.4-3.1c1.7-0.3,3.2,0.3,4.3,1.7c2.1,2.7,3.2,5.8,4,9c0.5,2,0.8,4,1.3,6.1c0.6-0.2,1.1-0.5,1.7-0.6
			c0.8-0.2,1.8-0.6,2.5-0.2c1.3,0.7,2.2,0.2,3.4-0.3c1.6-0.7,3.3-0.4,4.3,0.5c1.5-0.1,2.8-0.2,4-0.4c0.6-0.1,1.2-0.5,1.5-0.9
			c2.8-3.4,5.4-6.8,8.3-10.1c1.1-1.3,2.5-2.4,3.9-3.5c0.8-0.6,1.8-1.1,2.7-1.5c1.3-0.6,2.7-0.9,3.9,0.1c1.2,1.1,0.8,2.5,0.2,3.7
			c-1.7,3.1-3.5,6.3-5.5,9.2c-1.6,2.3-3.5,4.2-5.3,6.3c-0.3,0.3-0.5,0.9-0.4,1.3c1.6,6.4-0.1,11.9-4.4,16.7c-0.6,0.6-0.5,1.2-0.5,2
			c0,2.5-0.2,5-0.5,7.5c-1.2,9.1-6,16.5-11.9,23.2c-2.4,2.8-5.3,5.2-8,7.6c-2.8,2.5-3.3,6.5-1.4,9.6c1.8,3,3.8,6,5,9.3
			c1.5,4.1,1.8,8.6,0.2,12.8c-2,5.3-4.1,10.5-6.2,15.7c-0.8,2-0.2,4.2,1.5,5.5c1.3,0.9,2.7,1.6,4.3,1.4c3-0.2,6.1-0.5,9.1-0.4
			c3.1,0.1,6.3,0.6,9.4,1c0,0.1,0-0.1,0-0.3c-1.6-8.8-0.8-17.6,1.3-26.2c2.2-9.1,5.7-17.6,11.3-25.1c2.9-3.9,6.2-7.3,10.6-9.5
			c4.7-2.4,9.2-2.5,13.7,0.6c1.7,1.1,2.8,2.4,3.7,4.1c1.8,3.2,3.7,6.3,5.6,9.4c2.1,3.4,5.4,4.4,9.1,4.7c3.1,0.2,6.2,0.3,9.2,0.5
			c1.3,0.1,2.5,0.4,3.7,0.8c2.9,1.1,4.3,3.5,3.8,6.5c-0.3,1.8-0.8,3.5-1.3,5.2c-1.1,4.3,0.1,6.4,4.3,7.6c2.4,0.7,4.9,0.9,7.4,1.5
			c1.6,0.3,3.2,0.6,4.7,1.2c3.2,1.2,4.3,3.4,3.6,6.6c-0.2,1.1-0.6,2.1-0.9,3.1c-0.2,0.9-0.5,1.8-0.7,2.8c-0.5,3.1,0.7,5.2,3.5,6.4
			c1.4,0.6,3,0.8,4.5,1.3c0.7,0.3,1.5,0.8,1.8,1.4c0.2,0.4-0.3,1.5-0.8,1.7c-0.7,0.3-1.6,0.2-2.5,0.2c-0.4,0-0.9-0.3-1.3-0.4
			c-1.1-0.3-2.3-0.6-3.4-1c-4.3-1.7-6.2-5.1-5.3-9.6c0.3-1.8,0.9-3.5,1.4-5.2c0.7-2.5,0.1-3.7-2.4-4.4c-2.4-0.6-4.9-0.9-7.4-1.4
			c-2.1-0.5-4.3-1-6.2-1.8c-3.4-1.5-4.7-4.3-4.1-7.9c0.3-1.7,0.8-3.3,1.2-5c1.1-3.9,0-5.6-3.9-6.1c-2.6-0.3-5.2-0.2-7.8-0.5
			c-2.5-0.3-5-0.7-7.4-1.3c-2-0.5-3.4-1.7-4.5-3.5c-1.1-2-2.3-4-3.6-6c-1.4-2.2-2.7-4.4-4.3-6.4c-2.6-3.5-6.9-4.6-11.1-2.9
			c-3.8,1.5-6.7,4.3-9.2,7.5c-6.6,8.3-10.3,17.9-12.4,28.1c-1.5,7.2-1.9,14.4-0.7,21.6c0.6,3.5,1.6,6.8,3.6,9.8
			c3.4,5.1,8.2,6.2,13.4,3.1c3.7-2.1,6.5-5.2,8.9-8.7c6.1-8.8,9.6-18.7,11.3-29.2c0.1-0.6-0.2-1.2-0.5-1.8c-0.8-1.7-1.8-3.3-2.3-5.1
			c-0.6-2-0.8-4.1-1-6.2c-0.1-0.6,0.4-1.6,0.9-1.8c1-0.4,1.3,0.5,1.5,1.3c0.5,1.9,1.1,3.7,1.5,5.6c1,4.1,4,6.4,7.4,8.4
			c0.6,0.4,1.6,0.3,2.4,0.3c4.6,0,7.1,2.5,6.8,7.1c-0.1,1.6-0.2,3.1-0.1,4.7c0.2,2.6,1.6,4.3,4.1,4.8c2,0.4,4.1,0.6,6.2,0.6
			c5.4,0,7.3,1.7,7.4,7.2c0,1.9-0.2,3.8-0.4,5.7c-0.3,2.5,0.1,3.5,2.5,4.3c2.6,0.9,5.3,1.5,7.9,2.3c1.4,0.4,2.8,0.7,4.1,1.2
			c0.9,0.4,1.5,1.1,1,2.2c-0.5,1.1-1.3,1.1-2.4,0.9c-3-0.8-6.1-1.4-9.1-2.3c-1.6-0.5-3.2-1.1-4.8-1.9c-2.2-1.1-3.2-3-2.9-5.5
			c0.2-1.8,0.4-3.6,0.5-5.4c0.1-0.9,0-1.8-0.2-2.7c-0.4-2.3-1-2.7-3.3-2.8c-2.2-0.1-4.5,0-6.7-0.3c-5.5-1-8-4.5-7.4-10.1
			c0.1-1.1,0.3-2.3,0.4-3.4c0.1-1.6-0.5-2.7-1.9-3.5c-0.8-0.5-1.2-0.3-1.7,0.6c-0.8,1.8-1.8,3.6-2.9,5.2c-1.3,1.9-3.2,2.9-5.4,3.4
			c-0.5,0.1-1.1,0.6-1.4,1.1c-2.2,4.5-4.3,9.1-6.4,13.6c-0.1,0.2-0.2,0.3-0.3,0.5c-0.5,3.3-1,6.5-1.4,9.8c-0.1,0.8-0.1,1.7-0.2,2.6
			c1.6,0.4,3.2,0.7,4.8,1.1c1.3,0.3,2.6,0.7,3.9,0.9c6.7,0.9,12.9,3.5,18.8,6.6c2.3,1.2,4.6,3,6.4,4.9c2.5,2.7,4.5,5.8,6.7,8.8
			c0.5,0.6,0.9,1,1.7,1c18.3-0.3,36.5-0.6,54.8-0.9c0.5,0,1.3-0.3,1.5-0.7c3.3-4.9,7.8-8.4,12.8-11.4c11-6.5,23-9.8,35.6-11.1
			c3.4-0.4,6.9-0.4,10.3-0.7c0.5-1.7,0.1-3.2-0.6-4.7c-3.9-9.1-3.8-18.5-2.2-27.9c1.5-9.1,4.4-17.7,9.1-25.7
			c0.2-0.3,0.3-0.6,0.6-1.3c-1.1,0.1-1.9,0.2-2.7,0.3c-0.7,0.1-1.3,0.3-1.9,0.3c-7,0.3-13.9,0.7-20.9,0.9c-3.1,0.1-6.2-0.2-9.4-0.4
			c-0.6,0-1.4-0.2-1.9-0.5c-0.8-0.6-1.9-1.3-2-2.1c-0.1-0.8,0.7-2,1.4-2.5c1-0.8,2.3-1.4,3.5-1.7c9.1-2.7,18.4-3.7,27.8-2.4
			c0.6,0.1,1.1,0.1,1.7,0.2c0.5-3.2,2.6-5.3,4.8-7.2c7.4-6.6,16.2-10.1,26-11c4-0.3,7.8,0.7,11.3,2.6c6,3.2,7.8,8.6,7.8,14.9
			c0,1.1-0.1,2.3-0.2,3.4c0,2.3-0.1,4.5,0.8,6.8c1,2.6,1.1,5.5,1.4,8.4c0.1,0.7-0.5,1.6-1,2.1c-0.2,0.2-1.2-0.3-2-0.5
			c0.1,1,0.1,2.1,0.4,3.1c1.2,4.2-0.7,10-4.3,13c-2.1,1.7-4.4,2.9-7,3.4c-0.8,0.1-1.2,0.5-1.4,1.3c-1.8,5.7-4.1,11.2-7.3,16.3
			c-0.1,0.2-0.3,0.3-0.3,0.5c-0.5,3.3-1,6.6-1.5,9.9c-0.1,0.8-0.1,1.7-0.2,2.6c1.6,0.4,3.3,0.8,4.9,1.1c1.2,0.3,2.3,0.6,3.5,0.8
			c6.9,1,13.2,3.6,19.4,6.7c0.9,0.5,1.8,1,2.6,1.6c4.7,3.6,8.4,8,11,13.2c1.4,2.9,2.2,6,2.2,9.3c0,3.6,0.4,7.2,0.7,10.9
			c1.9-0.1,3.7-0.3,5.5-0.3c14.9-0.4,29.9-0.8,44.8-1.1c1.6,0,3.2-0.5,4.9-0.2c14.1,2.6,22,14,16.2,27.6c-3.8,8.9-11,14.1-19.8,17.5
			c-2.8,1.1-5.7,1-8.6,1.1c-13.4,0.2-26.7,0.5-40.1,0.8c-0.4,0-0.7,0.1-1.2,0.1c0,0.2-0.1,0.4,0,0.6c0.8,4.5-0.4,8.4-3.6,11.6
			c-2.6,2.5-5.4,4.8-8.2,7c-3.1,2.4-6.4,4.4-9.5,6.7c-1.1,0.9-2.2,2-2.9,3.2c-1.6,2.6-3,5.3-4.3,8c-1.7,3.3-4.2,6-7.2,8.1
			c-4.3,2.9-8.8,5.2-14,5.9c-5.4,0.7-10.9,1.5-16.3,2.1c-3.8,0.4-7.6,0.4-11.5,0.6c-0.8,0-1.7,0-2.4,0.4c-2,1.1-3.4,0.2-4.8-1
			c-4.6-3.9-9.3-7.7-11.9-13.5c-1.2-2.6-3.2-4.9-4.9-7.3c-0.1-0.2-0.4-0.4-0.6-0.4c-1.1,0-2.4-0.1-3.4,0.3c-2.5,0.9-4.9,0.1-7.3-0.2
			c-3.2-0.4-6.4-0.9-9.6-1.3c-0.6-0.1-1.7,0.3-1.8,0.7c-0.2,0.7,0,1.8,0.5,2.2c1.5,1.2,3,2.6,4.7,3.3c2.7,1.1,5.6,1.7,8.4,2.6
			c0.7,0.2,1.4,0.2,2,0.6c0.4,0.2,0.6,0.8,1,1.2c-0.5,0.2-1,0.6-1.4,0.5c-2.6-0.5-5.2-1.1-7.8-1.6c-0.6-0.1-1.4-0.1-2,0.2
			c-1.5,0.6-1.7,1.3-0.9,2.7c0.9,1.6,2.4,2.5,4.1,2.8c2.9,0.5,5.9,0.9,8.8,1.4c1,0.1,2,0.3,2.9,0.5c0.3,0.1,0.7,0.5,0.7,0.7
			c0,0.3-0.3,0.7-0.6,0.8c-0.6,0.2-1.2,0.4-1.8,0.3c-2.9-0.2-5.8-0.5-8.6-0.7c-0.5,0-1.1,0.2-1.6,0.3c0.2,0.6,0.3,1.6,0.7,1.8
			c2,0.9,4,1.7,6.1,2.2c2.5,0.6,5.1,1,7.7,1.5c0.4,0.1,0.8,0.6,1.2,0.9c-0.4,0.4-0.9,1.1-1.3,1.1c-2-0.1-4-0.3-6.1-0.5
			c-0.6-0.1-1.2-0.1-1.8-0.2c0.3,1.7,1,2.6,2.9,2.8c3.7,0.3,7.4,0.5,11.1,0.5c2.1,0,4.3-0.3,6.3-0.7c4.2-0.8,8.4-2,12.7-2.6
			c3.4-0.5,6.9,0,10.3-0.4c5.6-0.6,11.1-1.4,16.6-2.2c5.1-0.7,9.4-3,13.7-5.6c5.1-3.1,8.3-7.8,10.7-13.1c0.4-1,1-1.9,1.3-2.6
			c1.2,0.2,2.2,0.4,3.2,0.4c7,0.3,13.9,0.5,20.4,3.7c3.9,1.9,7.3,4.4,9.8,8c2,3.1,2.9,6.4,2.7,10.1c-0.2,2.8,1.9,5,4.6,4.7
			c1.8-0.2,3.6-0.8,5.3-1.6c1.9-0.9,3.7-2.1,5.5-3.2c4-2.4,8.2-4.5,12.9-4.9c1.2-0.1,2.3,0.2,3.5,0.2c0.5,0,1.1-0.1,1.6-0.3
			c3.5-1.3,6.9-2.6,10.4-3.8c2.2-0.7,4.5-0.4,6.7,0.5c1,0.4,1.9,0.9,2.9,1.2c3.7,1.1,6.1,3.8,7.9,7c0.6,1,0.4,2.7,0.1,3.9
			c-1,3.5-2.2,6.9-3.5,10.2c-0.4,1-1.5,1.8-2.4,2.6c-0.2,0.2-0.9,0-1.3-0.1c-0.7-0.2-1.4-0.6-2.2-0.7c-2.3-0.3-4.7-0.5-7-0.9
			C510.7,305.2,510.2,305.4,509.8,307z M255.2,209.6c0.3,0.8,0.5,1.4,0.8,1.8c3.8,3.9,5.8,8.7,6.7,14c0.2,1,0.5,1.3,1.5,1.3
			c37.2,0.5,74.3,1,111.5,1.6c0.6,0,1.2,0,1.8,0.1c1.4,0.2,1.8,1.1,1.2,2.3c-0.2,0.4-0.2,0.9-0.2,1.3c0,1.5,0.3,2.9,0.1,4.3
			c-0.4,3.1-2,5.7-3.6,8.3c-0.9,1.5-1.9,2.3-3.7,2.3c-37.8,0.2-75.7,0.4-113.5,0.7c-0.6,0-1.3,0.3-1.7,0.7c-2.4,2.5-4.7,5.1-7.1,7.5
			c-3.6,3.6-6,8-8.5,12.4c-2.5,4.3-4.9,8.5-7.7,12.6c-1.3,2-3.2,3.6-5.1,5.2c-4,3.5-8.3,6.6-13.6,7.4c-4.5,0.7-9.2,0.6-13.7,0.1
			c-4.1-0.4-8.1-1.7-12.2-2.6c-1-0.2-1.7-0.1-2.2,0.9c1.2,0.3,2.3,0.6,3.4,1c7.4,2.2,14.8,3.6,22.5,2.6c2.2-0.3,4.5-0.4,6.5-1.1
			c7.1-2.4,12.3-7.5,16.5-13.4c3.5-4.9,6.3-10.3,9.4-15.5c0.7-1.2,1.5-2.3,2.4-3.7c0.2,1.1,0.3,1.6,0.4,2.2c0.2,1.1,0.7,1.5,1.9,1.5
			c27.6-0.3,55.2-0.6,82.7-0.9c8.2-0.1,16.3-0.1,24.5-0.2c0.8,0,1.7-0.3,2.4-0.7c15.8-11.5,28.7-25.6,37.5-43.1
			c3.9-7.8,6.8-16,7.8-24.7c0.7-5.7,0.4-11.3-0.9-17c-0.3-1.3-0.6-2.8-0.2-4.1c0.7-2.3,0.5-2.9-1.9-2.9c-27.7,0.2-55.4,0.5-83.1,0.7
			c-17.4,0.1-34.7,0.1-52.1,0.2c-0.5,0-0.9,0.1-1,0.1c0.2,3.3,0.6,6.4,0.4,9.4c-0.2,3.1-1.2,6.1-1.8,9.2c0.3,0,0.7,0.1,1.1,0
			c33.8-0.4,67.6-0.7,101.4-1.1c8.8-0.1,17.5-0.1,26.3-0.1c0.5,0,1.4,0.1,1.5,0.4c0.6,1.4,1.5,3,1.5,4.5c0.1,6-3,10.6-6.9,14.8
			c-0.3,0.4-1.1,0.5-1.7,0.5c-43.3-0.1-86.7-0.3-130-0.5C256.4,209.6,256,209.6,255.2,209.6z M206.7,224.9c2.5-4.4,4.8-8.9,6.6-13.8
			c-0.9,0-1.5,0-2.1,0c-10.3,0.4-20.6,0.7-30.8,1.2c-7,0.3-14,0.6-21,1c-4.4,0.3-8.8,0.7-13.2,1c-4.6,0.3-9.1-0.1-13.4-1.9
			c-3.4-1.5-5.4-6.2-3.9-9.6c2.3-5.1,6.8-7.1,12-8c2.5-0.4,5.1-0.5,7.7-0.5c5.3-0.2,10.7-0.2,16-0.4c8.5-0.4,17-0.8,25.6-1.3
			c8.7-0.5,17.3-1,26-1.5c0.9-0.1,1.7-0.1,1.6-1.4c-0.2-2.4-0.1-4.9-0.4-7.3c-0.5-4.4-1.6-8.7-4.7-12.1c-0.7-0.8-1.4-1.2-2.4-1.2
			c-1.9,0-3.8-0.1-5.7,0.1c-18.7,1.3-37,4.7-54.8,10.7c-6.1,2.1-12.3,4.1-18.5,6.1c-7.8,2.5-15.5,5.5-22.7,9.4
			c-6,3.3-11.7,7.1-16.2,12.4c-3.8,4.5-6.3,9.4-5.9,15.5c0.4,5.3,2.9,9.6,6.3,13.4c5.8,6.5,13.2,10.9,21.1,14.5
			c11.7,5.4,24.1,8.8,36.7,11.3c5.5,1.1,11,2.4,16.7,1.7c0.4,0,0.8,0.1,1.1,0.1c0.5,0,1.1,0,1.5-0.3c6.3-4.2,12.1-9,17.4-14.3
			c0.2-0.2,0.4-0.5,0.8-1.1c-1.5,0.1-2.8,0.1-4,0.2c-10.4,0.5-20.8,0.9-31.1-0.5c-6.8-0.9-13.5-2.2-19.8-5.1
			c-2.4-1.1-4.6-2.5-6.3-4.6c-3.7-4.7-1.7-11,4.2-12.4c2.1-0.5,4.3-0.8,6.5-0.8c22.2-0.3,44.5-0.5,66.7-0.7
			C205.1,224.6,205.8,224.8,206.7,224.9z M455.5,233.9c0.5,0,0.9,0,1.3,0c13.5-0.5,27.1-1,40.7-1.3c2.4-0.1,4.6-0.4,6.8-1.1
			c7-2.5,12.7-6.6,16.3-13.2c2.9-5.3,3.6-10.9,0.7-16.5c-2.2-4.4-6.1-6.9-10.5-8.6c-0.9-0.4-2-0.6-3-0.5c-4.9,0-9.9,0.2-14.8,0.3
			c-12.7,0.1-25.4,0.2-38.1,0.3c-1,0-1.2,0.3-1.2,1.2c-0.1,8.3-1.2,16.5-2.7,24.7c-0.1,0.7,0.1,1.5,0.4,2.1
			C453.3,225.2,455.4,229.2,455.5,233.9z M475.4,378c-0.1,1.9,1.2,3,2,4.3c0.7,1.1,1.5,1.3,2.7,1.2c4.2-0.4,7.1-2.8,9.3-6.1
			c1.7-2.6,3.1-5.3,4.4-8.1c6.2-14,12.4-28.1,18.5-42.2c1.3-3,2.2-6.2,3.1-9.4c0.7-2.5-0.3-4.5-2.5-5.8c-1.2-0.7-2.5-1.2-3.7-1.8
			c-2.1-1.1-2.5-2-2-4.3c0.4-1.8,2.4-3.8,4-3.8c3.3,0.1,6.5,0.3,9.8,0.4c0.4,0,1.1-0.3,1.2-0.7c1.1-2.7,2.1-5.5,3.1-8.2
			c0.1-0.4,0.2-1,0-1.3c-2.5-4.8-7.1-6.4-11.9-7.6c-0.5-0.1-1.2,0-1.7,0.1c-3.7,1.2-7.3,2.5-11,3.8c-0.4,0.2-0.8,0.6-1,1.1
			c-1.7,3.9-3.4,7.7-5,11.6c-4.9,12.4-9.7,24.9-14.6,37.3c-0.6,1.4-0.8,2.8-0.3,4.2c1.7,4.7,1.6,9.6,0.5,14.4
			c-0.9,3.7-1.8,7.5-2.6,11.2C476.9,371.7,476.1,374.9,475.4,378z M332,301.8c-0.1-0.1-0.2-0.2-0.3-0.3c-0.2,0.1-0.4,0.2-0.6,0.3
			c-2.8,2.1-5.5,4.3-8.3,6.5c-0.7,0.6-1.3,0.6-2.1,0.1c-1.6-1.2-1.9-2-1.2-4.3c0.5-1.5,2.5-3.4,3.8-3.4c3,0.1,6,0.2,9.1,0.3
			c1,0,1.6-0.2,2-1.1c1-2.6,2-5.2,2.9-7.9c0.1-0.3,0.1-0.9-0.1-1.2c-0.8-1.2-1.6-2.4-2.6-3.4c-0.9-0.9-2-1.6-3.2-2.1
			c-1.4-0.6-2.9-0.9-4.3-1.3c-1-0.3-2-0.7-2.9-0.6c-2.2,0.2-4.7-0.7-6.6,1.1c-0.1,0.1-0.3,0-0.4,0c-2.5,0.1-4,2.1-5.1,3.7
			c-1.6,2.2-2.4,5-3.4,7.6c-5.4,13.7-10.7,27.5-16.1,41.2c-0.7,1.7-0.6,3.2-0.1,4.8c1.4,4.1,1.5,8.2,0.6,12.3
			c-1.4,6.3-2.9,12.6-4.4,19c-0.3,1.2-0.4,2.4-0.5,3.6c-0.1,1.7,1.2,2.6,1.9,3.8c0.6,1.1,1.3,1.2,2.5,1.1c4.7-0.4,7.8-3.2,9.9-7
			c2.6-4.7,4.8-9.7,7-14.6c3.8-8.9,7.5-17.8,11.2-26.7c0.1-0.3,0.2-0.5,0.4-0.8c2.8-4.5,4.5-9.4,6.1-14.4c1.5-4.8,0.6-6.6-3.9-8.8
			c-0.1-0.1-0.2-0.2-0.3-0.2C326,306.8,329,304.3,332,301.8z M91.4,388.1c0.8,0,1.3,0,1.8,0c2.8,0,5.8-0.4,8.5,0.2
			c4.1,0.9,6.3-1.2,8.3-4.2c0.1-0.2,0.3-0.4,0.4-0.6c3.1-4.9,5.3-10.1,4-16.1c-0.2-1.1-0.7-1.5-1.8-1.5c-20.7-0.9-41.4-1.9-62.1-2.8
			c-0.8,0-1.6,0-2.4,0.3c-10.1,3.5-20.5,5.5-31,6.9c-3.3,0.4-6.5,1.2-9.5,2.8c-1.3,0.7-2.5,1.8-3.5,2.9c-1.1,1.2-0.8,2.4,0.7,3.1
			c1.2,0.6,2.5,1,3.9,1.4c3,0.7,6,1.3,9,2.1c5.3,1.3,10.7,2.1,16.2,2.3c8.4,0.4,16.8,0.8,25.1,1.5c5.4,0.5,10.8,0.5,16.2-0.2
			c2.3-0.3,4.3-1.1,5.9-2.8c1.5-1.6,3.1-3.3,4.3-5.1c1.2-1.8,2.8-2.6,4.8-2.9c2.7-0.4,4.8,1.6,4.4,4.3c-0.2,1.1-0.5,2.1-0.9,3.1
			C93,384.5,92.2,386.1,91.4,388.1z M401.9,86.5c-0.1,0.6-0.1,1.2-0.2,1.7c-0.2,1.4-0.4,2.7-0.6,4.1c-0.2,0.9-0.6,1.7-1.6,1.4
			c-0.4-0.1-0.8-1-0.9-1.6c-0.1-0.9,0.2-1.8,0.3-2.7c0.2-1,0.4-1.9,0.6-2.8c-1.1-0.4-1.6-0.1-2,0.9c-0.7,1.7-1.6,3.4-2.5,5.1
			c-0.3,0.7-0.9,1.3-1.4,1.7c-0.3,0.2-1,0.3-1.3,0.1c-0.3-0.2-0.4-0.9-0.3-1.2c0.3-0.9,0.7-1.8,1.1-2.6c0.6-1.3,1.2-2.6,2-4.2
			c-1.4,0-2.5,0.1-3.6,0c-1-0.1-1.7,0.2-2.1,1.2c-2,4.4-4.4,8.7-6,13.3c-3.3,9.2-4.7,18.8-3.7,28.7c0.5,4.4,1.5,8.6,4,12.3
			c3.2,4.8,7.9,6,13,3.3c3.2-1.7,5.7-4.1,7.9-6.9c6.5-8.5,10.8-18,12.3-28.7c0.1-0.4,0.6-0.8,0.9-1.2c0.3,0.4,0.8,0.8,0.9,1.3
			c0.1,0.9,0,1.9,0,2.8c0,1.4,0.5,1.8,1.8,1.3c1.4-0.6,2.9-1.3,4.1-2.2c2.6-1.9,4-6.4,3.2-9.5c-0.7-2.7-3.6-4.1-5.9-2.7
			c-1.3,0.8-2.7,1.6-4.1,2.3c-0.4,0.2-1.2,0.3-1.6,0.1c-0.4-0.2-0.7-1-0.5-1.4c0.7-2.6,1.5-5.2,2.3-7.7c0.3-0.9,1-1.6,2.1-1.3
			c1.1,0.3,0.9,1.3,0.7,2.1c-0.3,1.3-0.6,2.6-0.9,4.4c2.4-2.1,4.9-2.4,7.6-1.6c0.1-2,0.4-3.5,3-3.2c-0.4-2-0.6-3.7-1.1-5.5
			c-0.3-1.1-1.2-1.2-2.3-0.7c-0.8,0.4-1.7,0.7-2.5,0.6c-5.2-0.3-10.4-0.7-15.6-1c-0.4,0-0.9,0-1.3,0.1c0.4,2.2,0.8,4.3,1.1,6.3
			c0.1,1.1,0,2.2-1.4,2.4c-1.3,0.2-1.7-0.9-1.9-1.9c-0.3-1.6-0.6-3.3-0.9-4.9C404.4,86.2,404.4,86.2,401.9,86.5z M321.7,206.9
			c0-0.1,0-0.2,0-0.2c20.8,0,41.5,0,62.3,0c4.5,0,4.6,0.1,6.4-4.1c0.9-2.2,1.6-4.5,2-6.9c0.3-1.5-0.7-2.4-2.2-2.4
			c-42.4,0.2-84.9,0.5-127.3,0.8c-0.5,0-1.2,0.4-1.6,0.9c-1,1.3-1.9,2.8-2.7,4.2c-1.1,1.9-2.2,3.9-3.3,5.8c-0.7,1.4-0.3,1.9,1.2,1.9
			C278.2,206.9,299.9,206.9,321.7,206.9z M259.2,244.9c0.4,0,0.9,0,1.4,0c24.3-0.4,48.5-0.8,72.8-1.1c12.6-0.2,25.2-0.2,37.8-0.4
			c0.5,0,1.5-0.2,1.6-0.5c1-3,2-6.1,2.7-9.2c0.3-1.2-0.4-1.9-1.8-1.9c-3.3,0-6.6-0.1-10-0.2c-33-0.6-66.1-1.2-99.1-1.8
			c-0.5,0-0.9,0-1,0c-0.4,2.8-0.5,5.4-1.2,7.9C261.7,240.1,260.4,242.4,259.2,244.9z M217.5,194.1c-0.8,0-1.3,0-1.9,0
			c-19.2,0.8-38.4,1.6-57.5,2.5c-5.4,0.2-10.8,0.4-16.2,0.7c-4.1,0.2-7.6,1.7-10.2,5.1c-1.8,2.5,0.6,7.4,2.9,7.9
			c2.5,0.5,5,1.2,7.5,1.2c7.3-0.2,14.6-0.7,21.9-1.1c16.4-0.8,32.8-1.6,49.1-2.3c0.9,0,1.4-0.4,1.6-1.2c0.7-2.7,1.4-5.4,2-8.1
			C217.1,197.3,217.2,195.7,217.5,194.1z M205,227.8c-0.9,0-1.3,0-1.6,0c-16.8,0-33.6,0.1-50.3,0.1c-5.6,0-11.2-0.1-16.8-0.3
			c-2.1-0.1-3.8,0.4-5.6,1.3c-1.4,0.7-2.1,1.9-2.1,3.5c0,1.9,0.6,3.6,2.1,4.7c1.8,1.3,3.8,2.6,5.8,3.5c5.4,2.3,11.1,3.3,16.8,4.1
			c12.6,1.7,25.2,1,37.8,0.2c0.6,0,1.2-0.5,1.6-0.9c2.4-2.9,4.9-5.8,7.2-8.8C201.6,232.9,203.1,230.5,205,227.8z M427.7,84.4
			c0.2-4.5,0.9-8.9-0.8-13.2c-0.8-1.9-1.9-3.5-3.6-4.7c-3.4-2.4-7.2-3.6-11.4-3.3c-6.2,0.5-12,2.5-17.3,5.5
			c-4.2,2.4-7.8,5.5-10.8,9.4c0.9,0.2,1.8,0.3,2.6,0.6c0.4,0.2,0.9,0.7,0.9,1c0,0.4-0.6,0.8-1,1c-0.5,0.2-1,0.1-1.5,0
			c-1.7-0.2-3.4-0.3-5.1-0.6c-9-1.2-17.8-0.1-26.4,2.4c-0.8,0.2-1.5,0.6-2.2,0.9c0,0.2,0,0.3,0.1,0.5c1.1,0.2,2.2,0.5,3.3,0.5
			c4,0,8-0.1,11.9-0.3c6.8-0.4,13.6-0.9,20.4-1.2c1.4-0.1,2.3-0.5,3.2-1.5c2.3-2.5,4.6-5,7.2-7.2c2.6-2.2,5.7-3.5,9.2-3.8
			c3.8-0.3,6.7,1.6,9.7,3.5c0.4,0.2,0.6,0.8,1.1,1.5c-4-1.9-7.9-2.2-11.7-1.8c-5.6,0.7-9.2,4.8-12.5,9.2
			C404.4,82.9,416,82.6,427.7,84.4z M186.1,289.7c-0.4-0.3-0.8-0.5-1.1-0.8c-3.9-3.2-8-6.2-10.8-10.6c-2.2-3.5-4.4-7-6.5-10.5
			c-0.4-0.6-0.8-0.7-1.5-0.7c-3.1,0.2-6.1,1-9.3,0.2c-3.2-0.7-6.4-1.2-9.6-1.9c-1.1-0.2-1.7,0.3-2.2,0.9c-0.3,0.5-0.3,1.4-0.1,1.9
			c0.3,0.7,0.9,1.2,1.4,1.7c2.8,2,5.9,3.1,9.2,3.9c1.6,0.4,3.2,0.7,4.7,1.2c0.4,0.1,0.7,0.7,1.1,1.1c-0.5,0.2-1.1,0.7-1.5,0.6
			c-3.3-0.7-6.5-1.5-9.8-2.3c-0.3-0.1-0.7-0.2-1-0.2c-0.6,3.1,0.4,5,3.2,6.1c1.2,0.5,2.4,0.8,3.7,1c2.9,0.4,5.8,0.7,8.7,1.2
			c0.5,0.1,0.9,0.6,1.3,0.9c-0.4,0.3-0.8,0.8-1.2,1c-0.4,0.2-0.8,0.2-1.3,0.2c-1.8-0.1-3.7-0.2-5.5-0.3c-1.7-0.2-3.4-0.5-5.2-0.7
			c-0.1,1.5,0.7,2.4,1.8,2.9c1.7,0.7,3.5,1.3,5.4,1.7c2.6,0.6,5.2,1,7.8,1.6c0.4,0.1,0.7,0.6,1.1,0.9c-0.4,0.4-0.7,1-1.2,1.1
			c-0.8,0.2-1.7,0.1-2.5,0c-1.8-0.2-3.6-0.5-5.5-0.8c0.4,2,1.6,2.6,3.2,2.8c4.9,0.7,9.7,0.7,14.6,0.2
			C180.7,293.5,183.5,292,186.1,289.7z M202.2,2.7c-0.6,0.1-0.8,0.1-0.9,0.2c-2,1.6-4.2,3-5.9,4.8c-3.1,3.2-5.9,6.6-8.8,10
			c-0.3,0.4-0.4,1-0.4,1.5c-0.2,1.3,0,2.7-0.5,3.8c-1.4,3-2.7,6-3.3,9.3c-0.5,2.6-3.4,3.8-5.9,2.8c-0.4-0.2-1.1-0.1-1.5,0.1
			c-1.5,0.8-2.9,1.1-4.5,0.5c-0.3-0.1-0.9,0-1.3,0.2c-1.6,0.7-3.1,0.8-4.5-0.3c-2-1.6-3.7-3.6-3.7-6.4c0.1-3.3,1.4-6,3.5-8.5
			c0.4-0.5,0.7-1.3,0.6-2c-0.2-1.6-0.5-3.3-0.8-4.9c-0.6-3.4-1.7-6.6-3.6-9.5c-0.4-0.5-1.2-1-1.8-1c-0.4,0-0.9,1-1.1,1.6
			c-1,4.4-0.6,8.7,0.7,12.9c0.1,0.3,0.8,0.6,1.2,0.7c0.7,0.1,1.4-0.1,2.1,0c0.3,0,0.9,0.5,0.9,0.7c0,0.4-0.3,0.9-0.6,1.1
			c-0.6,0.3-1.2,0.5-1.9,0.6c-5.6,0.7-10.1,8.5-8.9,14c0.6,2.9,3.1,4.9,6,4.7c1.3-0.1,2.6-0.1,3.8-0.2c7.8-0.2,15.5-0.4,23.3-0.6
			c0.5,0,1.2-0.2,1.4-0.6c0.8-1.3,1.4-2.7,2.2-3.9c1.4-2.1,2.2-4.3,2.3-6.8c0.1-1.6,0-3.2,0.1-4.8c0-0.6,0-1.2,0.3-1.6
			c1-1.7,2.1-3.4,3.2-5c2.7-3.7,5.7-7.1,7.5-11.3C201.8,4.2,201.9,3.6,202.2,2.7z M319.2,281.2c0.7-1.3,0.2-2.3-1.6-3.2
			c-5.3-2.8-11.1-3.8-17-3c-3.7,0.5-7.3,1.7-10.8,2.9c-4.8,1.7-9,0.6-13.1-2c-1.2-0.8-2.3-1.8-3.8-3c4.2-1.9,8.1-3.7,12-5.4
			c0-0.1-0.1-0.2-0.1-0.2c-10.2,0-20.4,0-30.7,0c2,0.4,3.9,0.7,5.9,1.1c4.5,0.9,8.6,2.5,11.7,6.1c0.8,0.9,1.7,1.8,2.7,2.5
			c4.4,3.2,9.1,5.1,14.6,3.2c1.5-0.5,3.1-1,4.6-1.5C302.7,275.6,311.1,276.5,319.2,281.2z M407.5,140.4c-0.2-0.2-0.3-0.3-0.5-0.5
			c-0.3,0.5-0.4,1.1-0.8,1.5c-2.5,2.8-5.3,5.2-8.6,6.8c-1.9,0.9-3.9,1.8-6.1,1.4c-0.4-0.1-1.1,0.3-1.4,0.7c-1.4,1.8-0.7,4.7,1.5,5.5
			c1,0.3,2.2,0.5,3.2,0.3C403.1,154.7,407.1,147.9,407.5,140.4z M220.6,139.8c-0.2,0.1-0.3,0.1-0.4,0.1c-0.3,0.3-0.6,0.6-0.9,0.9
			c-3.8,4.1-7.9,7.5-13.6,8.4c-0.4,0.1-0.8,0.8-1.1,1.3c-0.3,0.7-0.3,1.7-0.8,2.1c-0.9,0.9-0.5,1.4,0.1,2c1.2,0.9,2.6,1.1,4,0.9
			C216.4,153.8,220,147.4,220.6,139.8z M447.9,216.2c1.3-7,2.1-13.7,2-20.6c-2.2,2.8-4.4,5.6-6.1,8.6c-2.2,3.8-1.3,7.9,2,10.9
			C446.3,215.6,447,215.8,447.9,216.2z M171,27.3c0.2,1.8,0.3,3.3,0.5,4.8c0.1,0.8,0.2,1.6,1.3,1.4c1-0.1,1.5-0.7,1.3-1.7
			c-0.4-2.2,0.2-4.3,1.1-6.3c0.7-1.5,1.6-2.9,2.3-4.4c0.3-0.6,0.2-1.4,0.3-2.1c-0.8,0.1-1.9-0.2-2.5,0.2
			C172.8,21.4,171.3,24.2,171,27.3z M164.2,29.1c0.5,1,1.2,2.6,2,4.1c0.2,0.3,1,0.5,1.5,0.5c0.3,0,0.6-0.7,0.6-1.1
			c0.1-0.5,0-1-0.1-1.5c-0.8-3.9,0.3-7.3,2.7-10.3c0.2-0.3,0.2-0.8,0.3-1.2c-0.5,0-1.1-0.2-1.4,0c-0.8,0.5-1.5,1.3-2.2,2
			C165.7,23.3,164.5,25.6,164.2,29.1z M181.3,18.7c-0.9,1.9-1.7,3.6-2.5,5.2c-1.1,2.2-2.2,4.4-1.8,7c0.1,0.9,0.5,1.7,1.5,1.8
			c1.1,0.1,1.2-0.9,1.3-1.7c0.2-2.5,1.2-4.7,2.4-6.8c0.5-0.9,0.9-1.9,1.2-2.9C183.7,19.4,183.3,18.9,181.3,18.7z M232.1,116.4
			c0.1,0.1,0.3,0.1,0.4,0.2c2.9-1.3,4.3-4,5.6-6.5c-1.4-0.6-2.7-1.1-4.1-1.7C233.4,111,232.7,113.7,232.1,116.4z"/>
		<path class="st0" d="M233.8,131c0.3-1.9,0.4-3.9,0.8-5.7c0.1-0.5,0.9-0.9,1.3-1.4c0.2,0.5,0.6,1,0.7,1.5c0.2,2,0.1,4.1,0.4,6.1
			c0.4,3.2,1.8,4.3,5,4c2.1-0.2,4.2-0.5,6.2-0.5c4.2-0.1,6.1,2.1,5.4,6.3c-0.2,1.4-0.6,2.7-0.8,4c-0.5,2.5-0.1,3.1,2.2,4.3
			c3.2,1.7,6.2,3.6,9.3,5.4c0.8,0.5,1.9,1.1,1.2,2.4c-0.7,1.2-1.8,1-2.9,0.5c-0.9-0.4-1.7-0.9-2.5-1.4c-2.5-1.3-5-2.7-7.5-4
			c-3.2-1.5-4.1-3.1-3.5-6.6c0.3-1.6,0.7-3.2,1-4.9c0.3-2.1-0.3-2.9-2.4-2.9c-1.2,0-2.4,0.1-3.5,0.2c-1.5,0.1-2.9,0.2-4.4,0.1
			c-3-0.2-4.9-2-5.4-5c-0.2-0.9-0.2-1.8-0.3-2.7C233.9,131,233.8,131,233.8,131z"/>
		<path class="st0" d="M222.9,83.8c0,1.5,0,3,0,4.5c0,0.4-0.1,0.8-0.1,1.1c-0.2,0.9-0.8,1.7-1.7,1.4c-0.5-0.1-1.2-1-1.2-1.6
			c-0.1-2.2-0.1-4.4,0-6.7c0.1-1.4,0.2-2.8,0.6-4.1c0.2-0.6,1-0.9,1.5-1.4c0.3,0.5,1,1,1,1.6C223,80.5,222.9,82.2,222.9,83.8z"/>
		<path class="st0" d="M206.9,89c0.2-0.5,0.3-1,0.6-1.3c2.1-3.2,4.3-6.5,6.5-9.6c0.5-0.8,1.4-1.9,2.4-1c1,0.8-0.3,1.7-0.7,2.4
			c-2,3.1-4.1,6.2-6.2,9.4c-0.3,0.4-0.5,0.8-0.9,1.1c-0.3,0.2-0.9,0.2-1.2,0.1C207.2,89.8,207.1,89.3,206.9,89z"/>
		<path class="st0" d="M212.7,103.8c0.3-1.3,0.6-2.7,1-4c0.4-1,1.2-1.7,2.3-1.5c1.1,0.2,1.6,1.1,1.5,2.1c-0.1,1.5-0.4,3.1-1,4.5
			c-0.4,1.1-1.4,1.9-2.7,1.5C212.5,106.1,212.9,104.9,212.7,103.8z"/>
		<path class="st0" d="M204.4,102.5c-0.6,1.4-1,2.9-1.7,4.1c-0.4,0.6-1.6,0.9-2.3,0.8c-0.4-0.1-1-1.3-0.9-1.9
			c0.3-1.8,0.8-3.6,1.3-5.3c0.1-0.4,1-0.7,1.5-0.6c0.6,0.1,1.2,0.5,1.5,1c0.3,0.5,0.3,1.3,0.4,1.9
			C204.3,102.4,204.4,102.5,204.4,102.5z"/>
		<path class="st0" d="M206.3,121.3c-1.2,0-2.4,0.1-3.5,0c-0.5,0-1.3-0.6-1.2-0.9c0.1-0.6,0.6-1.1,0.9-1.6c0.1-0.1,0.3-0.2,0.5-0.2
			c2.5,0,5,0,7.5,0.2c0.3,0,1,0.7,0.9,1c-0.1,0.5-0.6,1.2-1,1.3c-1.3,0.3-2.7,0.3-4.1,0.4C206.3,121.4,206.3,121.3,206.3,121.3z"/>
		<path class="st0" d="M206.2,112.7c-0.2-0.3-0.8-0.7-0.9-1.3c-0.2-0.9,1.1-2.1,2.2-1.9c0.5,0.1,1.1,0.7,1.2,1.2
			C208.9,111.8,207.7,112.7,206.2,112.7z"/>
		<path class="st0" d="M410.8,97.7c0.4-2.4,0.7-4.8,1.1-7.2c0.1-0.6,0.3-1.3,0.7-1.6c0.4-0.4,1.2-0.7,1.7-0.5c0.4,0.1,1,0.9,0.9,1.4
			c-0.2,2.8-0.5,5.7-0.9,8.5c-0.2,1.1-0.9,2-2.2,1.8C410.9,99.8,410.8,98.7,410.8,97.7z"/>
		<path class="st0" d="M399.5,104.9c0.4-1.7,0.6-3.1,1.1-4.4c0.4-1.1,1.2-1.8,2.4-1.6c1.2,0.2,1.5,1.2,1.6,2.2
			c0.2,1.7-0.1,3.3-1.2,4.7c-0.6,0.8-1.5,1.8-2.6,1.2C400.1,106.6,399.9,105.5,399.5,104.9z"/>
		<path class="st0" d="M385.9,105.8c0.6-1.9,1-3.5,1.6-5.1c0.2-0.4,1.1-0.8,1.6-0.8c0.6,0.1,1.4,0.5,1.6,1c0.8,1.6,0,5.2-1.4,6.3
			c-0.5,0.4-1.6,0.8-2.1,0.5C386.6,107.5,386.3,106.5,385.9,105.8z"/>
		<path class="st0" d="M393.6,119.1c1.2,0.1,2.4,0,3.5,0.2c0.4,0.1,1.2,0.6,1.1,0.9c0,0.5-0.5,1.2-0.9,1.4c-0.8,0.3-1.7,0.3-2.5,0.3
			c-1.6,0-3.2,0-4.8-0.1c-0.8,0-1.9-0.1-1.7-1.2c0.1-0.6,1-1.4,1.7-1.5C391.2,118.9,392.4,119.1,393.6,119.1z"/>
		<path class="st0" d="M393,113.2c-0.2-0.3-0.8-0.7-0.9-1.2c-0.2-0.9,1.1-2,2.2-1.9c0.8,0,1.3,0.4,1.3,1.3
			C395.6,112.3,394.6,113.2,393,113.2z"/>
	</g>
</g>
</svg>
