<?xml version="1.0" encoding="utf-8"?>
<!-- Generator: Adobe Illustrator 27.8.1, SVG Export Plug-In . SVG Version: 6.00 Build 0)  -->
<svg version="1.1" id="Layer_1" xmlns="http://www.w3.org/2000/svg" xmlns:xlink="http://www.w3.org/1999/xlink" x="0px" y="0px"
	 viewBox="0 0 439.2 447.4" style="enable-background:new 0 0 439.2 447.4;" xml:space="preserve">
<style type="text/css">
	.st0{fill:#025C38;}
</style>
<g>
	<g>
		<path class="st0" d="M223.3,297.6c-0.3,2.5-0.5,4.9-0.9,7.2c-0.3,1.6-0.8,3.3-1.6,4.7c-2.9,5.1-5.9,10-8.9,15
			c-3.7,6.1-8.5,11.3-13.9,16c-7.4,6.3-14.7,12.7-23.2,17.6c-12.7,7.3-26,13.5-39.6,18.9c-14.4,5.8-28.7,11.9-43,17.9
			c-1.7,0.7-2.7,0.2-3.7-1.5c-3.8-6.7-7.5-13.3-11.4-20c-1.6-2.7-3.4-5.1-5.5-7.6c0,0.8,0,1.7,0,2.5c0.4,13.6,2.7,26.9,5.3,40.3
			c2.1,10.7,3.3,21.5,3.3,32.4c0,2.4-0.2,4.7-2.7,5.9c-2.6,1.2-4.8,0.2-6.8-1.6c-1.4-1.2-2.8-2.5-3.8-4c-2.7-3.8-5.1-7.8-7.7-11.7
			c-3.1-4.5-6.3-8.9-9.4-13.4c-8.5-12.2-17-24.4-25.3-36.7c-4.5-6.7-8.6-13.7-10.7-21.7c-0.4-1.6-0.6-3.2-0.7-4.8
			c-0.2-2.8,0.9-5.1,3-7c1.6-1.5,3.2-2.8,4.8-4.3c0.9-0.8,1.8-1.7,1.2-3.1c-0.6-1.5-1.7-2.8-3.4-2.6c-2.3,0.2-4.5,0.7-6.8,1.2
			c-1.4,0.3-2.8,1-4.1,1.5c-2,0.8-3.2,0.4-3.9-1.6c-1.2-3.6-2.4-7.3-3.5-10.9c-0.4-1.4,0.1-2.6,1.5-3.2c9.6-4.6,19.3-9.1,28.9-13.7
			c0.4-0.2,0.8-0.4,1.4-0.7c-0.2-0.4-0.4-0.8-0.6-1.1c-3.6-4.8-7.1-9.6-10.8-14.4c-1.4-1.8-3.1-3.4-4.8-4.9
			c-2.1-1.9-2.4-3.9-0.1-5.6c3.4-2.4,6.7-5.1,10.5-6.6c8.1-3.3,16.5-5.8,25.4-3.5c2.2,0.6,4.3,1.3,6.4,2.3c4.2,1.9,8.3,1.4,12.2-0.7
			c3.9-2.1,7-5.2,9.6-8.7c2.2-3.1,4.3-6.3,6.3-9.6c2.5-4.2,5.4-8,8.9-11.4c6.8-6.7,14.6-8.7,23.7-5.4c4.7,1.7,8.9,4.5,13,7.3
			c0.4,0.3,0.9,0.6,1.3,0.9c5.9,4.1,12.6,2.7,16.1-3.7c1.5-2.7,2.2-5.8,3.2-8.7c0.3-0.7,0.5-1.5,0.7-2.4c-0.6-0.4-1.2-1-2-1.6
			c-1.2,2.9-3.6,3.1-6.1,2.8c-2.7-0.3-4.8-1.6-5.6-4.2c-0.5-1.5-1.3-1.9-2.7-2.5c-3.1-1.4-6.9-1.2-9.4-4c-3.7-4.2-6.2-8.9-4-14.5
			c1.4-3.7,0.7-6.4-1.4-9.6c-15-23.6-21.1-49.4-18.3-77.2c3.6-35.5,19.5-64.8,46.4-88C172,14.4,197.8,3.3,227,0.6
			c37.2-3.4,70.3,6.7,98.8,31.1c5.9,5,11.2,10.7,15.8,16.9c2.7,3.8,5,7.9,7.5,11.8c0.4,0.7,1.2,1.1,1.8,1.6c2.6,2.1,5.4,4,7.8,6.3
			c1.3,1.2,2.1,3,3.2,4.6c1.3,2,2.4,4.1,3.9,5.9c1.6,2.1,2,4.4,2.6,6.8c0.2,0.8,0.4,1.6,0.7,2.4c1.1,2.7,1.9,5.4,1.9,8.4
			c-0.1,2.4-0.5,4.6-2.3,6.1c0.7,1.7,1.6,3.2,2.1,4.8c1,3.2,0.2,5.4-2.6,7.2c-1,0.7-1.2,1.4-1.3,2.6c-0.1,7,0,14-0.7,20.9
			c-0.6,6.1-2.3,12.1-3.4,18.2c-1.8,10-5.4,19.3-10.9,27.6c-8.4,12.7-16.7,25.5-27.6,36.3c-5.2,5.2-10.6,10.2-16.9,14.1
			c-0.6,0.4-1,0.9-1.5,1.4c0.1,0.2,0.3,0.4,0.4,0.6c3.4-1.9,7.3-3.4,10.2-5.9c5.8-5,11.4-10.3,16.4-16.1c5-5.8,9.1-12.3,13.5-18.6
			c2-2.9,3.6-6.2,5.7-9.1c5-7.1,7.9-15.1,10.8-23.2c0.3-0.9,0.3-1.9,0.6-2.8c0.1-0.4,0.6-0.7,1-1c0.3,0.3,0.7,0.6,0.9,0.9
			c1,2.1,2.1,4.1,3,6.2c4.1,10,6.4,20.4,5.5,31.2c-0.7,8.7-5.8,14.5-13.5,18.2c-1.8,0.8-3.6,1.5-5.4,2.2c-2.1,0.8-3.2,2.3-3.2,4.4
			c-0.1,3.1-0.1,6.3-0.1,9.4c0,2.1,0.2,4.2,0,6.3c-0.5,6-3.9,10-9.1,12.5c-6,3-12.5,4.4-19.2,4.2c-0.4,0-0.8,0-1.6,0
			c0.6,0.6,1,0.9,1.3,1.3c5.7,5.3,11.5,10.3,16.9,15.8c6.3,6.3,10.9,14,15.5,21.6c4.7,7.8,8.9,16,13.8,23.7c2.4,3.8,3.9,8,5.6,12
			c0.9,2.2,0.7,4.8,0.8,7.3c0,0.4-0.7,0.9-1.2,1.3c-7.3,5.4-14.6,10.9-21.9,16.3c-0.1,0.1-0.1,0.2-0.3,0.5c1.3,0.2,2.4,0.4,3.6,0.5
			c11,1.2,21.9,1.1,32.9,0.1c13.8-1.2,27.6-2.5,41.5-1.3c1.6,0.1,3.2,0.3,4.7,0.6c3.9,0.8,5.5,4.7,3,7.8c-1.6,2-3.6,3.9-5.8,5.2
			c-4.3,2.6-8.9,4.7-13.4,7c-1.4,0.7-2.9,1.5-4.3,2.3c-18.6,10.4-36.8,21.4-56,30.5c-5.5,2.6-11.3,4.6-17.5,5c-3.8,0.2-6.8-1-9-4.1
			c-1.2-1.6-2.3-3.3-3.5-4.9c-0.7-1-1.5-2-3-1.5c-1.6,0.5-2.9,1.4-3,3.1c-0.1,2.2,0.2,4.4,0.5,6.6c0.2,1.5,0.8,3.1,1.2,4.6
			c0.6,2.2,0,3.3-2.1,3.7c-3.7,0.8-7.4,1.6-11.1,2.4c-1.5,0.3-2.6-0.4-3.1-1.8c-4-11.5-8-23.1-12-34.6c-0.1-0.4-0.3-0.8-0.4-1.2
			c-0.4,0.2-0.8,0.3-1.1,0.4c-12.2,5.3-24.5,10.6-36.7,16c-1.8,0.8-3.6,1.7-5.4,2.6c-2.2,1.2-3.5,1-4.6-1.3
			c-2.7-5.5-4-11.3-2.3-17.4c0.8-3,2.1-5.8,3.4-8.6c1.8-3.8,2.3-7.7,1.7-11.8c-0.5-3.9-2.2-7.2-5.1-9.8c-2.1-1.9-4.1-3.7-6.3-5.5
			c-7.1-6-7.9-14.2-4.6-22.4c1.3-3.2,3-6.3,4.8-9.2c2.9-4.5,0.6-10.5-3.3-12.8c-0.7-0.4-1.4-0.7-2.1-1.1c-2.8-1.6-5.5-3.2-8.3-4.8
			C225,298.6,224.2,298.1,223.3,297.6z M92,390.1c0.3-0.1,0.7-0.3,1.1-0.5c14.2-5.9,28.5-11.9,42.8-17.7
			c13.7-5.6,27.1-11.8,39.6-19.6c4.5-2.8,8.5-6.6,13-9.4c12-7.3,20.2-17.9,26.7-30c0.9-1.7,1.8-3.5,2.3-5.3c0.9-3.2,1.5-6.5,2-9.8
			c0.2-1.7-0.5-3.2-1.9-4.4c-2.2-1.9-4.6-3.8-6.2-6.2c-6.1-9.2-9.4-19.3-8.9-30.5c0-0.8,0.2-1.6,0.3-2.6
			c-16.9-3.5-32.5-10.1-46.4-19.6c-1.3,3.6-2.1,7.3-3.9,10.6c-4.5,8.6-14,10.8-22,5.4c-3-2-6-4-9.2-5.8c-3.6-2-7.4-3.3-11.6-3.2
			c-4.9,0.1-8.8,2.6-12.1,5.9c-4.2,4.1-7.2,9-10.1,14c-2.9,4.8-6.1,9.4-10.5,13.1c-6.6,5.5-13.8,7.6-22.2,3.7
			c-6.2-2.9-12.7-2.8-19.2-1c-6.1,1.8-11.2,5.1-15.7,9.3c1.7,1.9,3.5,3.5,4.9,5.5c7,9.3,14.1,18.6,20.7,28.2
			C58,338,70.3,356,82.5,374C85.9,379.1,88.8,384.6,92,390.1z M205.7,254.9c-0.4,4.7,0.5,9,1.4,13.3c2.6,12,8.8,21.4,19.9,27.1
			c0.6,0.3,1.4,0.6,1.7,1.1c1.5,2.4,4.2,2.8,6.5,3.9c0.6,0.3,1.3,0.5,1.9,0.8c6.6,3.2,10.1,12,5.8,18.7c-1.7,2.6-3.1,5.4-4.3,8.2
			c-2.6,6.1-2.8,13.4,3.5,18.5c1.8,1.4,3.5,3,5.2,4.6c7.7,6.9,9.8,17.2,5.6,26.6c-1.1,2.5-2.3,5.1-3.2,7.7c-1.7,5-0.6,9.9,1.3,14.6
			c3.5-1.5,6.8-2.9,10.2-4.3c9.4-4.1,18.9-7.8,28.1-12.3c13.8-6.7,27.5-13.8,41.1-21c7.2-3.8,14.4-7.7,21.1-12.2
			c7.2-4.8,14-10.3,20.9-15.5c0.2-0.1,0.2-0.3,0.4-0.5c-1.2-2.2-2.4-4.3-3.4-6.4c-2.3-4.8-4.3-9.8-6.9-14.4
			c-4.8-8.4-10-16.7-15.1-24.9c-4.3-6.9-9.3-13.1-15.3-18.5c-6.1-5.6-12.4-11-18.6-16.6c-4.3-3.8-8.6-7.5-13.6-10.5
			c-1.2-0.7-2.1-1.9-3.2-2.9C268.2,255.1,237.9,260.3,205.7,254.9z M253.6,124.3c0-0.2-0.1-0.3-0.1-0.5c-0.5-0.1-1-0.3-1.5-0.3
			c-3.1,0.3-6.5,3.1-7.4,6.1c-0.9,3.2-0.5,6.4,0.1,9.7c0.5,2.7,0.8,5.4,0.9,8.1c0,3.5-1.7,5.4-5.1,6.2c-0.9,0.2-1.8,0.3-2.6,0.5
			c-6.1,1.1-9.2,5.6-7.9,11.7c0.2,1.1,0.5,2.3,0.9,3.4c1.6,4.5,0.9,8.9-1.1,13c-1.5,3.3-3.8,5.6-8,5.6c-5.8,0-11,4.5-12.4,10.2
			c-0.6,2.6-0.9,5.4-1.3,8.1c-1,6.7-4.9,10.9-11.6,12.1c-2.2,0.4-4.5,0.4-6.7,0.4c-7.2-0.1-12.9-2.7-16.1-9.6
			c-0.4-1-1.1-1.8-1.8-2.7c-0.7,1-1.1,1.8-1.8,2.3c-1.1,0.7-1.6,1.7-1.6,2.9c-0.1,1.4-0.1,2.8,0.2,4.2c0.3,1.5,0.9,3,1.4,4.5
			c0.8,2.6,0.3,5-1.1,7.2c-1.3,2.1-3.4,2.7-5.8,1.9c-2-0.7-3.4-2.1-4.5-3.8c-1.3-1.9-2.5-3.8-4-6.1c-1.1,2.1-2,3.9-3,5.7
			c-0.6,1.1-0.4,1.8,0.7,2.6c11.4,8.8,23.9,15.4,37.6,19.8c20.7,6.7,41.8,8,63.2,4.2c26.6-4.7,49.7-16.3,69.5-34.7
			c10.9-10.1,18.8-22.6,26.5-35c6.8-11,10.4-23.4,12.9-36c0.6-3.1,0.3-5.9-0.9-8.7c-1.1-2.6-3-3.2-5.2-1.6c-2.4,1.7-3.8,4.2-4,7.2
			c-0.2,2.1-0.2,4.2-0.3,6.3c-0.5,6.6-3.5,11.6-9.9,14.1c-3.9,1.5-7.8,0.3-9.8-3.3c-1.1-1.9-1.7-4.2-1.9-6.4c-0.3-2.6,0.2-5.3,0.2-8
			c0.1-3.3-1.2-5.3-3.9-6.5c-2.5-1.1-5-0.6-7.1,1.7c-1.8,1.9-3.4,4-4.9,6.2c-2.1,3-4.9,4.8-8.5,5.6c-9.2,2-14.9-1-18.1-9.9
			c-0.1-0.2-0.2-0.4-0.4-0.9c-4.1,11.8-10.9,21.3-20.6,28.5c-9.8,7.3-20.7,11.2-33.1,12c0.3-0.9,0.4-1.5,0.6-2.1
			c1.3-3.9,1.3-7.7,0.1-11.6c-0.4-1.2-0.7-2.5-1-3.8c-0.8-3.9,0.7-6.4,4.5-7.6c0.6-0.2,1.3-0.4,2-0.5c6.2-1.4,8.8-4.8,8.2-11.2
			c-0.3-3.1-0.9-6.2-1.2-9.4c-0.6-6.2,0.4-8.3,5.5-10.9C252.8,124.9,253.2,124.6,253.6,124.3z M259.4,78.5c-0.6-0.3-1.1-0.5-1.6-0.7
			C236.1,66.9,211.2,70,193,86c-6.8,5.9-12.3,12.8-14,22.1c-0.1,0.7-0.5,1.4-0.9,2c-1.5,2.6-3,5.3-4.6,7.9
			c-3.6,6.1-7,12.2-10.7,18.2c-2.7,4.4-6.3,8.2-10.7,11c-2.3,1.4-4.7,2.7-7,4.1c-2,1.2-3.2,1.3-4.7-0.4c-1.3-1.5-2.6-3.3-3.2-5.1
			c-0.9-2.8-1.2-5.8-1.6-8.8c-0.3-2.2-0.4-4.4-0.7-6.6c-0.3-1.6-1.1-2.3-2.7-1.8c-1.2,0.4-2.4,1.2-3.3,2.1c-0.8,0.9-1.2,2.2-1.8,3.3
			c-1.8,3.5-3.4,7.1-5.4,10.5c-2.9,5-7.6,5.8-12.3,2.4c-0.9-0.7-1.8-1.6-2.9-2.6c2,20.5,8.5,39,19.8,55.8c2.5-2.2,4.8-4.5,7.4-6.4
			c2.6-2,5.5-3.6,8.3-5.4c-7.8-8.2-9.3-18.9-2.8-28c1.2-1.7,2.9-3.2,4.7-4.3c2-1.3,4.5-2,6.6-3.2c5-2.9,9.6-6.2,13.2-10.8
			c4.9-6.4,8.8-13.4,12.7-20.4c1.7-3.1,3.4-6.3,5.3-9.3c2-3.2,4.6-5.7,8.1-7.2c1.6-0.7,3.1-1.5,4.7-2.3c9.2-4.3,18.7-6.9,29-5.4
			c4,0.6,8,1.1,12,2c5.1,1.1,10.1,2.5,15.3,3.8c0.8-2.1,2.6-4,5.1-4.9c1.4-0.5,1.7-1.4,1.8-2.6c0.1-1.3,0.3-2.6,0.3-3.9
			c0.5-10,5.7-16.6,14.5-20.7c0.2-0.1,0.4-0.3,0.6-0.4c-1.3-2.8-1-5.1,1.1-7.2c2-2,4.3-1.5,6.5-0.6c3.5,1.5,3.5,4.5,3.1,7.7
			c5.9-0.3,11.2,1.4,15.8,4.9c1.9,1.5,3.5,3.6,4.9,5.6c0.6,0.9,1,1.3,2.1,1.3c4.8-0.2,9.7-0.2,14.5-0.3c1.8,0,3.4,0.6,4.8,1.8
			c1.5,1.2,1.8,2.9,0.6,4.3c-1,1.1-2.3,2.3-3.7,2.8c-4.7,1.8-9.5,3.4-14.2,5c-1.5,0.5-3,1-4.6,1.4c0,0.2,0,0.4,0,0.6
			c0.7,0.2,1.3,0.5,2,0.7c0.4,0.1,0.8-0.1,1.2-0.3c5.2-2.2,10.4-4.2,15.5-6.6c1.9-0.9,3.6-2.2,5.1-3.7c2.4-2.3,1.8-5-1.2-6.3
			c-1.1-0.5-2.3-1-3.5-1c-5-0.2-10.1-0.3-15.1-0.4c-1,0-1.8-0.1-2.1-1.3c-0.2-0.8-0.8-1.6-1.4-2.2c-2.5-2.5-5.1-4.6-8.4-5.9
			c-3.2-1.2-6.2-2.7-9.9-2.5c0.5-4.3-1.7-6.8-5.4-7.9c-3.1-0.9-6.2-0.3-8.6,2.1c-2.1,2.1-2,4.7-0.6,7.4
			C266.8,71.8,262.5,74.2,259.4,78.5z M262.1,94.1c0.1,0.7,0.1,1.1,0.1,1.6c0.1,2.9,0.3,5.9,0.4,8.8c0,1-0.3,2-1.4,2.1
			c-1.1,0.1-1.6-0.8-1.8-1.8c-0.1-1-0.2-2.1-0.3-3.1c0-0.5-0.1-1-0.2-1.5c-0.2-0.1-0.3-0.2-0.5-0.3c-1.5,1.2-3.2,2.2-4.4,3.6
			c-2.2,2.6-1.8,7.2,0.5,9.9c2.2,2.6,4.8,2.9,8.3,1c0.1,0.7,0.1,1.5,0.3,2.2c1.3,3.8,3,7.4,5.5,10.6c2.3,2.9,5,5.4,8.5,6.8
			c4.5,1.7,8.9,1.6,13-1.3c3.3-2.4,5.9-5.4,7.7-9c5.2-10.3,5.6-21.1,2.9-32.1c-0.9-3.6-1-3.6-4.5-3c-1.1,0.2-1.6,0.6-2,1.6
			c-0.7,1.8-1.5,3.4-2.4,5.1c-0.2,0.4-0.8,0.5-1.3,0.7c-0.2-0.5-0.6-1.1-0.5-1.5c0.3-1.3,0.7-2.5,1.1-3.8c0.1-0.4,0.2-0.7,0.3-1.2
			c-0.6,0.1-1.1,0.2-1.6,0.2c-1.6,0.1-2.5,0.8-2.9,2.3c-0.3,0.9-0.7,1.9-1.3,2.7c-0.4,0.5-1.2,0.6-1.9,1c-0.2-0.7-0.7-1.4-0.6-2
			c0.1-0.9,0.5-1.8,0.9-3c-2.3,0.5-4.3,0.8-6.3,1.3c-0.4,0.1-0.9,0.6-1.1,1.1c-0.6,1.3-0.9,2.8-1.6,4.1c-0.3,0.6-1.2,1.2-1.7,1.1
			c-1-0.2-1-1.1-0.7-2c0.4-1.1,0.7-2.2,1.2-3.5c-1.1,0.2-1.9,0.4-2.7,0.5c-2.1,0.4-2.1,0.4-2,2.6c0.1,1.7,0.1,3.5-0.1,5.2
			c-0.1,0.6-0.9,1.1-1.4,1.6c-0.5-0.5-1.2-0.9-1.5-1.5c-0.3-0.7-0.3-1.6-0.4-2.5c-0.1-1.4,0-2.8,0-4.2
			C264.6,94.4,263.5,94.3,262.1,94.1z M137.4,224.3c0.1-0.6,0.2-1.1,0.3-1.6c0.4-2.4,0.7-4.8,1.1-7.2c0.6-3.5,3.2-5.6,5.7-7.6
			c0.2-0.2,0.8,0,1.1,0c0,0.4,0,0.8-0.1,1.1c-0.2,0.5-0.6,0.9-0.9,1.3c-3.8,5.3-4.4,11.2-3.3,17.4c0.4,2.7,1.4,3.3,4.1,3
			c1.1-0.1,2-0.5,2-1.9c0.3-5.7,3.6-9.9,6.9-14.2c0.3-0.4,1.3-0.5,1.8-0.4c0.3,0.1,0.4,1,0.4,1.6c0.1,0.5-0.2,1.2,0,1.6
			c1.6,2.4,3.2,4.7,4.9,6.9c0.6,0.7,1.3,1.4,2.1,1.8c1.4,0.8,2.4,0.5,3.1-0.9c0.8-1.4,1.1-2.9,0.5-4.5c-0.7-1.9-1.4-3.9-1.8-5.9
			c-0.5-2.3-0.3-4.4,1.5-6.4c3.6-4.2,4.3-9.1,2-14.2c-1.7-4-4.8-6.5-8.6-8.4c-2.8-1.4-5.3-1.4-8.1,0.3c-4.3,2.6-8.9,4.9-13.3,7.4
			c-6.2,3.6-11.2,8.1-13.2,15.5c-1.2,4.3,0,7.8,2.6,11.1c0.3,0.4,0.8,0.7,1.3,1.2c0.3-4.8,2-10.7,4.3-14.9c0.6-1.1,1.7-2,2.7-2.8
			c0.3-0.3,1.1,0.1,1.7,0.2c-0.1,0.5-0.1,1.1-0.4,1.4c-2.7,3-3.9,6.7-4.6,10.5c-0.3,1.8,0.3,3.8,0.6,5.7
			C134.2,223.4,135.7,223.9,137.4,224.3z M216.5,34.4c2.9,0.3,5.4-0.2,7.7-1.5c7-4.2,13.9-8.6,20.8-13c0.8-0.5,1.5-1.2,2-2
			c0.7-1,1.3-2.1,2.1-3.5c-0.9,0.1-1.3,0.1-1.7,0.2c-2,0.7-4.1,1.2-5.9,2.2c-7.6,4.2-15.1,8.6-22.6,13
			C217.4,30.7,216.8,32.4,216.5,34.4z M363.3,80.9c-1.5,1.1-3.2,2-4.5,3.2c-3,3-5.9,6.1-9.6,8.3c-1.1,0.7-2.2,1.7-3,2.9
			c-1.4,2.1-0.4,3.8,2.1,4.1c2.2,0.3,4.1-0.5,6-1.5c3.1-1.7,5.5-4.3,8.2-6.6C366.8,87.9,365.2,82.8,363.3,80.9z M162.4,58
			c-2.6,0.4-4,1.7-5.1,3.2c-3.7,4.9-7.3,9.8-10.7,14.9c-1.9,2.9-3.4,6.1-4.9,9.3c-1.1,2.4-1,2.5,1.1,4.6
			C149.8,79.7,158.2,70.4,162.4,58z M360.1,77.3c-0.8-1.9-1.5-3.8-2.5-5.5c-0.3-0.5-1.3-1.1-1.8-1c-0.7,0.2-1.3,1-1.6,1.6
			c-0.4,0.8-0.4,1.7-0.7,2.6c-0.2,0.5-0.3,1.2-0.6,1.6c-2,2.4-4.2,4.7-6.2,7.1c-1.1,1.3-2.3,2.4-3.2,3.8c-0.5,0.8-0.5,1.9-0.7,2.8
			c1.1,0.1,2.2,0.3,3.3,0.3c0.6,0,1.2-0.4,1.7-0.7c3.9-2.1,7.2-5.1,10.1-8.4C358.8,80.5,359.2,78.9,360.1,77.3z M172.8,58.9
			c0.6,1,0.9,1.7,1.3,2.2c-1.6,1.6-1.7,2.9,0.2,4.1c2.1,1.4,4.5,2.4,6.9,3.3c4.8,1.8,9.7,3.4,14.5,5.2c1.7,0.6,2.9,0.7,3.6-0.4
			c0.8-1.2,0.4-2.6-1.3-3.5c-2.5-1.3-5-2.8-7.6-3.6c-5.5-1.6-10.8-3.5-15.6-6.6C174.3,59.4,173.8,59.3,172.8,58.9z M245.5,40.1
			c0.4,1.3,0.8,2.4,1.1,3.6c2.1,6.7,5.4,12.8,9.2,18.7c0.2,0.3,0.4,0.5,0.6,0.7c0.9,0.9,2.6,1.2,3.5,0.6c1.1-0.8,1-1.9,0.4-3
			c-3-6.2-6.1-12.4-9.2-18.6C249.9,39.9,248.1,39.4,245.5,40.1z M177.4,34c0.4,3.1,1.9,5,3.6,6.8c2.2,2.3,4.6,4.5,6.6,7
			c2.5,3.1,5.9,4.8,9.4,6.4c0.4,0.2,1.1,0.2,1.4,0c0.2-0.1,0.3-0.9,0.1-1.3c-0.9-1.7-1.6-3.6-2.8-5c-3-3.2-6.2-6.3-9.5-9.2
			c-1.7-1.5-3.8-2.6-5.8-3.7C179.6,34.5,178.7,34.4,177.4,34z M294.4,39.5c-0.2-0.3-0.4-1-0.8-1.4c-1.1-1-2.2-2.1-3.5-2.8
			c-5.4-2.9-10.8-5.6-16.2-8.3c-0.7-0.4-1.6-0.7-2.4-0.7c-0.6,0-1.4,0.3-1.7,0.8c-0.2,0.4,0,1.4,0.3,1.8c1,1.1,2.2,2.2,3.5,2.9
			c5,2.9,10,5.7,15,8.5c1,0.6,2.1,1.1,3.1,1.4C293.1,42.1,294.4,41.1,294.4,39.5z M147.5,123.6c-0.2-0.4-0.5-1.1-0.9-1.6
			c-6.5-6.5-13.1-13-19.7-19.5c-0.6-0.6-1.4-1.1-2.2-1.4c-0.3-0.1-1.3,0.6-1.2,0.7c0.3,0.9,0.5,2,1.2,2.7c6.3,6.8,12.6,13.5,19,20.2
			c0.4,0.4,0.8,0.7,1.2,0.9C146.1,126.2,147.4,125.3,147.5,123.6z M367.4,91.9c-0.4,0.1-0.5,0.1-0.6,0.2c-4.4,4.4-9.6,7.5-15.2,10.2
			c-0.9,0.4-1.6,1.9-1.7,2.9c-0.1,1.2,1.1,1.7,2.2,1.7c1,0.1,2,0,3-0.1c4-0.7,7.3-2.4,10.3-5.5C368.3,98.4,367.8,95.4,367.4,91.9z
			 M313.6,46.9c0.2,0.4,0.5,1.1,0.9,1.7c3.5,5.4,7,10.8,10.5,16.2c1.4,2.2,2.9,4.4,4.5,6.5c0.4,0.5,1.3,0.7,1.9,0.7
			c0.3,0,0.9-0.8,0.9-1.2c0.1-0.5-0.2-1.1-0.4-1.6c-4.3-8-9.2-15.6-15-22.7c-0.4-0.4-0.8-0.9-1.3-1.1
			C314.5,44.9,313.6,45.5,313.6,46.9z M366.4,105.1c-2.3,1.8-4.6,3.6-7.6,4.3c-1.5,0.4-3,0.7-4.5,0.9c-2,0.4-3.2,1.8-3,3.7
			c0.1,1.8,0.8,2.3,3.2,2.2c0.5,0,1.1,0,1.6-0.1c3.5-0.6,6.8-1.7,9.7-3.8C368.8,110.2,369.1,107.3,366.4,105.1z"/>
		<path class="st0" d="M94.8,374.2c-0.2,0-0.3,0-0.5,0c-1.1,0-2.1-0.4-2-1.5c0-0.6,0.9-1.6,1.6-1.7c2-0.6,4.1-0.9,6.2-1.3
			c7.5-1.4,15-2.8,22.2-5.6c17-6.6,33.1-14.9,48.6-24.5c10-6.3,18.5-14.5,26.9-22.7c0.9-0.9,1.9-1.8,2.9-2.6
			c0.3-0.2,0.8-0.2,1.3-0.2c0.1,0.5,0.3,1.1,0.1,1.4c-0.4,0.8-1,1.5-1.5,2.2c-8,9-16.6,17.3-26.6,24c-5.6,3.7-11.7,6.8-17.5,10.3
			c-6.5,4-13.3,7.3-20.4,10.1c-5.6,2.1-10.9,5.1-16.6,6.7c-7.7,2.3-15.6,3.6-23.4,5.4C95.5,374.2,95.1,374.1,94.8,374.2z"/>
		<path class="st0" d="M105.4,360.7c-0.6-0.5-1.6-0.9-1.8-1.6c-0.4-1.1,0.6-1.6,1.5-1.8c3.5-0.9,7.1-1.6,10.6-2.5
			c7-1.7,13.6-4.4,19.8-8c1-0.6,2.1-1.2,3.2-1.6c0.5-0.2,1.1,0.2,1.7,0.3c-0.2,0.5-0.3,1.1-0.7,1.4c-3.9,3.4-8.3,6-13.1,8
			c-6.5,2.7-13.2,4.5-20.2,5.4c-0.3,0-0.5,0.1-0.8,0.1C105.6,360.6,105.5,360.6,105.4,360.7z"/>
		<path class="st0" d="M358.4,328.9c-0.3,0.4-0.6,1.1-1.1,1.3c-0.3,0.1-1.2-0.3-1.4-0.7c-11-23-28.5-40.6-46.9-57.5
			c-7.3-6.7-14.9-13-22.3-19.4c-0.2-0.2-0.5-0.3-0.6-0.5c-0.2-0.4-0.2-0.8-0.3-1.2c0.4-0.1,0.9-0.3,1.3-0.2c0.8,0.3,1.6,0.8,2.3,1.3
			c22.8,16.9,43.8,35.6,60.1,59c3.4,4.8,6.4,9.9,8.3,15.5C357.9,327.2,358.1,327.9,358.4,328.9z"/>
		<path class="st0" d="M337,317.4c-1-0.9-1.9-1.6-2.6-2.4c-5.7-6.5-11.3-13-16.9-19.5c-0.7-0.8-1.3-1.6-1.9-2.5
			c-0.2-0.3,0-0.9-0.1-1.3c0.5,0,1-0.1,1.4,0.1c0.6,0.3,1.1,0.8,1.6,1.2c6.1,5.4,11.6,11.4,16.4,18
			C336.3,312.8,337.4,314.6,337,317.4z"/>
		<path class="st0" d="M333.2,191c-0.3,0.8-0.6,1.6-0.9,2.3c-2.9,6-6.8,11.3-11.3,16.3c-11.9,13.3-26.1,22.9-43.4,27.9
			c-2.3,0.6-4.6,1.1-6.9,1.5c-1.2,0.2-2.1-0.1-2.5-1.4c-0.3-1.1,0.5-2,1.9-2.3c18.5-3.4,33.5-12.9,46.4-26.1
			c5.1-5.2,9.4-11.1,13.5-17.2c0.4-0.6,0.8-1.2,1.4-1.7c0.3-0.3,0.9-0.4,1.2-0.2C332.9,190.2,333,190.7,333.2,191z"/>
		<path class="st0" d="M301.2,213.1c0.7-1.1,1.3-2.2,2.2-3.2c4.3-4.6,8.6-9.1,12.9-13.6c1.2-1.3,2.4-2.7,3.7-3.9
			c0.4-0.3,1.1-0.3,1.7-0.4c0,0.6,0.2,1.3-0.1,1.7c-2.2,3.1-4.2,6.3-6.7,9.1c-2.9,3.2-6.1,6-9.3,8.9c-1,0.9-2.5,1.4-3.7,2
			C301.5,213.5,301.4,213.3,301.2,213.1z"/>
		<path class="st0" d="M288.5,123.8c-1.9,0-3.4,0.1-4.8-0.1c-0.6-0.1-1.1-0.7-1.6-1.1c0.5-0.5,0.9-1.2,1.4-1.3
			c2.2-0.3,4.4-0.4,6.6-0.6c1.2-0.1,2.4-0.4,3.6-0.4c0.6,0,1.6,0.2,1.7,0.5c0.2,0.6,0,1.5-0.4,1.9c-0.6,0.5-1.5,0.7-2.3,0.8
			C291.2,123.7,289.6,123.7,288.5,123.8z"/>
		<path class="st0" d="M298.4,101.4c-0.2,0.7-0.3,1.7-0.7,2.7c-0.5,1.1-1.7,1.4-2.6,0.8c-1.6-1.1-2.1-5.3-0.6-6.6
			c0.6-0.5,1.6-1,2.2-0.8c0.7,0.2,1.2,1.2,1.6,1.9C298.5,99.8,298.4,100.5,298.4,101.4z"/>
		<path class="st0" d="M283.4,102.7c-0.2,2-1,3.3-2.2,3.4c-1.2,0.1-2.3-1.2-2.4-3.1c0-0.9,0-1.8,0.4-2.6c0.2-0.6,1-1.3,1.5-1.3
			c0.6,0,1.5,0.5,1.9,1.1C283,100.9,283.1,101.9,283.4,102.7z"/>
		<path class="st0" d="M291.2,111.9c0,1.4-1.3,2.8-2.5,2.8c-1.3,0-1.9-0.7-1.9-2c0-1.6,1.1-2.9,2.3-2.9
			C290.3,109.7,291.2,110.7,291.2,111.9z"/>
	</g>
</g>
</svg>
