<?xml version="1.0" encoding="utf-8"?>
<!-- Generator: Adobe Illustrator 27.8.1, SVG Export Plug-In . SVG Version: 6.00 Build 0)  -->
<svg version="1.1" id="Layer_1" xmlns="http://www.w3.org/2000/svg" xmlns:xlink="http://www.w3.org/1999/xlink" x="0px" y="0px"
	 viewBox="0 0 1725.5 362.8" style="enable-background:new 0 0 1725.5 362.8;" xml:space="preserve">
<style type="text/css">
	.st0{fill:#ADE2D3;}
</style>
<g>
	<path class="st0" d="M829.3,297.4c0,18.6,1,31.7,1,50.3c0,13.6-14.1,12.1-15.6,12.1c-8.6,0-14.6-1-23.1-1h-2c-7.5,0-12.6,1-19.6,1
		c-6,0-9.1-2-9.1-6.5c0-3-0.5-7-4-7.5c-2,0-8.6,7-15.1,10.6c-9.6,5.5-19.6,6.5-28.7,6.5c-12.6,0-26.2-4.5-38.2-16.1
		c-26.7-26.2-26.2-76.5-26.7-103.2c-0.5-11.1-0.5-19.1-0.5-30.2c0-13.6,1-23.1,1.5-36.7c1-26.2,2.5-61.4,29.7-85
		C694.4,77.5,710.5,77,716.1,77c4,0,11.1,0.5,21.6,4c4,1.5,6.5,4.5,10.6,4.5c6.5,0,6-7,6-15.6v-9.1c0-15.6-0.5-26.7-0.5-42.3
		c0-13.6,7.5-16.1,14.1-16.1c9.1,0,15.6,2,24.7,2c9.6,0,16.6-1.5,26.2-1.5c4,0,14.1,0.5,14.1,13.6c0,9.6-1,16.1-1.5,26.2
		c-0.5,28.7-2,49.3-2,78c0,22.6-0.5,38.7-0.5,60.9c0,17.1,1,29.2,1,46.3c0,23.6-0.5,40.3-0.5,64.4V297.4z M754.8,234.5
		c0-8.1-0.5-15.6-0.5-23.1s5.5-56.9-16.1-56.9c-11.6,0-16.1,13.6-16.1,30.7v36.2c0,9.1-0.5,18.6-0.5,27.7c0,20.6,4,40.3,17.1,40.3
		c8.1,0,10.6-5.5,12.1-8.6c3-4.5,4-26.2,4-44.3V234.5z"/>
	<path class="st0" d="M210.8,358.3c-9.6,0-16.1,1-25.2,1c-13.1,0-15.1-8.1-15.1-14.1c0-11.6,1.5-20.1,1.5-31.7c0-12.6-1-21.1-1-33.7
		c0-18.1,1-31.2,1-49.3c0-22.1-1-37.2-1-59.4c0-17.1,1-29.2,1-46.8c0-7.5-0.5-15.6-0.5-23.1c0-22.1,0.5-37.2,0.5-59.4
		c0-8.1-1-14.1-1-22.6C171.1,4,181.7,2,187.7,2c8.1,0,13.6,1.5,21.6,1.5c8.6,0,14.6-1,23.1-1c17.1,0,16.1,12.6,16.1,17.6
		c0,15.6-1.5,26.7-1.5,41.8v27.7c0,19.6-1,33.7-1,53.3c0,13.6,1,23.1,0.5,36.7c0,12.6-0.5,21.6-0.5,34.7c0,12.6,0,21.6,0.5,34.7
		c0.5,19.1-1.5,32.2-1,51.3c0,14.6,2,24.2,2,38.7c0,12.1,0,20.1-16.6,20.1c-6.5,0-11.1-1-18.1-1H210.8z"/>
	<g>
		<path class="st0" d="M1688.1,57.9c-15.5,0-27.7-12.3-27.7-27.8c0-15.4,12.2-27.5,27.7-27.5c15.5,0,27.7,12.1,27.7,27.4v0.4
			C1715.8,45.9,1703.5,57.9,1688.1,57.9z M1688.2,5c-14.1,0-25.3,11.1-25.3,25.2c0,13.9,11.2,25.2,25.1,25.2
			c13.9,0,25.3-11.2,25.3-25C1713.3,16.2,1702.2,5,1688.2,5z M1702,47.7c-0.4,0-0.7-0.1-1.1-0.1c-0.7-0.1-1.2-0.1-1.6-0.1h-0.1h-0.6
			h-0.9h-0.9l-0.8,0.1h-0.3h-0.6c-0.5,0.1-0.8,0.1-1,0.1c-1.3,0-1.9-0.2-2.5-1.9l-0.2-0.4l-0.2-0.4c-0.1-0.2-0.2-0.3-0.2-0.5
			c-0.2-0.2-0.2-0.2-0.2-0.3l-1.2-2.4l-0.5-0.8c-0.2-0.4-0.6-1.1-0.9-1.6c-0.2-0.4-0.2-0.5-0.2-0.6c-0.1-0.1-0.2-0.2-0.2-0.3
			l-0.2-0.3c0-0.1,0-0.1-0.1-0.2c-0.4-0.8-0.9-1.2-1.2-1.2c-0.5,0-0.9,0.5-0.9,1.4c0,0.3,0,0.8,0.1,1.2c0,0.8,0.1,1.2,0.1,1.5
			c0,0.2-0.1,0.5-0.1,0.9c0,0.7-0.1,1.1-0.1,1.4v0.3c0,1,0.1,1.6,0.2,1.9l0.1,0.7v0.2c0,0.9-0.6,1.3-1.6,1.3h-0.6l-0.6-0.1h-1.6
			h-0.6h-0.1c-0.3,0-0.9,0-1.5,0.1c-0.7,0-0.9,0.1-1.2,0.1h-0.8h-0.9h-0.1c-1,0-1.9-0.8-1.9-1.6c0-0.2,0.1-0.5,0.1-0.9l0.1-0.6
			c0-0.3,0.1-0.5,0.1-0.6v-0.6l0.1-0.9v-1.7c0-0.9,0-1.5-0.1-3.2c0-0.3-0.1-0.6-0.1-0.8V36v-0.5l-0.1-0.5v-0.6v-1.9l0.1-1.1v-1
			l0.1-1.4v-1.5c0-0.4,0.1-0.7,0.1-0.9c0-0.4-0.1-1.1-0.1-2.2c-0.1-1.2-0.1-1.6-0.1-2.1v-1.2l0.2-3.3v-0.2v-0.5v-0.5l-0.1-0.3v-0.9
			c-0.1-0.3-0.1-0.7-0.1-0.9c0-1.7,1.1-2.4,3.8-2.4h0.9h0.4h0.4l0.5,0.1h1.2h1.2h0.9l2.6-0.1l1.1-0.1h1.1h0.4h0.4h0.9
			c0.5,0,0.9,0,1.4,0.1c2.7,0.2,3.9,0.5,5.4,1.2c1.2,0.5,2.2,1.2,3.3,2.6c0.1,0.1,0.2,0.2,0.2,0.2c0.1,0.1,0.1,0.1,0.2,0.2
			c0.1,0.1,0.2,0.3,0.4,0.7c0.1,0.1,0.2,0.2,0.3,0.5c0,0.1,0.1,0.2,0.1,0.2c0.3,0.5,0.4,0.8,0.5,1.1c0.5,1,0.8,2.6,0.8,4.7v0.4
			c0.1,0.5,0.1,0.8,0.1,1c0,3.3-2.2,7.2-5,8.9c-0.5,0.3-0.6,0.5-0.6,0.8c0,0.2,0.2,0.5,0.4,1l0.3,0.5c0.1,0.2,0.4,0.6,1,1.5
			c0.2,0.3,0.5,0.8,0.9,1.4c0.2,0.2,0.2,0.4,0.3,0.5l0.3,0.5l0.2,0.5l0.2,0.5c0.1,0.1,0.1,0.1,0.1,0.2c0.3,0.5,0.6,0.9,0.9,1.4
			c0.8,1.3,1.2,2.1,1.3,2.3c0.5,0.8,0.7,1.2,0.7,1.7C1703.9,47.2,1703.3,47.7,1702,47.7z M1691.7,23.9L1691.7,23.9
			c0-2.1-1.7-3.7-3.8-3.7c-1.6,0-2.3,0.8-2.3,2.4V23l-0.1,0.3v0.9v0.5v0.2c0,0.2,0,0.4-0.1,0.6V26v0.2v0.2c0,1.2,1.3,2.2,2.8,2.2
			c2,0,3.1-0.9,3.3-3c0.1-0.2,0.1-0.4,0.1-0.5l0.1-0.3V23.9z"/>
	</g>
	<path class="st0" d="M155,340.2c0,8.1-5.5,20.1-22.6,20.1c-22.6,0-65.9-2.5-88.6-20.6c-4.5-3.5-7.5-7.5-11.1-11.6
		c-7.5-8.6-13.6-14.6-19.6-30.7C0,264.7,0,213.9,0,181.1C0,155,1.5,98.6,10.1,72.5c5.5-16.1,11.1-24.7,16.6-32.2
		c10.1-15.1,14.6-17.6,22.6-23.6C62.4,7.5,76.5,0,103.7,0c25.2,0,49.8,1,49.8,19.6c0,5-0.5,8.6-0.5,13.6c0,12.6,1.5,21.1,1.5,34.2
		c0,12.6-6.5,17.6-14.1,17.6c-8.6,0-14.1-3-22.6-3c-15.6,0-25.2,8.6-30.2,16.6c-6.5,10.6-7.5,70.9-7.5,82c0,56.9,2.5,93.1,49.3,93.1
		c23.1,0,25.7,5.5,25.7,21.6c0,7-0.5,12.1-0.5,19.1c0,9.1,0.5,15.1,0.5,24.2V340.2z"/>
	<path class="st0" d="M379.9,76c31.2,7.5,46.3,30.2,51.8,42.3c10.1,22.6,9.6,82.5,9.6,105.2c0,37.2-2,67.4-6,81.5
		c-1.5,3.5-8.1,23.1-23.6,37.2c-12.6,11.6-31.2,20.1-61.4,20.1c-38.2,0-61.4-15.6-74-35.7c-4.5-7.5-11.6-30.2-13.1-37.7
		c-2.5-12.6-4-48.8-4-87.1c0-31.2-3-86,36.2-113.2c3.5-3,5.5-3.5,12.1-6.5c14.6-6,30.7-8.6,45.3-9.1C361.8,73,370.9,74,379.9,76z
		 M366.3,256.6c0-22.1-1.5-37.7-1.5-59.4c0-9.1,0.5-15.1,0.5-24.2c0-16.6-4-27.7-16.1-27.7c-13.1,0-15.1,12.6-15.1,28.7
		c0,9.6,1,16.1,1,25.7V235c0,19.1-1.5,40.3,1.5,45.3c2,4,4,9.6,12.6,9.6c17.6,0,17.1-22.1,17.1-30.2V256.6z"/>
	<path class="st0" d="M634,130.3c0,12.1,1,20.6,1,32.7v48.3c0,19.1-1.5,33.2-1.5,52.8c0,11.6,1,19.6,1,31.2v2
		c0,5.5-0.5,10.6-0.5,16.1c0,10.1,1.5,17.1,1.5,27.2c0,8.6-1.5,18.1-14.1,18.1c-8.1,0-13.6-1-21.6-1c-10.6,0-17.6,1.5-28.2,1.5
		c-4.5,0-7.5-1-9.6-3c-0.5-1-0.5-2-1-2.5c-1-1,0-2.5-0.5-3.5c-0.5-1,0-4-2-4.5c-1.5-0.5-2.5,2.5-6.5,4.5c0,0.5-7,4-11.1,6
		c-10.1,4.5-13.6,5-31.2,5h-2c-7.5,0-16.1-0.5-23.1-3.5c-34.2-13.6-30.7-51.8-30.7-54.8c0-9.6,1-18.6,1-27.7
		c0-12.1-1.5-20.6-1.5-32.7c0-22.1,1-37.2,1-59.4c0-24.2,0-40.8-1-64.9c0-6.5-0.5-11.1-0.5-18.1c0-8.1,1-21.1,14.6-21.1
		c9.1,0,15.6,1.5,24.7,1.5c8.6,0,15.1-2,23.6-2c4.5,0,13.1,1.5,13.1,13.6c0,8.6-1,14.1-1,22.6c0,18.1,2,31.2,1.5,49.3
		c0,17.1-1.5,29.2-1.5,45.8c0,16.1,0.5,27.7,0.5,43.8v21.1c0,6,2,13.6,15.1,13.6c14.6,0,16.6-12.6,16.6-31.2c0-11.6-1-19.6-1-31.2
		v-30.2c0-28.7,0-48.3-0.5-77c0-8.1-1-13.6-1-21.6c0-3-2-18.1,14.1-18.1c8.6,0,14.6,2,22.6,2c5,0,8.6-0.5,13.1-1
		c4.5-0.5,7.5-1.5,12.1-1.5c12.6,0,15.6,7,15.6,13.1c0,13.6-1,23.1-1,36.7V130.3z"/>
	<path class="st0" d="M975.7,213.4c-8.6,0-14.1-0.5-22.6-0.5c-3.5,0-6,0-9.6,0.5c-3.5,0.5-7.5-2-14.1,4c-2,1.5-3.5,5.5-3.5,9.6
		s0.5,7,0.5,11.1s-0.5,8.6-0.5,13.1c0,12.6,1,21.1,1,33.7c0,7.5-1,13.1-1,20.6c0,11.1,2.5,18.6,2.5,29.7
		c0.5,15.1,1.5,21.6-11.6,22.6c-5.5,0.5-10.6-1-15.6-1c-6.5,0-11.1,1-17.6,1c-5,0-9.6-0.5-14.1-0.5c-4.5,0.5-7.5,1-12.1,1
		c-12.6,0-12.1-10.1-12.1-13.6c0-15.6,2-26.7,2-42.3c0-11.1-1.5-19.1-1.5-30.7V235c0-19.6,1.5-33.2,1.5-52.8c0-23.1-2-46.3-2-69.4
		c0-19.6,1-33.7,1-53.3c0-14.1-0.5-24.2-0.5-37.7c0-18.1,10.6-19.1,18.1-19.1c6.5,0,11.1,0.5,17.6,0.5c13.6,0,23.1-1,37.2-1h19.6
		c12.1,0,20.1,0,32.2-0.5c7.5-0.5,14.1-1,16.6-0.5c3,1,4,0,8.6,5c3.5,3.5,5.5,11.1,5,20.6c0,7-1,13.6-1,20.6c0,3.5,0.5,7.5,0.5,11.1
		c0,22.1-11.6,20.6-37.7,20.6c-4.5,0-7.5-0.5-11.6-0.5c-5,0-8.6,0.5-13.1,0.5c-13.1,0-13.6,9.1-13.6,25.7c0,26.2-0.5,29.7,20.1,29.7
		c15.6,0,26.2-2.5,41.8-2.5c3.5,0,11.6,2.5,11.6,12.1c0,5-0.5,8.6-0.5,14.1c0,7,1,12.1,1,19.1c0,4-0.5,7-0.5,11.6c0,3,0.5,6,0.5,9.1
		c0,2.5-1,15.6-13.6,15.6H975.7z"/>
	<path class="st0" d="M1080.4,77c7,0,13.1,2.5,13.1,15.1c0,13.6-1.5,23.1-1.5,36.2c0,17.6,0.5,29.7,0.5,47.3c0,15.6-1,26.2-1,41.8
		c0,20.1,1.5,33.7,1,53.3c-0.5,11.6-1,19.1-1,30.2c0.5,15.1,2,25.2,2,40.3c0,1.5,0.5,16.6-13.6,16.6c-5.5,0-10.1-1-15.6-1
		c-12.6,0-21.6,1.5-34.2,1.5c-8.6,0-16.1-1.5-16.1-17.6v-1c0-10.1,1-17.1,1-27.7c0.5-21.1,0.5-35.7,0.5-56.9
		c0-13.6-0.5-23.1-0.5-36.7c0-12.6,0.5-21.6,1-34.2c0-10.1-0.5-16.6-0.5-26.7c0-13.6,1-23.1,1-36.7c0-11.6-1.5-19.6-1.5-31.2
		c0-8.6,7-12.6,14.6-12.6s12.6,1.5,19.6,1.5c11.1,0,18.6-1.5,29.7-1.5H1080.4z M1066.8,51.8c-15.1,0-25.7,1.5-40.3,1.5h-0.5
		c-9.6-1-9.6-12.1-9.6-17.6v-3c0-6.5-1-11.6-1-18.1c0-13.1,9.1-14.1,14.6-14.1c7.5,0,12.6,1,20.6,1c12.1,0,20.1-1,32.2-1
		c9.1,0,8.6,10.1,8.6,14.6c0,4-0.5,7-0.5,10.6c0,6,1,10.6,1,17.1c0,7.5-6,9.6-11.6,9.6c-4,0-7-0.5-11.6-0.5H1066.8z"/>
	<path class="st0" d="M1104.5,216.4c0-10.6,1-18.1,1.5-28.7c0-7-5-113.2,88.6-113.2c37.2,0,54.8,11.6,69.9,33.7
		c20.1,28.7,18.6,62.4,18.6,69.9c0,3-1,53.8-2,56.4c-3,7-9.1,14.6-16.6,14.6c-5,0-8.6-1-13.6-1h-0.5c-9.6,0-16.1,1-25.2,1
		c-9.6,0-16.6-0.5-26.2-0.5h-10.1c-9.6,0-12.1,3.5-12.1,12.6c0,15.6,10.6,30.7,38.7,30.7c15.1,0,19.6-1.5,28.2-4.5
		c4.5-1.5,14.1-7,18.6-7c6-0.5,15.1,5,15.1,12.6c0,11.1-1,18.6-1,29.7v14.1c0,6.5-1,7.5-4,11.1c-8.1,8.1-36.2,13.1-63.4,13.1
		c-44.8,0-68.4-14.1-85.5-39.8c-10.6-16.1-14.6-34.7-15.6-38.7c-4.5-22.6-3.5-63.9-3.5-64.4V216.4z M1191.6,190.7
		c3,0,5.5,0.5,8.6,0.5c7.5,0,13.1-1,13.1-14.1c0-9.6,3-39.8-18.6-39.8c-19.6,0-18.1,29.2-18.1,37.7c0,3.5,0,7,1,10.1
		c2,3.5,3,5.5,9.1,5.5H1191.6z"/>
	<path class="st0" d="M1338.5,358.3c-9.6,0-16.1,1-25.2,1c-13.1,0-15.1-8.1-15.1-14.1c0-11.6,1.5-20.1,1.5-31.7
		c0-12.6-1-21.1-1-33.7c0-18.1,1-31.2,1-49.3c0-22.1-1-37.2-1-59.4c0-17.1,1-29.2,1-46.8c0-7.5-0.5-15.6-0.5-23.1
		c0-22.1,0.5-37.2,0.5-59.4c0-8.1-1-14.1-1-22.6c0-15.1,10.6-17.1,16.6-17.1c8.1,0,13.6,1.5,21.6,1.5c8.6,0,14.6-1,23.1-1
		c17.1,0,16.1,12.6,16.1,17.6c0,15.6-1.5,26.7-1.5,41.8v27.7c0,19.6-1,33.7-1,53.3c0,13.6,1,23.1,0.5,36.7c0,12.6-0.5,21.6-0.5,34.7
		c0,12.6,0,21.6,0.5,34.7c0.5,19.1-1.5,32.2-1,51.3c0,14.6,2,24.2,2,38.7c0,12.1,0,20.1-16.6,20.1c-6.5,0-11.1-1-18.1-1H1338.5z"/>
	<path class="st0" d="M1568.5,297.4c0,18.6,1,31.7,1,50.3c0,13.6-14.1,12.1-15.6,12.1c-8.6,0-14.6-1-23.1-1h-2c-7.5,0-12.6,1-19.6,1
		c-6,0-9.1-2-9.1-6.5c0-3-0.5-7-4-7.5c-2,0-8.6,7-15.1,10.6c-9.6,5.5-19.6,6.5-28.7,6.5c-12.6,0-26.2-4.5-38.2-16.1
		c-26.7-26.2-26.2-76.5-26.7-103.2c-0.5-11.1-0.5-19.1-0.5-30.2c0-13.6,1-23.1,1.5-36.7c1-26.2,2.5-61.4,29.7-85
		c15.6-14.1,31.7-14.6,37.2-14.6c4,0,11.1,0.5,21.6,4c4,1.5,6.5,4.5,10.6,4.5c6.5,0,6-7,6-15.6v-9.1c0-15.6-0.5-26.7-0.5-42.3
		c0-13.6,7.5-16.1,14.1-16.1c9.1,0,15.6,2,24.7,2c9.6,0,16.6-1.5,26.2-1.5c4,0,14.1,0.5,14.1,13.6c0,9.6-1,16.1-1.5,26.2
		c-0.5,28.7-2,49.3-2,78c0,22.6-0.5,38.7-0.5,60.9c0,17.1,1,29.2,1,46.3c0,23.6-0.5,40.3-0.5,64.4V297.4z M1494,234.5
		c0-8.1-0.5-15.6-0.5-23.1s5.5-56.9-16.1-56.9c-11.6,0-16.1,13.6-16.1,30.7v36.2c0,9.1-0.5,18.6-0.5,27.7c0,20.6,4,40.3,17.1,40.3
		c8.1,0,10.6-5.5,12.1-8.6c3-4.5,4-26.2,4-44.3V234.5z"/>
	<path class="st0" d="M1686.2,192.2c17.1,19.6,39.2,42.8,39.2,84.5c0,23.1-4.5,34.7-10.1,45.3c-3,6-3,7.5-7.5,13.1
		c-4,5.5-17.1,18.1-34.2,24.2c-5,1.5-18.6,3.5-33.2,3.5c-22.1,0-34.2-1-44.8-4c-4.5-1.5-10.1-2-14.1-6.5c-2.5-3-4-5.5-4-11.6
		c0-8.6,1-15.1,1-24.2V315c0-7-1-12.6-1-19.6c0-6.5,5.5-14.1,13.1-14.1c5.5,0,8.6,4,13.6,4.5c2.5,1,18.6,2.5,21.1,2.5
		c0.5,0,20.1,0,19.6-15.6c0-13.1-12.6-20.1-23.1-30.2c-4.5-4-14.6-12.6-22.1-25.2c-5.5-8.6-18.1-32.2-18.1-57.4
		c0-23.6,6-37.2,12.6-48.3c5-8.6,7.5-11.6,11.6-15.6C1621.8,80,1646,76,1662.6,76c10.1,0,17.1,1,26.7,2c10.6,1,27.7-1,27.7,17.1
		c0,7-0.5,12.1-0.5,19.1v2.5c0,7,0.5,12.1,0.5,19.1c0,12.6-11.6,15.1-15.1,15.1c-4.5,0-10.6-3.5-11.6-4c-4-1-6-2.5-12.6-2.5
		c-12.6,0-17.1,6.5-17.1,13.6c0,7.5,8.6,14.6,22.1,30.2L1686.2,192.2z"/>
</g>
</svg>
